<svg width="302" height="565" viewBox="0 0 302 565" fill="none" xmlns="http://www.w3.org/2000/svg">
<g clip-path="url(#clip0_31_161)">
<path d="M251.371 356.703C251.371 356.703 261.465 385.718 277.513 383.765C290.046 382.236 296.312 374.112 299.431 366.328C302.266 359.251 302.635 351.438 301.075 343.993C295.178 315.828 281.88 253.835 281.88 253.835L236.144 261.365L251.342 356.703" fill="#FFC3A4"/>
<path d="M125.138 169.962L188.509 169.141L181.421 115.272C181.421 115.272 185.759 114.338 186.043 90.9283C186.326 67.49 187.404 27.6903 187.404 27.6903C160.24 16.0278 128.881 19.9625 105.432 37.9657L101.944 40.6266L125.109 169.933L125.138 169.962Z" fill="#FFC3A4"/>
<path d="M109.345 69.4715C108.948 69.3017 93.2111 64.7159 93.7215 80.7377C94.2318 96.7595 110.252 92.9381 110.252 92.4851C110.252 92.0322 109.345 69.4998 109.345 69.4998L109.345 69.4715Z" fill="#FFC3A4"/>
<path d="M184.71 66.1313C185.107 65.9614 199.426 62.1117 198.915 78.1335C198.405 94.1553 182.385 90.3338 182.385 89.8809C182.385 89.428 184.71 66.1313 184.71 66.1313Z" fill="#FFC3A4"/>
<path d="M202.715 19.8492C202.97 16.9336 201.893 13.8198 199.511 12.1214C197.129 10.423 193.471 10.5362 191.543 12.7159C192.649 8.80948 189.445 4.28035 185.39 4.02558C181.563 3.77082 178.302 6.65814 174.587 7.67719C170.987 8.66794 167.102 7.81873 163.643 6.40338C160.184 5.01633 156.923 3.09145 153.407 1.78933C146.063 -0.871538 137.699 -0.560161 130.582 2.69515C123.493 5.95046 117.766 12.0648 115.015 19.368C109.883 17.7545 104.042 20.3588 100.895 24.718C97.7194 29.049 96.9255 34.767 97.5493 40.0888C97.9746 43.6838 99.0237 47.1655 100.243 50.5907C100.243 50.9021 100.215 51.1851 100.243 51.4965C100.498 64.3762 107.218 105.11 112.719 105.195C122.302 105.337 114.76 61.7154 114.76 61.7154C126.527 57.1862 122.161 39.5509 125.109 36.8901C128.058 34.2292 134.211 28.0017 158.879 40.5983C168.463 45.4954 181.194 45.3256 188.141 43.7687C188.339 43.7121 188.538 43.6838 188.765 43.6555C188.821 43.6555 188.878 43.6555 188.906 43.6272C188.991 43.6272 189.048 43.5705 189.105 43.5422C191.316 42.9761 193.443 42.0986 195.428 40.8531C197.668 39.4377 199.681 37.5411 200.645 35.0784C201.581 32.6157 201.24 29.5302 199.312 27.7469C201.127 25.454 202.545 22.7649 202.8 19.8775L202.715 19.8492Z" fill="#333333"/>
<path d="M104.127 67.6882C106.538 81.1057 106.056 88.1542 108.267 97.1275C111.783 111.309 118.843 122.208 131.631 129.284C144.419 136.361 161.743 136.248 172.744 126.595C180.372 119.915 185.787 112.328 186.922 102.251C188.056 92.1738 189.19 74.312 189.247 64.1781C189.388 45.8917 190.608 28.398 190.608 28.398L138.266 18.9434L108.494 36.6353L104.127 67.6882Z" fill="#333333"/>
<path d="M85.5838 280.274L39.8486 272.744C39.8486 272.744 17.8458 352.938 13.1957 375.612C8.5456 398.286 4.43425 470.922 4.43425 470.922C3.12996 478.961 -1.94543 508.656 0.804922 512.534C3.95223 516.978 9.16939 517.233 11.2676 517.233C11.2676 517.233 12.3167 523.234 16.7683 523.234C16.7683 523.234 18.6113 528.442 23.0346 528.98C27.4862 529.49 45.009 528.98 45.009 528.98C45.009 528.98 45.2642 522.441 39.7919 521.932C39.7919 521.932 39.2815 517.742 30.3783 517.487C30.3783 517.487 32.7317 511.741 25.4163 510.184L22.5242 508.712L27.5145 496.851L29.8679 499.088C32.2213 501.324 34.3195 512.817 37.1833 513.071C40.0471 513.326 43.7331 510.977 43.7331 510.977L37.24 468.828L31.5692 462.119L61.0858 371.31L85.6122 280.274L85.5838 280.274Z" fill="#FFC3A4"/>
<path d="M253.44 433.698L172.404 433.698L75.7733 446.72C75.7733 446.72 83.514 584.745 85.9241 626.979C88.3058 669.241 89.6952 740.972 89.6952 740.972L107.785 908.068L170.476 901.388L170.476 869.429C207.705 860.512 223.215 882.054 223.215 882.054C223.215 882.054 246.409 772.053 249.613 751.332C252.817 730.611 249.613 652.455 249.613 652.455L253.44 433.67L253.44 433.698ZM170.476 740.236L170.476 571.384L172.404 516.893L172.404 529.263L176.147 667.458L170.476 740.264L170.476 740.236Z" fill="#000C3D"/>
<path d="M219.254 362.974C219.254 362.974 218.363 364.22 216.554 366.314C215.663 367.39 214.55 368.635 213.103 369.994C211.683 371.353 210.124 372.995 208.176 374.523C206.283 376.137 204.196 377.835 201.774 379.477C199.436 381.232 196.736 382.761 193.953 384.459C188.246 387.629 181.65 390.573 174.468 392.81C167.259 394.961 160.161 396.15 153.676 396.688C150.419 396.829 147.33 397.056 144.435 396.886C141.54 396.886 138.868 396.603 136.419 396.32C133.969 396.15 131.798 395.612 129.878 395.272C127.957 394.961 126.315 394.536 125.007 394.14C122.362 393.404 120.915 392.923 120.943 392.838C121.026 392.527 126.844 394.367 136.53 395.272C138.952 395.499 141.596 395.697 144.463 395.64C147.33 395.754 150.364 395.499 153.565 395.329C159.967 394.706 166.925 393.517 174.051 391.394C181.149 389.186 187.634 386.299 193.312 383.27C196.096 381.628 198.768 380.156 201.106 378.458C203.528 376.901 205.643 375.259 207.536 373.702C215.135 367.531 219.004 362.748 219.254 362.974Z" fill="#142286"/>
<path d="M84.4238 378.656L86.7619 286.149L71.1468 220.193L75.823 175.015L125.758 149.369L188.302 143.877L241.689 158.003L241.828 336.111L258.556 440.564L77.8827 449.877L84.4238 378.656Z" fill="#6D6E71"/>
<path d="M81.2619 175.085C81.2619 175.085 63.5313 171.603 54.9583 203.562C46.3853 235.549 33.0804 289.191 33.0804 289.191L92.4513 286.926L85.27 177.406" fill="#6D6E71"/>
<path d="M240.642 158.78C240.642 158.78 273.877 160.281 280.306 217.687C280.501 219.414 291.718 280.019 291.718 280.019L233.043 280.019L240.642 158.78Z" fill="#6D6E71"/>
<path d="M181.939 362.903C182.023 363.072 179.545 364.431 175.426 366.299C171.279 368.168 165.433 370.461 158.809 372.499C152.184 374.537 146.061 375.895 141.607 376.688C137.154 377.481 134.342 377.707 134.314 377.537C134.287 377.311 137.014 376.716 141.384 375.669C145.782 374.622 151.794 373.093 158.363 371.083C164.932 369.073 170.778 366.95 175.008 365.337C179.239 363.723 181.828 362.704 181.911 362.903L181.939 362.903Z" fill="#8A8A8A" stroke="#8A8A8A"/>
<path d="M83.6278 267.083C83.7113 267.479 72.9672 269.97 59.6345 272.631C46.3018 275.292 35.4463 277.132 35.3628 276.707C35.2793 276.311 46.0234 273.82 59.3561 271.159C72.6889 268.498 83.5443 266.658 83.6278 267.083Z" fill="#8A8A8A" stroke="#8A8A8A"/>
<path d="M284.696 253.977C284.696 254.373 274.592 254.571 262.15 254.373C249.708 254.175 239.604 253.694 239.632 253.298C239.632 252.901 249.736 252.703 262.178 252.901C274.62 253.099 284.724 253.581 284.696 253.977Z" fill="#8A8A8A" stroke="#8A8A8A"/>
<path d="M80.186 216C80.186 216 80.5209 217.137 80.7814 219.211C81.0419 221.597 81.414 224.524 81.8233 227.99C82.6791 235.747 83.7581 245.805 84.986 256.943C86.1767 268.252 87.107 278.509 87.5907 285.953C87.8512 289.675 87.9628 292.687 88 294.761C88 296.835 88 298 87.814 298C87.6651 298 87.4791 296.863 87.2186 294.789C86.9581 292.403 86.586 289.476 86.1767 286.01C85.3209 278.253 84.2419 268.195 83.014 257.057C81.8233 245.748 80.893 235.491 80.4093 228.047C80.1488 224.325 80.0372 221.313 80 219.239C80 217.165 80 216 80.186 216Z" fill="#8A8A8A" stroke="#8A8A8A"/>
<path d="M245.597 213.3C245.597 213.3 245.736 214.404 245.708 216.385C245.708 218.367 245.597 221.254 245.43 224.792C245.096 231.869 244.428 241.663 243.62 252.448C242.869 263.064 242.201 272.66 241.672 280.076C241.449 283.36 241.282 286.162 241.115 288.455C240.976 290.436 240.837 291.54 240.753 291.512C240.642 291.512 240.586 290.408 240.559 288.427C240.531 286.445 240.559 283.558 240.642 280.019C240.837 272.914 241.366 263.12 242.173 252.335C243.036 241.72 243.787 232.152 244.4 224.707C244.678 221.424 244.929 218.65 245.151 216.357C245.346 214.375 245.513 213.3 245.597 213.3Z" fill="#8A8A8A" stroke="#8A8A8A"/>
<path d="M241.338 159.743C241.7 159.601 243.565 163.536 244.511 168.829C245.458 174.094 245.068 178.482 244.706 178.454C244.288 178.454 244.038 174.208 243.092 169.084C242.201 163.96 240.976 159.884 241.366 159.743L241.338 159.743Z" fill="#8A8A8A" stroke="#8A8A8A"/>
<path d="M251.442 430.019C251.442 430.415 213.058 433.415 165.628 436.699C118.198 439.983 79.731 442.332 79.7032 441.908C79.7032 441.511 118.087 438.511 165.517 435.227C212.919 431.943 251.386 429.594 251.414 430.019L251.442 430.019Z" fill="#8A8A8A" stroke="#8A8A8A"/>
<g opacity="0.3">
<path d="M79.9258 221.82C76.7805 244.154 72.2992 266.291 66.5374 288.087L85.7154 286.926L79.9258 221.792L79.9258 221.82Z" fill="black"/>
</g>
<path d="M171.713 16.5879C171.713 16.5879 170.862 16.9559 169.218 17.0408C167.573 17.1258 165.163 16.7578 162.526 15.484C159.832 14.2668 157.082 12.1154 154.048 9.79424C151.043 7.50137 147.385 5.2085 142.99 4.69897C138.652 4.13283 134.399 4.98204 131.081 6.76538C127.735 8.54873 125.354 11.153 123.823 13.5591C120.76 18.5128 120.902 22.3343 120.704 22.2493C120.704 22.2493 120.675 21.3435 120.959 19.73C121.271 18.1448 121.951 15.8236 123.454 13.3326C124.957 10.8416 127.367 8.15243 130.826 6.28416C134.229 4.4159 138.623 3.51007 143.075 4.10452C147.583 4.64235 151.383 7.02015 154.388 9.34133C157.422 11.6908 160.116 13.8421 162.724 15.0877C165.305 16.3898 167.63 16.7861 169.246 16.7861C170.862 16.7861 171.713 16.503 171.741 16.5596L171.713 16.5879Z" fill="#6D6E71"/>
<path d="M121.441 23.1835C121.441 23.1835 120.108 22.3343 117.67 21.7681C115.316 21.202 111.63 21.2303 108.426 23.2118C105.222 25.2216 103.549 28.4769 103.011 30.8547C102.444 33.2608 102.727 34.846 102.614 34.846C102.585 34.846 102.472 34.478 102.415 33.7703C102.358 33.0626 102.358 32.0153 102.614 30.7698C103.067 28.3071 104.74 24.8536 108.114 22.7306C111.517 20.6358 115.345 20.6925 117.783 21.3718C119.002 21.7115 119.966 22.1644 120.562 22.5324C121.157 22.9004 121.469 23.1552 121.441 23.1835Z" fill="#6D6E71"/>
<path d="M119.881 80.3071C119.513 80.477 117.556 76.797 115.486 72.0981C113.445 67.3991 112.084 63.4644 112.453 63.2946C112.821 63.1247 114.778 66.8047 116.847 71.5036C118.889 76.2026 120.25 80.1373 119.881 80.3071Z" fill="#6D6E71"/>
<path d="M133.605 89.5069C133.406 89.8183 129.408 87.0442 126.204 82.1188C122.972 77.1934 122.036 72.4378 122.405 72.3812C122.83 72.2396 124.333 76.6272 127.424 81.3262C130.486 86.0535 133.888 89.1956 133.605 89.5069Z" fill="#6D6E71"/>
<path d="M147.13 92.4509C146.931 92.7905 143.954 91.2903 140.863 88.6011C137.773 85.9119 135.873 83.1661 136.185 82.9397C136.497 82.6566 138.822 84.9212 141.827 87.4971C144.805 90.1014 147.356 92.1112 147.13 92.4509Z" fill="#6D6E71"/>
<path d="M171.032 70.7393C171.401 70.7393 171.372 74.5042 169.614 78.7219C167.885 82.9397 165.248 85.6288 164.964 85.3741C164.624 85.1193 166.637 82.1754 168.253 78.1841C169.926 74.1928 170.607 70.711 171.032 70.7676L171.032 70.7393Z" fill="#6D6E71"/>
<path d="M179.141 58.0861C179.51 58.0578 179.907 62.6152 178.206 67.9086C176.561 73.2021 173.641 76.7404 173.329 76.4857C172.96 76.2592 175.229 72.5227 176.788 67.4557C178.404 62.4171 178.688 58.0578 179.113 58.0861L179.141 58.0861Z" fill="#6D6E71"/>
<path d="M185.351 25.7028C185.351 25.7028 184.727 26.4388 183.253 27.3163C181.807 28.2221 179.425 29.1563 176.363 29.4393C173.301 29.7224 169.586 29.2412 165.787 27.8258C161.959 26.4388 158.103 24.2308 154.048 21.9946C149.993 19.7583 146.024 17.8051 142.139 16.871C138.283 15.8803 134.597 16.0501 131.705 16.9276C128.813 17.7768 126.771 19.2205 125.581 20.4094C124.39 21.5983 123.936 22.4475 123.879 22.3909C123.879 22.3909 124.248 21.5134 125.41 20.2395C126.545 18.9657 128.614 17.4371 131.563 16.503C134.484 15.5406 138.283 15.3424 142.224 16.3332C146.194 17.2673 150.22 19.2205 154.303 21.4567C158.358 23.7213 162.186 25.901 165.928 27.288C169.643 28.7317 173.272 29.2412 176.278 29.0147C182.402 28.5901 185.266 25.5047 185.294 25.6745L185.351 25.7028Z" fill="#6D6E71"/>
<path d="M190.029 33.3174C190.029 33.3174 189.746 33.5439 189.179 33.8836C188.612 34.2232 187.761 34.6478 186.684 35.1008C184.529 36.0349 181.381 36.969 177.78 37.3087C174.18 37.6201 170.919 37.2804 168.622 36.7426C167.488 36.4878 166.552 36.233 165.957 35.9783C165.333 35.7518 164.993 35.6103 165.021 35.582C165.049 35.4971 166.439 35.9217 168.707 36.3463C170.975 36.7709 174.208 37.0539 177.724 36.7426C181.24 36.4029 184.359 35.5537 186.514 34.7328C188.697 33.9119 189.973 33.2325 190.001 33.3174L190.029 33.3174Z" fill="#6D6E71"/>
<path d="M12.249 505.847C12.3624 505.706 14.3472 507.234 18.2884 507.602C20.2165 507.857 22.6266 507.857 25.3203 508.65C26.6529 509.046 28.0139 509.754 29.1481 510.829C30.2822 511.905 31.2179 513.433 31.2179 515.273C31.2179 516.179 30.9627 517.085 30.3389 517.821C29.7151 518.585 28.6093 518.897 27.8438 518.868C26.3126 518.84 25.0084 518.727 23.6757 518.642C21.2089 518.472 18.8555 518.302 16.7006 518.132C12.731 517.793 10.2642 517.51 10.2926 517.283C10.2926 517.085 12.7877 517.028 16.7573 517.085C18.9406 517.142 21.2656 517.198 23.7608 517.283C25.0934 517.34 26.4544 517.368 27.8438 517.425C28.4959 517.425 28.9212 517.255 29.2615 516.859C29.6017 516.462 29.8002 515.868 29.8002 515.245C29.7435 512.613 27.22 510.659 24.9516 509.952C22.5699 509.159 20.1882 509.046 18.175 508.65C14.092 507.998 12.1072 505.989 12.3057 505.875L12.249 505.847Z" fill="#FFC3A4"/>
<path d="M39.2138 521.02C39.2138 521.02 39.8092 520.907 40.0928 521.699C40.2062 522.067 40.2345 522.548 39.9794 523.086C39.6958 523.624 39.1287 523.992 38.4766 524.162C37.1723 524.473 35.8964 524.332 34.3936 524.388C32.7774 524.388 31.1896 524.36 29.5167 524.332C22.6266 524.162 17.0408 523.709 17.0408 523.313C17.0408 522.916 22.655 522.69 29.545 522.86C31.2179 522.916 32.8058 522.973 34.3936 523.03C35.868 523.058 37.2857 523.284 38.2214 523.143C39.2138 523.03 39.5257 522.35 39.4973 521.812C39.4973 521.303 39.1287 521.133 39.1854 521.02L39.2138 521.02Z" fill="#FFC3A4"/>
<path d="M12.1072 495.742C12.5042 495.798 12.6176 497.893 12.3341 500.469C12.0505 503.045 11.5118 505.083 11.0865 505.026C10.6895 504.97 10.5761 502.875 10.8596 500.299C11.1432 497.723 11.6819 495.685 12.1072 495.742Z" fill="#FFC3A4"/>
<path d="M26.0291 483.032C26.3694 483.23 24.8949 486.089 21.776 488.467C18.6854 490.844 15.5381 491.524 15.4247 491.156C15.2829 490.759 18.0049 489.514 20.8687 487.278C23.7608 485.098 25.6605 482.777 26.0008 483.003L26.0291 483.032Z" fill="#FFC3A4"/>
<path d="M27.5886 495.798C27.305 496.053 26.0575 495.175 25.2352 493.534C24.4129 491.92 24.4129 490.392 24.8099 490.307C25.2068 490.222 25.8306 491.439 26.5678 492.854C27.2767 494.298 27.9005 495.515 27.5886 495.77L27.5886 495.798Z" fill="#FFC3A4"/>
</g>
<defs>
<clipPath id="clip0_31_161">
<rect width="302" height="974.81" fill="white"/>
</clipPath>
</defs>
</svg>
