<svg width="1920" height="979" viewBox="0 0 1920 979" fill="none" xmlns="http://www.w3.org/2000/svg">
<rect x="-55" y="457" width="2026" height="517" fill="#FDEBD8"/>
<path d="M-332 259L787 457.5C638.376 513.234 682.562 665.805 615 777C423 1093 284.655 905.632 261 1200H-332V259Z" fill="#FFE380"/>
<path d="M1291 493.691C1361 553.691 1433 562.382 1349 749.691C1265 937 1848.96 1176.39 1984 1298.19L2386 1264.19L2077.82 444.188C2077.82 410.188 2068.4 313.677 2027.82 264.188C1945.82 164.188 2181.82 52.5242 2027.82 121.191C1953.32 155.39 1149.6 372.493 1291 493.691Z" fill="#FFE380"/>
<g clip-path="url(#clip0_109_3871)">
<path d="M1882.1 585.524C1882.1 585.524 1957.41 601.145 1972.47 542.947C1987.55 484.766 1984.31 338.591 1921.93 293.191C1859.55 247.775 1801.45 305.956 1788.55 368.403C1775.64 430.834 1747.66 608.232 1882.13 585.524H1882.1Z" fill="#8199FD"/>
<path d="M1885.62 603.966C1885.62 603.966 1878.65 600.775 1878.49 603.966C1878.35 607.158 1878.49 355.974 1878.49 355.974L1885.62 603.966Z" fill="#292949"/>
<path d="M1878.43 476.25C1878.43 476.25 1855.74 474.117 1842.84 442.205C1842.84 442.205 1847.97 469.196 1878.49 479.996L1878.43 476.267V476.25Z" fill="#292949"/>
<path d="M1851.73 293.729C1851.73 293.729 1810.17 310.76 1796.47 385.25C1796.47 385.25 1799.29 311.801 1851.73 293.729Z" fill="#B4C2FE"/>
</g>
<path d="M1603.45 667.766C1603.45 804.603 1709.34 915.531 1839.96 915.531C1970.57 915.531 2076.46 804.603 2076.46 667.766C2076.46 530.928 1970.57 420 1839.96 420C1709.34 420 1603.45 530.928 1603.45 667.766Z" fill="#B38C00"/>
<ellipse cx="135.678" cy="142.139" rx="135.678" ry="142.139" transform="matrix(-1 0 0 1 2186 602.564)" fill="#B38C00"/>
<ellipse cx="182.979" cy="191.692" rx="182.979" ry="191.692" transform="matrix(-1 0 0 1 1839.96 532.146)" fill="#B38C00"/>
<path d="M1857.38 1147.58C1857.38 1147.58 1826.01 1140.23 1825.29 1147.58C1824.69 1154.93 1825.29 576.483 1825.29 576.483L1857.38 1147.58Z" fill="#292949"/>
<path d="M1824.26 826.118C1824.26 826.118 1774.66 821.229 1746.46 748.074C1746.46 748.074 1757.68 809.947 1824.37 834.705L1824.26 826.157V826.118Z" fill="#292949"/>
<g clip-path="url(#clip1_109_3871)">
<path d="M1748.97 276.449C1748.97 276.449 1715.14 285.729 1708.37 251.139C1701.61 216.529 1703.07 129.629 1731.09 102.629C1759.12 75.6189 1785.21 110.219 1791.02 147.349C1796.81 184.479 1809.37 289.959 1748.97 276.459V276.449Z" fill="#4F70FC"/>
<path d="M1747.41 287.41C1747.41 287.41 1750.54 285.52 1750.6 287.41C1750.66 289.31 1750.6 139.96 1750.6 139.96L1747.41 287.41Z" fill="#292949"/>
<path d="M1750.63 211.47C1750.63 211.47 1760.81 210.2 1766.61 191.22C1766.61 191.22 1764.3 207.27 1750.6 213.7L1750.63 211.47Z" fill="#292949"/>
<path d="M1749.92 175.55C1749.92 175.55 1739.74 174.29 1733.94 155.3C1733.94 155.3 1736.25 171.35 1749.95 177.78L1749.92 175.55Z" fill="#292949"/>
<path d="M1749.09 232.91C1749.09 232.91 1738.91 231.64 1733.11 212.65C1733.11 212.65 1735.42 228.7 1749.13 235.13L1749.1 232.91H1749.09Z" fill="#292949"/>
</g>
<g clip-path="url(#clip2_109_3871)">
<path d="M1887.51 188.717C1887.51 188.717 1929.43 197.411 1937.81 165.019C1946.21 132.637 1944.4 51.28 1909.67 26.0118C1874.95 0.73428 1842.61 33.1164 1835.43 67.873C1828.24 102.62 1812.67 201.356 1887.52 188.717H1887.51Z" fill="#010F4B"/>
<path d="M1889.46 198.981C1889.46 198.981 1885.58 197.205 1885.49 198.981C1885.42 200.757 1885.49 60.9552 1885.49 60.9552L1889.46 198.981Z" fill="#8199FD" fill-opacity="0.5"/>
<path d="M1885.46 127.898C1885.46 127.898 1872.83 126.71 1865.65 108.949C1865.65 108.949 1868.51 123.971 1885.49 129.982L1885.46 127.907V127.898Z" fill="#8199FD" fill-opacity="0.5"/>
<path d="M1870.6 26.3108C1870.6 26.3108 1847.47 35.7899 1839.84 77.2491C1839.84 77.2491 1841.41 36.3694 1870.6 26.3108Z" fill="#8199FD" fill-opacity="0.5"/>
</g>
<g clip-path="url(#clip3_109_3871)">
<path d="M492.862 442.853C492.862 442.853 542.203 453.123 552.068 414.858C561.95 376.604 559.823 280.496 518.953 250.646C478.082 220.785 440.017 259.039 431.564 300.097C423.111 341.145 404.776 457.783 492.879 442.853H492.862Z" fill="#FFCD1A"/>
<path d="M495.162 454.978C495.162 454.978 490.596 452.88 490.491 454.978C490.404 457.076 490.491 291.925 490.491 291.925L495.162 454.978Z" fill="#292949"/>
<path d="M491.136 361.024C491.136 361.024 478.939 369.64 458.862 359.218C458.862 359.218 472.97 370.497 492.766 362.871L491.143 361.033L491.136 361.024Z" fill="#292949"/>
<path d="M472.958 250.999C472.958 250.999 445.734 262.197 436.758 311.173C436.758 311.173 438.605 262.882 472.958 250.999Z" fill="#FFEEB3"/>
<g clip-path="url(#clip4_109_3871)">
<path d="M482.803 365.616C481.599 364.61 480.111 364.518 478.619 364.263C478.569 364.254 478.524 364.257 478.48 364.255C478.291 362.108 478.253 359.973 478.357 357.811C478.409 356.714 476.724 356.607 476.671 357.707C476.558 360.019 476.826 362.375 477.459 364.604C476.586 364.766 475.762 365.109 475.028 365.63C474.726 365.845 475.008 366.341 475.34 366.259C477.507 365.743 479.353 366.254 481.301 367.31C481.874 367.622 482.415 366.846 481.872 366.449C481.539 366.206 481.202 365.968 480.859 365.743C481.491 365.779 482.124 365.827 482.748 365.787C482.841 365.781 482.88 365.678 482.807 365.613L482.803 365.616Z" fill="#FF818D"/>
<path d="M487.541 363.545C486.337 362.538 484.849 362.446 483.357 362.192C483.307 362.183 483.262 362.186 483.218 362.183C483.029 360.036 482.991 357.902 483.095 355.74C483.148 354.643 481.462 354.536 481.409 355.636C481.296 357.948 481.564 360.304 482.197 362.532C481.324 362.695 480.5 363.038 479.766 363.558C479.464 363.774 479.746 364.27 480.078 364.188C482.239 363.675 484.099 364.186 486.039 365.238C486.612 365.55 487.153 364.775 486.61 364.377C486.277 364.134 485.94 363.897 485.597 363.671C486.229 363.707 486.862 363.755 487.486 363.716C487.579 363.709 487.618 363.607 487.545 363.542L487.541 363.545Z" fill="#FF818D"/>
<path d="M475.471 354.406C475.458 356.439 475.497 358.597 476.582 360.309C476.855 360.744 478.276 360.606 478.342 360.213C478.667 358.27 478.975 356.036 479.805 354.25L475.471 354.406Z" fill="#CDCED3"/>
<path d="M486.743 350.068L482.216 352.718C481.753 353.63 481.29 354.564 481.089 355.568C480.884 356.575 480.964 357.678 481.521 358.536C481.815 358.987 483.23 358.804 483.23 358.464C483.23 358.127 483.165 357.54 483.192 357.202C483.25 356.402 483.866 355.776 484.379 355.164C485.596 353.717 486.42 351.933 486.743 350.065L486.743 350.068Z" fill="#CDCED3"/>
<path d="M475.21 351.933C473.752 350.111 472.294 348.292 470.836 346.47C470.789 346.413 470.733 346.397 470.679 346.409C470.643 346.413 470.607 346.423 470.575 346.454C467.283 349.48 463.883 352.425 460.711 355.583C460.017 356.274 459.328 356.986 458.724 357.758C458.34 358.248 457.906 358.952 458.119 359.606C458.539 360.901 460.355 360.442 461.423 360.005C461.08 360.877 460.757 361.919 461.75 362.458C462.861 363.059 463.923 362.289 464.712 361.507C464.819 362.467 465.249 363.309 466.412 363.158C467.797 362.979 468.861 361.791 469.712 360.775C471.915 358.145 473.761 355.221 475.243 352.119C475.271 352.057 475.246 351.981 475.207 351.933L475.21 351.933Z" fill="#7B7B89"/>
<path d="M470.579 359.163C470.081 359.325 469.585 359.453 469.068 359.539C468.633 359.599 468.158 359.645 467.736 359.484C467.039 359.215 467.006 358.5 467.143 357.874C467.175 357.732 467.037 357.552 466.883 357.645C466.262 358.021 465.38 358.571 464.643 358.234C464.041 357.96 463.987 357.201 463.984 356.612C463.985 356.464 463.85 356.375 463.713 356.433C462.778 356.829 461.203 357.108 461.02 355.677C461.002 355.538 460.809 355.478 460.714 355.574C460.02 356.268 459.322 356.98 458.718 357.757C458.333 358.251 457.9 358.952 458.113 359.606C458.533 360.901 460.345 360.441 461.416 360.005C461.074 360.877 460.751 361.919 461.744 362.458C462.849 363.056 463.907 362.297 464.696 361.519C464.728 362.002 464.832 362.486 465.189 362.827C465.655 363.274 466.336 363.232 466.907 363.038C468.578 362.477 469.734 360.795 470.766 359.451C470.86 359.328 470.727 359.112 470.573 359.163L470.579 359.163Z" fill="#282F39"/>
<path d="M461.864 359.112C464.382 356.669 466.771 354.02 469.081 351.375C469.299 351.124 468.973 350.728 468.734 350.977C466.307 353.54 463.883 356.185 461.672 358.941C461.579 359.056 461.76 359.214 461.867 359.113L461.864 359.112Z" fill="#595970"/>
<path d="M464.67 360.834C467.061 358.371 469.064 355.458 470.934 352.581C471.122 352.289 470.679 351.991 470.492 352.28C468.621 355.181 466.483 357.861 464.473 360.657C464.385 360.778 464.565 360.942 464.67 360.831L464.67 360.834Z" fill="#595970"/>
<path d="M492.607 342.376C492.482 341.902 492.319 341.453 492.132 341.018C491.615 339.807 490.983 338.676 490.436 337.461C490.295 337.148 490.168 336.734 490.054 336.279C489.787 334.921 489.631 333.58 489.553 332.056C489.521 331.42 489.389 330.852 489.809 329.937C490.451 328.536 491.122 328.174 490.974 326.857C490.879 325.994 490.987 324.043 489.413 323.281C487.839 322.519 485.283 322.927 484.015 324.142C482.934 325.176 482.536 326.757 482.497 328.261C482.458 329.766 482.729 331.259 482.755 332.764C482.758 333.047 482.755 333.333 482.741 333.617C482.509 334.569 481.88 335.465 481.194 336.165C480.198 337.184 478.927 337.869 477.732 338.634C473.319 341.46 469.719 345.568 467.474 350.337C467.244 350.825 467.024 351.368 467.161 351.888C467.291 352.38 467.673 352.801 468.126 353.021C474.005 355.88 481.346 356.122 487.308 353.26C489.665 352.131 491.767 350.212 492.582 347.707C493.136 345.997 493.062 344.121 492.601 342.382L492.607 342.376Z" fill="#CDCED3"/>
<path d="M491.866 339.982C491.334 338.863 490.661 337.769 490.324 336.569C489.997 335.41 489.888 334.152 489.795 332.952C489.702 331.761 489.588 330.72 490.164 329.625C490.541 328.908 491.099 328.257 491.171 327.422C491.225 326.797 491.127 326.072 491.028 325.453C490.767 323.852 489.728 322.913 488.138 322.733C486.538 322.55 484.675 323.046 483.594 324.311C481.991 326.191 482.276 328.852 482.471 331.135C482.536 331.873 482.622 332.642 482.562 333.384C482.499 334.162 482.016 334.902 481.536 335.492C480.632 336.606 479.423 337.352 478.223 338.096C478.133 338.151 478.098 338.248 478.139 338.35C478.836 340.011 479.641 341.621 480.79 343.012C482.876 345.457 486.568 347.853 489.874 346.616C491.387 346.051 492.765 344.593 492.828 342.892C492.866 341.893 492.276 340.852 491.863 339.981L491.866 339.982Z" fill="#BDBEC3"/>
<path d="M492.55 341.573C492.395 341.139 492.207 340.715 492.016 340.298C491.627 339.459 491.193 338.638 490.802 337.802C490.008 336.111 489.87 334.154 489.755 332.306C489.71 331.582 489.636 330.9 489.899 330.201C490.169 329.49 490.663 328.91 490.968 328.219C491.352 327.346 491.181 326.106 490.982 325.188C490.749 324.103 490.116 323.276 489.055 322.925C486.641 322.13 483.752 323.26 482.793 325.681C482.106 327.422 482.319 329.318 482.474 331.135C482.571 332.266 482.745 333.452 482.205 334.496C481.702 335.46 480.925 336.233 480.073 336.884C480.011 336.935 479.992 337.042 480.03 337.11C482.014 340.814 485.427 343.536 489.686 343.739C490.367 343.742 491.022 343.572 491.633 343.263C491.937 343.111 492.666 342.768 492.77 342.383C492.832 342.158 492.626 341.779 492.55 341.57L492.55 341.573Z" fill="#7B7B89"/>
<path d="M481.187 339.557C481.187 339.557 481.176 339.548 481.171 339.541C481.165 339.535 481.166 339.526 481.16 339.52C478.895 336.415 475.233 340.279 473.451 341.967C472.216 343.139 470.977 344.467 469.47 345.276C468.482 345.804 467.378 346.067 466.364 346.546C465.441 346.982 464.578 347.521 463.761 348.132C463.636 348.227 463.709 348.397 463.825 348.452C464.986 349.014 466.229 349.058 467.462 348.887C466.959 349.133 466.472 349.409 465.998 349.714C465.906 349.774 465.876 349.863 465.914 349.967C466.169 350.657 467.938 350.39 468.439 350.355C468.813 350.327 469.199 350.293 469.585 350.248C469.386 350.344 469.203 350.462 469.072 350.613C468.985 350.713 468.987 350.888 469.135 350.933C470.7 351.421 472.408 351.216 473.965 350.801C475.462 350.403 476.963 349.792 478.202 348.843C479.607 347.766 480.696 346.263 481.302 344.59C481.883 342.989 482.138 341.063 481.184 339.56L481.187 339.557Z" fill="#7B7B89"/>
<path d="M492.702 327.246C492.305 326.888 491.888 326.552 491.442 326.257C491.128 326.048 490.782 325.735 490.393 325.771C489.618 325.838 489.074 326.562 488.87 327.262C488.795 327.522 488.685 327.898 488.848 328.145C489.09 328.515 489.811 328.544 490.194 328.649C491.224 328.929 492.807 329.153 493.259 330.273C493.311 330.396 493.515 330.415 493.579 330.293C494.209 329.101 493.581 328.082 492.702 327.246Z" fill="#FFC803"/>
<path d="M487.294 326.29C487.264 326.784 486.845 327.158 486.356 327.128C485.867 327.098 485.498 326.675 485.528 326.181C485.559 325.687 485.978 325.313 486.466 325.343C486.955 325.373 487.325 325.796 487.294 326.29Z" fill="#282F39"/>
<path d="M489.315 327.38C489.374 326.755 489.837 326.441 490.394 326.289C490.996 326.121 490.818 325.196 490.192 325.32C489.261 325.503 488.538 326.373 488.548 327.333C488.553 327.829 489.266 327.882 489.315 327.38Z" fill="#CDCED3"/>
<path d="M493.525 330.013C493.375 328.93 492.199 328.165 491.236 327.871C490.684 327.702 490.117 327.598 489.558 327.452C489.092 327.33 488.419 327.198 488.092 326.814C487.892 326.579 487.523 326.924 487.739 327.129C488.405 327.757 489.516 327.88 490.366 328.091C491.567 328.391 492.833 328.83 493.391 330.058C493.425 330.136 493.535 330.088 493.525 330.01L493.525 330.013Z" fill="#282F39"/>
<path d="M467.711 348.521C468.762 348.212 469.754 347.663 470.703 347.12C471.668 346.569 472.624 345.967 473.502 345.284C473.812 345.045 473.415 344.62 473.108 344.833C472.197 345.462 471.299 346.095 470.353 346.675C469.454 347.224 468.5 347.691 467.622 348.274C467.51 348.349 467.553 348.565 467.708 348.52L467.711 348.521Z" fill="#595970"/>
<path d="M470.012 349.79C472.184 348.712 474.351 347.863 476.021 346.014C476.264 345.743 475.898 345.312 475.646 345.585C474.809 346.477 473.864 347.273 472.804 347.881C471.844 348.436 470.661 348.775 469.898 349.618C469.821 349.7 469.901 349.847 470.012 349.79Z" fill="#595970"/>
<path d="M482.041 354.989C482.884 354.921 483.683 354.646 484.395 354.184C484.59 354.058 484.426 353.729 484.234 353.859C483.543 354.312 482.807 354.619 482.002 354.794C481.875 354.823 481.921 354.997 482.041 354.986L482.041 354.989Z" fill="#BDBEC3"/>
<path d="M477.208 356.324C477.077 356.665 477.094 357.069 477.182 357.42C477.252 357.686 477.641 357.557 477.541 357.292C477.423 356.987 477.426 356.695 477.452 356.372C477.461 356.225 477.258 356.192 477.208 356.324Z" fill="#BDBEC3"/>
<path d="M478.218 355.971C477.995 356.355 477.944 356.797 478.081 357.22C478.161 357.469 478.526 357.335 478.412 357.102C478.249 356.767 478.259 356.407 478.408 356.067C478.459 355.956 478.277 355.867 478.218 355.971Z" fill="#BDBEC3"/>
<path d="M477.711 357.862C477.602 358.141 477.589 358.498 477.72 358.774C477.834 359.012 478.205 358.825 478.086 358.589C477.98 358.378 477.934 358.2 478.011 357.968C478.077 357.77 477.785 357.671 477.711 357.865L477.711 357.862Z" fill="#BDBEC3"/>
<path d="M482.328 356.012C482.274 356.225 482.251 356.452 482.217 356.669C482.177 356.916 482.61 356.943 482.602 356.693C482.594 356.473 482.6 356.245 482.571 356.027C482.555 355.905 482.36 355.893 482.331 356.012L482.328 356.012Z" fill="#BDBEC3"/>
<path d="M482.797 356.326C482.778 356.535 482.75 356.744 482.726 356.95C482.701 357.159 483.048 357.181 483.049 356.97C483.05 356.76 483.051 356.549 483.055 356.342C483.059 356.174 482.813 356.159 482.797 356.326Z" fill="#BDBEC3"/>
<path d="M487.599 344.485C487.385 345.013 487.315 345.58 487.312 346.148C487.311 346.5 487.825 346.472 487.79 346.112C487.743 345.582 487.796 345.062 487.861 344.537C487.88 344.379 487.655 344.35 487.599 344.485Z" fill="#CDCED3"/>
<path d="M488.455 345.214C488.451 345.713 488.36 346.186 488.188 346.653C488.092 346.918 488.52 347.062 488.593 346.793C488.736 346.266 488.771 345.733 488.713 345.194C488.698 345.046 488.453 345.064 488.453 345.214L488.455 345.214Z" fill="#CDCED3"/>
<path d="M489.548 345.153C489.5 345.399 489.475 345.653 489.439 345.901C489.397 346.205 489.915 346.237 489.91 345.93C489.905 345.677 489.912 345.425 489.895 345.174C489.879 344.947 489.591 344.93 489.548 345.153Z" fill="#CDCED3"/>
<path d="M479.421 351.989C479.204 352.33 478.897 352.528 478.55 352.711C478.264 352.862 478.479 353.275 478.772 353.155C479.196 352.982 479.529 352.603 479.758 352.214C479.888 351.991 479.566 351.766 479.424 351.989L479.421 351.989Z" fill="#BDBEC3"/>
<path d="M480.99 351.968C480.571 352.294 480.15 352.617 479.747 352.965C479.543 353.142 479.824 353.463 480.022 353.28C480.413 352.919 480.782 352.536 481.154 352.156C481.265 352.039 481.118 351.871 480.99 351.968Z" fill="#BDBEC3"/>
<path d="M487.897 350.599C487.57 350.847 487.253 351.113 486.942 351.385C486.728 351.571 487.022 351.908 487.23 351.716C487.536 351.437 487.836 351.152 488.119 350.853C488.269 350.694 488.072 350.469 487.897 350.599Z" fill="#BDBEC3"/>
<path d="M489.203 350.208C488.909 350.544 488.57 350.833 488.206 351.087C487.988 351.239 488.266 351.569 488.481 351.402C488.846 351.121 489.156 350.779 489.423 350.402C489.518 350.266 489.315 350.079 489.203 350.208Z" fill="#BDBEC3"/>
</g>
</g>
<g clip-path="url(#clip5_109_3871)">
<path d="M394.362 657.155C394.362 657.155 339.457 672.238 328.469 616.02C317.498 559.769 319.867 418.534 365.343 374.652C410.835 330.753 453.179 386.988 462.609 447.334C472.006 507.68 492.39 679.112 394.362 657.171V657.155Z" fill="#DC946F"/>
<path d="M391.831 674.968C391.831 674.968 396.911 671.896 397.008 674.968C397.106 678.056 397.008 435.322 397.008 435.322L391.831 674.968Z" fill="#292949"/>
<path d="M397.057 551.545C397.057 551.545 413.579 549.481 422.992 518.633C422.992 518.633 419.243 544.719 397.008 555.169L397.057 551.545Z" fill="#292949"/>
<path d="M395.905 493.166C395.905 493.166 379.383 491.118 369.969 460.254C369.969 460.254 373.718 486.339 395.953 496.79L395.905 493.166Z" fill="#292949"/>
<path d="M394.557 586.391C394.557 586.391 378.035 584.327 368.622 553.463C368.622 553.463 372.371 579.548 394.622 589.999L394.574 586.391H394.557Z" fill="#292949"/>
<path d="M416.533 375.155C416.533 375.155 446.834 391.619 456.831 463.618C456.831 463.618 454.77 392.643 416.533 375.155Z" fill="#E6B298"/>
</g>
<path d="M217.613 894.732C217.613 987.92 142.069 1063.46 48.8811 1063.46C-44.3068 1063.46 -119.851 987.92 -119.851 894.732C-119.851 801.544 -44.3068 726 48.8811 726C142.069 726 217.613 801.544 217.613 894.732Z" fill="#4869F5"/>
<circle cx="179.426" cy="957.784" r="130.545" fill="#4869F5"/>
<path d="M36.4484 1221.49C36.4484 1221.49 58.8354 1216.49 59.3481 1221.49C59.7753 1226.5 59.3481 832.567 59.3481 832.567L36.4484 1221.49Z" fill="#292949"/>
<path d="M60.0822 1002.57C60.0822 1002.57 95.4694 999.242 115.59 949.423C115.59 949.423 107.583 991.56 59.9993 1008.42L60.0822 1002.6V1002.57Z" fill="#292949"/>
<g clip-path="url(#clip6_109_3871)">
<path d="M44.0605 388.733C44.0605 388.733 -27.5394 408.398 -41.8678 335.101C-56.1751 261.762 -53.0851 77.6197 6.21816 20.4063C65.5425 -36.8283 120.761 36.4896 133.058 115.169C145.312 193.848 171.895 417.361 44.0605 388.755V388.733Z" fill="#E6B300"/>
<path d="M40.759 411.958C40.759 411.958 47.3836 407.953 47.5105 411.958C47.6375 415.984 47.5105 99.5089 47.5105 99.5089L40.759 411.958Z" fill="#292949"/>
<path d="M47.5741 251.04C47.5741 251.04 69.1197 248.349 81.3952 208.13C81.3952 208.13 76.5061 242.14 47.5106 255.765L47.5741 251.04Z" fill="#292949"/>
<path d="M46.0714 174.925C46.0714 174.925 24.5258 172.255 12.2504 132.015C12.2504 132.015 17.1394 166.025 46.1349 179.65L46.0714 174.925Z" fill="#292949"/>
<path d="M44.3147 296.471C44.3147 296.471 22.7691 293.78 10.4937 253.54C10.4937 253.54 15.3827 287.55 44.3993 301.176L44.3358 296.471H44.3147Z" fill="#292949"/>
<path d="M72.9716 21.063C72.9716 21.063 112.486 42.5286 125.523 136.401C125.523 136.401 122.835 43.8636 72.9716 21.063Z" fill="#E6EBFF"/>
</g>
<defs>
<clipPath id="clip0_109_3871">
<rect width="203" height="327" fill="white" transform="matrix(-1 0 0 1 1980 277)"/>
</clipPath>
<clipPath id="clip1_109_3871">
<rect width="91.19" height="194.43" fill="white" transform="translate(1705 93)"/>
</clipPath>
<clipPath id="clip2_109_3871">
<rect width="113" height="182" fill="white" transform="matrix(-1 0 0 1 1942 17)"/>
</clipPath>
<clipPath id="clip3_109_3871">
<rect width="133" height="215" fill="white" transform="matrix(-1 0 0 1 557 240)"/>
</clipPath>
<clipPath id="clip4_109_3871">
<rect width="34" height="45" fill="white" transform="translate(460.418 320.996) rotate(3.53109)"/>
</clipPath>
<clipPath id="clip5_109_3871">
<rect width="148" height="316" fill="white" transform="translate(323 359)"/>
</clipPath>
<clipPath id="clip6_109_3871">
<rect width="193" height="412" fill="white" transform="translate(-49)"/>
</clipPath>
</defs>
</svg>
