<svg width="1920" height="693" viewBox="0 0 1920 693" fill="none" xmlns="http://www.w3.org/2000/svg">
<g clip-path="url(#clip0_109_1465)">
<path d="M695.851 141.804H640.65V285.629H695.851V141.804Z" fill="#E5B197"/>
<path d="M672.142 153.199H664.539V166.421H672.142V153.199Z" fill="#EFD0C0"/>
<path d="M688.474 153.199H680.872V166.421H688.474V153.199Z" fill="#EFD0C0"/>
<path d="M672.142 178.787H664.539V192.009H672.142V178.787Z" fill="#EFD0C0"/>
<path d="M688.474 178.787H680.872V192.009H688.474V178.787Z" fill="#EFD0C0"/>
<path d="M672.142 204.375H664.539V217.597H672.142V204.375Z" fill="#EFD0C0"/>
<path d="M688.474 204.375H680.872V217.597H688.474V204.375Z" fill="#EFD0C0"/>
<path d="M672.142 229.963H664.539V243.185H672.142V229.963Z" fill="#EFD0C0"/>
<path d="M688.474 229.963H680.872V243.185H688.474V229.963Z" fill="#EFD0C0"/>
<path d="M672.142 255.551H664.539V268.773H672.142V255.551Z" fill="#EFD0C0"/>
<path d="M688.474 255.551H680.872V268.773H688.474V255.551Z" fill="#EFD0C0"/>
<path d="M576.064 24.3336H468.255V56.8714H576.064V24.3336Z" fill="#EFD0C0"/>
<path d="M495.731 24.3336H468.255V57.6837H495.731V24.3336Z" fill="#DB936F"/>
<path d="M187.51 -6.26367H51.976V112.267H187.51V-6.26367Z" fill="#DB936F"/>
<path d="M70.2938 -76.3712H-3V139.186H70.2938V-76.3712Z" fill="#E5B197"/>
<path d="M152.949 29.8394H109.501V155.929H152.949V29.8394Z" fill="#E5B197"/>
<path d="M164.5 29.8394H131.225V155.929H164.5V29.8394Z" fill="#EFD0C0"/>
<path d="M70.3164 -76.3712H33.6582V19.189H70.3164V-76.3712Z" fill="#EFD0C0"/>
<path d="M70.3164 40.941H33.6582V55.4724H70.3164V40.941Z" fill="#EFD0C0"/>
<path d="M252.344 91.1693H-3V173.642H252.344V91.1693Z" fill="#EFD0C0"/>
<path d="M275.512 17.271H223.739V173.642H275.512V17.271Z" fill="#EFD0C0"/>
<path d="M406.782 -65.2695H306.53V175.515H406.782V-65.2695Z" fill="#EFD0C0"/>
<path d="M259.969 -13.394H244.516V35.8866H259.969V-13.394Z" fill="#EFD0C0"/>
<path d="M244.493 108.521H152.949V173.619H244.493V108.521Z" fill="#DB936F"/>
<path d="M406.782 -65.2695H356.656V175.515H406.782V-65.2695Z" fill="#E5B197"/>
<path d="M383.208 -13.0555H324.171V0.528201H383.208V-13.0555Z" fill="#E5B197"/>
<path d="M383.208 20.4526H324.171V34.0363H383.208V20.4526Z" fill="#E5B197"/>
<path d="M383.208 53.9606H324.171V67.5444H383.208V53.9606Z" fill="#E5B197"/>
<path d="M383.208 87.4688H324.171V101.052H383.208V87.4688Z" fill="#E5B197"/>
<path d="M383.208 120.977H324.171V134.561H383.208V120.977Z" fill="#E5B197"/>
<path d="M1189.64 125.151H1004.34V301.447H1189.64V125.151Z" fill="#E5B197"/>
<path d="M1189.64 125.151H1090.2V301.447H1189.64V125.151Z" fill="#EFD0C0"/>
<path d="M1068.07 138.848H1025.75V148.799H1068.07V138.848Z" fill="#DB936F"/>
<path d="M1068.07 163.375H1025.75V173.326H1068.07V163.375Z" fill="#DB936F"/>
<path d="M1068.07 187.903H1025.75V197.854H1068.07V187.903Z" fill="#DB936F"/>
<path d="M1068.07 212.43H1025.75V222.381H1068.07V212.43Z" fill="#DB936F"/>
<path d="M1068.07 236.98H1025.75V246.931H1068.07V236.98Z" fill="#DB936F"/>
<path d="M1068.07 261.508H1025.75V271.459H1068.07V261.508Z" fill="#DB936F"/>
<path d="M1173.29 138.848H1108.93V148.799H1173.29V138.848Z" fill="#DB936F"/>
<path d="M1173.29 163.375H1108.93V173.326H1173.29V163.375Z" fill="#DB936F"/>
<path d="M1173.29 187.903H1108.93V197.854H1173.29V187.903Z" fill="#DB936F"/>
<path d="M1173.29 212.43H1108.93V222.381H1173.29V212.43Z" fill="#DB936F"/>
<path d="M1173.29 236.98H1108.93V246.931H1173.29V236.98Z" fill="#DB936F"/>
<path d="M1173.29 261.508H1108.93V271.459H1173.29V261.508Z" fill="#DB936F"/>
<path d="M658.088 53.8027H440.259V392.155H658.088V53.8027Z" fill="#EFD0C0"/>
<path d="M618.407 -18.0874H606.721V54.9535H618.407V-18.0874Z" fill="#EFD0C0"/>
<path d="M649.402 69.3044H516.125V381.212H649.402V69.3044Z" fill="#E5B197"/>
<path d="M637.875 85.5282H532.232V99.1119H637.875V85.5282Z" fill="#EFD0C0"/>
<path d="M637.875 114.185H532.232V127.769H637.875V114.185Z" fill="#EFD0C0"/>
<path d="M637.875 142.842H532.232V156.425H637.875V142.842Z" fill="#EFD0C0"/>
<path d="M637.875 171.498H532.232V185.082H637.875V171.498Z" fill="#EFD0C0"/>
<path d="M637.875 200.155H532.232V213.739H637.875V200.155Z" fill="#EFD0C0"/>
<path d="M637.875 228.789H532.232V242.373H637.875V228.789Z" fill="#EFD0C0"/>
<path d="M637.875 257.446H532.232V271.03H637.875V257.446Z" fill="#EFD0C0"/>
<path d="M637.875 286.103H532.232V299.687H637.875V286.103Z" fill="#EFD0C0"/>
<path d="M456.095 67.3639H449.531V91.1693H456.095V67.3639Z" fill="#DB936F"/>
<path d="M471.548 67.3639H464.984V91.1693H471.548V67.3639Z" fill="#DB936F"/>
<path d="M487.001 67.3639H480.437V91.1693H487.001V67.3639Z" fill="#DB936F"/>
<path d="M502.454 67.3639H495.889V91.1693H502.454V67.3639Z" fill="#DB936F"/>
<path d="M456.095 102.271H449.531V126.076H456.095V102.271Z" fill="#DB936F"/>
<path d="M471.548 102.271H464.984V126.076H471.548V102.271Z" fill="#DB936F"/>
<path d="M487.001 102.271H480.437V126.076H487.001V102.271Z" fill="#DB936F"/>
<path d="M502.454 102.271H495.889V126.076H502.454V102.271Z" fill="#DB936F"/>
<path d="M456.095 137.201H449.531V161.006H456.095V137.201Z" fill="#DB936F"/>
<path d="M471.548 137.201H464.984V161.006H471.548V137.201Z" fill="#DB936F"/>
<path d="M487.001 137.201H480.437V161.006H487.001V137.201Z" fill="#DB936F"/>
<path d="M502.454 137.201H495.889V161.006H502.454V137.201Z" fill="#DB936F"/>
<path d="M456.095 172.108H449.531V195.913H456.095V172.108Z" fill="#DB936F"/>
<path d="M471.548 172.108H464.984V195.913H471.548V172.108Z" fill="#DB936F"/>
<path d="M487.001 172.108H480.437V195.913H487.001V172.108Z" fill="#DB936F"/>
<path d="M502.454 172.108H495.889V195.913H502.454V172.108Z" fill="#DB936F"/>
<path d="M456.095 207.037H449.531V230.843H456.095V207.037Z" fill="#DB936F"/>
<path d="M471.548 207.037H464.984V230.843H471.548V207.037Z" fill="#DB936F"/>
<path d="M487.001 207.037H480.437V230.843H487.001V207.037Z" fill="#DB936F"/>
<path d="M502.454 207.037H495.889V230.843H502.454V207.037Z" fill="#DB936F"/>
<path d="M456.095 241.944H449.531V265.75H456.095V241.944Z" fill="#DB936F"/>
<path d="M471.548 241.944H464.984V265.75H471.548V241.944Z" fill="#DB936F"/>
<path d="M487.001 241.944H480.437V265.75H487.001V241.944Z" fill="#DB936F"/>
<path d="M502.454 241.944H495.889V265.75H502.454V241.944Z" fill="#DB936F"/>
<path d="M456.095 276.874H449.531V300.679H456.095V276.874Z" fill="#DB936F"/>
<path d="M471.548 276.874H464.984V300.679H471.548V276.874Z" fill="#DB936F"/>
<path d="M487.001 276.874H480.437V300.679H487.001V276.874Z" fill="#DB936F"/>
<path d="M502.454 276.874H495.889V300.679H502.454V276.874Z" fill="#DB936F"/>
<path d="M456.095 311.781H449.531V335.587H456.095V311.781Z" fill="#DB936F"/>
<path d="M471.548 311.781H464.984V335.587H471.548V311.781Z" fill="#DB936F"/>
<path d="M487.001 311.781H480.437V335.587H487.001V311.781Z" fill="#DB936F"/>
<path d="M502.454 311.781H495.889V335.587H502.454V311.781Z" fill="#DB936F"/>
<path d="M788.929 69.8234H717.056V296.866H788.929V69.8234Z" fill="#DB936F"/>
<path d="M780.312 84.2195H726.689V99.1119H780.312V84.2195Z" fill="#E5B197"/>
<path d="M780.312 113.531H726.689V128.423H780.312V113.531Z" fill="#E5B197"/>
<path d="M780.312 142.842H726.689V157.734H780.312V142.842Z" fill="#E5B197"/>
<path d="M780.312 172.153H726.689V187.045H780.312V172.153Z" fill="#E5B197"/>
<path d="M780.312 201.464H726.689V216.356H780.312V201.464Z" fill="#E5B197"/>
<path d="M780.312 230.775H726.689V245.668H780.312V230.775Z" fill="#E5B197"/>
<path d="M780.312 260.086H726.689V274.979H780.312V260.086Z" fill="#E5B197"/>
<path d="M995.749 50.5535H828.948V168.091H995.749V50.5535Z" fill="#EFD0C0"/>
<path d="M867.366 50.5535H828.948V168.091H867.366V50.5535Z" fill="#DB936F"/>
<path d="M977.972 168.091H841.762V179.599H977.972V168.091Z" fill="#E5B197"/>
<path d="M995.749 176.824H828.948V294.361H995.749V176.824Z" fill="#DB936F"/>
<path d="M923.56 192.009H843.454V288.788H923.56V192.009Z" fill="#EFD0C0"/>
<path d="M987.244 67.3639H886.767V126.099H987.244V67.3639Z" fill="#E5B197"/>
<path d="M820.511 163.375H802.487V240.387H820.511V163.375Z" fill="#E5B197"/>
<path d="M1058.6 79.2553H1026.32V126.076H1058.6V79.2553Z" fill="#E5B197"/>
<path d="M1420.35 149.634H1328.15V343.823H1420.35V149.634Z" fill="#E5B197"/>
<path d="M1381.14 162.337H1334.85V178.177H1381.14V162.337Z" fill="#EFD0C0"/>
<path d="M1381.14 187.384H1334.85V203.224H1381.14V187.384Z" fill="#EFD0C0"/>
<path d="M1381.14 212.43H1334.85V228.27H1381.14V212.43Z" fill="#EFD0C0"/>
<path d="M1381.14 237.499H1334.85V253.339H1381.14V237.499Z" fill="#EFD0C0"/>
<path d="M1381.14 262.546H1334.85V278.386H1381.14V262.546Z" fill="#EFD0C0"/>
<path d="M1381.14 287.592H1334.85V303.432H1381.14V287.592Z" fill="#EFD0C0"/>
<path d="M1381.14 312.639H1334.85V328.479H1381.14V312.639Z" fill="#EFD0C0"/>
<path d="M1271.55 -58.9741H1141.89V678.858H1271.55V-58.9741Z" fill="#EFD0C0"/>
<path d="M1238.46 -49.7678H1178.05V62.6479H1238.46V-49.7678Z" fill="#DB936F"/>
<path d="M1250.96 61.2039H1165.53V678.858H1250.96V61.2039Z" fill="#DB936F"/>
<path d="M1181.54 72.7342H1178.05V97.8032H1181.54V72.7342Z" fill="#8F4723"/>
<path d="M1193.12 72.7342H1189.62V97.8032H1193.12V72.7342Z" fill="#8F4723"/>
<path d="M1204.71 72.7342H1201.21V97.8032H1204.71V72.7342Z" fill="#8F4723"/>
<path d="M1216.28 72.7342H1212.79V97.8032H1216.28V72.7342Z" fill="#8F4723"/>
<path d="M1227.86 72.7342H1224.36V97.8032H1227.86V72.7342Z" fill="#8F4723"/>
<path d="M1239.43 72.7342H1235.93V97.8032H1239.43V72.7342Z" fill="#8F4723"/>
<path d="M1193.12 35.4127H1189.62V60.4817H1193.12V35.4127Z" fill="#8F4723"/>
<path d="M1204.71 35.4127H1201.21V60.4817H1204.71V35.4127Z" fill="#8F4723"/>
<path d="M1216.28 35.4127H1212.79V60.4817H1216.28V35.4127Z" fill="#8F4723"/>
<path d="M1227.86 35.4127H1224.36V60.4817H1227.86V35.4127Z" fill="#8F4723"/>
<path d="M1193.12 -0.577393H1189.62V24.4916H1193.12V-0.577393Z" fill="#8F4723"/>
<path d="M1204.71 -0.577393H1201.21V24.4916H1204.71V-0.577393Z" fill="#8F4723"/>
<path d="M1216.28 -0.577393H1212.79V24.4916H1216.28V-0.577393Z" fill="#8F4723"/>
<path d="M1227.86 -0.577393H1224.36V24.4916H1227.86V-0.577393Z" fill="#8F4723"/>
<path d="M1181.54 107.889H1178.05V132.958H1181.54V107.889Z" fill="#8F4723"/>
<path d="M1193.12 107.889H1189.62V132.958H1193.12V107.889Z" fill="#8F4723"/>
<path d="M1204.71 107.889H1201.21V132.958H1204.71V107.889Z" fill="#8F4723"/>
<path d="M1216.28 107.889H1212.79V132.958H1216.28V107.889Z" fill="#8F4723"/>
<path d="M1227.86 107.889H1224.36V132.958H1227.86V107.889Z" fill="#8F4723"/>
<path d="M1239.43 107.889H1235.93V132.958H1239.43V107.889Z" fill="#8F4723"/>
<path d="M1181.54 143.022H1178.05V168.091H1181.54V143.022Z" fill="#8F4723"/>
<path d="M1193.12 143.022H1189.62V168.091H1193.12V143.022Z" fill="#8F4723"/>
<path d="M1204.71 143.022H1201.21V168.091H1204.71V143.022Z" fill="#8F4723"/>
<path d="M1216.28 143.022H1212.79V168.091H1216.28V143.022Z" fill="#8F4723"/>
<path d="M1227.86 143.022H1224.36V168.091H1227.86V143.022Z" fill="#8F4723"/>
<path d="M1239.43 143.022H1235.93V168.091H1239.43V143.022Z" fill="#8F4723"/>
<path d="M1181.54 178.177H1178.05V203.247H1181.54V178.177Z" fill="#8F4723"/>
<path d="M1193.12 178.177H1189.62V203.247H1193.12V178.177Z" fill="#8F4723"/>
<path d="M1204.71 178.177H1201.21V203.247H1204.71V178.177Z" fill="#8F4723"/>
<path d="M1216.28 178.177H1212.79V203.247H1216.28V178.177Z" fill="#8F4723"/>
<path d="M1227.86 178.177H1224.36V203.247H1227.86V178.177Z" fill="#8F4723"/>
<path d="M1239.43 178.177H1235.93V203.247H1239.43V178.177Z" fill="#8F4723"/>
<path d="M1181.54 213.333H1178.05V238.402H1181.54V213.333Z" fill="#8F4723"/>
<path d="M1193.12 213.333H1189.62V238.402H1193.12V213.333Z" fill="#8F4723"/>
<path d="M1204.71 213.333H1201.21V238.402H1204.71V213.333Z" fill="#8F4723"/>
<path d="M1216.28 213.333H1212.79V238.402H1216.28V213.333Z" fill="#8F4723"/>
<path d="M1227.86 213.333H1224.36V238.402H1227.86V213.333Z" fill="#8F4723"/>
<path d="M1239.43 213.333H1235.93V238.402H1239.43V213.333Z" fill="#8F4723"/>
<path d="M1181.54 248.465H1178.05V273.534H1181.54V248.465Z" fill="#8F4723"/>
<path d="M1193.12 248.465H1189.62V273.534H1193.12V248.465Z" fill="#8F4723"/>
<path d="M1204.71 248.465H1201.21V273.534H1204.71V248.465Z" fill="#8F4723"/>
<path d="M1216.28 248.465H1212.79V273.534H1216.28V248.465Z" fill="#8F4723"/>
<path d="M1227.86 248.465H1224.36V273.534H1227.86V248.465Z" fill="#8F4723"/>
<path d="M1239.43 248.465H1235.93V273.534H1239.43V248.465Z" fill="#8F4723"/>
<path d="M1181.54 283.621H1178.05V308.69H1181.54V283.621Z" fill="#8F4723"/>
<path d="M1193.12 283.621H1189.62V308.69H1193.12V283.621Z" fill="#8F4723"/>
<path d="M1204.71 283.621H1201.21V308.69H1204.71V283.621Z" fill="#8F4723"/>
<path d="M1216.28 283.621H1212.79V308.69H1216.28V283.621Z" fill="#8F4723"/>
<path d="M1227.86 283.621H1224.36V308.69H1227.86V283.621Z" fill="#8F4723"/>
<path d="M1239.43 283.621H1235.93V308.69H1239.43V283.621Z" fill="#8F4723"/>
<path d="M1181.54 318.753H1178.05V343.823H1181.54V318.753Z" fill="#8F4723"/>
<path d="M1193.12 318.753H1189.62V343.823H1193.12V318.753Z" fill="#8F4723"/>
<path d="M1204.71 318.753H1201.21V343.823H1204.71V318.753Z" fill="#8F4723"/>
<path d="M1216.28 318.753H1212.79V343.823H1216.28V318.753Z" fill="#8F4723"/>
<path d="M1227.86 318.753H1224.36V343.823H1227.86V318.753Z" fill="#8F4723"/>
<path d="M1239.43 318.753H1235.93V343.823H1239.43V318.753Z" fill="#8F4723"/>
<path d="M1181.54 353.909H1178.05V378.978H1181.54V353.909Z" fill="#8F4723"/>
<path d="M1193.12 353.909H1189.62V378.978H1193.12V353.909Z" fill="#8F4723"/>
<path d="M1204.71 353.909H1201.21V378.978H1204.71V353.909Z" fill="#8F4723"/>
<path d="M1216.28 353.909H1212.79V378.978H1216.28V353.909Z" fill="#8F4723"/>
<path d="M1227.86 353.909H1224.36V378.978H1227.86V353.909Z" fill="#8F4723"/>
<path d="M1239.43 353.909H1235.93V378.978H1239.43V353.909Z" fill="#8F4723"/>
<path d="M1181.54 389.064H1178.05V414.133H1181.54V389.064Z" fill="#8F4723"/>
<path d="M1193.12 389.064H1189.62V414.133H1193.12V389.064Z" fill="#8F4723"/>
<path d="M1204.71 389.064H1201.21V414.133H1204.71V389.064Z" fill="#8F4723"/>
<path d="M1216.28 389.064H1212.79V414.133H1216.28V389.064Z" fill="#8F4723"/>
<path d="M1227.86 389.064H1224.36V414.133H1227.86V389.064Z" fill="#8F4723"/>
<path d="M1239.43 389.064H1235.93V414.133H1239.43V389.064Z" fill="#8F4723"/>
<path d="M1181.54 424.197H1178.05V449.266H1181.54V424.197Z" fill="#8F4723"/>
<path d="M1193.12 424.197H1189.62V449.266H1193.12V424.197Z" fill="#8F4723"/>
<path d="M1204.71 424.197H1201.21V449.266H1204.71V424.197Z" fill="#8F4723"/>
<path d="M1216.28 424.197H1212.79V449.266H1216.28V424.197Z" fill="#8F4723"/>
<path d="M1227.86 424.197H1224.36V449.266H1227.86V424.197Z" fill="#8F4723"/>
<path d="M1239.43 424.197H1235.93V449.266H1239.43V424.197Z" fill="#8F4723"/>
<path d="M1181.54 459.352H1178.05V484.421H1181.54V459.352Z" fill="#8F4723"/>
<path d="M1193.12 459.352H1189.62V484.421H1193.12V459.352Z" fill="#8F4723"/>
<path d="M1204.71 459.352H1201.21V484.421H1204.71V459.352Z" fill="#8F4723"/>
<path d="M1216.28 459.352H1212.79V484.421H1216.28V459.352Z" fill="#8F4723"/>
<path d="M1227.86 459.352H1224.36V484.421H1227.86V459.352Z" fill="#8F4723"/>
<path d="M1239.43 459.352H1235.93V484.421H1239.43V459.352Z" fill="#8F4723"/>
<path d="M1181.54 494.507H1178.05V519.576H1181.54V494.507Z" fill="#8F4723"/>
<path d="M1193.12 494.507H1189.62V519.576H1193.12V494.507Z" fill="#8F4723"/>
<path d="M1204.71 494.507H1201.21V519.576H1204.71V494.507Z" fill="#8F4723"/>
<path d="M1216.28 494.507H1212.79V519.576H1216.28V494.507Z" fill="#8F4723"/>
<path d="M1227.86 494.507H1224.36V519.576H1227.86V494.507Z" fill="#8F4723"/>
<path d="M1239.43 494.507H1235.93V519.576H1239.43V494.507Z" fill="#8F4723"/>
<path d="M1181.54 529.64H1178.05V554.709H1181.54V529.64Z" fill="#8F4723"/>
<path d="M1193.12 529.64H1189.62V554.709H1193.12V529.64Z" fill="#8F4723"/>
<path d="M1204.71 529.64H1201.21V554.709H1204.71V529.64Z" fill="#8F4723"/>
<path d="M1216.28 529.64H1212.79V554.709H1216.28V529.64Z" fill="#8F4723"/>
<path d="M1227.86 529.64H1224.36V554.709H1227.86V529.64Z" fill="#8F4723"/>
<path d="M1239.43 529.64H1235.93V554.709H1239.43V529.64Z" fill="#8F4723"/>
<path d="M1181.54 564.795H1178.05V589.864H1181.54V564.795Z" fill="#8F4723"/>
<path d="M1193.12 564.795H1189.62V589.864H1193.12V564.795Z" fill="#8F4723"/>
<path d="M1204.71 564.795H1201.21V589.864H1204.71V564.795Z" fill="#8F4723"/>
<path d="M1216.28 564.795H1212.79V589.864H1216.28V564.795Z" fill="#8F4723"/>
<path d="M1227.86 564.795H1224.36V589.864H1227.86V564.795Z" fill="#8F4723"/>
<path d="M1239.43 564.795H1235.93V589.864H1239.43V564.795Z" fill="#8F4723"/>
<path d="M1181.54 599.928H1178.05V624.997H1181.54V599.928Z" fill="#8F4723"/>
<path d="M1193.12 599.928H1189.62V624.997H1193.12V599.928Z" fill="#8F4723"/>
<path d="M1204.71 599.928H1201.21V624.997H1204.71V599.928Z" fill="#8F4723"/>
<path d="M1216.28 599.928H1212.79V624.997H1216.28V599.928Z" fill="#8F4723"/>
<path d="M1227.86 599.928H1224.36V624.997H1227.86V599.928Z" fill="#8F4723"/>
<path d="M1239.43 599.928H1235.93V624.997H1239.43V599.928Z" fill="#8F4723"/>
<path d="M1181.54 635.083H1178.05V660.152H1181.54V635.083Z" fill="#8F4723"/>
<path d="M1193.12 635.083H1189.62V660.152H1193.12V635.083Z" fill="#8F4723"/>
<path d="M1204.71 635.083H1201.21V660.152H1204.71V635.083Z" fill="#8F4723"/>
<path d="M1216.28 635.083H1212.79V660.152H1216.28V635.083Z" fill="#8F4723"/>
<path d="M1227.86 635.083H1224.36V660.152H1227.86V635.083Z" fill="#8F4723"/>
<path d="M1239.43 635.083H1235.93V660.152H1239.43V635.083Z" fill="#8F4723"/>
<path d="M488.4 167.392H233.913V678.836H488.4V167.392Z" fill="#D0806A"/>
<path d="M373.598 167.392H361.145V678.836H373.598V167.392Z" fill="#D17546"/>
<path d="M498.619 225.247H222.544V245.758H498.619V225.247Z" fill="#710004"/>
<path d="M498.619 222.742H222.544V231.632H498.619V222.742Z" fill="#EFD0C0"/>
<path d="M396.879 179.035H386.298V213.784H396.879V179.035Z" fill="#EFD0C0"/>
<path d="M417.362 179.035H406.782V213.784H417.362V179.035Z" fill="#EFD0C0"/>
<path d="M437.868 179.035H427.288V213.784H437.868V179.035Z" fill="#EFD0C0"/>
<path d="M458.351 179.035H447.771V213.784H458.351V179.035Z" fill="#EFD0C0"/>
<path d="M478.835 179.035H468.255V213.784H478.835V179.035Z" fill="#EFD0C0"/>
<path d="M262.586 255.054H245.26V280.168H262.586V255.054Z" fill="#710004"/>
<path d="M290.198 255.054H272.872V280.168H290.198V255.054Z" fill="#710004"/>
<path d="M317.81 255.054H300.484V280.168H317.81V255.054Z" fill="#710004"/>
<path d="M345.399 255.054H328.074V280.168H345.399V255.054Z" fill="#710004"/>
<path d="M262.586 292.94H245.26V318.054H262.586V292.94Z" fill="#710004"/>
<path d="M290.198 292.94H272.872V318.054H290.198V292.94Z" fill="#710004"/>
<path d="M317.81 292.94H300.484V318.054H317.81V292.94Z" fill="#710004"/>
<path d="M345.399 292.94H328.074V318.054H345.399V292.94Z" fill="#710004"/>
<path d="M262.586 330.825H245.26V355.94H262.586V330.825Z" fill="#710004"/>
<path d="M290.198 330.825H272.872V355.94H290.198V330.825Z" fill="#710004"/>
<path d="M317.81 330.825H300.484V355.94H317.81V330.825Z" fill="#710004"/>
<path d="M345.399 330.825H328.074V355.94H345.399V330.825Z" fill="#710004"/>
<path d="M262.586 368.711H245.26V393.825H262.586V368.711Z" fill="#710004"/>
<path d="M290.198 368.711H272.872V393.825H290.198V368.711Z" fill="#710004"/>
<path d="M317.81 368.711H300.484V393.825H317.81V368.711Z" fill="#710004"/>
<path d="M345.399 368.711H328.074V393.825H345.399V368.711Z" fill="#710004"/>
<path d="M262.586 406.619H245.26V431.733H262.586V406.619Z" fill="#710004"/>
<path d="M290.198 406.619H272.872V431.733H290.198V406.619Z" fill="#710004"/>
<path d="M317.81 406.619H300.484V431.733H317.81V406.619Z" fill="#710004"/>
<path d="M345.399 406.619H328.074V431.733H345.399V406.619Z" fill="#710004"/>
<path d="M262.586 444.505H245.26V469.619H262.586V444.505Z" fill="#710004"/>
<path d="M290.198 444.505H272.872V469.619H290.198V444.505Z" fill="#710004"/>
<path d="M317.81 444.505H300.484V469.619H317.81V444.505Z" fill="#710004"/>
<path d="M345.399 444.505H328.074V469.619H345.399V444.505Z" fill="#710004"/>
<path d="M262.586 482.39H245.26V507.504H262.586V482.39Z" fill="#710004"/>
<path d="M290.198 482.39H272.872V507.504H290.198V482.39Z" fill="#710004"/>
<path d="M317.81 482.39H300.484V507.504H317.81V482.39Z" fill="#710004"/>
<path d="M345.399 482.39H328.074V507.504H345.399V482.39Z" fill="#710004"/>
<path d="M262.586 520.276H245.26V545.39H262.586V520.276Z" fill="#710004"/>
<path d="M290.198 520.276H272.872V545.39H290.198V520.276Z" fill="#710004"/>
<path d="M317.81 520.276H300.484V545.39H317.81V520.276Z" fill="#710004"/>
<path d="M345.399 520.276H328.074V545.39H345.399V520.276Z" fill="#710004"/>
<path d="M262.586 558.161H245.26V583.276H262.586V558.161Z" fill="#710004"/>
<path d="M290.198 558.161H272.872V583.276H290.198V558.161Z" fill="#710004"/>
<path d="M317.81 558.161H300.484V583.276H317.81V558.161Z" fill="#710004"/>
<path d="M345.399 558.161H328.074V583.276H345.399V558.161Z" fill="#710004"/>
<path d="M262.586 596.07H245.26V621.184H262.586V596.07Z" fill="#710004"/>
<path d="M290.198 596.07H272.872V621.184H290.198V596.07Z" fill="#710004"/>
<path d="M317.81 596.07H300.484V621.184H317.81V596.07Z" fill="#710004"/>
<path d="M345.399 596.07H328.074V621.184H345.399V596.07Z" fill="#710004"/>
<path d="M262.586 633.955H245.26V659.069H262.586V633.955Z" fill="#710004"/>
<path d="M290.198 633.955H272.872V659.069H290.198V633.955Z" fill="#710004"/>
<path d="M317.81 633.955H300.484V659.069H317.81V633.955Z" fill="#710004"/>
<path d="M345.399 633.955H328.074V659.069H345.399V633.955Z" fill="#710004"/>
<path d="M488.4 245.758H233.913V267.623H488.4V245.758Z" fill="#000519"/>
<path d="M250.494 179.035H247.877V215.409H250.494V179.035Z" fill="#000519"/>
<path d="M263.917 179.035H261.3V215.409H263.917V179.035Z" fill="#000519"/>
<path d="M277.339 179.035H274.722V215.409H277.339V179.035Z" fill="#000519"/>
<path d="M290.739 179.035H288.122V215.409H290.739V179.035Z" fill="#000519"/>
<path d="M304.162 179.035H301.545V215.409H304.162V179.035Z" fill="#000519"/>
<path d="M317.584 179.035H314.967V215.409H317.584V179.035Z" fill="#000519"/>
<path d="M331.007 179.035H328.39V215.409H331.007V179.035Z" fill="#000519"/>
<path d="M344.407 179.035H341.79V215.409H344.407V179.035Z" fill="#000519"/>
<path d="M468.255 150.829H447.771V167.392H468.255V150.829Z" fill="#710004"/>
<path d="M458.013 125.106C455.69 125.106 453.817 126.979 453.817 129.303V163.578H462.232V129.303C462.232 126.979 460.359 125.106 458.036 125.106H458.013Z" fill="#710004"/>
<path d="M468.255 150.829H447.771V154.823H468.255V150.829Z" fill="#D0806A"/>
<path d="M436.086 150.829H415.602V167.392H436.086V150.829Z" fill="#710004"/>
<path d="M425.844 125.106C423.52 125.106 421.648 126.979 421.648 129.303V163.578H430.063V129.303C430.063 126.979 428.19 125.106 425.867 125.106H425.844Z" fill="#710004"/>
<path d="M436.086 150.829H415.602V154.823H436.086V150.829Z" fill="#D0806A"/>
<path d="M403.894 150.829H383.411V167.392H403.894V150.829Z" fill="#710004"/>
<path d="M393.653 125.106C391.329 125.106 389.457 126.979 389.457 129.303V163.578H397.871V129.303C397.871 126.979 395.999 125.106 393.675 125.106H393.653Z" fill="#710004"/>
<path d="M403.894 150.829H383.411V154.823H403.894V150.829Z" fill="#D0806A"/>
<path d="M371.703 150.829H351.219V167.392H371.703V150.829Z" fill="#710004"/>
<path d="M361.484 125.106C359.16 125.106 357.288 126.979 357.288 129.303V163.578H365.702V129.303C365.702 126.979 363.83 125.106 361.506 125.106H361.484Z" fill="#710004"/>
<path d="M371.703 150.829H351.219V154.823H371.703V150.829Z" fill="#D0806A"/>
<path d="M339.534 150.829H319.05V167.392H339.534V150.829Z" fill="#710004"/>
<path d="M329.292 125.106C326.969 125.106 325.096 126.979 325.096 129.303V163.578H333.511V129.303C333.511 126.979 331.638 125.106 329.315 125.106H329.292Z" fill="#710004"/>
<path d="M339.534 150.829H319.05V154.823H339.534V150.829Z" fill="#D0806A"/>
<path d="M307.342 150.829H286.859V167.392H307.342V150.829Z" fill="#710004"/>
<path d="M297.101 125.106C294.777 125.106 292.905 126.979 292.905 129.303V163.578H301.319V129.303C301.319 126.979 299.447 125.106 297.123 125.106H297.101Z" fill="#710004"/>
<path d="M307.342 150.829H286.859V154.823H307.342V150.829Z" fill="#D0806A"/>
<path d="M275.173 150.829H254.69V167.392H275.173V150.829Z" fill="#710004"/>
<path d="M264.932 125.106C262.608 125.106 260.736 126.979 260.736 129.303V163.578H269.15V129.303C269.15 126.979 267.278 125.106 264.954 125.106H264.932Z" fill="#710004"/>
<path d="M275.173 150.829H254.69V154.823H275.173V150.829Z" fill="#D0806A"/>
<path d="M478.835 276.174H388.69V283.305H478.835V276.174Z" fill="#000519"/>
<path d="M478.835 291.18H388.69V298.31H478.835V291.18Z" fill="#000519"/>
<path d="M478.835 306.185H388.69V313.315H478.835V306.185Z" fill="#000519"/>
<path d="M478.835 321.213H388.69V328.343H478.835V321.213Z" fill="#000519"/>
<path d="M478.835 336.218H388.69V343.349H478.835V336.218Z" fill="#000519"/>
<path d="M478.835 351.224H388.69V358.354H478.835V351.224Z" fill="#000519"/>
<path d="M478.835 366.252H388.69V373.382H478.835V366.252Z" fill="#000519"/>
<path d="M478.835 381.257H388.69V388.387H478.835V381.257Z" fill="#000519"/>
<path d="M478.835 396.285H388.69V403.415H478.835V396.285Z" fill="#000519"/>
<path d="M478.835 411.29H388.69V418.42H478.835V411.29Z" fill="#000519"/>
<path d="M478.835 426.295H388.69V433.426H478.835V426.295Z" fill="#000519"/>
<path d="M478.835 441.323H388.69V448.453H478.835V441.323Z" fill="#000519"/>
<path d="M478.835 456.328H388.69V463.459H478.835V456.328Z" fill="#000519"/>
<path d="M478.835 471.334H388.69V478.464H478.835V471.334Z" fill="#000519"/>
<path d="M478.835 486.362H388.69V493.492H478.835V486.362Z" fill="#000519"/>
<path d="M478.835 501.367H388.69V508.497H478.835V501.367Z" fill="#000519"/>
<path d="M478.835 516.372H388.69V523.503H478.835V516.372Z" fill="#000519"/>
<path d="M478.835 531.4H388.69V538.53H478.835V531.4Z" fill="#000519"/>
<path d="M478.835 546.405H388.69V553.536H478.835V546.405Z" fill="#000519"/>
<path d="M478.835 561.411H388.69V568.541H478.835V561.411Z" fill="#000519"/>
<path d="M478.835 576.439H388.69V583.569H478.835V576.439Z" fill="#000519"/>
<path d="M478.835 591.444H388.69V598.574H478.835V591.444Z" fill="#000519"/>
<path d="M478.835 606.472H388.69V613.602H478.835V606.472Z" fill="#000519"/>
<path d="M478.835 621.477H388.69V628.607H478.835V621.477Z" fill="#000519"/>
<path d="M478.835 636.482H388.69V643.613H478.835V636.482Z" fill="#000519"/>
<path d="M478.835 651.51H388.69V658.641H478.835V651.51Z" fill="#000519"/>
<path d="M252.569 133.342H47.2161V678.836H252.569V133.342Z" fill="#420000"/>
<path d="M202.353 133.342H-3V678.836H202.353V133.342Z" fill="#000519"/>
<path d="M118.953 116.667H32.0114V135.305H118.953V116.667Z" fill="#000519"/>
<path d="M27.3191 155.726H15.4983V179.035H27.3191V155.726Z" fill="#FFCC8F"/>
<path d="M58.9693 155.726H47.1484V179.035H58.9693V155.726Z" fill="#FFCC8F"/>
<path d="M90.5967 155.726H78.7759V179.035H90.5967V155.726Z" fill="#FFCC8F"/>
<path d="M122.224 155.726H110.403V179.035H122.224V155.726Z" fill="#FFCC8F"/>
<path d="M153.874 155.726H142.054V179.035H153.874V155.726Z" fill="#FFCC8F"/>
<path d="M185.502 155.726H173.681V179.035H185.502V155.726Z" fill="#FFCC8F"/>
<path d="M27.3191 190.498H15.4983V213.807H27.3191V190.498Z" fill="#FFCC8F"/>
<path d="M58.9693 190.498H47.1484V213.807H58.9693V190.498Z" fill="#420000"/>
<path d="M90.5967 190.498H78.7759V213.807H90.5967V190.498Z" fill="#FFCC8F"/>
<path d="M122.224 190.498H110.403V213.807H122.224V190.498Z" fill="#420000"/>
<path d="M153.874 190.498H142.054V213.807H153.874V190.498Z" fill="#FFCC8F"/>
<path d="M185.502 190.498H173.681V213.807H185.502V190.498Z" fill="#FFCC8F"/>
<path d="M27.3191 225.247H15.4983V248.556H27.3191V225.247Z" fill="#FFCC8F"/>
<path d="M58.9693 225.247H47.1484V248.556H58.9693V225.247Z" fill="#FFCC8F"/>
<path d="M90.5967 225.247H78.7759V248.556H90.5967V225.247Z" fill="#FFCC8F"/>
<path d="M122.224 225.247H110.403V248.556H122.224V225.247Z" fill="#FFCC8F"/>
<path d="M153.874 225.247H142.054V248.556H153.874V225.247Z" fill="#420000"/>
<path d="M185.502 225.247H173.681V248.556H185.502V225.247Z" fill="#FFCC8F"/>
<path d="M27.3191 259.996H15.4983V283.305H27.3191V259.996Z" fill="#FFCC8F"/>
<path d="M58.9693 259.996H47.1484V283.305H58.9693V259.996Z" fill="#FFCC8F"/>
<path d="M90.5967 259.996H78.7759V283.305H90.5967V259.996Z" fill="#FFCC8F"/>
<path d="M122.224 259.996H110.403V283.305H122.224V259.996Z" fill="#FFCC8F"/>
<path d="M153.874 259.996H142.054V283.305H153.874V259.996Z" fill="#FFCC8F"/>
<path d="M185.502 259.996H173.681V283.305H185.502V259.996Z" fill="#FFCC8F"/>
<path d="M27.3191 294.745H15.4983V318.054H27.3191V294.745Z" fill="#FFCC8F"/>
<path d="M58.9693 294.745H47.1484V318.054H58.9693V294.745Z" fill="#420000"/>
<path d="M90.5967 294.745H78.7759V318.054H90.5967V294.745Z" fill="#420000"/>
<path d="M122.224 294.745H110.403V318.054H122.224V294.745Z" fill="#420000"/>
<path d="M153.874 294.745H142.054V318.054H153.874V294.745Z" fill="#FFCC8F"/>
<path d="M185.502 294.745H173.681V318.054H185.502V294.745Z" fill="#FFCC8F"/>
<path d="M27.3191 329.517H15.4983V352.826H27.3191V329.517Z" fill="#FFCC8F"/>
<path d="M58.9693 329.517H47.1484V352.826H58.9693V329.517Z" fill="#FFCC8F"/>
<path d="M90.5967 329.517H78.7759V352.826H90.5967V329.517Z" fill="#FFCC8F"/>
<path d="M122.224 329.517H110.403V352.826H122.224V329.517Z" fill="#FFCC8F"/>
<path d="M153.874 329.517H142.054V352.826H153.874V329.517Z" fill="#FFCC8F"/>
<path d="M185.502 329.517H173.681V352.826H185.502V329.517Z" fill="#FFCC8F"/>
<path d="M27.3191 364.266H15.4983V387.575H27.3191V364.266Z" fill="#FFCC8F"/>
<path d="M58.9693 364.266H47.1484V387.575H58.9693V364.266Z" fill="#FFCC8F"/>
<path d="M90.5967 364.266H78.7759V387.575H90.5967V364.266Z" fill="#FFCC8F"/>
<path d="M122.224 364.266H110.403V387.575H122.224V364.266Z" fill="#FFCC8F"/>
<path d="M153.874 364.266H142.054V387.575H153.874V364.266Z" fill="#FFCC8F"/>
<path d="M185.502 364.266H173.681V387.575H185.502V364.266Z" fill="#420000"/>
<path d="M27.3191 399.015H15.4983V422.324H27.3191V399.015Z" fill="#FFCC8F"/>
<path d="M58.9693 399.015H47.1484V422.324H58.9693V399.015Z" fill="#420000"/>
<path d="M90.5967 399.015H78.7759V422.324H90.5967V399.015Z" fill="#FFCC8F"/>
<path d="M122.224 399.015H110.403V422.324H122.224V399.015Z" fill="#FFCC8F"/>
<path d="M153.874 399.015H142.054V422.324H153.874V399.015Z" fill="#FFCC8F"/>
<path d="M185.502 399.015H173.681V422.324H185.502V399.015Z" fill="#FFCC8F"/>
<path d="M27.3191 433.764H15.4983V457.073H27.3191V433.764Z" fill="#FFCC8F"/>
<path d="M58.9693 433.764H47.1484V457.073H58.9693V433.764Z" fill="#FFCC8F"/>
<path d="M90.5967 433.764H78.7759V457.073H90.5967V433.764Z" fill="#FFCC8F"/>
<path d="M122.224 433.764H110.403V457.073H122.224V433.764Z" fill="#FFCC8F"/>
<path d="M153.874 433.764H142.054V457.073H153.874V433.764Z" fill="#FFCC8F"/>
<path d="M185.502 433.764H173.681V457.073H185.502V433.764Z" fill="#FFCC8F"/>
<path d="M214.783 155.726H209.572V179.035H214.783V155.726Z" fill="#FFCC8F"/>
<path d="M228.747 155.726H223.536V179.035H228.747V155.726Z" fill="#FFCC8F"/>
<path d="M242.734 155.726H237.523V179.035H242.734V155.726Z" fill="#FFCC8F"/>
<path d="M214.783 190.498H209.572V213.807H214.783V190.498Z" fill="#FFCC8F"/>
<path d="M228.747 190.498H223.536V213.807H228.747V190.498Z" fill="white"/>
<path d="M242.734 190.498H237.523V213.807H242.734V190.498Z" fill="#FFCC8F"/>
<path d="M214.783 225.247H209.572V248.556H214.783V225.247Z" fill="#FFCC8F"/>
<path d="M228.747 225.247H223.536V248.556H228.747V225.247Z" fill="#FFCC8F"/>
<path d="M242.734 225.247H237.523V248.556H242.734V225.247Z" fill="#FFCC8F"/>
<path d="M214.783 259.996H209.572V283.305H214.783V259.996Z" fill="#FFCC8F"/>
<path d="M228.747 259.996H223.536V283.305H228.747V259.996Z" fill="#FFCC8F"/>
<path d="M242.734 259.996H237.523V283.305H242.734V259.996Z" fill="#FFCC8F"/>
<path d="M214.783 294.745H209.572V318.054H214.783V294.745Z" fill="#FFCC8F"/>
<path d="M228.747 294.745H223.536V318.054H228.747V294.745Z" fill="white"/>
<path d="M242.734 294.745H237.523V318.054H242.734V294.745Z" fill="white"/>
<path d="M214.783 329.517H209.572V352.826H214.783V329.517Z" fill="#FFCC8F"/>
<path d="M228.747 329.517H223.536V352.826H228.747V329.517Z" fill="#FFCC8F"/>
<path d="M242.734 329.517H237.523V352.826H242.734V329.517Z" fill="#FFCC8F"/>
<path d="M214.783 364.266H209.572V387.575H214.783V364.266Z" fill="#FFCC8F"/>
<path d="M228.747 364.266H223.536V387.575H228.747V364.266Z" fill="#FFCC8F"/>
<path d="M242.734 364.266H237.523V387.575H242.734V364.266Z" fill="#FFCC8F"/>
<path d="M214.783 399.015H209.572V422.324H214.783V399.015Z" fill="#FFCC8F"/>
<path d="M228.747 399.015H223.536V422.324H228.747V399.015Z" fill="white"/>
<path d="M242.734 399.015H237.523V422.324H242.734V399.015Z" fill="#FFCC8F"/>
<path d="M214.783 433.764H209.572V457.073H214.783V433.764Z" fill="#FFCC8F"/>
<path d="M228.747 433.764H223.536V457.073H228.747V433.764Z" fill="#FFCC8F"/>
<path d="M242.734 433.764H237.523V457.073H242.734V433.764Z" fill="#FFCC8F"/>
<path d="M252.569 476.659H-3V510.167H252.569V476.659Z" fill="#000519"/>
<path d="M118.953 125.986H32.0114V133.342H118.953V125.986Z" fill="#000519"/>
<path d="M252.569 557.8H-3V588.33H252.569V557.8Z" fill="#000519"/>
<path d="M252.569 618.657H-3V678.858H252.569V618.657Z" fill="#0323AF"/>
<path d="M706.186 343H454V678.464H706.186V343Z" fill="#7991F5"/>
<path d="M618.406 343.394H453.817V678.858H618.406V343.394Z" fill="#B3C1FD"/>
<path d="M576.064 343.394H492.28V678.858H576.064V343.394Z" fill="#4F70FB"/>
<path d="M567.627 362.506H501.281V368.711H567.627V362.506Z" fill="#E6D3B3"/>
<path d="M567.627 378.165H501.281V384.371H567.627V378.165Z" fill="#E6D3B3"/>
<path d="M567.627 393.803H501.281V400.008H567.627V393.803Z" fill="#E6D3B3"/>
<path d="M567.627 409.462H501.281V415.667H567.627V409.462Z" fill="#E6D3B3"/>
<path d="M567.627 425.099H501.281V431.305H567.627V425.099Z" fill="#E6D3B3"/>
<path d="M567.627 440.736H501.281V446.942H567.627V440.736Z" fill="#E6D3B3"/>
<path d="M529.028 459.894H500.74V477.968H529.028V459.894Z" fill="#02197E"/>
<path d="M567.627 459.894H539.338V477.968H567.627V459.894Z" fill="#02197E"/>
<path d="M529.028 485.91H500.74V503.984H529.028V485.91Z" fill="#02197E"/>
<path d="M567.627 485.91H539.338V503.984H567.627V485.91Z" fill="#02197E"/>
<path d="M529.028 511.927H500.74V530.001H529.028V511.927Z" fill="#02197E"/>
<path d="M567.627 511.927H539.338V530.001H567.627V511.927Z" fill="#02197E"/>
<path d="M529.028 537.944H500.74V556.018H529.028V537.944Z" fill="#02197E"/>
<path d="M567.627 537.944H539.338V556.018H567.627V537.944Z" fill="#02197E"/>
<path d="M529.028 563.961H500.74V582.035H529.028V563.961Z" fill="#02197E"/>
<path d="M567.627 563.961H539.338V582.035H567.627V563.961Z" fill="#02197E"/>
<path d="M529.028 589.977H500.74V608.051H529.028V589.977Z" fill="#02197E"/>
<path d="M567.627 589.977H539.338V608.051H567.627V589.977Z" fill="#02197E"/>
<path d="M529.028 615.994H500.74V634.068H529.028V615.994Z" fill="#02197E"/>
<path d="M567.627 615.994H539.338V634.068H567.627V615.994Z" fill="#02197E"/>
<path d="M529.028 642.011H500.74V660.085H529.028V642.011Z" fill="#02197E"/>
<path d="M567.627 642.011H539.338V660.085H567.627V642.011Z" fill="#02197E"/>
<path d="M706.003 665.929H453.817V678.836H706.003V665.929Z" fill="#000519"/>
<path d="M632.957 356.12H627.114V381.212H632.957V356.12Z" fill="#000519"/>
<path d="M649.402 356.12H643.56V381.212H649.402V356.12Z" fill="#000519"/>
<path d="M665.87 356.12H660.028V381.212H665.87V356.12Z" fill="#000519"/>
<path d="M682.316 356.12H676.473V381.212H682.316V356.12Z" fill="#000519"/>
<path d="M698.784 356.12H692.941V381.212H698.784V356.12Z" fill="#000519"/>
<path d="M632.957 390.328H627.114V415.419H632.957V390.328Z" fill="#000519"/>
<path d="M649.402 390.328H643.56V415.419H649.402V390.328Z" fill="#000519"/>
<path d="M665.87 390.328H660.028V415.419H665.87V390.328Z" fill="#000519"/>
<path d="M682.316 390.328H676.473V415.419H682.316V390.328Z" fill="#000519"/>
<path d="M698.784 390.328H692.941V415.419H698.784V390.328Z" fill="#000519"/>
<path d="M632.957 424.535H627.114V449.627H632.957V424.535Z" fill="#000519"/>
<path d="M649.402 424.535H643.56V449.627H649.402V424.535Z" fill="#000519"/>
<path d="M665.87 424.535H660.028V449.627H665.87V424.535Z" fill="#000519"/>
<path d="M682.316 424.535H676.473V449.627H682.316V424.535Z" fill="#000519"/>
<path d="M698.784 424.535H692.941V449.627H698.784V424.535Z" fill="#000519"/>
<path d="M632.957 458.743H627.114V483.834H632.957V458.743Z" fill="#000519"/>
<path d="M649.402 458.743H643.56V483.834H649.402V458.743Z" fill="#000519"/>
<path d="M665.87 458.743H660.028V483.834H665.87V458.743Z" fill="#000519"/>
<path d="M682.316 458.743H676.473V483.834H682.316V458.743Z" fill="#000519"/>
<path d="M698.784 458.743H692.941V483.834H698.784V458.743Z" fill="#000519"/>
<path d="M632.957 492.928H627.114V518.019H632.957V492.928Z" fill="#000519"/>
<path d="M649.402 492.928H643.56V518.019H649.402V492.928Z" fill="#000519"/>
<path d="M665.87 492.928H660.028V518.019H665.87V492.928Z" fill="#000519"/>
<path d="M682.316 492.928H676.473V518.019H682.316V492.928Z" fill="#000519"/>
<path d="M698.784 492.928H692.941V518.019H698.784V492.928Z" fill="#000519"/>
<path d="M632.957 527.135H627.114V552.227H632.957V527.135Z" fill="#000519"/>
<path d="M649.402 527.135H643.56V552.227H649.402V527.135Z" fill="#000519"/>
<path d="M665.87 527.135H660.028V552.227H665.87V527.135Z" fill="#000519"/>
<path d="M682.316 527.135H676.473V552.227H682.316V527.135Z" fill="#000519"/>
<path d="M698.784 527.135H692.941V552.227H698.784V527.135Z" fill="#000519"/>
<path d="M632.957 561.343H627.114V586.435H632.957V561.343Z" fill="#000519"/>
<path d="M649.402 561.343H643.56V586.435H649.402V561.343Z" fill="#000519"/>
<path d="M665.87 561.343H660.028V586.435H665.87V561.343Z" fill="#000519"/>
<path d="M682.316 561.343H676.473V586.435H682.316V561.343Z" fill="#000519"/>
<path d="M698.784 561.343H692.941V586.435H698.784V561.343Z" fill="#000519"/>
<path d="M632.957 595.551H627.114V620.642H632.957V595.551Z" fill="#000519"/>
<path d="M649.402 595.551H643.56V620.642H649.402V595.551Z" fill="#000519"/>
<path d="M665.87 595.551H660.028V620.642H665.87V595.551Z" fill="#000519"/>
<path d="M682.316 595.551H676.473V620.642H682.316V595.551Z" fill="#000519"/>
<path d="M698.784 595.551H692.941V620.642H698.784V595.551Z" fill="#000519"/>
<path d="M632.957 629.758H627.114V654.85H632.957V629.758Z" fill="#000519"/>
<path d="M649.402 629.758H643.56V654.85H649.402V629.758Z" fill="#000519"/>
<path d="M665.87 629.758H660.028V654.85H665.87V629.758Z" fill="#000519"/>
<path d="M682.316 629.758H676.473V654.85H682.316V629.758Z" fill="#000519"/>
<path d="M698.784 629.758H692.941V654.85H698.784V629.758Z" fill="#000519"/>
<path d="M598.058 343.371H593.817V463.481H598.058V343.371Z" fill="#F3EADB"/>
<path d="M484.835 577.454H459.209V580.004H484.835V577.454Z" fill="#F3EADB"/>
<path d="M484.835 585.148H459.209V587.698H484.835V585.148Z" fill="#F3EADB"/>
<path d="M484.835 592.843H459.209V595.393H484.835V592.843Z" fill="#F3EADB"/>
<path d="M484.835 600.537H459.209V603.087H484.835V600.537Z" fill="#F3EADB"/>
<path d="M484.835 608.254H459.209V610.804H484.835V608.254Z" fill="#F3EADB"/>
<path d="M484.835 615.949H459.209V618.499H484.835V615.949Z" fill="#F3EADB"/>
<path d="M639.815 324.778H525.69V343.371H639.815V324.778Z" fill="#B3C1FD"/>
<path d="M586.734 324.778H525.69V343.371H586.734V324.778Z" fill="#4F70FB"/>
<path d="M562.799 334.075H553.482V343.394H562.799V334.075Z" fill="#E6D3B3"/>
<path d="M548 276.175H539.338V324.778H548V276.175Z" fill="#B3C1FD"/>
<path d="M567.13 302.755H558.468V324.778H567.13V302.755Z" fill="#B3C1FD"/>
<path d="M1080.23 217.349H968.863V268.751H1080.23V217.349Z" fill="#0323AF"/>
<path d="M1167.79 279.266H627V678.858H1167.79V279.266Z" fill="#490407"/>
<path d="M772.398 307.404H649.581V483.812H772.398V307.404Z" fill="#0323AF"/>
<path d="M1126.23 250.113H683.182V279.266H1126.23V250.113Z" fill="#010F4B"/>
<path d="M1126.23 250.113H683.182V260.447H1126.23V250.113Z" fill="#E6EBFF"/>
<path d="M897.409 198.711H705.333V250.113H897.409V198.711Z" fill="#0323AF"/>
<path d="M756.107 220.96H738.775V250.113H756.107V220.96Z" fill="#FFEDB2"/>
<path d="M787.784 220.96H770.452V250.113H787.784V220.96Z" fill="#FFEDB2"/>
<path d="M819.438 220.96H802.106V250.113H819.438V220.96Z" fill="#FFEDB2"/>
<path d="M851.115 220.96H833.783V250.113H851.115V220.96Z" fill="#FFEDB2"/>
<path d="M897.409 198.711H705.333V205.616H897.409V198.711Z" fill="#010F4B"/>
<path d="M955.061 144.331H950.875V250.09H955.061V144.331Z" fill="#010F4B"/>
<path d="M1097.86 217.349H1094.28V250.113H1097.86V217.349Z" fill="#010F4B"/>
<path d="M832.064 296.866H832.493C839.462 296.866 845.119 302.507 845.119 309.457V333.217H819.438V309.457C819.438 302.507 825.095 296.866 832.064 296.866Z" fill="#EFD0C0"/>
<path d="M880.461 296.866H880.891C887.86 296.866 893.517 302.507 893.517 309.457V333.217H867.836V309.457C867.836 302.507 873.493 296.866 880.461 296.866Z" fill="#EFD0C0"/>
<path d="M928.86 296.866H929.29C936.258 296.866 941.915 302.507 941.915 309.457V333.217H916.234V309.457C916.234 302.507 921.891 296.866 928.86 296.866Z" fill="#EFD0C0"/>
<path d="M977.258 296.866H977.688C984.656 296.866 990.313 302.507 990.313 309.457V333.217H964.632V309.457C964.632 302.507 970.289 296.866 977.258 296.866Z" fill="#EFD0C0"/>
<path d="M1025.63 296.866H1026.06C1033.03 296.866 1038.69 302.507 1038.69 309.457V333.217H1013.01V309.457C1013.01 302.507 1018.66 296.866 1025.63 296.866Z" fill="#EFD0C0"/>
<path d="M1074.03 296.866H1074.46C1081.43 296.866 1087.09 302.507 1087.09 309.457V333.217H1061.41V309.457C1061.41 302.507 1067.06 296.866 1074.03 296.866Z" fill="#EFD0C0"/>
<path d="M1122.43 296.866H1122.86C1129.83 296.866 1135.48 302.507 1135.48 309.457V333.217H1109.8V309.457C1109.8 302.507 1115.46 296.866 1122.43 296.866Z" fill="#EFD0C0"/>
<path d="M1167.98 487.016H627V502.901H1167.98V487.016Z" fill="#FFEDB2"/>
<path d="M1178.77 479.051H627V494.936H1178.77V479.051Z" fill="#DB936F"/>
<path d="M1178.77 471.108H627V479.254H1178.77V471.108Z" fill="#DB936F"/>
<path d="M795.861 279.266H627V678.858H795.861V279.266Z" fill="#79070C"/>
<path d="M674.357 315.053H658.473V357.226H674.357V315.053Z" fill="#8098FC"/>
<path d="M703.817 315.053H687.933V357.226H703.817V315.053Z" fill="#8098FC"/>
<path d="M733.276 315.053H717.393V357.226H733.276V315.053Z" fill="#8098FC"/>
<path d="M762.736 315.053H746.852V357.226H762.736V315.053Z" fill="#8098FC"/>
<path d="M674.357 367.312H658.473V409.485H674.357V367.312Z" fill="#8098FC"/>
<path d="M703.817 367.312H687.933V409.485H703.817V367.312Z" fill="#8098FC"/>
<path d="M733.276 367.312H717.393V409.485H733.276V367.312Z" fill="#8098FC"/>
<path d="M762.736 367.312H746.852V409.485H762.736V367.312Z" fill="#8098FC"/>
<path d="M674.357 419.571H658.473V461.744H674.357V419.571Z" fill="#8098FC"/>
<path d="M703.817 419.571H687.933V461.744H703.817V419.571Z" fill="#8098FC"/>
<path d="M733.276 419.571H717.393V461.744H733.276V419.571Z" fill="#8098FC"/>
<path d="M762.736 419.571H746.852V461.744H762.736V419.571Z" fill="#8098FC"/>
<path d="M772.398 533.679H649.581V678.858H772.398V533.679Z" fill="#0323AF"/>
<path d="M674.357 541.306H658.473V583.479H674.357V541.306Z" fill="#8098FC"/>
<path d="M703.817 541.306H687.933V583.479H703.817V541.306Z" fill="#8098FC"/>
<path d="M733.276 541.306H717.393V583.479H733.276V541.306Z" fill="#8098FC"/>
<path d="M762.736 541.306H746.852V583.479H762.736V541.306Z" fill="#8098FC"/>
<path d="M674.357 593.588H658.473V635.76H674.357V593.588Z" fill="#8098FC"/>
<path d="M703.817 593.588H687.933V635.76H703.817V593.588Z" fill="#8098FC"/>
<path d="M733.276 593.588H717.393V635.76H733.276V593.588Z" fill="#8098FC"/>
<path d="M762.736 593.588H746.852V635.76H762.736V593.588Z" fill="#8098FC"/>
<path d="M674.357 645.847H658.473V678.858H674.357V645.847Z" fill="#8098FC"/>
<path d="M703.817 645.847H687.933V678.858H703.817V645.847Z" fill="#8098FC"/>
<path d="M733.276 645.847H717.393V678.858H733.276V645.847Z" fill="#8098FC"/>
<path d="M762.736 645.847H746.852V678.858H762.736V645.847Z" fill="#8098FC"/>
<path d="M828.194 351.224H819.438V375.074H828.194V351.224Z" fill="#FFEDB2"/>
<path d="M849.509 351.224H840.752V375.074H849.509V351.224Z" fill="#FFEDB2"/>
<path d="M870.823 351.224H862.066V375.074H870.823V351.224Z" fill="#FFEDB2"/>
<path d="M892.137 351.224H883.38V375.074H892.137V351.224Z" fill="#FFEDB2"/>
<path d="M913.428 351.224H904.672V375.074H913.428V351.224Z" fill="#FFEDB2"/>
<path d="M934.742 351.224H925.986V375.074H934.742V351.224Z" fill="#FFEDB2"/>
<path d="M956.056 351.224H947.3V375.074H956.056V351.224Z" fill="#FFEDB2"/>
<path d="M977.371 351.224H968.614V375.074H977.371V351.224Z" fill="#FFEDB2"/>
<path d="M998.685 351.224H989.928V375.074H998.685V351.224Z" fill="#FFEDB2"/>
<path d="M1020 351.224H1011.24V375.074H1020V351.224Z" fill="#FFEDB2"/>
<path d="M1041.31 351.224H1032.56V375.074H1041.31V351.224Z" fill="#FFEDB2"/>
<path d="M1062.63 351.224H1053.87V375.074H1062.63V351.224Z" fill="#FFEDB2"/>
<path d="M1083.92 351.224H1075.16V375.074H1083.92V351.224Z" fill="#FFEDB2"/>
<path d="M1105.23 351.224H1096.48V375.074H1105.23V351.224Z" fill="#FFEDB2"/>
<path d="M1126.55 351.224H1117.79V375.074H1126.55V351.224Z" fill="#FFEDB2"/>
<path d="M1147.86 351.224H1139.1V375.074H1147.86V351.224Z" fill="#FFEDB2"/>
<path d="M828.194 388.5H819.438V412.351H828.194V388.5Z" fill="#FFEDB2"/>
<path d="M849.509 388.5H840.752V412.351H849.509V388.5Z" fill="#FFEDB2"/>
<path d="M870.823 388.5H862.066V412.351H870.823V388.5Z" fill="#FFEDB2"/>
<path d="M892.137 388.5H883.38V412.351H892.137V388.5Z" fill="#FFEDB2"/>
<path d="M913.428 388.5H904.672V412.351H913.428V388.5Z" fill="#FFEDB2"/>
<path d="M934.742 388.5H925.986V412.351H934.742V388.5Z" fill="#FFEDB2"/>
<path d="M956.056 388.5H947.3V412.351H956.056V388.5Z" fill="#FFEDB2"/>
<path d="M977.371 388.5H968.614V412.351H977.371V388.5Z" fill="#FFEDB2"/>
<path d="M998.685 388.5H989.928V412.351H998.685V388.5Z" fill="#FFEDB2"/>
<path d="M1020 388.5H1011.24V412.351H1020V388.5Z" fill="#FFEDB2"/>
<path d="M1041.31 388.5H1032.56V412.351H1041.31V388.5Z" fill="#FFEDB2"/>
<path d="M1062.63 388.5H1053.87V412.351H1062.63V388.5Z" fill="#FFEDB2"/>
<path d="M1083.92 388.5H1075.16V412.351H1083.92V388.5Z" fill="#FFEDB2"/>
<path d="M1105.23 388.5H1096.48V412.351H1105.23V388.5Z" fill="#FFEDB2"/>
<path d="M1126.55 388.5H1117.79V412.351H1126.55V388.5Z" fill="#FFEDB2"/>
<path d="M1147.86 388.5H1139.1V412.351H1147.86V388.5Z" fill="#FFEDB2"/>
<path d="M828.194 425.754H819.438V449.604H828.194V425.754Z" fill="#FFEDB2"/>
<path d="M849.509 425.754H840.752V449.604H849.509V425.754Z" fill="#FFEDB2"/>
<path d="M870.823 425.754H862.066V449.604H870.823V425.754Z" fill="#FFEDB2"/>
<path d="M892.137 425.754H883.38V449.604H892.137V425.754Z" fill="#FFEDB2"/>
<path d="M913.428 425.754H904.672V449.604H913.428V425.754Z" fill="#FFEDB2"/>
<path d="M934.742 425.754H925.986V449.604H934.742V425.754Z" fill="#FFEDB2"/>
<path d="M956.056 425.754H947.3V449.604H956.056V425.754Z" fill="#FFEDB2"/>
<path d="M977.371 425.754H968.614V449.604H977.371V425.754Z" fill="#FFEDB2"/>
<path d="M998.685 425.754H989.928V449.604H998.685V425.754Z" fill="#FFEDB2"/>
<path d="M1020 425.754H1011.24V449.604H1020V425.754Z" fill="#FFEDB2"/>
<path d="M1041.31 425.754H1032.56V449.604H1041.31V425.754Z" fill="#FFEDB2"/>
<path d="M1062.63 425.754H1053.87V449.604H1062.63V425.754Z" fill="#FFEDB2"/>
<path d="M1083.92 425.754H1075.16V449.604H1083.92V425.754Z" fill="#FFEDB2"/>
<path d="M1105.23 425.754H1096.48V449.604H1105.23V425.754Z" fill="#FFEDB2"/>
<path d="M1126.55 425.754H1117.79V449.604H1126.55V425.754Z" fill="#FFEDB2"/>
<path d="M1147.86 425.754H1139.1V449.604H1147.86V425.754Z" fill="#FFEDB2"/>
<path d="M828.194 519.373H819.438V543.224H828.194V519.373Z" fill="#FFEDB2"/>
<path d="M849.509 519.373H840.752V543.224H849.509V519.373Z" fill="#FFEDB2"/>
<path d="M870.823 519.373H862.066V543.224H870.823V519.373Z" fill="#FFEDB2"/>
<path d="M892.137 519.373H883.38V543.224H892.137V519.373Z" fill="#FFEDB2"/>
<path d="M913.428 519.373H904.672V543.224H913.428V519.373Z" fill="#FFEDB2"/>
<path d="M934.742 519.373H925.986V543.224H934.742V519.373Z" fill="#FFEDB2"/>
<path d="M956.056 519.373H947.3V543.224H956.056V519.373Z" fill="#FFEDB2"/>
<path d="M977.371 519.373H968.614V543.224H977.371V519.373Z" fill="#FFEDB2"/>
<path d="M998.685 519.373H989.928V543.224H998.685V519.373Z" fill="#FFEDB2"/>
<path d="M1020 519.373H1011.24V543.224H1020V519.373Z" fill="#FFEDB2"/>
<path d="M1041.31 519.373H1032.56V543.224H1041.31V519.373Z" fill="#FFEDB2"/>
<path d="M1062.63 519.373H1053.87V543.224H1062.63V519.373Z" fill="#FFEDB2"/>
<path d="M1083.92 519.373H1075.16V543.224H1083.92V519.373Z" fill="#FFEDB2"/>
<path d="M1105.23 519.373H1096.48V543.224H1105.23V519.373Z" fill="#FFEDB2"/>
<path d="M1126.55 519.373H1117.79V543.224H1126.55V519.373Z" fill="#FFEDB2"/>
<path d="M1147.86 519.373H1139.1V543.224H1147.86V519.373Z" fill="#FFEDB2"/>
<path d="M828.194 556.627H819.438V580.478H828.194V556.627Z" fill="#FFEDB2"/>
<path d="M849.509 556.627H840.752V580.478H849.509V556.627Z" fill="#FFEDB2"/>
<path d="M870.823 556.627H862.066V580.478H870.823V556.627Z" fill="#FFEDB2"/>
<path d="M892.137 556.627H883.38V580.478H892.137V556.627Z" fill="#FFEDB2"/>
<path d="M913.428 556.627H904.672V580.478H913.428V556.627Z" fill="#FFEDB2"/>
<path d="M934.742 556.627H925.986V580.478H934.742V556.627Z" fill="#FFEDB2"/>
<path d="M956.056 556.627H947.3V580.478H956.056V556.627Z" fill="#FFEDB2"/>
<path d="M977.371 556.627H968.614V580.478H977.371V556.627Z" fill="#FFEDB2"/>
<path d="M998.685 556.627H989.928V580.478H998.685V556.627Z" fill="#FFEDB2"/>
<path d="M1020 556.627H1011.24V580.478H1020V556.627Z" fill="#FFEDB2"/>
<path d="M1041.31 556.627H1032.56V580.478H1041.31V556.627Z" fill="#FFEDB2"/>
<path d="M1062.63 556.627H1053.87V580.478H1062.63V556.627Z" fill="#FFEDB2"/>
<path d="M1083.92 556.627H1075.16V580.478H1083.92V556.627Z" fill="#FFEDB2"/>
<path d="M1105.23 556.627H1096.48V580.478H1105.23V556.627Z" fill="#FFEDB2"/>
<path d="M1126.55 556.627H1117.79V580.478H1126.55V556.627Z" fill="#FFEDB2"/>
<path d="M1147.86 556.627H1139.1V580.478H1147.86V556.627Z" fill="#FFEDB2"/>
<path d="M828.194 593.903H819.438V617.754H828.194V593.903Z" fill="#FFEDB2"/>
<path d="M849.509 593.903H840.752V617.754H849.509V593.903Z" fill="#FFEDB2"/>
<path d="M870.823 593.903H862.066V617.754H870.823V593.903Z" fill="#FFEDB2"/>
<path d="M892.137 593.903H883.38V617.754H892.137V593.903Z" fill="#FFEDB2"/>
<path d="M913.428 593.903H904.672V617.754H913.428V593.903Z" fill="#FFEDB2"/>
<path d="M934.742 593.903H925.986V617.754H934.742V593.903Z" fill="#FFEDB2"/>
<path d="M956.056 593.903H947.3V617.754H956.056V593.903Z" fill="#FFEDB2"/>
<path d="M977.371 593.903H968.614V617.754H977.371V593.903Z" fill="#FFEDB2"/>
<path d="M998.685 593.903H989.928V617.754H998.685V593.903Z" fill="#FFEDB2"/>
<path d="M1020 593.903H1011.24V617.754H1020V593.903Z" fill="#FFEDB2"/>
<path d="M1041.31 593.903H1032.56V617.754H1041.31V593.903Z" fill="#FFEDB2"/>
<path d="M1062.63 593.903H1053.87V617.754H1062.63V593.903Z" fill="#FFEDB2"/>
<path d="M1083.92 593.903H1075.16V617.754H1083.92V593.903Z" fill="#FFEDB2"/>
<path d="M1105.23 593.903H1096.48V617.754H1105.23V593.903Z" fill="#FFEDB2"/>
<path d="M1126.55 593.903H1117.79V617.754H1126.55V593.903Z" fill="#FFEDB2"/>
<path d="M1147.86 593.903H1139.1V617.754H1147.86V593.903Z" fill="#FFEDB2"/>
<path d="M1704.55 31.7347H1509.89V70.1393H1704.55V31.7347Z" fill="#000519"/>
<path d="M1788.17 57.6612H1374.96V678.836H1788.17V57.6612Z" fill="#79070C"/>
<path d="M1788.17 57.6612H1374.96V79.2553H1788.17V57.6612Z" fill="#B95B2D"/>
<path d="M1794.69 128.265H1368.6V203.224H1794.69V128.265Z" fill="#B95B2D"/>
<path d="M1390.17 136.727H1382.11V194.492H1390.17V136.727Z" fill="#000519"/>
<path d="M1413.2 136.727H1405.15V194.492H1413.2V136.727Z" fill="#000519"/>
<path d="M1436.23 136.727H1428.18V194.492H1436.23V136.727Z" fill="#000519"/>
<path d="M1459.27 136.727H1451.21V194.492H1459.27V136.727Z" fill="#000519"/>
<path d="M1482.3 136.727H1474.24V194.492H1482.3V136.727Z" fill="#000519"/>
<path d="M1505.33 136.727H1497.28V194.492H1505.33V136.727Z" fill="#000519"/>
<path d="M1528.36 136.727H1520.31V194.492H1528.36V136.727Z" fill="#000519"/>
<path d="M1551.4 136.727H1543.34V194.492H1551.4V136.727Z" fill="#000519"/>
<path d="M1574.43 136.727H1566.38V194.492H1574.43V136.727Z" fill="#000519"/>
<path d="M1597.46 136.727H1589.41V194.492H1597.46V136.727Z" fill="#000519"/>
<path d="M1620.47 136.727H1612.42V194.492H1620.47V136.727Z" fill="#000519"/>
<path d="M1643.5 136.727H1635.45V194.492H1643.5V136.727Z" fill="#000519"/>
<path d="M1666.54 136.727H1658.48V194.492H1666.54V136.727Z" fill="#000519"/>
<path d="M1689.57 136.727H1681.52V194.492H1689.57V136.727Z" fill="#000519"/>
<path d="M1712.6 136.727H1704.55V194.492H1712.6V136.727Z" fill="#000519"/>
<path d="M1735.63 136.727H1727.58V194.492H1735.63V136.727Z" fill="#000519"/>
<path d="M1758.67 136.727H1750.61V194.492H1758.67V136.727Z" fill="#000519"/>
<path d="M1781.7 136.727H1773.65V194.492H1781.7V136.727Z" fill="#000519"/>
<path d="M1405.15 93.7191H1386.15V112.718H1405.15V93.7191Z" fill="#000519"/>
<path d="M1438.87 93.7191H1419.88V112.718H1438.87V93.7191Z" fill="#000519"/>
<path d="M1472.62 93.7191H1453.63V112.718H1472.62V93.7191Z" fill="#000519"/>
<path d="M1506.35 93.7191H1487.35V112.718H1506.35V93.7191Z" fill="#000519"/>
<path d="M1540.07 93.7191H1521.08V112.718H1540.07V93.7191Z" fill="#000519"/>
<path d="M1573.82 93.7191H1554.82V112.718H1573.82V93.7191Z" fill="#000519"/>
<path d="M1607.55 93.7191H1588.55V112.718H1607.55V93.7191Z" fill="#000519"/>
<path d="M1641.27 93.7191H1622.28V112.718H1641.27V93.7191Z" fill="#000519"/>
<path d="M1675.02 93.7191H1656.02V112.718H1675.02V93.7191Z" fill="#000519"/>
<path d="M1708.74 93.7191H1689.75V112.718H1708.74V93.7191Z" fill="#000519"/>
<path d="M1742.47 93.7191H1723.48V112.718H1742.47V93.7191Z" fill="#000519"/>
<path d="M1776.22 93.7191H1757.22V112.718H1776.22V93.7191Z" fill="#000519"/>
<path d="M1462.4 222.516H1397.34V678.858H1462.4V222.516Z" fill="#8F4723"/>
<path d="M1450.15 238.379H1409.61V251.602H1450.15V238.379Z" fill="#FFF8E4"/>
<path d="M1450.15 260.944H1409.61V274.166H1450.15V260.944Z" fill="#FFF8E4"/>
<path d="M1450.15 283.508H1409.61V296.731H1450.15V283.508Z" fill="#FFF8E4"/>
<path d="M1450.15 306.05H1409.61V319.272H1450.15V306.05Z" fill="#FFF8E4"/>
<path d="M1450.15 328.614H1409.61V341.837H1450.15V328.614Z" fill="#FFF8E4"/>
<path d="M1450.15 351.178H1409.61V364.401H1450.15V351.178Z" fill="#FFF8E4"/>
<path d="M1450.15 373.743H1409.61V386.966H1450.15V373.743Z" fill="#FFF8E4"/>
<path d="M1450.15 396.285H1409.61V409.507H1450.15V396.285Z" fill="#FFF8E4"/>
<path d="M1450.15 418.849H1409.61V432.072H1450.15V418.849Z" fill="#FFF8E4"/>
<path d="M1450.15 441.413H1409.61V454.636H1450.15V441.413Z" fill="#FFF8E4"/>
<path d="M1450.15 463.978H1409.61V477.2H1450.15V463.978Z" fill="#FFF8E4"/>
<path d="M1450.15 486.52H1409.61V499.742H1450.15V486.52Z" fill="#FFF8E4"/>
<path d="M1450.15 509.084H1409.61V522.307H1450.15V509.084Z" fill="#FFF8E4"/>
<path d="M1450.15 531.648H1409.61V544.871H1450.15V531.648Z" fill="#FFF8E4"/>
<path d="M1450.15 554.213H1409.61V567.435H1450.15V554.213Z" fill="#FFF8E4"/>
<path d="M1450.15 576.754H1409.61V589.977H1450.15V576.754Z" fill="#FFF8E4"/>
<path d="M1450.15 599.319H1409.61V612.542H1450.15V599.319Z" fill="#FFF8E4"/>
<path d="M1450.15 621.883H1409.61V635.106H1450.15V621.883Z" fill="#FFF8E4"/>
<path d="M1450.15 644.448H1409.61V657.67H1450.15V644.448Z" fill="#FFF8E4"/>
<path d="M1561.98 222.494H1496.92V678.836H1561.98V222.494Z" fill="#8F4723"/>
<path d="M1549.73 238.379H1509.19V251.602H1549.73V238.379Z" fill="#FFF8E4"/>
<path d="M1549.73 260.944H1509.19V274.166H1549.73V260.944Z" fill="#FFF8E4"/>
<path d="M1549.73 283.508H1509.19V296.731H1549.73V283.508Z" fill="#FFF8E4"/>
<path d="M1549.73 306.05H1509.19V319.272H1549.73V306.05Z" fill="#FFF8E4"/>
<path d="M1549.73 328.614H1509.19V341.837H1549.73V328.614Z" fill="#FFF8E4"/>
<path d="M1549.73 351.178H1509.19V364.401H1549.73V351.178Z" fill="#FFF8E4"/>
<path d="M1549.73 373.743H1509.19V386.966H1549.73V373.743Z" fill="#FFF8E4"/>
<path d="M1549.73 396.285H1509.19V409.507H1549.73V396.285Z" fill="#FFF8E4"/>
<path d="M1549.73 418.849H1509.19V432.072H1549.73V418.849Z" fill="#FFF8E4"/>
<path d="M1549.73 441.413H1509.19V454.636H1549.73V441.413Z" fill="#FFF8E4"/>
<path d="M1549.73 463.978H1509.19V477.201H1549.73V463.978Z" fill="#FFF8E4"/>
<path d="M1549.73 486.52H1509.19V499.742H1549.73V486.52Z" fill="#FFF8E4"/>
<path d="M1549.73 509.084H1509.19V522.307H1549.73V509.084Z" fill="#FFF8E4"/>
<path d="M1549.73 531.648H1509.19V544.871H1549.73V531.648Z" fill="#FFF8E4"/>
<path d="M1549.73 554.213H1509.19V567.435H1549.73V554.213Z" fill="#FFF8E4"/>
<path d="M1549.73 576.754H1509.19V589.977H1549.73V576.754Z" fill="#FFF8E4"/>
<path d="M1549.73 599.319H1509.19V612.542H1549.73V599.319Z" fill="#FFF8E4"/>
<path d="M1549.73 621.883H1509.19V635.106H1549.73V621.883Z" fill="#FFF8E4"/>
<path d="M1549.73 644.448H1509.19V657.67H1549.73V644.448Z" fill="#FFF8E4"/>
<path d="M1661.55 222.494H1596.49V678.836H1661.55V222.494Z" fill="#8F4723"/>
<path d="M1649.3 238.379H1608.76V251.602H1649.3V238.379Z" fill="#FFF8E4"/>
<path d="M1649.3 260.944H1608.76V274.166H1649.3V260.944Z" fill="#FFF8E4"/>
<path d="M1649.3 283.508H1608.76V296.731H1649.3V283.508Z" fill="#FFF8E4"/>
<path d="M1649.3 306.05H1608.76V319.272H1649.3V306.05Z" fill="#FFF8E4"/>
<path d="M1649.3 328.614H1608.76V341.837H1649.3V328.614Z" fill="#FFF8E4"/>
<path d="M1649.3 351.178H1608.76V364.401H1649.3V351.178Z" fill="#FFF8E4"/>
<path d="M1649.3 373.743H1608.76V386.966H1649.3V373.743Z" fill="#FFF8E4"/>
<path d="M1649.3 396.285H1608.76V409.507H1649.3V396.285Z" fill="#FFF8E4"/>
<path d="M1649.3 418.849H1608.76V432.072H1649.3V418.849Z" fill="#FFF8E4"/>
<path d="M1649.3 441.413H1608.76V454.636H1649.3V441.413Z" fill="#FFF8E4"/>
<path d="M1649.3 463.978H1608.76V477.201H1649.3V463.978Z" fill="#FFF8E4"/>
<path d="M1649.3 486.52H1608.76V499.742H1649.3V486.52Z" fill="#FFF8E4"/>
<path d="M1649.3 509.084H1608.76V522.307H1649.3V509.084Z" fill="#FFF8E4"/>
<path d="M1649.3 531.648H1608.76V544.871H1649.3V531.648Z" fill="#FFF8E4"/>
<path d="M1649.3 554.213H1608.76V567.435H1649.3V554.213Z" fill="#FFF8E4"/>
<path d="M1649.3 576.754H1608.76V589.977H1649.3V576.754Z" fill="#FFF8E4"/>
<path d="M1649.3 599.319H1608.76V612.542H1649.3V599.319Z" fill="#FFF8E4"/>
<path d="M1649.3 621.883H1608.76V635.106H1649.3V621.883Z" fill="#FFF8E4"/>
<path d="M1649.3 644.448H1608.76V657.67H1649.3V644.448Z" fill="#FFF8E4"/>
<path d="M1761.13 222.494H1696.07V678.836H1761.13V222.494Z" fill="#8F4723"/>
<path d="M1748.88 238.379H1708.34V251.602H1748.88V238.379Z" fill="#FFF8E4"/>
<path d="M1748.88 260.944H1708.34V274.166H1748.88V260.944Z" fill="#FFF8E4"/>
<path d="M1748.88 283.508H1708.34V296.731H1748.88V283.508Z" fill="#FFF8E4"/>
<path d="M1748.88 306.05H1708.34V319.272H1748.88V306.05Z" fill="#FFF8E4"/>
<path d="M1748.88 328.614H1708.34V341.837H1748.88V328.614Z" fill="#FFF8E4"/>
<path d="M1748.88 351.178H1708.34V364.401H1748.88V351.178Z" fill="#FFF8E4"/>
<path d="M1748.88 373.743H1708.34V386.966H1748.88V373.743Z" fill="#FFF8E4"/>
<path d="M1748.88 396.285H1708.34V409.507H1748.88V396.285Z" fill="#FFF8E4"/>
<path d="M1748.88 418.849H1708.34V432.072H1748.88V418.849Z" fill="#FFF8E4"/>
<path d="M1748.88 441.413H1708.34V454.636H1748.88V441.413Z" fill="#FFF8E4"/>
<path d="M1748.88 463.978H1708.34V477.201H1748.88V463.978Z" fill="#FFF8E4"/>
<path d="M1748.88 486.52H1708.34V499.742H1748.88V486.52Z" fill="#FFF8E4"/>
<path d="M1748.88 509.084H1708.34V522.307H1748.88V509.084Z" fill="#FFF8E4"/>
<path d="M1748.88 531.648H1708.34V544.871H1748.88V531.648Z" fill="#FFF8E4"/>
<path d="M1748.88 554.213H1708.34V567.435H1748.88V554.213Z" fill="#FFF8E4"/>
<path d="M1748.88 576.754H1708.34V589.977H1748.88V576.754Z" fill="#FFF8E4"/>
<path d="M1748.88 599.319H1708.34V612.542H1748.88V599.319Z" fill="#FFF8E4"/>
<path d="M1748.88 621.883H1708.34V635.106H1748.88V621.883Z" fill="#FFF8E4"/>
<path d="M1748.88 644.448H1708.34V657.67H1748.88V644.448Z" fill="#FFF8E4"/>
<path d="M1478.28 57.6612V678.836H1374.96V203.224H1368.6V128.265H1374.96V57.6612H1478.28Z" fill="#490407"/>
<path d="M1540.07 -2.67596H1530.57V41.5727H1540.07V-2.67596Z" fill="#000519"/>
<path d="M1455.41 -24.0219H1450.15V57.3678H1455.41V-24.0219Z" fill="#000519"/>
<path d="M1635.47 -94.4227H1632.9V31.7347H1635.47V-94.4227Z" fill="#000519"/>
<path d="M1666.54 19.0761H1589.95V37.105H1666.54V19.0761Z" fill="#000519"/>
<path d="M1704.55 31.7347H1509.89V39.2713H1704.55V31.7347Z" fill="#B95B2D"/>
<path d="M1652.93 13.2771H1607.23V23.07H1652.93V13.2771Z" fill="#000519"/>
<path d="M1420.35 330.374H1239.43V678.836H1420.35V330.374Z" fill="#010F4B"/>
<path d="M1420.35 330.374H1329.89V678.836H1420.35V330.374Z" fill="#0323AF"/>
<path d="M1310.6 353.909H1250.98V641.018H1310.6V353.909Z" fill="#0323AF"/>
<path d="M1303.07 363.16H1257.91V370.02H1303.07V363.16Z" fill="#000519"/>
<path d="M1303.07 378.978H1257.91V385.837H1303.07V378.978Z" fill="#000519"/>
<path d="M1303.07 394.773H1257.91V401.632H1303.07V394.773Z" fill="#000519"/>
<path d="M1303.07 410.568H1257.91V417.427H1303.07V410.568Z" fill="#000519"/>
<path d="M1303.07 426.386H1257.91V433.245H1303.07V426.386Z" fill="#000519"/>
<path d="M1303.07 442.181H1257.91V449.04H1303.07V442.181Z" fill="#000519"/>
<path d="M1303.07 457.976H1257.91V464.835H1303.07V457.976Z" fill="#000519"/>
<path d="M1303.07 473.793H1257.91V480.653H1303.07V473.793Z" fill="#000519"/>
<path d="M1303.07 489.588H1257.91V496.448H1303.07V489.588Z" fill="#000519"/>
<path d="M1303.07 505.406H1257.91V512.266H1303.07V505.406Z" fill="#000519"/>
<path d="M1303.07 521.201H1257.91V528.061H1303.07V521.201Z" fill="#000519"/>
<path d="M1303.07 536.996H1257.91V543.856H1303.07V536.996Z" fill="#000519"/>
<path d="M1303.07 552.814H1257.91V559.673H1303.07V552.814Z" fill="#000519"/>
<path d="M1303.07 568.609H1257.91V575.468H1303.07V568.609Z" fill="#000519"/>
<path d="M1303.07 584.404H1257.91V591.263H1303.07V584.404Z" fill="#000519"/>
<path d="M1303.07 600.221H1257.91V607.081H1303.07V600.221Z" fill="#000519"/>
<path d="M1303.07 616.017H1257.91V622.876H1303.07V616.017Z" fill="#000519"/>
<path d="M1424.34 301.356H1231.99V333.217H1424.34V301.356Z" fill="#B4C2FE"/>
<path d="M1420.35 333.217H1238.46V343.823H1420.35V333.217Z" fill="#000519"/>
<path d="M1257.91 309.457H1241.46V323.108H1257.91V309.457Z" fill="#000519"/>
<path d="M1288.7 309.457H1272.25V323.108H1288.7V309.457Z" fill="#000519"/>
<path d="M1319.51 309.457H1303.07V323.108H1319.51V309.457Z" fill="#000519"/>
<path d="M1350.33 309.457H1333.88V323.108H1350.33V309.457Z" fill="#000519"/>
<path d="M1381.14 309.457H1364.7V323.108H1381.14V309.457Z" fill="#000519"/>
<path d="M1411.94 309.457H1395.49V323.108H1411.94V309.457Z" fill="#000519"/>
<path d="M1296.37 233.731H1292.19V301.356H1296.37V233.731Z" fill="#000519"/>
<path d="M1350.33 291.315H1315.61V301.356H1350.33V291.315Z" fill="#000519"/>
<path d="M1400.09 296.866H1364.7V301.356H1400.09V296.866Z" fill="#000519"/>
<path d="M1353.01 357.406H1337.88V382.385H1353.01V357.406Z" fill="#EFD0C0"/>
<path d="M1353.01 389.132H1337.88V398.203H1353.01V389.132Z" fill="#010F4B"/>
<path d="M1372.66 357.406H1357.53V382.385H1372.66V357.406Z" fill="#EFD0C0"/>
<path d="M1372.66 389.132H1357.53V398.203H1372.66V389.132Z" fill="#010F4B"/>
<path d="M1392.31 357.406H1377.17V382.385H1392.31V357.406Z" fill="#EFD0C0"/>
<path d="M1392.31 389.132H1377.17V398.203H1392.31V389.132Z" fill="#010F4B"/>
<path d="M1411.96 357.406H1396.82V382.385H1411.96V357.406Z" fill="#EFD0C0"/>
<path d="M1411.96 389.132H1396.82V398.203H1411.96V389.132Z" fill="#010F4B"/>
<path d="M1353.01 409.417H1337.88V434.396H1353.01V409.417Z" fill="#EFD0C0"/>
<path d="M1353.01 441.143H1337.88V450.214H1353.01V441.143Z" fill="#010F4B"/>
<path d="M1372.66 409.417H1357.53V434.396H1372.66V409.417Z" fill="#EFD0C0"/>
<path d="M1372.66 441.143H1357.53V450.214H1372.66V441.143Z" fill="#010F4B"/>
<path d="M1392.31 409.417H1377.17V434.396H1392.31V409.417Z" fill="#EFD0C0"/>
<path d="M1392.31 441.143H1377.17V450.214H1392.31V441.143Z" fill="#010F4B"/>
<path d="M1411.96 409.417H1396.82V434.396H1411.96V409.417Z" fill="#EFD0C0"/>
<path d="M1411.96 441.143H1396.82V450.214H1411.96V441.143Z" fill="#010F4B"/>
<path d="M1353.01 461.405H1337.88V486.384H1353.01V461.405Z" fill="#EFD0C0"/>
<path d="M1353.01 493.154H1337.88V502.224H1353.01V493.154Z" fill="#010F4B"/>
<path d="M1372.66 461.405H1357.53V486.384H1372.66V461.405Z" fill="#EFD0C0"/>
<path d="M1372.66 493.154H1357.53V502.224H1372.66V493.154Z" fill="#010F4B"/>
<path d="M1392.31 461.405H1377.17V486.384H1392.31V461.405Z" fill="#EFD0C0"/>
<path d="M1392.31 493.154H1377.17V502.224H1392.31V493.154Z" fill="#010F4B"/>
<path d="M1411.96 461.405H1396.82V486.384H1411.96V461.405Z" fill="#EFD0C0"/>
<path d="M1411.96 493.154H1396.82V502.224H1411.96V493.154Z" fill="#010F4B"/>
<path d="M1353.01 513.416H1337.88V538.395H1353.01V513.416Z" fill="#EFD0C0"/>
<path d="M1353.01 545.142H1337.88V554.213H1353.01V545.142Z" fill="#010F4B"/>
<path d="M1372.66 513.416H1357.53V538.395H1372.66V513.416Z" fill="#EFD0C0"/>
<path d="M1372.66 545.142H1357.53V554.213H1372.66V545.142Z" fill="#010F4B"/>
<path d="M1392.31 513.416H1377.17V538.395H1392.31V513.416Z" fill="#EFD0C0"/>
<path d="M1392.31 545.142H1377.17V554.213H1392.31V545.142Z" fill="#010F4B"/>
<path d="M1411.96 513.416H1396.82V538.395H1411.96V513.416Z" fill="#EFD0C0"/>
<path d="M1411.96 545.142H1396.82V554.213H1411.96V545.142Z" fill="#010F4B"/>
<path d="M1353.01 565.427H1337.88V590.406H1353.01V565.427Z" fill="#EFD0C0"/>
<path d="M1353.01 597.153H1337.88V606.224H1353.01V597.153Z" fill="#010F4B"/>
<path d="M1372.66 565.427H1357.53V590.406H1372.66V565.427Z" fill="#EFD0C0"/>
<path d="M1372.66 597.153H1357.53V606.224H1372.66V597.153Z" fill="#010F4B"/>
<path d="M1392.31 565.427H1377.17V590.406H1392.31V565.427Z" fill="#EFD0C0"/>
<path d="M1392.31 597.153H1377.17V606.224H1392.31V597.153Z" fill="#010F4B"/>
<path d="M1411.96 565.427H1396.82V590.406H1411.96V565.427Z" fill="#EFD0C0"/>
<path d="M1411.96 597.153H1396.82V606.224H1411.96V597.153Z" fill="#010F4B"/>
<path d="M1353.01 617.415H1337.88V642.394H1353.01V617.415Z" fill="#EFD0C0"/>
<path d="M1353.01 649.141H1337.88V658.212H1353.01V649.141Z" fill="#010F4B"/>
<path d="M1372.66 617.415H1357.53V642.394H1372.66V617.415Z" fill="#EFD0C0"/>
<path d="M1372.66 649.141H1357.53V658.212H1372.66V649.141Z" fill="#010F4B"/>
<path d="M1392.31 617.415H1377.17V642.394H1392.31V617.415Z" fill="#EFD0C0"/>
<path d="M1392.31 649.141H1377.17V658.212H1392.31V649.141Z" fill="#010F4B"/>
<path d="M1411.96 617.415H1396.82V642.394H1411.96V617.415Z" fill="#EFD0C0"/>
<path d="M1411.96 649.141H1396.82V658.212H1411.96V649.141Z" fill="#010F4B"/>
<path d="M1933.93 -85.961V678.858H1727.58L1729.14 303.004L1728.6 290.097L1740.01 245.645L1825.87 -88.9846L1933.93 -85.961Z" fill="#8098FC"/>
<mask id="mask0_109_1465" style="mask-type:luminance" maskUnits="userSpaceOnUse" x="1727" y="-89" width="207" height="768">
<path d="M1933.93 -85.961V678.858H1727.58L1729.14 303.004L1728.6 290.097L1740.01 245.645L1825.87 -88.9846L1933.93 -85.961Z" fill="white"/>
</mask>
<g mask="url(#mask0_109_1465)">
<path d="M2052 -111.572H1679.4V697H2052V-111.572Z" fill="#8098FC"/>
<path d="M1933.93 471.875H1748.85V486.52H1933.93V471.875Z" fill="#010F4B"/>
<path d="M1933.93 443.354H1748.85V457.998H1933.93V443.354Z" fill="#010F4B"/>
<path d="M1933.93 414.81H1748.85V429.454H1933.93V414.81Z" fill="#010F4B"/>
<path d="M1933.93 386.289H1748.85V400.933H1933.93V386.289Z" fill="#010F4B"/>
<path d="M1933.93 357.767H1748.85V372.412H1933.93V357.767Z" fill="#010F4B"/>
<path d="M1933.93 329.223H1748.85V343.868H1933.93V329.223Z" fill="#010F4B"/>
<path d="M1933.93 300.702H1748.85V315.346H1933.93V300.702Z" fill="#010F4B"/>
<path d="M1933.93 272.181H1748.85V286.825H1933.93V272.181Z" fill="#010F4B"/>
<path d="M1933.93 243.637H1748.85V258.281H1933.93V243.637Z" fill="#010F4B"/>
<path d="M1933.93 215.115H1748.85V229.76H1933.93V215.115Z" fill="#010F4B"/>
<path d="M1933.93 186.594H1748.85V201.238H1933.93V186.594Z" fill="#010F4B"/>
<path d="M1933.93 158.05H1748.85V172.694H1933.93V158.05Z" fill="#010F4B"/>
<path d="M1933.93 129.529H1748.85V144.173H1933.93V129.529Z" fill="#010F4B"/>
<path d="M1933.93 101.007H1748.85V115.652H1933.93V101.007Z" fill="#010F4B"/>
<path d="M1933.93 72.4634H1748.85V87.1077H1933.93V72.4634Z" fill="#010F4B"/>
<path d="M1933.93 43.9421H1748.85V58.5864H1933.93V43.9421Z" fill="#010F4B"/>
<path d="M1933.93 15.4207H1748.85V30.065H1933.93V15.4207Z" fill="#010F4B"/>
<path d="M1933.93 -13.1232H1748.85V1.52104H1933.93V-13.1232Z" fill="#010F4B"/>
</g>
<path d="M1933.36 -75.1301L1728.6 290.097L1733.33 271.707L1735.66 262.636L1739.31 248.375L1741.64 239.327L1745.29 225.066L1747.61 216.018L1751.27 201.757L1753.59 192.709L1757.25 178.448L1759.57 169.377L1763.22 155.139L1765.55 146.068L1769.22 131.83L1771.55 122.759L1775.2 108.499L1777.53 99.4504L1781.18 85.2123L1783.5 76.164L1787.16 61.9033L1789.48 52.855L1793.14 38.5943L1795.46 29.5234L1799.12 15.2853L1801.44 6.21445L1805.09 -8.02367L1807.44 -17.0945L1811.07 -31.3552L1813.39 -40.4035L1817.07 -54.6642L1819.4 -63.7125L1825.87 -88.9846L1933.36 -75.1301Z" fill="#8098FC"/>
<path d="M1801.44 6.21448L1799.11 15.2853H1870.74L1875.91 6.21448H1801.44Z" fill="#FFF2CE"/>
<path d="M1795.46 29.5234L1793.14 38.5943H1857.52L1862.66 29.5234H1795.46Z" fill="#FFF2CE"/>
<path d="M1789.48 52.855L1787.16 61.9033H1844.3L1849.42 52.855H1789.48Z" fill="#FFF2CE"/>
<path d="M1783.5 76.164L1781.18 85.2123H1831.06L1836.2 76.164H1783.5Z" fill="#FFF2CE"/>
<path d="M1777.53 99.4504L1775.2 108.499H1817.84L1822.98 99.4504H1777.53Z" fill="#FFF2CE"/>
<path d="M1771.55 122.759L1769.22 131.83H1804.6L1809.74 122.759H1771.55Z" fill="#FFF2CE"/>
<path d="M1765.55 146.068L1763.22 155.139H1791.38L1796.52 146.068H1765.55Z" fill="#FFF2CE"/>
<path d="M1759.57 169.377L1757.25 178.448H1778.14L1783.28 169.377H1759.57Z" fill="#FFF2CE"/>
<path d="M1753.59 192.709L1751.27 201.757H1764.92L1770.06 192.709H1753.59Z" fill="#FFF2CE"/>
<path d="M1747.61 216.018L1745.29 225.066H1751.7L1756.82 216.018H1747.61Z" fill="#FFF2CE"/>
<path d="M1741.64 239.327L1740.01 245.622L1743.6 239.327H1741.64Z" fill="#FFF2CE"/>
<path d="M1933.95 507.73H1728.3V678.836H1933.95V507.73Z" fill="#010F4B"/>
<path d="M1751.22 529.64H1743.6V651.036H1751.22V529.64Z" fill="#0323AF"/>
<path d="M1772.54 529.64H1764.92V651.036H1772.54V529.64Z" fill="#0323AF"/>
<path d="M1793.86 529.64H1786.23V651.036H1793.86V529.64Z" fill="#0323AF"/>
<path d="M1815.18 529.64H1807.55V651.036H1815.18V529.64Z" fill="#0323AF"/>
<path d="M1836.5 529.64H1828.87V651.036H1836.5V529.64Z" fill="#0323AF"/>
<path d="M1857.84 529.64H1850.21V651.036H1857.84V529.64Z" fill="#0323AF"/>
<path d="M1879.15 529.64H1871.53V651.036H1879.15V529.64Z" fill="#0323AF"/>
<path d="M1900.47 529.64H1892.85V651.036H1900.47V529.64Z" fill="#0323AF"/>
<path d="M1921.79 529.64H1914.17V651.036H1921.79V529.64Z" fill="#0323AF"/>
<path d="M165.785 539.32H31.515V678.858H165.785V539.32Z" fill="#0323AF"/>
<path d="M153.874 526.932H90.5967V539.32H153.874V526.932Z" fill="#0323AF"/>
<path d="M142.031 493.402H134.835V533.115H142.031V493.402Z" fill="#0323AF"/>
<path d="M116.314 517.027H110.403V533.115H116.314V517.027Z" fill="#0323AF"/>
<path d="M110.403 558.5H43.2682V678.836H110.403V558.5Z" fill="#DB936F"/>
<path d="M59.8489 567.413H49.9456V597.897H59.8489V567.413Z" fill="#FFCC8F"/>
<path d="M73.6775 567.413H63.7742V597.897H73.6775V567.413Z" fill="#FFCC8F"/>
<path d="M87.4835 567.413H77.5802V597.897H87.4835V567.413Z" fill="#FFCC8F"/>
<path d="M101.29 567.413H91.3862V597.897H101.29V567.413Z" fill="#FFCC8F"/>
<path d="M59.8489 603.426H49.9456V633.91H59.8489V603.426Z" fill="#FFCC8F"/>
<path d="M73.6775 603.426H63.7742V633.91H73.6775V603.426Z" fill="#FFCC8F"/>
<path d="M87.4835 603.426H77.5802V633.91H87.4835V603.426Z" fill="#FFCC8F"/>
<path d="M101.29 603.426H91.3862V633.91H101.29V603.426Z" fill="#FFCC8F"/>
<path d="M59.8489 639.438H49.9456V669.923H59.8489V639.438Z" fill="#FFCC8F"/>
<path d="M73.6775 639.438H63.7742V669.923H73.6775V639.438Z" fill="#FFCC8F"/>
<path d="M87.4835 639.438H77.5802V669.923H87.4835V639.438Z" fill="#FFCC8F"/>
<path d="M101.29 639.438H91.3862V669.923H101.29V639.438Z" fill="#FFCC8F"/>
<path d="M1214.86 610.037H1029.81V678.836H1214.86V610.037Z" fill="#0323AF"/>
<path d="M1180.82 595.551H1046.28V629.758H1180.82V595.551Z" fill="#0323AF"/>
<path d="M1096.86 615.949H1058.39V577.454L1096.86 589.075V615.949Z" fill="#0323AF"/>
<path d="M1214.86 610.037H1029.81V624.997H1214.86V610.037Z" fill="#DB936F"/>
<path d="M1807.55 565.427H1655.66V678.858H1807.55V565.427Z" fill="#0323AF"/>
<path d="M1735.07 577.905H1680.82V678.836H1735.07V577.905Z" fill="#DB936F"/>
<path d="M1725.33 582.937H1689.16V597.153H1725.33V582.937Z" fill="#0323AF"/>
<path d="M1725.33 605.434H1689.16V619.649H1725.33V605.434Z" fill="#0323AF"/>
<path d="M1725.33 627.93H1689.16V642.146H1725.33V627.93Z" fill="#0323AF"/>
<path d="M1792.21 554.213H1719.87V565.427H1792.21V554.213Z" fill="#0323AF"/>
</g>
<defs>
<clipPath id="clip0_109_1465">
<rect width="2047" height="953" fill="white" transform="translate(0 -260)"/>
</clipPath>
</defs>
</svg>
