<svg width="1920" height="713" viewBox="0 0 1920 713" fill="none" xmlns="http://www.w3.org/2000/svg">
<g clip-path="url(#clip0_81_102)">
<g opacity="0.3">
<g opacity="0.3">
<path d="M1912.68 278.796C1912.68 279.819 1912.14 280.718 1911.32 281.268H1913.74V278.162H1912.68V278.796Z" fill="#8199FD"/>
<path d="M38.249 182.077H40.8383V219.514H49.209V197.353H54.6V219.514H64.8613V237.263H90.9187V297.444H98.4057V261.346H122.141V173.723H38.249V182.077Z" fill="#8199FD"/>
<path d="M228.83 272.779H213.904V236.13H130.012V261.346H130.964V246.017H132.587V261.346H179.681V351.336L183.983 353.601V342.077H191.326V318.796H213.904V314.384H228.83V318.796H248.996V326.872L259.847 324.568V342.077H265.251V348.67H266.333V389.609H271.985V273.724H283.054V271.381L306.646 268.275V273.724H312.715V171.737L228.823 197.884V272.772L228.83 272.779ZM228.83 299.521H213.904V287.635H228.83V299.521Z" fill="#8199FD"/>
<path d="M24.5353 113.141H-21.6337V97.9159H-28.4495V113.141H-45.9855V130.274H-54.3767V245.001H-27.7028V266.27L-4.7416 261.346V355.231H-0.734352V237.263H25.323V219.514H29.5152V130.274H24.5353V113.141Z" fill="#8199FD"/>
<path d="M394.956 409.712H377.961V415.659H394.956V409.712Z" fill="#8199FD"/>
<path d="M503.659 278.162V281.268H506.083C505.261 280.718 504.727 279.819 504.727 278.796V278.162H503.659Z" fill="#8199FD"/>
<path d="M520.263 282.129H503.659V283.539H520.263V282.129Z" fill="#8199FD"/>
<path d="M519.194 278.796C519.194 279.819 518.66 280.718 517.838 281.268H520.263V278.162H519.194V278.796Z" fill="#8199FD"/>
<path d="M353.486 129.019H343.129V273.73H371.611V278.68H374.289V285.616H371.611V384.174H377.961V399.806H394.956V261.346H437.378V120.659H353.486V129.019Z" fill="#8199FD"/>
<path d="M666.428 343.507H658.996V347.784H666.428V343.507Z" fill="#8199FD"/>
<path d="M1543.21 236.13V213.245H1532.16V172.604H1520.84V156.35L1467.48 163.798V172.604H1456.43V173.73H1431.74V182.077H1434.33V219.514H1439.22V279.935H1413V249.401L1392.75 239.353V237.263H1418.8V219.514H1423V130.274H1418.02V113.141H1371.86V97.9159H1365.04V113.141H1347.5V130.274H1339.11V245.001H1353.54V305.105H1344.18V283.947H1337.62V278.059H1328.2V273.012H1324.51V278.059H1319.16V283.947H1309.32V305.105H1305.98L1310.45 405.752H1318.32V394.513H1332.45V387.021H1333.12V351.265L1388.75 335.639V355.238H1392.75V334.513L1441.78 320.738V371.09H1453.33V266.516H1475.88V247.777H1479.98V266.516H1483.02V241.19H1484.4V297.444H1491.89V266.516H1496.38V349.79H1511.55V261.352H1515.62V243.274H1523.49V236.137H1543.2L1543.21 236.13ZM1448.09 197.353V203.494H1442.7V197.353H1448.09Z" fill="#8199FD"/>
<path d="M1295.57 288.948H1300.63V291.647H1302.16V277.703L1295.57 280.919V288.948Z" fill="#8199FD"/>
<path d="M2022.53 234.571H1963.48V230.462H1972.39V225.513H1850.75V234.578H1839.01V261.352H1869.71V331.944H1875.73V347.603H1886.72V290.637H1893.04V283.546H1896.23V277.315H1898.21V276.583C1897.85 276.441 1897.61 276.111 1897.61 275.723C1897.61 275.335 1897.85 275.005 1898.21 274.862V267.971C1897.85 267.829 1897.61 267.499 1897.61 267.111C1897.61 266.723 1897.85 266.393 1898.21 266.25V264.574C1898.21 263.002 1899.48 261.708 1901.09 261.559C1901.28 260.543 1902.22 259.767 1903.35 259.767H1907.52C1908.65 259.767 1909.59 260.537 1909.78 261.559C1911.4 261.714 1912.66 263.002 1912.66 264.574V266.25C1913.02 266.393 1913.27 266.723 1913.27 267.111C1913.27 267.499 1913.02 267.829 1912.66 267.971V274.862C1913.02 275.005 1913.27 275.335 1913.27 275.723C1913.27 276.111 1913.02 276.441 1912.66 276.583V277.315H1914.64V283.546H1916.65V290.637H1966.49V374.707H1974.8V314.532L2022.52 326.16V315.335H2029.75V311.453H2030.46V311.161H2022.52V289.337H2024H2024.93H2025.72H2026.65H2027.32H2028.26H2028.84H2029.77V285.454H2030.48V285.163H2022.54V265.137H2024.02H2024.95H2025.74H2026.67H2027.35H2028.28H2028.86H2029.79V261.255H2030.5V260.964H2022.56V234.584L2022.53 234.571ZM2028.26 311.44H2028.84V313.271H2028.26V311.44ZM2026.66 311.44H2027.33V313.271H2026.66V311.44ZM2024.95 311.44H2025.74V313.271H2024.95V311.44ZM2024.02 311.44V313.271H2022.53V311.44H2024.02ZM2028.26 285.441H2028.84V287.273H2028.26V285.441ZM2026.66 285.441H2027.33V287.273H2026.66V285.441ZM2024.95 285.441H2025.74V287.273H2024.95V285.441ZM2024.02 285.441V287.273H2022.53V285.441H2024.02ZM2028.26 261.242H2028.84V263.073H2028.26V261.242ZM2026.66 261.242H2027.33V263.073H2026.66V261.242ZM2024.95 261.242H2025.74V263.073H2024.95V261.242ZM2024.02 261.242V263.073H2022.53V261.242H2024.02Z" fill="#8199FD"/>
<path d="M1291.38 288.948H1293.65V281.863L1291.38 282.976V288.948Z" fill="#8199FD"/>
<path d="M1913.75 282.129H1897.15V283.539H1913.75V282.129Z" fill="#8199FD"/>
<path d="M1622.31 272.779H1607.39V236.13H1543.21V243.267H1523.49V261.346H1524.45V246.017H1526.07V261.346H1573.16V351.336L1577.46 353.601V342.077H1584.81V318.796H1607.39V314.384H1622.31V318.796H1642.48V326.872L1653.33 324.568V342.077H1658.73V348.67H1659.82V389.609H1665.47V273.724H1676.54V271.381L1700.13 268.275V273.724H1706.2V171.737L1622.3 197.884V272.772L1622.31 272.779ZM1622.31 299.521H1607.39V287.635H1622.31V299.521Z" fill="#8199FD"/>
<path d="M1788.44 409.712H1771.45V415.659H1788.44V409.712Z" fill="#8199FD"/>
<path d="M1897.15 278.162V281.268H1899.57C1898.75 280.718 1898.22 279.819 1898.22 278.796V278.162H1897.15Z" fill="#8199FD"/>
<path d="M1253.08 285.739H1236V319.204L1259.97 308.56V354.41L1281.05 362.614L1284.73 291.647H1288.1V288.948H1290.56V283.377L1253.08 301.715V285.739Z" fill="#8199FD"/>
<path d="M808.168 164.639H797.222V130.592H787.242V83.034H782.618V130.592V154.293V164.639H774.103V193.93L765.582 191.711V215.367H752.197V276.473H761.856V281.837H768.671V292.552H777.59V380.395L783.392 383.035V372.469H781.138V367.952H783.474V247.441H797.489V222.284H806.49V215.108L815.471 213.853V204.71L808.168 202.808V164.639Z" fill="#8199FD"/>
<path d="M678.19 343.507H670.757V347.784H678.19V343.507Z" fill="#8199FD"/>
<path d="M689.958 343.507H682.526V347.784H689.958V343.507Z" fill="#8199FD"/>
<path d="M1746.97 129.019H1736.62V273.73H1765.09V278.68H1767.78V285.616H1765.09V384.174H1771.45V399.806H1788.44V261.346H1830.87V120.659H1746.97V129.019Z" fill="#8199FD"/>
<path d="M629.041 234.571H569.994V230.462H578.906V225.513H457.264V234.578H445.523V261.352H476.224V331.944H482.245V347.603H493.233V290.637H499.549V283.546H502.741V277.315H504.72V276.583C504.364 276.441 504.118 276.111 504.118 275.723C504.118 275.335 504.364 275.005 504.72 274.862V267.971C504.364 267.829 504.118 267.499 504.118 267.111C504.118 266.723 504.364 266.393 504.72 266.25V264.574C504.72 263.002 505.988 261.708 507.604 261.559C507.796 260.543 508.734 259.767 509.865 259.767H514.029C515.16 259.767 516.098 260.537 516.29 261.559C517.913 261.714 519.174 263.002 519.174 264.574V266.25C519.53 266.393 519.777 266.723 519.777 267.111C519.777 267.499 519.53 267.829 519.174 267.971V274.862C519.53 275.005 519.777 275.335 519.777 275.723C519.777 276.111 519.53 276.441 519.174 276.583V277.315H521.153V283.546H523.161V290.637H573.001V374.707H581.31V314.532L629.027 326.16V315.335H636.261V311.453H636.973V311.161H629.027V289.337H630.514H631.445H632.233H633.165H633.836H634.768H635.35H636.281V285.454H636.994V285.163H629.048V265.137H630.534H631.466H632.254H633.185H633.857H634.788H635.37H636.302V261.255H637.014V260.964H629.068V234.584L629.041 234.571ZM634.768 311.44H635.35V313.271H634.768V311.44ZM633.172 311.44H633.843V313.271H633.172V311.44ZM631.459 311.44H632.247V313.271H631.459V311.44ZM630.527 311.44V313.271H629.041V311.44H630.527ZM634.768 285.441H635.35V287.273H634.768V285.441ZM633.172 285.441H633.843V287.273H633.172V285.441ZM631.459 285.441H632.247V287.273H631.459V285.441ZM630.527 285.441V287.273H629.041V285.441H630.527ZM634.768 261.242H635.35V263.073H634.768V261.242ZM633.172 261.242H633.843V263.073H633.172V261.242ZM631.459 261.242H632.247V263.073H631.459V261.242ZM630.527 261.242V263.073H629.041V261.242H630.527Z" fill="#8199FD"/>
<path d="M713.015 192.682V175.205H689.424V192.682H657.962V226.224V339.411H696.315V292.552H703.658V281.837H728.297V276.473H741.854V226.224H713.015V192.682Z" fill="#8199FD"/>
<path d="M1028.36 102.445L1020.23 100.329V57.8382H1008.04V19.9409H996.934V-33H991.79V19.9409V46.3208V57.8382H982.309V90.4426L972.829 87.9709V114.305H957.93V256.829H970.287V290.404H978.59V262.051H981.857V290.404H985.905V250.223H987.81V290.404H1002.52V184.121H1019.73V153.238H1030.78V144.432L1036.49 143.636V114.305H1028.36V102.445Z" fill="#8199FD"/>
<path d="M1183.37 157.923H1123.91V171.614H1113.81V233.452H1106.51V299.547H1095.46V317.237L1138.54 327.525V324.439H1148.18V225.868L1197.87 245.215V171.614H1183.37V157.923Z" fill="#8199FD"/>
<path d="M696.315 343.507H694.287V347.784H696.315V343.507Z" fill="#8199FD"/>
</g>
<mask id="mask0_81_102" style="mask-type:alpha" maskUnits="userSpaceOnUse" x="2" y="-2" width="1919" height="561">
<rect x="2" y="-2" width="1919" height="561" fill="#D9D9D9"/>
</mask>
<g mask="url(#mask0_81_102)">
<g opacity="0.6">
<path d="M523.174 283.539H521.167V277.308H519.187V276.577C519.544 276.435 519.79 276.105 519.79 275.716C519.79 275.328 519.544 274.998 519.187 274.856V267.965C519.544 267.823 519.79 267.493 519.79 267.104C519.79 266.716 519.544 266.386 519.187 266.244V264.568C519.187 262.996 517.92 261.702 516.304 261.553C516.112 260.537 515.173 259.76 514.043 259.76H509.878C508.748 259.76 507.81 260.53 507.618 261.553C505.994 261.708 504.734 262.996 504.734 264.568V266.244C504.378 266.386 504.131 266.716 504.131 267.104C504.131 267.493 504.378 267.823 504.734 267.965V274.856C504.378 274.998 504.131 275.328 504.131 275.716C504.131 276.105 504.378 276.435 504.734 276.577V277.308H502.754V283.539H499.562V290.631H493.247V347.596H482.259V374.131L488.808 376.752V419.269H491.794V401.288H505.426V419.269H508.186V371.627H511.331V384.258H515.523V419.269H542.683V448.612H543.656V385.927H540.902V379.735H551.52V374.694H573.022V290.624H523.181V283.533L523.174 283.539ZM503.659 278.162H504.727V278.796C504.727 279.819 505.261 280.718 506.083 281.268H503.659V278.162ZM520.263 283.539H503.659V282.129H520.263V283.539ZM520.263 281.268H517.838C518.66 280.718 519.194 279.819 519.194 278.796V278.162H520.263V281.268Z" fill="#8199FD"/>
<path d="M631.13 343.507H623.698V347.784H631.13V343.507Z" fill="#8199FD"/>
<path d="M701.719 343.507H696.315V347.784H701.719V343.507Z" fill="#8199FD"/>
<path d="M715.824 398.143H708.994V408.709H715.824V398.143Z" fill="#8199FD"/>
<path d="M727.421 398.143H724.215V408.709H727.421V398.143Z" fill="#8199FD"/>
<path d="M581.331 314.526V374.701H595.031V379.735H603.032V385.927H600.278V448.612H604.655V408.709V347.79H607.6V343.507H605.278V339.411H646.344V330.366L629.041 326.147L581.331 314.526Z" fill="#8199FD"/>
<path d="M437.378 261.346H394.956V399.806H400.607V394.856H411.095V415.659V448.612H416.438V347.79L438.727 356.713V331.938V322.051H452.886V331.938H476.224V261.346H445.529H437.378Z" fill="#8199FD"/>
<path d="M642.898 343.507H635.466V347.784H642.898V343.507Z" fill="#8199FD"/>
<path d="M619.369 343.507H611.936V347.784H619.369V343.507Z" fill="#8199FD"/>
<path d="M64.8612 219.514H54.5999V197.353H49.209V219.514H40.8383V182.077H38.249H35.4473V219.514H29.5152H25.323V237.263H-0.734375V355.231H16.74V362.854H27.3712V374.287H43.8797V448.612H48.1678V395.723H78.9448V297.444H90.9186V237.263H64.8612V219.514Z" fill="#8199FD"/>
<path d="M400.607 409.712H394.956V415.659H400.607V409.712Z" fill="#8199FD"/>
<path d="M742.189 398.143H735.812V408.709H742.189V398.143Z" fill="#8199FD"/>
<path d="M265.251 342.077H259.847V348.67H265.251V342.077Z" fill="#8199FD"/>
<path d="M98.4057 261.346V297.444H105.461V285.461H103.845V280.207H105.461H124.737V261.346H122.141H98.4057Z" fill="#8199FD"/>
<path d="M371.611 285.616H374.289V278.68H371.611V273.73H343.129H312.722H306.653V268.282L283.061 271.388V273.73H271.985V389.615H298.583V448.612H302.275V358.939L339.498 369.182V394.856H346.081V399.806H377.961V384.174H371.611V285.616Z" fill="#8199FD"/>
<path d="M377.968 409.712H346.081V415.659H377.968V409.712Z" fill="#8199FD"/>
<path d="M127.518 261.346V280.207H130.964V261.346H130.005H127.518Z" fill="#8199FD"/>
<path d="M213.897 318.796H191.319V342.077H183.983V353.601L192.984 358.331V448.612H203.416V348.67H212.657V334.597L248.996 326.872V318.796H228.83H213.897Z" fill="#8199FD"/>
<path d="M132.58 280.207H149.472H151.089V285.461H149.472V297.444H155.37V338.564L179.674 351.336V261.346H132.58V280.207Z" fill="#8199FD"/>
<path d="M1658.74 342.077H1653.34V348.67H1658.74V342.077Z" fill="#8199FD"/>
<path d="M768.671 281.837H761.856V276.473H752.197H741.854H728.297V281.837H703.658V292.552H696.315V339.411H708.378V343.507H706.055V347.79H708.994V390.217H742.189V364.29L777.59 380.395V292.552H768.671V281.837Z" fill="#8199FD"/>
<path d="M1616.25 266.509H1595.61V243.267H1511.55V261.346H1491.89V266.509H1490.41V241.184H1484.4V237.263H1458.34V219.514H1448.09V197.353H1442.7V219.514H1434.33V182.077H1428.94V219.514H1418.81V237.263H1392.75V334.507L1388.75 335.632V261.346L1365.79 266.27V245.001H1324.37V275.147L1307.49 278.764V308.89H1306.16L1305.99 305.105L1305.39 291.647H1300.64V288.948H1295.59V265.914C1297.44 265.5 1298.82 263.934 1298.82 262.057C1298.82 259.864 1296.94 258.091 1294.62 258.091C1292.3 258.091 1290.42 259.864 1290.42 262.057C1290.42 263.934 1291.81 265.506 1293.66 265.914V288.948H1291.39V276.616H1290.56V288.948H1288.11V291.647H1284.74L1283.85 308.897H1280.97V374.287H1281.5V362.854H1281.67L1283.98 363.753V423.475H1309.68V405.759H1310.47L1308.22 355.238H1311.62V345.196H1315.05V343.934C1314.44 343.688 1314.01 343.119 1314.01 342.452C1314.01 341.786 1314.44 341.21 1315.05 340.971V329.052C1314.44 328.806 1314.01 328.237 1314.01 327.57C1314.01 326.904 1314.44 326.328 1315.05 326.089V323.19C1315.05 320.472 1317.24 318.24 1320.04 317.975C1320.37 316.215 1322 314.882 1323.95 314.882H1331.15C1333.11 314.882 1334.73 316.221 1335.06 317.975C1337.87 318.24 1340.06 320.472 1340.06 323.19V326.089C1340.67 326.335 1341.1 326.904 1341.1 327.57C1341.1 328.237 1340.67 328.813 1340.06 329.052V340.971C1340.67 341.216 1341.1 341.786 1341.1 342.452C1341.1 343.119 1340.67 343.695 1340.06 343.934V345.196H1343.48V348.36L1341.91 348.8V346.677H1340.06V347.771C1340.06 348.34 1339.95 348.884 1339.78 349.402L1333.14 351.265V353.536H1313.21V355.238H1333.14V387.021H1419.56V394.513H1427.92V405.752H1437.38V448.612H1440.9V450.489H1447.92V395.723H1467.19L1480.35 401.268V450.489H1488.92V349.783H1496.4V297.438H1498.96V285.454H1497.34V280.207H1511.56V349.783H1534.02V382.705H1548.46V297.438H1548.87V338.564L1573.17 351.336V287.81H1616.26V266.509H1616.25ZM1377.84 329.039V338.693L1349.41 346.677V345.183H1352.83V343.921C1352.22 343.675 1351.79 343.106 1351.79 342.439C1351.79 341.773 1352.22 341.197 1352.83 340.958V329.039C1352.22 328.793 1351.79 328.224 1351.79 327.557C1351.79 326.891 1352.22 326.315 1352.83 326.076V323.177C1352.83 320.459 1355.02 318.227 1357.83 317.962C1358.16 316.202 1359.79 314.869 1361.74 314.869H1368.94C1370.9 314.869 1372.52 316.208 1372.85 317.962C1375.65 318.227 1377.84 320.459 1377.84 323.177V326.076C1378.45 326.322 1378.88 326.891 1378.88 327.557C1378.88 328.224 1378.45 328.8 1377.84 329.039Z" fill="#8199FD"/>
<path d="M1313.18 346.677V352.041H1317.38C1315.96 351.09 1315.03 349.531 1315.03 347.765V346.671H1313.18V346.677Z" fill="#8199FD"/>
<path d="M1148.17 225.868V324.439H1162.24V331.556H1168.57V388.722H1210.99V393.769H1208.48V406.037H1225.11V340.835V324.031L1236 319.204V285.739V260.058L1197.86 245.215L1148.17 225.868Z" fill="#8199FD"/>
<path d="M1607.39 318.796H1584.81V342.077H1577.46V353.601L1586.47 358.331V448.612H1596.9V348.67H1606.15V334.597L1642.48 326.872V318.796H1622.31H1607.39Z" fill="#8199FD"/>
<path d="M1095.46 299.547H1106.51V233.452V193.879H1095.46V153.238H1084.13V136.978L1036.49 143.636L1030.78 144.432V153.238H1019.73V184.121H1002.52V290.404H1007.65H1009.56V296.577H1007.65V310.657H1014.59V421.534H1030.35V392.786L1075.99 375.011V438.965H1088.52V331.556H1138.54V327.525L1095.46 317.237V299.547Z" fill="#8199FD"/>
<path d="M859.167 222.284H849.947V209.039L815.471 213.853L806.49 215.108V222.284H797.489V247.441H783.474V367.952H819.156V316.7H824.841V310.32H846.09V316.7H868.168V255.386H859.167V222.284Z" fill="#8199FD"/>
<path d="M929.283 256.829V247.357H886.231V256.829V316.7H890.93V386.969L906.74 380.809V358.784H924.776V310.657H955.937V296.577H954.032V290.404H955.937H970.287V256.829H957.93H929.283Z" fill="#8199FD"/>
<path d="M1794.09 409.712H1788.44V415.659H1794.09V409.712Z" fill="#8199FD"/>
<path d="M1771.45 409.712H1739.56V415.659H1771.45V409.712Z" fill="#8199FD"/>
<path d="M1916.66 283.539H1914.66V277.308H1912.68V276.577C1913.03 276.435 1913.28 276.105 1913.28 275.716C1913.28 275.328 1913.03 274.998 1912.68 274.856V267.965C1913.03 267.823 1913.28 267.493 1913.28 267.104C1913.28 266.716 1913.03 266.386 1912.68 266.244V264.568C1912.68 262.996 1911.41 261.702 1909.79 261.553C1909.6 260.537 1908.66 259.76 1907.53 259.76H1903.37C1902.24 259.76 1901.3 260.53 1901.11 261.553C1899.48 261.708 1898.22 262.996 1898.22 264.568V266.244C1897.87 266.386 1897.62 266.716 1897.62 267.104C1897.62 267.493 1897.87 267.823 1898.22 267.965V274.856C1897.87 274.998 1897.62 275.328 1897.62 275.716C1897.62 276.105 1897.87 276.435 1898.22 276.577V277.308H1896.24V283.539H1893.05V290.631H1886.74V347.596H1875.75V374.131L1882.3 376.752V419.269H1885.28V401.288H1898.91V419.269H1901.68V371.627H1904.82V384.258H1909.01V419.269H1936.17V448.612H1937.14V385.927H1934.39V379.735H1945.01V374.694H1966.51V290.624H1916.67V283.533L1916.66 283.539ZM1897.15 278.162H1898.22V278.796C1898.22 279.819 1898.75 280.718 1899.57 281.268H1897.15V278.162ZM1913.75 283.539H1897.15V282.129H1913.75V283.539ZM1913.75 281.268H1911.33C1912.15 280.718 1912.68 279.819 1912.68 278.796V278.162H1913.75V281.268Z" fill="#8199FD"/>
<path d="M1830.87 261.346H1788.44V399.806H1794.1V394.856H1804.58V415.659V448.612H1809.93V347.79L1832.22 356.713V331.938V322.051H1846.37V331.938H1869.71V261.346H1839.01H1830.87Z" fill="#8199FD"/>
<path d="M1765.09 285.616H1767.78V278.68H1765.09V273.73H1736.62H1706.21H1700.14V268.282L1676.54 271.388V273.73H1665.47V389.615H1692.07V448.612H1695.76V358.939L1732.99 369.182V394.856H1739.56V399.806H1771.45V384.174H1765.09V285.616Z" fill="#8199FD"/>
</g>
</g>
<path d="M3009.74 287.816H2941.94V382.711H2927.5V349.79H2882.39V450.495H2873.81V401.275L2841.39 387.603V450.495H2834.36V405.759H2821.39V394.52H2813.03V387.027H2725.94V394.52H2711.8V405.759H2703.15V423.475H2677.45V363.753L2674.54 362.621L2653.46 354.41V308.56L2629.49 319.204L2618.61 324.031V406.037H2601.96V393.763H2604.48V388.722H2562.07V331.556H2555.73V324.439H2532.03V331.556H2482.01V438.959H2469.49V375.011L2423.84 392.786V421.534H2408.09V310.657H2401.15V296.577H2403.05V290.404H2381.31V250.223H2379.4V290.404H2375.35V262.051H2372.09V290.404H2347.53V296.577H2349.43V310.657H2318.27V358.79H2300.24V380.815L2284.42 386.975V316.713H2239.58V310.333H2218.33V316.713H2212.65V367.959H2174.63V372.482H2176.88V383.048L2171.08 380.408L2135.68 364.296V390.223H2102.48V347.797H2099.54V343.52H2101.86V339.424H1998.76V343.52H2001.08V347.797H1998.14V448.625H1993.76V385.94H1996.51V379.748H1988.52V374.707H1945V379.748H1934.38V385.94H1937.14V448.625H1936.17V419.282H1909V384.271H1904.81V371.64H1901.67V419.282H1898.91V401.301H1885.28V419.282H1882.29V376.765L1875.74 374.144V331.951H1846.38V322.064H1832.22V356.726L1809.93 347.803V448.632H1804.59V394.876H1794.1V399.825H1739.57V394.876H1732.99V369.201L1695.76 358.958V448.632H1692.07V389.628H1659.82V348.69H1653.34V324.588L1642.49 326.891L1632.52 329.007V287.829H1548.46V297.457H1542.96V285.474H1544.58V280.226H1526.08V246.037H1524.45V280.226H1521.01V256.098H1518.23V280.226H1497.33V285.474H1498.95V297.457H1472.43V395.736H1467.17L1447.9 387.609V395.736H1441.65V448.625H1440.88V405.765H1437.36V374.3H1420.86V362.866H1410.22V355.244H1381.26V345.202H1377.84V343.941C1378.44 343.695 1378.88 343.125 1378.88 342.459C1378.88 341.792 1378.44 341.216 1377.84 340.977V329.059C1378.44 328.813 1378.88 328.243 1378.88 327.577C1378.88 326.91 1378.44 326.335 1377.84 326.095V323.196C1377.84 320.479 1375.64 318.246 1372.84 317.981C1372.51 316.221 1370.88 314.888 1368.93 314.888H1361.73C1359.77 314.888 1358.15 316.228 1357.82 317.981C1355.02 318.246 1352.83 320.479 1352.83 323.196V326.095C1352.22 326.341 1351.78 326.91 1351.78 327.577C1351.78 328.243 1352.22 328.819 1352.83 329.059V340.977C1352.22 341.223 1351.78 341.792 1351.78 342.459C1351.78 343.125 1352.22 343.701 1352.83 343.941V345.202H1349.4V355.244H1343.46V345.202H1340.03V343.941C1340.64 343.695 1341.07 343.125 1341.07 342.459C1341.07 341.792 1340.64 341.216 1340.03 340.977V329.059C1340.64 328.813 1341.07 328.243 1341.07 327.577C1341.07 326.91 1340.64 326.335 1340.03 326.095V323.196C1340.03 320.479 1337.84 318.246 1335.04 317.981C1334.71 316.221 1333.08 314.888 1331.13 314.888H1323.93C1321.97 314.888 1320.34 316.228 1320.01 317.981C1317.21 318.246 1315.02 320.479 1315.02 323.196V326.095C1314.41 326.341 1313.98 326.91 1313.98 327.577C1313.98 328.243 1314.41 328.819 1315.02 329.059V340.977C1314.41 341.223 1313.98 341.792 1313.98 342.459C1313.98 343.125 1314.41 343.701 1315.02 343.941V345.202H1311.6V355.244H1299.44V362.866H1281.65L1281.04 362.627L1259.96 354.416V308.567L1235.99 319.211L1225.11 324.038V406.044H1208.46V393.769H1210.98V388.729H1168.57V331.563H1162.23V324.445H1138.52V331.563H1088.51V438.965H1075.98V375.018L1030.33 392.792V421.54H1014.58V310.663H1007.64V296.584H1009.54V290.411H987.796V250.229H985.892V290.411H981.844V262.057H978.576V290.411H954.019V296.584H955.923V310.663H924.756V358.797H906.726V380.822L890.91 386.982V316.719H846.07V310.34H824.821V316.719H819.135V367.965H781.118V372.488H783.372V383.054L777.57 380.414L742.176 364.303V390.23H708.981V347.803H706.035V343.526H708.357V339.431H605.258V343.526H607.58V347.803H604.635V448.632H600.257V385.946H603.011V379.754H595.017V374.714H551.499V379.754H540.882V385.946H543.635V448.632H542.663V419.288H515.502V384.277H511.31V371.647H508.166V419.288H505.405V401.307H491.774V419.288H488.787V376.771L482.239 374.151V331.957H452.88V322.071H438.721V356.733L416.431 347.81V448.638H411.088V394.882H400.6V399.832H346.068V394.882H339.485V369.207L302.255 358.965V448.638H298.57V389.635H266.32V348.696H259.833V324.594L248.982 326.897L212.643 334.617V348.69H203.403V448.632H192.97V358.35L183.962 353.62L179.66 351.356L155.357 338.583V297.457H149.452V285.474H151.075V280.226H132.567V246.037H130.943V280.226H127.498V256.098H124.717V280.226H103.817V285.474H105.441V297.457H78.9175V395.736H48.1404V448.625H43.8523V374.3H27.3507V362.866H16.7126V355.244H-12.2492V345.202H-15.6742V343.941C-15.0645 343.695 -14.633 343.125 -14.633 342.459C-14.633 341.792 -15.0645 341.216 -15.6742 340.977V329.059C-15.0645 328.813 -14.633 328.243 -14.633 327.577C-14.633 326.91 -15.0645 326.335 -15.6742 326.095V323.196C-15.6742 320.479 -17.8662 318.246 -20.6678 317.981C-20.9966 316.221 -22.6269 314.888 -24.5792 314.888H-31.7785C-33.7376 314.888 -35.3611 316.228 -35.6899 317.981C-38.4915 318.246 -40.6835 320.479 -40.6835 323.196V326.095C-41.2932 326.341 -41.7247 326.91 -41.7247 327.577C-41.7247 328.243 -41.2932 328.819 -40.6835 329.059V340.977C-41.2932 341.223 -41.7247 341.792 -41.7247 342.459C-41.7247 343.125 -41.2932 343.701 -40.6835 343.941V345.202H-44.1085V355.244H-50.0543V345.202H-53.4793V343.941C-52.8697 343.695 -52.4381 343.125 -52.4381 342.459C-52.4381 341.792 -52.8697 341.216 -53.4793 340.977V329.059C-52.8697 328.813 -52.4381 328.243 -52.4381 327.577C-52.4381 326.91 -52.8697 326.335 -53.4793 326.095V323.196C-53.4793 320.479 -55.6713 318.246 -58.473 317.981C-58.8018 316.221 -60.4321 314.888 -62.3843 314.888H-69.5837C-71.5428 314.888 -73.1662 316.228 -73.495 317.981C-76.2967 318.246 -78.4887 320.479 -78.4887 323.196V326.095C-79.0983 326.341 -79.5299 326.91 -79.5299 327.577C-79.5299 328.243 -79.0983 328.819 -78.4887 329.059V340.977C-79.0983 341.223 -79.5299 341.792 -79.5299 342.459C-79.5299 343.125 -79.0983 343.701 -78.4887 343.941V345.202H-81.9137V355.244H-94.0656V362.866H-112.04V374.3H-123V713.013H2710.72V712.955H3026V287.816H3009.74ZM-80.3039 346.677H-78.4544V347.771C-78.4544 349.537 -77.5297 351.097 -76.1117 352.048H-80.3039V346.684V346.677ZM-51.5956 355.238H-80.3039V353.536H-51.5956V355.238ZM-51.5956 352.048H-55.7878C-54.3698 351.097 -53.4451 349.537 -53.4451 347.771V346.677H-51.5956V352.041V352.048ZM-42.4988 346.684H-40.6493V347.777C-40.6493 349.544 -39.7245 351.103 -38.3066 352.054H-42.4988V346.69V346.684ZM-13.7904 355.244H-42.4988V353.543H-13.7904V355.244ZM-13.7904 352.054H-17.9826C-16.5647 351.103 -15.6399 349.544 -15.6399 347.777V346.684H-13.7904V352.048V352.054ZM400.614 415.672H346.081V409.725H400.614V415.672ZM619.369 347.803H611.937V343.526H619.369V347.803ZM631.13 347.803H623.698V343.526H631.13V347.803ZM642.892 347.803H635.46V343.526H642.892V347.803ZM654.653 347.803H647.221V343.526H654.653V347.803ZM666.415 347.803H658.982V343.526H666.415V347.803ZM678.176 347.803H670.744V343.526H678.176V347.803ZM689.938 347.803H682.505V343.526H689.938V347.803ZM701.699 347.803H694.267V343.526H701.699V347.803ZM715.81 408.722H708.981V398.156H715.81V408.722ZM727.407 408.722H724.201V398.156H727.407V408.722ZM742.176 408.722H735.798V398.156H742.176V408.722ZM1377.83 347.784V346.69H1379.68V352.054H1375.49C1376.9 351.103 1377.83 349.544 1377.83 347.777V347.784ZM1350.97 346.69H1352.82V347.784C1352.82 349.55 1353.74 351.11 1355.16 352.061H1350.97V346.697V346.69ZM1350.97 353.543H1379.68V355.244H1350.97V353.543ZM1340.03 347.784V346.69H1341.88V352.054H1337.69C1339.11 351.103 1340.03 349.544 1340.03 347.777V347.784ZM1313.17 346.69H1315.02V347.784C1315.02 349.55 1315.95 351.11 1317.36 352.061H1313.17V346.697V346.69ZM1313.17 353.543H1341.88V355.244H1313.17V353.543ZM1794.08 415.672H1739.55V409.725H1794.08V415.672ZM2012.84 347.803H2005.41V343.526H2012.84V347.803ZM2024.6 347.803H2017.17V343.526H2024.6V347.803ZM2036.36 347.803H2028.93V343.526H2036.36V347.803ZM2048.12 347.803H2040.69V343.526H2048.12V347.803ZM2059.88 347.803H2052.45V343.526H2059.88V347.803ZM2071.64 347.803H2064.21V343.526H2071.64V347.803ZM2083.41 347.803H2075.97V343.526H2083.41V347.803ZM2095.17 347.803H2087.74V343.526H2095.17V347.803ZM2109.28 408.722H2102.45V398.156H2109.28V408.722ZM2120.88 408.722H2117.67V398.156H2120.88V408.722ZM2135.64 408.722H2129.27V398.156H2135.64V408.722Z" fill="#8199FD"/>
</g>
<g opacity="0.8">
<path d="M386 132H103C103 132 160.132 104.301 184.215 110.149C195.745 65.4928 248.273 59.2452 259.674 95.6226C272.045 71.4018 275.518 114.211 275.518 114.211L386 132Z" fill="#FFF9E5"/>
<path d="M598.132 245H885C885 245 854.81 229.993 832.618 237.487C824.457 220.835 784.634 238.456 784.634 238.456C784.634 238.456 750.191 206.723 704.878 217.307C675.361 180.274 594.552 200.362 598.114 245H598.132Z" fill="#FFF9E5"/>
<path d="M1807 97H1416C1416 97 1525.77 68.1522 1579.19 82.5761C1603.7 56.0531 1647.13 87.7757 1647.13 87.7757C1647.13 87.7757 1673.11 48.7036 1807 97Z" fill="#FFF9E5"/>
</g>
</g>
<defs>
<clipPath id="clip0_81_102">
<rect width="3149" height="746" fill="white" transform="translate(-123 -33)"/>
</clipPath>
</defs>
</svg>
