<svg width="1780" height="159" viewBox="0 0 1780 159" fill="none" xmlns="http://www.w3.org/2000/svg">
<g clip-path="url(#clip0_109_3866)">
<path d="M254.488 81.0952C254.394 81.0952 254.281 81.0952 254.156 81.0952H254.169C254.275 81.0952 254.382 81.0892 254.488 81.0892V81.0952Z" fill="#496AF6"/>
<path d="M314.881 155.798C313.78 142.821 306.497 131.22 295.891 123.263C300.984 114.929 301.403 104.191 296.56 95.5666C293.713 90.4986 288.839 86.0213 283.339 83.5582C279.848 81.9988 276.475 81.1128 272.64 80.7347C269.505 80.4276 266.364 80.6757 263.235 80.9238C261.796 81.036 260.357 81.1541 258.912 81.2132C257.447 81.2723 255.952 81.0773 254.494 81.0951C255.301 81.0951 254.951 81.2604 254.438 81.1541C254.35 81.1364 254.263 81.1187 254.169 81.101C254.094 81.101 254.019 81.101 253.95 81.1069C254.025 81.1069 254.094 81.101 254.156 81.101C253.931 81.0596 253.706 81.0183 253.487 80.9651C253.093 80.8765 252.698 80.7702 252.31 80.652C252.235 80.6284 252.154 80.6048 252.079 80.5812C251.341 80.3213 251.459 80.3862 252.429 80.7643C252.029 80.8352 251.103 80.1323 250.746 79.9255C250.452 79.7542 250.177 79.5652 249.895 79.388C249.858 79.3585 249.814 79.3289 249.776 79.2935C247.561 77.4978 245.715 75.3537 243.732 73.3454C241.379 70.965 238.783 68.8799 236.017 66.9365C230.68 63.1857 224.147 60.7226 217.458 60.5041C210.895 60.2914 204.488 62.471 199.488 66.4404C194.608 70.3211 192.818 76.0979 191.36 81.7153C191.091 82.749 190.822 83.7767 190.509 84.7986C189.627 83.6527 188.764 82.495 187.913 81.3313C185.391 77.87 182.976 74.3318 180.41 70.8941C175.104 63.7823 169.06 56.6824 160.769 52.524C151.265 47.7573 140.083 47.2198 130.072 50.9765C119.385 54.9812 110.907 62.1048 104.7 71.1835C102.816 73.9361 101.158 76.8127 99.669 79.7719C99.3249 77.2852 98.9745 74.7984 98.6303 72.3117C97.8357 66.588 97.1599 60.8408 96.2276 55.1348C95.4893 50.6398 93.5746 46.0975 89.6765 43.2563C84.408 39.411 77.2499 40.7223 72.8199 45.0874C69.147 48.7024 66.8819 53.5932 64.6544 58.0764C59.9491 67.5508 56.2199 77.4506 53.7108 87.6516C52.7597 91.5146 51.9776 95.4249 51.3519 99.3529C50.1067 97.3564 48.799 95.3953 47.4099 93.4815C44.2 89.0515 40.6585 84.8459 36.9731 80.7643C33.4692 76.8835 29.2331 72.9851 23.633 72.2763C17.6951 71.5261 12.3891 74.4027 9.23549 79.0927C5.99433 83.9126 6.04438 89.9729 7.69625 95.2949C10.5808 104.563 16.7064 113.187 23.5955 120.227C24.4715 121.119 25.3725 121.993 26.2923 122.844C20.5233 126.813 16.4436 133.346 15.2611 139.82C14.504 143.967 14.529 148.208 15.4738 152.212C11.1627 154.174 7.71502 157.523 4.98694 161.167C-0.932256 169.053 -0.951027 179.602 1.69572 188.586C3.04099 193.158 5.09957 197.576 7.30206 201.835C9.31684 205.74 11.7008 209.343 14.6604 212.68C20.9175 219.727 30.8412 223.348 40.4896 222.237C46.3712 221.564 51.8274 219.957 57.0708 217.305C59.1482 216.254 61.0941 214.995 63.1277 213.879C63.6408 213.596 64.1601 213.324 64.6857 213.064C64.7796 213.017 65.0048 212.916 65.2426 212.81C65.5679 212.71 66.1937 212.491 66.3939 212.438C66.5315 212.402 66.6692 212.367 66.8131 212.337C67.0384 212.337 67.2574 212.337 67.4764 212.337C67.5327 212.574 67.5765 212.804 67.6265 213.04C67.8393 214.109 67.9894 215.196 68.3586 216.23C69.8728 220.471 72.9826 223.348 77.4189 224.872C80.1532 225.811 83.2755 225.87 86.16 225.982C97.7168 226.437 109.18 224.771 120.374 222.166C120.662 222.101 120.949 222.03 121.231 221.96C121.963 224.499 123.302 226.904 125.167 228.989C126.237 230.182 127.576 231.156 128.921 232.054C129.084 232.161 129.24 232.273 129.409 232.367C129.465 232.403 129.522 232.432 129.578 232.468C128.17 231.393 128.089 231.322 129.346 232.249C130.097 232.798 130.779 233.212 131.63 233.584C134.865 234.99 137.868 235.705 141.435 235.947C147.411 236.348 153.668 234.145 158.517 230.961C161.489 229.012 164.192 226.738 166.695 224.275C168.378 222.621 169.949 220.861 171.763 219.337C171.963 219.213 172.163 219.101 172.364 218.988C175.761 219.756 179.009 221.339 182.306 222.379C185.91 223.513 189.583 224.458 193.3 225.214C201.415 226.856 209.787 227.748 218.09 227.701C226.006 227.654 234.19 226.939 241.78 224.742C242.875 224.429 243.945 224.08 244.996 223.702C245.978 224.251 246.979 224.759 247.993 225.238C253.48 227.807 259.343 230.046 265.438 230.82C268.954 231.263 272.683 231.245 276.037 230.022C277.702 229.414 279.335 228.776 280.768 227.76C282.72 226.372 284.171 225.067 285.542 223.123C288.426 219.036 288.564 213.477 285.729 209.431C288.201 209.473 290.954 208.9 293.006 207.594C295.578 205.964 297.461 203.714 298.312 200.878C299.032 198.492 298.794 196.265 298.388 193.867C298.206 192.816 297.881 191.782 297.486 190.766C303.005 187.021 307.748 182.284 310.645 176.407C313.811 169.992 315.469 162.898 314.869 155.804L314.881 155.798ZM68.3774 212.55C68.3774 212.55 68.3649 212.521 68.3461 212.503C68.4963 212.544 68.6214 212.586 68.6339 212.609C68.6527 212.656 68.5401 212.621 68.3774 212.55ZM189.064 88.1005C189.001 88.1714 188.932 88.2422 188.864 88.3072C188.845 88.3249 188.826 88.3367 188.807 88.3545C188.789 88.3663 188.77 88.3781 188.745 88.384C188.745 88.3663 188.745 88.3545 188.745 88.3367C188.914 88.1655 189.039 88.0473 189.133 87.9823C189.108 88.0178 189.083 88.0591 189.064 88.0946V88.1005Z" fill="#000C3D"/>
<g opacity="0.2">
<path d="M121.168 136.772C121.588 121.196 100.195 110.83 88.3186 122.578C87.9745 122.921 87.4114 122.968 86.9984 122.696C77.8318 116.654 66.6254 126.341 68.9405 135.892C68.9467 135.922 68.9655 135.957 68.9655 135.987C69.879 147.836 70.5548 150.311 71.5497 139.844C71.7937 137.268 76.0047 122.821 84.2203 126.477C84.6645 126.672 84.7771 127.239 84.5707 127.658C83.3067 130.298 82.631 138.769 84.9211 138.143C85.3153 138.036 85.5781 137.688 85.6156 137.304C86.7794 126.258 116.876 117.51 114.242 148.704C113.654 155.686 116.845 157.759 118.69 150.535C118.703 150.5 118.716 150.458 118.728 150.423C120.474 146.199 119.767 142.224 125.548 146.371C128.752 148.68 129.234 150.24 129.565 153.79C129.647 154.546 130.754 154.558 130.823 153.79C131.805 147.481 129.816 138.58 122.044 137.735C121.525 137.676 121.143 137.251 121.156 136.76L121.168 136.772ZM112.684 127.499C112.74 127.57 112.821 127.658 112.684 127.499V127.499ZM115.881 135.219C115.856 135.018 115.869 135.148 115.881 135.219V135.219Z" fill="#FCFCFF"/>
<path d="M245.246 151.864C249.789 153.79 252.198 137.127 251.391 133.789C250.734 130.31 248.056 127.357 244.714 125.886C246.178 120.523 247.086 114.846 246.341 109.335C245.797 87.2204 213.61 86.6416 215.513 108.538C219.404 120.759 213.448 108.042 204.075 114.338C190.935 122.649 202.473 137.41 213.592 141.409C192.249 119.643 217.759 114.019 222.439 126.92C227.044 129.129 220.606 117.321 219.955 112.064C218.61 101.137 247.148 98.3724 240.672 124.911C239.477 129.808 231.249 128.278 230.304 133.004C229.966 133.677 230.911 134.209 231.362 133.589C237.243 131.563 251.935 131.864 245.246 151.864ZM237.562 130.074C237.631 130.044 237.788 129.979 237.562 130.074V130.074Z" fill="#FCFCFF"/>
</g>
<g clip-path="url(#clip1_109_3866)">
<path d="M88.6381 106.98C88.6381 106.98 88.629 106.967 88.624 106.963C88.149 106.442 87.613 105.948 87.052 105.484C87.7764 105.408 88.4963 105.294 89.1803 105.124C89.187 105.123 89.1938 105.122 89.2015 105.118C91.0382 104.64 92.615 103.175 93.2065 101.221C94.1083 98.2407 92.4314 95.0973 89.4606 94.1982C87.1412 93.4963 84.6494 94.3509 83.2695 96.1893L83.2686 96.1923C83.24 96.2335 83.2115 96.2748 83.1819 96.3142C83.1534 96.3555 83.1238 96.3948 83.0944 96.439C82.7604 96.9273 82.4511 97.4505 82.1676 97.9895C82.2305 97.3837 82.2647 96.7773 82.2561 96.1853C82.2561 96.1322 82.2537 96.0816 82.2524 96.0329C82.2516 95.9827 82.2507 95.9325 82.2479 95.8834L82.2488 95.8804C82.1217 93.5843 80.5218 91.4915 78.2025 90.7896C75.2316 89.8906 72.0932 91.5769 71.1914 94.5567C70.5999 96.5113 71.0999 98.6046 72.3634 100.021C72.3675 100.028 72.3725 100.033 72.3775 100.038C72.8525 100.558 73.3885 101.052 73.9496 101.517C73.2252 101.592 72.5052 101.706 71.8213 101.876C71.8145 101.877 71.8077 101.878 71.8 101.882C69.9628 102.362 68.3861 103.827 67.7946 105.781C66.8928 108.761 68.5696 111.905 71.5405 112.804C73.8599 113.506 76.3517 112.651 77.7316 110.813L77.7325 110.81C77.761 110.768 77.7896 110.727 77.8191 110.688C77.8477 110.646 77.8777 110.606 77.9067 110.563C78.2407 110.075 78.5499 109.551 78.8334 109.012C78.7705 109.618 78.7363 110.225 78.745 110.817C78.745 110.87 78.7459 110.92 78.7486 110.969C78.7495 111.019 78.7508 111.068 78.7532 111.119L78.7523 111.121C78.8813 113.417 80.4797 115.509 82.8005 116.211C85.7714 117.11 88.9098 115.424 89.8116 112.444C90.4031 110.49 89.9031 108.396 88.6396 106.98L88.6381 106.98Z" fill="#F3343F"/>
</g>
<g clip-path="url(#clip2_109_3866)">
<path d="M165.476 131.818C165.476 131.818 165.467 131.805 165.462 131.801C164.987 131.28 164.451 130.786 163.89 130.322C164.614 130.246 165.334 130.132 166.018 129.962C166.025 129.961 166.032 129.96 166.039 129.956C167.876 129.478 169.453 128.013 170.044 126.059C170.946 123.079 169.269 119.935 166.299 119.036C163.979 118.334 161.487 119.189 160.108 121.027L160.107 121.03C160.078 121.072 160.05 121.113 160.02 121.152C159.991 121.193 159.962 121.233 159.932 121.277C159.598 121.765 159.289 122.288 159.006 122.827C159.069 122.222 159.103 121.615 159.094 121.023C159.094 120.97 159.092 120.92 159.09 120.871C159.09 120.821 159.089 120.771 159.086 120.721L159.087 120.718C158.96 118.422 157.36 116.33 155.04 115.628C152.07 114.729 148.931 116.415 148.029 119.395C147.438 121.349 147.938 123.443 149.201 124.859C149.206 124.866 149.211 124.871 149.216 124.876C149.691 125.396 150.227 125.89 150.788 126.355C150.063 126.43 149.343 126.544 148.659 126.714C148.652 126.715 148.646 126.716 148.638 126.72C146.801 127.2 145.224 128.665 144.633 130.619C143.731 133.599 145.408 136.743 148.379 137.642C150.698 138.344 153.19 137.489 154.57 135.651L154.57 135.648C154.599 135.606 154.628 135.565 154.657 135.526C154.686 135.484 154.716 135.444 154.745 135.401C155.079 134.913 155.388 134.389 155.671 133.85C155.609 134.456 155.574 135.063 155.583 135.655C155.583 135.708 155.584 135.758 155.587 135.807C155.588 135.857 155.589 135.906 155.591 135.957L155.59 135.959C155.719 138.255 157.318 140.347 159.639 141.049C162.609 141.948 165.748 140.262 166.65 137.282C167.241 135.328 166.741 133.234 165.478 131.818L165.476 131.818Z" fill="#FFCD1A"/>
</g>
<g clip-path="url(#clip3_109_3866)">
<path d="M260.382 111.638C260.382 111.638 260.37 111.628 260.364 111.625C259.761 111.26 259.108 110.937 258.438 110.649C259.112 110.373 259.771 110.061 260.379 109.705C260.385 109.702 260.391 109.699 260.398 109.693C262.025 108.716 263.125 106.867 263.142 104.825C263.167 101.711 260.672 99.1679 257.568 99.1427C255.145 99.123 252.995 100.645 252.19 102.798L252.189 102.801C252.174 102.849 252.158 102.897 252.141 102.943C252.125 102.99 252.108 103.036 252.092 103.087C251.909 103.65 251.76 104.239 251.64 104.836C251.529 104.237 251.391 103.646 251.216 103.08C251.201 103.029 251.185 102.981 251.17 102.935C251.155 102.887 251.14 102.839 251.123 102.793L251.123 102.789C250.354 100.622 248.229 99.0653 245.806 99.0456C242.702 99.0204 240.166 101.523 240.141 104.636C240.124 106.678 241.194 108.546 242.806 109.548C242.812 109.555 242.818 109.558 242.824 109.561C243.426 109.926 244.08 110.249 244.749 110.537C244.075 110.813 243.417 111.125 242.808 111.481C242.802 111.484 242.796 111.487 242.79 111.493C241.162 112.471 240.062 114.321 240.046 116.363C240.02 119.476 242.515 122.02 245.619 122.045C248.042 122.065 250.192 120.542 250.998 118.389L250.998 118.386C251.014 118.339 251.03 118.291 251.047 118.245C251.063 118.197 251.08 118.15 251.096 118.1C251.278 117.538 251.428 116.949 251.548 116.352C251.658 116.951 251.796 117.542 251.971 118.108C251.986 118.159 252.001 118.206 252.018 118.253C252.033 118.301 252.048 118.347 252.064 118.395L252.064 118.398C252.835 120.564 254.958 122.121 257.383 122.14C260.487 122.166 263.023 119.663 263.048 116.55C263.065 114.508 261.995 112.64 260.383 111.638L260.382 111.638Z" fill="#FFCD1A"/>
</g>
</g>
<g clip-path="url(#clip4_109_3866)">
<path d="M1323.61 53.1142C1323.73 53.1142 1323.86 53.1142 1324.01 53.1142H1324C1323.87 53.1142 1323.74 53.107 1323.61 53.107V53.1142Z" fill="#02197E"/>
<path d="M1251.14 142.758C1252.46 127.185 1261.2 113.264 1273.93 103.716C1267.82 93.715 1267.32 80.8288 1273.13 70.4801C1276.54 64.3985 1282.39 59.0257 1288.99 56.07C1293.18 54.1987 1297.23 53.1355 1301.83 52.6819C1305.59 52.3133 1309.36 52.611 1313.12 52.9087C1314.84 53.0434 1316.57 53.1851 1318.31 53.256C1320.06 53.3269 1321.86 53.093 1323.61 53.1142C1322.64 53.1142 1323.06 53.3127 1323.67 53.1851C1323.78 53.1639 1323.88 53.1426 1324 53.1213C1324.09 53.1213 1324.18 53.1213 1324.26 53.1284C1324.17 53.1284 1324.09 53.1213 1324.01 53.1213C1324.28 53.0717 1324.55 53.0221 1324.82 52.9583C1325.29 52.852 1325.76 52.7244 1326.23 52.5826C1326.32 52.5543 1326.42 52.5259 1326.51 52.4976C1327.39 52.1857 1327.25 52.2637 1326.08 52.7173C1326.57 52.8024 1327.68 51.9589 1328.1 51.7108C1328.46 51.5052 1328.79 51.2784 1329.13 51.0658C1329.17 51.0303 1329.22 50.9949 1329.27 50.9524C1331.93 48.7976 1334.14 46.2246 1336.52 43.8146C1339.34 40.9581 1342.46 38.456 1345.78 36.124C1352.18 31.6231 1360.02 28.6673 1368.05 28.4051C1375.93 28.1499 1383.61 30.7654 1389.61 35.5286C1395.47 40.1855 1397.62 47.1177 1399.37 53.8585C1399.69 55.0989 1400.01 56.3323 1400.39 57.5585C1401.45 56.1834 1402.48 54.7941 1403.5 53.3978C1406.53 49.2441 1409.43 44.9984 1412.51 40.8731C1418.87 32.339 1426.13 23.8191 1436.08 18.829C1447.48 13.1089 1460.9 12.4639 1472.91 16.9719C1485.74 21.7777 1495.91 30.3259 1503.36 41.2204C1505.62 44.5234 1507.61 47.9754 1509.4 51.5265C1509.81 48.5424 1510.23 45.5583 1510.64 42.5742C1511.6 35.7058 1512.41 28.8091 1513.53 21.962C1514.41 16.5679 1516.71 11.1172 1521.39 7.70777C1527.71 3.09341 1536.3 4.66697 1541.62 9.90509C1546.02 14.243 1548.74 20.112 1551.41 25.4919C1557.06 36.8612 1561.54 48.7409 1564.55 60.9821C1565.69 65.6177 1566.63 70.31 1567.38 75.0236C1568.87 72.6278 1570.44 70.2746 1572.11 67.978C1575.96 62.6619 1580.21 57.6152 1584.63 52.7173C1588.84 48.0604 1593.92 43.3823 1600.64 42.5317C1607.77 41.6315 1614.13 45.0834 1617.92 50.7114C1621.81 56.4953 1621.75 63.7677 1619.76 70.1541C1616.3 81.2753 1608.95 91.624 1600.69 100.073C1599.63 101.143 1598.55 102.192 1597.45 103.213C1604.37 107.976 1609.27 115.816 1610.69 123.584C1611.6 128.56 1611.57 133.649 1610.43 138.455C1615.6 140.808 1619.74 144.827 1623.02 149.201C1630.12 158.663 1630.14 171.323 1626.97 182.104C1625.35 187.59 1622.88 192.892 1620.24 198.002C1617.82 202.688 1614.96 207.011 1611.41 211.016C1603.9 219.472 1591.99 223.817 1580.41 222.485C1573.35 221.677 1566.81 219.749 1560.52 216.566C1558.02 215.305 1555.69 213.795 1553.25 212.455C1552.63 212.115 1552.01 211.789 1551.38 211.477C1551.26 211.42 1550.99 211.3 1550.71 211.172C1550.32 211.052 1549.57 210.789 1549.33 210.726C1549.16 210.683 1549 210.641 1548.82 210.605C1548.55 210.605 1548.29 210.605 1548.03 210.605C1547.96 210.889 1547.91 211.165 1547.85 211.449C1547.59 212.732 1547.41 214.036 1546.97 215.276C1545.15 220.365 1541.42 223.817 1536.1 225.646C1532.82 226.773 1529.07 226.844 1525.61 226.979C1511.74 227.524 1497.98 225.526 1484.55 222.4C1484.21 222.322 1483.86 222.237 1483.52 222.152C1482.64 225.2 1481.04 228.084 1478.8 230.587C1477.52 232.018 1475.91 233.188 1474.3 234.265C1474.1 234.393 1473.91 234.527 1473.71 234.641C1473.64 234.683 1473.57 234.719 1473.51 234.761C1475.2 233.471 1475.29 233.386 1473.78 234.499C1472.88 235.158 1472.07 235.654 1471.04 236.101C1467.16 237.788 1463.56 238.646 1459.28 238.936C1452.11 239.418 1444.6 236.774 1438.78 232.954C1435.21 230.615 1431.97 227.886 1428.97 224.93C1426.95 222.945 1425.06 220.833 1422.88 219.005C1422.64 218.856 1422.4 218.721 1422.16 218.586C1418.09 219.508 1414.19 221.407 1410.23 222.655C1405.91 224.016 1401.5 225.15 1397.04 226.057C1387.3 228.028 1377.26 229.098 1367.29 229.041C1357.79 228.985 1347.97 228.127 1338.86 225.49C1337.55 225.114 1336.27 224.696 1335.01 224.243C1333.83 224.902 1332.62 225.511 1331.41 226.086C1324.82 229.169 1317.79 231.855 1310.47 232.784C1306.26 233.315 1301.78 233.294 1297.76 231.827C1295.76 231.097 1293.8 230.331 1292.08 229.112C1289.74 227.446 1287.99 225.88 1286.35 223.548C1282.89 218.643 1282.72 211.973 1286.12 207.118C1283.16 207.167 1279.86 206.48 1277.39 204.913C1274.31 202.957 1272.05 200.256 1271.03 196.854C1270.16 193.991 1270.45 191.318 1270.94 188.441C1271.15 187.179 1271.54 185.938 1272.02 184.719C1265.39 180.225 1259.7 174.541 1256.23 167.488C1252.43 159.79 1250.44 151.278 1251.16 142.765L1251.14 142.758ZM1546.95 210.86C1546.95 210.86 1546.96 210.825 1546.98 210.804C1546.8 210.853 1546.65 210.903 1546.64 210.931C1546.62 210.988 1546.75 210.945 1546.95 210.86ZM1402.12 61.5207C1402.2 61.6058 1402.28 61.6909 1402.36 61.7688C1402.39 61.7901 1402.41 61.8043 1402.43 61.8255C1402.45 61.8397 1402.48 61.8539 1402.51 61.861C1402.51 61.8397 1402.51 61.8255 1402.51 61.8043C1402.3 61.5987 1402.15 61.457 1402.04 61.379C1402.07 61.4215 1402.1 61.4711 1402.12 61.5137V61.5207Z" fill="#4F70FC"/>
<g opacity="0.5">
<path d="M1483.6 119.927C1483.09 101.235 1508.77 88.7957 1523.02 102.894C1523.43 103.305 1524.11 103.362 1524.6 103.036C1535.6 95.7846 1549.05 107.409 1546.27 118.871C1546.26 118.906 1546.24 118.949 1546.24 118.984C1545.15 133.203 1544.33 136.173 1543.14 123.613C1542.85 120.522 1537.79 103.185 1527.94 107.572C1527.4 107.806 1527.27 108.487 1527.52 108.99C1529.03 112.158 1529.84 122.323 1527.09 121.571C1526.62 121.444 1526.31 121.025 1526.26 120.565C1524.86 107.31 1488.75 96.8124 1491.91 134.245C1492.62 142.623 1488.79 145.111 1486.57 136.442C1486.56 136.4 1486.54 136.35 1486.53 136.307C1484.43 131.239 1485.28 126.469 1478.34 131.445C1474.5 134.216 1473.92 136.088 1473.52 140.348C1473.42 141.255 1472.1 141.269 1472.01 140.348C1470.83 132.777 1473.22 122.096 1482.55 121.082C1483.17 121.011 1483.63 120.501 1483.61 119.913L1483.6 119.927ZM1493.78 108.798C1493.71 108.883 1493.61 108.99 1493.78 108.798V108.798ZM1489.94 118.063C1489.97 117.822 1489.96 117.977 1489.94 118.063V118.063Z" fill="#B4C2FE"/>
<path d="M1334.7 138.037C1329.25 140.348 1326.36 120.352 1327.33 116.347C1328.12 112.172 1331.33 108.628 1335.34 106.863C1333.59 100.427 1332.5 93.6156 1333.39 87.0024C1334.04 60.4645 1372.67 59.7699 1370.39 86.0455C1365.71 100.711 1372.86 85.4501 1384.11 93.0061C1399.88 102.979 1386.03 120.692 1372.69 125.491C1398.3 99.3712 1367.69 92.6233 1362.07 108.104C1356.55 110.755 1364.27 96.5856 1365.05 90.2771C1366.67 77.1641 1332.42 73.8469 1340.19 105.694C1341.63 111.57 1351.5 109.734 1352.63 115.404C1353.04 116.213 1351.91 116.85 1351.37 116.106C1344.31 113.675 1326.68 114.036 1334.7 138.037ZM1343.93 111.889C1343.84 111.853 1343.65 111.775 1343.93 111.889V111.889Z" fill="#B4C2FE"/>
</g>
<g clip-path="url(#clip5_109_3866)">
<path d="M1429.38 86.6377C1429.38 86.6377 1429.37 86.6284 1429.36 86.6253C1428.76 86.2597 1428.11 85.9369 1427.44 85.6494C1428.11 85.3728 1428.77 85.0606 1429.38 84.7049C1429.39 84.7019 1429.39 84.6989 1429.4 84.6927C1431.03 83.7165 1432.13 81.8666 1432.14 79.8245C1432.17 76.7113 1429.67 74.1679 1426.57 74.1427C1424.15 74.123 1422 75.6453 1421.19 77.7981L1421.19 77.8012C1421.17 77.8489 1421.16 77.8965 1421.14 77.9426C1421.12 77.9903 1421.11 78.0364 1421.09 78.0871C1420.91 78.6497 1420.76 79.2388 1420.64 79.8359C1420.53 79.237 1420.39 78.6455 1420.22 78.08C1420.2 78.029 1420.18 77.9811 1420.17 77.9347C1420.15 77.8868 1420.14 77.8389 1420.12 77.7926L1420.12 77.7895C1419.35 75.6223 1417.23 74.0653 1414.81 74.0456C1411.7 74.0204 1409.17 76.5229 1409.14 79.6361C1409.12 81.6782 1410.19 83.5457 1411.81 84.5483C1411.81 84.5545 1411.82 84.5577 1411.82 84.5608C1412.43 84.9264 1413.08 85.2492 1413.75 85.5367C1413.08 85.8133 1412.42 86.1254 1411.81 86.4811C1411.8 86.4842 1411.8 86.4872 1411.79 86.4933C1410.16 87.4711 1409.06 89.321 1409.05 91.3631C1409.02 94.4763 1411.52 97.0197 1414.62 97.0449C1417.04 97.0646 1419.19 95.5423 1420 93.3895L1420 93.3864C1420.01 93.3387 1420.03 93.2911 1420.05 93.245C1420.06 93.1973 1420.08 93.1497 1420.1 93.1005C1420.28 92.5379 1420.43 91.9488 1420.55 91.3517C1420.66 91.9506 1420.8 92.5421 1420.97 93.1076C1420.99 93.1586 1421 93.2065 1421.02 93.2529C1421.03 93.3008 1421.05 93.3471 1421.06 93.395L1421.06 93.3981C1421.84 95.5637 1423.96 97.1207 1426.38 97.1404C1429.49 97.1656 1432.02 94.6631 1432.05 91.5499C1432.06 89.5078 1430.99 87.6403 1429.38 86.6377L1429.38 86.6377Z" fill="#FFCD1A"/>
</g>
<g clip-path="url(#clip6_109_3866)">
<path d="M1301.38 138.638C1301.38 138.638 1301.37 138.628 1301.36 138.625C1300.76 138.26 1300.11 137.937 1299.44 137.649C1300.11 137.373 1300.77 137.061 1301.38 136.705C1301.39 136.702 1301.39 136.699 1301.4 136.693C1303.03 135.716 1304.13 133.867 1304.14 131.825C1304.17 128.711 1301.67 126.168 1298.57 126.143C1296.15 126.123 1294 127.645 1293.19 129.798L1293.19 129.801C1293.17 129.849 1293.16 129.897 1293.14 129.943C1293.12 129.99 1293.11 130.036 1293.09 130.087C1292.91 130.65 1292.76 131.239 1292.64 131.836C1292.53 131.237 1292.39 130.646 1292.22 130.08C1292.2 130.029 1292.18 129.981 1292.17 129.935C1292.15 129.887 1292.14 129.839 1292.12 129.793L1292.12 129.789C1291.35 127.622 1289.23 126.065 1286.81 126.046C1283.7 126.02 1281.17 128.523 1281.14 131.636C1281.12 133.678 1282.19 135.546 1283.81 136.548C1283.81 136.555 1283.82 136.558 1283.82 136.561C1284.43 136.926 1285.08 137.249 1285.75 137.537C1285.08 137.813 1284.42 138.125 1283.81 138.481C1283.8 138.484 1283.8 138.487 1283.79 138.493C1282.16 139.471 1281.06 141.321 1281.05 143.363C1281.02 146.476 1283.52 149.02 1286.62 149.045C1289.04 149.065 1291.19 147.542 1292 145.389L1292 145.386C1292.01 145.339 1292.03 145.291 1292.05 145.245C1292.06 145.197 1292.08 145.15 1292.1 145.1C1292.28 144.538 1292.43 143.949 1292.55 143.352C1292.66 143.951 1292.8 144.542 1292.97 145.108C1292.99 145.159 1293 145.206 1293.02 145.253C1293.03 145.301 1293.05 145.347 1293.06 145.395L1293.06 145.398C1293.84 147.564 1295.96 149.121 1298.38 149.14C1301.49 149.166 1304.02 146.663 1304.05 143.55C1304.06 141.508 1302.99 139.64 1301.38 138.638L1301.38 138.638Z" fill="#FFCD1A"/>
</g>
<g clip-path="url(#clip7_109_3866)">
<path d="M1458.91 124.735C1458.91 124.735 1458.9 124.728 1458.89 124.726C1458.24 124.458 1457.54 124.241 1456.84 124.06C1457.46 123.683 1458.06 123.272 1458.61 122.826C1458.61 122.822 1458.62 122.818 1458.62 122.811C1460.08 121.594 1460.88 119.596 1460.58 117.576C1460.12 114.497 1457.26 112.371 1454.19 112.828C1451.8 113.184 1449.91 115.022 1449.45 117.273L1449.45 117.276C1449.44 117.326 1449.43 117.375 1449.42 117.424C1449.41 117.473 1449.4 117.521 1449.4 117.574C1449.3 118.158 1449.25 118.763 1449.22 119.372C1449.02 118.797 1448.79 118.234 1448.53 117.703C1448.51 117.655 1448.48 117.61 1448.46 117.567C1448.44 117.522 1448.42 117.477 1448.39 117.433L1448.39 117.43C1447.3 115.409 1444.96 114.2 1442.56 114.557C1439.49 115.013 1437.37 117.879 1437.83 120.958C1438.13 122.978 1439.48 124.657 1441.22 125.397C1441.23 125.403 1441.24 125.405 1441.24 125.407C1441.9 125.675 1442.59 125.892 1443.3 126.072C1442.67 126.45 1442.07 126.861 1441.53 127.306C1441.52 127.31 1441.51 127.314 1441.51 127.321C1440.05 128.54 1439.25 130.538 1439.55 132.558C1440.01 135.637 1442.87 137.763 1445.94 137.306C1448.34 136.95 1450.23 135.113 1450.69 132.861L1450.69 132.858C1450.7 132.808 1450.7 132.759 1450.71 132.711C1450.72 132.661 1450.73 132.611 1450.74 132.56C1450.83 131.976 1450.89 131.371 1450.92 130.762C1451.12 131.337 1451.35 131.9 1451.61 132.431C1451.63 132.479 1451.65 132.524 1451.67 132.568C1451.7 132.613 1451.72 132.656 1451.74 132.701L1451.74 132.704C1452.84 134.724 1455.18 135.933 1457.58 135.576C1460.65 135.119 1462.76 132.254 1462.31 129.174C1462.01 127.154 1460.66 125.475 1458.91 124.735L1458.91 124.735Z" fill="#F3343F"/>
</g>
</g>
<g clip-path="url(#clip8_109_3866)">
<path d="M1914.71 207.598C1909.84 195.748 1896.27 190.855 1884.3 190.321C1881.2 186.038 1889.07 178.099 1883.53 171.544C1877.07 161.278 1862.93 162.871 1852.95 166.164C1860.09 151.09 1873.21 137.337 1873.88 120.06C1873.81 107.32 1862.26 97.9512 1850.05 97.557C1831.11 96.9385 1818.8 114.177 1806.81 126.36C1834.76 -37.7086 1609.99 -42.6251 1609.77 115.151C1588.99 51.9866 1531.47 89.5638 1567.93 152.017C1541.62 136.464 1510.83 171.026 1539.5 199.729C1555.38 215.638 1582.17 214.378 1597.46 216.187C1631.65 220.23 1667.68 217.122 1702.53 217.911C1699.55 222.302 1693.46 230.148 1699.61 234.353C1712.54 242.802 1721.09 222.758 1723.17 228.169C1728.06 234.655 1730.99 244.565 1739.6 246.853C1757.43 248.994 1756.96 226.182 1746.71 217.099C1771.49 218.529 1922.41 222.611 1914.71 207.591L1914.71 207.598ZM1548.94 159.786C1549.13 159.701 1549.31 159.593 1549.48 159.485C1549.02 159.848 1548.87 159.871 1548.94 159.786ZM1742.38 233.464C1742.05 233.124 1741.7 232.227 1742.41 233.495C1742.4 233.487 1742.39 233.472 1742.38 233.464ZM1770.28 203.463C1770.58 203.378 1770.85 203.153 1770.99 203.548C1770.75 203.517 1770.51 203.494 1770.28 203.463Z" fill="#0323B0"/>
<g opacity="0.5">
<path d="M1680.13 103.795C1675.67 103.826 1672.42 107.135 1670.41 110.822C1667.39 72.9358 1613.53 96.3819 1657.06 139.54C1657.6 140.136 1658.42 139.27 1657.92 138.667C1653.03 132.398 1652.26 131.547 1648.66 124.443C1642.26 111.812 1664.2 95.5857 1667.92 126.376C1668.11 127.906 1671.01 126.994 1670.86 125.471C1673.52 110.714 1693.82 114.061 1688.73 131.207C1689.14 148.863 1705.51 106.014 1680.13 103.795H1680.13Z" fill="#4F70FC"/>
<path d="M1811.24 168.908C1798.55 167.571 1812.78 162.871 1803.29 149.613C1791.39 136.271 1775.66 158.766 1776.87 171.057C1776.88 171.969 1778.17 171.931 1778.26 171.057C1779.51 144.387 1811.81 150.927 1796.91 170.338C1790.71 178.416 1793.08 174.706 1799.24 172.897C1801.66 172.232 1816.08 174.288 1811.71 188.048C1808.35 198.623 1822.93 172.673 1811.24 168.908Z" fill="#4F70FC"/>
</g>
<g clip-path="url(#clip9_109_3866)">
<path d="M1688.18 67.0067C1688.18 67.0067 1688.17 66.9994 1688.16 66.9973C1687.51 66.7296 1686.81 66.5121 1686.11 66.3318C1686.73 65.9541 1687.33 65.5435 1687.88 65.0978C1687.89 65.0938 1687.89 65.0899 1687.9 65.0828C1689.35 63.8659 1690.15 61.8678 1689.85 59.8479C1689.39 56.7684 1686.54 54.6428 1683.46 55.0994C1681.07 55.4558 1679.18 57.2932 1678.72 59.5449L1678.72 59.548C1678.71 59.5975 1678.7 59.647 1678.69 59.6952C1678.68 59.7448 1678.67 59.793 1678.67 59.8455C1678.57 60.4297 1678.52 61.0348 1678.49 61.6433C1678.29 61.0687 1678.06 60.5059 1677.8 59.9744C1677.78 59.9263 1677.75 59.8816 1677.73 59.8381C1677.71 59.7931 1677.69 59.7481 1677.66 59.7048L1677.66 59.7018C1676.57 57.6802 1674.23 56.4716 1671.83 56.8281C1668.76 57.2846 1666.64 60.1502 1667.1 63.2296C1667.4 65.2496 1668.75 66.9285 1670.49 67.669C1670.5 67.6742 1670.51 67.6764 1670.52 67.6785C1671.17 67.9462 1671.86 68.1637 1672.57 68.3439C1671.95 68.7217 1671.34 69.1322 1670.8 69.578C1670.79 69.582 1670.79 69.5859 1670.78 69.5929C1669.32 70.8114 1668.53 72.8095 1668.83 74.8294C1669.28 77.9089 1672.14 80.0344 1675.21 79.5779C1677.61 79.2215 1679.5 77.3841 1679.96 75.1324L1679.96 75.1293C1679.97 75.0798 1679.98 75.0303 1679.99 74.982C1679.99 74.9325 1680 74.8828 1680.01 74.8317C1680.1 74.2476 1680.16 73.6424 1680.19 73.034C1680.39 73.6085 1680.62 74.1714 1680.88 74.7029C1680.9 74.751 1680.92 74.796 1680.95 74.8392C1680.97 74.8842 1680.99 74.9277 1681.01 74.9725L1681.01 74.9755C1682.11 76.9954 1684.45 78.2041 1686.85 77.8475C1689.92 77.3909 1692.04 74.5254 1691.58 71.4459C1691.28 69.426 1689.93 67.747 1688.18 67.0065L1688.18 67.0067Z" fill="#F3343F"/>
</g>
<g clip-path="url(#clip10_109_3866)">
<path d="M1632.38 135.638C1632.38 135.638 1632.37 135.628 1632.36 135.625C1631.76 135.26 1631.11 134.937 1630.44 134.649C1631.11 134.373 1631.77 134.061 1632.38 133.705C1632.39 133.702 1632.39 133.699 1632.4 133.693C1634.03 132.716 1635.13 130.867 1635.14 128.825C1635.17 125.711 1632.67 123.168 1629.57 123.143C1627.15 123.123 1625 124.645 1624.19 126.798L1624.19 126.801C1624.17 126.849 1624.16 126.897 1624.14 126.943C1624.12 126.99 1624.11 127.036 1624.09 127.087C1623.91 127.65 1623.76 128.239 1623.64 128.836C1623.53 128.237 1623.39 127.646 1623.22 127.08C1623.2 127.029 1623.18 126.981 1623.17 126.935C1623.15 126.887 1623.14 126.839 1623.12 126.793L1623.12 126.789C1622.35 124.622 1620.23 123.065 1617.81 123.046C1614.7 123.02 1612.17 125.523 1612.14 128.636C1612.12 130.678 1613.19 132.546 1614.81 133.548C1614.81 133.555 1614.82 133.558 1614.82 133.561C1615.43 133.926 1616.08 134.249 1616.75 134.537C1616.08 134.813 1615.42 135.125 1614.81 135.481C1614.8 135.484 1614.8 135.487 1614.79 135.493C1613.16 136.471 1612.06 138.321 1612.05 140.363C1612.02 143.476 1614.52 146.02 1617.62 146.045C1620.04 146.065 1622.19 144.542 1623 142.389L1623 142.386C1623.01 142.339 1623.03 142.291 1623.05 142.245C1623.06 142.197 1623.08 142.15 1623.1 142.1C1623.28 141.538 1623.43 140.949 1623.55 140.352C1623.66 140.951 1623.8 141.542 1623.97 142.108C1623.99 142.159 1624 142.206 1624.02 142.253C1624.03 142.301 1624.05 142.347 1624.06 142.395L1624.06 142.398C1624.84 144.564 1626.96 146.121 1629.38 146.14C1632.49 146.166 1635.02 143.663 1635.05 140.55C1635.06 138.508 1633.99 136.64 1632.38 135.638L1632.38 135.638Z" fill="#FFCD1A"/>
</g>
<g clip-path="url(#clip11_109_3866)">
<path d="M1546.91 66.7352C1546.91 66.7352 1546.9 66.7279 1546.89 66.7257C1546.24 66.458 1545.54 66.2405 1544.84 66.0603C1545.46 65.6825 1546.06 65.272 1546.61 64.8262C1546.61 64.8223 1546.62 64.8183 1546.62 64.8113C1548.08 63.5944 1548.88 61.5963 1548.58 59.5763C1548.12 56.4969 1545.26 54.3713 1542.19 54.8279C1539.8 55.1843 1537.91 57.0216 1537.45 59.2734L1537.45 59.2764C1537.44 59.3259 1537.43 59.3755 1537.42 59.4237C1537.41 59.4732 1537.4 59.5214 1537.4 59.574C1537.3 60.1582 1537.25 60.7633 1537.22 61.3717C1537.02 60.7972 1536.79 60.2343 1536.53 59.7028C1536.51 59.6548 1536.48 59.61 1536.46 59.5665C1536.44 59.5215 1536.42 59.4765 1536.39 59.4333L1536.39 59.4302C1535.3 57.4086 1532.96 56.2001 1530.56 56.5565C1527.49 57.0131 1525.37 59.8786 1525.83 62.9581C1526.13 64.978 1527.48 66.657 1529.22 67.3975C1529.23 67.4027 1529.24 67.4048 1529.24 67.407C1529.9 67.6746 1530.59 67.8922 1531.3 68.0724C1530.67 68.4501 1530.07 68.8607 1529.53 69.3065C1529.52 69.3104 1529.51 69.3144 1529.51 69.3214C1528.05 70.5398 1527.25 72.5379 1527.55 74.5579C1528.01 77.6373 1530.87 79.7629 1533.94 79.3063C1536.34 78.9499 1538.23 77.1126 1538.69 74.8608L1538.69 74.8578C1538.7 74.8082 1538.7 74.7587 1538.71 74.7105C1538.72 74.661 1538.73 74.6112 1538.74 74.5602C1538.83 73.976 1538.89 73.3709 1538.92 72.7624C1539.12 73.337 1539.35 73.8998 1539.61 74.4314C1539.63 74.4794 1539.65 74.5244 1539.67 74.5677C1539.7 74.6127 1539.72 74.6561 1539.74 74.7009L1539.74 74.704C1540.84 76.7238 1543.18 77.9326 1545.58 77.5759C1548.65 77.1194 1550.76 74.2538 1550.31 71.1744C1550.01 69.1544 1548.66 67.4755 1546.91 66.735L1546.91 66.7352Z" fill="#F3343F"/>
</g>
</g>
<defs>
<clipPath id="clip0_109_3866">
<rect width="315" height="195" fill="white" transform="translate(0 41)"/>
</clipPath>
<clipPath id="clip1_109_3866">
<rect width="23" height="23" fill="white" transform="translate(72.824 89.162) rotate(16.837)"/>
</clipPath>
<clipPath id="clip2_109_3866">
<rect width="23" height="23" fill="white" transform="translate(149.662 114) rotate(16.837)"/>
</clipPath>
<clipPath id="clip3_109_3866">
<rect width="23" height="23" fill="white" transform="translate(240.187 99) rotate(0.465349)"/>
</clipPath>
<clipPath id="clip4_109_3866">
<rect width="378" height="234" fill="white" transform="matrix(-1 0 0 1 1629 5)"/>
</clipPath>
<clipPath id="clip5_109_3866">
<rect width="23" height="23" fill="white" transform="translate(1409.19 74) rotate(0.465349)"/>
</clipPath>
<clipPath id="clip6_109_3866">
<rect width="23" height="23" fill="white" transform="translate(1281.19 126) rotate(0.465349)"/>
</clipPath>
<clipPath id="clip7_109_3866">
<rect width="23" height="23" fill="white" transform="translate(1437 115.383) rotate(-8.45828)"/>
</clipPath>
<clipPath id="clip8_109_3866">
<rect width="387" height="247" fill="white" transform="translate(1528)"/>
</clipPath>
<clipPath id="clip9_109_3866">
<rect width="23" height="23" fill="white" transform="translate(1666.27 57.6546) rotate(-8.45828)"/>
</clipPath>
<clipPath id="clip10_109_3866">
<rect width="23" height="23" fill="white" transform="translate(1612.19 123) rotate(0.465349)"/>
</clipPath>
<clipPath id="clip11_109_3866">
<rect width="23" height="23" fill="white" transform="translate(1525 57.3831) rotate(-8.45828)"/>
</clipPath>
</defs>
</svg>
