<svg width="202" height="166" viewBox="0 0 202 166" fill="none" xmlns="http://www.w3.org/2000/svg">
<path d="M97.0378 80.9726C96.0005 78.9486 94.3626 76.6612 92.8139 74.9675C91.169 75.4298 81.7029 77.966 80.0236 77.5536C79.2821 77.3801 78.5725 77.0077 77.9128 76.639C75.0817 75.0494 72.426 73.1376 69.7844 71.2604C67.2378 69.4575 64.6912 67.6547 62.1125 65.8326C61.1729 65.1744 60.2179 64.4984 59.1427 64.0815C55.7833 63.7096 52.4476 65.0165 49.5728 66.6601C46.698 68.3038 43.7494 70.4785 41.1047 72.6259C39.0674 74.2827 37.1829 76.1356 35.4563 78.1178C34.9439 78.6827 34.4202 79.3977 34.5634 80.1632C34.6539 80.7403 35.1405 81.1796 35.5641 81.5639C39.0048 84.6252 42.7709 87.3757 46.72 89.7041C47.4413 90.1445 48.1817 90.5528 49.0233 90.7339C49.8328 90.8959 50.7471 90.7807 51.3595 90.2234C51.9512 90.6036 52.8395 91.2746 53.5206 91.3598C48.6461 95.0488 41.88 95.5927 37.7953 100.147C36.8948 101.185 36.196 102.44 36.2271 103.801C36.244 105.127 37.2101 106.542 38.5428 106.66C39.0597 106.699 39.5546 106.585 40.0329 106.471C45.2641 105.157 50.4683 103.756 55.6492 102.22C56.6095 101.941 57.6044 101.647 58.6355 101.541C59.5152 101.44 60.3989 101.507 61.2698 101.523C71.4406 101.857 89.446 97.2849 99.1808 94.2995C99.4401 89.9924 98.9583 84.841 97.0186 81.0046L97.0378 80.9726Z" fill="#F49665"/>
<path d="M48.3419 81.3581C48.7011 82.5928 48.8861 83.9148 48.7554 85.1962C49.3929 84.0874 49.5465 82.7239 49.0859 81.4983C49.4826 80.6899 50.4363 80.2758 51.289 80.0888C52.6186 79.8039 54.1977 79.9906 54.9351 81.103C55.6905 82.2 55.242 83.6921 54.7317 84.8944C54.2264 86.03 53.6236 87.1247 52.9579 88.1643C52.4637 88.9319 52.2168 89.5336 51.3942 90.2092C51.9859 90.5894 52.8742 91.2605 53.5553 91.3456C53.9373 91.1733 54.2872 90.9818 54.6255 90.7224C55.6225 89.9594 56.3304 88.8056 56.7548 87.6303C57.6242 85.2309 57.4787 82.5032 56.3628 80.1882C56.2034 79.8575 56.026 79.5422 55.759 79.3039C55.4328 78.9606 55.0119 78.761 54.5706 78.6102C53.0886 78.0283 51.3469 77.9969 49.7772 78.1296C49.6494 77.382 49.1378 76.3874 48.5769 76.043C48.8599 76.7352 49.1261 77.4262 49.1347 78.1983C49.1089 79.2025 48.1378 80.0681 47.5077 80.8589C45.7561 81.1789 43.9118 81.1734 42.2068 80.6585C44.1149 81.5912 46.2584 81.8543 48.3252 81.3568L48.3419 81.3581Z" fill="#C4643D"/>
<path d="M48.7119 69.1608C51.165 71.0907 53.7935 72.6986 56.5344 73.9292C53.6169 74.1442 50.5504 71.8994 48.7119 69.1608Z" fill="#C4643D"/>
<path d="M59.4695 101.135C63.5431 100.27 66.431 98.8952 68.1662 96.5783C68.0235 97.3557 66.95 98.465 66.3426 98.9556C64.4655 100.49 62.059 101.264 59.4528 101.134L59.4695 101.135Z" fill="#C4643D"/>
<path d="M97.1956 95.0046C97.5854 94.9503 97.974 94.9126 98.3638 94.8583C99.1256 94.7651 99.9052 94.6564 100.668 94.5466C101.041 94.491 101.414 94.4354 101.788 94.3798C102.584 94.2725 103.365 94.1472 104.146 94.0219C104.468 93.9792 104.774 93.9185 105.096 93.8758C105.979 93.7248 106.862 93.5904 107.73 93.4213C107.934 93.3865 108.138 93.3516 108.325 93.3155C166.092 82.985 195.165 51.8655 195.165 51.8655C215.161 5.08261 169.373 13.3524 169.373 13.3524C169.373 13.3524 169.371 13.3691 169.353 13.3845C138.754 51.8175 100.075 69.1787 85.3166 74.7182C84.9538 74.8584 84.6256 74.9845 84.2987 75.0939C84.282 75.0926 84.2641 75.1081 84.2295 75.1222C83.7641 75.2882 83.3334 75.44 82.9359 75.5944C82.6424 75.7063 82.3667 75.8028 82.0924 75.8826C80.2322 76.5299 79.2206 76.8222 79.2206 76.8222L90.1977 95.7321C91.38 95.6205 92.5457 95.5075 93.7114 95.3946C94.0666 95.3545 94.4219 95.3143 94.7771 95.2741C95.5888 95.1847 96.4006 95.0953 97.1969 94.9879L97.1956 95.0046Z" fill="#F49665"/>
<path d="M26.309 108.621C27.6503 101.763 29.0905 94.9292 30.5973 88.1005C32.8007 78.0545 34.8101 67.6918 38.3451 57.9982C38.9371 56.3828 41.4115 51.1703 43.7505 54.1649C44.0099 54.5032 44.067 55.0777 44.1367 55.4855C44.4775 57.4063 44.1645 59.546 43.9525 61.4585C42.7827 72.4717 40.3109 83.403 38.0482 94.2328C36.9155 99.6643 35.7495 105.093 34.5668 110.521L29.5496 112.774L26.3269 108.605L26.309 108.621Z" fill="#673319"/>
<path d="M40.6845 148.835L1.17792 139.268C1.17792 139.268 -0.763833 133.687 9.21484 127.484C15.5512 123.536 15.7801 114.095 21.0842 110.271C23.0538 108.844 25.7361 108.192 29.6909 108.894C44.5854 111.515 37.5545 125.958 38.7095 132.184C39.8645 138.409 45.2425 143.126 40.6857 148.818L40.6845 148.835Z" fill="#FFD74D"/>
<path d="M40.6832 148.835L1.17662 139.268C1.17662 139.268 8.42622 136.547 29.1638 137.967C33.6184 138.271 37.3236 121.463 34.3526 115.301C32.3676 111.176 27.6028 109.876 21.0816 110.288C23.0512 108.861 25.7335 108.209 29.6884 108.911C44.5829 111.532 37.5519 125.975 38.7069 132.2C39.862 138.426 45.2399 143.143 40.6832 148.835Z" fill="#E5B200"/>
<path d="M37.9972 149.554C37.2632 152.601 28.8839 153.19 19.2827 150.869C9.68159 148.549 2.49952 144.181 3.23348 141.134C3.74409 139.043 7.85737 138.097 13.4971 138.474C13.6805 138.488 13.8806 138.503 14.064 138.517C15.3313 138.613 16.6935 138.783 18.0841 139.023C18.3162 139.057 18.5317 139.09 18.7627 139.141C19.8043 139.337 20.878 139.553 21.948 139.818C31.5491 142.139 38.7312 146.507 37.9972 149.554Z" fill="#673319"/>
<path d="M22.149 142.953L22.7546 136.509L19.1977 137.195L18.4695 141.936L18.5029 141.939C18.2285 142.018 17.9695 142.116 17.7093 142.231C15.8097 143.177 15.0479 145.484 15.9953 147.367C16.9414 149.266 19.2483 150.028 21.1313 149.081C23.0142 148.133 23.7926 145.828 22.8452 143.945C22.655 143.578 22.4122 143.241 22.131 142.968L22.149 142.953Z" fill="#FFC703"/>
<path d="M18.7588 146.597C19.6606 146.149 20.0289 145.055 19.5816 144.154C19.1342 143.252 18.0404 142.883 17.1387 143.331C16.2369 143.778 15.8685 144.872 16.3159 145.774C16.7633 146.676 17.857 147.044 18.7588 146.597Z" fill="#FFEDB2"/>
<path d="M18.6634 124.309C16.5088 128.841 12.6961 133.567 11.9572 132.253C11.2915 131.079 15.2456 127.806 17.3507 122.599C20.3395 115.246 21.2591 113.068 21.8943 113.318C22.5282 113.584 21.2798 118.772 18.6646 124.292L18.6634 124.309Z" fill="#FFEDB2"/>
<path d="M22.9012 135.916C11.9992 133.279 2.26011 134.771 1.18154 139.268C0.0862848 143.763 8.04976 149.548 18.9684 152.187C29.8704 154.824 39.6095 153.332 40.6881 148.835C41.7834 144.34 33.8199 138.554 22.9012 135.916ZM38.0007 149.554C37.2668 152.601 28.8874 153.19 19.2863 150.869C9.68512 148.549 2.50305 144.181 3.23701 141.134C3.74763 139.043 7.8609 138.097 13.5006 138.474C13.684 138.488 13.8841 138.503 14.0676 138.517C15.3348 138.613 16.6971 138.783 18.0876 139.023C18.3198 139.057 18.5353 139.09 18.7662 139.141C19.8078 139.337 20.8816 139.553 21.9515 139.819C31.5526 142.139 38.7347 146.507 38.0007 149.554Z" fill="#8F4723"/>
<path d="M44.9731 71.5442C41.0941 72.0552 36.8658 72.305 32.9701 72.8148C32.2597 72.8952 31.5646 72.9934 30.9328 73.3648C30.2984 73.7695 29.8105 74.4537 29.4086 75.1108C27.8045 77.6893 26.2621 80.3395 24.8635 83.0844C24.4347 83.8737 24.033 84.7488 23.8468 85.6571C23.6389 86.6307 23.6939 87.6747 23.8362 88.6749C24.0991 90.9588 24.6494 93.2141 25.3726 95.3987C25.5902 96.0693 25.9194 96.8153 26.5328 97.1301C27.4721 97.5702 28.5769 96.9328 29.1903 96.1408C30.1547 94.9226 30.5928 93.3458 30.641 91.8234C30.7085 90.2689 30.4733 88.725 30.2202 87.1965C31.6646 85.1761 33.0407 82.9493 34.3734 80.8534C36.2473 80.9116 38.2247 80.7092 40.0688 80.4968C40.542 80.4488 41.0331 80.3853 41.5063 80.3373C42.3186 77.3635 43.5 74.1661 45.2094 71.7465L44.9744 71.5275C44.9744 71.5275 44.9744 71.5275 44.9731 71.5442Z" fill="#F49665"/>
<path d="M35.7712 80.1374C35.1485 79.5033 34.8307 78.6072 34.9143 77.7247C34.5864 78.0688 34.528 78.6178 34.7132 79.0511C34.8984 79.4844 35.3888 79.8737 35.7712 80.1374Z" fill="#C4643D"/>
<path d="M30.8036 85.9325C30.0454 85.7577 29.3984 85.2223 29.0487 84.525C28.9671 84.9381 29.169 85.3727 29.504 85.5993C29.8544 85.8438 30.3867 85.9009 30.8036 85.9325Z" fill="#C4643D"/>
</svg>
