<svg width="20" height="20" viewBox="0 0 20 20" fill="none" xmlns="http://www.w3.org/2000/svg">
<path d="M3.01481 5.32675C1.78396 5.32675 0.785156 4.30777 0.785156 3.07439C0.785156 1.35675 2.64405 0.2848 4.12964 1.14236C4.82074 1.54087 5.24447 2.27737 5.24447 3.07439C5.24447 4.30525 4.24566 5.32675 3.01481 5.32675ZM4.94181 19.421H1.09034V7.01917H4.94181V19.421ZM19.3539 19.421H15.51V13.3828C15.51 11.9451 15.4797 10.0988 13.5073 10.0988C11.5349 10.0988 11.1969 11.6626 11.1969 13.2794V19.421H7.35054V7.01917H11.0431V8.71159H11.0961C11.6106 7.73801 12.8667 6.70894 14.7407 6.70894C18.6376 6.70894 19.3539 9.27658 19.3539 12.6084V19.421Z" fill="#E7E0D9"/>
</svg>
