<svg width="309" height="248" viewBox="0 0 309 248" fill="none" xmlns="http://www.w3.org/2000/svg">
<path fill-rule="evenodd" clip-rule="evenodd" d="M262.227 67.4626C262.316 67.507 262.548 67.6955 262.548 67.6955C290.368 84.6181 309 116.478 309 151.444C309 204.733 265.948 247.882 212.758 248H212.319C170.769 247.908 134.22 221.575 120.699 184.601C120.561 184.186 120.422 183.781 120.284 183.376C120.145 182.971 120.007 182.566 119.868 182.151C119.776 181.873 119.683 181.601 119.591 181.329C119.406 180.784 119.222 180.239 119.037 179.655C115.933 169.996 113.484 159.916 111.5 149.647C109.505 159.905 107.011 169.985 103.963 179.655C103.778 180.24 103.594 180.784 103.409 181.329C103.316 181.601 103.224 181.873 103.132 182.151C103.039 182.428 102.947 182.7 102.855 182.973C102.67 183.517 102.485 184.062 102.301 184.646C88.7801 221.575 52.1872 247.908 10.6805 248H10.2419C6.78203 247.992 3.36504 247.802 0 247.439V0H295.743C287.633 14.0949 276.196 25.9919 262.548 34.2938C262.474 34.4139 262.362 34.4647 262.276 34.504C262.258 34.5119 262.242 34.5193 262.227 34.5267C251.83 40.7258 240.603 46.1818 229.042 50.9947C240.592 55.8519 251.83 61.3079 262.227 67.4626Z" fill="#F2333D"/>
</svg>
