<svg width="32" height="32" viewBox="0 0 32 32" fill="none" xmlns="http://www.w3.org/2000/svg">
<path d="M16 32C24.8366 32 32 24.8366 32 16C32 7.16344 24.8366 0 16 0C7.16344 0 0 7.16344 0 16C0 24.8366 7.16344 32 16 32Z" fill="white"/>
<path d="M17.7725 26.192V17.2755H20.7469L21.3109 13.5894H17.7725V11.1924C17.7725 10.1853 18.2693 9.1983 19.8539 9.1983H21.4653V6.05604C21.4653 6.05604 20.0016 5.80762 18.6118 5.80762C15.6978 5.80762 13.7909 7.57346 13.7909 10.7694V13.5827H10.548V17.2688H13.7909V26.1853H17.7792L17.7725 26.192Z" fill="#222222"/>
</svg>
