<svg width="32" height="32" viewBox="0 0 32 32" fill="none" xmlns="http://www.w3.org/2000/svg">
<path d="M16 32C24.8366 32 32 24.8366 32 16C32 7.16344 24.8366 0 16 0C7.16344 0 0 7.16344 0 16C0 24.8366 7.16344 32 16 32Z" fill="white"/>
<path d="M20.4045 10.6421C19.8673 10.6421 19.4309 11.0785 19.4309 11.6157C19.4309 12.1528 19.8673 12.5892 20.4045 12.5892C20.9416 12.5892 21.378 12.1528 21.378 11.6157C21.378 11.0785 20.9416 10.6421 20.4045 10.6421Z" fill="#222222"/>
<path d="M16.0674 11.8976C13.8047 11.8976 11.965 13.7373 11.965 16C11.965 18.2627 13.8047 20.1024 16.0674 20.1024C18.3301 20.1024 20.1697 18.2627 20.1697 16C20.1697 13.7373 18.3301 11.8976 16.0674 11.8976ZM16.0674 18.6252C14.6171 18.6252 13.4421 17.4435 13.4421 16C13.4421 14.5564 14.6238 13.3747 16.0674 13.3747C17.5109 13.3747 18.6926 14.5564 18.6926 16C18.6926 17.4435 17.5109 18.6252 16.0674 18.6252Z" fill="#222222"/>
<path d="M19.3235 24.3257H12.6764C9.91687 24.3257 7.67432 22.0832 7.67432 19.3236V12.6765C7.67432 9.91699 9.91687 7.67444 12.6764 7.67444H19.3235C22.083 7.67444 24.3256 9.91699 24.3256 12.6765V19.3236C24.3256 22.0832 22.083 24.3257 19.3235 24.3257ZM12.6697 9.23885C10.7763 9.23885 9.23202 10.7831 9.23202 12.6765V19.3236C9.23202 21.217 10.7763 22.7613 12.6697 22.7613H19.3168C21.2102 22.7613 22.7545 21.217 22.7545 19.3236V12.6765C22.7545 10.7831 21.2102 9.23885 19.3168 9.23885H12.6697Z" fill="#222222"/>
</svg>
