<svg width="32" height="32" viewBox="0 0 32 32" fill="none" xmlns="http://www.w3.org/2000/svg">
<path d="M16 32C24.8366 32 32 24.8366 32 16C32 7.16344 24.8366 0 16 0C7.16344 0 0 7.16344 0 16C0 24.8366 7.16344 32 16 32Z" fill="white"/>
<path d="M9.5879 12.2534H12.3407V21.0893H9.5879V12.2534ZM10.9643 7.8623C11.8439 7.8623 12.5556 8.57401 12.5556 9.45358C12.5556 10.3331 11.8439 11.0448 10.9643 11.0448C10.0848 11.0448 9.36633 10.3331 9.36633 9.45358C9.36633 8.57401 10.078 7.8623 10.9643 7.8623Z" fill="#222222"/>
<path d="M14.0665 12.2533H16.6985V13.4619H16.7321C17.1014 12.7636 17.9944 12.0317 19.3305 12.0317C22.1102 12.0317 22.6272 13.858 22.6272 16.2416V21.0892H19.881V16.7921C19.881 15.7648 19.8609 14.4489 18.4509 14.4489C17.0409 14.4489 16.8059 15.5634 16.8059 16.7183V21.0892H14.0598V12.2533H14.0665Z" fill="#222222"/>
</svg>
