<svg width="32" height="32" viewBox="0 0 32 32" fill="none" xmlns="http://www.w3.org/2000/svg">
<path d="M16 32C24.8366 32 32 24.8366 32 16C32 7.16344 24.8366 0 16 0C7.16346 0 0 7.16344 0 16C0 24.8366 7.16346 32 16 32Z" fill="white"/>
<path d="M6.82814 15.6172C6.82814 15.6172 14.8315 12.334 17.6112 11.1724C18.672 10.7091 22.2843 9.23201 22.2843 9.23201C22.2843 9.23201 23.9494 8.58744 23.8084 10.1586C23.7614 10.8031 23.3921 13.0725 23.0228 15.5232C22.4656 18.9945 21.868 22.788 21.868 22.788C21.868 22.788 21.774 23.8556 20.9884 24.0369C20.2029 24.2249 18.907 23.3923 18.672 23.2043C18.484 23.0633 15.2008 20.9819 13.9989 19.9681C13.6766 19.6928 13.3074 19.1355 14.0459 18.4842C15.7111 16.9601 17.6985 15.06 18.907 13.8581C19.4643 13.3008 20.0149 12.005 17.7052 13.5828C14.4219 15.8522 11.1789 17.9806 11.1789 17.9806C11.1789 17.9806 10.4404 18.4439 9.05054 18.0276C7.6607 17.6114 6.04256 17.0541 6.04256 17.0541C6.04256 17.0541 4.93473 16.3625 6.82814 15.6172Z" fill="#222222"/>
</svg>
