<svg width="32" height="32" viewBox="0 0 32 32" fill="none" xmlns="http://www.w3.org/2000/svg">
<path d="M16 32C24.8366 32 32 24.8366 32 16C32 7.16344 24.8366 0 16 0C7.16346 0 0 7.16344 0 16C0 24.8366 7.16346 32 16 32Z" fill="white"/>
<path d="M22.9092 14.288C22.7614 14.3014 22.6137 14.3081 22.466 14.3081C20.8479 14.3081 19.3305 13.489 18.4442 12.1327V19.5318C18.4442 22.5532 15.9935 25.0039 12.9721 25.0039C9.95069 25.0039 7.5 22.5532 7.5 19.5318C7.5 16.5104 9.95069 14.0597 12.9721 14.0597C13.0862 14.0597 13.2004 14.0731 13.3078 14.0798V16.7722C13.1937 16.7588 13.0862 16.7387 12.9721 16.7387C11.4278 16.7387 10.179 17.9875 10.179 19.5318C10.179 21.0761 11.4278 22.3249 12.9721 22.3249C14.5164 22.3249 15.8726 21.1096 15.8726 19.5654L15.8995 6.99634H18.4778C18.7195 9.30603 20.586 11.1122 22.9024 11.2867V14.2813L22.9092 14.288Z" fill="#222222"/>
</svg>
