<svg width="32" height="32" viewBox="0 0 32 32" fill="none" xmlns="http://www.w3.org/2000/svg">
<path d="M16 32C24.8366 32 32 24.8366 32 16C32 7.16344 24.8366 0 16 0C7.16346 0 0 7.16344 0 16C0 24.8366 7.16346 32 16 32Z" fill="white"/>
<path d="M18.2915 9.90184C17.0569 8.82262 15.4196 8.22827 13.6814 8.22827C11.9428 8.22827 10.3055 8.82262 9.07084 9.90184C7.81776 10.9971 7.12781 12.4585 7.12781 14.0168C7.12781 15.827 8.08004 17.5192 9.69424 18.6121L9.3682 19.9805C9.31892 20.1876 9.4005 20.4037 9.57521 20.5284C9.66849 20.595 9.77847 20.6287 9.88873 20.6287C9.98506 20.6287 10.0817 20.603 10.1674 20.5512L11.8039 19.5644C12.2277 19.6761 12.6627 19.7483 13.1042 19.7824C13.0058 19.3672 12.9558 18.9422 12.9558 18.5103C12.9558 17.6766 13.1405 16.8681 13.5048 16.1071C13.8523 15.3817 14.347 14.732 14.9752 14.1763C16.2447 13.0531 17.9227 12.4346 19.7001 12.4346C19.7971 12.4346 19.8939 12.4368 19.9902 12.4404C19.6874 11.488 19.1095 10.6169 18.2915 9.90184ZM11.9174 12.5072C11.8177 12.6053 11.6797 12.6619 11.5393 12.6619C11.3985 12.6619 11.2606 12.6053 11.1612 12.5072C11.0618 12.409 11.0047 12.273 11.0047 12.1345C11.0047 11.9956 11.0618 11.8595 11.1612 11.7614C11.2606 11.6633 11.3985 11.6067 11.5393 11.6067C11.6797 11.6067 11.8177 11.6633 11.9174 11.7614C12.0169 11.8595 12.0739 11.9956 12.0739 12.1345C12.0739 12.273 12.0169 12.409 11.9174 12.5072ZM15.4282 12.5072C15.3284 12.6053 15.1905 12.6619 15.0501 12.6619C14.9094 12.6619 14.7714 12.6053 14.672 12.5072C14.5725 12.409 14.5155 12.273 14.5155 12.1345C14.5155 11.9956 14.5725 11.8595 14.672 11.7614C14.7717 11.6633 14.9094 11.6067 15.0501 11.6067C15.1905 11.6067 15.3284 11.6633 15.4282 11.7614C15.5276 11.8595 15.5847 11.9956 15.5847 12.1345C15.5847 12.273 15.5276 12.409 15.4282 12.5072Z" fill="#222222"/>
<path d="M25.375 18.5102C25.375 15.7417 22.8292 13.4894 19.7001 13.4894C16.5708 13.4894 14.025 15.7417 14.025 18.5102C14.025 21.2786 16.5708 23.531 19.7001 23.531C20.3776 23.531 21.0385 23.4269 21.6676 23.221L23.0714 23.7438C23.1328 23.7667 23.1967 23.7777 23.2601 23.7777C23.3946 23.7777 23.5264 23.7279 23.6276 23.6336C23.7763 23.4949 23.8317 23.2846 23.7703 23.092L23.4991 22.2415C24.6964 21.2899 25.375 19.9494 25.375 18.5102ZM18.087 17.5413C17.9874 17.6393 17.8496 17.6957 17.7091 17.6957C17.5684 17.6957 17.4304 17.6393 17.331 17.5413C17.2316 17.4432 17.1741 17.3071 17.1741 17.1682C17.1741 17.0292 17.2316 16.8935 17.331 16.795C17.4304 16.6969 17.5684 16.6408 17.7091 16.6408C17.8496 16.6408 17.9874 16.6969 18.087 16.795C18.1867 16.8935 18.2437 17.0292 18.2437 17.1682C18.2437 17.3071 18.1867 17.4432 18.087 17.5413ZM21.7919 17.5413C21.6925 17.6393 21.5546 17.6957 21.4142 17.6957C21.2735 17.6957 21.1355 17.6393 21.0361 17.5413C20.9366 17.4432 20.8796 17.3071 20.8796 17.1682C20.8796 17.0292 20.9366 16.8935 21.0361 16.795C21.1355 16.6969 21.2735 16.6408 21.4142 16.6408C21.5546 16.6408 21.6925 16.6969 21.7919 16.795C21.8915 16.8935 21.9485 17.0292 21.9485 17.1682C21.9485 17.3071 21.8915 17.4432 21.7919 17.5413Z" fill="#222222"/>
</svg>
