<svg width="32" height="32" viewBox="0 0 32 32" fill="none" xmlns="http://www.w3.org/2000/svg">
<path d="M16 32C24.8366 32 32 24.8366 32 16C32 7.16344 24.8366 0 16 0C7.16344 0 0 7.16344 0 16C0 24.8366 7.16344 32 16 32Z" fill="white"/>
<path d="M17.3562 14.8787L22.6604 8.70837H21.4048L16.7989 14.0663L13.1195 8.70837H8.8761L14.4422 16.8057L8.8761 23.2715H10.1317L14.9995 17.6182L18.887 23.2715H23.1304L17.3562 14.872V14.8787ZM15.6306 16.8796L15.0666 16.0739L10.5815 9.65508H12.5152L16.1342 14.8317L16.6982 15.6375L21.4048 22.3718H19.4711L15.6306 16.8796Z" fill="#222222"/>
</svg>
