<svg width="32" height="32" viewBox="0 0 32 32" fill="none" xmlns="http://www.w3.org/2000/svg">
<path d="M16 32C24.8365 32 32 24.8366 32 16C32 7.16344 24.8365 0 16 0C7.16343 0 0 7.16344 0 16C0 24.8366 7.16343 32 16 32Z" fill="white"/>
<path d="M23.768 13.9722C23.768 12.0855 22.2439 10.5614 20.3572 10.5614H11.6354C9.74873 10.5614 8.22461 12.0855 8.22461 13.9722V18.0276C8.22461 19.9143 9.74873 21.4384 11.6354 21.4384H20.3572C22.2439 21.4384 23.768 19.9143 23.768 18.0276V13.9722ZM18.6384 16.3021L14.7307 18.2358C14.5763 18.3163 14.0593 18.2089 14.0593 18.0343V14.0595C14.0593 13.8849 14.583 13.7708 14.7374 13.8581L18.4839 15.8925C18.6384 15.9798 18.8062 16.2081 18.6451 16.2954L18.6384 16.3021Z" fill="#222222"/>
</svg>
