<svg width="537" height="318" viewBox="0 0 537 318" fill="none" xmlns="http://www.w3.org/2000/svg">
<g clip-path="url(#clip0_1413_4056)">
<g filter="url(#filter0_d_1413_4056)">
<path d="M185.35 20.4701C181.29 14.7901 175.51 10.3101 167.98 7.01008C160.45 3.73008 151.77 2.08008 141.94 2.08008C120.24 2.08008 100.63 8.06008 83.12 20.0201C65.61 31.9901 50.71 47.9201 38.41 67.8001C26.11 87.7001 16.63 109.75 9.98 133.98C3.32 158.2 0 182.58 0 207.11C0 236.42 6.43 259.45 19.31 276.2C32.18 292.95 50.35 301.32 73.79 301.32C88.83 301.32 102.8 298.33 115.68 292.35C128.55 286.37 139.84 277.99 149.54 267.22C159.23 256.46 166.82 244.12 172.33 230.21C177.82 216.3 180.57 201.72 180.57 186.47C180.57 166.13 175.07 150.06 164.08 138.24C153.08 126.43 137.88 120.52 118.5 120.52C108.08 120.52 97.3 122.39 86.16 126.13C75.02 129.87 64.46 134.95 54.47 141.38C47.01 146.19 40.4 151.45 34.64 157.17C34.67 156.99 34.69 156.81 34.72 156.63C37.33 138.84 41.3 121.86 46.66 105.71C52.01 89.5601 58.74 74.9801 66.84 61.9701C74.94 48.9601 84.49 38.7201 95.49 31.2401C106.49 23.7701 118.93 20.0201 132.82 20.0201C142.66 20.0201 150.69 22.4901 156.91 27.4301C163.13 32.3601 166.1 39.9201 165.81 50.0801C165.81 51.2801 165.74 52.5501 165.6 53.9001C165.45 55.2401 165.23 56.6601 164.95 58.1601C166.39 59.3601 168.05 60.1801 169.94 60.6201C171.82 61.0701 173.63 61.3001 175.36 61.3001C180.28 61.3001 184.19 59.5801 187.08 56.1401C189.97 52.7001 191.42 47.5401 191.42 40.6601C191.42 32.8901 189.4 26.1601 185.35 20.4701ZM47.96 161.79C56.79 155.81 66.19 150.95 76.18 147.21C86.16 143.48 95.34 141.6 103.74 141.6C118.5 141.6 130 146.25 138.25 155.51C146.5 164.79 150.62 177.8 150.62 194.54C150.62 209.5 147.94 223.78 142.59 237.39C137.23 251 129.42 262.06 119.15 270.59C108.87 279.11 96.21 283.37 81.17 283.37C64.96 283.37 52.52 276.95 43.84 264.08C35.16 251.23 30.82 232.53 30.82 208C30.82 197.23 31.38 186.15 32.5 174.79C36.81 170.19 41.97 165.85 47.96 161.79Z" fill="#EE2436"/>
<path d="M268.689 301.33C211.799 300.92 187.729 253.46 187.949 197.69C187.649 149.11 203.819 100.07 231.579 61.7496C293.869 -27.3904 413.909 -19.9804 412.719 105.27C413.419 187.45 359.719 298.54 268.689 301.33ZM278.239 282.93C309.249 281.97 332.259 259.38 348.449 231.92C369.279 197.17 378.299 153.4 378.069 110.65C378.069 81.3396 373.149 58.9896 363.309 43.5796C346.419 15.1396 306.609 14.3196 281.489 33.7096C269.479 42.5296 258.919 54.7896 249.799 70.4996C218.489 118.02 192.869 282.19 278.229 282.93H278.239Z" fill="#EE2436"/>
</g>
<g filter="url(#filter1_d_1413_4056)">
<path d="M262.21 118.5C268.373 118.5 272.829 120.15 275.426 123.329L275.671 123.642L275.672 123.643C277.904 126.574 279.07 131.193 279.07 137.58V225.79H267.01V139.98C267.01 136.046 266.31 133.002 264.829 130.932C263.326 128.83 261.071 127.8 258.15 127.8C254.604 127.8 251.914 128.837 250.191 131.009L250.028 131.223L250.027 131.224C248.352 133.503 247.54 137.085 247.54 141.9V166.3H235.5V119.79H246.91V126.41H247.959L248.105 126.173C251.26 121.057 255.935 118.5 262.21 118.5Z" fill="#F5F5F5" stroke="#222222"/>
<path d="M307.779 118.52C315.118 118.52 320.804 121.162 324.904 126.437L325.297 126.955L325.299 126.958C329.056 132.009 330.762 138.248 330.377 145.72H296.046L296.07 146.242C296.258 150.326 297.345 153.473 299.405 155.599C301.472 157.731 304.445 158.76 308.239 158.76C310.844 158.76 313.212 158.063 315.317 156.655L315.316 156.654C317.138 155.538 318.356 154.194 318.898 152.609H329.321C327.597 157.532 325.002 161.215 321.552 163.696C317.949 166.287 313.37 167.6 307.779 167.6C300.71 167.6 295.084 165.469 290.857 161.232L290.453 160.815H290.452C286.175 156.304 284.02 150.414 284.02 143.1C284.02 136.023 286.093 130.478 290.226 125.922L290.632 125.483H290.633C295.028 120.844 300.732 118.52 307.779 118.52ZM307.409 127.34C303.724 127.34 300.826 128.54 298.766 130.969L298.569 131.207C297.032 133.132 296.195 135.374 296.07 137.925L296.56 137.948V138.449H318.389L318.281 137.859C317.655 134.429 316.451 131.791 314.621 130.009C312.781 128.217 310.36 127.34 307.409 127.34Z" fill="#F5F5F5" stroke="#222222"/>
<path d="M343.702 119.8L353.613 151.888L353.722 152.24H354.64L354.749 151.888L364.65 119.8H376.544L360.803 166.31H346.999L331.08 119.8H343.702Z" fill="#F5F5F5" stroke="#222222"/>
<mask id="path-6-inside-1_1413_4056" fill="white">
<path d="M400.951 118.02C408.671 118.02 414.641 120.899 418.871 126.659C422.791 131.929 424.511 138.45 424.021 146.229L424.012 146.22H389.741C390.111 154.25 394.001 158.26 401.411 158.26C403.921 158.26 406.191 157.589 408.211 156.239C410.111 155.079 411.271 153.699 411.701 152.109H423.191C420.029 161.769 413.648 167.051 404.041 167.958V195.64L420.491 178.549H435.932L418.012 196.009L437.951 226.06H422.142L409.091 204.829L404.041 209.699V226.06H390.991V166.374C388.034 165.218 385.457 163.48 383.262 161.159C378.882 156.539 376.691 150.52 376.691 143.1C376.691 135.68 378.941 129.88 383.441 125.14C387.941 120.39 393.781 118.02 400.951 118.02ZM400.581 127.84C396.901 127.84 394.092 129.07 392.132 131.52C390.662 133.359 389.861 135.499 389.741 137.949H410.961C409.731 131.209 406.271 127.84 400.581 127.84Z"/>
</mask>
<path d="M400.951 118.02C408.671 118.02 414.641 120.899 418.871 126.659C422.791 131.929 424.511 138.45 424.021 146.229L424.012 146.22H389.741C390.111 154.25 394.001 158.26 401.411 158.26C403.921 158.26 406.191 157.589 408.211 156.239C410.111 155.079 411.271 153.699 411.701 152.109H423.191C420.029 161.769 413.648 167.051 404.041 167.958V195.64L420.491 178.549H435.932L418.012 196.009L437.951 226.06H422.142L409.091 204.829L404.041 209.699V226.06H390.991V166.374C388.034 165.218 385.457 163.48 383.262 161.159C378.882 156.539 376.691 150.52 376.691 143.1C376.691 135.68 378.941 129.88 383.441 125.14C387.941 120.39 393.781 118.02 400.951 118.02ZM400.581 127.84C396.901 127.84 394.092 129.07 392.132 131.52C390.662 133.359 389.861 135.499 389.741 137.949H410.961C409.731 131.209 406.271 127.84 400.581 127.84Z" fill="#F5F5F5"/>
<path d="M400.951 118.02V117.02H400.951L400.951 118.02ZM418.871 126.659L418.065 127.251L418.069 127.256L418.871 126.659ZM424.021 146.229L423.314 146.937L424.88 148.503L425.02 146.292L424.021 146.229ZM424.012 146.22L424.719 145.513L424.426 145.22H424.012V146.22ZM389.741 146.22V145.22H388.694L388.742 146.266L389.741 146.22ZM401.411 158.26L401.411 159.26H401.411V158.26ZM408.211 156.239L407.69 155.386L407.672 155.396L407.655 155.408L408.211 156.239ZM411.701 152.109V151.109H410.936L410.736 151.848L411.701 152.109ZM423.191 152.109L424.142 152.421L424.571 151.109H423.191V152.109ZM404.041 167.958L403.947 166.962L403.041 167.048V167.958H404.041ZM404.041 195.64H403.041V198.121L404.761 196.333L404.041 195.64ZM420.491 178.549V177.549H420.066L419.771 177.855L420.491 178.549ZM435.932 178.549L436.629 179.265L438.391 177.549H435.932V178.549ZM418.012 196.009L417.314 195.293L416.72 195.871L417.178 196.562L418.012 196.009ZM437.951 226.06V227.06H439.815L438.784 225.507L437.951 226.06ZM422.142 226.06L421.29 226.583L421.582 227.06H422.142V226.06ZM409.091 204.829L409.943 204.305L409.292 203.246L408.397 204.109L409.091 204.829ZM404.041 209.699L403.347 208.979L403.041 209.274V209.699H404.041ZM404.041 226.06V227.06H405.041V226.06H404.041ZM390.991 226.06H389.991V227.06H390.991V226.06ZM390.991 166.374H391.991V165.691L391.355 165.443L390.991 166.374ZM383.262 161.159L383.988 160.472L383.987 160.471L383.262 161.159ZM376.691 143.1H375.691V143.1L376.691 143.1ZM383.441 125.14L384.167 125.828L384.167 125.827L383.441 125.14ZM400.581 127.84V126.84H400.581L400.581 127.84ZM392.132 131.52L391.351 130.895L391.351 130.895L392.132 131.52ZM389.741 137.949L388.742 137.9L388.691 138.949H389.741V137.949ZM410.961 137.949V138.949H412.16L411.945 137.77L410.961 137.949ZM400.951 118.02V119.02C408.382 119.02 414.04 121.771 418.065 127.251L418.871 126.659L419.677 126.067C415.242 120.028 408.96 117.02 400.951 117.02V118.02ZM418.871 126.659L418.069 127.256C421.822 132.303 423.501 138.577 423.023 146.167L424.021 146.229L425.02 146.292C425.522 138.322 423.76 131.556 419.673 126.062L418.871 126.659ZM424.021 146.229L424.729 145.522L424.719 145.513L424.012 146.22L423.305 146.927L423.314 146.937L424.021 146.229ZM424.012 146.22V145.22H389.741V146.22V147.22H424.012V146.22ZM389.741 146.22L388.742 146.266C388.934 150.419 390.042 153.702 392.218 155.947C394.407 158.205 397.528 159.26 401.411 159.26L401.411 158.26L401.411 157.26C397.885 157.26 395.355 156.309 393.654 154.555C391.94 152.787 390.919 150.05 390.74 146.174L389.741 146.22ZM401.411 158.26V159.26C404.11 159.26 406.575 158.535 408.767 157.071L408.211 156.239L407.655 155.408C405.807 156.643 403.732 157.26 401.411 157.26V158.26ZM408.211 156.239L408.732 157.093C410.775 155.846 412.15 154.282 412.666 152.37L411.701 152.109L410.736 151.848C410.393 153.117 409.447 154.313 407.69 155.386L408.211 156.239ZM411.701 152.109V153.109H423.191V152.109V151.109H411.701V152.109ZM423.191 152.109L422.241 151.798C420.705 156.489 418.411 160.049 415.395 162.546C412.383 165.039 408.585 166.525 403.947 166.962L404.041 167.958L404.135 168.954C409.104 168.485 413.3 166.876 416.671 164.086C420.037 161.3 422.515 157.389 424.142 152.421L423.191 152.109ZM404.041 167.958H403.041V195.64H404.041H405.041V167.958H404.041ZM404.041 195.64L404.761 196.333L421.212 179.242L420.491 178.549L419.771 177.855L403.321 194.946L404.041 195.64ZM420.491 178.549V179.549H435.932V178.549V177.549H420.491V178.549ZM435.932 178.549L435.234 177.833L417.314 195.293L418.012 196.009L418.71 196.725L436.629 179.265L435.932 178.549ZM418.012 196.009L417.178 196.562L437.118 226.612L437.951 226.06L438.784 225.507L418.845 195.456L418.012 196.009ZM437.951 226.06V225.06H422.142V226.06V227.06H437.951V226.06ZM422.142 226.06L422.994 225.536L409.943 204.305L409.091 204.829L408.239 205.353L421.29 226.583L422.142 226.06ZM409.091 204.829L408.397 204.109L403.347 208.979L404.041 209.699L404.735 210.419L409.785 205.549L409.091 204.829ZM404.041 209.699H403.041V226.06H404.041H405.041V209.699H404.041ZM404.041 226.06V225.06H390.991V226.06V227.06H404.041V226.06ZM390.991 226.06H391.991V166.374H390.991H389.991V226.06H390.991ZM390.991 166.374L391.355 165.443C388.536 164.34 386.083 162.686 383.988 160.472L383.262 161.159L382.535 161.846C384.831 164.273 387.531 166.095 390.627 167.305L390.991 166.374ZM383.262 161.159L383.987 160.471C379.812 156.067 377.691 150.309 377.691 143.1L376.691 143.1L375.691 143.1C375.691 150.73 377.951 157.011 382.536 161.847L383.262 161.159ZM376.691 143.1H377.691C377.691 135.91 379.86 130.364 384.167 125.828L383.441 125.14L382.716 124.451C378.023 129.395 375.691 135.449 375.691 143.1H376.691ZM383.441 125.14L384.167 125.827C388.459 121.298 394.026 119.02 400.951 119.02L400.951 118.02L400.951 117.02C393.537 117.02 387.424 119.482 382.715 124.452L383.441 125.14ZM400.581 127.84L400.581 126.84C396.654 126.84 393.533 128.167 391.351 130.895L392.132 131.52L392.913 132.144C394.65 129.973 397.149 128.84 400.581 128.84L400.581 127.84ZM392.132 131.52L391.351 130.895C389.745 132.905 388.872 135.248 388.742 137.9L389.741 137.949L390.74 137.998C390.85 135.751 391.579 133.814 392.913 132.144L392.132 131.52ZM389.741 137.949V138.949H410.961V137.949V136.949H389.741V137.949ZM410.961 137.949L411.945 137.77C411.307 134.278 410.07 131.53 408.141 129.651C406.192 127.752 403.637 126.84 400.581 126.84V127.84V128.84C403.215 128.84 405.235 129.612 406.746 131.084C408.276 132.574 409.384 134.881 409.977 138.129L410.961 137.949Z" fill="black" mask="url(#path-6-inside-1_1413_4056)"/>
<path d="M455.801 118.51C456.608 118.51 457.39 118.616 458.15 118.836V129.985C456.904 129.752 455.509 129.64 453.961 129.64C449.57 129.64 446.194 130.944 443.931 133.629C441.681 136.297 440.601 140.247 440.601 145.39V166.3H428.551V119.8H439.961V128.62H440.981L441.105 128.304C442.154 125.645 443.934 123.421 446.461 121.63L446.977 121.277C449.782 119.427 452.717 118.51 455.801 118.51Z" fill="#F5F5F5" stroke="#222222"/>
<path d="M307.94 177.77C315.023 177.77 320.764 179.874 325.089 184.059L325.503 184.47C329.864 188.919 332.07 194.864 332.07 202.359C332.07 209.618 330.001 215.332 325.905 219.737L325.503 220.159C321.143 224.607 315.31 226.859 307.94 226.859C300.802 226.859 295.189 224.756 290.881 220.571L290.468 220.16V220.159C286.106 215.709 283.9 209.794 283.9 202.359C283.9 195.098 285.961 189.292 290.063 184.892L290.467 184.47H290.468C294.829 180.021 300.632 177.77 307.94 177.77ZM307.94 186.609C303.96 186.609 300.923 187.929 298.9 190.624C296.899 193.292 295.95 197.232 295.95 202.359C295.95 206.762 296.789 210.323 298.504 213V213.001C300.564 216.353 303.734 218.02 307.94 218.02C311.919 218.02 314.977 216.711 317.022 214.034C319.048 211.383 320.021 207.464 320.021 202.359C320.02 197.255 319.049 193.315 317.024 190.642C314.981 187.942 311.922 186.609 307.94 186.609Z" fill="#F5F5F5" stroke="#222222"/>
<path d="M360.411 177.77C367.493 177.77 373.235 179.874 377.56 184.059L377.974 184.47C382.335 188.919 384.541 194.864 384.541 202.359C384.541 209.618 382.472 215.332 378.376 219.737L377.974 220.159C373.613 224.607 367.781 226.859 360.411 226.859C353.273 226.859 347.66 224.756 343.352 220.571L342.938 220.16V220.159C338.576 215.709 336.371 209.794 336.371 202.359C336.371 195.098 338.432 189.292 342.534 184.892L342.938 184.47H342.938C347.3 180.021 353.103 177.77 360.411 177.77ZM360.401 186.609C356.421 186.609 353.383 187.929 351.361 190.624C349.36 193.292 348.411 197.232 348.411 202.359C348.411 206.762 349.25 210.323 350.965 213V213.001C353.025 216.353 356.195 218.02 360.401 218.02C364.38 218.019 367.438 216.711 369.483 214.034C371.509 211.383 372.481 207.464 372.481 202.359C372.481 197.255 371.509 193.315 369.484 190.642C367.441 187.943 364.383 186.609 360.401 186.609Z" fill="#F5F5F5" stroke="#222222"/>
<path d="M460.83 177.779C468.169 177.779 473.854 180.422 477.955 185.696L478.348 186.215L478.349 186.218C482.106 191.269 483.813 197.507 483.428 204.979H449.097L449.121 205.502C449.309 209.586 450.396 212.733 452.456 214.858C454.523 216.99 457.496 218.019 461.29 218.02C463.895 218.02 466.262 217.322 468.368 215.915L468.367 215.914C470.189 214.798 471.407 213.453 471.949 211.869H482.372C480.648 216.792 478.053 220.475 474.603 222.956C471 225.546 466.421 226.859 460.83 226.859C453.761 226.859 448.135 224.729 443.908 220.492L443.504 220.076L443.503 220.075L443.108 219.648C439.093 215.194 437.07 209.446 437.07 202.359C437.07 195.283 439.144 189.738 443.276 185.182L443.683 184.743H443.684C448.079 180.103 453.783 177.779 460.83 177.779ZM460.471 186.6C456.786 186.6 453.887 187.799 451.826 190.229L451.63 190.467C450.092 192.392 449.256 194.633 449.131 197.185L449.62 197.208V197.709H471.45L471.342 197.119C470.716 193.688 469.511 191.051 467.682 189.269C465.842 187.477 463.421 186.6 460.471 186.6Z" fill="#F5F5F5" stroke="#222222"/>
<path d="M533.74 160.969V225.579H522.34V219.499H521.374L521.229 219.745C518.457 224.461 513.832 226.849 507.23 226.849C500.845 226.849 495.731 224.471 491.999 219.709L491.642 219.241L491.64 219.238L491.319 218.802C488.059 214.259 486.41 208.634 486.41 201.898C486.41 195.167 488.056 189.884 491.313 185.535L491.634 185.117L491.637 185.113C495.397 180.223 500.487 177.778 506.95 177.778C510.196 177.778 512.887 178.358 515.131 179.495C517.371 180.63 519.193 182.336 520.681 184.631L520.828 184.858H521.69V160.969H533.74ZM510.45 186.589C506.38 186.589 503.183 188.22 501.122 191.505C499.332 194.243 498.47 197.849 498.47 202.259C498.47 206.685 499.408 210.067 501.314 212.917V212.916C503.425 216.303 506.492 218.009 510.46 218.009C514.322 218.009 517.29 216.679 519.271 213.97C521.23 211.29 522.17 207.33 522.17 202.169V201.669H522.154C522.099 197.762 521.389 194.517 519.998 191.955L519.698 191.431L519.691 191.419L519.495 191.122C517.436 188.104 514.398 186.589 510.45 186.589Z" fill="#F5F5F5" stroke="#222222"/>
</g>
<g filter="url(#filter2_d_1413_4056)">
<path d="M496.59 95.6699C498.95 95.6699 501.246 95.9572 503.442 96.502C489.868 98.6511 479.49 110.574 479.49 124.95C479.49 139.325 489.865 151.235 503.437 153.395C501.241 153.938 498.947 154.229 496.59 154.229C480.673 154.229 467.76 141.131 467.76 124.95C467.76 108.769 480.673 95.6699 496.59 95.6699Z" fill="#F5F5F5" stroke="black"/>
<path d="M513.185 106.032L513.295 106.38H517.252L514.344 108.527L514.055 108.74L514.164 109.082L515.272 112.54L512.377 110.407L512.08 110.188L511.783 110.407L508.899 112.536L510.007 109.082L510.116 108.74L509.827 108.527L506.919 106.38H510.876L510.987 106.031L512.082 102.584L513.185 106.032Z" fill="#F5F5F5" stroke="black"/>
<path d="M497.624 117.713L497.735 118.06H501.682L498.773 120.208L498.484 120.421L498.594 120.762L499.702 124.228L496.817 122.098L496.521 121.879L496.224 122.098L493.326 124.231L494.437 120.762L494.546 120.421L494.257 120.208L491.349 118.06H495.305L495.416 117.713L496.52 114.268L497.624 117.713Z" fill="#F5F5F5" stroke="black"/>
<path d="M528.652 117.712L528.764 118.06H532.721L529.812 120.208L529.523 120.421L529.633 120.762L530.741 124.228L527.856 122.098L527.56 121.879L527.263 122.098L524.365 124.231L525.476 120.762L525.585 120.421L525.296 120.208L522.388 118.06H526.344L526.455 117.713L527.557 114.271L528.652 117.712Z" fill="#F5F5F5" stroke="black"/>
<path d="M522.765 136.572L522.876 136.92H526.828L523.914 139.067L523.625 139.28L523.734 139.622L524.841 143.076L521.958 140.947L521.661 140.729L521.364 140.947L518.468 143.08L519.577 139.622L519.687 139.28L519.397 139.067L516.489 136.92H520.445L520.557 136.572L521.66 133.12L522.765 136.572Z" fill="#F5F5F5" stroke="black"/>
<path d="M503.515 136.572L503.625 136.92H507.582L504.674 139.067L504.385 139.28L504.494 139.622L505.603 143.08L502.707 140.947L502.41 140.729L502.113 140.947L499.229 143.076L500.337 139.622L500.446 139.28L500.157 139.067L497.249 136.92H501.206L501.317 136.571L502.412 133.124L503.515 136.572Z" fill="#F5F5F5" stroke="black"/>
</g>
<g filter="url(#filter3_d_1413_4056)">
<path d="M261.25 239.569C263.764 239.569 267.111 240.32 269.813 241.939C272.508 243.554 274.5 245.987 274.5 249.359C274.5 250.49 274.227 251.629 273.632 252.471C273.052 253.29 272.146 253.859 270.77 253.859C269.918 253.859 269.243 253.526 268.696 252.836C268.202 252.212 267.806 251.284 267.524 250.021L267.411 249.46L267.41 249.451L267.304 248.954C266.75 246.521 265.848 244.834 264.46 243.756C262.984 242.609 261.047 242.22 258.649 242.22C253.655 242.22 250.46 246.112 250.46 249.93C250.46 251.975 250.863 253.539 251.999 254.975C253.06 256.315 254.733 257.506 257.186 258.909L257.174 258.946L257.538 259.147L263.118 262.228L263.12 262.229C266.368 263.997 268.535 265.617 269.893 267.363C271.235 269.091 271.81 270.974 271.81 273.329C271.81 276.907 270.346 280.245 267.433 283.264L267.146 283.556H267.146C264.099 286.602 259.726 288.119 253.75 288.119C249.886 288.119 246.413 287.267 243.328 285.496H243.329C240.298 283.746 238.77 281.212 238.77 278.039C238.77 276.535 239.157 275.387 239.804 274.624C240.442 273.871 241.377 273.439 242.6 273.439C243.515 273.439 244.08 273.674 244.485 274.136C244.865 274.568 245.155 275.251 245.376 276.302L245.467 276.775L245.469 276.784C246.011 279.587 247.03 281.74 248.574 283.193C250.127 284.655 252.159 285.359 254.619 285.359C257.732 285.359 260.298 284.545 262.089 282.869C263.885 281.189 264.829 278.709 264.829 275.529C264.829 274.087 264.424 272.737 263.593 271.588C262.856 270.409 262.223 269.642 261.281 268.891C260.357 268.153 259.14 267.436 257.272 266.338H257.271L251.802 262.974C249.119 261.301 247.235 259.85 246.019 258.276C244.818 256.724 244.25 255.028 244.25 252.819C244.25 248.743 245.934 245.452 248.876 243.167C251.831 240.873 256.088 239.569 261.25 239.569Z" fill="#F5F5F5" stroke="#222222"/>
<path d="M300.96 239.399C304.228 239.399 307.865 240.041 310.681 242.386C313.479 244.716 315.56 248.809 315.561 255.919C315.561 264.871 313.331 272.356 308.891 278.403L308.454 278.984L308.453 278.985C303.839 285.02 297.736 288.019 290.101 288.02C286.181 288.02 282.738 286.713 279.849 284.202L279.707 284.079H279.702C276.968 281.597 275.49 277.294 275.49 271.209C275.49 262.071 277.864 254.485 282.504 248.438C287.22 242.398 293.325 239.399 300.96 239.399ZM298.271 242.239C292.631 242.239 288.702 246.465 286.208 252.108C283.707 257.768 282.57 265.007 282.57 271.399C282.57 275.25 283.3 278.679 284.951 281.161C286.621 283.671 289.207 285.17 292.78 285.17C298.42 285.17 302.349 280.943 304.843 275.3C307.343 269.64 308.48 262.402 308.48 256.01C308.48 251.538 307.657 248.095 305.943 245.76C304.209 243.396 301.618 242.239 298.271 242.239Z" fill="#F5F5F5" stroke="#222222"/>
<path d="M355 239.399C357.391 239.399 359.514 239.727 361.389 240.312L361.761 240.434L361.77 240.437C362.834 240.773 363.657 241.015 364.228 241.173C364.512 241.252 364.737 241.31 364.896 241.35C364.976 241.369 365.043 241.385 365.095 241.396C365.122 241.401 365.206 241.419 365.28 241.419C365.967 241.419 366.884 241.238 367.667 241.073C368.071 240.988 368.44 240.907 368.758 240.845C369.086 240.781 369.306 240.749 369.42 240.749C369.907 240.749 370.16 240.84 370.285 240.935C370.381 241.007 370.46 241.126 370.46 241.399C370.46 241.541 370.421 241.885 370.323 242.47C370.228 243.039 370.084 243.803 369.89 244.76L369.769 245.359H369.793L362.9 277.936L362.899 277.94C361.051 287.103 357.677 295.359 352.611 302.543L352.115 303.235L352.109 303.244C346.897 310.733 339.15 315.34 330.5 315.34C328.29 315.34 326.359 314.939 325.001 314.21C323.654 313.487 322.92 312.476 322.92 311.22C322.92 309.388 323.276 308.393 323.792 307.847C324.298 307.311 325.062 307.1 326.17 307.1C326.418 307.1 326.881 307.195 327.613 307.435C328.15 307.61 328.804 307.854 329.58 308.166L330.397 308.501C332.757 309.581 335.122 310.074 337.479 310.078C340.583 310.379 343.234 309.125 345.392 307.229C347.544 305.336 349.234 302.78 350.449 300.396C351.354 298.891 352.036 296.817 352.704 294.225C353.365 291.658 353.957 289.695 354.249 288.335L354.251 288.322L355.401 282.263L355.402 282.257C355.888 279.537 356.259 277.994 356.361 277.451L356.473 276.859H355.209L355.063 277.099C352.818 280.78 350.62 283.509 348.204 285.318C345.802 287.117 343.167 288.02 340.01 288.02C336.513 288.019 333.803 286.58 331.95 283.985C330.083 281.37 329.06 277.542 329.06 272.749C329.06 267.429 330.105 262.206 332.188 257.178C334.371 252.141 337.407 247.887 341.472 244.473L341.471 244.472C345.516 241.083 350.024 239.399 355 239.399ZM355.03 242.14C349.696 242.14 345.333 244.88 341.86 250.127L341.527 250.643L341.524 250.647C338.092 256.229 336.35 263.447 336.35 272.359C336.35 276.075 337.132 278.793 338.469 280.594C339.819 282.412 341.702 283.249 343.77 283.249C347.358 283.249 350.673 281.086 353.515 276.869L353.514 276.868C356.256 272.934 358.221 268.151 359.502 262.695L359.749 261.595V261.594L361.188 254.866L361.188 254.867C362.055 250.942 362.55 248.185 362.55 246.68C362.55 244.869 361.371 243.72 359.902 243.05C358.443 242.384 356.609 242.14 355.03 242.14Z" fill="#F5F5F5" stroke="#222222"/>
<path d="M391.489 239.399C394.757 239.399 398.394 240.041 401.21 242.386C404.008 244.716 406.09 248.809 406.09 255.919C406.09 264.871 403.86 272.356 399.42 278.403L398.983 278.984L398.982 278.985C394.368 285.02 388.265 288.019 380.63 288.02C376.711 288.02 373.267 286.713 370.378 284.202L370.236 284.079H370.231C367.497 281.597 366.02 277.294 366.02 271.209C366.02 262.071 368.393 254.485 373.033 248.438C377.749 242.398 383.855 239.399 391.489 239.399ZM388.8 242.239C383.16 242.239 379.231 246.465 376.737 252.108C374.237 257.768 373.1 265.007 373.1 271.399C373.1 275.25 373.83 278.679 375.48 281.161C377.15 283.671 379.736 285.17 383.31 285.17C388.949 285.17 392.879 280.943 395.372 275.3C397.873 269.64 399.01 262.402 399.01 256.01C399.01 251.538 398.186 248.095 396.473 245.76C394.739 243.396 392.147 242.239 388.8 242.239Z" fill="#F5F5F5" stroke="#222222"/>
<path d="M430.739 239.399C434.007 239.399 437.644 240.041 440.46 242.386C443.258 244.716 445.34 248.809 445.34 255.919C445.34 264.871 443.11 272.356 438.67 278.403L438.233 278.984L438.232 278.985C433.618 285.02 427.515 288.019 419.88 288.02C415.961 288.02 412.517 286.713 409.628 284.202L409.486 284.079H409.481C406.747 281.597 405.27 277.294 405.27 271.209C405.27 262.071 407.643 254.485 412.283 248.438C416.999 242.398 423.105 239.399 430.739 239.399ZM428.04 242.239C422.4 242.239 418.471 246.465 415.978 252.108C413.477 257.768 412.34 265.007 412.34 271.399C412.34 275.25 413.07 278.679 414.721 281.161C416.391 283.671 418.977 285.17 422.55 285.17C428.19 285.17 432.119 280.943 434.612 275.3C437.113 269.64 438.25 262.402 438.25 256.01C438.25 251.538 437.426 248.095 435.713 245.76C433.979 243.396 431.387 242.239 428.04 242.239Z" fill="#F5F5F5" stroke="#222222"/>
<path d="M489.081 222.698C489.046 223.068 488.993 223.56 488.927 224.101C488.806 225.088 488.651 226.182 488.51 226.888L478.41 275.338L478.284 275.939H478.288C477.928 277.513 477.677 279.055 477.745 280.263C477.784 280.944 477.926 281.585 478.267 282.067C478.63 282.581 479.179 282.859 479.88 282.859C480.184 282.859 480.57 282.757 480.932 282.64C481.31 282.517 481.728 282.355 482.12 282.198C482.521 282.038 482.883 281.887 483.183 281.771C483.33 281.713 483.452 281.669 483.544 281.64C483.658 281.603 483.669 281.609 483.63 281.609C483.868 281.609 483.993 281.678 484.058 281.742C484.122 281.807 484.189 281.932 484.189 282.17C484.189 282.434 484.056 282.778 483.675 283.214C483.344 283.592 482.856 284.004 482.206 284.448L481.917 284.641L481.915 284.642C479.166 286.445 476.862 287.25 474.979 287.25C473.299 287.25 472.416 286.897 471.91 286.252C471.375 285.57 471.149 284.432 471.149 282.56C471.149 281.55 471.332 279.958 471.809 277.755L471.892 277.372L471.538 277.2L471.148 277.01L470.747 276.814L470.508 277.191C465.837 284.53 461.259 288.019 454.97 288.02C451.472 288.02 448.762 286.58 446.909 283.996C445.042 281.392 444.02 277.587 444.02 272.84C444.02 267.764 444.94 262.769 446.853 258.024L447.248 257.079L447.25 257.075C449.363 252.114 452.368 247.959 456.247 244.69L456.626 244.377C460.677 241.071 465.088 239.39 469.869 239.39C473.369 239.39 476.053 240.048 478.155 241.428L478.771 241.832L478.919 241.109L480.939 231.22L480.942 231.207L480.944 231.193C481.042 230.539 481.14 229.916 481.14 229.39C481.14 228.777 481.04 228.135 480.474 227.697C479.956 227.298 479.153 227.159 478.04 227.159H476.979C476.792 227.159 476.734 227.12 476.729 227.116L476.726 227.108C476.72 227.096 476.71 227.06 476.71 226.989C476.71 226.473 476.716 226.187 476.78 226.008L476.786 225.992L476.791 225.976C476.826 225.852 476.996 225.624 477.535 225.349C478.049 225.087 478.798 224.833 479.787 224.598L485.448 223.349C486.207 223.206 486.822 223.111 487.247 223.051C487.46 223.021 487.625 223 487.736 222.986C487.792 222.98 487.834 222.975 487.861 222.972C487.875 222.97 487.886 222.968 487.893 222.968C487.896 222.967 487.898 222.967 487.899 222.967H487.901L487.932 222.964L487.962 222.957L489.081 222.698ZM469.859 242.149C463.435 242.345 458.317 246.306 455.55 252.05L455.283 252.626L455.282 252.627C452.562 258.755 451.3 265.265 451.3 271.77C451.3 275.461 451.88 278.314 453.108 280.258C454.361 282.24 456.257 283.229 458.72 283.229C462.208 283.229 465.331 281.101 468.188 277.059L468.463 276.661C471.203 272.637 473.168 267.937 474.45 262.645L474.697 261.578L474.698 261.574L476.139 254.844V254.843C476.574 252.771 476.913 251.055 477.144 249.699C477.372 248.353 477.5 247.33 477.5 246.659C477.5 245.148 476.863 243.973 475.601 243.204C474.378 242.46 472.609 242.119 470.359 242.119H469.859V242.149Z" fill="#F5F5F5" stroke="#222222"/>
</g>
<g opacity="0.7">
<path d="M80.79 302.32C57.12 302.32 38.52 293.74 25.52 276.81C12.57 259.97 6 236.52 6 207.11C6 182.58 9.37 157.88 16.02 133.71C22.66 109.53 32.26 87.1801 44.56 67.2701C56.88 47.3501 72.02 31.1801 89.56 19.1901C107.15 7.18008 127.13 1.08008 148.94 1.08008C158.85 1.08008 167.74 2.77008 175.38 6.09008C183.04 9.45008 189.02 14.0901 193.16 19.8901C197.31 25.7201 199.42 32.7101 199.42 40.6601C199.42 47.7501 197.88 53.1701 194.85 56.7801C191.78 60.4401 187.57 62.3001 182.36 62.3001C180.57 62.3001 178.67 62.0601 176.71 61.5901C174.69 61.1201 172.87 60.2201 171.31 58.9301L170.86 58.5501L170.97 57.9701C171.26 56.4401 171.47 55.0701 171.61 53.7801C171.74 52.4801 171.81 51.2301 171.81 50.0701C172.09 40.2501 169.22 32.9101 163.29 28.2001C157.28 23.4301 149.38 21.0101 139.82 21.0101C126.22 21.0101 113.85 24.7301 103.05 32.0601C92.21 39.4301 82.67 49.6701 74.69 62.4901C66.66 75.3801 59.91 90.0301 54.61 106.02C49.55 121.27 45.67 137.53 43.07 154.4C48.35 149.44 54.34 144.79 60.93 140.54C70.94 134.1 81.67 128.93 92.84 125.18C104.03 121.42 115.02 119.52 125.5 119.52C145.08 119.52 160.66 125.59 171.81 137.56C182.93 149.52 188.57 165.98 188.57 186.47C188.57 201.77 185.77 216.61 180.26 230.58C174.72 244.56 166.99 257.11 157.28 267.89C147.53 278.71 136.03 287.25 123.1 293.26C110.15 299.27 95.91 302.32 80.79 302.32ZM148.94 3.08008C127.54 3.08008 107.94 9.06008 90.68 20.8501C73.38 32.6801 58.43 48.6501 46.26 68.3301C34.06 88.0701 24.53 110.25 17.94 134.25C11.34 158.25 8 182.76 8 207.12C8 236.08 14.43 259.12 27.1 275.6C39.71 292.01 57.77 300.33 80.79 300.33C95.62 300.33 109.57 297.34 122.26 291.45C134.95 285.55 146.23 277.18 155.8 266.56C165.35 255.96 172.96 243.6 178.4 229.85C183.82 216.12 186.57 201.52 186.57 186.48C186.57 166.51 181.11 150.51 170.35 138.93C159.6 127.38 144.51 121.53 125.5 121.53C115.24 121.53 104.46 123.4 93.48 127.09C82.47 130.79 71.88 135.88 62.01 142.23C54.64 146.98 48.02 152.25 42.34 157.89L40.13 160.08L40.73 156.48C43.34 138.67 47.37 121.48 52.71 105.41C58.06 89.2701 64.88 74.4801 72.99 61.4601C81.12 48.4001 90.86 37.9601 101.93 30.4301C113.06 22.8701 125.81 19.0401 139.82 19.0401C149.85 19.0401 158.16 21.6101 164.53 26.6701C170.98 31.7901 174.11 39.6801 173.81 50.1301C173.81 51.3301 173.74 52.6501 173.6 54.0201C173.47 55.1901 173.29 56.4201 173.05 57.7701C174.26 58.6701 175.65 59.3101 177.17 59.6701C178.99 60.1001 180.73 60.3201 182.36 60.3201C187.02 60.3201 190.6 58.7501 193.31 55.5201C196.03 52.2801 197.42 47.2901 197.42 40.6801C197.42 33.1501 195.44 26.5601 191.54 21.0701C187.61 15.5701 181.9 11.1501 174.58 7.94008C167.2 4.72008 158.57 3.09008 148.94 3.09008V3.08008ZM88.17 284.37C71.68 284.37 58.84 277.73 50.01 264.64C41.26 251.68 36.82 232.63 36.82 208C36.82 197.24 37.39 186.03 38.51 174.69L38.54 174.35L38.77 174.1C43.12 169.46 48.37 165.04 54.4 160.96C63.26 154.96 72.83 150.02 82.83 146.27C92.9 142.51 102.29 140.6 110.74 140.6C125.71 140.6 137.58 145.39 146 154.85C154.38 164.27 158.62 177.63 158.62 194.54C158.62 209.54 155.89 224.08 150.52 237.76C145.12 251.46 137.14 262.77 126.79 271.36C116.37 279.99 103.38 284.37 88.17 284.37ZM40.46 175.23C39.37 186.39 38.82 197.41 38.82 208C38.82 232.22 43.14 250.9 51.67 263.52C60.11 276.03 72.39 282.37 88.17 282.37C102.9 282.37 115.46 278.15 125.51 269.82C135.6 261.44 143.39 250.41 148.66 237.02C153.94 223.58 156.62 209.29 156.62 194.54C156.62 178.13 152.54 165.22 144.5 156.17C136.48 147.16 125.12 142.6 110.74 142.6C102.53 142.6 93.38 144.47 83.53 148.15C73.68 151.84 64.25 156.71 55.52 162.62C49.72 166.55 44.66 170.79 40.46 175.23Z" fill="#F5F5F5"/>
<path d="M275.719 302.32C248.499 302.13 227.439 291.53 213.079 270.83C200.449 252.62 193.829 227.32 193.949 197.68C193.649 149.79 209.619 100.02 237.769 61.16C254.229 37.6 275.289 19.82 298.669 9.76003C320.899 0.180033 344.029 -1.60997 363.789 4.71003C400.469 16.45 421.219 53.1 420.719 105.27C420.739 107.69 420.719 110.18 420.639 112.65L418.639 112.59C418.709 110.15 418.739 107.68 418.719 105.27C419.209 54.02 398.959 18.06 363.179 6.61003C322.349 -6.45997 271.449 16.45 239.399 62.32C211.489 100.86 195.659 150.19 195.949 197.68C195.699 261.6 225.509 299.96 275.699 300.32C293.259 299.78 310.209 295.11 326.029 286.43L326.989 288.18C310.889 297.01 293.639 301.77 275.719 302.32ZM236.289 250.16C224.799 224.24 225.219 190.35 227.599 166.48L229.589 166.68C227.229 190.31 226.799 223.83 238.109 249.35L236.279 250.16H236.289ZM240.189 112.1L238.269 111.53C243.329 94.35 249.619 79.59 255.969 69.95C265.079 54.25 275.829 41.77 287.899 32.91C302.219 21.86 321.069 17.22 338.319 20.51C352.479 23.22 364.149 31.23 371.179 43.07C381.059 58.55 386.079 81.3 386.079 110.65H384.079C384.079 81.68 379.169 59.3 369.479 44.12C360.829 29.55 347.559 24.31 337.949 22.47C321.259 19.28 302.999 23.78 289.109 34.5C277.249 43.21 266.679 55.49 257.679 71C251.409 80.53 245.209 95.1 240.199 112.1H240.189Z" fill="#F5F5F5"/>
</g>
</g>
<defs>
<filter id="filter0_d_1413_4056" x="0" y="1.97461" width="414.729" height="301.355" filterUnits="userSpaceOnUse" color-interpolation-filters="sRGB">
<feFlood flood-opacity="0" result="BackgroundImageFix"/>
<feColorMatrix in="SourceAlpha" type="matrix" values="0 0 0 0 0 0 0 0 0 0 0 0 0 0 0 0 0 0 127 0" result="hardAlpha"/>
<feOffset dx="2" dy="2"/>
<feComposite in2="hardAlpha" operator="out"/>
<feColorMatrix type="matrix" values="0 0 0 0 0 0 0 0 0 0 0 0 0 0 0 0 0 0 0.8 0"/>
<feBlend mode="normal" in2="BackgroundImageFix" result="effect1_dropShadow_1413_4056"/>
<feBlend mode="normal" in="SourceGraphic" in2="effect1_dropShadow_1413_4056" result="shape"/>
</filter>
<filter id="filter1_d_1413_4056" x="235" y="118" width="301.24" height="111.359" filterUnits="userSpaceOnUse" color-interpolation-filters="sRGB">
<feFlood flood-opacity="0" result="BackgroundImageFix"/>
<feColorMatrix in="SourceAlpha" type="matrix" values="0 0 0 0 0 0 0 0 0 0 0 0 0 0 0 0 0 0 127 0" result="hardAlpha"/>
<feOffset dx="2" dy="2"/>
<feComposite in2="hardAlpha" operator="out"/>
<feColorMatrix type="matrix" values="0 0 0 0 0.133333 0 0 0 0 0.133333 0 0 0 0 0.133333 0 0 0 1 0"/>
<feBlend mode="normal" in2="BackgroundImageFix" result="effect1_dropShadow_1413_4056"/>
<feBlend mode="normal" in="SourceGraphic" in2="effect1_dropShadow_1413_4056" result="shape"/>
</filter>
<filter id="filter2_d_1413_4056" x="467.26" y="95.1699" width="68.9785" height="61.5596" filterUnits="userSpaceOnUse" color-interpolation-filters="sRGB">
<feFlood flood-opacity="0" result="BackgroundImageFix"/>
<feColorMatrix in="SourceAlpha" type="matrix" values="0 0 0 0 0 0 0 0 0 0 0 0 0 0 0 0 0 0 127 0" result="hardAlpha"/>
<feOffset dx="2" dy="2"/>
<feComposite in2="hardAlpha" operator="out"/>
<feColorMatrix type="matrix" values="0 0 0 0 0.133333 0 0 0 0 0.133333 0 0 0 0 0.133333 0 0 0 1 0"/>
<feBlend mode="normal" in2="BackgroundImageFix" result="effect1_dropShadow_1413_4056"/>
<feBlend mode="normal" in="SourceGraphic" in2="effect1_dropShadow_1413_4056" result="shape"/>
</filter>
<filter id="filter3_d_1413_4056" x="238.27" y="222.06" width="253.359" height="95.7803" filterUnits="userSpaceOnUse" color-interpolation-filters="sRGB">
<feFlood flood-opacity="0" result="BackgroundImageFix"/>
<feColorMatrix in="SourceAlpha" type="matrix" values="0 0 0 0 0 0 0 0 0 0 0 0 0 0 0 0 0 0 127 0" result="hardAlpha"/>
<feOffset dx="2" dy="2"/>
<feComposite in2="hardAlpha" operator="out"/>
<feColorMatrix type="matrix" values="0 0 0 0 0.133333 0 0 0 0 0.133333 0 0 0 0 0.133333 0 0 0 1 0"/>
<feBlend mode="normal" in2="BackgroundImageFix" result="effect1_dropShadow_1413_4056"/>
<feBlend mode="normal" in="SourceGraphic" in2="effect1_dropShadow_1413_4056" result="shape"/>
</filter>
<clipPath id="clip0_1413_4056">
<rect width="537" height="318" fill="white"/>
</clipPath>
</defs>
</svg>
