<svg width="65" height="113" viewBox="0 0 65 113" fill="none" xmlns="http://www.w3.org/2000/svg">
<rect x="1.25" y="1.25" width="62.5" height="110.5" rx="13.75" stroke="#333333" stroke-width="2.5"/>
<g clip-path="url(#clip0_1567_9)">
<path d="M40.4929 55.7604L43.1794 55.7604C43.6284 55.7604 44 56.1255 44 56.5744C44 56.7569 43.9381 56.9395 43.8142 57.0841L39.6258 62.1658C39.3394 62.5158 38.8206 62.569 38.4645 62.2876C38.4181 62.2495 38.3794 62.2115 38.3406 62.1658L34.1523 57.0765C33.8658 56.7265 33.92 56.2168 34.2761 55.9353C34.4232 55.8212 34.6013 55.7528 34.7948 55.7528L37.5123 55.7528C37.3342 51.8045 33.9355 48.7539 29.9174 48.9289C29.9174 48.9289 29.9097 48.9289 29.9019 48.9289C26.1703 49.1038 23.151 52.0784 22.9884 55.7451C22.8335 59.237 25.2723 62.3332 28.7561 63.0559C29.0503 63.1168 29.2671 63.3754 29.2594 63.6721L29.2594 65.361C29.2594 65.7185 28.9729 66 28.6168 66C28.5781 66 28.5471 66 28.5084 65.9924C23.4994 65.148 19.8839 60.8193 20 55.8288C20.1239 50.4884 24.5523 46.1293 29.9871 46C35.6232 45.8631 40.3148 50.2221 40.4852 55.7604L40.4929 55.7604Z" fill="#333333"/>
</g>
<defs>
<clipPath id="clip0_1567_9">
<rect width="20" height="24" fill="white" transform="matrix(1.19249e-08 -1 -1 -1.19249e-08 44 66)"/>
</clipPath>
</defs>
</svg>
