<svg width="422" height="528" viewBox="0 0 422 528" fill="none" xmlns="http://www.w3.org/2000/svg">
<g clip-path="url(#clip0_215_154)">
<path d="M361.211 489.734C360.711 486.45 360.173 483.167 359.597 479.896C358.982 476.395 358.329 472.868 358.482 469.315C358.636 465.763 359.597 462.3 360.494 458.862C361.659 454.412 362.723 449.936 363.709 445.434C364.196 443.215 364.657 440.983 365.093 438.752C365.311 437.623 365.439 436.443 365.746 435.34C366.284 433.442 365.849 431.544 364.798 429.812C362.172 425.452 356.317 424.772 351.385 423.515C348.221 422.707 344.672 421.54 341.905 423.258C340.854 423.913 340.06 424.926 339.355 425.939C336.921 429.402 335.051 433.25 333.795 437.29C333.155 439.329 332.681 441.42 332.373 443.536C332.219 444.587 332.104 445.652 332.027 446.716C331.963 447.678 332.181 448.666 332.283 449.641C332.386 450.692 332.514 451.757 332.629 452.809C333.078 456.964 333.539 461.12 333.987 465.275C334.192 467.122 334.244 469.072 334.782 470.854C335.166 472.15 335.384 473.15 335.166 474.522C333.68 484.155 332.04 493.71 332.078 503.496C332.091 507.92 332.437 512.435 334.128 516.539C334.525 517.514 335.025 518.502 335.858 519.156C336.793 519.9 338.023 520.118 339.201 520.323C341.559 520.733 343.929 521.144 346.286 521.554C349.117 522.041 351.987 522.542 354.844 522.247C357.701 521.952 360.583 520.759 362.3 518.45C362.774 517.822 363.017 517.322 363.632 516.873C364.273 516.411 364.452 515.821 364.375 515.013C363.568 506.561 362.518 498.134 361.237 489.746L361.211 489.734Z" fill="#EC9D74"/>
<path d="M302.19 556.209C302.164 552.977 302.216 549.732 302.254 546.5C302.331 540.459 302.382 534.367 302.792 528.339C303.176 522.798 304.06 517.257 306.687 512.307C309.403 507.189 314.143 503.521 319.626 501.79C324.879 500.135 330.516 500.328 335.896 501.046C338.881 501.443 341.93 501.905 344.826 502.726C347.823 503.572 350.719 504.714 353.665 505.727C359.264 507.651 365.644 509.575 370.064 513.705C374.214 517.578 375.688 523.157 376.175 528.621C376.751 535.136 376.303 541.806 376.239 548.334C376.2 552.156 376.431 556.145 375.636 559.89C375.278 561.596 375.316 563.404 375.214 565.148C375.162 566.033 375.137 566.918 374.906 567.79C374.881 567.906 374.817 568.15 374.74 568.393C375.022 568.611 375.201 568.932 375.162 569.394C374.983 571.587 372.498 572.626 370.794 571.202C369.795 570.355 369.41 568.457 369.18 567.2C368.859 565.533 368.923 563.725 368.834 562.032C368.757 560.531 368.36 559.159 368.244 557.671C368.116 555.901 368.052 554.144 368.039 552.374C368.014 549.155 367.988 545.936 367.963 542.716C367.937 539.754 367.937 536.791 367.886 533.841C367.847 531.468 367.719 528.98 367.386 527.184C366.912 524.645 366.387 523.157 365.195 521.208C365.183 521.182 365.003 520.938 364.952 520.861C364.837 520.733 364.734 520.605 364.606 520.477C364.222 520.053 363.812 519.643 363.363 519.284C362.633 518.707 361.16 517.912 360.084 517.411C355.203 515.09 349.476 513.512 343.903 512.538C342.468 512.281 341.021 512.037 339.586 511.781C338.92 511.653 338.241 511.537 337.574 511.435C337.19 511.37 336.806 511.319 336.421 511.255C336.229 511.229 336.037 511.204 335.845 511.165C336.216 511.217 336.242 511.217 335.909 511.165C333.436 510.845 330.938 510.678 328.44 510.768C327.876 510.793 327.313 510.819 326.762 510.87C326.685 510.87 326.39 510.909 326.211 510.922C326.121 510.922 326.032 510.947 326.019 510.947C324.712 511.178 323.418 511.473 322.175 511.922C322.06 511.96 321.945 512.012 321.842 512.05C321.74 512.089 321.586 512.153 321.522 512.191C320.984 512.486 320.433 512.756 319.921 513.089C319.729 513.217 319.549 513.346 319.357 513.474C318.845 514.013 318.319 514.461 317.845 514.974C317.845 514.974 317.794 515.026 317.756 515.064C317.653 515.205 317.487 515.411 317.448 515.475C317.153 515.911 316.884 516.347 316.628 516.809C316.539 516.975 316.154 517.796 316.077 517.912C315.911 518.348 315.744 518.771 315.603 519.207C315.257 520.297 314.988 521.426 314.783 522.554C314.732 522.824 314.642 523.401 314.617 523.555C314.553 524.119 314.489 524.683 314.45 525.248C313.951 531.571 314.399 537.958 314.373 544.294C314.361 547.847 314.373 551.399 314.309 554.952C314.271 556.824 314.258 558.71 314.181 560.595C314.079 563.16 313.144 565.02 312.003 567.226C310.517 570.086 305.79 570.163 304.329 567.226C303.356 565.277 302.357 563.455 302.228 561.224C302.139 559.556 302.203 557.876 302.203 556.209H302.19Z" fill="#1F1F1F"/>
<path d="M377.225 541.331C377.225 539.869 377.199 538.407 377.199 536.945C377.174 533.815 377.148 530.673 376.751 527.556C376.418 524.991 375.79 522.49 374.74 520.118C373.984 518.399 372.639 515.321 370.422 515.282C370.153 515.282 369.974 515.5 369.948 515.757C369.858 516.783 370.499 517.732 370.999 518.578C371.562 519.54 372.1 520.502 372.51 521.554C373.471 523.991 373.958 526.594 374.201 529.198C374.458 531.956 374.458 534.726 374.483 537.483C374.483 538.856 374.509 540.215 374.522 541.588C374.522 542.78 374.342 544.076 375.29 544.948C375.636 545.269 376.174 545.281 376.533 544.948C377.52 544.012 377.263 542.575 377.251 541.318L377.225 541.331Z" fill="#4B4943"/>
<path d="M359.11 496.621C358.534 494.62 357.97 492.607 357.393 490.606C356.894 488.861 356.484 487.002 355.344 485.552C353.358 483.026 349.156 482.641 346.401 484.013C345.953 484.231 346.03 485.039 346.542 485.129C349.117 485.54 352.423 484.462 354.075 487.156C354.908 488.515 355.203 490.208 355.625 491.722C356.125 493.543 356.637 495.351 357.137 497.173C357.496 498.442 359.482 497.904 359.123 496.621H359.11Z" fill="#CB7A55"/>
<path d="M358.098 513.358C357.829 511.948 357.547 510.537 357.239 509.126C356.945 507.792 356.829 506.189 356.215 504.958C355.523 503.56 353.716 502.906 352.397 503.906C351.961 504.239 351.667 504.701 351.462 505.227C351.193 504.804 350.911 504.38 350.552 503.996C349.642 503.008 348.003 503.483 347.503 504.599C347.439 504.085 347.388 503.56 347.324 503.047C347.208 501.969 346.657 501.02 345.556 500.725C344.62 500.469 343.25 500.866 342.827 501.828C341.764 504.278 341.213 506.83 341.29 509.511C341.366 512.166 341.956 514.795 342.558 517.373C342.827 518.54 343.211 519.694 344.018 520.605C344.941 521.644 346.209 522.067 347.554 522.195C348.682 522.311 349.847 522.234 350.988 522.234C352.422 522.234 353.755 522.182 355.164 521.887C355.741 521.772 356.138 521.4 356.394 520.951C356.855 520.682 357.227 520.259 357.316 519.746C357.38 519.399 357.393 519.066 357.419 518.72C357.739 518.643 358.008 518.425 358.085 518.027C358.239 517.283 358.392 516.565 358.405 515.795C358.418 514.962 358.239 514.166 358.085 513.346L358.098 513.358Z" fill="#EC9D74"/>
<path d="M267.856 133.066C255.621 124.306 249.19 108.761 251.086 93.9092C251.381 91.5878 248.345 91.0106 246.935 92.1906C239.21 98.6419 231.203 105.311 221.505 108.518C219.968 109.031 218.341 109.249 216.829 109.8C216.483 109.928 216.137 110.082 215.83 110.313C215.356 110.672 215.048 111.147 214.907 111.724C214.536 113.276 215.176 115.084 215.433 116.598C215.83 118.971 216.073 121.356 216.15 123.754C216.214 125.717 216.176 127.692 216.022 129.654C215.791 132.668 215.279 135.708 213.895 138.388C211.487 143.057 206.785 146.02 202.314 148.764C201.366 149.342 206.157 152.689 206.58 152.881C208.925 153.997 211.487 154.228 214.023 154.421C220.519 154.934 227.091 155.126 233.573 154.331C246.871 152.702 258.581 145.815 268.368 136.939C269.65 135.772 269.099 133.912 267.869 133.04L267.856 133.066Z" fill="#E5966D"/>
<path d="M242.977 10.4144C239.518 9.47814 236.008 8.311 232.484 7.82363C228.654 7.29778 224.849 7.09257 220.98 7.33626C213.306 7.82363 205.786 9.85008 198.701 12.7871C197.318 13.3643 195.985 14.0312 194.896 15.1086C193.628 16.3655 192.859 18.02 191.681 19.341C187.645 23.8813 184.827 29.127 183.52 35.0909C181.957 42.1578 183.251 49.0067 183.84 56.0736C184.302 61.5886 184.391 67.1678 183.482 72.6443C183.238 74.1321 182.918 75.5942 182.598 77.0692C182.213 78.8135 181.842 80.5449 181.458 82.2892C181.265 83.1614 181.073 84.0335 180.894 84.8928C180.753 85.5341 180.535 86.2139 180.702 86.868C180.779 87.1758 180.932 87.4708 181.035 87.7786C181.176 88.1377 181.253 88.5353 181.522 88.8303C182.137 89.51 183.213 89.7281 184.033 90.0102C184.122 90.0359 184.199 90.0744 184.289 90.1C185.391 90.5104 186.672 91.3826 186.403 92.7036C186.262 93.3834 186.403 93.9605 186.556 94.6403C186.761 95.4868 186.979 96.3333 187.223 97.1669C187.568 98.3982 187.94 99.6038 188.337 100.809C189.951 105.619 192.04 110.288 194.704 114.61C197.459 119.073 201.174 122.562 206.414 123.742C216.535 126.025 233.407 120.984 241.311 115.264C256.569 104.195 261.041 87.6375 266.87 69.6944C270.034 59.947 271.943 49.0965 270.175 38.8873C269.253 33.5775 266.972 28.6011 263.885 24.202C260.233 18.9948 256.147 14.9034 250.087 12.5435C248.024 11.7354 245.872 11.1711 243.72 10.6068C243.476 10.5427 243.233 10.4785 242.99 10.4144H242.977Z" fill="#EC9D74"/>
<path d="M276.094 38.7077C275.504 36.4761 274.813 34.2572 274.005 32.0897C272.289 27.4468 269.88 23.022 266.575 19.3154C262.104 14.2877 256.159 10.7607 249.869 8.49056C242.797 5.95109 235.149 5.19438 227.68 5.48937C219.789 5.79718 211.615 6.92584 203.98 8.95229C200.252 9.93986 196.613 11.5046 193.513 13.8388C191.668 15.224 190.131 16.9555 188.824 18.8537C188.107 19.8925 187.594 21.0982 186.672 21.9703C186.454 22.1755 186.223 22.3422 186.044 22.5731C185.467 23.3298 185.224 24.4713 184.955 25.3691C184.302 27.511 183.866 29.7041 183.648 31.9358C183.52 33.3338 183.469 34.7446 183.52 36.1554C183.546 37.0148 183.635 37.9125 184.122 38.618C184.507 39.1695 185.096 39.5157 185.685 39.8492C189.529 42.0424 193.564 43.8893 197.753 45.3514C198.637 45.6592 199.573 45.9029 200.367 46.4159C200.918 46.7751 201.392 47.224 201.955 47.5574C203.672 48.5706 205.466 49.2376 206.913 50.674C207.131 50.8921 207.349 51.1229 207.554 51.3666C211.41 56.0095 209.732 63.4099 213.178 68.3734C213.87 69.3738 214.869 70.2973 216.086 70.4127C217.214 70.5153 218.277 69.8997 219.25 69.3097C220.263 68.6941 221.275 68.0784 222.287 67.4628C222.774 67.1678 223.26 66.7959 223.786 66.5522C224.106 66.4111 224.516 66.4367 224.862 66.4239C226.681 66.3341 228.449 67.2576 229.628 68.6171C229.858 68.8736 230.063 69.1558 230.242 69.4508C231.524 71.5285 231.729 74.1321 231.357 76.5433C230.986 79.0059 229.986 81.494 228.013 83.0203C226.86 83.9181 225.413 84.4439 224.426 85.5213C223.286 86.7654 222.94 88.5481 222.838 90.2283C222.312 98.3597 226.655 106.363 233.202 111.031C235.239 112.494 238.147 114.558 240.889 114.392C241.952 114.328 242.951 113.84 243.963 113.558C245.526 113.109 247.051 112.776 248.537 112.07C250.023 111.365 251.419 110.493 252.765 109.544C275.299 93.7425 282.922 64.5642 276.106 38.7206L276.094 38.7077Z" fill="#3D2E09"/>
<path d="M263.949 387.244C263.372 387.398 262.796 387.513 262.206 387.603C261.553 387.334 260.733 387.411 260.131 387.796C255.814 387.962 251.406 386.795 247.14 386.41C241.939 385.949 236.712 386.308 231.562 386.975C224.772 387.847 218.046 389.168 211.256 389.963C206.836 390.476 202.404 390.643 197.971 390.874C195.819 390.976 192.808 390.463 191.348 392.285C190.553 393.285 189.772 394.298 188.99 395.311C187.338 397.428 185.711 399.57 184.122 401.737C166.532 425.721 157.731 456.259 147.495 483.86C131.699 526.492 116.646 569.445 106.025 613.693C98.044 646.899 92.7914 680.682 89.8704 714.695C89.7808 715.747 89.6911 716.811 89.6014 717.863C87.0264 749.504 87.116 781.157 86.7061 812.875C86.5908 821.558 86.3986 830.228 86.1808 838.898C85.9246 848.761 85.6043 858.611 85.3865 868.474C85.3481 870.052 85.5146 871.629 85.8733 873.181C86.0527 873.938 86.3858 875.862 87.2698 876.208C88.3843 876.644 89.0249 873.861 89.2939 873.233C90.2291 871.001 91.1644 868.782 92.0996 866.551C92.3942 865.858 93.0348 865.011 93.7138 865.345C93.9828 865.473 94.1365 865.755 94.2647 866.025C95.6226 868.68 96.9678 871.347 98.3258 874.002C98.6333 874.605 98.9664 875.246 99.5557 875.605C101.196 876.593 104.142 875.823 105.923 875.862C108.626 875.913 111.316 876.311 113.917 877.029C120.092 878.748 126.382 879.325 132.724 880.338C138.438 881.249 139.386 876.208 140.41 871.771C142.089 864.473 143.677 857.162 145.202 849.839C148.033 836.256 150.608 822.623 152.953 808.951C154.054 802.474 155.271 796.01 156.45 789.545C157.667 782.889 158.244 775.54 160.293 769.101C163.278 753.826 166.686 738.641 169.684 723.378C172.707 709.116 175.821 694.88 179.049 680.669C180.599 673.871 183.072 666.727 183.751 659.801C184.007 657.172 185.224 654.966 185.698 652.427C185.865 651.567 185.865 650.682 186.082 649.823C186.813 646.963 188.85 644.218 190.336 641.717C193.718 636.048 197.407 630.585 200.982 625.031C216.125 601.47 229.64 576.897 241.926 551.733C253.469 528.108 266.972 503.188 271.994 477.19C275.556 458.785 274.672 439.791 271.366 421.424C270.405 416.05 269.227 410.728 267.894 405.431C267.241 402.853 266.716 400.121 265.781 397.62C265.102 395.824 263.961 394.465 263.91 392.451C265.537 391.925 267.318 391.541 266.985 389.36C266.754 387.873 265.396 386.859 263.91 387.257L263.949 387.244Z" fill="#8199FD"/>
<path d="M384.374 367.326C383.067 355.603 380.825 343.983 378.327 332.479C373.241 309.046 367.091 285.858 361.314 262.617C358.418 250.959 355.51 239.301 352.615 227.642C349.143 213.701 345.774 199.58 339.74 186.472C332.911 171.62 321.138 160.256 308.724 149.983C307.071 148.611 305.239 147.187 303.1 147.097C297.514 146.841 298.539 155.331 299.218 158.704C300.665 165.912 302.011 173.159 303.753 180.303C305.918 189.191 308.262 198.04 310.364 206.954C310.466 207.403 310.568 207.839 310.671 208.288C313.233 219.318 315.321 230.476 316.064 241.814C316.846 253.691 316.372 265.606 315.514 277.457C313.874 300.197 310.786 322.924 312.08 345.792C312.695 356.565 314.22 367.352 317.294 377.663C318.819 382.768 320.741 387.731 322.995 392.515C325.186 397.158 327.671 401.724 329.017 406.752C329.67 409.202 329.99 411.703 329.785 414.255C329.567 416.871 328.683 419.372 328.197 421.937C327.287 426.721 327.915 431.454 330.515 435.558C336.152 444.459 346.248 446.87 355.83 446.896C358.38 446.896 360.955 446.845 363.504 446.652C365.528 446.498 367.693 446.178 369.423 444.972C374.061 441.753 372.254 435.905 372.19 431.069C372.126 425.516 373.228 420.001 375.367 414.922C377.494 409.881 380.184 405.149 382.004 399.967C385.642 389.591 385.565 378.202 384.361 367.364L384.374 367.326Z" fill="white"/>
<path d="M378.391 852.968C377.763 851.121 377.135 849.262 376.52 847.402C369.09 824.816 363.12 801.794 357.227 778.772C351.398 756.032 344.902 733.459 340.201 710.45C339.816 708.552 339.432 706.641 339.06 704.73C335.614 687.094 332.873 669.331 330.977 651.49C328.606 629.135 326.095 605.267 328.312 582.822C330.336 562.275 338.164 542.639 341.879 522.349C342.02 521.618 342.148 520.874 342.276 520.143C345.082 503.791 345.85 487.117 344.659 470.585C343.467 454.04 340.303 437.636 335.243 421.771C332.719 413.844 329.708 406.046 326.249 398.454C324.52 394.657 322.675 390.899 320.702 387.206C320.049 385.987 319.511 384.794 318.05 384.384C317.422 384.204 316.705 384.243 316.052 384.192C312.08 383.909 308.173 383.884 304.201 384.179C294.849 384.846 285.523 385.885 276.17 386.693C271.353 387.103 266.549 387.526 261.732 387.937C260.656 388.026 260.015 388.745 259.81 389.54C251.868 389.091 244.719 394.452 241.221 400.993C236.891 409.099 236.571 418.628 235.7 427.517C232.202 463.223 228.385 498.814 229.025 534.726C229.96 587.273 234.086 639.075 251.15 689.121C257.479 707.679 264.973 725.802 272.468 743.925C289.11 784.184 305.751 824.444 322.393 864.704C323.046 866.281 323.866 869.167 325.955 869.565C327.197 869.795 328.581 869.629 329.849 869.718C333.962 870.026 338.1 869.988 342.212 869.59C343.583 869.462 345.107 869.205 345.902 868.077C346.452 867.307 346.517 866.32 346.555 865.371C346.734 861.651 346.926 857.945 347.106 854.225C350.014 853.866 352.217 856.752 353.422 859.419C354.626 862.087 355.83 865.217 358.585 866.191C360.583 866.897 362.774 866.217 364.772 865.499C368.821 864.037 372.805 862.408 376.712 860.612C378.006 860.022 379.095 859.586 379.352 858.034C379.569 856.713 379.198 855.315 378.775 854.071C378.647 853.699 378.519 853.327 378.391 852.968Z" fill="#8199FD"/>
<path d="M39.8556 289.09C29.6451 287.756 19.2809 287.679 9.05755 288.859C8.95506 288.859 8.85257 288.884 8.75008 288.897C7.31523 289.077 5.82913 289.32 4.5352 290.039C4.22774 290.205 3.9587 290.423 3.66404 290.616C3.48469 290.731 3.2669 290.821 3.11316 290.988C2.83132 291.296 2.78007 291.834 2.72883 292.219C2.51104 294.22 3.13879 296.246 3.35658 298.221C4.09962 305.032 4.09962 311.829 4.49677 318.665C4.95797 327.002 5.39355 335.352 5.81632 343.701C5.94443 346.369 5.66259 350.627 9.13442 350.858C17.7179 351.422 26.3398 351.294 34.9105 350.499C35.6023 350.435 36.3453 350.345 36.8834 349.883C37.3446 349.485 37.5752 348.883 37.7546 348.293C38.8435 344.791 38.6642 340.867 38.9716 337.224C39.625 329.311 40.3552 321.231 41.1752 313.266C41.8029 307.084 42.5331 300.902 43.4427 294.759C43.6733 293.232 44.173 291.398 42.9559 290.141C42.341 289.513 41.4314 289.346 40.573 289.231C40.3296 289.192 40.099 289.167 39.8556 289.141V289.09Z" fill="#D8BFA8"/>
<path d="M5.47047 336.865H38.9973C39.6507 329.054 40.3681 321.077 41.1752 313.227C41.393 311.047 41.6364 308.854 41.8926 306.673H3.98438C4.17654 310.662 4.27903 314.651 4.50963 318.653C4.84272 324.719 5.15019 330.798 5.47047 336.865Z" fill="#559090"/>
<path d="M46.6455 295.438C46.4149 294.348 46.1843 293.271 45.9537 292.181C45.5822 290.398 45.1979 288.602 44.8263 286.819C44.7238 286.332 44.6726 285.729 44.3651 285.332C43.6861 284.434 42.0719 284.511 41.1623 284.37C40.9445 284.331 40.7268 284.293 40.5474 284.165C40.1374 283.882 40.099 283.28 40.0734 282.754C40.035 281.561 39.8043 280.214 38.8435 279.586C38.3439 279.265 37.7418 279.201 37.1524 279.15C36.8578 279.124 36.5631 279.098 36.2685 279.073C32.8223 278.791 29.3504 278.65 25.8914 278.662C20.5492 278.662 15.1172 278.714 9.78777 278.932C9.37782 278.945 8.95505 278.97 8.59633 279.163C8.30168 279.316 8.30168 279.445 8.22481 279.74C8.16076 279.971 8.0967 280.189 8.04545 280.419C7.91734 280.868 7.80204 281.33 7.67393 281.779C7.58425 282.1 7.49457 282.433 7.30241 282.702C6.6106 283.703 5.36792 283.344 4.41989 283.754C3.9715 283.947 3.35657 284.036 3.08753 284.498C2.45978 285.588 2.37011 287.281 2.10107 288.512C1.89609 289.449 1.69111 290.398 1.46051 291.334C1.34521 291.809 1.22991 292.27 1.11461 292.732C1.03774 293.014 0.922443 293.296 0.884009 293.591C0.871198 293.72 0.884009 293.835 0.884009 293.963C0.858387 294.156 0.807142 294.361 0.768709 294.553C0.602163 295.336 0.397185 296.105 0.153772 296.862C0.0384719 297.221 -0.0768287 297.619 0.102528 297.939C0.179395 298.068 0.294695 298.17 0.422807 298.247C0.755898 298.478 1.25553 298.734 1.6783 298.709C2.11388 298.683 2.56227 298.709 2.99785 298.709C9.91589 298.734 16.8211 298.76 23.7391 298.709C27.3519 298.67 30.9646 298.606 34.5774 298.581C34.9105 298.581 35.2436 298.581 35.5767 298.581C38.9076 298.581 42.3922 298.734 45.7744 298.337C46.274 298.273 46.8761 298.132 47.0299 297.619C47.0939 297.388 47.0427 297.144 47.0042 296.913C46.9017 296.413 46.7864 295.9 46.6839 295.4L46.6455 295.438Z" fill="#4B4943"/>
<path d="M35.2821 280.381C34.8594 278.983 34.4366 277.572 34.0138 276.174C33.937 275.918 33.8473 275.648 33.6423 275.482C33.4501 275.328 33.1939 275.315 32.9505 275.302C31.7462 275.225 30.5292 275.148 29.3249 275.084C29.1584 275.084 28.979 275.071 28.8381 275.148C28.71 275.225 28.6331 275.353 28.5563 275.482C28.236 276.059 27.9798 276.674 27.7748 277.303C27.5314 278.072 27.3648 278.868 27.2367 279.663C27.1855 279.971 27.1342 280.278 27.083 280.586C27.0317 280.945 27.0061 281.304 26.9421 281.664C26.8908 281.92 26.9292 282.125 27.083 282.33C27.3136 282.638 27.7107 282.69 28.0566 282.767C28.4666 282.856 28.8765 282.933 29.2865 282.985C30.9391 283.203 32.6174 283.151 34.2444 282.843C34.7953 282.741 35.4487 282.497 35.5896 281.92C35.6537 281.625 35.5768 281.33 35.4871 281.035C35.4231 280.817 35.359 280.599 35.2821 280.368V280.381Z" fill="#4B4943"/>
<path d="M38.267 282.151C33.1681 282.395 28.018 282.895 22.9064 282.779C17.8331 282.664 12.619 281.728 7.62262 283.113C7.3664 283.19 7.41765 283.587 7.68668 283.587C10.313 283.6 12.9393 283.369 15.5656 283.485C18.115 283.6 20.6516 283.882 23.201 283.921C28.2102 283.998 33.2578 283.523 38.267 283.292C38.9588 283.254 38.9588 282.125 38.267 282.164V282.151Z" fill="#1F1F1F"/>
<path d="M33.6678 276.918C33.6294 276.533 33.7575 275.982 33.4628 275.687C33.3219 275.546 33.0913 275.546 32.9504 275.687C32.707 275.93 32.7582 276.277 32.7966 276.597C32.8351 276.918 32.8863 277.226 33.0016 277.534C33.0272 277.611 33.0913 277.739 33.0913 277.829C33.0529 277.829 33.0144 277.829 32.9888 277.829C32.9247 277.829 32.8351 277.829 32.771 277.829C32.4251 277.829 32.0792 277.854 31.7333 277.867C31.0799 277.893 30.4138 277.918 29.7604 277.97C29.4273 277.995 29.107 278.034 28.7739 278.072C28.7099 278.072 28.1846 278.111 27.9284 278.201C27.8387 278.098 27.7234 278.136 27.6594 278.239C27.6337 278.278 27.6337 278.342 27.6594 278.38C27.8003 278.65 28.2102 278.598 28.4408 278.585C28.838 278.585 29.2479 278.573 29.6451 278.56C30.465 278.547 31.2849 278.496 32.1048 278.47C32.6557 278.457 33.6422 278.65 33.7959 277.88C33.86 277.547 33.6934 277.213 33.6678 276.892V276.918Z" fill="#1F1F1F"/>
<path d="M44.6471 292.258C41.1368 292.694 37.6265 292.527 34.1035 292.45C30.6957 292.373 27.3648 292.565 23.9955 293.078C20.3571 293.63 16.8212 294.027 13.1444 293.797C9.57007 293.566 6.047 292.963 2.4855 292.629C2.26771 292.604 2.22927 292.976 2.43425 293.027C9.01919 294.733 16.1038 295.118 22.804 294.156C26.4936 293.63 30.0936 293.296 33.8216 293.386C37.4344 293.476 41.0471 293.668 44.6471 293.245C45.2492 293.168 45.2492 292.181 44.6471 292.258Z" fill="#1F1F1F"/>
<path d="M335.076 268.107C334.013 239.39 330.503 210.648 322.611 182.97C321.701 179.79 320.753 176.622 319.703 173.492C318.319 169.362 316.756 165.297 314.873 161.372C313.951 159.435 312.798 157.614 311.888 155.69C311.324 154.497 311.273 153.138 310.568 152.009C302.715 139.402 282.819 138.991 270.469 133.335C269.906 133.079 269.406 132.732 268.894 132.386C268.573 132.168 268.24 131.95 267.894 131.758C266.716 131.091 266.024 130.36 265.396 129.116C264.653 127.641 263.91 126.153 263.167 124.678C262.655 123.652 262.078 122.587 260.964 122.126C260.041 121.741 259.016 121.933 258.119 122.292C257.53 122.536 256.992 122.857 256.454 123.19C253.93 124.819 251.47 126.499 248.754 127.807C245.27 129.475 241.619 130.757 237.865 131.668C233.791 132.655 229.627 133.22 225.489 133.848C223.504 134.143 221.518 134.438 219.545 134.759C218.738 134.323 217.777 134.22 216.855 134.169C215.971 134.13 215.1 134.22 214.228 134.361C214.113 134.374 214.011 134.413 213.895 134.438C213.421 134.348 212.96 134.259 212.486 134.297C211.794 134.361 211.205 134.682 210.846 135.285C210.808 135.362 210.782 135.451 210.744 135.528C210.308 135.669 209.744 135.862 210.231 135.849C209.45 135.849 208.655 136.272 208.271 136.978C204.479 143.929 199.739 150.393 194.025 155.883C191.104 158.691 187.94 161.103 184.724 163.54C181.419 166.028 178.383 168.695 176.154 172.235C172.041 178.776 171.016 186.728 170.491 194.27C169.85 203.504 169.556 212.777 169.3 222.024C168.275 259.847 169.607 297.734 173.271 335.39C174.296 345.881 175.5 356.36 176.884 366.813C177.576 372.007 178.242 377.227 179.113 382.396C179.933 387.231 180.971 392.259 183.251 396.645C184.135 398.351 186.518 398.095 187.466 396.645C187.684 396.299 187.876 395.953 188.081 395.594C217.085 396.055 246.115 395.234 275.043 393.118C282.409 392.58 289.763 391.951 297.117 391.246C303.368 390.643 310.133 390.54 315.962 388.001C321.637 385.525 324.661 380.421 326.16 374.624C327.876 368.006 328.85 361.118 329.913 354.372C334.397 325.861 336.165 296.939 335.102 268.094L335.076 268.107Z" fill="white"/>
<path d="M65.4395 326.643C65.2986 325.694 65.1321 324.668 64.4659 323.975C63.6203 323.116 62.288 323.052 61.0837 322.988C60.4047 322.962 59.7257 322.911 59.0339 322.847C56.9073 322.654 54.7934 322.321 52.718 321.821C52.0903 321.667 51.4369 321.705 50.822 321.551C49.7843 321.282 49.054 320.102 48.516 319.268C48.0035 318.486 47.4398 317.729 47.0299 316.883C46.8761 316.562 46.7224 316.229 46.5687 315.908C46.5687 315.869 46.5687 315.844 46.5687 315.805C46.069 314.395 45.5053 313.022 44.9545 311.624C44.6982 310.957 44.4292 310.277 44.173 309.611C43.9039 308.931 43.7118 308.059 43.1993 307.52C42.6613 306.956 41.8285 306.802 41.1111 307.058C40.4065 307.302 39.9197 307.853 39.561 308.482C39.42 308.738 39.2663 308.956 39.1126 309.187C38.408 309.572 37.6649 309.906 36.9475 310.252C36.1916 310.406 35.5126 310.739 34.808 311.06C34.7568 311.086 34.6927 311.111 34.6415 311.15C34.5902 311.15 34.539 311.162 34.5005 311.175C32.976 311.432 31.4515 311.714 29.9013 311.624C27.4928 311.483 25.2381 310.431 22.9961 309.534C18.1919 307.584 13.1699 306.173 8.05828 305.327C7.0462 305.16 5.94444 305.019 4.97079 305.404C4.65051 305.532 4.25336 305.596 3.95871 305.763C3.10036 306.25 3.01068 307.392 2.88257 308.29C2.75446 309.2 2.72883 310.124 2.83132 311.034C2.94662 312.189 3.24128 313.343 3.12598 314.497C2.99787 315.78 2.39574 316.947 1.90892 318.127C0.973703 320.423 0.486878 323.142 1.67832 325.322C1.97297 325.848 2.35731 326.335 2.60072 326.887C3.72811 329.413 1.69113 332.556 2.85695 335.069C3.22847 335.865 3.88184 336.506 4.2918 337.275C4.97079 338.571 4.89392 340.123 5.06047 341.572C5.18858 342.688 5.53448 343.932 6.40564 344.701C6.62343 344.894 6.87965 344.996 7.11026 345.163C7.34086 345.343 7.55865 345.548 7.78925 345.728C8.31451 346.112 8.8782 346.446 9.4547 346.754C11.812 347.998 14.4382 348.626 17.0517 348.998C18.3072 349.178 19.5755 349.306 20.8438 349.408C26.8651 349.87 33.3475 350.409 39.2663 349.049C40.7396 348.703 42.3025 348.318 43.6733 347.664C44.6214 347.202 45.2235 346.305 46.1971 345.869C47.7345 345.189 49.4256 344.766 51.1423 344.586C52.4746 344.445 53.8326 344.445 55.1265 344.573C57.5607 344.804 59.9563 345.509 62.4033 345.433C62.8517 345.42 63.3129 345.368 63.6844 345.125C64.0559 344.881 64.2865 344.458 64.4787 344.06C67.0281 338.738 66.2594 332.479 65.4267 326.63L65.4395 326.643Z" fill="#EC9D74"/>
<path d="M211.641 223.204C211.384 218.998 210.859 214.804 210.039 210.661C209.373 207.249 208.502 203.876 207.439 200.567C207.413 200.503 207.4 200.439 207.375 200.388C206.35 197.232 204.94 194.808 203.108 192.077C201.43 189.576 200.597 186.562 199.368 183.83C197.856 180.508 196.024 176.981 192.706 175.172C189.195 173.261 183.764 172.71 179.895 173.402C174.053 174.441 170.517 179.905 167.609 184.574C164.829 189.037 162.061 193.513 159.435 198.066C156.13 203.812 153.042 209.712 150.531 215.855C147.354 223.64 145.817 231.849 143.126 239.775C140.308 248.073 137.643 256.41 135.132 264.811C132.416 273.853 129.893 282.946 127.535 292.091C126.331 296.759 125.191 301.441 124.063 306.135C123.679 307.725 123.359 309.546 122.026 310.637C120.464 311.906 118.222 312.522 116.338 313.112C111.752 314.561 106.986 315.344 102.208 315.741C98.3514 316.062 94.3287 316.331 90.4598 316.087C88.9865 315.998 87.7694 315.793 86.2705 316.023C82.2862 316.626 78.1738 315.51 74.2536 316.601C71.9476 317.242 69.885 318.653 67.5278 319.153C64.3378 319.833 61.0837 318.755 57.9066 318.075C54.7294 317.396 51.0654 317.203 48.5544 319.268C46.1715 321.218 45.5694 324.552 45.121 327.605L42.6869 344.035C42.4179 345.894 42.2513 348.087 43.6349 349.357C44.5061 350.152 45.7616 350.319 46.9018 350.627C49.8612 351.396 52.5003 353.333 54.9728 355.142C55.9721 355.873 56.7792 356.732 57.5222 357.719C58.7009 359.323 59.7514 360.939 61.1734 362.35C62.6211 363.799 64.2481 365.069 65.9776 366.172C66.8744 366.749 67.7968 367.275 68.7448 367.775C73.4593 370.25 78.5838 371.956 83.8364 372.841C89.3324 373.764 94.2134 373.085 99.7607 372.559C107.742 371.815 115.762 371.34 123.782 371.469C131.648 371.597 139.001 372.264 146.765 370.404C150.967 369.391 154.9 367.48 158.679 365.389C162.651 363.196 166.494 360.772 170.209 358.156C172.951 356.206 176.628 354.141 178.191 351.012C178.703 349.986 178.972 348.857 179.292 347.754C179.818 345.997 180.535 344.342 181.278 342.662C183.225 338.225 185.096 333.761 186.902 329.272C187.351 328.144 187.799 327.028 188.247 325.899C192.565 314.933 196.459 303.801 199.918 292.54C206.772 270.249 213.101 246.752 211.666 223.217L211.641 223.204Z" fill="white"/>
<path d="M192.347 415.82C189.08 430.171 185.8 444.549 181.329 458.593C176.871 472.599 170.824 485.873 164.175 498.955C157.718 511.653 150.967 524.209 145.445 537.355C139.642 551.181 135.683 565.623 132.122 580.167C124.87 609.769 117.914 639.575 112.713 669.6C107.46 699.843 101.836 729.996 97.3392 760.367C95.1229 775.36 93.0603 790.379 91.1771 805.424C89.2682 820.635 86.9109 836.038 86.4754 851.365C86.3601 855.136 86.4113 858.881 86.1807 862.651C86.1295 863.524 87.4106 863.485 87.5131 862.651C88.5251 854.943 90.2675 847.389 91.1386 839.655C91.9842 832.139 92.8681 824.623 93.7905 817.12C95.661 801.858 97.6339 786.608 99.8246 771.384C104.168 741.154 109.215 711.04 115.07 681.079C120.925 651.131 127.471 621.273 134.543 591.582C138.015 577.038 141.474 562.442 146.534 548.347C151.415 534.764 158.013 521.926 164.598 509.126C171.132 496.416 177.627 483.667 182.585 470.251C187.696 456.438 191.335 442.138 194.666 427.799C195.486 424.246 196.293 420.693 197.1 417.128C197.804 414.05 193.064 412.729 192.36 415.82H192.347Z" fill="#B4C2FE"/>
<path d="M281.128 505.381C281.039 504.291 279.553 503.714 278.95 504.791C278.335 505.881 277.516 506.663 277.029 507.869C276.503 509.177 276.055 510.511 275.568 511.832C274.671 514.269 273.595 516.616 272.404 518.912C269.983 523.555 267.139 527.941 264.051 532.161C257.3 541.382 249.703 550.027 242.413 558.825C240.158 561.557 237.903 564.276 235.636 567.008C234.573 568.291 233.509 569.573 232.446 570.856C231.831 571.6 231.229 572.267 230.857 573.164C230.499 574.036 230.204 574.909 229.781 575.755C229.205 576.909 230.511 578.718 231.767 577.743C232.946 576.845 234.368 576.204 235.392 575.127C236.533 573.934 237.532 572.549 238.582 571.279C240.568 568.868 242.567 566.469 244.552 564.058C248.601 559.159 252.649 554.272 256.697 549.373C263.654 540.959 270.751 532.481 275.965 522.837C277.439 520.105 278.72 517.27 279.822 514.359C280.347 512.974 280.859 511.563 281.167 510.114C281.32 509.421 281.487 508.677 281.513 507.972C281.551 507.061 281.18 506.279 281.115 505.394L281.128 505.381Z" fill="#B4C2FE"/>
<path d="M321.87 393.013C320.474 393.154 319.09 393.308 317.694 393.474C307.419 394.372 297.157 395.27 286.883 396.168C286.601 394.988 285.512 393.962 283.949 394.282C261.581 398.836 238.674 399.464 215.922 399.233C212.911 399.207 209.901 399.156 206.89 399.105C204.738 399.041 202.585 398.977 200.433 398.9C198.819 398.848 197.205 398.733 195.59 398.72C193.976 398.72 192.349 398.964 190.748 399.131C188.929 399.31 188.16 402.209 190.274 402.606C191.824 402.901 193.413 403.312 194.988 403.453C195.052 403.453 195.116 403.453 195.181 403.453C195.36 403.543 195.565 403.607 195.783 403.645C206.749 405.377 217.856 405.723 228.9 404.517C229.386 404.466 229.783 404.299 230.117 404.081C230.808 404.081 231.5 404.068 232.192 404.056C232.474 404.889 233.191 405.556 234.408 405.595C246.81 405.928 259.224 404.825 271.369 402.363C271.638 402.337 271.919 402.311 272.188 402.286C289.074 402.67 305.972 401.157 322.524 397.771C325.163 397.232 324.612 392.731 321.883 393.013H321.87Z" fill="#A9B7F3"/>
<path d="M265.691 460.722C266.754 459.183 265.345 456.849 263.526 456.951C261.95 457.041 260.387 457.092 258.811 457.157C248.729 456.451 238.621 456.477 228.538 457.221C228.436 457.221 228.334 457.259 228.231 457.272C227.193 457.233 226.156 457.221 225.131 457.169C223.44 457.092 222.364 458.824 222.709 460.337C224.336 467.263 232.677 466.468 238.108 466.365C245.078 466.237 252.047 466.109 259.016 465.981C259.401 465.981 259.734 465.891 260.028 465.763C260.092 465.763 260.144 465.763 260.208 465.763C261.873 465.788 263.564 465.609 264.704 464.275C265.243 463.646 265.486 462.902 265.576 462.094C265.601 461.825 265.627 461.569 265.64 461.299C265.64 461.094 265.64 460.889 265.64 460.684C265.64 460.658 265.64 460.645 265.64 460.619C265.64 460.594 265.652 460.568 265.665 460.555C265.665 460.594 265.678 460.632 265.691 460.696V460.722Z" fill="#B4C2FE"/>
<path d="M337.113 448.025C337.113 448.025 337.011 448.025 336.972 447.999C336.626 447.499 336.075 447.14 335.384 447.14C331.502 447.409 327.607 448.191 323.815 449.256C323.316 449.371 322.803 449.474 322.303 449.589C318.153 450.551 314.066 451.757 310.03 453.104C309.018 453.437 308.66 454.348 308.775 455.169C308.455 455.412 308.173 455.682 307.968 456.041C307.225 457.349 308.019 458.76 308.493 460.004C308.89 461.03 309.902 461.838 311.068 461.466C319.78 458.696 328.812 456.733 337.856 455.464C338.843 455.322 339.778 454.04 339.688 453.065C339.496 450.962 339.419 448.807 337.113 448.025Z" fill="#B4C2FE"/>
<path d="M324.571 399.672C324.571 398.659 324.148 397.607 323.828 396.658C323.136 394.606 322.227 392.669 321.253 390.733C320.958 390.155 320.266 389.771 319.587 389.719C319.562 389.668 319.549 389.604 319.523 389.54C319.306 389.078 318.537 389.091 318.319 389.54C318.204 389.771 318.127 390.04 318.063 390.309C317.653 390.681 317.371 391.207 317.435 391.759C317.653 393.58 317.922 395.401 318.306 397.21C318.473 398.043 318.665 398.864 318.883 399.685C319.101 400.531 319.267 401.647 319.767 402.391C316.231 402.904 312.746 403.789 309.185 404.212C304.995 404.713 300.806 405.149 296.604 405.572C292.774 405.957 288.943 406.29 285.113 406.624C285.113 406.559 285.125 406.508 285.125 406.444C285.125 406.123 285.125 405.803 285.125 405.482C285.138 405.379 285.177 405.29 285.177 405.187C285.177 405.085 285.177 404.995 285.189 404.892C285.189 404.815 285.189 404.79 285.202 404.751C285.241 404.495 285.266 404.251 285.305 403.994C285.343 403.635 285.343 403.289 285.305 402.93C285.266 402.481 285.177 402.071 285.087 401.66C285.087 401.262 285.087 400.852 285.1 400.454C285.1 399.967 285.1 399.416 284.984 398.954C284.856 398.479 284.613 398.082 284.293 397.748C284.19 397.582 284.049 397.428 283.896 397.287C283.87 397.197 283.857 397.12 283.844 397.03C283.575 396.017 282.512 395.145 281.436 395.196C280.347 395.247 279.309 395.927 279.027 397.03C278.31 399.852 278.669 402.955 280.078 405.521C280.091 405.828 280.116 406.136 280.129 406.444C280.129 406.636 280.167 406.816 280.219 407.008C277.118 407.252 274.005 407.496 270.905 407.701C258.696 408.496 246.474 409.009 234.239 409.227C234.368 408.676 234.291 408.15 234.175 407.586C234.124 407.303 234.073 407.034 234.022 406.752C234.022 406.547 234.022 406.354 234.022 406.149C233.983 405.2 233.868 404.264 233.676 403.327C233.586 402.891 233.484 402.455 233.355 402.019C233.33 401.917 233.291 401.814 233.253 401.724C233.227 401.506 233.189 401.275 233.163 401.057C233.138 400.839 233.125 400.672 233.086 400.506C232.805 399.736 232.164 399.056 231.242 399.108C230.127 399.159 229.422 399.954 229.333 401.019C229.179 402.737 229.499 404.559 229.755 406.252C229.858 406.906 229.999 407.547 230.178 408.188C230.204 408.573 230.242 408.932 230.268 409.291C226.835 409.343 223.401 409.381 219.955 409.381C215.548 409.381 211.128 409.484 206.721 409.227C202.288 408.971 198.009 408.573 193.974 406.547C192.373 405.739 190.976 408.073 192.552 408.971C199.444 412.921 207.169 413.703 214.971 413.78C223.67 413.87 232.369 413.806 241.068 413.601C258.67 413.178 276.26 412.087 293.786 410.433C298.718 409.958 303.65 409.458 308.57 408.881C312.977 408.368 318.05 408.137 321.855 405.662C322.713 405.11 322.893 403.84 322.457 403.007C322.662 402.866 322.816 402.686 322.957 402.481C323.994 402.019 324.533 400.878 324.533 399.672H324.571Z" fill="#B4C2FE"/>
<path d="M292.3 462.377C291.851 452.373 289.968 442.356 286.919 432.813C285.215 427.465 282.999 422.373 280.488 417.371C280.027 416.448 278.374 417.102 278.784 418.09C286.291 436.007 289.661 455.656 288.469 475.048C288.136 480.576 287.726 486.078 287.316 491.606C287.252 492.53 288.572 492.607 288.854 491.811C292.146 482.346 292.748 472.342 292.313 462.389L292.3 462.377Z" fill="#B4C2FE"/>
<path d="M158.013 504.381C157.616 499.571 157.462 494.748 157.552 489.926C157.641 485.091 158.064 480.307 158.538 475.497C159.012 470.649 159.294 465.711 160.191 460.927C160.396 459.811 158.782 459.324 158.461 460.453C157.129 465.288 155.669 470.021 154.913 475.01C154.182 479.832 153.888 484.757 153.773 489.644C153.657 494.569 153.773 499.494 154.182 504.393C154.387 506.869 154.644 509.344 155.028 511.794C155.207 512.922 155.323 514.102 155.63 515.205C156.002 516.514 156.629 517.719 157.103 518.976C157.462 519.925 158.961 519.848 158.948 518.72C158.948 517.488 159.051 516.244 159.051 515.013C159.051 513.769 158.833 512.525 158.705 511.294C158.461 508.998 158.205 506.689 158.013 504.381Z" fill="#B4C2FE"/>
<path d="M327.787 203.26C325.891 194.321 323.021 185.612 319.062 177.378C318.768 176.776 317.871 177.301 318.166 177.904C332.796 208.532 331.092 243.636 325.57 276.264C324.738 281.163 323.79 286.05 322.842 290.924C321.906 295.695 320.817 300.453 320.215 305.276C320.074 306.366 321.83 306.545 322.099 305.532C324.417 296.926 325.622 287.91 327.044 279.124C328.44 270.415 329.619 261.656 330.349 252.857C331.733 236.286 331.246 219.549 327.8 203.248L327.787 203.26Z" fill="#A7C4D8"/>
<path d="M326.07 360.926C325.852 350.46 323.239 340.161 322.624 329.708C322.278 323.693 322.291 317.665 322.483 311.637C322.496 311.124 321.753 311.15 321.701 311.637C320.676 321.551 320.933 331.607 322.022 341.508C323.085 351.191 325.263 361.272 322.803 370.93C322.188 373.328 321.381 375.368 319.716 377.214C318.998 378.022 318.306 378.856 317.576 379.638C317.205 380.036 316.782 380.395 316.449 380.818C316.064 381.319 315.898 381.896 315.552 382.422C314.899 383.396 316 384.961 317.153 384.499C318.14 384.102 318.985 383.922 319.78 383.153C320.561 382.396 321.253 381.485 321.804 380.549C322.829 378.818 323.226 376.791 323.93 374.919C325.609 370.455 326.147 365.646 326.044 360.9L326.07 360.926Z" fill="#A7C4D8"/>
<path d="M201.584 239.506C195.998 256.179 194.051 273.878 192.193 291.27C191.258 299.991 190.515 308.726 189.144 317.396C187.837 325.681 185.89 334.056 181.88 341.495C179.946 345.086 177.576 348.421 174.706 351.32C171.862 354.18 168.48 356.45 165.072 358.566C163.919 359.271 164.649 361.195 166.007 360.785C173.079 358.681 178.626 352.807 182.585 346.792C187.133 339.879 189.708 331.85 191.335 323.796C194.896 306.173 195.14 288.076 197.266 270.274C198.484 260.065 200.469 249.869 203.634 240.07C204.056 238.762 202.019 238.21 201.584 239.506Z" fill="#A7C4D8"/>
<path d="M210.18 179.2C209.091 177.186 207.708 175.352 206.337 173.531C205.004 171.774 203.672 169.978 202.071 168.439C199.124 165.592 194.935 163.463 190.746 164.168C186.761 164.835 183.738 167.964 181.15 170.824C180.138 171.94 181.765 173.608 182.816 172.492C185.07 170.106 187.633 167.285 191.13 167.028C194.82 166.746 197.843 169.157 200.175 171.735C202.596 174.416 204.825 177.571 206.593 180.713C207.439 182.226 208.105 183.804 208.451 185.51C208.809 187.28 208.694 189.024 208.95 190.781C209.091 191.692 210.539 192.077 211.115 191.358C213.831 187.883 212.038 182.65 210.18 179.212V179.2Z" fill="#A7C4D8"/>
<path d="M370.691 417.718C368.014 417.859 365.644 418.962 363.158 419.898C360.532 420.886 357.777 421.822 354.972 422.014C354.498 422.053 354.024 422.04 353.563 422.027C353.87 421.27 354.152 420.514 354.408 419.744C356.394 418.834 358.239 416.628 359.417 415.024C361.762 411.869 363.197 408.124 364.388 404.405C364.721 403.353 365.029 402.301 365.336 401.237C366.668 397.979 367.706 394.58 368.475 391.066C368.769 389.707 366.745 388.655 366.092 390.066C366.041 390.168 366.002 390.271 365.964 390.374C364.106 394.516 362.851 398.826 361.416 403.122C361.326 403.404 361.224 403.687 361.121 403.969C359.827 406.277 358.354 408.496 356.714 410.574C356.855 409.792 356.996 409.022 357.124 408.24C357.88 403.725 358.341 399.121 358.469 394.542C358.713 385.179 357.739 375.778 355.561 366.672C354.972 364.184 354.357 361.644 353.46 359.246C352.781 357.45 351.833 355.847 350.129 354.885C349.425 354.487 348.733 355.142 348.861 355.86C352.153 374.996 352.653 394.786 351.538 414.178C351.231 413.549 350.936 412.908 350.654 412.254C349.514 409.638 348.553 406.944 347.67 404.225C346.26 399.916 344.889 394.991 341.187 392.054C340.316 391.361 339.15 391.797 339.048 392.939C338.458 399.967 338.561 406.867 340.201 413.755C340.534 415.165 342.558 414.537 342.327 413.165C341.405 407.534 340.892 401.699 341.277 395.966C343.045 398.646 343.57 401.968 344.326 405.136C344.889 407.534 345.645 409.881 346.581 412.164C347.439 414.255 348.272 416.666 349.668 418.462C350.616 419.68 351.641 420.142 352.679 420.129C352.563 420.668 352.448 421.219 352.346 421.758C352.346 421.822 352.346 421.873 352.346 421.925C350.514 421.719 348.733 421.232 346.939 420.68C345.517 420.244 344.095 419.808 342.66 419.385C341.161 418.923 339.598 418.244 338.01 418.282C335.947 418.333 335.46 420.86 337.011 421.963C338.279 422.874 340.008 423.169 341.482 423.63C343.083 424.131 344.672 424.631 346.273 425.105C349.181 425.952 352.179 426.593 355.215 426.311C358.175 426.029 360.968 425.131 363.696 424.002C366.476 422.861 369.397 421.694 371.306 419.282C371.767 418.705 371.537 417.641 370.653 417.692L370.691 417.718ZM350.962 358.066C351.859 359.464 352.256 361.247 352.691 362.798C353.435 365.505 354.075 368.249 354.6 371.02C355.664 376.65 356.266 382.358 356.407 388.078C356.548 393.695 356.266 399.339 355.561 404.918C355.343 406.675 355.049 408.406 354.728 410.138C354.972 402.083 354.831 394.016 354.306 385.974C353.691 376.599 352.435 367.339 350.975 358.079L350.962 358.066Z" fill="#A7C4D8"/>
<path d="M101.746 366.21C101.106 366.21 100.465 366.184 99.8375 366.172C99.735 364.479 98.8126 362.811 97.4162 361.695C94.1109 359.053 88.9736 358.835 84.9766 358.053C75.7397 356.27 66.5028 354.103 57.0994 353.526C55.9208 348.626 55.7286 343.509 56.5742 338.52C57.5606 332.735 60.0076 327.746 62.557 322.526C62.8901 321.846 62.0446 321.102 61.4681 321.679C57.2404 325.925 54.9984 332.235 54.0376 338.058C53.0383 344.137 53.3842 350.358 55.165 356.257C55.3443 356.86 55.8183 357.13 56.4076 357.206C60.3279 357.707 63.9534 359.348 67.5149 360.977C71.0764 362.606 74.6636 364.132 78.4044 365.287C84.6947 367.223 91.1772 368.211 97.7237 368.262C97.634 368.442 97.5315 368.621 97.3906 368.801C96.8653 369.493 98.0183 370.378 98.5948 369.737C99.0048 369.275 99.2994 368.788 99.5044 368.262C100.247 368.249 100.991 368.236 101.734 368.198C103.002 368.134 103.015 366.223 101.734 366.223L101.746 366.21ZM92.3045 361.375C94.0725 361.824 96.0454 362.503 97.16 364.043C97.6084 364.658 97.903 365.376 98.0183 366.107C91.2284 365.787 84.4641 364.607 78.0073 362.503C71.6273 360.413 65.7214 356.706 59.1749 355.167C59.162 355.167 59.1364 355.154 59.1236 355.142C66.3491 355.796 73.5618 357.604 80.6336 359.015C84.5154 359.784 88.474 360.4 92.3045 361.375Z" fill="#A7C4D8"/>
<path d="M197.805 169.721C197.587 168.875 197.164 168.247 196.613 167.785C196.639 167.759 196.652 167.721 196.677 167.695C197.087 167.144 196.523 166.438 195.947 166.412C195.05 166.374 194.205 166.528 193.398 166.797C192.578 166.823 191.758 166.99 191.015 167.31C188.094 168.529 185.429 170.953 183.277 173.223C180.42 176.237 178.114 179.764 176.525 183.599C176.397 183.804 176.256 184.022 176.128 184.227C174.821 186.408 172.861 189.37 174.809 191.717C175.372 192.41 176.717 192.051 176.871 191.166C177.307 188.678 178.024 186.241 178.998 183.919C179.087 183.766 179.177 183.599 179.267 183.445C180.561 181.239 182.008 179.135 183.635 177.173C185.173 175.313 186.851 173.582 188.657 171.979C190.028 170.76 191.553 169.388 193.282 168.657C193.474 168.618 193.654 168.593 193.833 168.567C188.401 175.942 186.518 185.215 185.057 194.129C184.865 195.296 186.62 195.834 186.877 194.629C188.734 185.766 190.541 176.57 195.729 169.003C196.114 169.26 196.447 169.632 196.716 170.17C197.023 170.786 197.958 170.35 197.792 169.721H197.805Z" fill="#A7C4D8"/>
<path d="M335.845 196.117C334.897 192.885 333.193 189.922 331.22 187.228C329.35 184.676 327.351 182.137 325.173 179.841C323.38 177.956 321.215 176.288 318.511 176.314C318.05 176.314 317.922 177.045 318.396 177.135C321.086 177.635 322.88 179.661 324.443 181.765C326.16 184.086 327.838 186.446 329.362 188.909C330.874 191.345 332.168 193.911 333.052 196.642C333.475 197.951 333.782 199.31 334.103 200.631C334.436 202.016 334.295 203.453 334.577 204.838C334.692 205.402 335.576 205.518 335.832 205.005C337.126 202.401 336.639 198.81 335.858 196.129L335.845 196.117Z" fill="#A7C4D8"/>
<path d="M264.922 131.386C253.879 143.724 237.327 147.649 221.3 147.11C218.853 147.033 216.394 146.853 213.959 146.597C211.359 146.328 208.72 146.263 206.145 145.943C205.53 145.866 205.389 146.905 206.004 147.02C208.233 147.456 210.385 148.072 212.653 148.367C214.997 148.675 217.367 148.893 219.724 149.034C224.439 149.316 229.166 149.265 233.855 148.713C241.747 147.777 249.549 145.481 256.377 141.326C260.118 139.055 263.59 136.234 266.421 132.899C267.305 131.86 265.832 130.347 264.909 131.386H264.922Z" fill="#A7C4D8"/>
<path d="M315.065 212.854C309.877 214.932 304.957 217.638 299.73 219.626C294.439 221.64 288.969 223.166 283.434 224.346C272.199 226.744 260.72 227.693 249.28 228.591C244.027 229.002 237.481 229.322 233.496 225.231C232.753 224.474 231.652 225.603 232.343 226.385C235.738 230.258 240.773 231.259 245.693 231.336C251.522 231.426 257.415 230.797 263.205 230.258C268.484 229.758 273.775 229.091 279.014 228.168C278.323 230.977 278.182 233.952 277.977 236.799C277.913 237.608 277.874 238.416 277.81 239.224C273.698 261.245 271.033 283.549 269.355 305.878C268.804 313.24 268.381 320.602 268.343 327.99C268.343 329.093 269.944 329.067 270.034 327.99C271.072 315.061 271.751 302.108 272.968 289.192C273.967 278.585 275.286 268.03 276.67 257.462C276.568 259.167 276.465 260.873 276.363 262.592C276.029 268.351 275.722 274.122 275.415 279.881C275.261 282.715 275.107 285.537 274.953 288.371C274.8 291.308 274.249 294.553 274.62 297.478C274.761 298.619 276.491 299.106 276.811 297.773C277.464 294.989 277.298 291.834 277.452 288.987C277.605 286.153 277.746 283.318 277.9 280.496C278.207 274.738 278.515 268.966 278.797 263.207C279.079 257.449 279.36 251.677 279.617 245.919C279.745 243.084 279.847 240.262 279.95 237.428C280.001 236.145 280.052 234.837 280.078 233.529C280.347 231.785 280.616 230.04 280.885 228.309C280.911 228.142 280.846 228.001 280.744 227.899C286.714 226.783 292.62 225.308 298.347 223.294C304.496 221.127 310.889 218.523 315.693 213.983C316.141 213.559 315.68 212.636 315.052 212.88L315.065 212.854Z" fill="#A7C4D8"/>
<path d="M377.545 157.704C370.691 153.689 365.644 147.572 362.031 140.569C361.134 138.825 360.314 137.042 359.61 135.208C358.841 133.22 358.418 130.757 357.291 128.962C357.227 128.872 357.201 128.782 357.15 128.692C357.073 128.449 356.996 128.218 356.919 127.974C356.817 127.666 356.702 127.384 356.586 127.089C356.509 126.589 356.471 126.076 356.458 125.473C356.433 124.755 356.33 124.049 356.202 123.344C360.609 130.95 366.861 137.491 374.471 142.057C376.559 143.314 378.75 140.428 377.059 138.709C373.42 135.015 369.731 131.27 366.707 127.038C363.965 123.19 361.775 118.932 360.173 114.494C358.085 108.723 356.907 102.759 356.407 96.7052C357.214 93.3064 357.97 89.8948 358.354 86.4319C358.931 81.2888 358.457 76.1201 356.983 71.2335C356.996 71.054 357.009 70.8616 357.022 70.682C357.047 70.4127 356.855 70.2459 356.625 70.1946C355.818 67.7962 354.78 65.4492 353.473 63.2432C351.436 59.7931 348.823 56.6251 345.748 54.0472C342.84 51.5975 339.573 49.6736 336.357 47.6857C333.167 45.7105 329.875 43.6199 327.569 40.6059C325.391 37.7715 324.328 34.3214 323.521 30.8841C321.766 23.3298 321.048 15.4421 315.885 9.23445C311.491 3.93747 304.804 1.19278 298.116 0.333466C290.365 -0.666932 282.192 0.782363 275.312 4.51462C268.369 8.27253 261.233 15.5318 262.783 24.0609C263.065 25.6384 265.115 25.9975 266.229 25.151C266.191 25.5102 266.178 25.8693 266.216 26.2284C266.37 28.0368 267.177 29.8324 268.42 31.1534C271.494 34.4625 276.171 36.3735 280.078 38.6308C281.282 39.3234 282.499 39.9775 283.704 40.6701C285.548 41.7346 287.368 42.8761 288.649 44.6203C292.774 50.2636 292.364 59.3698 292.223 65.9494C292.21 66.7702 292.172 67.591 292.146 68.4119C291.8 77.4026 290.903 86.5601 293.043 95.3072C295.182 104.054 301.14 112.532 309.877 114.712C313.323 115.572 317.294 115.546 319.844 118.034C322.035 120.163 322.444 123.472 323.034 126.486C325.225 137.632 331.771 147.867 340.982 154.536C350.181 161.205 361.941 164.232 373.228 162.834C373.125 162.847 372.908 162.603 372.651 162.244C373.881 162.206 375.111 162.18 376.328 162.142C378.634 162.077 379.582 158.948 377.52 157.742L377.545 157.704Z" fill="#3D2E09"/>
<path d="M277.042 33.1542C274.902 30.4993 272.378 27.6649 271.238 24.4969C270.674 22.9194 270.457 21.7523 270.546 20.1362C270.623 18.6613 271.392 17.4044 271.853 15.7627C272.199 14.5314 271.405 13.3002 270.316 12.8513C269.752 11.8124 268.381 10.9403 267.177 11.4405C264.307 12.6461 259.926 14.1595 260.156 17.9559C260.349 21.1238 261.104 24.343 262.193 27.3058C264.179 32.7053 268.522 38.7077 275.081 37.8356C277.516 37.515 278.605 35.1037 277.029 33.1414L277.042 33.1542Z" fill="#1F1F1F"/>
<path d="M228.385 72.1954C228.141 71.5413 227.808 70.9 227.257 70.464C226.976 70.2331 226.655 70.0664 226.297 70.0023C225.938 69.9381 225.348 70.1818 225.054 70.0279C224.644 69.8099 224.157 70.3614 224.541 70.6948C224.798 70.9257 225.131 71.0796 225.477 71.1566C225.784 71.2207 226.092 71.2207 226.348 71.4002C226.899 71.785 227.104 72.593 227.245 73.2087C227.514 74.4014 228.129 77.4411 226.258 77.6976C225.349 77.8259 224.439 77.4026 223.517 77.4668C222.607 77.5309 221.71 77.89 221.185 78.6724C220.224 80.1345 220.506 82.9946 222.043 83.9694C222.568 84.3028 223.235 83.8668 223.247 83.2768C223.26 82.3405 222.863 81.4555 222.889 80.5064C222.889 80.1986 222.889 79.8523 223.183 79.6856C223.478 79.5189 223.926 79.5445 224.247 79.5445C225.259 79.5702 226.245 79.7113 227.181 79.1726C227.847 78.7878 228.359 78.0952 228.667 77.3898C229.346 75.7994 228.974 73.7473 228.385 72.1826V72.1954Z" fill="#1F1F1F"/>
<path d="M315.731 108.569C314.092 106.081 311.657 104.118 309.505 102.105C307.327 100.053 305.354 97.7826 303.791 95.2174C300.473 89.7922 299.743 83.8668 300.384 77.6079C301.063 70.9129 302.907 64.2949 302.728 57.5229C302.574 51.5077 300.653 45.8003 296.771 41.1574C292.582 36.1426 286.804 33.2055 280.245 33.0645C279.22 33.0388 279.053 34.5394 280.001 34.8216C285.1 36.3478 290.058 39.7594 293.376 43.9406C297.091 48.6219 298.359 54.1883 298.09 60.0752C297.796 66.5778 296.053 72.9137 295.592 79.4034C295.144 85.6623 296.207 91.793 299.397 97.2439C301.075 100.104 303.215 102.72 305.572 105.029C307.968 107.376 310.94 109.762 314.322 110.39C315.309 110.57 316.372 109.544 315.731 108.556V108.569Z" fill="#241A06"/>
<path d="M368.308 156.716C367.681 156.396 367.04 156.075 366.4 155.754C366.246 155.498 366.054 155.254 365.772 155.075C359.84 151.073 354.498 146.764 350.693 140.582C348.887 137.645 347.477 134.502 346.517 131.193C345.389 127.281 345.095 123.203 343.993 119.291C341.828 111.647 336.396 105.76 331.297 99.9244C326.134 94.0247 321.778 87.6118 318.601 80.4167C316.808 76.3766 315.437 72.1185 314.412 67.8219C313.874 65.5646 313.477 63.2945 313.041 61.0115C312.618 58.767 311.76 56.6508 311.363 54.3807C311.119 53.034 309.249 53.5085 309.146 54.6756C308.954 56.7021 308.506 58.7927 308.544 60.8319C308.583 62.9995 309.006 65.1926 309.428 67.3089C310.248 71.3489 311.401 75.3249 312.9 79.1598C315.949 87.009 320.228 94.2299 325.622 100.694C330.503 106.53 336.562 112.07 338.996 119.496C340.329 123.562 340.585 127.897 341.712 132.014C342.699 135.58 344.172 139.03 346.03 142.223C346.594 143.185 347.183 144.122 347.823 145.058C340.726 140.043 334.577 133.938 330.977 125.832C330.041 123.742 326.352 125.268 327.236 127.41C330.426 135.131 335.614 141.569 342.122 146.751C348.566 151.881 355.792 155.78 363.107 159.487C364.055 160.346 365.17 160.91 366.438 161.115C367.629 161.308 368.808 160.91 369.282 159.717C369.705 158.666 369.385 157.255 368.296 156.703L368.308 156.716Z" fill="#241A06"/>
<path d="M363.658 125.576C362.569 122.844 361.032 120.304 359.917 117.585C358.764 114.764 357.816 111.878 357.099 108.915C355.6 102.72 355.062 96.3717 354.37 90.0615C353.012 77.7746 350.821 64.872 341.533 55.8941C339.291 53.7265 336.652 51.8283 333.731 50.6997C330.785 49.571 327.928 49.5326 324.84 49.8147C324.187 49.8789 323.905 50.9306 324.674 51.0716C329.567 51.9053 334.589 55.2784 338.1 58.6901C342.071 62.5634 344.723 67.3987 346.427 72.6443C350.334 84.7004 349.591 97.6287 352.602 109.89C354.088 115.931 356.484 123.28 361.877 126.935C362.697 127.5 364.042 126.55 363.645 125.576H363.658Z" fill="#241A06"/>
<path d="M273.134 48.6989C273.006 47.66 271.366 47.6087 271.456 48.6989C272.801 64.8977 267.062 81.6992 256.083 93.7297C256.364 93.2038 256.646 92.678 256.902 92.1265C260.797 83.7257 261.591 74.8503 262.168 65.7313C262.232 64.7822 260.771 64.7951 260.695 65.7313C260.08 73.0419 257.031 79.7497 253.046 85.8163C251.74 87.8042 250.33 89.6768 248.844 91.498C249.472 90.0872 250.048 88.6635 250.561 87.2014C250.881 86.3421 251.176 85.47 251.419 84.585C251.906 82.7894 249.165 82.0327 248.639 83.8155C247.73 87.1373 246.167 90.2539 243.976 92.9216C241.76 95.6278 238.954 97.385 236.136 99.3729C234.906 100.232 235.61 102.605 237.237 102.002C238.493 101.54 239.659 100.886 240.748 100.117C240.171 100.938 239.569 101.758 238.941 102.541C237.839 103.926 239.671 105.901 240.94 104.542C243.566 101.694 246 98.6547 248.409 95.6278C250.766 92.6651 253.021 89.5998 254.994 86.3806C256.236 84.3541 257.338 82.2507 258.312 80.0832C255.34 90.8824 249.523 101.027 239.518 106.196C237.737 107.094 239.3 109.749 241.081 108.864C241.977 108.415 242.849 107.928 243.694 107.389C258.939 98.3341 269.931 81.866 272.763 64.4359C273.608 59.2159 273.762 53.9446 273.134 48.6861V48.6989Z" fill="#241A06"/>
<path d="M219.66 64.1538C222.517 63.769 222.709 59.357 221.902 57.1895C220.98 54.7013 219.11 53.0211 217.008 51.5847C215.048 47.3137 211.794 43.8765 208.271 40.5546C205.607 38.0536 202.622 35.2833 200.533 32.1025C199.508 29.2552 198.56 25.3691 200.802 24.4841C201.494 24.2148 201.238 23.1503 200.495 23.3426C199.137 23.7018 198.394 24.6252 198.048 25.8308C197.907 24.8048 197.881 23.7531 198.01 22.6501C198.125 21.6625 197.036 20.6621 196.088 20.7262C192.142 21.0212 189.413 24.2533 188.85 28.0368C188.58 28.1522 188.324 28.319 188.081 28.537C187.991 27.5238 187.94 26.5106 187.876 25.5102C187.825 24.5739 186.441 24.5611 186.415 25.5102C186.351 27.3314 186.339 29.1911 186.479 30.9995C184.532 35.4885 185.929 40.8753 188.888 44.6717C192.654 49.5326 198.214 51.6103 203.659 53.9831C206.824 55.3682 209.335 57.2023 211.564 59.8444C213.78 62.4736 215.33 65.5774 217.008 68.5658C218.418 71.0924 222.12 68.8608 220.852 66.3213C220.493 65.5902 220.083 64.872 219.686 64.1538H219.66ZM188.773 30.2813C189.08 34.1033 191.527 37.5534 193.872 40.4648C194.346 41.042 194.999 41.1446 195.588 40.9522C196.011 41.6192 196.459 42.2861 196.959 42.9145C195.87 42.2604 194.794 41.5807 193.769 40.8624C190.31 38.4769 188.965 34.8985 188.376 31.0637C188.491 30.7815 188.632 30.5122 188.773 30.2813ZM195.178 46.557C191.463 44.4921 188.401 40.9522 187.722 36.8224C188.504 38.7975 189.695 40.5931 191.527 42.0937C194.768 44.7486 198.522 46.8777 202.391 48.7374C202.596 48.9298 202.801 49.135 203.006 49.3274C203.224 49.5326 203.429 49.7506 203.634 49.9558C200.764 48.9426 197.856 48.0576 195.178 46.5698V46.557ZM207.541 48.2243C204.735 45.5438 201.635 43.0684 199.265 39.9775C197.061 37.0917 195.114 33.4108 194.999 29.7426C194.973 28.9346 193.82 28.755 193.577 29.5502C193.321 30.4096 193.18 31.256 193.103 32.0769C192.821 31.3073 192.642 30.4993 192.603 29.6657C192.526 28.2677 193.077 26.5362 194.141 25.4973C194.55 30.5763 197.382 35.0396 200.879 38.8232C202.673 42.4913 205.145 45.7747 208.13 48.5578C207.989 48.4937 207.836 48.4424 207.695 48.3783C207.644 48.327 207.592 48.2756 207.541 48.2243ZM211.436 52.2772C211.743 52.1618 211.935 51.931 212.038 51.6488C212.371 51.8668 212.717 52.0849 213.063 52.2901C213.626 53.3803 214.088 54.5217 214.408 55.753C214.433 55.8428 214.446 55.9325 214.472 56.0352C213.498 54.7398 212.499 53.4829 211.436 52.2644V52.2772Z" fill="#241A06"/>
<path d="M258.939 38.2075C253.853 45.7234 247.947 53.1109 240.594 58.4848C242.246 56.7021 243.668 54.7911 245.091 52.8031C245.488 52.2516 244.604 51.5718 244.155 52.072C240.466 56.1762 236.315 60.1394 231.959 63.551C231.011 64.2949 232.215 65.5005 233.151 65.09C243.335 60.5626 250.971 52.4055 257.492 43.5815C255.801 49.1991 253.52 54.6372 250.881 59.87C247.461 66.6548 243.194 72.8495 238.941 79.1213C238.39 79.9293 239.595 80.7886 240.261 80.1345C251.381 69.2969 257.492 53.8676 260.733 38.9514C260.964 37.8612 259.58 37.2841 258.952 38.2075H258.939Z" fill="#241A06"/>
<path d="M257.953 30.1787C255.301 29.7939 252.662 29.4605 249.984 29.2937C250.151 29.2424 250.33 29.2039 250.497 29.1526C251.842 28.755 251.278 26.8184 249.92 27.0749C242.477 28.5242 234.534 29.2809 226.873 28.3959C224.144 27.9342 221.416 27.3571 218.687 26.7543C217.726 26.5362 217.316 27.9727 218.277 28.242C223.606 29.7041 228.756 30.82 234.304 31.0637C235.354 31.1406 236.392 31.1919 237.442 31.2176C242.887 31.3073 248.332 31.1534 253.751 31.6023C239.928 36.63 224.99 38.5282 210.603 34.6035C209.834 34.3983 209.527 35.5398 210.27 35.7963C225.835 41.1189 243.054 38.0665 257.94 31.9999C258.67 31.7049 258.978 30.3326 257.94 30.1787H257.953Z" fill="#241A06"/>
<path d="M246.474 14.6982C242.887 13.7747 239.249 13.0308 235.597 12.4537C231.959 11.8765 228.116 11.3122 224.439 11.6841C223.645 11.7611 223.196 12.6589 223.465 13.2617C222.389 13.2232 221.3 13.2232 220.237 13.2617C216.022 13.4541 212.14 14.2108 208.169 15.6473C207.451 15.9038 207.733 17.0068 208.489 16.8016C216.522 14.6469 225.195 16.1731 233.087 18.2637C241.439 20.4825 249.6 23.6889 257.646 26.8184C258.799 27.2673 260.349 26.1001 260.208 24.8561C259.503 18.1739 251.97 16.109 246.487 14.6853L246.474 14.6982ZM250.164 19.9695C248.281 19.3026 246.385 18.6485 244.501 18.0072C246.41 18.5843 248.332 19.2 250.164 19.9695Z" fill="#241A06"/>
<path d="M18.3072 315.921C17.8332 315.498 17.2823 315.459 16.6801 315.356C16.1036 315.254 15.5656 315.164 14.9763 315.126C13.8104 315.036 12.6318 314.933 11.4788 314.741C9.10875 314.356 6.85398 313.625 4.5864 312.868C4.15082 312.727 3.84335 313.42 4.26612 313.612C5.44475 314.164 6.35434 315.138 7.53297 315.703C8.62192 316.216 9.69806 316.601 10.8767 316.857C12.0681 317.114 13.2724 317.255 14.4766 317.344C15.13 317.396 15.7321 317.396 16.3855 317.344C16.9748 317.293 17.6538 317.344 18.1406 316.96C18.4609 316.716 18.6146 316.241 18.2687 315.934L18.3072 315.921Z" fill="#CB7A55"/>
<path d="M11.261 327.438C10.9792 327.4 10.7101 327.374 10.4283 327.336C9.96707 327.194 9.45463 327.194 8.9678 327.182C8.41692 327.182 7.86604 327.156 7.31516 327.182C6.23902 327.207 5.17569 327.233 4.08674 327.233C3.66398 327.233 3.29245 327.566 3.24121 327.977C3.20277 328.349 3.43337 328.862 3.85614 328.913C5.12445 329.093 6.37994 329.259 7.66106 329.324C8.276 329.362 8.91656 329.349 9.51868 329.298C10.1721 329.247 10.7998 329.067 11.4404 328.939C11.8119 328.862 12.0425 328.451 11.9784 328.105C11.9144 327.708 11.6197 327.489 11.2354 327.451L11.261 327.438Z" fill="#CB7A55"/>
<path d="M15.1172 337.019C14.7201 336.788 14.3229 336.878 13.8873 336.942C13.4774 336.993 13.0674 337.057 12.6446 337.083C11.8247 337.134 10.992 337.224 10.1721 337.25C8.49382 337.301 6.80275 337.327 5.1373 337.045C4.27895 336.904 3.89461 338.148 4.76577 338.378C6.5209 338.853 8.34009 339.225 10.1721 339.161C11.0945 339.135 11.9913 339.058 12.8881 338.84C13.6567 338.661 14.8866 338.545 15.335 337.827C15.5015 337.558 15.399 337.16 15.1172 337.006V337.019Z" fill="#CB7A55"/>
</g>
<defs>
<clipPath id="clip0_215_154">
<rect width="422" height="965" fill="white"/>
</clipPath>
</defs>
</svg>
