<svg width="221" height="376" viewBox="0 0 221 376" fill="none" xmlns="http://www.w3.org/2000/svg">
<g clip-path="url(#clip0_299_169)">
<path d="M90.0521 309.526L97.8802 359.594C97.8802 359.594 94.241 372.354 99.0484 371.41L136.079 371.947C139.394 371.97 140.48 367.905 133.187 365.915C133.187 365.915 114.59 355.836 112.912 352.997C111.234 350.158 111.598 310.654 111.598 310.654L90.0521 309.526Z" fill="#DE7F4C"/>
<path d="M95.223 368.203C95.223 368.203 93.0613 364.308 93.7971 360.98C93.9976 360.079 95.6354 352.655 96.9009 353.344C99.0254 354.501 105.98 362.714 113.37 363.627C114.937 363.82 126.198 365.206 126.198 361.994C129.513 362.875 141.971 368.858 139.558 372.13H110.693L95.223 368.203Z" fill="#B38C00"/>
<path d="M93.949 364.997L94.2496 374.547C94.2754 375.357 94.9368 376 95.7471 376H138.063C138.891 376 139.561 375.328 139.561 374.499V372.188C139.561 372.188 129.072 372.133 122.802 372.133C114.338 372.133 93.9518 364.994 93.9518 364.994L93.949 364.997Z" fill="#FFF4E8"/>
<path d="M40.9788 312.445L43.3067 357.536C43.3067 357.536 35.7305 376.591 40.5379 375.647C40.5379 375.647 57.7575 376.614 59.716 375.348C60.8269 374.631 56.532 357.906 56.6723 357.254C57.852 351.783 60.8584 315.02 60.8584 315.02L40.976 312.445H40.9788Z" fill="#DE7F4C"/>
<path d="M60.0338 370.692C60.0338 370.692 59.8849 356.605 57.328 353.419C56.3316 355.4 54.6738 359.247 53.6773 360.668C51.822 363.317 47.1119 366.725 44.1084 361.15C42.5364 358.233 43.3696 355.615 43.2379 353.683C41.1621 356.672 38.2444 370.692 38.2444 370.692H60.0366H60.0338Z" fill="#B38C00"/>
<path d="M38.2416 370.692V375.104C38.2416 375.601 38.6424 376.003 39.1378 376.003H59.1404C59.6358 376.003 60.0366 375.601 60.0366 375.104V370.692H38.2444H38.2416Z" fill="#FFF4E8"/>
<path d="M34.9775 157.278C23.7478 192.763 36.0627 254.882 36.0627 261.861C36.0627 268.839 38.2416 341.661 38.2416 341.661H60.8613L66.3473 261.108L70.0237 205.798L81.9262 265.288C81.9262 265.288 83.962 269.746 83.249 282.986C82.5361 296.226 92.735 341.661 92.735 341.661H114.341L109.007 220.448C109.007 220.448 104.079 166.533 100.973 158.156C97.8659 149.779 34.9718 157.275 34.9718 157.275L34.9775 157.278Z" fill="white"/>
<path d="M74.874 108.068C77.176 107.098 79.7587 107.732 81.8259 108.964C82.8682 109.584 83.8073 110.359 84.7121 111.165C85.6026 111.958 86.493 112.776 87.2203 113.726C87.8674 114.57 88.9755 116.054 88.1079 117.091C87.4322 117.894 86.2268 117.613 85.3792 117.317C83.4723 116.654 81.8804 115.388 80.3829 114.068C78.6792 112.563 77.0586 110.973 75.063 109.854C75.3035 109.506 75.5468 109.156 75.7874 108.809C76.6091 109.98 77.4395 111.154 78.1066 112.423C78.4473 113.072 78.7308 113.743 78.977 114.432C79.2061 115.07 79.4208 115.71 79.7873 116.284C80.4688 117.349 81.5167 118.25 82.5274 118.997C83.5468 119.752 84.6606 120.383 85.8374 120.857C87.186 121.397 88.6033 121.75 90.0492 121.882C90.8423 121.954 90.8423 123.32 90.0492 123.248C87.3606 123.007 84.7551 122.103 82.5074 120.599C81.3907 119.852 80.3428 118.962 79.4638 117.946C78.9799 117.386 78.5733 116.769 78.287 116.083C78.0035 115.4 77.8002 114.688 77.5053 114.01C76.841 112.483 75.8904 111.108 74.9398 109.75C74.5676 109.216 74.9599 108.344 75.6642 108.705C78.8883 110.356 81.0386 113.476 84.1566 115.279C84.8724 115.693 85.7314 116.129 86.5618 116.232C86.6849 116.247 87.1144 116.275 87.1802 116.186C87.2318 116.115 87.0199 115.782 86.9798 115.701C86.8452 115.449 86.6992 115.199 86.536 114.963C85.9433 114.111 85.1845 113.379 84.4258 112.678C83.6155 111.932 82.7823 111.208 81.8746 110.586C79.9362 109.256 77.4795 108.415 75.1832 109.311C74.8682 109.434 74.5447 109.153 74.4731 108.86C74.3872 108.519 74.5619 108.2 74.8768 108.068H74.874Z" fill="#D9756A"/>
<path d="M75.2976 111.286C75.4121 111.854 75.6469 111.475 75.4608 111.51C75.6441 111.478 75.5868 111.358 75.6355 111.541C75.6842 111.737 75.6326 112.018 75.6269 112.219C75.6154 112.701 75.5868 113.184 75.541 113.666C75.4494 114.642 75.3062 115.612 75.0943 116.568C74.6763 118.451 74.0435 120.346 73.1158 122.04C72.6921 122.812 71.7415 122.08 72.0736 121.359C73.0586 119.223 73.8316 117.05 74.221 114.719C74.4071 113.603 74.4243 112.489 74.5303 111.369C74.5789 110.858 74.871 110.278 75.4608 110.298C75.9648 110.316 76.2854 110.812 76.1509 111.286C76.0277 111.722 75.3978 111.774 75.2976 111.286Z" fill="#D9756A"/>
<path d="M89.4107 110.011C84.1938 108.002 78.4788 107.827 72.9527 108.051C67.3465 108.277 61.7775 109.159 56.3716 110.666C53.3194 111.519 50.3245 112.572 47.4068 113.812C47.0833 113.95 46.7368 113.64 46.6652 113.341C46.5765 112.983 46.7597 112.652 47.0861 112.515C52.343 110.278 57.8548 108.659 63.4839 107.703C69.1074 106.747 74.8596 106.397 80.5518 106.799C83.7214 107.023 86.9397 107.522 89.8316 108.895C90.3813 109.156 90.0234 110.247 89.4107 110.009V110.011Z" fill="#D9756A"/>
<path d="M75.0801 109.354C73.6857 108.955 72.1567 109.245 70.8597 109.842C69.7029 110.373 68.3343 111.269 67.8619 112.518C67.4467 113.62 67.9993 114.843 69.2591 114.863C70.5361 114.886 71.7244 114.05 72.5576 113.149C73.5225 112.104 74.1753 110.746 74.3156 109.322C74.3471 108.998 74.539 108.665 74.9054 108.665C75.2261 108.665 75.5268 108.995 75.4953 109.322C75.3349 110.985 74.6993 112.546 73.6227 113.827C72.5977 115.047 71.1088 116.1 69.4767 116.189C67.7215 116.284 66.436 114.843 66.539 113.115C66.6478 111.289 68.0737 109.957 69.5655 109.096C71.3207 108.079 73.3822 107.617 75.3321 108.329C75.899 108.536 75.6986 109.529 75.0801 109.351V109.354Z" fill="#D9756A"/>
<path d="M68.8239 199.629C72.1481 200.605 73.3622 204.343 74.1123 207.366C75.3034 212.171 76.4659 216.983 77.637 221.794C79.982 231.428 82.3929 241.051 84.6548 250.705C85.7629 255.433 86.7708 260.193 87.4264 265.01C88.0793 269.815 88.2768 274.629 88.2453 279.475C88.211 284.404 88.1194 289.325 88.4171 294.248C88.7092 299.068 89.2675 303.868 90.012 308.639C91.5037 318.192 93.717 327.614 96.0047 337.004C96.2939 338.193 96.586 339.384 96.8752 340.573C97.0556 341.313 95.9962 341.681 95.8043 340.903C93.5109 331.653 91.2517 322.384 89.5882 312.997C87.9275 303.615 86.9769 294.168 87.0514 284.634C87.0886 279.768 87.226 274.899 86.8366 270.042C86.4529 265.257 85.6312 260.52 84.6405 255.826C82.6334 246.313 80.1681 236.888 77.8832 227.438C76.7265 222.655 75.5697 217.873 74.4187 213.09C73.8947 210.911 73.428 208.709 72.8239 206.551C72.3686 204.923 71.7616 203.218 70.5905 201.96C70.0322 201.36 69.3479 200.924 68.5662 200.677C67.9707 200.488 68.194 199.44 68.8268 199.624L68.8239 199.629Z" fill="#F5D9BC"/>
<path d="M35.407 170.532C34.0412 180.507 34.0241 190.653 34.4707 200.697C34.9432 211.287 35.9911 221.843 37.0734 232.384C38.1185 242.543 39.3039 252.717 39.782 262.923C40.0626 268.937 40.0512 274.962 40.0712 280.982C40.0913 287.014 40.1113 293.045 40.1314 299.076C40.1714 311.085 40.2115 323.09 40.2488 335.098C40.2545 336.62 40.2602 338.141 40.2488 339.665C40.2459 340.357 39.281 340.357 39.2724 339.665C39.1178 327.548 39.175 315.425 39.135 303.308C39.0949 291.257 39.2466 279.188 38.9259 267.143C38.6453 256.693 37.4972 246.281 36.4263 235.892C35.3354 225.308 34.2273 214.718 33.6404 204.087C33.0792 193.985 32.9074 183.771 34.0928 173.707C34.2273 172.558 34.3791 171.413 34.5423 170.268C34.6339 169.627 35.4872 169.935 35.4041 170.532H35.407Z" fill="#F5D9BC"/>
<path d="M64.0137 200.832C60.2915 199.402 56.2858 198.871 52.3259 199.339C51.6531 199.42 51.6445 198.243 52.3259 198.168C56.366 197.729 60.5034 198.309 64.2456 199.899C64.7467 200.112 64.5635 201.042 64.0137 200.832Z" fill="#F5D9BC"/>
<path d="M60.8813 202.589C58.8426 202.873 56.7782 202.913 54.7482 202.534C54.207 202.434 54.3158 201.375 54.8799 201.452C56.8699 201.733 58.8827 201.848 60.8813 201.587C61.1418 201.553 61.3308 201.863 61.3308 202.087C61.3308 202.365 61.1447 202.552 60.8813 202.586V202.589Z" fill="#F5D9BC"/>
<path d="M78.3327 198.418C80.1337 197.973 81.9289 197.502 83.7156 197.003C85.5023 196.503 87.266 195.923 89.0527 195.424C89.7084 195.24 89.926 196.293 89.3218 196.506C87.5753 197.115 85.7657 197.585 83.9819 198.065C82.1895 198.547 80.3885 198.986 78.5789 199.394C77.9862 199.526 77.7715 198.558 78.3384 198.418H78.3327Z" fill="#F5D9BC"/>
<path d="M77.7602 201.09C79.5755 201.165 81.365 200.775 83.1746 200.729C84.6692 200.691 86.4273 200.841 87.6613 201.779C88.1366 202.141 87.7759 202.954 87.1918 202.675C85.8174 202.023 84.4373 201.808 82.9226 201.866C81.199 201.929 79.4896 202.23 77.7602 202.104C77.1732 202.061 77.1618 201.065 77.7602 201.088V201.09Z" fill="#F5D9BC"/>
<path d="M94.7651 78.3216C97.7658 87.9873 102.905 107.838 102.905 107.838L104.171 122.221L88.277 111.427L81.3078 81.1722L95.836 78.3245H94.7623L94.7651 78.3216Z" fill="#DE7F4C"/>
<path d="M59.5069 37.9652C59.7216 38.4302 58.4532 58.2094 58.4532 58.2094L43.026 63.7212C43.026 63.7212 66.7853 89.7298 74.2956 89.6207C81.803 89.5145 85.4766 61.1605 85.4766 61.1605L76.6606 59.2285L72.7322 42.3889L59.504 37.9652H59.5069Z" fill="#DE7F4C"/>
<path d="M84.5548 20.5313C86.1038 30.1539 87.7874 51.6297 75.7761 53.5244C70.7969 54.311 63.3782 47.5419 62.1184 44.453C59.0518 40.19 53.7863 38.812 53.0619 31.0467C52.0769 20.4911 58.5021 15.364 65.162 13.0043C74.7052 9.62549 83.5985 14.609 84.5519 20.5313H84.5548Z" fill="#DE7F4C"/>
<path d="M61.4397 31.7644C63.1376 33.5098 70.0036 30.5846 73.9435 25.6555C78.5218 19.9285 77.4653 17.6979 77.4653 17.6979C77.4653 17.6979 81.6857 30.1281 85.5282 28.3971C87.5124 25.6814 86.3242 18.206 83.2519 13.7392C80.5776 9.84941 77.6399 12.2637 77.6399 12.2637C77.6399 12.2637 74.7452 6.64283 66.2385 8.38248C56.4433 10.3834 51.7418 15.5707 49.8549 24.0451C47.2809 35.6083 55.3266 40.4483 56.6494 41.7287C58.1469 43.1784 59.507 43.5085 59.507 43.5085L60.0796 39.3919C60.0796 39.3919 54.9802 37.1039 55.2178 32.5998C55.381 29.5052 58.3502 29.0659 59.3065 29.4478C61.0044 30.1252 61.4425 31.7644 61.4425 31.7644H61.4397Z" fill="#693923"/>
<path d="M75.4838 15.9382C74.0436 20.4624 71.9907 25.1101 67.8103 27.7196C66.7538 28.3798 65.5913 28.8707 64.3773 29.1377C63.6787 29.2899 63.4267 28.1358 64.0938 27.9923C68.4546 27.0565 71.4123 23.3561 73.1732 19.4692C73.7315 18.2348 74.1954 16.9602 74.6163 15.6712C74.8167 15.0569 75.6757 15.344 75.4867 15.9382H75.4838Z" fill="#804A38"/>
<path d="M70.2127 18.7486C68.1455 21.9753 64.847 24.7857 61.036 25.5953C60.4118 25.7273 60.2028 24.7714 60.7812 24.5704C62.5163 23.9676 64.1684 23.2355 65.6745 22.1676C67.1548 21.117 68.469 19.7821 69.4597 18.2577C69.8004 17.7324 70.5277 18.2577 70.2127 18.7486Z" fill="#804A38"/>
<path d="M65.4396 16.4233C60.9873 17.9879 56.1828 20.2557 54.2873 24.912C54.0525 25.4862 53.8893 26.0948 53.7805 26.7062C53.666 27.3464 53.706 27.9751 53.686 28.621C53.666 29.2325 52.8013 29.442 52.661 28.776C52.4119 27.5789 52.6552 26.1924 53.0332 25.047C53.4283 23.8527 54.0267 22.7533 54.7798 21.7456C56.3517 19.6471 58.5793 18.1544 60.9386 17.075C62.3244 16.4406 63.7532 15.9267 65.1991 15.4502C65.7775 15.2578 65.9837 16.231 65.4396 16.4233Z" fill="#804A38"/>
<path d="M79.209 16.9716C79.922 18.8979 80.6177 20.8356 81.5053 22.6901C81.8976 23.5083 82.3729 24.203 82.9914 24.8661C83.564 25.4833 84.214 26.1436 84.4173 26.9876C84.549 27.5359 83.8733 27.9033 83.5583 27.3923C83.1116 26.6632 82.5676 26.0747 81.9978 25.4402C81.3708 24.7455 80.8955 23.9561 80.5061 23.1064C79.6385 21.2174 78.8683 19.251 78.2785 17.2587C78.0866 16.6071 78.9742 16.3315 79.2119 16.9716H79.209Z" fill="#804A38"/>
<path d="M80.7693 15.3583C81.0986 15.9899 81.4422 16.6128 81.8058 17.2271C82.1695 17.8386 82.5703 18.4328 82.9254 19.05C83.0485 19.2653 82.9912 19.5782 82.8022 19.7361C82.6247 19.8825 82.3298 19.8969 82.1752 19.6959C81.7285 19.1046 81.3477 18.4529 80.9812 17.8099C80.6205 17.1812 80.2769 16.541 79.9533 15.8951C79.8331 15.654 79.8875 15.3267 80.1222 15.1774C80.3513 15.031 80.6462 15.1315 80.7665 15.3669L80.7693 15.3583Z" fill="#804A38"/>
<path d="M58.6996 31.8936C56.724 32.7519 58.3188 35.3844 59.6216 36.0906C60.0768 36.3375 59.8592 37.0982 59.3696 37.124C58.6509 37.1614 58.1155 36.547 57.7118 36.0274C57.2737 35.459 56.8929 34.8361 56.7097 34.1356C56.5235 33.4266 56.5636 32.663 56.8643 31.9912C57.1363 31.3826 57.7347 30.82 58.3961 30.6735C59.1577 30.5042 59.3524 31.6123 58.6996 31.8965V31.8936Z" fill="#C4643D"/>
<path d="M67.5699 48.9887C68.3458 49.9073 69.3537 50.6393 70.3959 51.225C71.4181 51.802 72.572 52.2814 73.7488 52.4106C74.0666 52.445 74.2957 52.6919 74.2957 53.0192C74.2957 53.2948 74.0695 53.6622 73.7488 53.6278C72.4002 53.4813 71.1174 52.979 69.9349 52.3245C68.7724 51.6785 67.6644 50.846 66.8856 49.7552C66.7224 49.5255 66.6823 49.2126 66.8856 48.9916C67.0688 48.7935 67.3924 48.7791 67.5727 48.9916L67.5699 48.9887Z" fill="#C4643D"/>
<path d="M38.7799 70.6109C26.09 86.3883 9.68073 111.668 7.79384 122.78C6.73444 129.024 29.0363 127.015 30.7886 121.239C33.0735 113.709 49.7748 91.3747 50.6338 82.7827C50.6338 82.7827 49.9981 56.6621 38.7799 70.6109Z" fill="#DE7F4C"/>
<path d="M76.6607 59.2285C76.6607 59.2285 76.9098 77.6298 75.7673 80.9225C74.6249 84.2152 56.9128 59.2285 56.9128 59.2285L41.9151 62.8801C41.9151 62.8801 37.4885 77.9168 37.2022 85.3635C36.9159 92.8101 46.4849 112.429 46.7712 113.861C47.0575 115.293 37.9065 127.537 33.4886 141.784C29.7978 153.689 31.198 179.302 24.3032 190.004C25.4457 190.147 38.4534 181.168 43.0232 178.59C47.5929 176.012 48.6781 176.155 59.5041 178.59C70.33 181.024 70.9313 181.168 76.7866 178.59C82.642 176.012 85.3936 174.152 93.8201 178.59C102.247 183.028 111.02 181.446 112.878 181.303C114.733 181.159 105.76 167.276 107.618 158.254C109.474 149.231 112.188 141.07 107.761 129.185C103.335 117.3 89.6226 110.141 89.6226 110.141C89.6226 110.141 97.4793 102.407 97.6196 98.2558C97.7628 94.1019 88.274 61.5079 88.274 61.5079L76.6607 59.2343V59.2285Z" fill="#79070C"/>
<path d="M41.9209 62.8801C36.6354 62.8743 28.037 73.7113 24.3234 85.596C21.1452 95.7669 15.3299 95.7698 16.2118 97.1047C21.6663 105.352 30.8029 98.7582 34.3505 99.6826C37.0935 100.397 40.9216 109.42 44.4921 104.982C48.0626 100.544 45.8207 62.8858 41.9209 62.8829V62.8801Z" fill="#79070C"/>
<path d="M87.3635 61.3241C93.0527 62.237 95.5151 64.2781 97.6225 67.4646C101.064 72.6692 106.049 92.3824 110.762 97.8224C115.475 103.265 103.644 99.9696 99.0627 99.2548C94.4786 98.54 90.6419 101.681 88.2768 100.897C85.9118 100.113 86.4444 61.1777 87.3635 61.327V61.3241Z" fill="#79070C"/>
<mask id="mask0_299_169" style="mask-type:luminance" maskUnits="userSpaceOnUse" x="16" y="59" width="98" height="132">
<path d="M24.3205 85.596C28.0341 73.7113 36.6325 62.8743 41.918 62.8801L56.9157 59.2285C56.9157 59.2285 74.625 84.2152 75.7702 80.9225C76.9127 77.6298 76.6636 59.2285 76.6636 59.2285L87.3636 61.3241C93.0528 62.237 95.5152 64.2781 97.6226 67.4646C101.064 72.6692 106.049 92.3824 110.762 97.8224C115.475 103.265 103.644 99.9696 99.0628 99.2548C98.5274 99.1716 98.0005 99.1429 97.488 99.1515C96.4401 103.426 89.6255 110.138 89.6255 110.138C89.6255 110.138 103.338 117.297 107.764 129.182C112.191 141.067 109.479 149.231 107.621 158.251C105.766 167.273 114.739 181.156 112.881 181.3C111.025 181.443 102.252 183.028 93.823 178.587C85.3965 174.149 82.6449 176.009 76.7896 178.587C70.9342 181.165 70.3301 181.021 59.507 178.587C48.681 176.153 47.5987 176.009 43.0261 178.587C38.4564 181.165 25.4486 190.144 24.3062 190.001C31.2009 179.302 29.8008 153.686 33.4915 141.782C37.9095 127.534 47.0604 115.291 46.7741 113.858C46.6653 113.31 45.1936 110.092 43.4356 105.915C40.1801 107.732 36.8243 100.328 34.3476 99.6826C30.8 98.7582 21.6634 105.352 16.2089 97.1047C15.327 95.7698 21.1423 95.7669 24.3205 85.596Z" fill="white"/>
</mask>
<g mask="url(#mask0_299_169)">
<mask id="mask1_299_169" style="mask-type:luminance" maskUnits="userSpaceOnUse" x="2" y="37" width="36" height="36">
<path d="M2.5884 37.1011H37.7949V72.3993H2.5884V37.1011Z" fill="white"/>
</mask>
<g mask="url(#mask1_299_169)">
<path d="M17.6787 72.9898C17.3507 71.5964 18.2114 70.2003 19.6012 69.8714C20.991 69.5425 22.3835 70.4055 22.7115 71.7989C23.0395 73.1922 22.1788 74.5884 20.789 74.9173C19.3993 75.2461 18.0068 74.3832 17.6787 72.9898Z" fill="#FFF4E8"/>
<path d="M35.2793 64.1666C34.9513 62.7732 35.812 61.377 37.2018 61.0482C38.5915 60.7193 39.9841 61.5823 40.3121 62.9756C40.6401 64.369 39.7794 65.7652 38.3896 66.094C36.9999 66.4229 35.6073 65.5599 35.2793 64.1666Z" fill="#FFF4E8"/>
</g>
<mask id="mask2_299_169" style="mask-type:luminance" maskUnits="userSpaceOnUse" x="2" y="72" width="36" height="36">
<path d="M2.5884 72.3993H37.7949V107.698H2.5884V72.3993Z" fill="white"/>
</mask>
<g mask="url(#mask2_299_169)">
<path d="M17.678 108.287C17.35 106.893 18.2107 105.497 19.6005 105.168C20.9902 104.839 22.3828 105.702 22.7108 107.096C23.0388 108.489 22.1781 109.885 20.7883 110.214C19.3986 110.543 18.006 109.68 17.678 108.287Z" fill="#FFF4E8"/>
<path d="M35.2815 99.4634C34.9535 98.0701 35.8142 96.6739 37.204 96.345C38.5937 96.0162 39.9863 96.8791 40.3143 98.2725C40.6423 99.6659 39.7816 101.062 38.3918 101.391C37.0021 101.72 35.6095 100.857 35.2815 99.4634Z" fill="#FFF4E8"/>
<path d="M17.677 90.6397C17.349 89.2463 18.2097 87.8501 19.5995 87.5213C20.9893 87.1924 22.3818 88.0553 22.7098 89.4487C23.0378 90.8421 22.1771 92.2383 20.7873 92.5671C19.3976 92.896 18.0051 92.033 17.677 90.6397Z" fill="#FFF4E8"/>
<path d="M35.2803 81.8136C34.9523 80.4202 35.813 79.024 37.2028 78.6952C38.5925 78.3663 39.9851 79.2293 40.3131 80.6226C40.6411 82.016 39.7804 83.4122 38.3906 83.741C37.0009 84.0699 35.6083 83.2069 35.2803 81.8136Z" fill="#FFF4E8"/>
<path d="M17.6787 72.9898C17.3507 71.5964 18.2114 70.2003 19.6012 69.8714C20.991 69.5425 22.3835 70.4055 22.7115 71.7989C23.0395 73.1922 22.1788 74.5884 20.789 74.9173C19.3993 75.2461 18.0068 74.3832 17.6787 72.9898Z" fill="#FFF4E8"/>
</g>
<mask id="mask3_299_169" style="mask-type:luminance" maskUnits="userSpaceOnUse" x="2" y="107" width="36" height="36">
<path d="M2.5884 107.698H37.7949V142.996H2.5884V107.698Z" fill="white"/>
</mask>
<g mask="url(#mask3_299_169)">
<path d="M17.6775 143.584C17.3495 142.19 18.2102 140.794 19.6 140.465C20.9897 140.136 22.3823 140.999 22.7103 142.393C23.0383 143.786 22.1776 145.182 20.7878 145.511C19.3981 145.84 18.0055 144.977 17.6775 143.584Z" fill="#FFF4E8"/>
<path d="M35.281 134.76C34.953 133.367 35.8137 131.971 37.2035 131.642C38.5933 131.313 39.9858 132.176 40.3138 133.569C40.6418 134.963 39.7811 136.359 38.3913 136.688C37.0016 137.017 35.6091 136.154 35.281 134.76Z" fill="#FFF4E8"/>
<path d="M17.6765 125.937C17.3485 124.543 18.2092 123.147 19.599 122.818C20.9888 122.489 22.3813 123.352 22.7093 124.746C23.0373 126.139 22.1766 127.535 20.7868 127.864C19.3971 128.193 18.0046 127.33 17.6765 125.937Z" fill="#FFF4E8"/>
<path d="M35.2798 117.11C34.9518 115.717 35.8125 114.321 37.2023 113.992C38.592 113.663 39.9846 114.526 40.3126 115.919C40.6406 117.313 39.7799 118.709 38.3901 119.038C37.0004 119.367 35.6078 118.504 35.2798 117.11Z" fill="#FFF4E8"/>
<path d="M17.6783 108.287C17.3502 106.893 18.211 105.497 19.6007 105.168C20.9905 104.839 22.383 105.702 22.711 107.096C23.039 108.489 22.1783 109.885 20.7886 110.214C19.3988 110.543 18.0063 109.68 17.6783 108.287Z" fill="#FFF4E8"/>
</g>
<mask id="mask4_299_169" style="mask-type:luminance" maskUnits="userSpaceOnUse" x="2" y="142" width="36" height="37">
<path d="M2.5884 142.996H37.7949V178.294H2.5884V142.996Z" fill="white"/>
</mask>
<g mask="url(#mask4_299_169)">
<path d="M17.6768 178.88C17.3488 177.487 18.2095 176.091 19.5992 175.762C20.989 175.433 22.3815 176.296 22.7095 177.689C23.0376 179.083 22.1768 180.479 20.7871 180.808C19.3973 181.137 18.0048 180.274 17.6768 178.88Z" fill="#FFF4E8"/>
<path d="M35.2803 170.057C34.9523 168.664 35.813 167.268 37.2028 166.939C38.5925 166.61 39.9851 167.473 40.3131 168.866C40.6411 170.26 39.7804 171.656 38.3906 171.985C37.0008 172.314 35.6083 171.451 35.2803 170.057Z" fill="#FFF4E8"/>
<path d="M17.6758 161.233C17.3478 159.84 18.2085 158.444 19.5983 158.115C20.988 157.786 22.3806 158.649 22.7086 160.042C23.0366 161.436 22.1759 162.832 20.7861 163.161C19.3964 163.49 18.0038 162.627 17.6758 161.233Z" fill="#FFF4E8"/>
<path d="M35.2791 152.407C34.9511 151.014 35.8118 149.618 37.2016 149.289C38.5913 148.96 39.9838 149.823 40.3118 151.216C40.6399 152.61 39.7792 154.006 38.3894 154.335C36.9996 154.664 35.6071 153.801 35.2791 152.407Z" fill="#FFF4E8"/>
<path d="M17.6775 143.584C17.3495 142.19 18.2102 140.794 19.6 140.465C20.9897 140.136 22.3823 140.999 22.7103 142.393C23.0383 143.786 22.1776 145.182 20.7878 145.511C19.3981 145.84 18.0055 144.977 17.6775 143.584Z" fill="#FFF4E8"/>
</g>
<mask id="mask5_299_169" style="mask-type:luminance" maskUnits="userSpaceOnUse" x="2" y="178" width="36" height="36">
<path d="M2.5884 178.294H37.7949V213.592H2.5884V178.294Z" fill="white"/>
</mask>
<g mask="url(#mask5_299_169)">
<path d="M35.2786 187.704C34.9506 186.311 35.8113 184.915 37.2011 184.586C38.5908 184.257 39.9833 185.12 40.3114 186.513C40.6394 187.907 39.7786 189.303 38.3889 189.632C36.9991 189.96 35.6066 189.098 35.2786 187.704Z" fill="#FFF4E8"/>
<path d="M17.677 178.88C17.349 177.487 18.2097 176.091 19.5995 175.762C20.9892 175.433 22.3818 176.296 22.7098 177.689C23.0378 179.083 22.1771 180.479 20.7873 180.808C19.3976 181.137 18.0051 180.274 17.677 178.88Z" fill="#FFF4E8"/>
</g>
<mask id="mask6_299_169" style="mask-type:luminance" maskUnits="userSpaceOnUse" x="37" y="37" width="37" height="36">
<path d="M37.7949 37.1011H73.0015V72.3993H37.7949V37.1011Z" fill="white"/>
</mask>
<g mask="url(#mask6_299_169)">
<path d="M35.2793 64.1666C34.9513 62.7732 35.812 61.377 37.2018 61.0482C38.5915 60.7193 39.9841 61.5823 40.3121 62.9756C40.6401 64.369 39.7794 65.7652 38.3896 66.094C36.9999 66.4229 35.6073 65.5599 35.2793 64.1666Z" fill="#FFF4E8"/>
<path d="M52.8838 72.9904C52.5558 71.597 53.4165 70.2008 54.8063 69.872C56.196 69.5431 57.5886 70.406 57.9166 71.7994C58.2446 73.1928 57.3839 74.5889 55.9941 74.9178C54.6044 75.2467 53.2118 74.3837 52.8838 72.9904Z" fill="#FFF4E8"/>
<path d="M70.4844 64.1671C70.1564 62.7738 71.0171 61.3776 72.4069 61.0487C73.7966 60.7199 75.1892 61.5828 75.5172 62.9762C75.8452 64.3696 74.9845 65.7657 73.5947 66.0946C72.2049 66.4235 70.8124 65.5605 70.4844 64.1671Z" fill="#FFF4E8"/>
</g>
<mask id="mask7_299_169" style="mask-type:luminance" maskUnits="userSpaceOnUse" x="37" y="72" width="37" height="36">
<path d="M37.7949 72.3993H73.0015V107.698H37.7949V72.3993Z" fill="white"/>
</mask>
<g mask="url(#mask7_299_169)">
<path d="M35.2815 99.4634C34.9535 98.0701 35.8142 96.6739 37.204 96.345C38.5937 96.0162 39.9863 96.8791 40.3143 98.2725C40.6423 99.6659 39.7816 101.062 38.3918 101.391C37.0021 101.72 35.6095 100.857 35.2815 99.4634Z" fill="#FFF4E8"/>
<path d="M52.8831 108.287C52.5551 106.894 53.4158 105.498 54.8056 105.169C56.1953 104.84 57.5878 105.703 57.9158 107.096C58.2439 108.49 57.3831 109.886 55.9934 110.215C54.6036 110.544 53.2111 109.681 52.8831 108.287Z" fill="#FFF4E8"/>
<path d="M70.4866 99.464C70.1586 98.0706 71.0193 96.6745 72.4091 96.3456C73.7988 96.0167 75.1914 96.8797 75.5194 98.2731C75.8474 99.6664 74.9867 101.063 73.5969 101.391C72.2071 101.72 70.8146 100.857 70.4866 99.464Z" fill="#FFF4E8"/>
<path d="M35.2803 81.8136C34.9523 80.4202 35.813 79.024 37.2028 78.6952C38.5925 78.3663 39.9851 79.2293 40.3131 80.6226C40.6411 82.016 39.7804 83.4122 38.3906 83.741C37.0009 84.0699 35.6083 83.2069 35.2803 81.8136Z" fill="#FFF4E8"/>
<path d="M52.8821 90.6402C52.5541 89.2469 53.4148 87.8507 54.8046 87.5218C56.1943 87.193 57.5869 88.0559 57.9149 89.4493C58.2429 90.8427 57.3822 92.2388 55.9924 92.5677C54.6027 92.8966 53.2101 92.0336 52.8821 90.6402Z" fill="#FFF4E8"/>
<path d="M70.4854 81.8141C70.1574 80.4207 71.0181 79.0246 72.4078 78.6957C73.7976 78.3669 75.1901 79.2298 75.5181 80.6232C75.8462 82.0166 74.9854 83.4127 73.5957 83.7416C72.2059 84.0705 70.8134 83.2075 70.4854 81.8141Z" fill="#FFF4E8"/>
<path d="M52.8838 72.9904C52.5558 71.597 53.4165 70.2008 54.8063 69.872C56.196 69.5431 57.5886 70.406 57.9166 71.7994C58.2446 73.1928 57.3839 74.589 55.9941 74.9178C54.6044 75.2467 53.2118 74.3837 52.8838 72.9904Z" fill="#FFF4E8"/>
</g>
<mask id="mask8_299_169" style="mask-type:luminance" maskUnits="userSpaceOnUse" x="37" y="107" width="37" height="36">
<path d="M37.7949 107.698H73.0015V142.996H37.7949V107.698Z" fill="white"/>
</mask>
<g mask="url(#mask8_299_169)">
<path d="M35.281 134.76C34.953 133.367 35.8137 131.971 37.2035 131.642C38.5933 131.313 39.9858 132.176 40.3138 133.569C40.6418 134.963 39.7811 136.359 38.3913 136.688C37.0016 137.017 35.6091 136.154 35.281 134.76Z" fill="#FFF4E8"/>
<path d="M52.8826 143.584C52.5546 142.191 53.4153 140.795 54.8051 140.466C56.1948 140.137 57.5873 141 57.9154 142.393C58.2434 143.787 57.3827 145.183 55.9929 145.512C54.6031 145.84 53.2106 144.977 52.8826 143.584Z" fill="#FFF4E8"/>
<path d="M70.4861 134.761C70.1581 133.367 71.0188 131.971 72.4086 131.642C73.7983 131.314 75.1909 132.177 75.5189 133.57C75.8469 134.963 74.9862 136.359 73.5964 136.688C72.2067 137.017 70.8141 136.154 70.4861 134.761Z" fill="#FFF4E8"/>
<path d="M35.2798 117.11C34.9518 115.717 35.8125 114.321 37.2023 113.992C38.592 113.663 39.9846 114.526 40.3126 115.919C40.6406 117.313 39.7799 118.709 38.3901 119.038C37.0004 119.367 35.6078 118.504 35.2798 117.11Z" fill="#FFF4E8"/>
<path d="M52.8816 125.937C52.5536 124.544 53.4143 123.148 54.8041 122.819C56.1938 122.49 57.5864 123.353 57.9144 124.746C58.2424 126.14 57.3817 127.536 55.9919 127.865C54.6022 128.193 53.2096 127.33 52.8816 125.937Z" fill="#FFF4E8"/>
<path d="M70.4849 117.111C70.1569 115.718 71.0176 114.321 72.4074 113.993C73.7971 113.664 75.1896 114.527 75.5177 115.92C75.8457 117.313 74.985 118.71 73.5952 119.038C72.2054 119.367 70.8129 118.504 70.4849 117.111Z" fill="#FFF4E8"/>
<path d="M52.8833 108.287C52.5553 106.894 53.416 105.498 54.8058 105.169C56.1956 104.84 57.5881 105.703 57.9161 107.096C58.2441 108.49 57.3834 109.886 55.9936 110.215C54.6039 110.544 53.2114 109.681 52.8833 108.287Z" fill="#FFF4E8"/>
</g>
<mask id="mask9_299_169" style="mask-type:luminance" maskUnits="userSpaceOnUse" x="37" y="142" width="37" height="37">
<path d="M37.7949 142.996H73.0015V178.294H37.7949V142.996Z" fill="white"/>
</mask>
<g mask="url(#mask9_299_169)">
<path d="M35.2806 170.057C34.9525 168.664 35.8132 167.268 37.203 166.939C38.5928 166.61 39.9853 167.473 40.3133 168.866C40.6413 170.26 39.7806 171.656 38.3908 171.985C37.0011 172.314 35.6086 171.451 35.2806 170.057Z" fill="#FFF4E8"/>
<path d="M52.8821 178.881C52.5541 177.488 53.4148 176.091 54.8046 175.763C56.1943 175.434 57.5869 176.297 57.9149 177.69C58.2429 179.083 57.3822 180.48 55.9924 180.808C54.6026 181.137 53.2101 180.274 52.8821 178.881Z" fill="#FFF4E8"/>
<path d="M70.4856 170.058C70.1576 168.664 71.0183 167.268 72.4081 166.939C73.7978 166.61 75.1904 167.473 75.5184 168.867C75.8464 170.26 74.9857 171.656 73.5959 171.985C72.2062 172.314 70.8136 171.451 70.4856 170.058Z" fill="#FFF4E8"/>
<path d="M35.2793 152.407C34.9513 151.014 35.812 149.618 37.2018 149.289C38.5916 148.96 39.9841 149.823 40.3121 151.216C40.6401 152.61 39.7794 154.006 38.3896 154.335C36.9999 154.664 35.6073 153.801 35.2793 152.407Z" fill="#FFF4E8"/>
<path d="M52.8811 161.234C52.5531 159.841 53.4139 158.444 54.8036 158.116C56.1934 157.787 57.5859 158.65 57.9139 160.043C58.2419 161.436 57.3812 162.833 55.9914 163.161C54.6017 163.49 53.2092 162.627 52.8811 161.234Z" fill="#FFF4E8"/>
<path d="M70.4844 152.408C70.1564 151.015 71.0171 149.618 72.4069 149.289C73.7966 148.961 75.1892 149.824 75.5172 151.217C75.8452 152.61 74.9845 154.006 73.5947 154.335C72.205 154.664 70.8124 153.801 70.4844 152.408Z" fill="#FFF4E8"/>
<path d="M52.8829 143.584C52.5548 142.191 53.4156 140.795 54.8053 140.466C56.1951 140.137 57.5876 141 57.9156 142.393C58.2436 143.787 57.3829 145.183 55.9931 145.512C54.6034 145.84 53.2109 144.977 52.8829 143.584Z" fill="#FFF4E8"/>
</g>
<mask id="mask10_299_169" style="mask-type:luminance" maskUnits="userSpaceOnUse" x="37" y="178" width="37" height="36">
<path d="M37.7949 178.294H73.0015V213.592H37.7949V178.294Z" fill="white"/>
</mask>
<g mask="url(#mask10_299_169)">
<path d="M35.2786 187.704C34.9506 186.311 35.8113 184.915 37.2011 184.586C38.5908 184.257 39.9833 185.12 40.3114 186.513C40.6394 187.907 39.7786 189.303 38.3889 189.632C36.9991 189.961 35.6066 189.098 35.2786 187.704Z" fill="#FFF4E8"/>
<path d="M70.4837 187.705C70.1557 186.311 71.0164 184.915 72.4061 184.586C73.7959 184.257 75.1884 185.12 75.5164 186.514C75.8444 187.907 74.9837 189.303 73.594 189.632C72.2042 189.961 70.8117 189.098 70.4837 187.705Z" fill="#FFF4E8"/>
<path d="M52.8821 178.881C52.5541 177.488 53.4148 176.091 54.8046 175.763C56.1943 175.434 57.5869 176.297 57.9149 177.69C58.2429 179.083 57.3822 180.48 55.9924 180.808C54.6026 181.137 53.2101 180.274 52.8821 178.881Z" fill="#FFF4E8"/>
</g>
<mask id="mask11_299_169" style="mask-type:luminance" maskUnits="userSpaceOnUse" x="73" y="37" width="36" height="36">
<path d="M73.0015 37.1011H108.208V72.3993H73.0015V37.1011Z" fill="white"/>
</mask>
<g mask="url(#mask11_299_169)">
<path d="M70.4844 64.1671C70.1564 62.7738 71.0171 61.3776 72.4069 61.0487C73.7966 60.7199 75.1892 61.5828 75.5172 62.9762C75.8452 64.3696 74.9845 65.7657 73.5947 66.0946C72.2049 66.4235 70.8124 65.5605 70.4844 64.1671Z" fill="#FFF4E8"/>
<path d="M88.0889 72.9909C87.7609 71.5975 88.6216 70.2014 90.0114 69.8725C91.4011 69.5436 92.7936 70.4066 93.1217 71.8C93.4497 73.1934 92.589 74.5895 91.1992 74.9184C89.8094 75.2472 88.4169 74.3843 88.0889 72.9909Z" fill="#FFF4E8"/>
<path d="M105.689 64.1677C105.361 62.7743 106.222 61.3782 107.612 61.0493C109.002 60.7204 110.394 61.5834 110.722 62.9768C111.05 64.3701 110.19 65.7663 108.8 66.0952C107.41 66.424 106.017 65.5611 105.689 64.1677Z" fill="#FFF4E8"/>
</g>
<mask id="mask12_299_169" style="mask-type:luminance" maskUnits="userSpaceOnUse" x="73" y="72" width="36" height="36">
<path d="M73.0015 72.3993H108.208V107.698H73.0015V72.3993Z" fill="white"/>
</mask>
<g mask="url(#mask12_299_169)">
<path d="M70.4866 99.464C70.1586 98.0706 71.0193 96.6745 72.4091 96.3456C73.7988 96.0167 75.1914 96.8797 75.5194 98.2731C75.8474 99.6664 74.9867 101.063 73.5969 101.391C72.2071 101.72 70.8146 100.857 70.4866 99.464Z" fill="#FFF4E8"/>
<path d="M88.0884 108.288C87.7604 106.894 88.6211 105.498 90.0109 105.169C91.4006 104.841 92.7932 105.703 93.1212 107.097C93.4492 108.49 92.5885 109.886 91.1987 110.215C89.809 110.544 88.4164 109.681 88.0884 108.288Z" fill="#FFF4E8"/>
<path d="M105.689 99.4646C105.361 98.0712 106.222 96.675 107.611 96.3462C109.001 96.0173 110.394 96.8802 110.722 98.2736C111.05 99.667 110.189 101.063 108.799 101.392C107.41 101.721 106.017 100.858 105.689 99.4646Z" fill="#FFF4E8"/>
<path d="M70.4856 81.8141C70.1576 80.4207 71.0183 79.0246 72.4081 78.6957C73.7978 78.3669 75.1904 79.2298 75.5184 80.6232C75.8464 82.0166 74.9857 83.4127 73.5959 83.7416C72.2062 84.0705 70.8136 83.2075 70.4856 81.8141Z" fill="#FFF4E8"/>
<path d="M88.0872 90.6408C87.7592 89.2474 88.6199 87.8512 90.0097 87.5224C91.3994 87.1935 92.7919 88.0565 93.1199 89.4498C93.448 90.8432 92.5872 92.2394 91.1975 92.5682C89.8077 92.8971 88.4152 92.0342 88.0872 90.6408Z" fill="#FFF4E8"/>
<path d="M105.691 81.8147C105.363 80.4213 106.223 79.0252 107.613 78.6963C109.003 78.3674 110.395 79.2304 110.723 80.6238C111.051 82.0171 110.191 83.4133 108.801 83.7422C107.411 84.071 106.019 83.2081 105.691 81.8147Z" fill="#FFF4E8"/>
<path d="M88.0889 72.9909C87.7609 71.5975 88.6216 70.2014 90.0114 69.8725C91.4011 69.5436 92.7936 70.4066 93.1217 71.8C93.4497 73.1934 92.589 74.5895 91.1992 74.9184C89.8094 75.2472 88.4169 74.3843 88.0889 72.9909Z" fill="#FFF4E8"/>
</g>
<mask id="mask13_299_169" style="mask-type:luminance" maskUnits="userSpaceOnUse" x="73" y="107" width="36" height="36">
<path d="M73.0015 107.698H108.208V142.996H73.0015V107.698Z" fill="white"/>
</mask>
<g mask="url(#mask13_299_169)">
<path d="M70.4861 134.761C70.1581 133.367 71.0188 131.971 72.4086 131.642C73.7983 131.314 75.1909 132.177 75.5189 133.57C75.8469 134.963 74.9862 136.359 73.5964 136.688C72.2067 137.017 70.8141 136.154 70.4861 134.761Z" fill="#FFF4E8"/>
<path d="M88.0877 143.585C87.7597 142.191 88.6204 140.795 90.0101 140.466C91.3999 140.137 92.7924 141 93.1204 142.394C93.4484 143.787 92.5877 145.183 91.198 145.512C89.8082 145.841 88.4157 144.978 88.0877 143.585Z" fill="#FFF4E8"/>
<path d="M105.691 134.761C105.363 133.368 106.224 131.972 107.614 131.643C109.003 131.314 110.396 132.177 110.724 133.57C111.052 134.964 110.191 136.36 108.801 136.689C107.412 137.018 106.019 136.155 105.691 134.761Z" fill="#FFF4E8"/>
<path d="M70.4849 117.111C70.1569 115.718 71.0176 114.321 72.4074 113.993C73.7971 113.664 75.1896 114.527 75.5177 115.92C75.8457 117.313 74.985 118.71 73.5952 119.038C72.2054 119.367 70.8129 118.504 70.4849 117.111Z" fill="#FFF4E8"/>
<path d="M88.0867 125.938C87.7587 124.544 88.6194 123.148 90.0092 122.819C91.3989 122.49 92.7914 123.353 93.1195 124.747C93.4475 126.14 92.5868 127.536 91.197 127.865C89.8072 128.194 88.4147 127.331 88.0867 125.938Z" fill="#FFF4E8"/>
<path d="M105.69 117.112C105.362 115.718 106.223 114.322 107.612 113.993C109.002 113.664 110.395 114.527 110.723 115.921C111.051 117.314 110.19 118.71 108.8 119.039C107.411 119.368 106.018 118.505 105.69 117.112Z" fill="#FFF4E8"/>
<path d="M88.0884 108.288C87.7604 106.894 88.6211 105.498 90.0109 105.169C91.4006 104.841 92.7932 105.703 93.1212 107.097C93.4492 108.49 92.5885 109.886 91.1987 110.215C89.809 110.544 88.4164 109.681 88.0884 108.288Z" fill="#FFF4E8"/>
</g>
<mask id="mask14_299_169" style="mask-type:luminance" maskUnits="userSpaceOnUse" x="73" y="142" width="36" height="37">
<path d="M73.0015 142.996H108.208V178.294H73.0015V142.996Z" fill="white"/>
</mask>
<g mask="url(#mask14_299_169)">
<path d="M70.4856 170.058C70.1576 168.664 71.0183 167.268 72.4081 166.939C73.7978 166.61 75.1904 167.473 75.5184 168.867C75.8464 170.26 74.9857 171.656 73.5959 171.985C72.2062 172.314 70.8136 171.451 70.4856 170.058Z" fill="#FFF4E8"/>
<path d="M88.0872 178.882C87.7592 177.488 88.6199 176.092 90.0096 175.763C91.3994 175.434 92.7919 176.297 93.1199 177.691C93.448 179.084 92.5872 180.48 91.1975 180.809C89.8077 181.138 88.4152 180.275 88.0872 178.882Z" fill="#FFF4E8"/>
<path d="M105.691 170.058C105.363 168.665 106.223 167.269 107.613 166.94C109.003 166.611 110.395 167.474 110.723 168.867C111.051 170.261 110.191 171.657 108.801 171.986C107.411 172.315 106.019 171.452 105.691 170.058Z" fill="#FFF4E8"/>
<path d="M70.4844 152.408C70.1564 151.014 71.0171 149.618 72.4069 149.289C73.7966 148.961 75.1892 149.824 75.5172 151.217C75.8452 152.61 74.9845 154.006 73.5947 154.335C72.205 154.664 70.8124 153.801 70.4844 152.408Z" fill="#FFF4E8"/>
<path d="M88.0862 161.235C87.7582 159.841 88.6189 158.445 90.0087 158.116C91.3984 157.787 92.791 158.65 93.119 160.044C93.447 161.437 92.5863 162.833 91.1965 163.162C89.8068 163.491 88.4142 162.628 88.0862 161.235Z" fill="#FFF4E8"/>
<path d="M105.689 152.408C105.361 151.015 106.222 149.619 107.612 149.29C109.002 148.961 110.394 149.824 110.722 151.217C111.05 152.611 110.19 154.007 108.8 154.336C107.41 154.665 106.018 153.802 105.689 152.408Z" fill="#FFF4E8"/>
<path d="M88.0879 143.585C87.7599 142.191 88.6206 140.795 90.0104 140.466C91.4001 140.137 92.7927 141 93.1207 142.394C93.4487 143.787 92.588 145.183 91.1982 145.512C89.8085 145.841 88.4159 144.978 88.0879 143.585Z" fill="#FFF4E8"/>
</g>
<mask id="mask15_299_169" style="mask-type:luminance" maskUnits="userSpaceOnUse" x="73" y="178" width="36" height="36">
<path d="M73.0015 178.294H108.208V213.592H73.0015V178.294Z" fill="white"/>
</mask>
<g mask="url(#mask15_299_169)">
<path d="M70.4839 187.705C70.1559 186.311 71.0166 184.915 72.4064 184.586C73.7961 184.257 75.1887 185.12 75.5167 186.514C75.8447 187.907 74.984 189.303 73.5942 189.632C72.2045 189.961 70.8119 189.098 70.4839 187.705Z" fill="#FFF4E8"/>
<path d="M105.689 187.705C105.361 186.312 106.222 184.916 107.611 184.587C109.001 184.258 110.394 185.121 110.722 186.514C111.05 187.908 110.189 189.304 108.799 189.633C107.41 189.962 106.017 189.099 105.689 187.705Z" fill="#FFF4E8"/>
<path d="M88.0874 178.882C87.7594 177.488 88.6201 176.092 90.0099 175.763C91.3996 175.434 92.7922 176.297 93.1202 177.691C93.4482 179.084 92.5875 180.48 91.1977 180.809C89.808 181.138 88.4155 180.275 88.0874 178.882Z" fill="#FFF4E8"/>
</g>
<mask id="mask16_299_169" style="mask-type:luminance" maskUnits="userSpaceOnUse" x="108" y="37" width="36" height="36">
<path d="M108.208 37.1011H143.415V72.3993H108.208V37.1011Z" fill="white"/>
</mask>
<g mask="url(#mask16_299_169)">
<path d="M105.689 64.1677C105.361 62.7743 106.222 61.3782 107.612 61.0493C109.002 60.7204 110.394 61.5834 110.722 62.9768C111.05 64.3701 110.19 65.7663 108.8 66.0952C107.41 66.424 106.017 65.5611 105.689 64.1677Z" fill="#FFF4E8"/>
</g>
<mask id="mask17_299_169" style="mask-type:luminance" maskUnits="userSpaceOnUse" x="108" y="72" width="36" height="36">
<path d="M108.208 72.3993H143.415V107.698H108.208V72.3993Z" fill="white"/>
</mask>
<g mask="url(#mask17_299_169)">
<path d="M105.689 99.4646C105.361 98.0712 106.222 96.675 107.611 96.3462C109.001 96.0173 110.394 96.8802 110.722 98.2736C111.05 99.667 110.189 101.063 108.799 101.392C107.41 101.721 106.017 100.858 105.689 99.4646Z" fill="#FFF4E8"/>
<path d="M105.691 81.8147C105.363 80.4213 106.223 79.0251 107.613 78.6963C109.003 78.3674 110.395 79.2304 110.723 80.6237C111.051 82.0171 110.191 83.4133 108.801 83.7421C107.411 84.071 106.019 83.2081 105.691 81.8147Z" fill="#FFF4E8"/>
</g>
<mask id="mask18_299_169" style="mask-type:luminance" maskUnits="userSpaceOnUse" x="108" y="107" width="36" height="36">
<path d="M108.208 107.698H143.415V142.996H108.208V107.698Z" fill="white"/>
</mask>
<g mask="url(#mask18_299_169)">
<path d="M105.691 134.761C105.363 133.368 106.224 131.972 107.614 131.643C109.004 131.314 110.396 132.177 110.724 133.57C111.052 134.964 110.191 136.36 108.802 136.689C107.412 137.018 106.019 136.155 105.691 134.761Z" fill="#FFF4E8"/>
<path d="M105.69 117.112C105.362 115.718 106.223 114.322 107.613 113.993C109.002 113.664 110.395 114.527 110.723 115.921C111.051 117.314 110.19 118.71 108.801 119.039C107.411 119.368 106.018 118.505 105.69 117.112Z" fill="#FFF4E8"/>
</g>
<mask id="mask19_299_169" style="mask-type:luminance" maskUnits="userSpaceOnUse" x="108" y="142" width="36" height="37">
<path d="M108.208 142.996H143.415V178.294H108.208V142.996Z" fill="white"/>
</mask>
<g mask="url(#mask19_299_169)">
<path d="M105.691 170.058C105.363 168.665 106.223 167.269 107.613 166.94C109.003 166.611 110.395 167.474 110.723 168.867C111.051 170.261 110.191 171.657 108.801 171.986C107.411 172.315 106.019 171.452 105.691 170.058Z" fill="#FFF4E8"/>
<path d="M105.689 152.408C105.361 151.015 106.222 149.619 107.612 149.29C109.002 148.961 110.394 149.824 110.722 151.217C111.05 152.611 110.19 154.007 108.8 154.336C107.41 154.665 106.018 153.802 105.689 152.408Z" fill="#FFF4E8"/>
</g>
<mask id="mask20_299_169" style="mask-type:luminance" maskUnits="userSpaceOnUse" x="108" y="178" width="36" height="36">
<path d="M108.208 178.294H143.415V213.592H108.208V178.294Z" fill="white"/>
</mask>
<g mask="url(#mask20_299_169)">
<path d="M105.689 187.705C105.361 186.312 106.222 184.916 107.611 184.587C109.001 184.258 110.394 185.121 110.722 186.514C111.05 187.908 110.189 189.304 108.799 189.633C107.41 189.962 106.017 189.099 105.689 187.705Z" fill="#FFF4E8"/>
</g>
</g>
<path d="M49.9694 0.0258364C45.8578 0.416253 42.147 2.97119 39.7219 6.32418C37.2967 9.67717 36.0426 13.7564 35.4356 17.853C34.6825 22.9111 34.8601 28.1043 35.9538 33.0993C38.9345 46.7036 48.6065 58.9357 47.7676 72.8386C47.6788 74.3055 47.5614 76.0136 48.6552 76.9896C49.1591 77.4403 49.8349 77.6355 50.4791 77.8422C56.1884 79.6737 61.265 83.4315 64.6894 88.3662C67.3723 76.8748 62.0753 65.1651 56.6752 54.6784C51.2751 44.1917 45.4541 32.9242 47.0489 21.2289C47.4584 18.229 48.4061 15.2119 50.3703 12.9096C52.2658 10.6877 54.9229 9.51354 57.8205 9.65707C59.9822 9.76329 63.5871 11.6809 63.9507 8.27913C64.5148 2.98841 53.6144 -0.32439 49.9723 0.0200949L49.9694 0.0258364Z" fill="#693923"/>
<path d="M74.6622 108.59C76.9643 107.62 79.5469 108.255 81.6142 109.486C82.6564 110.106 83.5956 110.881 84.5004 111.688C85.3908 112.48 86.2813 113.298 87.0086 114.249C87.6557 115.093 88.7638 116.577 87.8962 117.613C87.2205 118.417 86.015 118.135 85.1675 117.84C83.2606 117.177 81.6686 115.911 80.1711 114.59C78.4675 113.086 76.8469 111.496 74.8512 110.376C75.0917 110.029 75.3351 109.678 75.5756 109.331C76.3974 110.502 77.2277 111.676 77.8948 112.945C78.2356 113.594 78.519 114.266 78.7653 114.955C78.9943 115.592 79.2091 116.232 79.5756 116.806C80.257 117.871 81.305 118.773 82.3128 119.519C83.3322 120.274 84.446 120.906 85.6228 121.379C86.9714 121.919 88.3887 122.272 89.8346 122.404C90.6277 122.476 90.6277 123.842 89.8346 123.771C87.146 123.53 84.5405 122.625 82.2928 121.121C81.1761 120.375 80.1282 119.485 79.2492 118.469C78.7653 117.909 78.3587 117.292 78.0724 116.605C77.7889 115.922 77.5856 115.21 77.2907 114.533C76.6264 113.006 75.6758 111.63 74.7252 110.273C74.353 109.739 74.7453 108.866 75.4496 109.228C78.6737 110.878 80.824 113.999 83.942 115.802C84.6578 116.215 85.5168 116.651 86.3472 116.755C86.4703 116.769 86.8998 116.798 86.9656 116.709C87.0172 116.637 86.8053 116.304 86.7652 116.224C86.6306 115.971 86.4846 115.721 86.3214 115.486C85.7287 114.633 84.9699 113.901 84.2112 113.201C83.4009 112.454 82.5677 111.731 81.66 111.108C79.7216 109.779 77.2649 108.938 74.9686 109.833C74.6537 109.957 74.3301 109.676 74.2585 109.383C74.1726 109.041 74.3473 108.722 74.6622 108.59Z" fill="#D9756A"/>
<path d="M75.0859 111.808C75.2005 112.377 75.4353 111.998 75.2491 112.032C75.4324 112.001 75.3751 111.88 75.4238 112.064C75.4725 112.259 75.4209 112.54 75.4152 112.741C75.4038 113.224 75.3751 113.706 75.3293 114.188C75.2377 115.164 75.0945 116.135 74.8827 117.091C74.4646 118.974 73.8318 120.868 72.9042 122.562C72.4804 123.334 71.5298 122.602 71.8619 121.882C72.8469 119.746 73.62 117.573 74.0094 115.242C74.1955 114.125 74.2127 113.011 74.3186 111.892C74.3673 111.381 74.6593 110.801 75.2491 110.821C75.7531 110.838 76.0738 111.335 75.9392 111.808C75.8161 112.245 75.1862 112.296 75.0859 111.808Z" fill="#D9756A"/>
<path d="M54.9058 154.717C56.7411 157.37 58.2987 158.239 60.3832 159.913C65.2564 163.823 78.4417 165.798 79.3751 164.756C80.3114 163.711 71.8104 161.185 71.8104 161.185C71.8104 161.185 81.9549 164.271 82.2068 162.807C82.3615 161.914 80.9928 161.256 80.9928 161.256C80.9928 161.256 84.2369 161.67 84.3686 160.668C84.5204 159.505 73.2363 156.282 73.2363 156.282C73.2363 156.282 82.5733 157.504 82.6993 156.376C82.8253 155.251 66.2328 151.723 67.0631 150.061C67.693 148.8 60.2114 149.199 57.3223 150.603L54.9058 154.714V154.717Z" fill="#DE7F4C"/>
<path d="M74.3156 146.668C74.9169 148.02 70.4416 148.447 67.9649 149.71C65.4882 150.974 60.9672 155.228 56.6952 152.808C56.6952 152.808 57.8376 148.74 58.5506 148.333C59.0602 148.04 60.0337 147.032 63.1948 146.403C64.7066 146.102 73.9949 145.944 74.3156 146.665V146.668Z" fill="#DE7F4C"/>
<path d="M64.8184 153.359C60.1284 146.748 38.0728 126.188 32.3377 122.714C26.6026 119.241 3.79683 116.582 8.26064 125.754C12.7244 134.926 58.0468 157.969 59.152 158.038C60.2544 158.107 64.8213 153.359 64.8213 153.359H64.8184Z" fill="#DE7F4C"/>
<path d="M76.4117 163.315C75.3552 163.039 74.3015 162.758 73.2507 162.465C72.2027 162.175 71.1262 161.931 70.0954 161.587C69.5628 161.409 69.7547 160.522 70.3273 160.648C71.3896 160.883 72.4375 161.228 73.4855 161.515C74.5392 161.805 75.5871 162.106 76.6351 162.413C77.1476 162.565 76.9557 163.453 76.4117 163.312V163.315Z" fill="#C4643D"/>
<path d="M81.0071 162.06C79.6012 161.696 78.2126 161.271 76.821 160.857C76.1482 160.656 75.4782 160.458 74.8053 160.257C74.0981 160.048 73.3221 159.896 72.6521 159.591C72.1425 159.362 72.2942 158.558 72.8841 158.65C73.6113 158.762 74.3443 159.063 75.0487 159.273C75.7215 159.474 76.3915 159.675 77.0644 159.876C78.4559 160.292 79.8532 160.7 81.2276 161.165C81.7315 161.334 81.5511 162.201 81.0071 162.057V162.06Z" fill="#C4643D"/>
<path d="M75.5642 157.599C75.1949 157.487 74.8312 157.37 74.4676 157.246C74.2872 157.186 74.1097 157.128 73.9322 157.065C73.726 156.993 73.4912 156.939 73.3194 156.801C73.1562 156.669 73.0531 156.457 73.1161 156.241C73.1734 156.046 73.3309 155.882 73.5428 155.88C73.769 155.877 73.9751 155.974 74.1841 156.052C74.3616 156.118 74.5392 156.187 74.7167 156.253C74.8942 156.322 75.0717 156.388 75.2464 156.457C75.3094 156.482 75.3695 156.511 75.4325 156.537C75.3466 156.503 75.5069 156.563 75.5213 156.569C75.6129 156.606 75.7045 156.643 75.7961 156.681C76.0195 156.775 76.1684 157.019 76.0939 157.266C76.0281 157.493 75.8133 157.674 75.5671 157.599H75.5642Z" fill="#C4643D"/>
<path d="M69.2536 149.639C69.1219 149.653 69.1305 149.653 69.0016 149.676C68.8957 149.696 68.7897 149.716 68.6838 149.736C68.4719 149.779 68.2629 149.837 68.0568 149.903C67.9537 149.937 67.8506 149.972 67.7504 150.012C67.7074 150.029 67.6645 150.046 67.6215 150.064C67.6044 150.069 67.4383 150.147 67.5242 150.104C67.444 150.141 67.3667 150.181 67.2923 150.23C67.2608 150.25 67.2006 150.276 67.1806 150.308C67.2293 150.265 67.235 150.259 67.1949 150.299C67.1806 150.313 67.1692 150.325 67.1577 150.339C67.0718 150.437 67.1806 150.273 67.1434 150.362C67.1691 150.285 67.1749 150.273 67.1577 150.328C67.1577 150.302 67.1634 150.276 67.1663 150.25C67.1663 150.31 67.1663 150.296 67.1577 150.21C67.1262 150.141 67.1233 150.135 67.1491 150.187C67.0661 150.081 67.152 150.187 67.1663 150.201C67.2064 150.242 67.2035 150.239 67.1548 150.198C67.1749 150.216 67.1949 150.233 67.2178 150.247C67.2522 150.273 67.2865 150.299 67.3238 150.325C67.4068 150.385 67.4927 150.442 67.5786 150.494C67.6645 150.549 67.7561 150.598 67.8449 150.646C67.885 150.666 67.9222 150.686 67.9623 150.707C67.8592 150.655 68.0253 150.732 68.0424 150.741C68.2314 150.821 68.4232 150.896 68.6179 150.956C69.2106 151.134 68.9902 152.151 68.3603 151.996C67.9623 151.898 67.5843 151.74 67.2264 151.536C67.0603 151.441 66.9029 151.335 66.7511 151.22C66.5679 151.08 66.3789 150.922 66.2787 150.704C66.1613 150.445 66.1527 150.173 66.2529 149.909C66.3388 149.679 66.5049 149.504 66.6996 149.36C66.8656 149.237 67.0603 149.154 67.2522 149.073C67.4383 148.996 67.6273 148.927 67.822 148.872C68.2858 148.737 68.7697 148.68 69.2507 148.697C69.4912 148.706 69.6831 148.927 69.6716 149.168C69.6602 149.426 69.5027 149.607 69.2507 149.639H69.2536Z" fill="#C4643D"/>
<path d="M55.9251 155.759C56.7498 156.721 57.6717 157.625 58.6395 158.44C59.1177 158.842 59.613 159.224 60.1227 159.586C60.6581 159.965 61.2479 160.283 61.769 160.679C61.9695 160.832 62.0554 161.093 61.9609 161.331C61.8807 161.529 61.6402 161.736 61.4083 161.633C60.7927 161.363 60.2171 160.944 59.6703 160.556C59.132 160.174 58.6166 159.767 58.1155 159.336C57.0848 158.455 56.1657 157.493 55.3181 156.437C54.9745 156.009 55.5243 155.291 55.9251 155.759Z" fill="#C4643D"/>
<path d="M36.3406 126.306C34.7543 125.12 33.0621 124.066 31.3642 123.047C29.5661 121.971 27.7308 120.932 25.8296 120.053C25.5518 119.924 25.3858 119.648 25.4631 119.335C25.5261 119.089 25.8267 118.799 26.1073 118.928C28.06 119.832 29.9383 120.886 31.7794 121.999C33.5088 123.044 35.2325 124.144 36.8015 125.424C37.2425 125.783 36.8559 126.69 36.3406 126.306Z" fill="#C4643D"/>
<path d="M9.80665 122.651C9.83815 122.757 9.86678 122.861 9.89828 122.967C9.87251 122.912 9.87537 122.921 9.904 122.996C9.91832 123.03 9.92977 123.065 9.94123 123.102C9.95554 123.148 9.967 123.191 9.98132 123.237C10.0414 123.441 10.1016 123.642 10.1588 123.845C10.2132 124.041 10.2705 124.239 10.3249 124.434C10.385 124.655 10.4824 124.922 10.4681 125.154C10.4566 125.367 10.3421 125.614 10.113 125.671C9.8811 125.729 9.69213 125.617 9.56901 125.424C9.49456 125.309 9.46879 125.16 9.43157 125.028C9.4058 124.936 9.38289 124.847 9.35999 124.755C9.31131 124.549 9.26264 124.342 9.21682 124.135C9.12234 123.728 9.0393 123.32 8.94768 122.915C8.89328 122.68 9.00494 122.367 9.25977 122.304C9.52033 122.238 9.73794 122.404 9.80952 122.651H9.80665Z" fill="#C4643D"/>
<path d="M89.199 110.531C83.9822 108.521 78.2671 108.346 72.741 108.57C67.1348 108.797 61.5658 109.678 56.16 111.186C53.1077 112.038 50.1128 113.092 47.1951 114.332C46.8716 114.47 46.5251 114.16 46.4535 113.861C46.3648 113.502 46.548 113.172 46.8744 113.034C52.1314 110.798 57.6431 109.179 63.2723 108.223C68.8957 107.267 74.648 106.917 80.3401 107.319C83.5097 107.543 86.728 108.042 89.6199 109.414C90.1697 109.676 89.8117 110.766 89.199 110.528V110.531Z" fill="#D9756A"/>
<path d="M74.8655 109.874C73.4711 109.475 71.9421 109.765 70.6451 110.362C69.4883 110.893 68.1197 111.788 67.6473 113.037C67.2321 114.139 67.7847 115.362 69.0445 115.382C70.3215 115.405 71.5098 114.57 72.343 113.669C73.3079 112.624 73.9607 111.266 74.101 109.842C74.1325 109.518 74.3244 109.185 74.6908 109.185C75.0115 109.185 75.3122 109.515 75.2807 109.842C75.1203 111.504 74.4847 113.066 73.4081 114.346C72.3831 115.566 70.8942 116.62 69.2621 116.709C67.5069 116.803 66.2214 115.362 66.3244 113.634C66.4332 111.808 67.8591 110.476 69.3509 109.615C71.1061 108.599 73.1676 108.137 75.1175 108.849C75.6844 109.055 75.484 110.049 74.8655 109.871V109.874Z" fill="#D9756A"/>
<path d="M49.9008 10.992C48.2201 11.6637 47.5157 13.6445 46.9917 15.2291C46.3475 17.1755 45.8865 19.1821 45.6059 21.2117C45.0419 25.2938 45.2452 29.4994 46.17 33.5098C46.4363 34.6581 46.7627 35.7892 47.1406 36.903C47.5186 38.0168 47.9939 39.0819 48.4348 40.1699C48.5436 40.4368 48.515 40.7612 48.2544 40.9335C48.0111 41.0942 47.7018 40.9794 47.5701 40.7325C46.5336 38.812 45.8379 36.6331 45.3053 34.5232C44.7699 32.4017 44.4377 30.2228 44.3003 28.0382C44.0283 23.6633 44.5866 19.2108 45.9782 15.054C46.6424 13.0675 47.5358 10.8168 49.6546 10.0245C50.2215 9.81209 50.4219 10.7795 49.8922 10.9891L49.9008 10.992Z" fill="#804A38"/>
<path d="M42.2673 30.3405C43.8908 37.4427 46.4076 44.3869 49.7232 50.869C50.1813 51.7647 50.6509 52.6517 51.1376 53.5302C51.6444 54.4488 52.2142 55.3358 52.6981 56.2659C52.9501 56.7511 52.2887 57.486 51.9079 56.9434C50.8399 55.4248 49.9666 53.7254 49.1047 52.0833C48.2544 50.4671 47.4584 48.8222 46.7168 47.1543C45.2136 43.7697 43.9337 40.2847 42.8943 36.7307C42.3017 34.7126 41.8321 32.6658 41.4026 30.6047C41.2766 30.0047 42.1213 29.7061 42.2673 30.3405Z" fill="#804A38"/>
<path d="M44.077 43.3707C47.5014 51.1475 50.7512 59.2228 52.0339 67.6713C52.2115 68.8339 52.3489 70.0052 52.4434 71.1793C52.5379 72.3735 52.6896 73.651 52.5064 74.8394C52.4291 75.3332 51.6789 75.3332 51.6016 74.8394C51.4327 73.7801 51.4842 72.6721 51.4069 71.6013C51.3324 70.5793 51.2236 69.5631 51.0805 68.5468C50.7913 66.5029 50.3818 64.479 49.8808 62.4782C48.8529 58.3931 47.447 54.4172 45.9295 50.4929C45.0734 48.2796 44.1829 46.0778 43.3182 43.8645C43.2266 43.6291 43.2466 43.3449 43.4757 43.1956C43.6761 43.0635 43.9768 43.1468 44.077 43.3707Z" fill="#804A38"/>
<path d="M56.3029 60.7098C57.4998 63.0753 58.4446 65.567 59.1576 68.1191C59.5098 69.3736 59.8047 70.6453 60.0481 71.9257C60.2972 73.2404 60.552 74.6126 60.5634 75.9561C60.5692 76.5303 59.7302 76.7083 59.6129 76.0997C59.3695 74.8222 59.2521 73.5218 59.0173 72.2414C58.7854 70.9812 58.5019 69.7324 58.1669 68.4952C57.4883 65.9948 56.6007 63.5604 55.5614 61.1892C55.338 60.6753 56.0195 60.1443 56.3029 60.7069V60.7098Z" fill="#804A38"/>
<path d="M45.6805 8.77576C43.241 10.3001 41.4829 12.6972 40.4064 15.3411C39.178 18.3611 38.9175 21.6739 39.1351 24.9034C39.2725 26.9588 39.6505 28.9741 39.9597 31.0066C40.057 31.6352 39.2152 31.9682 39.0435 31.2879C38.5796 29.4391 38.3047 27.5301 38.1444 25.6326C37.9812 23.7408 37.9755 21.8346 38.2017 19.9486C38.571 16.8425 39.619 13.8311 41.4829 11.3049C42.4937 9.93266 43.7564 8.77002 45.2166 7.89159C45.7635 7.56145 46.1787 8.46573 45.6805 8.77576Z" fill="#804A38"/>
<path d="M57.623 6.07442C56.4061 5.70123 55.1348 5.50315 53.8636 5.47732C52.5722 5.44861 51.3439 5.65817 50.0783 5.87635C49.4885 5.97682 49.2852 5.10412 49.8378 4.90892C51.1005 4.46396 52.5321 4.36061 53.8636 4.40654C55.2265 4.45247 56.5607 4.71084 57.8521 5.14144C58.376 5.31656 58.1813 6.24667 57.6201 6.07442H57.623Z" fill="#804A38"/>
<path d="M57.225 9.76329C57.2106 9.57382 57.2565 9.36139 57.371 9.14034C57.5227 8.84753 57.7862 8.62936 58.0438 8.42267C59.2951 7.43227 60.615 6.528 61.9951 5.72707C62.396 5.49454 62.8283 5.26201 63.2922 5.28211C64.0023 5.31369 64.469 6.20074 64.3144 6.85526C64.2342 7.194 63.9622 7.45237 63.6873 7.6648C62.9715 8.22459 62.1526 8.6351 61.3395 9.04274C60.6179 9.40445 59.8964 9.76616 59.172 10.1279C58.8312 10.2972 58.4733 10.4724 58.0925 10.4724C57.5714 10.4724 57.2565 10.1738 57.225 9.76329Z" fill="#914116"/>
</g>
<g clip-path="url(#clip1_299_169)">
<path d="M186.411 249.339C186.458 257.798 187.2 266.25 188.343 268.628C189.482 271.007 193.66 277.545 195.926 287.054C198.192 296.563 199.354 304.353 199.117 305.065C198.88 305.778 195.091 311.306 189.544 312.913C183.998 314.517 182.925 314.427 180.686 315.59C178.451 316.748 178.358 320.226 180.06 320.493C181.759 320.76 213.254 320.493 213.254 320.493C213.254 320.493 214.237 318.173 213.254 313.358C212.27 308.544 210.478 306.135 210.21 305.778C209.942 305.422 210.692 291.067 209.779 283.665C208.869 276.263 202.783 262.353 202.783 261.997C202.783 261.641 204.839 244.787 204.839 244.787C204.839 244.787 186.4 248.184 186.408 249.335L186.411 249.339Z" fill="#D17546"/>
<path d="M192.525 310.953C193.423 313.998 199.444 321.001 199.444 321.001C199.444 321.001 185.249 321.059 185.067 320.613C184.888 320.168 183.718 315.148 183.768 314.447C183.819 313.746 192.401 310.539 192.525 310.953Z" fill="#FFCC1A"/>
<path d="M198.806 304.667C203.404 306.545 209.32 305.96 210.214 305.782C211.108 305.604 210.778 306.623 210.809 306.677C210.84 306.731 208.469 307.924 203.816 307.211C199.164 306.499 198.523 306.061 198.53 306.053C198.538 306.045 198.464 304.531 198.806 304.67V304.667Z" fill="#FFCC1A"/>
<path d="M211.069 307.134C210.859 306.754 210.673 306.448 210.525 306.224C209.429 312.088 202.93 318.638 200.163 320.578C204.209 320.559 207.952 320.532 210.393 320.513C209.662 315.264 211.069 307.149 211.073 307.13L211.069 307.134Z" fill="#FFCC1A"/>
<path d="M179.248 319.978C179.248 319.978 213.495 319.781 213.693 319.978C213.891 320.176 213.86 321.744 213.693 321.833C213.526 321.923 179.579 322.163 179.248 321.833C178.918 321.504 178.793 319.982 179.248 319.978Z" fill="#AC5A3C"/>
<path d="M169.216 247.472C167.195 255.308 165.819 263.302 166.294 265.777C166.768 268.253 169.034 275.314 168.808 284.656C168.583 294.003 167.755 301.486 167.362 302.087C166.97 302.687 162.115 306.882 156.592 307.022C151.069 307.161 150.097 306.816 147.746 307.347C145.394 307.878 144.462 311.069 145.97 311.732C147.478 312.394 176.667 319.781 176.667 319.781C176.667 319.781 178.144 317.875 178.409 313.184C178.673 308.493 177.608 305.832 177.445 305.437C177.285 305.042 181.479 291.946 182.447 284.881C183.411 277.816 181.18 263.477 181.269 263.147C181.355 262.818 187.375 247.731 187.375 247.731C187.375 247.731 169.496 246.403 169.22 247.468L169.216 247.472Z" fill="#D17546"/>
<path d="M159.826 305.933C159.912 308.966 163.771 316.903 163.771 316.903C163.771 316.903 150.63 313.513 150.572 313.06C150.513 312.603 150.661 307.68 150.875 307.041C151.089 306.402 159.814 305.523 159.826 305.933Z" fill="#FFCC1A"/>
<path d="M167.168 301.645C170.962 304.5 176.574 305.391 177.445 305.441C178.316 305.492 177.76 306.355 177.775 306.41C177.791 306.468 175.307 306.994 171.179 305.209C167.052 303.419 166.566 302.861 166.574 302.858C166.581 302.854 166.885 301.432 167.164 301.645H167.168Z" fill="#FFCC1A"/>
<path d="M177.907 306.898C177.806 306.495 177.705 306.166 177.624 305.925C175.179 311.085 167.569 315.562 164.533 316.69C168.28 317.65 171.747 318.533 174.009 319.11C174.611 314.083 177.896 306.917 177.903 306.901L177.907 306.898Z" fill="#FFCC1A"/>
<path d="M145.344 311.058C145.344 311.058 177.064 319.18 177.2 319.409C177.336 319.637 176.924 321.082 176.749 321.125C176.574 321.167 145.122 313.157 144.893 312.774C144.668 312.386 144.924 310.949 145.344 311.058Z" fill="#AC5A3C"/>
<path d="M165.971 245.775C164.374 245.806 164.673 250.857 165.151 251.748C165.629 252.639 180.123 251.748 180.123 251.748C180.123 251.748 180.348 255.664 180.348 256.082C180.348 256.501 189.723 257.574 197.299 256.683C204.874 255.792 209.169 252.457 209.585 251.806C210.001 251.155 209.709 245.492 209.107 244.973C208.508 244.451 187.096 247.53 185.844 246.817C184.593 246.104 176.419 242.893 173.737 243.072C171.051 243.25 165.971 245.775 165.971 245.775Z" fill="#8FA6B8"/>
<path d="M168.159 214.122C166.908 223.216 165.924 245.241 165.967 245.775C166.01 246.31 180.772 247.379 180.772 247.379V251.213C180.772 251.213 189.498 251.837 196.451 251.213C203.408 250.59 208.597 245.686 208.597 245.686L206.269 214.834L168.155 214.122H168.159Z" fill="#B3C1FD"/>
<path d="M204.306 250.137C204.306 250.137 204.287 250.137 204.279 250.137C204.085 250.121 203.941 249.955 203.956 249.761C204.131 247.491 202.452 217.209 202.433 216.907C202.421 216.713 202.569 216.55 202.763 216.539C202.957 216.527 203.121 216.674 203.132 216.868C203.202 218.119 204.831 247.503 204.652 249.815C204.637 249.997 204.485 250.137 204.302 250.137H204.306Z" fill="#8FA6B8"/>
<path d="M203.525 231.052C203.494 231.052 203.459 231.049 203.428 231.037C203.331 231.01 193.851 228.178 193.489 218.231C193.482 218.038 193.633 217.875 193.827 217.871C194.018 217.871 194.185 218.014 194.189 218.208C194.535 227.655 203.529 230.344 203.622 230.367C203.809 230.421 203.914 230.615 203.863 230.801C203.82 230.956 203.68 231.052 203.525 231.052Z" fill="#8FA6B8"/>
<path d="M194.146 199.066C198.165 194.561 186.87 185.265 178.343 178.417C169.815 171.568 158.897 165.828 158.31 164.693C157.723 163.558 155.636 159.778 154.423 158.213C153.211 156.644 152.663 156.679 152.387 155.827C152.111 154.975 152.157 152.077 151.916 150.156C151.675 148.235 150.276 148.382 150.058 148.948C149.841 149.513 149.611 152.763 149.627 154.188C149.643 155.614 149.965 156.714 149.965 156.714C149.965 156.714 148.407 153.871 148.142 152.558C147.878 151.245 148.076 147.011 147.077 146.833C145.802 146.608 145.589 149.711 145.55 151.799C145.515 153.886 147.132 157.33 147.132 157.33C147.132 157.33 145.62 155.521 144.936 153.464C144.496 152.143 144.193 147.821 142.977 147.941C141.982 148.038 142.219 151.117 142.681 153.329C143.225 155.943 144.543 158.662 144.543 158.662C144.543 158.662 142.938 157.984 141.986 155.842C141.033 153.697 140.831 151.202 140.559 150.931C139.724 150.11 138.659 151.14 138.83 152.965C139.055 155.397 139.385 156.385 140.26 158.414C141.134 160.44 142.211 161.513 143.478 162.927C144.741 164.341 152.803 169.12 153.11 169.732C153.413 170.344 164.222 180.981 169.687 186.775C175.151 192.57 181.036 200.53 184.596 201.359C188.157 202.184 192.529 200.886 194.162 199.058L194.146 199.066Z" fill="#D98162"/>
<path d="M200.936 161.416C209.281 165.913 210.183 171.441 210.673 175.988C211.163 180.535 207.672 201.657 207.136 205.225C206.6 208.792 208.15 215.876 207.256 217.925C206.362 219.974 191.212 220.036 179.936 218.696C168.665 217.36 166.873 216.736 166.068 215.752C165.264 214.769 169.718 193.105 170.04 187.043C170.363 180.981 170.083 175.182 173.088 169.299C176.088 163.415 183.605 161.897 185.304 161.897C187.002 161.897 200.936 161.412 200.936 161.412V161.416Z" fill="#FFEDB2"/>
<path d="M199.817 148.615C199.487 152.236 199.545 161.405 199.44 161.753C199.335 162.102 196.105 164.217 192.075 164.077C188.044 163.938 184.651 162.543 184.756 162.268C184.861 161.99 183.908 150.497 183.908 150.497L199.817 148.619V148.615Z" fill="#D17546"/>
<path d="M184.616 159.518C184.371 156.04 183.908 150.497 183.908 150.497L196.774 148.975C197.773 149.095 198.383 149.172 198.383 149.172C195.374 157.221 189.202 158.608 184.616 159.518Z" fill="#1A1A1A"/>
<path d="M209.744 119.452C216.969 122.585 217.109 132.962 215.974 135.852C215.504 137.053 215.294 137.73 215.294 137.73C215.294 137.73 216.814 137.889 217.494 140.109C218.174 142.328 217.494 143.998 217.494 143.998C217.494 143.998 220.483 143.843 220.953 146.976C221.424 150.11 217.964 151.938 215.815 150.946C213.666 149.955 213.351 147.29 213.351 147.29C213.351 147.29 209.892 148.859 206.852 147.708C203.813 146.558 197.994 140.109 197.994 140.109L203.603 123.333L209.74 119.452H209.744Z" fill="#1A1400"/>
<path d="M180.134 138.366C176.073 139.473 173.826 137.242 173.826 137.242C173.826 137.242 172.295 139.299 169.64 138.311C166.985 137.32 167.055 136.487 167.055 136.487C166.161 137.595 164.156 137.39 163.487 136.076C162.823 134.763 162.784 132.602 164.249 132.009C165.718 131.417 166.748 132.3 166.748 132.3C166.748 132.3 166.954 130.061 169.298 129.437C171.638 128.814 173.014 130.154 173.014 130.154C173.014 130.154 172.746 125.882 176.559 119.851C180.612 113.444 188.868 109.462 199.413 111.562C207.101 113.096 209.246 117.864 209.744 119.448C210.245 121.032 190.885 143.25 189 142.901C187.115 142.553 180.134 138.362 180.134 138.362V138.366Z" fill="#1A1400"/>
<path d="M203.607 123.333C208.57 125.909 205.216 132.525 203.607 136.286C201.998 140.047 204.026 143.529 204.026 143.529C204.026 143.529 206.471 140.744 208.85 142.971C211.244 145.214 208.43 149.726 205.356 151.884C202.281 154.041 199.277 150.629 199.277 150.629C199.277 150.629 192.568 158.918 183.341 156.408C176.255 154.483 173.908 146.74 174.743 139.872C175.583 133.005 177.188 126.877 179.917 124.998C182.641 123.12 183.971 126.602 190.189 127.017C196.408 127.435 198.717 127.156 200.952 125.552C203.187 123.949 203.607 123.325 203.607 123.325V123.333Z" fill="#D17546"/>
<path d="M182.474 141.797C182.521 141.371 182.929 141.038 183.36 141.092C183.784 141.143 184.208 141.197 184.635 141.247C185.067 141.298 185.389 141.701 185.343 142.131C185.296 142.557 184.888 142.89 184.456 142.836C184.033 142.785 183.609 142.731 183.182 142.681C182.75 142.63 182.428 142.227 182.474 141.797Z" fill="#CE5C48"/>
<path d="M180.41 145.202C180.41 145.202 184.857 145.516 186.66 145.516C188.46 145.516 184.62 148.526 182.851 148.336C180.41 148.076 180.41 145.202 180.41 145.202Z" fill="white"/>
<path d="M171.168 142.103C170.997 142.204 170.849 142.317 170.756 142.448C170.74 142.471 170.728 142.495 170.713 142.518C170.736 142.545 170.76 142.564 170.779 142.595C172.244 144.892 173.045 147.333 172.994 150.025C173.189 150.121 173.403 150.187 173.644 150.191C173.966 150.199 174.296 150.052 174.615 149.951C175.031 149.819 175.451 149.684 175.867 149.548C176.699 149.277 177.53 148.998 178.358 148.712C178.793 148.56 179.326 148.355 179.594 147.999C179.827 147.689 179.897 147.309 179.94 146.972C180.084 145.861 179.847 144.757 179.516 143.742C179.171 142.681 178.681 141.569 177.818 140.759C177.592 140.546 177.274 140.271 176.889 140.248C176.629 140.233 176.29 140.372 176.03 140.442C175.63 140.546 175.229 140.663 174.829 140.787C174.001 141.046 173.181 141.337 172.365 141.627C172.023 141.751 171.541 141.894 171.175 142.103H171.168Z" fill="#FFCC1A"/>
<path d="M160.37 140.934C162.407 141.096 168.163 142.909 169.333 142.851C169.59 142.839 170.13 142.688 170.818 142.46C171.618 142.196 173.69 149.769 172.979 150.036C172.33 150.28 171.828 150.52 171.591 150.737C170.375 151.837 167.53 156.931 166.317 158.035C165.1 159.135 135.973 169.578 133.979 168.23C132.323 167.11 128.199 153.991 129.136 152.643C130.069 151.295 158.551 140.79 160.37 140.934Z" fill="#FFCC1A"/>
<path d="M157.521 160.041C158.773 159.627 160.024 159.216 161.272 158.798C159.57 153.743 144.986 147.441 140.855 149.064C139.899 149.44 138.946 149.815 137.994 150.195C136.898 150.633 135.802 151.074 134.71 151.524C133.979 151.822 130.562 152.852 130.749 153.697C130.803 153.952 135.254 166.475 135.464 166.653C136.089 167.188 138.659 166.091 139.467 165.847C140.983 165.39 142.491 164.918 143.999 164.438C148.516 163.004 153.02 161.529 157.517 160.037L157.521 160.041Z" fill="#FFCC1A"/>
<path d="M171.269 141.902C173.146 144.145 173.88 147.185 173.562 150.094C173.484 150.803 172.345 150.78 172.353 150.094C172.388 147.286 171.541 144.993 170.11 142.642C169.76 142.065 170.822 141.371 171.269 141.906V141.902Z" fill="#346A8B"/>
<path d="M161.33 143.533C163.779 143.153 166.305 143.44 168.587 144.025C169.419 144.238 169.03 145.438 168.183 145.241C165.917 144.718 163.662 144.691 161.276 144.811C160.327 144.857 160.436 143.668 161.33 143.533Z" fill="white"/>
<path d="M170.445 150.737C166.702 151.582 152.34 150.737 152.34 150.737L138.604 150.195L141.799 165.135C141.799 165.135 157.681 160.312 161.276 158.798C164.867 157.283 165.882 156.718 166.717 155.873C167.553 155.029 170.445 150.737 170.445 150.737Z" fill="#FFCC1A"/>
<path d="M152.305 143.382C153.922 145.977 155.512 151.159 156.561 156.11C156.561 156.11 144.197 160.045 143.35 160.332C142.518 160.614 139.829 154.952 138.165 148.607L152.305 143.378V143.382Z" fill="white"/>
<path d="M193.167 205.228C189.299 209.865 178.382 200.131 170.305 192.756C162.232 185.381 154.894 175.488 153.681 175.082C152.468 174.675 148.403 173.184 146.669 172.223C144.936 171.262 144.881 170.72 143.999 170.573C143.117 170.43 140.244 170.91 138.305 170.96C136.362 171.011 136.299 169.612 136.828 169.314C137.357 169.016 140.544 168.299 141.962 168.102C143.381 167.904 144.52 168.055 144.52 168.055C144.52 168.055 141.465 166.947 140.12 166.886C138.775 166.824 134.609 167.652 134.282 166.696C133.866 165.476 136.913 164.794 138.981 164.445C141.049 164.097 144.706 165.173 144.706 165.173C144.706 165.173 142.685 163.957 140.544 163.593C139.164 163.357 134.834 163.709 134.772 162.489C134.721 161.494 137.811 161.265 140.073 161.385C142.748 161.529 145.647 162.416 145.647 162.416C145.647 162.416 144.734 160.936 142.464 160.32C140.194 159.704 137.687 159.882 137.38 159.65C136.439 158.949 137.302 157.744 139.137 157.64C141.585 157.496 142.615 157.675 144.757 158.232C146.899 158.79 148.127 159.689 149.717 160.723C151.31 161.757 157.261 168.981 157.914 169.19C158.567 169.399 170.74 178.448 177.309 182.964C183.877 187.477 192.662 192.078 194.014 195.464C195.371 198.849 194.737 203.35 193.167 205.232V205.228Z" fill="#D17546"/>
<path d="M148.014 160.394C146.65 156.962 147.703 153.236 148.842 153.127C150.117 153.007 149.829 153.766 150.066 156.877C150.253 159.367 155.453 166.618 155.306 168.307C155.158 169.996 149.903 165.139 149.308 164.441C148.714 163.744 148.014 160.39 148.014 160.39V160.394Z" fill="#D17546"/>
<path d="M193.167 205.228C197.582 198.81 210.595 180.481 208.924 174.415C207.253 168.354 200.925 167.935 197.291 174.117C193.657 180.299 183.839 198.322 183.839 198.322L193.163 205.225L193.167 205.228Z" fill="#D17546"/>
<path d="M201.403 161.68C201.247 161.594 199.483 160.475 199.323 160.39C199.323 160.39 187.006 161.904 185.308 161.904C184.861 161.904 184.002 162.013 182.937 162.276C180.531 166.684 183.613 172.068 185.35 172.87C187.189 173.722 200.221 167.207 201.407 161.68H201.403Z" fill="#D17546"/>
<path d="M180.686 252.988C180.496 252.988 180.341 252.836 180.337 252.647C180.224 248.63 180.173 245.148 180.135 242.347C180.084 238.695 180.045 236.053 179.897 235.418C179.688 234.519 177.989 231.85 177.352 230.897C177.243 230.739 177.289 230.522 177.449 230.413C177.608 230.305 177.826 230.351 177.935 230.51C178.032 230.653 180.298 234.054 180.578 235.263C180.741 235.972 180.776 238.369 180.83 242.339C180.869 245.136 180.92 248.618 181.032 252.631C181.036 252.825 180.885 252.984 180.69 252.991C180.69 252.991 180.683 252.991 180.679 252.991L180.686 252.988Z" fill="#8FA6B8"/>
</g>
<defs>
<clipPath id="clip0_299_169">
<rect width="146" height="376" fill="white" transform="matrix(-1 0 0 1 146 0)"/>
</clipPath>
<clipPath id="clip1_299_169">
<rect width="92" height="211" fill="white" transform="translate(129 111)"/>
</clipPath>
</defs>
</svg>
