<svg width="335" height="538" viewBox="0 0 335 538" fill="none" xmlns="http://www.w3.org/2000/svg">
<g clip-path="url(#clip0_203_1684)">
<path d="M95.6211 467.529C95.6211 467.529 102.075 459.145 116.927 453.336C131.772 447.533 135.002 400.443 135.002 400.443L124.672 339.165L98.8511 346.904L95.6211 467.523V467.529Z" fill="#3E1602"/>
<path d="M276.359 399.061C276.359 399.061 293.964 455.895 288.545 491.75C283.127 527.606 221.505 705.548 218.118 724.49C214.732 743.433 207.281 871.985 201.191 906.487C195.094 940.995 180.876 993.086 178.166 996.469C175.457 999.853 108.417 989.025 107.062 980.234C105.707 971.442 126.969 886.854 128.731 823.948C130.764 751.554 134.15 687.282 138.215 681.868C138.215 681.868 132.118 629.093 122.641 570.235C113.158 511.376 116.595 474.105 114.513 468.07C111.114 458.214 107.194 454.297 107.194 446.464C107.194 436.313 126.706 395 126.706 395L276.365 399.061H276.359Z" fill="#673319"/>
<path d="M168.257 514.747C167.165 520.688 162.211 540.752 160.975 546.674C159.733 552.627 158.473 558.573 157.225 564.52C154.672 576.645 151.994 588.745 149.109 600.795C143.382 624.726 133.918 667.242 126.994 690.841C125.583 695.647 133.097 697.658 134.464 692.896C142.272 665.626 146.23 650.95 151.755 627.063C154.503 615.189 161.872 579.07 164.099 567.089C165.215 561.086 166.225 555.077 167.14 549.042C168.094 542.745 171.662 522.217 172.547 515.926C172.936 513.168 168.79 511.89 168.263 514.747H168.257Z" fill="white"/>
<path d="M179.11 465.686C178.771 458.367 177.31 451.085 176.733 443.773C176.124 436.053 175.804 428.276 175.798 420.531C175.798 417.348 170.963 417.116 170.831 420.331C170.273 433.659 170.831 446.906 172.367 460.159C173.07 466.231 173.352 472.008 169.294 477.015C166.296 480.712 162.238 483.093 158.243 485.524C155.088 463.549 153.439 441.373 154.518 419.165C154.712 415.124 148.409 414.86 148.227 418.908C147.035 445.847 150.566 480.392 158.105 506.347C158.739 508.54 161.937 507.801 161.561 505.545C161.247 503.703 159.598 494.416 159.303 492.568C159.422 492.518 159.548 492.461 159.667 492.399C170.153 486.897 179.706 478.45 179.116 465.692L179.11 465.686Z" fill="#49110D"/>
<path d="M272.354 484.622C271.212 481.884 269.086 480.186 267.067 478.055C265.016 475.893 263.04 473.663 261.14 471.369C257.533 467.02 254.247 462.421 251.243 457.64C245.052 447.789 240.173 437.149 236.56 426.102C235.312 422.286 229.41 423.846 230.502 427.769C233.775 439.562 238.674 450.803 245.034 461.262C248.1 466.306 251.512 471.131 255.175 475.756C257.138 478.237 259.195 480.656 261.328 482.993C263.404 485.268 265.267 487.649 268.183 488.777C270.454 489.66 273.32 486.909 272.36 484.603L272.354 484.622Z" fill="#49110D"/>
<path opacity="0.5" d="M257.553 520.772C249.255 549.628 238.442 597.483 230.414 626.414C222.499 654.951 214.233 683.424 206.901 712.124C199.688 740.359 195.116 768.72 192.77 797.758C190.393 827.228 188.292 856.679 184.937 886.061C181.142 919.285 176.269 952.377 170.373 985.293C169.941 987.731 173.666 988.771 174.105 986.321C184.504 928.452 191.346 870.164 195.655 811.537C197.825 781.998 201.106 752.923 207.992 724.073C214.91 695.111 223.358 666.499 231.261 637.794C240.179 605.385 251.757 554.027 260.369 521.536C260.852 519.719 258.073 518.955 257.553 520.759V520.772Z" fill="#49110D"/>
<path d="M180.254 362.1C180.254 362.1 191.631 416.422 194.165 421.472C196.693 426.523 221.981 464.421 232.098 468.212C242.214 472.003 264.341 460.003 271.924 456.845C279.513 453.687 304.482 442.633 304.482 442.633C304.482 442.633 306.696 476.427 307.956 477.06C309.223 477.693 368.016 477.693 368.016 476.427C368.016 475.161 359.166 403.789 356.639 379.789C354.111 355.79 351.583 343.157 344.628 315.366C337.672 287.576 323.768 240.836 315.545 217.463C307.329 194.09 296.579 169.457 292.784 161.249C288.99 153.04 280.774 148.616 275.085 148.616C269.397 148.616 256.752 147.983 241.581 144.192C226.409 140.401 211.865 135.983 211.865 135.983C211.865 135.983 204.909 123.351 194.165 121.458C183.415 119.566 173.932 219.362 173.932 219.362L165.083 319.157L180.254 362.106V362.1Z" fill="#F0D1C1"/>
<path d="M299.42 396.526C297.526 392.102 300.054 387.685 300.687 385.786C301.321 383.894 298.16 378.837 294.365 375.046C290.571 371.255 294.365 364.938 294.365 362.413C294.365 359.888 292.471 357.363 286.149 344.097C279.827 330.831 253.209 237.483 252.645 238.618C251.378 241.143 253.911 263.883 259.6 285.99C264.348 304.438 274.822 340.481 281.828 366.223C272.351 369.788 262.648 372.646 252.632 374.306C249.785 374.776 246.925 375.152 244.052 375.428C241.386 375.685 238.056 375.309 235.503 376.117C231.101 377.515 232.857 383.543 233.597 386.814C234.569 391.137 236.156 396.075 239.273 399.365C242.81 403.1 247.74 403.137 252.538 402.993C263.733 402.667 274.828 400.668 285.453 397.153C288.507 396.144 287.196 391.3 284.117 392.316C274.458 395.505 264.461 397.454 254.294 397.899C249.477 398.112 244.359 398.738 241.568 394.032C240.408 392.077 239.649 389.884 239.022 387.71C238.501 385.905 237.473 382.948 237.63 380.792C239.204 380.391 241.443 380.648 242.892 380.516C244.936 380.328 246.975 380.09 249.013 379.814C253.36 379.225 257.675 378.448 261.939 377.452C269.152 375.766 276.202 373.442 282.988 370.484C283.922 373.955 284.775 377.189 285.522 380.103C290.132 398.068 291.38 431.486 291.718 448.267C298.624 445.234 304.488 442.64 304.488 442.64C305.121 433.798 301.327 400.95 299.433 396.533L299.42 396.526Z" fill="#E6B298"/>
<path d="M239.881 228.385C233.089 228.567 225.788 231.004 219.447 233.31C214.116 235.253 208.854 237.552 203.956 240.435C204.062 240.103 204.163 239.764 204.269 239.432C208.591 225.69 213.182 211.986 218.958 198.771C221.881 192.078 225.092 185.511 228.686 179.151C230.348 176.206 232.116 173.342 233.891 170.466C235.165 168.405 236.337 165.779 235.541 163.323C234.638 160.534 231.966 159.494 229.231 160.02C225.242 160.797 221.235 162.508 217.465 163.987C217.083 164.137 216.706 164.294 216.33 164.451C216.625 156.687 215.358 148.522 214.38 141.028C214.091 138.809 210.623 138.684 210.798 141.028C211.149 145.69 211.3 150.327 211.287 155.001C211.275 158.867 210.905 162.847 210.974 166.738C210.397 167.001 209.814 167.258 209.237 167.527C208.547 167.853 206.364 169.464 205.706 169.37C205.348 169.32 205.116 168.981 204.934 168.674C202.839 165.228 200.719 161.769 198.857 158.235C198.123 156.837 194.071 154.086 195.432 157.464C197.169 161.762 200.688 174.201 205.925 174.89C208.91 175.285 211.877 173.104 214.499 171.939C218.155 170.31 221.9 168.881 225.694 167.615C226.089 167.484 227.582 167.176 228.73 166.844C228.51 167.252 228.309 167.672 228.222 167.816C226.34 170.842 224.509 173.894 222.796 177.021C219.466 183.099 216.468 189.359 213.734 195.725C208.133 208.765 203.573 222.206 199.371 235.748C194.949 250.003 190.647 264.322 186.852 278.753C184.682 287.018 182.75 295.352 181.088 303.736C179.439 312.052 177.727 320.586 177.256 329.058C177.124 331.445 181.013 332.016 181.477 329.628C182.995 321.858 184.049 314.019 185.704 306.268C187.316 298.711 189.185 291.21 191.205 283.753C194.611 271.196 198.298 258.713 202.149 246.281C202.35 246.244 202.551 246.187 202.758 246.087C208.854 243.142 214.938 240.31 221.398 238.248C227.732 236.224 234.249 235.503 240.621 233.824C243.607 233.034 243.042 228.31 239.887 228.397L239.881 228.385Z" fill="#E6B298"/>
<path opacity="0.5" d="M280.26 152.119C264.053 150.909 255.141 167.828 252.143 181.238C248.198 198.884 248.63 217.269 252.024 234.958C252.481 237.339 256.125 236.33 255.668 233.956C252.594 217.983 252.08 201.453 255.097 185.43C257.7 171.607 264.342 156.211 280.26 154.669C281.884 154.512 281.909 152.244 280.26 152.125V152.119Z" fill="#E6B298"/>
<path d="M277.613 577.489C278.058 577.044 291.524 559.172 294.685 554.748C297.846 550.325 299.113 548.432 301.64 546.54C304.168 544.647 333.884 541.489 333.884 541.489C333.884 541.489 339.573 547.805 342.734 554.755C345.895 561.704 347.162 568.02 349.056 568.653C350.95 569.286 357.905 567.387 358.539 566.128C359.172 564.862 349.689 559.179 346.528 551.603C343.367 544.027 337.679 529.496 334.518 528.23C331.357 526.964 300.881 538.011 300.881 538.011C300.881 538.011 289.63 550.97 285.835 555.388C282.041 559.812 273.824 572.444 270.663 573.704C267.502 574.97 256.752 580.653 260.547 581.286C264.341 581.919 275.719 579.393 277.619 577.495L277.613 577.489Z" fill="#4B3333"/>
<path d="M351.577 473.269C351.577 473.269 367.382 473.902 368.016 476.427C368.649 478.952 359.8 482.743 347.155 482.743C334.511 482.743 351.583 473.269 351.583 473.269H351.577Z" fill="#1A1A1A"/>
<path d="M306.4 485.858C306.4 485.858 306.695 475.794 307.329 473.902C308.458 470.512 342.1 472.009 351.583 473.269C351.583 473.269 350.316 488.427 349.055 490.325C347.789 492.218 306.407 485.864 306.407 485.864L306.4 485.858Z" fill="white"/>
<path d="M348.102 488.74C348.102 488.74 346.835 502.006 346.835 508.955C346.835 515.904 346.202 518.429 344.941 523.48C343.674 528.531 342.414 528.531 342.414 532.955C342.414 537.379 341.78 539.271 339.886 541.796C337.992 544.321 331.67 543.689 331.67 543.689C331.67 543.689 330.403 546.214 327.242 546.214C324.081 546.214 321.553 544.948 320.92 546.214C320.286 547.48 315.865 549.372 311.437 546.847C311.437 546.847 309.543 551.271 305.115 551.271C300.687 551.271 298.793 549.378 299.426 547.48C300.06 545.587 301.954 538.005 301.954 538.005C301.954 538.005 294.365 548.745 291.204 544.954C288.043 541.163 291.837 535.48 293.098 524.74C294.365 513.999 294.992 508.949 295.625 506.423C296.259 503.898 305.109 484.949 307.636 484.316C310.164 483.683 333.558 484.316 348.096 488.74H348.102Z" fill="#BB5122"/>
<path d="M305.228 506.035C305.133 503.698 301.496 503.679 301.571 506.035C301.897 516.017 300.875 525.943 299.909 535.868C299.614 538.92 304.255 538.813 304.632 535.868C305.899 525.961 305.629 515.986 305.228 506.035Z" fill="#98340E"/>
<path d="M317.188 530.586C315.388 535.787 312.905 540.649 310.509 545.587C309.555 547.542 312.353 549.247 313.463 547.31C316.342 542.316 318.148 536.796 319.628 531.256C320.055 529.665 317.715 529.057 317.182 530.586H317.188Z" fill="#98340E"/>
<path opacity="0.5" d="M341.63 523.286C338.732 523.467 335.872 523.919 332.962 524.044C331.695 524.1 330.391 524.238 329.124 524.213C328.051 524.188 327.054 523.856 325.994 523.806C324.42 523.731 323.247 523.662 321.729 523.254C321.033 523.066 320.456 522.809 319.722 522.903C318.756 523.029 318.255 523.712 317.408 524.056C315.338 524.896 313.576 523.919 311.782 523.079C310.446 522.452 309.43 524.194 310.628 525.047C312.585 526.438 314.774 527.672 317.257 527.227C318.587 526.989 319.534 525.98 320.939 526.356C322.2 526.701 322.871 527.064 324.232 527.039C329.945 526.933 336.481 528.562 342.038 526.344C343.53 525.748 343.53 523.173 341.624 523.292L341.63 523.286Z" fill="#98340E"/>
<path d="M178.04 116.082C178.04 116.082 186.89 114.189 191.318 117.348C195.746 120.506 198.273 124.297 198.907 126.822C199.54 129.347 193.852 157.138 188.157 177.353C182.468 197.568 183.102 196.935 178.04 237.358C172.985 277.782 173.612 294.838 174.879 315.047C176.146 335.262 184.362 383.261 186.256 388.944C188.151 394.628 189.418 402.21 189.418 402.21C189.418 402.21 152.752 410.419 133.152 411.052C113.553 411.684 113.553 406.628 114.186 402.843C114.82 399.052 117.347 394.634 116.714 392.735C116.08 390.843 111.075 384.032 109.181 370.139C107.287 356.241 110.392 230.409 110.392 230.409L127.464 152.087L178.04 116.082Z" fill="white"/>
<path d="M140.108 178.612C140.108 178.612 143.269 189.353 147.697 193.137C147.697 193.137 138.847 223.453 135.686 239.877C132.525 256.301 130.631 320.091 130.631 332.724C130.631 345.356 128.103 362.413 129.364 365.571C130.631 368.729 145.803 390.204 149.597 390.837C153.392 391.47 171.091 362.413 170.457 356.097C169.824 349.78 164.135 295.459 164.135 275.883C164.135 256.307 162.241 219.669 160.974 212.086C159.707 204.504 154.652 192.505 154.652 192.505C154.652 192.505 168.563 177.347 167.93 174.188C167.296 171.03 152.758 170.397 152.758 170.397C152.758 170.397 140.748 176.714 140.114 178.606L140.108 178.612Z" fill="#B95B2D"/>
<path d="M183.541 186.1C179.809 180.893 176.077 175.605 170.251 172.572C168.137 171.469 166.293 174.577 168.375 175.774C173.412 178.662 176.679 183.531 179.665 188.363C181.195 190.844 185.203 188.425 183.535 186.1H183.541Z" fill="#F1F1F1"/>
<path d="M137.317 178.036C133.974 179.778 130.982 182.366 128.254 184.935C125.802 187.241 122.515 190.117 121.468 193.388C120.997 194.861 122.822 196.308 124.14 195.437C126.918 193.601 128.9 190.305 131.271 187.943C133.855 185.374 137.06 181.94 139.794 179.552C141.4 178.155 139.073 177.121 137.317 178.03V178.036Z" fill="#F1F1F1"/>
<path d="M130.938 147.977C130.938 147.977 127.144 161.242 127.777 173.242C128.411 185.242 123.983 218.09 123.349 230.089C122.716 242.089 118.294 271.779 118.294 287.569C118.294 303.36 116.4 326.1 115.766 338.1C115.133 350.1 115.133 352.625 114.5 357.049C113.866 361.473 110.366 369.638 110.467 377.233C110.567 384.827 106.578 394.891 105.945 406.258C105.311 417.625 97.4275 470.111 94.8999 468.845C92.3723 467.579 93.0058 423.365 91.1054 394.314C89.2113 365.258 84.1499 304.626 82.2558 303.993C80.3616 303.36 73.4061 317.259 69.6116 319.151C65.8171 321.044 63.923 322.942 62.6561 326.1C61.3892 329.259 61.7655 331.853 57.4692 335.606C53.173 339.366 36.7344 321.676 36.7344 321.676L59.1877 226.605C59.1877 226.605 60.7557 217.457 63.9168 214.931C67.0778 212.406 65.8109 197.248 68.3447 190.932C70.8723 184.615 98.0609 165.033 106.911 161.875C115.76 158.717 120.502 154.613 121.135 153.98C121.769 153.347 130.932 147.977 130.932 147.977H130.938Z" fill="#F0D1C1"/>
<path d="M0.514216 235.391C-0.175692 251.664 -1.90046 312.678 9.55828 335.575C22.8359 362.106 55.0797 339.366 58.8679 334.309C62.6624 329.259 58.2344 311.569 60.1348 303.993C62.0289 296.411 57.6072 283.778 56.9738 278.728C56.3403 273.677 55.7068 273.044 56.9738 269.886C58.2407 266.728 58.8679 259.146 58.8679 252.203C58.8679 245.26 60.3794 215.909 59.6205 215.107C58.8679 214.305 0.620838 232.815 0.507944 235.397L0.514216 235.391Z" fill="#F0D1C1"/>
<path d="M22.8359 215.564C22.2025 215.564 -1.81885 230.089 0.708722 236.406C3.23629 242.722 17.1473 241.456 17.1473 241.456L25.997 231.349L22.8359 215.558V215.564Z" fill="#1A1A1A"/>
<path d="M22.0583 196.095C22.0583 196.095 18.408 211.773 17.7746 219.982C17.1411 228.191 17.1411 241.456 17.1411 241.456C17.1411 241.456 30.4187 239.564 41.1624 233.248C51.9125 226.931 57.6011 219.982 58.8617 218.09C60.1286 216.197 60.7558 207.349 60.7558 207.349L22.0457 196.095H22.0583Z" fill="white"/>
<path d="M24.73 201.666C24.73 201.666 16.7459 192.799 28.0102 195.337C39.2745 197.875 44.3297 206.083 44.3297 206.083L24.73 201.66V201.666Z" fill="#1A1A1A"/>
<path d="M63.9293 155.559C64.5628 155.559 82.8955 150.508 82.8955 150.508L77.2069 137.243L58.2407 134.717L63.9293 155.559Z" fill="#98340E"/>
<path d="M68.9845 159.977C68.9845 159.977 75.3066 167.559 76.5735 166.926C77.8404 166.293 85.4231 158.084 89.2176 151.768C91.1117 148.61 103.756 146.084 103.129 154.293C102.495 162.502 89.2176 171.976 85.4294 177.666C81.6349 183.35 79.1073 189.033 75.9463 192.191C72.7853 195.349 64.5691 201.666 62.6687 204.824C60.7746 207.982 61.4018 209.875 59.5077 211.14C57.6136 212.406 44.9694 214.298 40.5415 216.191C36.1135 218.083 32.9525 212.4 30.4249 209.875C27.8974 207.349 24.7363 201.666 24.7363 201.666C24.7363 201.666 29.7915 190.925 30.4249 180.191C31.0584 169.451 34.301 160.979 36.1574 157.953C38.0139 154.926 62.0353 151.135 62.0353 151.135L68.9908 159.977H68.9845Z" fill="#BB5122"/>
<path d="M98.7008 78.4969C96.8067 79.1298 68.3574 132.186 68.3574 137.869C68.3574 143.553 83.5291 167.559 84.796 168.185C86.063 168.818 87.9571 168.818 89.224 168.185C90.3843 167.603 103.135 137.236 103.135 137.236L111.351 119.553C111.351 119.553 100.601 77.8641 98.7071 78.4969H98.7008Z" fill="#333333"/>
<path d="M84.7898 168.192C86.0504 168.825 87.9445 168.825 89.2115 168.192C85.1034 163.655 72.1456 141.974 72.1456 136.61C72.1456 130.926 95.5398 87.9716 95.5398 87.9716L98.9517 78.6036C98.8576 78.5158 98.7761 78.472 98.7008 78.497C96.8067 79.1299 68.3574 132.186 68.3574 137.869C68.3574 143.553 83.5291 167.559 84.796 168.185L84.7898 168.192Z" fill="#1A1A1A"/>
<path d="M101.228 137.243C101.228 137.243 91.1116 161.242 89.851 161.875C88.5841 162.508 74.165 138.189 74.7357 134.874C75.3065 131.559 99.378 87.0253 99.378 87.0253L101.228 137.243Z" fill="white"/>
<path d="M52.8657 188.72C52.8657 188.72 54.1326 171.036 52.2322 165.98C50.3381 160.929 53.4991 155.239 56.6602 154.613C59.8212 153.98 66.7767 160.296 71.8319 159.037C76.887 157.777 75.6264 153.353 73.726 152.087C71.8319 150.822 65.5098 145.771 64.2429 145.138C62.976 144.505 60.4484 144.505 60.4484 144.505C60.4484 144.505 61.7153 141.98 66.137 141.98C70.5587 141.98 77.5142 145.138 81.9422 143.246C86.3701 141.353 88.2642 138.195 85.7367 136.929C83.2091 135.664 71.8256 131.246 71.8256 131.246C71.8256 131.246 76.8807 128.721 81.3087 126.822C85.7367 124.93 88.2642 117.98 85.1032 116.715C81.9422 115.449 56.6539 125.556 55.387 128.082C54.1201 130.607 54.1201 132.506 52.226 133.132C50.3318 133.765 45.9039 140.081 45.2704 142.607C44.637 145.132 44.0035 147.657 42.7429 148.923C41.4759 150.189 35.1539 157.132 33.8932 163.448C32.6263 169.764 30.7322 184.922 33.8932 191.872C37.0543 198.821 52.8594 188.713 52.8594 188.713L52.8657 188.72Z" fill="#BB5122"/>
<path d="M87.223 136.265C86.2885 134.392 84.2375 133.69 82.3372 133.226C79.3517 132.493 76.8179 131.027 73.9893 129.892C68.3885 127.643 62.2608 128.27 56.936 130.939C55.0858 131.866 56.7102 134.492 58.5353 133.677C62.725 131.81 67.4101 131.566 71.769 133.032C73.6945 133.677 75.4381 134.743 77.2946 135.557C78.7434 136.19 80.3176 136.391 81.7539 136.973C85.8055 138.603 81.2145 141.573 79.2639 142.137C76.5608 142.92 73.9517 142.293 71.2547 141.848C67.1467 141.172 63.0574 140.965 58.9054 141.266C57.7639 141.347 57.1681 142.237 57.1054 143.127C51.8495 143.659 46.7254 146.711 42.9372 150.176C42.0215 151.01 43.1818 152.238 44.179 151.78C51.0154 148.635 57.9207 144.054 65.2086 148.942C66.7578 149.982 74.8485 154.932 73.2931 157.125C72.1014 158.799 68.3885 158.266 66.7703 157.971C64.87 157.627 63.0448 156.887 61.2448 156.204C59.1061 155.39 56.0893 153.616 53.9569 155.308C52.2133 156.693 50.3192 160.534 49.899 162.671C49.3094 165.666 51.2098 168.862 51.4481 171.87C51.7742 175.981 51.1721 180.11 50.5638 184.164C50.2063 186.533 53.8314 187.554 54.1952 185.167C54.8537 180.78 55.5562 176.319 55.2112 171.876C55.0482 169.752 54.4963 167.797 54.0384 165.729C53.6621 164.037 53.5429 163.185 54.3645 161.668C54.7158 161.017 55.2489 159.594 55.8572 159.118C56.9297 158.278 57.3625 158.742 58.6232 159.206C59.7145 159.601 60.787 160.052 61.8783 160.44C63.8665 161.148 65.886 161.756 67.9996 161.932C71.1105 162.189 75.2938 161.568 76.9183 158.498C78.5239 155.471 76.3538 152.902 74.0708 151.06C71.5244 148.998 68.8526 146.63 65.9236 145.013C67.3724 145.107 68.815 145.27 70.2638 145.502C73.268 145.997 76.197 146.692 79.2389 146.047C83.1964 145.207 89.7004 141.241 87.2355 136.29L87.223 136.265Z" fill="#98340E"/>
<path d="M96.0226 72.3748C96.0226 72.3748 81.8293 49.9543 83.4977 40.6552C85.166 31.3499 89.5814 29.1254 89.5814 29.1254C89.5814 29.1254 78.0913 16.1293 94.693 5.33882C111.295 -5.45161 132.939 2.83233 141.97 6.62966C141.97 6.62966 141.23 -0.82714 150.67 1.50389C160.109 3.83493 179.169 20.2148 182.757 38.8756C182.757 38.8756 185.704 36.2376 187.655 42.7732C189.605 49.3089 183.315 70.5576 183.315 70.5576L142.497 95.6664L96.0289 72.3811L96.0226 72.3748Z" fill="#4E1612"/>
<path d="M179.351 117.692C179.891 116.896 191.299 116.414 188.709 124.516C186.119 132.618 178.065 128.996 178.065 128.996L179.351 117.692Z" fill="#1A1A1A"/>
<path d="M183.101 62.2988C174.584 61.1708 173.016 74.5994 173.016 74.5994L132.073 151.216C132.073 151.216 132.707 151.893 132.926 154.193C140.81 165.096 150.958 167.408 154.445 167.822C160.466 163.235 169.429 157.05 174.12 150.79C178.799 144.549 182.763 137.882 186.168 130.895C187.674 127.505 188.395 125.425 188.395 125.425C188.395 125.425 182.493 123.915 180.292 116.044C178.084 108.174 179.344 100.335 179.344 100.335C179.344 100.335 191.374 94.5698 193.582 84.4749C195.789 74.38 191.612 63.4329 183.095 62.305L183.101 62.2988Z" fill="#BB5122"/>
<path d="M132.525 153.529C132.525 153.529 137.787 160.86 151.121 159.043C164.455 157.226 172.339 137.236 171.73 129.366C171.122 121.489 132.525 153.529 132.525 153.529Z" fill="#98340E"/>
<path d="M100.557 110.091C100.557 110.091 98.6695 130.337 101.693 135.281C104.722 140.225 107.387 139.718 107.387 139.718C107.387 139.718 115.259 155.484 133.911 155.358C152.564 155.233 159.024 145.702 159.024 145.702C159.024 145.702 165.798 148.547 172.157 134.887C178.523 121.226 175.475 83.8044 173.938 75.8087C172.402 67.813 169.04 53.9459 169.04 53.9459L100.551 110.091H100.557Z" fill="#4E1612"/>
<path d="M101.072 112.253C101.072 112.253 106.522 113.625 113.728 111.551C120.935 109.477 128.405 108.731 136.79 109.195C145.176 109.659 150.388 107.967 156.44 99.8961C162.492 91.8252 166.086 74.5492 165.321 70.5514C164.549 66.5535 152.344 60.6069 153.059 53.5574C153.781 46.5079 161.426 39.5148 159.319 35.7739C157.218 32.0329 153.724 35.4668 145.314 38.4621C136.897 41.4573 115.685 46.2259 108.372 44.1706C101.059 42.1215 96.65 44.346 95.0318 46.7335C93.4137 49.1146 91.9272 52.1663 91.7704 54.961C91.6137 57.7558 96.2987 73.0955 97.1643 81.2165C98.0361 89.3438 98.149 109.703 101.059 112.253H101.072Z" fill="#BB5122"/>
<path d="M57.5885 278.49C58.1781 275.263 59.9593 272.223 60.8122 269.084C62.7691 261.928 62.5245 254.44 62.399 247.096C62.2548 238.749 61.9475 230.396 61.4394 222.062C61.2952 219.738 57.8895 219.712 57.8017 222.062C57.5132 230.196 57.4003 238.342 57.4693 246.482C57.5258 253.92 57.877 261.627 55.7195 268.833C54.7787 271.985 53.1794 274.924 52.7027 278.208C52.2009 281.71 53.1605 285.069 53.7187 288.503C55.0358 296.612 52.2699 304.588 49.6859 312.164C48.7577 314.89 52.2323 314.89 53.1668 312.189C54.6219 307.991 56.8986 304.864 57.7892 300.484C57.9021 307.784 55.5689 318.894 53.2797 325.937C52.778 327.479 55.1236 328.068 55.6818 326.602C61.0067 312.534 62.6311 293.416 57.9209 279.11C57.8394 278.859 57.7202 278.659 57.576 278.483L57.5885 278.49Z" fill="#E1AD93"/>
<path d="M124.183 169.326C122.007 171.387 120.226 173.844 118.363 176.181C117.485 177.278 116.619 178.38 115.754 179.483C115.052 180.367 114.249 181.971 113.233 182.554C112.141 183.174 110.247 183.005 108.391 182.679C111.577 175.147 114.914 167.678 118.018 160.108C118.764 158.285 115.754 157.05 114.838 158.767C110.849 166.274 107.387 174.032 104.026 181.839C100.984 181.445 97.7285 180.724 94.6679 180.812C90.2713 180.937 87.888 184.753 88.3395 188.883C88.6218 191.471 89.688 193.952 90.334 196.459C91.1619 199.686 91.7765 202.969 92.2093 206.271C93.771 218.177 93.6644 230.277 94.6114 242.24C95.571 254.415 97.0136 266.546 98.9139 278.609C101.09 292.419 106.829 327.159 110.586 340.638C111.376 343.477 114.5 343.483 113.872 340.625C108.755 317.334 102.194 272.104 100.03 248.318C98.9704 236.681 98.7383 225.014 97.8603 213.377C97.4463 207.838 96.7878 202.286 95.5334 196.872C94.9438 194.334 93.9654 191.884 93.4198 189.353C93.0434 187.592 93.0623 186.05 95.2135 185.712C96.631 185.486 98.5125 186.075 99.9551 186.245C103.191 186.621 106.434 186.984 109.676 187.322C111.922 187.554 113.954 187.723 115.81 186.226C117.893 184.553 119.404 181.846 120.991 179.734C123.017 177.033 125.231 174.358 126.849 171.387C127.771 169.696 125.595 167.991 124.183 169.332V169.326Z" fill="#E1AD93"/>
<path d="M83.7862 302.834C82.7764 296.254 81.2273 289.763 80.2426 283.164C79.2077 276.246 78.499 269.291 77.991 262.31C77.5017 255.549 77.2948 248.788 77.1066 242.014C76.9122 235.002 76.4104 227.921 76.5045 220.909C76.5359 218.478 72.7978 218.484 72.7288 220.909C72.5281 227.953 71.7191 234.958 71.5497 242.014C71.3804 249.176 71.5372 256.37 72.0264 263.52C72.9484 277.023 74.2717 291.367 78.0725 304.407C79.1638 308.154 84.3506 306.512 83.7862 302.834Z" fill="#E1AD93"/>
<path d="M123.103 88.6231C124.575 94.8341 119.652 101.555 115.064 105.085V102.446C117.745 104.742 120.06 105.361 123.304 106.533C124.224 106.866 124.24 108.287 123.304 108.615C119.347 110.01 116.2 107.35 113.41 104.846C112.692 104.2 113.002 102.945 113.684 102.446C117.786 99.4468 121.331 94.1105 121.553 88.8574C121.594 87.9255 122.865 87.6183 123.103 88.6231Z" fill="#333333"/>
</g>
<defs>
<clipPath id="clip0_203_1684">
<rect width="428" height="1101" fill="white"/>
</clipPath>
</defs>
</svg>
