<svg width="222" height="476" viewBox="0 0 222 476" fill="none" xmlns="http://www.w3.org/2000/svg">
<g clip-path="url(#clip0_202_1488)">
<path d="M137.718 468.64C137.718 468.64 172.315 465.572 173.194 471.709C174.068 477.847 137.279 475.217 122.828 474.778C108.373 474.338 91.2965 473.903 91.2965 469.515C91.2965 465.127 137.722 468.64 137.722 468.64H137.718Z" fill="#340000"/>
<path d="M190.161 450.408C190.161 450.408 209.201 452.026 208.626 455.693C208.05 459.359 201.954 458.537 189.765 456.888C177.573 455.24 166.157 454.695 164.875 452.791C163.597 450.887 172.697 448.293 172.697 448.293L190.156 450.412L190.161 450.408Z" fill="#340000"/>
<path d="M203.412 398.059C203.412 398.059 206.478 410.774 207.791 414.278C209.104 417.782 213.483 422.609 214.362 427.427C215.236 432.25 185.628 436.744 185.628 436.744L186.331 425.238C186.331 425.238 188.957 421.73 185.457 412.963C181.952 404.196 203.412 397.619 203.412 397.619V398.059Z" fill="#E9946B"/>
<path d="M210.905 416.911C206.821 416.458 206.364 421.457 205.002 426.456C203.834 430.738 197.729 432.624 193.789 431.798C190.534 431.116 188.483 427.678 187.029 424.926C186.919 424.719 186.814 424.513 186.638 424.354C186.239 423.998 185.602 424.051 185.145 424.332C184.693 424.614 184.381 425.071 184.082 425.511C182.496 427.867 181.148 430.373 179.791 432.866C179.18 433.983 178.548 435.003 177.828 436.031C177.283 436.81 176.554 437.812 175.491 437.812C174.129 437.812 162.323 439.175 160.057 444.627C157.786 450.078 164.598 454.624 173.677 455.077C182.756 455.53 193.2 450.988 195.923 451.441C198.647 451.894 219.532 448.258 221.802 443.259C223.406 439.724 214.994 417.355 210.905 416.902V416.911Z" fill="#842A2E"/>
<path d="M160.553 443.712C162.389 445.348 167.462 449.401 172.539 449.401C178.895 449.401 188.883 444.855 192.063 443.492C195.243 442.129 203.412 443.039 208.859 441.219C213.369 439.716 218.807 436.036 220.546 434.809C221.737 438.731 222.338 442.072 221.798 443.264C219.527 448.262 198.642 451.898 195.919 451.446C193.196 450.993 182.751 455.534 173.673 455.081C164.594 454.629 157.782 450.083 160.052 444.631C160.184 444.31 160.355 444.007 160.549 443.712H160.553Z" fill="#F2F2F2"/>
<path d="M170.317 440.74C170.501 439.957 170.8 439.408 171.301 438.792C172.017 437.904 173.347 438.722 173.347 439.676C176.532 439.36 180.107 438.748 182.106 436.339C183.959 434.106 186.432 433.081 189.111 431.912C190.293 431.393 190.899 432.431 189.695 433.002C188.048 433.785 186.555 434.77 185.272 436.08C184.13 437.245 183.322 438.762 181.961 439.698C179.145 441.637 174.801 441.971 171.498 442.296C170.673 442.376 170.154 441.452 170.321 440.749L170.317 440.74Z" fill="#3A1714"/>
<path d="M158.739 419.98C158.739 420.419 157.865 434.009 158.739 437.953C159.613 441.896 162.679 444.09 162.679 451.982C162.679 459.874 129.395 459.874 127.642 455.49C125.89 451.107 133.044 444.161 133.774 442.34C135.526 437.957 134.648 425.242 134.648 425.242L158.735 419.98H158.739Z" fill="#E9946B"/>
<path d="M89.979 195.961C89.979 195.961 83.8474 213.059 85.1607 219.196C86.474 225.334 89.1005 232.346 89.5397 240.238C89.979 248.13 100.929 302.053 114.066 337.998C121.919 359.488 128.955 402.003 128.955 408.14C128.955 414.278 128.955 420.415 131.147 422.169C133.339 423.923 128.955 427.432 128.955 432.69C128.955 437.948 139.027 442.336 145.158 442.336C151.29 442.336 160.487 434.884 162.24 430.501C163.992 426.117 160.048 419.98 160.487 416.911C160.926 413.842 158.295 369.565 159.613 370.88C160.891 372.15 174.942 400.692 178.702 411.297C179.4 413.271 180.085 415.254 180.753 417.236C181.196 418.547 181.504 420.538 182.822 421.294C185.545 422.851 191 420.648 193.574 419.707C198.506 417.909 203.654 415.1 206.711 410.686C208.156 408.597 208.617 405.691 208.507 403.168C208.441 401.624 207.866 400.029 206.654 399.074C206.109 398.648 205.455 398.353 204.993 397.835C204.37 397.127 204.22 396.129 204.075 395.192C201.752 380.284 193.657 366.461 186.59 353.377C181.688 344.303 176.918 334.793 170.993 326.326C170.853 326.123 170.712 325.921 170.558 325.728C167.054 321.344 165.301 320.905 165.301 320.905C165.301 320.905 165.74 319.151 165.301 315.207C164.862 311.263 163.109 304.246 162.674 296.355C162.235 288.463 162.609 265.566 163.549 248.569C164.862 224.894 168.152 205.088 159.719 188.909C151.285 172.73 89.9702 195.965 89.9702 195.965L89.979 195.961Z" fill="#490407"/>
<path d="M144.289 262.159C145.009 252.297 147.354 243.307 150.319 234.36C150.64 233.397 152.063 233.793 151.834 234.777C149.814 243.399 147.943 252.227 147.187 261.06C146.436 269.839 147.824 277.568 149.265 286.225C152.155 303.609 155.172 320.971 157.522 338.442C158.836 348.216 159.499 358.895 160.272 368.73C160.404 370.409 157.786 370.401 157.654 368.73C156.231 350.691 153.688 332.775 150.811 314.917C149.397 306.146 147.899 297.392 146.45 288.63C145.053 280.18 143.66 270.745 144.289 262.163V262.159Z" fill="#4A3333"/>
<path d="M132.522 426.223C133.633 426.869 134.459 427.867 135.526 428.588C136.593 429.309 137.757 429.876 138.974 430.294C141.526 431.164 144.289 431.393 146.941 430.888C152.427 429.846 156.328 426.1 159.231 421.549C159.938 420.441 161.01 421.009 160.491 422.169C158.036 427.652 152.827 432.299 146.941 433.319C143.968 433.833 140.854 433.609 137.999 432.615C135.535 431.758 132.192 430.188 130.993 427.744C130.519 426.777 131.503 425.629 132.517 426.218L132.522 426.223Z" fill="#4A3333"/>
<path d="M180.709 413.631C185.808 413.091 191.066 412.462 195.445 409.56C199.341 406.979 202.103 403.088 204.286 399.026C204.87 397.936 206.478 398.894 205.933 399.989C203.724 404.451 200.658 408.549 196.494 411.358C191.817 414.515 186.55 414.471 181.078 415.157C179.611 415.342 179.229 413.79 180.713 413.631H180.709Z" fill="#4A3333"/>
<path d="M103.726 227.009C103.827 226.459 104.477 226.068 105 226.085C117.663 226.468 130.124 224.336 142.035 220.045C143.406 219.552 143.893 221.707 142.58 222.217C130.985 226.741 118.559 228.846 106.125 228.697C106.067 230.623 106.753 232.671 107.126 234.509C107.534 236.514 107.943 238.519 108.351 240.524C109.168 244.533 109.985 248.543 110.798 252.548C111.206 254.553 111.61 256.558 112.023 258.562C112.247 259.64 112.366 261.152 113.139 262.009C113.732 262.669 114.632 262.946 115.44 263.231C118.612 264.344 122.13 264.564 125.428 263.983C128.608 263.425 131.652 262.185 134.239 260.242C135.711 259.134 137.12 257.841 137.832 256.105C138.601 254.227 138.627 252.029 138.869 250.033C139.844 241.944 140.823 233.85 141.798 225.76C142 224.103 144.618 224.147 144.416 225.822C143.489 233.489 142.567 241.152 141.64 248.82C141.267 251.915 141.302 255.529 139.681 258.29C138.276 260.686 135.834 262.528 133.457 263.882C128.582 266.661 122.705 267.54 117.219 266.428C114.733 265.927 111.76 265.104 110.49 262.7C109.792 261.376 109.608 259.798 109.313 258.347C108.905 256.342 108.496 254.337 108.088 252.333C107.183 247.896 106.283 243.456 105.378 239.02C104.605 235.226 103.019 230.895 103.735 227.018L103.726 227.009Z" fill="#4A3333"/>
<path d="M157.891 239.508C158.273 235.318 158.177 231.098 157.962 226.899C157.746 222.678 157.329 218.462 157.263 214.237C157.241 213.01 157.237 212.109 158.243 211.278C159.705 210.069 161.814 209.242 163.491 208.363C164.616 207.774 165.595 209.361 164.515 210.056C163.746 210.553 162.969 211.036 162.187 211.511C161.603 211.867 160.21 212.382 159.841 212.94C159.152 213.986 159.688 216.097 159.758 217.358C159.951 220.792 160.232 224.217 160.404 227.651C160.579 231.062 160.663 234.487 160.443 237.899C160.351 239.315 160.21 240.73 160.022 242.137C159.877 243.192 159.639 243.592 160.373 244.388C161.032 245.1 161.765 245.747 162.442 246.441C163.513 247.545 161.91 249.207 160.777 248.16C159.745 247.202 157.931 245.966 157.448 244.586C156.947 243.153 157.76 240.937 157.891 239.508Z" fill="#4A3333"/>
<path d="M166.184 470.83C166.184 470.39 165.745 444.525 162.244 442.771C158.739 441.017 157.865 449.348 151.733 450.663C145.602 451.978 139.031 450.663 136.844 447.594C134.652 444.525 134.217 441.896 133.778 441.457C133.339 441.017 128.086 443.211 121.954 449.788C115.823 456.365 101.368 455.051 97.4281 458.994C93.4883 462.938 92.6099 467.326 96.1149 470.83C99.6199 474.334 118.449 476.967 130.278 475.653C142.101 474.338 153.49 475.653 156.117 475.653C158.743 475.653 166.188 475.653 166.188 470.83H166.184Z" fill="#842A2E"/>
<path d="M104.649 467.546C114.72 469.3 122.169 468.42 130.488 467.106C138.812 465.791 150.196 467.546 156.767 466.666C161.805 465.994 164.778 463.778 165.89 462.78C166.127 467.216 166.184 470.671 166.184 470.83C166.184 475.653 158.739 475.653 156.112 475.653C153.486 475.653 142.097 474.338 130.273 475.653C118.449 476.967 99.6155 474.338 96.1105 470.83C93.6333 468.35 93.3478 465.435 94.784 462.542C95.7811 464.112 98.2978 466.438 104.649 467.541V467.546Z" fill="#F2F2F2"/>
<path d="M113.293 455.842C113.389 455.987 113.464 456.154 113.539 456.312C113.635 456.524 113.736 456.739 113.833 456.95C113.886 457.064 113.943 457.187 114.048 457.258C114.176 457.35 114.347 457.346 114.505 457.337C115.37 457.297 116.236 457.328 117.092 457.302C119.705 457.223 121.836 456.282 123.931 454.778C127.528 452.202 130.949 449.225 135.184 447.717C136.167 447.366 136.646 448.794 135.86 449.322C133.312 451.032 130.642 452.461 128.204 454.347C126.184 455.908 124.234 457.653 121.862 458.669C119.525 459.671 116.956 459.781 114.448 459.562C113.741 459.5 113.003 459.469 112.52 458.858C111.984 458.181 112.243 457.271 112.05 456.493C111.975 456.189 111.729 455.781 111.997 455.504C112.23 455.262 112.744 455.323 112.985 455.504C113.113 455.596 113.209 455.715 113.297 455.842H113.293Z" fill="#3A1714"/>
<path d="M84.3129 38.7463C84.3129 38.7463 86.5222 48.0669 88.4943 48.0185C90.4664 47.9702 93.396 46.9062 93.396 46.9062L93.3696 45.9214C93.3696 45.9214 93.0797 46.7392 92.5746 46.2599C92.0695 45.7807 90.2643 37.0229 90.2643 37.0229L84.3129 38.7507V38.7463Z" fill="#1A1A1A"/>
<path d="M87.1504 24.3302C86.9791 24.339 86.8561 24.405 86.8429 24.572C86.6628 26.612 86.9264 28.6652 87.1855 30.7007C87.3612 32.0637 87.5457 33.4573 88.1562 34.6928C88.4812 35.3434 88.9204 35.9414 89.1444 36.6316C89.3597 37.2867 89.3728 37.9901 89.4036 38.6804C89.61 42.9758 90.7081 47.17 92.241 51.1708C93.014 53.1888 93.8968 55.1672 94.8455 57.1105C95.3023 58.0513 95.7108 59.0933 96.295 59.9594C96.699 60.5661 97.3228 61.1201 97.8147 61.6609C98.1661 62.0434 98.5745 62.4171 99.0796 62.5753C104.122 64.1141 109.248 59.6956 109.248 59.6956L109.283 70.4231C109.283 70.4231 137.428 72.0894 138.346 70.6341C139.26 69.1789 131.903 60.786 130.673 49.8519C130.313 46.6336 127.12 44.0705 124.743 42.2547C120.865 39.2959 116.53 36.935 112.177 34.7587C107.666 32.4989 103.046 30.4633 98.3769 28.5509C95.1881 27.2451 91.973 25.9965 88.7316 24.8226C88.4417 24.7171 87.6072 24.3126 87.1504 24.3302Z" fill="#E7926B"/>
<path d="M87.2603 24.9941C88.0289 25.5788 88.6878 26.2998 89.3378 27.0165C90.5413 28.3354 91.6964 29.6588 92.8077 31.0437C93.8618 32.3582 95.1443 33.4661 96.2292 34.7499C98.1925 37.0845 105.506 43.5737 107.97 46.8491C110.434 50.1245 112.41 52.9338 117.672 53.756C122.934 54.5737 130.963 51.9886 131.406 50.5465C133.168 44.7827 131.912 38.7595 132.377 32.8726C132.575 30.3578 133.133 27.887 133.387 25.381C133.646 22.875 133.589 20.2635 132.623 17.9377C131.863 16.1176 130.589 14.5876 129.702 12.8378C129.052 11.5584 128.736 10.2175 128.297 8.86334C127.317 5.87372 124.62 3.69745 121.502 3.31935C120.615 3.21384 119.71 3.24022 118.836 3.41168C118.168 3.54358 117.158 4.21184 116.521 4.15029C115.507 4.04917 114.707 1.99601 113.956 1.30136C112.634 0.0791357 110.855 -0.193447 109.134 0.118704C108.264 0.276978 107.425 0.567147 106.617 0.918867C105.835 1.2574 105.031 1.96084 104.157 1.95204C103.731 1.95204 103.318 1.79377 102.914 1.66187C101.091 1.06395 99.1412 0.852919 97.235 1.05076C96.2072 1.15628 95.0696 1.46843 94.5645 2.36971C94.4108 2.64669 94.3274 2.95884 94.1649 3.23582C93.6334 4.1415 91.4197 3.82935 90.4754 4.02279C89.0347 4.31736 87.6424 4.84054 86.3687 5.57036C85.7099 5.94846 84.9939 6.70466 85.3848 7.35534C85.6615 7.82137 86.4389 8.21705 86.1139 8.64791C85.6 9.32937 84.4844 9.80858 83.8388 10.3977C83.1799 11 82.5738 11.6639 81.9106 12.2882C79.5915 14.4645 79.4202 17.9465 81.1815 20.4833C82.688 22.6508 85.0203 23.3894 87.0626 24.8358C87.1329 24.8886 87.2032 24.9369 87.2735 24.9941H87.2603Z" fill="#4A3333"/>
<path d="M109.92 56.2532C109.88 55.1585 108.198 55.198 108.215 56.2971C108.229 57.0929 108.237 58.8427 108.321 59.6341C108.435 60.698 109.92 60.6629 109.981 59.5901C110.025 58.7988 109.946 57.0445 109.92 56.2532Z" fill="#DC815C"/>
<path d="M105.989 39.7399C106.103 39.907 106.226 40.0917 106.41 40.1708C106.792 40.3335 107.232 39.951 107.284 39.5377C107.337 39.1244 107.131 38.7243 106.915 38.3682C106.235 37.2295 105.418 36.17 104.491 35.2247C104.219 34.9478 103.933 34.6752 103.586 34.5081C103.292 34.3674 102.897 34.3191 102.677 34.5609C102.58 34.6664 102.536 34.8071 102.51 34.9478C102.286 36.0821 102.686 36.5789 103.52 37.146C104.495 37.8055 105.33 38.7771 105.989 39.7443V39.7399Z" fill="#1A1A1A"/>
<path d="M119.512 7.5356C118.871 7.36853 118.427 7.43887 117.821 7.72025C117.479 7.87852 117.171 8.22585 116.846 8.45007C115.331 7.35974 113.952 6.70905 111.918 7.20586C110.838 7.46965 111.343 9.08756 112.419 8.85454C113.236 8.67429 114.07 8.75343 114.813 9.14471C115.366 9.43488 115.818 10.1691 116.416 10.3581C116.798 10.4769 117.237 10.4021 117.588 10.1955C118.265 9.80419 118.809 9.36014 119.552 9.04799C120.228 8.76222 120.316 7.74663 119.512 7.53999V7.5356Z" fill="#3A1714"/>
<path d="M95.0475 35.0225C95.0475 35.0225 95.8644 29.7555 100.665 31.0657C105.461 32.3758 106.182 41.8898 102.431 44.3694C98.6798 46.8491 95.0475 35.0225 95.0475 35.0225Z" fill="#E7926B"/>
<path d="M104.157 43.0637C103.937 42.7823 103.731 42.6724 103.38 42.6416C103.059 42.6152 102.782 42.8571 102.624 43.1033C102.558 43.2044 102.484 43.3011 102.418 43.4066C102.418 43.411 102.418 43.411 102.413 43.4154C102.369 43.4682 102.33 43.5209 102.282 43.5737C102.211 43.6528 102.137 43.732 102.058 43.8067C102.049 43.8155 101.983 43.8726 101.952 43.8946C101.917 43.921 101.847 43.9694 101.851 43.9694C101.482 44.2288 101.298 44.7607 101.57 45.1652C101.834 45.5521 102.352 45.706 102.765 45.4466C103.345 45.0817 103.872 44.5805 104.183 43.965C104.315 43.7012 104.355 43.3187 104.161 43.0681L104.157 43.0637Z" fill="#DC815C"/>
<path d="M96.4311 39.0629C96.8264 41.0413 97.6301 42.8439 98.7941 44.4926C99.3343 45.2531 99.9273 46.0006 100.705 46.5149C101.144 46.8051 101.631 47.0161 102.115 47.2184C104.205 48.0977 106.406 49.465 108 51.1093C109.151 52.2963 109.696 53.9626 110.205 55.5102C110.763 57.2116 111.053 59.001 111.053 60.7948C111.053 61.3136 111.022 61.8587 110.75 62.3028C110.657 62.4566 110.534 62.5929 110.464 62.7556C110.354 62.9974 110.359 63.27 110.35 63.5338C110.275 65.4858 109.305 67.3631 107.842 68.6601C105.62 70.6253 102.009 71.4914 99.185 70.4978C97.4544 69.8911 95.9874 68.6161 95.0124 67.0598C94.0373 65.5034 93.5278 63.6789 93.4004 61.8455C93.3697 61.3883 93.3609 60.9267 93.2291 60.487C93.1237 60.1221 92.9393 59.788 92.7767 59.4494C91.9159 57.6601 91.5645 55.6333 91.749 53.6593C91.8236 52.8591 91.7577 51.971 92.3551 51.3731C92.9085 50.8191 93.7782 50.696 94.4238 50.2827C96.2686 49.0913 96.2202 46.8227 95.9523 44.941C95.6009 42.4702 94.7488 40.1048 94.191 37.678C93.6552 35.3522 93.3785 32.899 92.175 30.837C91.033 28.885 89.1049 27.377 88.4416 25.2139C88.3143 24.8006 88.2703 24.2819 88.6041 24.0093C88.7798 23.8686 89.0214 23.8378 89.2498 23.8378C90.3039 23.8378 91.2746 24.4006 92.0959 25.06C93.1105 25.8734 93.9802 26.8758 94.661 27.9837C94.9597 28.4717 95.1397 29.0521 95.4867 29.4873C95.9699 30.0896 96.5233 30.6436 97.0372 31.2195C97.0723 31.2591 97.1119 31.3031 97.1206 31.3558C97.1338 31.4437 97.0635 31.5229 97.0021 31.5888C96.4135 32.2219 96.1807 33.11 96.0797 33.9673C95.8776 35.6688 96.0929 37.3746 96.4311 39.0585V39.0629Z" fill="#4A3333"/>
<path d="M96.9099 31.6592C96.9099 31.6592 95.9963 33.1144 96.0051 33.5892L85.4023 39.7971C85.4023 39.7971 84.9016 38.8562 84.8884 38.3814C84.8752 37.9066 96.9099 31.6636 96.9099 31.6636V31.6592Z" fill="#1A1A1A"/>
<path d="M87.4665 36.7371C87.4665 36.7371 83.4521 38.5617 83.1929 39.1552C82.9338 39.7531 83.8869 41.16 83.8869 41.16L86.4563 40.1444L87.3128 39.8059L96.1236 33.7387C96.1236 33.7387 96.0138 32.5253 96.6814 31.9537L87.4665 36.7371Z" fill="#1A1A1A"/>
<path d="M17.569 179.975C17.6085 179.276 18.0126 178.656 18.421 178.085C19.8924 176.018 21.5483 174.084 23.3667 172.312C23.9157 171.776 24.4911 171.248 25.1719 170.896C25.9537 170.492 26.8365 170.333 27.715 170.29C28.7515 170.237 29.8101 170.342 30.7807 170.712C32.2917 171.288 33.5039 172.483 34.3604 173.855C35.2169 175.227 35.7483 176.774 36.2139 178.322L37.0836 180.23C37.7116 180.613 38.3661 181.026 38.735 181.663C39.0996 182.301 39.0557 183.242 38.4451 183.646C37.9137 183.998 37.1187 183.87 36.6927 184.341C36.4511 184.613 36.4072 185 36.293 185.348C35.946 186.429 34.8655 187.15 33.7543 187.388C32.643 187.629 31.4879 187.475 30.3635 187.322C30.5831 188.24 30.7149 189.406 29.9374 189.942C29.4631 190.272 28.8262 190.21 28.264 190.096C23.8542 189.194 20.2702 185.796 18.1356 181.83C17.8237 181.254 17.5338 180.626 17.569 179.971V179.975Z" fill="#D37153"/>
<path d="M89.7725 173.912C89.7725 173.912 73.5872 174.708 63.0459 174.347C52.5046 173.987 46.4433 175.6 44.2999 176.585C42.1565 177.57 33.2491 183.712 30.7324 186.029C28.2156 188.346 24.6667 196.422 21.5834 196.137C18.5001 195.851 21.2188 188.693 22.8615 186.416C24.5042 184.139 25.163 179.72 23.3491 178.493C21.5351 177.267 15.8691 177.983 11.9557 178.616C8.04219 179.25 3.37766 182.551 0.645706 180.489C-2.08625 178.427 4.36591 175.917 10.8005 172.967C17.2351 170.017 28.4572 166.394 33.662 165.26C38.8667 164.126 54.4635 160.287 70.8508 154.656C87.2382 149.024 101.851 143.036 101.851 143.036L89.7725 173.917V173.912Z" fill="#E28966"/>
<path d="M124.576 198.155C123.702 198.155 111 193.771 106.182 194.211C101.364 194.651 85.1607 202.103 84.2822 200.788C83.4082 199.473 87.348 181.936 87.348 174.484C87.348 167.032 88.6613 145.55 88.6613 145.55L121.071 137.659L142.532 166.592L124.576 198.155Z" fill="#5B74CA"/>
<path d="M144.723 70.5902C144.723 70.5902 140.784 67.9611 140.344 67.9611C139.905 67.9611 141.218 66.2069 139.905 65.7716C138.592 65.3363 136.839 65.332 136.839 65.332L137.279 62.2632C137.279 62.2632 138.592 60.9486 138.592 59.6341C138.592 58.3195 137.279 54.3759 135.087 53.9406C132.895 53.501 115.379 59.6341 108.369 67.5214C101.363 75.4087 128.077 86.3604 128.077 86.3604L144.719 70.5902H144.723Z" fill="#5B74CA"/>
<path d="M123.588 65.3232C128.051 63.0238 132.856 61.2564 137.709 59.9902C138.1 59.8891 138.693 60.1485 138.618 60.6101C138.544 61.0805 138.078 61.5949 137.788 61.9554C137.643 62.1313 137.459 62.2896 137.283 62.4347C136.835 62.8128 136.282 62.6061 136.053 62.2236C132.083 63.4986 128.824 64.4483 125.016 66.2113C124.036 66.6641 122.6 65.8332 123.588 65.3232Z" fill="#3D57A4"/>
<path d="M84.2865 80.6625C84.2865 80.6625 83.8472 87.2397 82.534 88.9939C81.2207 90.7481 78.5942 100.829 79.4682 103.898C80.3423 106.967 81.2207 107.406 81.2207 109.596C81.2207 111.785 81.6599 135.021 88.2263 152.558C94.797 170.096 96.1103 175.794 103.116 177.109C110.121 178.423 120.197 167.902 122.824 163.519C125.45 159.136 101.363 87.2397 101.363 87.2397L99.3781 78.6841L84.2865 80.6625Z" fill="#E9946B"/>
<path d="M96.9889 139.409C97.393 138.125 99.9185 138.819 99.5891 140.134C98.0035 146.456 97.4369 152.827 98.4252 159.294C98.6228 160.586 97.2129 160.894 96.9889 159.575C95.8513 152.831 94.9202 145.959 96.9889 139.409Z" fill="#DD7D5B"/>
<path d="M95.6712 97.7605C95.6712 98.2002 94.7971 108.721 93.9187 111.35C93.0402 113.979 94.7927 117.927 96.1104 119.242C97.4237 120.556 96.5496 126.254 97.8629 127.573C97.6696 128.936 97.5993 130.361 97.7135 131.732C97.7882 132.62 98.1264 133.209 97.674 134.027C97.1645 134.955 96.4222 135.817 95.6931 136.577C94.8323 137.478 93.8308 138.323 93.4136 139.496C93.0798 140.429 93.1764 141.506 93.6683 142.367C94.9465 144.61 97.7663 144.253 99.9536 144.429C102.22 144.61 104.447 145.287 106.436 146.386C107.42 146.927 108.281 147.604 109.278 148.118C110.442 148.716 111.602 149.323 112.757 149.934L119.762 125.823L104.873 96.89L95.6756 97.7649L95.6712 97.7605Z" fill="#5B74CA"/>
<path d="M93.7782 137.478C93.9144 137.21 94.0857 136.96 94.2701 136.727C94.9158 135.891 95.6844 135.109 96.2071 134.19C97.0855 132.651 96.4048 131.09 96.3564 129.459C96.2906 127.235 97.5511 125.612 99.3958 124.513C104.197 121.655 110.482 122.838 115.48 124.447C116.93 124.913 116.332 127.002 114.856 126.716C112.199 126.206 109.564 125.454 106.841 125.384C104.557 125.327 100.599 125.665 99.1938 127.811C97.942 129.727 99.532 132.471 98.5042 134.656C98.0738 135.566 97.4018 136.313 96.598 136.907C96.2071 137.197 95.7854 137.47 95.355 137.694C94.8587 137.953 94.4897 138.375 94.0857 138.767C94.0286 138.819 93.9671 138.877 93.8924 138.899C93.7606 138.934 93.6201 138.846 93.5586 138.723C93.4971 138.6 93.4971 138.459 93.5103 138.323C93.5454 138.028 93.6421 137.747 93.7782 137.478Z" fill="#3D57A4"/>
<path d="M103.555 68.3875C103.116 68.3875 97.4237 70.1417 96.1104 70.5814C94.7971 71.021 98.7369 74.525 98.7369 74.525L102.242 73.6501L103.555 68.3875Z" fill="#352121"/>
<path d="M106.182 71.8959C106.182 71.8959 107.056 66.1981 105.308 64.8835C103.555 63.569 100.929 65.7584 100.929 71.8959C100.533 70.3879 99.7517 69.0734 98.7151 67.9127C98.4911 67.6621 98.2451 67.4159 97.9421 67.2664C97.6214 67.1081 97.2481 67.0642 96.8923 67.1037C96.3214 67.1653 95.7723 67.4379 95.3814 67.8599C95.0828 68.1765 94.8017 68.6117 94.3668 68.6249C93.9276 68.6337 93.6245 68.2117 93.2644 67.9655C92.6407 67.5434 91.7535 67.6753 91.1693 68.1457C90.5851 68.6161 90.2689 69.3591 90.1591 70.1022C90.1327 70.278 90.1064 70.4759 89.9746 70.5946C89.8341 70.7177 89.6232 70.7089 89.4344 70.7089C88.0947 70.7089 86.8166 71.7113 86.496 73.0126C86.2017 74.2041 86.6717 75.4879 87.4667 76.4199C88.2617 77.352 89.3509 77.9851 90.4534 78.5171C93.0536 79.7657 95.97 80.5526 98.8205 80.1218C101.671 79.6865 104.416 77.8488 105.356 75.1186C105.712 74.0942 105.874 72.9423 106.191 71.9091L106.182 71.8959Z" fill="#E9946B"/>
<path d="M133.339 71.8959C133.339 71.8959 127.207 68.8272 119.323 69.2668C111.439 69.7065 109.687 70.1417 107.934 69.7065C106.182 69.2668 99.6111 74.9691 98.2978 77.1585C96.9845 79.3524 119.319 85.9251 119.319 85.9251L133.334 71.8959H133.339Z" fill="#5B74CA"/>
<path d="M133.576 200.757C133.576 200.757 129.395 217.002 128.52 218.757C127.646 220.511 132.46 266.102 131.147 266.542C129.834 266.982 124.576 266.102 124.141 265.228C123.702 264.353 122.828 241.992 123.702 234.1C124.576 226.209 127.642 220.511 127.207 218.757C126.768 217.002 126.768 200.784 126.768 200.784C126.768 200.784 117.131 198.59 114.505 191.577C111.878 184.565 111.439 178.863 112.313 177.109C113.187 175.354 118.445 170.971 118.445 170.971L119.758 178.423C119.758 178.423 113.846 183.026 113.846 183.901C113.846 184.776 119.978 190.913 122.169 192.232C124.361 193.547 131.806 193.987 131.806 193.987L133.58 200.753L133.576 200.757Z" fill="#352121"/>
<path d="M155.673 196.836C155.673 196.836 151.294 209.111 149.981 209.111C148.668 209.111 147.789 208.671 147.789 208.671C147.789 208.671 147.789 216.123 148.228 218.317C148.668 220.511 149.542 222.261 148.668 221.825C147.793 221.386 144.728 219.196 144.288 217.002C143.849 214.808 146.48 198.15 146.48 198.15L155.677 196.836H155.673Z" fill="#352121"/>
<path d="M171.88 191.138C171.88 191.138 172.32 209.111 172.754 210.865C173.194 212.619 174.068 215.248 173.194 215.248C172.32 215.248 165.31 216.563 165.31 215.248C165.31 213.934 166.184 210.425 166.184 210.425C166.184 210.425 166.184 192.452 166.623 192.013C167.062 191.573 171.88 191.138 171.88 191.138Z" fill="#352121"/>
<path d="M98.737 81.1022C97.9244 81.4275 88.2264 85.4855 87.7872 87.2397C87.3479 88.9939 94.7928 100.39 96.9845 102.144C99.1762 103.898 99.1762 103.458 100.05 106.087C100.924 108.717 119.758 189.384 120.637 192.013C121.515 194.642 132.026 203.413 133.774 204.288C135.526 205.163 195.528 188.069 197.276 185C199.029 181.931 197.276 174.04 197.276 174.04C197.276 174.04 202.969 174.04 203.847 170.971C204.721 167.902 192.458 128.448 192.458 128.448C192.458 128.448 195.085 128.448 195.085 127.134C195.085 125.819 188.514 110.915 186.326 110.036C184.135 109.161 181.947 109.161 181.947 109.161C181.947 109.161 172.311 88.119 170.124 84.6106C170.124 84.6106 176.694 86.3648 176.255 82.8564C175.816 79.348 167.497 70.5814 162.24 67.9523C156.982 65.3232 114.066 74.9647 98.737 81.1022Z" fill="#842A2E"/>
<path d="M127.357 124.79C135.566 121.392 143.898 118.288 152.326 115.487C161.792 112.344 169.566 109.939 179.321 107.846C180.735 107.543 181.609 109.209 180.195 109.6C164.242 114.019 150.038 118.6 134.608 124.649C132.671 125.41 130.739 126.188 128.81 126.98C127.91 127.349 126.518 127.731 125.341 128.299C125.477 128.321 125.617 128.356 125.762 128.426C128.059 129.565 130.141 131.139 131.85 133.051C132.662 133.961 133.413 134.955 134.055 135.992C134.599 136.876 134.959 138.371 135.64 139.105C137.362 140.956 143.305 138.569 145.448 137.953C148.637 137.039 151.812 136.076 155.014 135.197C167.681 131.723 180.533 129.086 193.556 127.353C194.759 127.195 194.54 128.255 193.332 128.452C179.518 130.699 166.307 134.669 152.845 138.507C149.577 139.439 146.34 140.481 143.046 141.312C142.027 141.572 140.696 141.998 139.343 142.284C142.747 151.059 145.382 160.151 147.442 169.331C148.501 174.044 149.401 178.801 150.121 183.576C150.372 185.224 150.684 187.572 150.056 189.234C156.064 187.322 161.897 184.662 167.659 182.327C177.287 178.427 186.634 175.324 196.833 173.169C198.475 172.822 199.468 174.449 197.816 174.796C187.35 177.007 177.476 181.158 167.598 185.163C158.164 188.983 148.69 193.459 138.421 194.325C137.661 194.391 137.182 193.67 137.112 193.015C135.214 175.411 130.176 158.357 124.273 141.721C123.579 139.769 122.877 137.821 122.161 135.878C121.506 134.089 120.369 132.049 120.294 130.114C120.162 126.676 124.835 125.837 127.339 124.799L127.357 124.79ZM123.144 130.998C123.267 132.638 124.546 134.801 125.112 136.349C125.872 138.424 126.619 140.503 127.348 142.592C130.045 150.277 132.548 158.036 134.626 165.911C136.857 174.347 138.557 182.912 139.571 191.582C139.584 191.683 144.034 190.852 144.433 190.764C145.698 190.487 146.968 189.471 147.6 188.337C148.044 187.55 147.864 186.152 147.807 185.264C147.728 184.046 147.552 182.837 147.346 181.632C147.034 179.777 146.59 177.948 146.239 176.097C145.518 172.299 144.693 168.518 143.761 164.763C141.899 157.245 139.558 149.877 137.006 142.57C136.303 142.57 135.649 142.473 135.082 142.218C133.124 141.334 132.553 138.411 131.437 136.753C129.662 134.115 127.242 132.15 124.453 130.673C123.834 130.343 123.702 129.771 123.865 129.27C123.382 129.741 123.083 130.303 123.136 131.002L123.144 130.998Z" fill="#4C1A18"/>
<path d="M91.4986 89.1346C91.8939 89.4599 92.2761 89.8073 92.6494 90.1502C95.9392 93.1926 99.0313 96.4548 102.484 99.3213C103.762 100.381 105.277 102.223 107.056 101.524C108.422 100.988 109.48 99.9016 110.741 99.185C112.291 98.3057 113.868 97.4747 115.463 96.6834C118.414 95.2237 124.945 93.0431 128.02 91.8648C140.81 86.9759 154.76 84.1621 168.433 83.4411C169.935 83.362 169.856 85.5602 168.433 85.7317C154.624 87.4156 141.034 89.5654 128.002 94.6566C124.673 95.958 117.905 98.3145 114.738 99.9763C113.385 100.684 112.05 101.427 110.732 102.205C109.498 102.935 108.123 104.179 106.674 104.474C104.996 104.817 103.885 103.542 102.664 102.676C102.018 102.219 101.746 102.293 100.973 102.645C100.815 102.72 99.1543 103.779 99.2289 103.841C94.6566 100.086 90.9057 95.3336 88.3143 90.0095C87.8926 89.139 87.4929 88.1146 87.9014 87.2353C89.2542 87.4859 90.4269 88.2421 91.503 89.1302L91.4986 89.1346Z" fill="#4C1A18"/>
<path d="M183.274 122.363C183.568 121.444 184.477 121.088 185.369 121.066C186.744 121.031 188.312 121.691 188.944 122.913C189.467 123.216 189.827 123.827 189.827 124.434C189.827 125.322 189.146 126.061 188.325 126.307C186.876 126.747 184.785 125.7 183.858 124.601C183.34 123.986 183.015 123.168 183.274 122.363Z" fill="#352121"/>
<path d="M142.545 131.57C142.839 130.651 143.748 130.295 144.64 130.273C146.015 130.237 147.583 130.897 148.215 132.119C148.738 132.423 149.098 133.034 149.098 133.64C149.098 134.528 148.417 135.267 147.596 135.513C146.147 135.953 144.056 134.907 143.129 133.807C142.611 133.192 142.286 132.374 142.545 131.57Z" fill="#352121"/>
<path opacity="0.5" d="M107.715 108.158C120.944 137.826 134.652 171.846 133.589 201.9C133.55 203.026 131.872 203.026 131.845 201.9C131.099 169.283 119.784 137.861 107.065 108.281C106.691 107.415 107.328 107.283 107.719 108.158H107.715Z" fill="#3A1714"/>
<path opacity="0.5" d="M142.699 94.0675L148.962 99.629C148.962 99.629 145.171 105.551 143.45 105.028C141.732 104.505 139.712 101.344 140.169 100.93C140.625 100.517 138.473 99.972 138.126 98.2046C137.779 96.4416 142.699 94.0719 142.699 94.0719V94.0675Z" fill="#3A1714"/>
<path d="M141.223 76.2792C141.223 76.2792 148.316 82.342 149.247 89.8116C150.174 97.2857 148.65 101.572 150.28 103.841C151.909 106.109 153.126 107.916 153.126 107.916C153.126 107.916 146.858 111.091 145.158 110.132C143.463 109.174 140.705 103.353 141.425 97.7122C142.15 92.0714 142.303 89.0203 139.435 85.38C136.567 81.7397 133.172 79.8184 133.238 78.5126C133.304 77.2069 141.218 76.2792 141.218 76.2792H141.223Z" fill="#352121"/>
<path d="M149.498 98.9827C149.573 98.9827 149.638 98.8728 149.665 98.7849C149.928 97.844 150.183 96.9428 150.372 95.9843C150.609 94.7621 151.791 91.1877 150.064 90.6558C149.616 90.5195 149.138 90.5854 148.677 90.6646C146.994 90.9503 145.338 91.3724 143.726 91.9264C142.822 92.2385 141.091 92.7837 140.507 93.597C140.446 93.6806 140.419 93.7861 140.397 93.8828C140.248 94.5379 140.309 95.2589 140.349 95.9228C140.402 96.7713 140.494 97.6198 140.617 98.464C140.665 98.7981 140.718 99.1278 140.788 99.462C140.814 99.5939 140.907 100.253 141.148 100.091C141.205 100.051 141.227 99.9763 141.24 99.9104C141.579 98.4552 141.807 96.9647 142.365 95.5842C142.734 94.6786 143.95 94.3532 144.811 94.1334C145.193 94.0367 145.58 93.9356 145.962 93.8388C146.603 93.6762 147.245 93.5091 147.895 93.3904C148.417 93.2937 149.16 93.0607 149.392 93.7333C149.467 93.9487 149.458 94.1818 149.45 94.4104C149.388 95.9272 149.392 97.4528 149.458 98.9696C149.476 98.9783 149.489 98.9827 149.507 98.9827H149.498Z" fill="#DEA34D"/>
<path d="M145.47 99.2685C145.677 98.1474 145.747 97.0175 145.804 95.8788C145.852 94.8281 147.35 94.9512 147.403 95.9624C147.469 97.1802 147.302 98.376 147.069 99.5719C146.893 100.469 145.303 100.183 145.47 99.2729V99.2685Z" fill="#DEA34D"/>
<path d="M136.005 78.6138C137.024 78.7545 138.03 78.9435 139.031 79.1633C139.409 78.5478 139.848 77.9675 140.353 77.4355C141.012 76.7365 141.992 77.7608 141.394 78.4775C141.109 78.8204 140.854 79.1809 140.626 79.5502C141.535 79.792 142.44 80.0514 143.336 80.3592C144.21 80.6581 143.854 82.0255 142.949 81.7617C141.939 81.4627 140.92 81.2033 139.896 80.9703C139.664 81.5286 139.475 82.109 139.33 82.7113C139.088 83.7093 137.612 83.2828 137.806 82.2892C137.92 81.7133 138.091 81.1593 138.306 80.6274C137.406 80.4471 136.444 79.9283 135.535 79.792C134.529 79.6382 135.021 78.4819 136.014 78.6182L136.005 78.6138Z" fill="#842A2E"/>
<path d="M86.4738 73.2105C86.4738 73.2105 90.6333 74.7448 92.825 75.1845C95.0167 75.6241 117.79 76.9387 120.856 80.0075C123.922 83.0762 111.659 84.8304 110.785 84.8304C109.911 84.8304 108.593 80.4471 107.28 80.8868C106.533 81.1374 105.778 81.3616 105.022 81.5858C104.113 81.854 103.142 82.2365 102.198 82.2892C99.7778 82.4255 97.3709 83.0586 94.9332 83.2213C92.7767 83.3664 90.6157 83.3224 88.4591 83.3928C86.8472 83.4455 85.2484 83.5159 83.6321 83.5159C83.1094 83.5159 82.7141 82.6102 82.5604 82.2277C82.2134 81.3748 82.1124 80.39 82.4066 79.5063C82.5779 79.0007 82.8898 78.4599 83.329 78.1433C83.8473 77.7609 83.9922 77.2553 83.9835 76.6397C83.9747 76.0198 83.9264 75.5142 84.2909 74.9691C85.165 73.6545 86.4826 73.2149 86.4826 73.2149L86.4738 73.2105Z" fill="#352121"/>
<path d="M106.265 67.3631C108.584 65.8595 118.076 64.4966 121.954 64.8835C126.333 65.3232 133.778 68.8272 133.778 68.8272C133.778 68.8272 135.97 69.7021 139.035 69.7021C142.101 69.7021 152.612 74.0854 152.612 75.3999C152.612 76.7145 147.794 77.5938 145.606 77.5938C143.419 77.5938 138.601 72.7708 137.722 72.3312C136.848 71.8915 134.656 72.3312 133.343 71.8915C132.03 71.4519 124.585 69.2624 118.454 69.6977C112.322 70.1373 106.34 70.1285 106.34 70.1285C106.34 70.1285 106.314 70.1109 106.27 70.0802C106.34 69.1657 106.335 68.26 106.27 67.3587L106.265 67.3631Z" fill="#352121"/>
</g>
<defs>
<clipPath id="clip0_202_1488">
<rect width="222" height="476" fill="white" transform="matrix(-1 0 0 1 222 0)"/>
</clipPath>
</defs>
</svg>
