<svg width="236" height="318" viewBox="0 0 236 318" fill="none" xmlns="http://www.w3.org/2000/svg">
<g clip-path="url(#clip0_215_2)">
<path d="M140.233 68.9897L123.82 112.942C121.94 119.208 120.747 125.177 120.54 131.713L126.351 161.105L131.991 166.641L134.937 128.26L144.454 92.1606C146.632 85.1733 145.638 77.5819 141.734 71.3789L140.233 68.9987V68.9897Z" fill="#D18456"/>
<path d="M171.704 179.462C173.15 179.191 160.389 233.025 160.389 233.025L128.403 289.465L121.444 284.776L133.663 246.161C135.95 239.291 139.592 232.944 144.373 227.498C144.373 227.498 149.145 168.047 149.308 166.56C149.471 165.081 171.713 179.462 171.713 179.462H171.704Z" fill="#D18456"/>
<path d="M121.435 284.776L120.052 285.858C117.765 287.634 116.021 290.024 115.027 292.746C114.656 293.765 114.973 294.901 115.813 295.577L136.375 311.617L136.501 311.211C137.378 308.38 137.08 305.315 135.652 302.718L128.403 289.465L121.444 284.776H121.435Z" fill="#D18456"/>
<path d="M136.501 311.202C137.378 308.371 137.079 305.306 135.651 302.709L130.093 292.548C129.903 292.503 129.713 292.44 129.524 292.359C125.935 290.826 122.745 288.626 120.223 285.714L120.061 285.84C117.774 287.616 116.03 290.006 115.036 292.728C114.665 293.747 114.981 294.883 115.822 295.559L136.383 311.599L136.51 311.193L136.501 311.202Z" fill="#DBD9DA"/>
<path d="M115.361 291.953L113.472 295.046L135.163 311.932C135.651 312.311 136.365 312.194 136.7 311.671L137.369 310.625C137.658 310.174 137.558 309.579 137.134 309.246L115.361 291.953Z" fill="#1F1F1F"/>
<path d="M182.974 179.516C184.005 178.47 187.457 233.287 187.457 233.287L191.823 298.084L183.471 298.985L173.078 259.325C171.017 252.382 170.357 245.097 171.153 237.903C171.153 237.903 157.921 183.041 157.207 181.734C156.493 180.426 182.983 179.525 182.983 179.525L182.974 179.516Z" fill="#D18456"/>
<path d="M183.472 298.985L183.11 300.698C182.514 303.529 182.721 306.478 183.725 309.191C184.095 310.201 185.071 310.868 186.156 310.85L212.24 309.868L212.077 309.48C210.92 306.748 208.706 304.602 205.931 303.539L191.823 298.084L183.472 298.985Z" fill="#D18456"/>
<path d="M212.077 309.48C210.92 306.748 208.705 304.602 205.931 303.538L195.112 299.355C194.941 299.445 194.751 299.517 194.552 299.581C190.819 300.726 186.96 301.086 183.146 300.491L183.101 300.698C182.504 303.529 182.712 306.478 183.715 309.191C184.086 310.201 185.062 310.868 186.147 310.85L212.23 309.868L212.068 309.48H212.077Z" fill="#DBD9DA"/>
<path d="M183.472 308.38L183.779 311.968L211.155 310.914C211.996 310.877 212.655 310.165 212.61 309.327L212.592 308.858C212.556 308.028 211.851 307.388 211.019 307.415L183.472 308.371V308.38Z" fill="#1F1F1F"/>
<path d="M184.122 149.069C183.67 144.291 182.423 139.647 181.691 134.932C180.57 127.665 179.684 120.155 180.895 112.834C181.555 108.831 183.254 105.153 184.203 101.231C185.188 97.1734 185.098 92.8999 184.384 88.8067C183.806 85.4798 182.82 82.2341 181.709 79.0515C180.814 76.5 180.199 72.6592 178.41 70.6126C177.931 70.0716 177.398 69.5758 176.91 69.0438C175.979 68.016 175.111 67.0152 173.882 66.33C171.839 65.185 169.444 64.8424 167.194 64.3105C159.909 62.5884 143.939 62.7056 138.146 68.593C133.654 73.1641 136.23 79.367 136.338 85.5339C136.636 103.205 150.654 118.559 146.596 136.591C145.71 140.522 144.192 144.291 143.279 148.212C143.044 149.213 142.864 150.295 143.279 151.242C144.057 153 146.379 153.315 148.304 153.379C157.234 153.658 166.163 153.929 175.084 154.208C176.648 154.253 178.265 154.28 179.775 153.811C180.443 153.604 181.022 153.216 181.691 153.036C182.676 152.775 183.507 152.396 183.95 151.332C184.239 150.629 184.194 149.835 184.122 149.069Z" fill="#DA0C16"/>
<path d="M181.691 134.932C181.393 133.003 181.112 131.055 180.886 129.108C178.22 129.685 175.5 130.054 172.906 130.352C169.155 130.785 165.377 130.992 161.599 131.109C156.746 131.263 152.091 130.343 147.328 129.739C147.337 131.984 147.12 134.274 146.596 136.6C145.711 140.531 144.192 144.3 143.279 148.221C143.044 149.222 142.864 150.304 143.279 151.251C144.057 153.009 146.379 153.324 148.304 153.388C157.234 153.667 166.164 153.938 175.084 154.217C176.648 154.262 178.265 154.289 179.775 153.82C180.444 153.613 181.022 153.225 181.691 153.045C182.676 152.784 183.507 152.405 183.95 151.341C184.24 150.638 184.194 149.844 184.122 149.078C183.67 144.3 182.423 139.656 181.691 134.941V134.932Z" fill="#AB8465"/>
<path d="M175.373 36.4603C175.328 31.4655 174.153 26.5428 170.854 23.1889C168.875 21.1784 166.263 19.9792 163.443 19.853C160.28 19.7088 157.162 20.6194 154.351 22.0168C151.703 23.3332 149.091 25.0011 147.663 27.6788C146.289 30.2393 146.425 33.3138 146.768 36.1087C147.139 39.093 147.663 42.0592 148.522 44.9443C149.706 48.9293 151.938 52.7611 155.101 55.5019C157.596 57.6657 161.292 59.532 164.745 59.1894C170.177 58.6575 172.572 52.2382 173.81 47.7663C174.723 44.4755 175.41 40.4454 175.373 36.4603Z" fill="#D18456"/>
<path d="M177.515 26.5789C178.32 30.1943 177.425 34.0891 175.473 37.2447C174.976 38.0471 174.298 38.6422 173.909 39.4987C173.53 40.3372 173.168 41.1847 172.87 42.0502C172.282 43.7452 171.921 45.5574 172.201 47.3515C172.553 49.5965 173.864 51.58 174.488 53.7618C175.156 56.115 174.994 58.7026 174.027 60.9475C172.083 65.4645 167.149 68.4938 166.236 73.3264C165.793 75.6615 166.39 78.0507 166.552 80.4129C166.715 82.784 166.308 85.4528 164.437 86.9133C161.825 88.9599 157.74 87.6797 154.956 89.4829C152.634 90.9795 151.983 94.09 150.058 96.0645C148.015 98.1652 144.834 98.6971 141.906 98.5438C139.438 98.4176 136.962 97.8586 134.82 96.6415C132.678 95.4244 130.888 93.4859 130.138 91.1418C129.587 89.4288 129.081 88.2206 127.924 86.7781C126.821 85.3987 125.601 84.0733 124.851 82.4595C123.423 79.3941 124.065 75.6795 125.935 72.9387C127.96 69.9905 131.62 68.7283 133.979 66.0866C135.678 64.1842 136.501 61.5155 136.203 59.0001C136.031 57.5125 135.669 56.133 136.085 54.6364C136.926 51.58 140.387 49.9391 141.68 47.045C142.593 44.9984 142.421 42.2846 141.833 40.1659C141.535 39.0749 141.49 37.8398 141.363 36.7038C141.228 35.4866 141.137 34.2604 141.192 33.0343C141.228 32.0425 141.363 31.0598 141.607 30.0951C143.325 23.3692 149.705 18.5006 156.448 17.5269C160.668 16.9229 165.088 17.7884 168.757 19.9522C169.86 20.6013 171.116 21.4488 172.318 22.107C173.43 22.7201 175.545 23.0447 176.458 23.8471C176.639 24.0094 176.747 24.2257 176.837 24.4511C177.136 25.1363 177.362 25.8486 177.524 26.5699L177.515 26.5789Z" fill="#3D2E09"/>
<path d="M112.396 279.484C115.036 280.106 119.762 265.077 120.377 263.337C124.968 250.318 128.556 236.523 130.174 222.801C131.72 209.656 132.081 196.412 133.455 183.257C134.44 173.908 136.094 164.621 138.399 155.506C140.233 148.258 143.225 142.145 146.397 135.41L181.953 136.068C182.54 138.277 183.128 140.486 183.724 142.695C186.029 151.323 189.581 159.807 191.488 168.453C191.994 170.734 192.482 173.015 192.961 175.296C194.019 180.363 195.022 185.448 195.962 190.542C196.893 195.636 197.769 200.739 198.565 205.851C199.36 210.963 200.092 216.084 200.752 221.214C201.412 226.344 201.99 231.483 202.487 236.631C202.993 241.78 203.418 246.937 203.752 252.094C204.096 257.26 204.358 262.435 204.53 267.601C204.62 270.189 204.683 272.785 204.72 275.373C204.738 276.671 204.756 277.969 204.765 279.259C204.774 280.8 205.072 282.306 205.054 283.83C205.054 284.488 205.027 285.137 205.009 285.795C204.936 288.392 204.783 290.997 204.557 293.585C204.43 295.018 204.241 296.587 202.876 297.39C201.647 298.111 200.047 298.156 198.664 298.345C196.124 298.688 193.594 299.13 191.036 299.355C189.888 299.454 188.74 299.508 187.584 299.481C182.45 299.346 177.398 297.561 172.282 298.003C169.065 298.282 165.938 299.463 163.335 301.375C163.552 299.265 163.768 297.155 163.985 295.046C164.256 292.404 164.528 289.771 164.799 287.13C164.934 285.813 165.07 284.488 165.205 283.172C165.26 282.595 165.35 282.036 165.44 281.477C165.54 280.827 165.44 280.097 165.44 279.439C165.431 278.673 165.413 277.906 165.395 277.14C165.359 275.607 165.314 274.084 165.26 272.551C165.025 265.32 165.431 257.99 165.332 250.723C165.106 235.378 163.868 219.97 164.067 204.634C163.786 226.966 163.624 250.137 159.213 272.109C157.84 278.988 155.914 285.777 153.149 292.233C152.471 293.81 151.838 295.55 150.898 296.993C150.202 298.057 149.127 298.562 147.871 298.282C144.834 297.606 143.234 294.414 140.514 293.188C137.884 291.998 134.82 292.169 132.154 291.07C129.587 290.015 127.644 287.896 125.529 286.093C121.76 282.892 117.214 280.593 112.396 279.457V279.484Z" fill="#B18B6C"/>
<path d="M196.269 137.52C195.998 136.834 195.673 136.167 195.302 135.527C191.759 129.468 183.227 128.765 176.874 129.559C172.87 130.063 168.866 131.894 166.615 135.23C163.434 139.954 164.383 146.076 165.251 151.332C166.073 156.3 169.092 161.7 173.837 163.828C176.033 164.811 178.446 165.225 180.841 165.406C192.292 166.262 197.797 157.219 197.724 146.743C197.706 143.614 197.399 140.405 196.251 137.52H196.269Z" fill="#823F20"/>
<path d="M128.927 158.428L125.384 162.115C124.688 162.963 124.2 163.972 123.974 165.045L123.224 171.266L121.832 173.836L121.57 175.224C121.48 175.729 122.13 175.999 122.438 175.594L124.941 171.987L125.773 169.03L124.986 172.871L122.862 176.721L122.546 178.19C122.501 178.695 123.152 178.939 123.45 178.533L126.432 174.873C126.432 174.873 127.418 170.049 127.49 169.986L125.728 175.918L124.028 178.894L123.676 180.958C123.622 181.391 124.191 181.607 124.444 181.256L127.942 176.865L129.243 172.483L128.213 175.531L126.559 178.731L126.432 180.733C126.405 181.166 126.993 181.328 127.183 180.94L130.536 176.018L132.154 170.247L132.217 162.854L132.786 156.065L131.277 153.694L128.927 158.446V158.428Z" fill="#D18456"/>
<path d="M171.432 72.9567C171.432 72.9567 170.095 90.0238 171.451 95.0817L175.382 113.582C176.819 120.525 178.473 125.078 183.137 130.316L212.854 150.692L216.722 145.931L190.955 113.195L184.971 82.5947C183.878 77.645 182.061 73.8763 180.046 71.0363C176.684 66.2849 171.405 67.0964 171.414 72.9567H171.432Z" fill="#D18456"/>
<path d="M211.1 148.627L214.435 153.37C215.231 154.334 216.252 155.083 217.4 155.569L224.178 157.76L226.745 159.87L228.236 160.465C228.778 160.672 229.23 160.014 228.833 159.582L225.353 156.011L222.235 154.442L226.356 156.146L230.188 159.347L231.761 160.014C232.312 160.177 232.728 159.509 232.339 159.086L228.905 154.974C228.905 154.974 223.735 152.829 223.681 152.738L229.917 155.984L232.864 158.518L235.096 159.356C235.566 159.509 235.937 158.932 235.593 158.572L231.445 153.73L226.835 151.332L230.008 153.144L233.216 155.678L235.421 156.255C235.9 156.381 236.208 155.768 235.819 155.461L231.047 150.665L224.964 147.608L216.731 145.922L210.657 140.874L206.31 144.967L211.109 148.609L211.1 148.627Z" fill="#D18456"/>
<path d="M171.605 34.9456C172.861 33.4761 173.982 31.4565 173.322 29.473C173.259 29.2656 172.933 29.3558 172.996 29.5632C173.602 31.3754 172.599 33.2326 171.451 34.603C170.348 35.9284 168.975 37.0464 168.062 38.525C167.601 39.2733 167.303 40.0937 167.185 40.9593C167.068 41.8608 167.14 42.7805 167.312 43.673C167.673 45.5844 168.432 47.3966 168.794 49.317C169.21 51.5169 168.975 53.8159 168.143 55.8896C168.062 56.0879 168.387 56.1781 168.468 55.9798C169.21 54.1315 169.49 52.1029 169.255 50.1194C169.029 48.181 168.297 46.3508 167.827 44.4664C167.601 43.5468 167.429 42.6092 167.456 41.6535C167.483 40.7158 167.727 39.8052 168.179 38.9758C169.038 37.416 170.448 36.28 171.587 34.9456H171.605Z" fill="#1F1F1F"/>
<path d="M162.919 50.2997C160.036 52.5717 159.557 56.6109 159.693 60.0369C159.783 62.2368 160.063 64.4277 159.964 66.6275C159.909 67.7365 159.765 68.8364 159.439 69.9003C159.132 70.8921 158.671 71.8207 158.075 72.6772C156.791 74.5435 154.993 76.0041 153.158 77.3204C152.986 77.4466 153.158 77.7351 153.33 77.6089C154.966 76.4368 156.556 75.1566 157.813 73.5788C158.427 72.8124 158.951 71.983 159.349 71.0814C159.783 70.0806 160.045 69.0258 160.181 67.9529C160.705 63.8597 159.494 59.7304 160.307 55.6462C160.696 53.6807 161.545 51.7964 163.154 50.5251C163.326 50.3899 163.082 50.1555 162.919 50.2907V50.2997Z" fill="#1F1F1F"/>
<path d="M164.157 64.3916C161.473 67.2136 161.554 71.3699 161.536 74.9943C161.527 76.9868 161.464 79.0064 160.831 80.9087C160.307 82.4865 159.394 84.0192 157.984 84.9569C156.158 86.174 153.863 86.183 151.757 85.9937C151.54 85.9757 151.54 86.3093 151.757 86.3273C153.646 86.4986 155.652 86.5076 157.406 85.6691C158.96 84.9298 160.081 83.5504 160.768 82.0087C162.449 78.2581 161.545 74.1017 162.069 70.1528C162.331 68.1512 162.982 66.1227 164.401 64.626C164.546 64.4727 164.311 64.2293 164.166 64.3916H164.157Z" fill="#1F1F1F"/>
<path d="M154.233 68.1602C153.302 70.6126 152.453 73.0919 151.693 75.5984C150.952 78.0597 150.365 80.5661 149.66 83.0365C149.018 85.2995 148.196 87.5354 146.813 89.4558C145.611 91.1418 143.957 92.6114 141.951 93.2335C139.799 93.9007 137.269 93.6392 135.552 92.0885C135.389 91.9442 135.154 92.1786 135.317 92.3229C136.853 93.7113 139.004 94.1351 141.011 93.8015C143.134 93.4499 144.969 92.1966 146.352 90.5828C147.879 88.8067 148.856 86.6609 149.579 84.461C150.392 81.9546 150.943 79.376 151.675 76.8426C152.516 73.9304 153.483 71.0634 154.559 68.2324C154.64 68.034 154.314 67.9439 154.233 68.1422V68.1602Z" fill="#1F1F1F"/>
<path d="M148.277 58.5403C146.045 62.2548 144.798 66.5103 144.68 70.838C144.617 73.119 144.807 75.409 144.59 77.6901C144.391 79.7096 143.794 81.63 142.683 83.334C141.535 85.0741 139.935 86.5076 138.064 87.4272C137.875 87.5264 138.037 87.8149 138.236 87.7157C141.661 86.0298 144.102 82.7119 144.761 78.9703C145.159 76.6983 145.015 74.3902 145.015 72.1002C145.015 69.8733 145.222 67.6644 145.765 65.5006C146.361 63.1113 147.319 60.8213 148.585 58.7116C148.693 58.5222 148.404 58.36 148.295 58.5403H148.277Z" fill="#1F1F1F"/>
<path d="M147.843 48.0277C146.641 48.9473 145.457 49.903 144.3 50.8858C143.74 51.3636 143.18 51.8324 142.656 52.3373C142.186 52.7881 141.761 53.293 141.481 53.879C141.191 54.5011 141.074 55.1864 140.993 55.8716C140.902 56.6469 140.83 57.4133 140.749 58.1887C140.577 59.7845 140.414 61.3803 140.242 62.9761C140.089 64.4277 140.016 65.9333 139.601 67.3398C139.248 68.5479 138.57 69.5577 137.667 70.4142C135.976 72.01 133.789 73.0198 132.28 74.823C130.698 76.7073 130.002 79.2588 130.373 81.6841C130.418 81.9816 130.481 82.2792 130.563 82.5677C130.617 82.775 130.942 82.6849 130.888 82.4775C130.246 80.0973 130.743 77.4737 132.19 75.4812C133.554 73.5878 135.714 72.5239 137.459 71.0453C138.317 70.315 139.086 69.4585 139.556 68.4307C140.125 67.1865 140.279 65.8071 140.423 64.4637C140.586 62.904 140.749 61.3352 140.911 59.7755C140.993 59.0001 141.074 58.2247 141.155 57.4493C141.237 56.71 141.282 55.9527 141.417 55.2224C141.544 54.5282 141.788 53.8881 142.213 53.3201C142.61 52.7881 143.116 52.3463 143.623 51.9136C144.752 50.9218 145.909 49.9661 147.093 49.0375C147.4 48.7941 147.708 48.5597 148.015 48.3252C148.187 48.199 148.015 47.9015 147.843 48.0367V48.0277Z" fill="#1F1F1F"/>
<path d="M159.322 35.3874C156.855 38.1283 154.125 41.2838 154.062 45.1697C154.026 47.3425 154.794 49.4072 155.056 51.5439C155.282 53.4012 155.11 55.2855 154.577 57.0797C153.971 59.1083 152.896 61.0016 151.441 62.5433C151.296 62.6966 151.531 62.94 151.676 62.7777C154.225 60.073 155.625 56.3314 155.481 52.6078C155.399 50.4981 154.685 48.4875 154.46 46.3959C154.351 45.3771 154.387 44.3583 154.631 43.3665C154.848 42.4649 155.201 41.6084 155.634 40.797C156.665 38.8766 158.111 37.2267 159.557 35.6218C159.702 35.4596 159.467 35.2251 159.322 35.3874Z" fill="#1F1F1F"/>
<path d="M157.957 22.3504C155.49 23.252 153.348 24.9741 151.92 27.183C150.311 29.6804 149.814 32.6736 149.805 35.5948C149.805 37.3349 149.949 39.0749 150.103 40.806C150.121 41.0224 150.455 41.0224 150.437 40.806C150.166 37.8578 149.904 34.8375 150.455 31.9073C150.718 30.5098 151.169 29.1394 151.874 27.9042C152.507 26.7863 153.339 25.7765 154.297 24.929C155.39 23.9553 156.665 23.1889 158.038 22.684C158.237 22.6119 158.156 22.2873 157.948 22.3594L157.957 22.3504Z" fill="#1F1F1F"/>
<path d="M167.89 27.4174C165.495 28.4993 164.039 30.9155 163.271 33.3318C162.34 36.271 162.223 39.4085 161.192 42.3207C160.668 43.7903 159.909 45.1967 158.77 46.2877C158.617 46.4409 158.852 46.6753 159.005 46.5221C161.039 44.5656 161.852 41.7527 162.376 39.0659C162.937 36.1628 163.271 33.1064 164.907 30.5639C165.684 29.3468 166.733 28.3099 168.061 27.7149C168.26 27.6247 168.088 27.3362 167.89 27.4264V27.4174Z" fill="#1F1F1F"/>
<path d="M172.282 66.1226C167.917 67.5472 166.48 72.4428 165.702 76.4909C164.663 81.9546 164.681 87.6076 164.6 93.1433C164.419 105.053 164.844 116.963 165.196 128.864C165.296 132.281 165.413 135.698 165.54 139.115C165.666 142.307 165.784 145.805 166.615 148.907C166.796 149.592 167.926 149.655 168.07 148.907C169.083 143.723 168.378 138.061 168.097 132.831C167.799 127.323 167.465 121.805 167.248 116.296C166.805 105.279 166.507 94.1711 167.148 83.1627C167.32 80.2055 167.655 77.2573 168.441 74.3993C169.119 71.9469 170.248 69.0709 172.815 68.0521C173.981 67.5832 173.538 65.7169 172.282 66.1226Z" fill="#823F20"/>
<path d="M189.256 163.774C186.454 164.459 183.471 165.171 180.633 164.252C179.386 163.846 178.301 163.125 177.479 162.106C176.666 161.105 176.123 159.897 175.69 158.689C174.677 155.903 174.008 152.973 173.656 150.025C173.322 147.248 173.502 144.291 172.391 141.676C171.523 139.62 169.453 137.691 167.085 137.844C166.805 137.862 166.534 137.907 166.263 137.979C166.055 138.034 166.145 138.358 166.353 138.304C168.739 137.646 171.044 139.53 171.993 141.586C172.589 142.875 172.824 144.291 172.96 145.697C173.105 147.14 173.159 148.591 173.331 150.034C173.683 152.964 174.334 155.876 175.328 158.662C175.753 159.852 176.268 161.033 177.027 162.052C177.777 163.071 178.762 163.855 179.928 164.342C182.585 165.46 185.532 165 188.252 164.369C188.623 164.279 188.993 164.189 189.364 164.099C189.572 164.044 189.481 163.729 189.274 163.774H189.256Z" fill="#1F1F1F"/>
<path d="M168.803 161.24C167.827 158.716 166.851 156.192 165.875 153.676C165.811 153.514 165.513 153.541 165.549 153.739C165.549 153.757 165.549 153.766 165.549 153.784C165.531 153.766 165.513 153.739 165.495 153.703C165.486 153.613 165.468 153.514 165.459 153.424C165.441 153.297 165.332 153.252 165.242 153.279C165.215 153.234 165.179 153.18 165.151 153.135C164.157 149.403 164.338 145.381 165.658 141.748C166.082 140.585 166.616 139.467 167.257 138.412C167.366 138.232 167.068 138.079 166.959 138.259C164.609 142.1 163.714 146.779 164.401 151.224C164.456 151.584 164.528 151.945 164.6 152.306C164.546 152.324 164.51 152.36 164.501 152.423C164.501 152.441 164.501 152.45 164.501 152.468C164.501 152.486 164.501 152.504 164.501 152.522C164.501 152.648 164.501 152.775 164.501 152.892C164.51 155.867 164.528 158.842 164.537 161.817C164.537 162.034 164.871 162.016 164.871 161.799C164.853 160.258 164.971 158.725 165.224 157.21C165.269 158.833 165.305 160.456 165.35 162.079C165.35 162.259 165.667 162.295 165.685 162.106C165.685 162.088 165.685 162.079 165.685 162.061C165.793 160.853 165.856 159.636 165.875 158.427C166.109 159.771 166.372 161.105 166.67 162.431C166.715 162.611 167.031 162.557 166.995 162.367C166.607 160.24 166.218 158.112 165.829 155.984C165.829 155.939 165.829 155.894 165.829 155.849C165.992 156.309 166.137 156.769 166.29 157.228C166.652 158.797 167.049 160.366 167.492 161.917C167.556 162.133 167.854 162.016 167.809 161.808C167.574 160.636 167.293 159.473 166.968 158.328C167.456 159.365 167.962 160.384 168.496 161.394C168.586 161.565 168.866 161.43 168.794 161.249L168.803 161.24ZM166.39 156.146C166.579 156.57 166.751 156.994 166.923 157.427C166.76 157.066 166.598 156.696 166.435 156.327C166.417 156.264 166.408 156.201 166.39 156.146ZM164.871 157.355C164.871 156.282 164.871 155.209 164.862 154.145C164.953 154.316 165.052 154.488 165.17 154.641C165.17 154.983 165.188 155.326 165.197 155.66C165.07 156.219 164.962 156.787 164.871 157.355Z" fill="#1F1F1F"/>
<path d="M175.283 164.658C173.493 162.205 172.02 159.518 170.926 156.687C169.824 153.847 169.092 150.863 168.766 147.834C168.585 146.139 168.522 144.435 168.585 142.731C168.585 142.514 168.26 142.514 168.251 142.731C168.134 145.796 168.423 148.862 169.101 151.855C169.779 154.83 170.845 157.715 172.255 160.42C173.059 161.953 173.972 163.422 174.993 164.82C175.12 164.991 175.409 164.82 175.283 164.648V164.658Z" fill="#1F1F1F"/>
<path d="M166.941 114.854C166.697 109.715 166.543 104.575 166.579 99.4364C166.597 96.5513 166.679 93.6572 166.832 90.7721C166.841 90.5558 166.507 90.5558 166.498 90.7721C166.227 95.9022 166.191 101.05 166.299 106.189C166.408 111.328 166.67 116.467 166.977 121.607C167.149 124.492 167.338 127.377 167.528 130.262C167.546 130.478 167.881 130.478 167.863 130.262C167.519 125.132 167.185 119.993 166.941 114.854Z" fill="#1F1F1F"/>
<path d="M175.283 67.5742C173.286 70.0446 172.12 73.0288 171.469 76.1123C170.809 79.2859 170.655 82.5496 170.61 85.7863C170.574 88.0043 170.583 90.2312 170.61 92.4491C170.61 92.6655 170.945 92.6655 170.945 92.4491C170.899 88.8608 170.863 85.2544 171.098 81.6751C171.306 78.5195 171.767 75.3279 172.915 72.3617C173.557 70.7208 174.415 69.17 175.518 67.7996C175.653 67.6373 175.418 67.3939 175.283 67.5652V67.5742Z" fill="#1F1F1F"/>
<path d="M186.038 131.903C182.712 130.631 180.516 127.629 178.889 124.618C178.383 123.671 177.913 122.706 177.443 121.742C177.352 121.552 177.063 121.715 177.154 121.913C178.753 125.195 180.443 128.612 183.444 130.848C184.212 131.425 185.053 131.894 185.947 132.236C186.146 132.317 186.237 131.993 186.038 131.912V131.903Z" fill="#1F1F1F"/>
<path d="M216.144 145.327C214.182 143.605 212.357 141.739 210.694 139.738C208.977 137.673 207.458 135.464 206.066 133.165C205.334 131.957 204.611 130.731 203.852 129.541C203.102 128.368 202.325 127.214 201.52 126.087C199.911 123.815 198.203 121.616 196.486 119.425C194.823 117.315 193.214 115.115 191.235 113.285C190.991 113.059 190.747 112.843 190.494 112.636C190.331 112.5 190.087 112.735 190.259 112.87C192.32 114.601 193.955 116.747 195.609 118.848C197.345 121.057 199.071 123.265 200.716 125.537C202.361 127.809 203.861 130.163 205.307 132.561C206.699 134.869 208.163 137.114 209.844 139.215C211.471 141.252 213.261 143.155 215.186 144.913C215.421 145.129 215.665 145.345 215.909 145.553C216.071 145.697 216.306 145.463 216.144 145.318V145.327Z" fill="#1F1F1F"/>
<path d="M226.311 159.672C225.624 159.302 225.145 158.68 224.594 158.148C224.332 157.896 224.052 157.661 223.735 157.481C223.347 157.264 222.913 157.138 222.488 157.021C220.78 156.561 219.099 156.011 217.508 155.236C216.613 154.803 215.746 154.298 214.923 153.73C214.742 153.604 214.58 153.892 214.752 154.019C216.189 155.019 217.77 155.804 219.415 156.417C220.238 156.723 221.078 156.994 221.919 157.219C222.352 157.337 222.804 157.445 223.22 157.616C223.6 157.769 223.934 158.004 224.232 158.283C224.856 158.851 225.371 159.554 226.13 159.96C226.32 160.059 226.492 159.771 226.302 159.672H226.311Z" fill="#1F1F1F"/>
<path d="M231.725 159.203C231.165 159.167 230.595 159.131 230.098 158.869C229.682 158.644 229.339 158.319 229.005 157.986C228.661 157.634 228.336 157.273 227.965 156.949C227.568 156.597 227.134 156.282 226.673 156.002C226.492 155.894 226.32 156.183 226.501 156.291C226.998 156.588 227.459 156.94 227.893 157.337C228.264 157.679 228.589 158.058 228.95 158.418C229.285 158.752 229.664 159.059 230.098 159.257C230.613 159.482 231.174 159.527 231.725 159.554C231.942 159.563 231.942 159.23 231.725 159.221V159.203Z" fill="#1F1F1F"/>
<path d="M234.174 158.409C232.99 158.256 231.87 157.715 231.011 156.886C230.261 156.165 229.7 155.281 228.95 154.56C228.544 154.172 228.083 153.847 227.549 153.649C227.351 153.568 227.26 153.892 227.459 153.974C228.453 154.361 229.14 155.227 229.8 156.029C230.514 156.895 231.255 157.688 232.285 158.184C232.882 158.473 233.524 158.662 234.183 158.743C234.4 158.77 234.391 158.437 234.183 158.409H234.174Z" fill="#1F1F1F"/>
<path d="M234.726 156.083C234.192 155.696 233.496 155.732 232.945 155.38C232.439 155.065 232.132 154.515 231.824 154.019C231.499 153.487 231.137 152.982 230.667 152.567C230.179 152.125 229.619 151.783 229.005 151.53C228.806 151.449 228.715 151.774 228.914 151.855C229.529 152.107 230.098 152.477 230.577 152.937C231.038 153.379 231.354 153.911 231.689 154.451C231.987 154.929 232.321 155.416 232.819 155.705C233.361 156.02 234.039 156.002 234.545 156.372C234.717 156.498 234.888 156.21 234.717 156.083H234.726Z" fill="#1F1F1F"/>
<path d="M158.183 130.072C155.905 126.962 153.691 123.797 151.549 120.597C149.407 117.396 147.328 114.141 145.322 110.851C144.183 108.993 143.071 107.118 141.978 105.225C141.869 105.035 141.58 105.207 141.688 105.396C143.623 108.732 145.62 112.032 147.681 115.286C149.75 118.541 151.883 121.751 154.089 124.915C155.336 126.71 156.601 128.477 157.885 130.244C158.011 130.415 158.3 130.244 158.174 130.072H158.183Z" fill="#1F1F1F"/>
<path d="M160.171 123.554C158.617 121.21 157.098 118.848 155.607 116.458C154.125 114.069 152.679 111.662 151.26 109.228C150.465 107.857 149.678 106.478 148.901 105.089C148.793 104.9 148.503 105.071 148.612 105.261C149.986 107.713 151.386 110.156 152.833 112.564C154.279 114.98 155.752 117.369 157.27 119.74C158.129 121.075 158.996 122.409 159.873 123.734C159.991 123.915 160.28 123.743 160.162 123.563L160.171 123.554Z" fill="#1F1F1F"/>
<path d="M146.994 134.607C145.593 137.682 144.318 140.81 143.162 143.984C142.005 147.167 140.974 150.403 140.071 153.667C139.564 155.515 139.094 157.373 138.661 159.248C138.615 159.455 138.932 159.545 138.986 159.338C139.736 156.047 140.622 152.784 141.625 149.565C142.628 146.355 143.758 143.191 145.014 140.062C145.728 138.286 146.488 136.519 147.283 134.779C147.373 134.58 147.084 134.418 146.994 134.607Z" fill="#1F1F1F"/>
<path d="M152.905 138.043C148.711 146.319 145.891 155.2 143.966 164.252C142.023 173.403 140.975 182.716 140.234 192.039C139.429 202.101 138.959 212.189 138.028 222.242C137.098 232.34 135.606 242.357 133.076 252.184C130.572 261.885 127.273 271.361 123.893 280.782C123.468 281.981 123.034 283.172 122.601 284.371C122.492 284.677 122.98 284.803 123.089 284.506C126.46 275.129 129.84 265.735 132.533 256.133C135.236 246.504 137.007 236.704 138.083 226.768C139.167 216.778 139.664 206.744 140.387 196.718C141.065 187.197 141.951 177.667 143.686 168.273C145.394 159.05 147.925 149.926 151.848 141.378C152.327 140.342 152.824 139.314 153.339 138.304C153.483 138.015 153.05 137.763 152.905 138.052V138.043Z" fill="#D9C0A9"/>
<path d="M155.797 142.668C152.715 151.593 150.41 160.772 148.684 170.049C146.967 179.281 145.81 188.604 144.933 197.944C144.047 207.42 143.451 216.932 142.881 226.434C142.312 235.964 141.761 245.485 140.965 254.997C140.17 264.536 139.113 274.065 137.531 283.514C137.332 284.686 137.124 285.867 136.916 287.039C136.862 287.355 137.341 287.49 137.404 287.175C139.095 277.888 140.242 268.503 141.11 259.108C141.987 249.605 142.574 240.085 143.144 230.555C143.713 221.043 144.264 211.531 145.069 202.037C145.873 192.544 146.94 183.068 148.548 173.682C150.139 164.387 152.254 155.173 155.146 146.193C155.508 145.057 155.887 143.93 156.276 142.803C156.384 142.496 155.896 142.361 155.788 142.668H155.797Z" fill="#D9C0A9"/>
<path d="M160.063 152.143C157.008 160.519 154.785 169.183 153.176 177.947C151.585 186.638 150.591 195.438 149.922 204.246C149.235 213.334 148.901 222.449 148.63 231.556C148.349 240.95 148.133 250.336 147.654 259.721C147.175 269.107 146.424 278.492 145.087 287.797C144.915 288.969 144.743 290.141 144.554 291.313C144.499 291.628 144.987 291.764 145.042 291.448C146.515 282.252 147.382 272.975 147.943 263.679C148.503 254.348 148.756 244.998 149.027 235.658C149.289 226.489 149.561 217.31 150.157 208.15C150.745 199.152 151.63 190.173 153.112 181.274C154.568 172.528 156.592 163.864 159.43 155.452C159.792 154.388 160.162 153.325 160.551 152.261C160.659 151.954 160.171 151.828 160.063 152.125V152.143Z" fill="#D9C0A9"/>
<path d="M162.386 163.891C160.94 171.005 160.009 178.208 159.385 185.43C158.753 192.769 158.436 200.126 158.192 207.483C157.957 214.813 157.804 222.152 157.496 229.482C157.198 236.776 156.755 244.07 155.933 251.318C155.11 258.621 153.899 265.897 152.083 273.02C151.857 273.894 151.631 274.769 151.387 275.643C151.296 275.959 151.784 276.085 151.875 275.779C153.8 268.809 155.128 261.687 156.059 254.519C156.999 247.252 157.523 239.931 157.867 232.619C158.21 225.289 158.382 217.96 158.599 210.63C158.816 203.3 159.087 195.97 159.629 188.667C160.181 181.301 161.003 173.953 162.359 166.695C162.521 165.803 162.693 164.919 162.874 164.035C162.937 163.72 162.449 163.585 162.386 163.9V163.891Z" fill="#D9C0A9"/>
<path d="M171.171 268.241C171.026 260.424 170.339 252.626 169.706 244.836C169.065 236.938 168.604 229.031 168.351 221.106C168.098 213.181 167.962 205.247 167.664 197.322C167.375 189.37 166.923 181.418 166.028 173.502C165.919 172.519 165.802 171.537 165.675 170.554C165.639 170.238 165.133 170.229 165.169 170.554C167.158 186.296 167.284 202.182 167.745 218.014C167.971 225.912 168.333 233.8 168.947 241.68C169.553 249.479 170.294 257.269 170.574 265.095C170.89 273.84 170.601 282.631 168.902 291.241C168.839 291.556 169.327 291.692 169.39 291.376C170.899 283.767 171.306 275.995 171.162 268.25L171.171 268.241Z" fill="#D9C0A9"/>
<path d="M179.684 244.376C179.35 235.865 178.808 227.363 178.148 218.87C177.488 210.413 176.72 201.974 175.916 193.526C175.156 185.601 174.786 177.424 172.481 169.76C172.201 168.814 171.876 167.876 171.532 166.948C171.415 166.65 170.936 166.776 171.044 167.083C173.909 174.665 174.388 182.879 175.156 190.867C175.97 199.306 176.756 207.754 177.434 216.201C178.781 232.998 179.712 249.84 179.531 266.7C179.431 276.166 178.98 285.642 178.067 295.064C178.04 295.388 178.537 295.379 178.573 295.064C179.386 286.643 179.838 278.195 180.001 269.738C180.154 261.281 180.028 252.815 179.694 244.367L179.684 244.376Z" fill="#D9C0A9"/>
<path d="M188.306 244.926C188.053 236.902 187.538 228.887 186.652 220.908C185.767 212.902 184.393 204.977 183.001 197.052C181.401 187.973 179.811 178.894 178.211 169.815C178.157 169.499 177.669 169.634 177.723 169.95C179.151 178.055 180.57 186.16 181.998 194.266C183.399 202.245 184.863 210.206 185.839 218.248C187.782 234.206 188.162 250.3 187.972 266.357C187.864 275.454 187.574 284.551 187.285 293.648C187.276 293.973 187.782 293.973 187.791 293.648C188.306 277.41 188.822 261.164 188.306 244.917V244.926Z" fill="#D9C0A9"/>
<path d="M194.696 271.388C194.353 263.355 194.344 255.312 194.217 247.279C194.091 239.219 193.829 231.168 193.015 223.144C192.193 215.056 190.909 207.023 189.5 199.026C188.071 190.912 186.589 182.807 185.125 174.701L184.574 171.663C184.52 171.347 184.032 171.483 184.086 171.798C185.55 179.912 187.032 188.027 188.478 196.15C189.924 204.264 191.307 212.397 192.229 220.592C193.142 228.616 193.503 236.686 193.657 244.755C193.811 252.797 193.802 260.839 194.082 268.872C194.362 276.815 194.922 284.767 196.215 292.611C196.377 293.594 196.549 294.577 196.739 295.559C196.802 295.875 197.281 295.74 197.227 295.424C195.736 287.49 195.031 279.439 194.687 271.379L194.696 271.388Z" fill="#D9C0A9"/>
<path d="M163.814 222.296C163.443 226.678 163.073 231.06 162.702 235.441C162.332 239.823 161.961 244.205 161.59 248.587C161.247 252.59 160.949 256.602 160.497 260.596C160.072 264.437 159.494 268.268 158.572 272.019C157.659 275.724 156.394 279.358 154.604 282.739C154.387 283.154 154.152 283.568 153.917 283.974C153.755 284.253 154.188 284.506 154.351 284.226C156.258 280.918 157.65 277.338 158.662 273.669C159.683 269.936 160.325 266.113 160.804 262.282C161.292 258.333 161.609 254.357 161.943 250.39C162.314 245.99 162.693 241.581 163.064 237.181C163.443 232.755 163.814 228.337 164.193 223.91C164.239 223.369 164.284 222.828 164.329 222.287C164.356 221.963 163.85 221.963 163.823 222.287L163.814 222.296Z" fill="#1F1F1F"/>
<path d="M189.689 297.245C188.035 298.12 186.309 298.913 184.474 299.319C183.562 299.517 182.631 299.608 181.691 299.553C180.751 299.49 179.847 299.229 178.97 298.913C178.094 298.598 177.226 298.273 176.322 298.048C175.436 297.822 174.533 297.669 173.629 297.579C171.794 297.399 169.941 297.489 168.134 297.867C166.407 298.228 164.672 298.886 163.461 300.221C163.244 300.455 163.597 300.816 163.814 300.572C164.925 299.355 166.489 298.742 168.07 298.39C169.887 297.994 171.776 297.895 173.629 298.084C174.569 298.174 175.5 298.354 176.413 298.598C177.28 298.832 178.112 299.148 178.952 299.445C179.811 299.743 180.678 299.977 181.591 300.049C182.477 300.121 183.363 300.049 184.23 299.887C186.255 299.508 188.153 298.634 189.96 297.678C190.25 297.525 189.997 297.092 189.707 297.245H189.689Z" fill="#1F1F1F"/>
<path d="M134.332 288.455C131.412 288.806 128.412 288.148 125.908 286.607C123.323 285.011 121.633 282.405 119.247 280.566C117.982 279.592 116.536 278.853 114.918 278.7C114.593 278.673 114.602 279.168 114.918 279.205C118.027 279.493 120.205 282.036 122.221 284.127C123.242 285.182 124.308 286.201 125.556 286.985C126.776 287.752 128.122 288.32 129.514 288.662C131.087 289.05 132.714 289.158 134.322 288.96C134.639 288.924 134.648 288.419 134.322 288.455H134.332Z" fill="#1F1F1F"/>
<path d="M196.793 300.87C196.775 300.735 196.685 300.617 196.54 300.617C196.413 300.617 196.278 300.735 196.287 300.87C196.395 301.925 196.224 302.988 195.763 303.944C195.627 304.233 196.061 304.485 196.197 304.197C196.694 303.169 196.911 302.015 196.793 300.87Z" fill="#1F1F1F"/>
<path d="M198.303 300.753C198.303 302.186 198.041 303.602 197.543 304.954C197.435 305.26 197.923 305.387 198.031 305.089C198.538 303.701 198.8 302.231 198.809 300.753C198.809 300.428 198.312 300.428 198.303 300.753Z" fill="#1F1F1F"/>
<path d="M200.788 302.592C200.661 302.484 200.49 302.475 200.345 302.547C200.128 302.655 200.218 302.925 200.399 302.989C200.399 303.025 200.39 303.061 200.381 303.088C200.372 303.169 200.354 303.241 200.345 303.322C200.327 303.457 200.3 303.593 200.273 303.728C200.218 304.025 200.146 304.332 200.074 304.629C199.929 305.215 199.739 305.792 199.523 306.351C199.405 306.649 199.893 306.784 200.011 306.487C200.3 305.747 200.526 304.981 200.697 304.197C200.779 303.818 200.842 303.439 200.896 303.052C200.923 302.871 200.941 302.709 200.788 302.583V302.592Z" fill="#1F1F1F"/>
<path d="M131.186 295.145C131.15 295.027 131.006 294.919 130.879 294.973C130.011 295.334 129.153 295.704 128.285 296.064C128.159 296.118 128.068 296.227 128.113 296.371C128.15 296.488 128.294 296.596 128.421 296.542C129.288 296.182 130.147 295.812 131.015 295.451C131.141 295.397 131.231 295.289 131.186 295.145Z" fill="#1F1F1F"/>
<path d="M132.443 297.498C131.72 297.363 130.997 297.543 130.427 297.994C130.319 298.075 130.337 298.264 130.427 298.345C130.536 298.454 130.671 298.426 130.78 298.345C131.195 298.021 131.792 297.886 132.307 297.976C132.443 298.003 132.578 297.94 132.614 297.804C132.651 297.678 132.569 297.525 132.443 297.498Z" fill="#1F1F1F"/>
<path d="M134.25 299.508C133.274 299.571 132.38 300.085 131.819 300.879C131.738 300.987 131.801 301.158 131.91 301.221C132.036 301.293 132.172 301.239 132.253 301.131C132.705 300.491 133.464 300.067 134.25 300.013C134.386 300.004 134.503 299.905 134.503 299.761C134.503 299.635 134.386 299.499 134.25 299.508Z" fill="#1F1F1F"/>
<path d="M125.203 120.543C125.14 120.263 125.068 119.984 124.986 119.713C124.923 119.497 124.86 119.244 124.715 119.064C124.48 118.776 123.974 118.812 123.929 119.226C123.902 119.443 124.245 119.443 124.263 119.226C124.263 119.154 124.426 119.244 124.435 119.253C124.498 119.317 124.534 119.416 124.561 119.506C124.634 119.713 124.697 119.93 124.76 120.137C124.878 120.561 124.968 120.993 125.022 121.426C125.131 122.274 125.131 123.139 125.022 123.996C124.995 124.212 125.33 124.203 125.357 123.996C125.501 122.842 125.447 121.679 125.203 120.543Z" fill="#1F1F1F"/>
<path d="M139.782 107.19C138.489 111.788 137.405 116.44 136.546 121.138C136.302 122.472 136.076 123.806 135.859 125.15C135.823 125.357 136.148 125.447 136.185 125.24C136.926 120.525 137.884 115.836 139.059 111.211C139.393 109.895 139.746 108.588 140.107 107.28C140.161 107.073 139.845 106.983 139.782 107.19Z" fill="#1F1F1F"/>
<path d="M133.446 151.548C133.717 148.429 134.033 145.318 134.395 142.208C134.603 140.45 134.82 138.701 135.055 136.952C135.082 136.735 134.747 136.699 134.72 136.916C134.304 140.035 133.934 143.155 133.608 146.283C133.283 149.394 133.012 152.513 132.786 155.633C132.659 157.391 132.542 159.158 132.443 160.925C132.434 161.141 132.768 161.177 132.777 160.961C132.949 157.823 133.175 154.686 133.446 151.557V151.548Z" fill="#1F1F1F"/>
<path d="M163.687 135.347C163.235 135.536 162.747 135.59 162.259 135.608C161.735 135.626 161.22 135.617 160.696 135.617C159.638 135.617 158.59 135.626 157.532 135.635C156.484 135.635 155.436 135.635 154.396 135.518C153.384 135.41 152.39 135.184 151.414 134.887C150.329 134.562 149.263 134.157 148.205 133.751C148.006 133.67 147.916 133.994 148.115 134.076C150.049 134.815 152.001 135.554 154.071 135.816C155.128 135.951 156.186 135.969 157.252 135.969C158.346 135.969 159.439 135.96 160.533 135.951C161.627 135.951 162.829 136.068 163.859 135.635C164.058 135.554 163.886 135.266 163.687 135.347Z" fill="#D9C0A9"/>
<path d="M120.115 164.396C120.115 164.342 121.027 164.82 121.778 165.225C122.41 165.568 122.925 166.073 123.278 166.704L124.127 168.21C124.435 168.76 124.832 169.247 125.311 169.661L125.592 169.905C126.188 170.428 126.92 170.788 127.725 170.951L128.294 171.068C128.565 171.095 128.755 170.788 128.619 170.572L125.772 166.109L124.597 163.215C124.064 161.908 123.142 160.808 121.94 160.068L118.117 157.715L120.124 164.387L120.115 164.396Z" fill="#D18456"/>
<path d="M109.07 161.042C109.07 161.042 109.667 166.037 110.055 167.759C110.119 168.047 110.209 168.327 110.327 168.597L112.93 174.494L113.942 176.387C113.942 176.387 113.942 176.396 113.951 176.405L114.918 177.722C115.081 177.875 115.361 177.785 115.424 177.559L115.632 176.784C115.632 176.784 115.632 176.712 115.632 176.676L115.117 175.269C115.044 175.062 114.719 175.188 114.782 175.395C114.782 175.413 114.791 175.422 114.8 175.431L116.771 178.596L117.702 180.021C117.909 180.435 118.551 180.3 118.633 179.822L118.506 178.569C118.506 178.569 118.506 178.542 118.497 178.524C118.398 178.262 117.304 175.404 117.259 175.26C117.205 175.107 116.021 170.022 116.021 170.022L117.394 175.413L119.03 180.129C119.03 180.138 119.835 181.95 119.835 181.95C120.061 182.608 121.127 182.329 121.244 181.517L121.362 179.561C121.362 179.561 121.362 179.525 121.362 179.507L119.717 172.844C119.717 172.844 119.717 172.826 119.717 172.817L119.554 171.221C119.536 171.014 119.844 170.933 119.898 171.131L120.784 174.305C120.784 174.305 120.784 174.323 120.784 174.332L123.269 179.696C123.54 180.156 124.272 179.966 124.345 179.417C124.453 178.596 124.471 177.108 124.426 177.036C124.354 176.901 121.733 166.073 121.615 165.595C121.615 165.586 121.615 165.568 121.615 165.559L121.543 161.944C121.543 161.944 121.543 161.89 121.525 161.863L120.296 159.735C119.943 159.122 119.455 158.599 118.877 158.202L115.84 156.11C115.84 156.11 115.813 156.092 115.804 156.074L109.097 161.006L109.07 161.042Z" fill="#D18456"/>
<path d="M109.07 161.042C109.07 161.042 97.6914 141.433 95.9923 135.987L92.5127 124.681C91.5185 120.768 86.9272 92.2507 86.5747 86.7691L98.8302 78.6548L108.438 121.363L115.785 156.11L109.079 161.042H109.07Z" fill="#D18456"/>
<path d="M114.439 177.794C113.354 175.855 112.279 173.899 111.42 171.843C110.57 169.797 110.001 167.696 109.829 165.487C109.73 164.252 109.667 162.99 109.197 161.826C109.115 161.628 108.79 161.718 108.871 161.917C109.296 162.981 109.387 164.126 109.468 165.262C109.549 166.371 109.694 167.461 109.956 168.543C110.471 170.671 111.357 172.7 112.351 174.647C112.92 175.765 113.535 176.874 114.15 177.965C114.258 178.154 114.547 177.983 114.439 177.794Z" fill="#1F1F1F"/>
<path d="M117.955 180.084C117.015 178.641 116.057 177.172 115.46 175.54C114.864 173.917 114.629 172.195 114.339 170.491C114.177 169.535 113.987 168.579 113.716 167.642C113.653 167.434 113.327 167.525 113.39 167.732C113.878 169.409 114.077 171.14 114.403 172.853C114.565 173.7 114.764 174.548 115.044 175.368C115.325 176.189 115.695 176.973 116.12 177.731C116.599 178.587 117.132 179.417 117.665 180.237C117.783 180.417 118.072 180.246 117.955 180.066V180.084Z" fill="#1F1F1F"/>
<path d="M120.946 181.364C119.807 178.921 118.786 176.414 117.891 173.872C117.638 173.141 117.394 172.411 117.159 171.681C117.096 171.474 116.771 171.564 116.834 171.771C117.656 174.359 118.614 176.901 119.69 179.389C119.997 180.111 120.322 180.823 120.657 181.535C120.747 181.734 121.036 181.562 120.946 181.364Z" fill="#1F1F1F"/>
<path d="M122.664 169.283C122.239 170.094 121.805 170.906 121.38 171.717C121.172 172.114 120.964 172.519 120.747 172.916C120.558 173.259 120.359 173.61 120.088 173.89C119.961 174.016 119.771 174.178 119.573 174.115C119.374 174.052 119.292 173.818 119.292 173.628C119.292 173.403 119.374 173.187 119.446 172.979C119.518 172.763 119.591 172.555 119.663 172.339C119.934 171.51 120.16 170.671 120.359 169.815C120.576 168.859 120.747 167.894 120.883 166.92C120.91 166.704 120.576 166.713 120.549 166.92C120.287 168.868 119.844 170.797 119.211 172.664C119.075 173.078 118.868 173.538 119.03 173.971C119.148 174.268 119.428 174.494 119.762 174.449C120.16 174.395 120.431 174.034 120.648 173.736C120.91 173.367 121.118 172.952 121.326 172.555C121.868 171.528 122.41 170.491 122.953 169.463C123.052 169.274 122.763 169.102 122.664 169.292V169.283Z" fill="#1F1F1F"/>
<path d="M91.5095 295.009C91.374 294.856 91.2023 294.739 90.9944 294.658C90.7594 294.568 90.5063 294.532 90.2623 294.523C90.0635 294.514 89.8646 294.514 89.6568 294.523C89.2862 294.541 88.9156 294.577 88.5451 294.622C88.3101 294.649 88.3101 294.658 88.1565 294.532C88.0751 294.469 88.0932 294.387 87.9757 294.378C87.6413 294.351 87.3159 294.378 86.9905 294.414C86.9454 294.387 86.9002 294.369 86.8369 294.378C85.2914 294.523 83.7549 294.775 82.2456 295.118C81.857 295.118 81.4683 295.154 81.1159 295.334C80.8989 295.442 80.908 295.704 81.1159 295.821C81.1159 295.839 81.1159 295.848 81.1159 295.866C81.1159 299.265 81.4051 302.664 81.9835 306.018C82.0377 306.351 82.5619 306.288 82.5077 305.955C82.4716 305.747 82.4354 305.531 82.4083 305.324C82.4444 305.369 82.4896 305.423 82.5348 305.468C82.5529 305.522 82.589 305.567 82.6342 305.594C82.6342 305.639 82.6342 305.684 82.6433 305.729C82.6704 305.973 82.9415 306.009 83.0771 305.883C83.4205 306.063 83.8272 306.162 84.2972 306.144C86.0325 306.072 87.804 306.018 89.5121 305.711C89.711 305.675 89.9008 305.648 90.0996 305.612C90.7142 305.504 91.3107 305.369 91.9072 305.224C92.332 305.116 92.9014 305.044 93.1454 304.629C93.4256 304.143 93.281 303.421 93.1635 302.916C93.0279 302.321 92.802 301.744 92.6303 301.158C92.4405 300.518 92.2958 299.86 92.1874 299.202C92.088 298.598 92.0247 297.994 91.9795 297.39C91.9343 296.813 91.9795 296.182 91.8259 295.614C91.7626 295.388 91.6632 295.19 91.5186 295.028L91.5095 295.009Z" fill="white"/>
<path d="M105.79 314.312C105.943 314.312 106.097 314.312 106.251 314.312C108.04 314.312 109.875 313.88 111.619 313.537C112.496 313.366 113.363 313.158 114.213 312.915C114.376 312.87 114.547 312.843 114.719 312.798C114.855 312.762 114.954 312.762 115.035 312.645C115.216 312.392 115.207 312.031 115.171 311.743C114.936 310.075 113.725 308.66 112.288 307.776C110.616 306.748 108.519 306.306 106.639 305.756C105.03 305.288 103.413 304.873 101.795 304.449C99.9511 303.962 97.5379 303.737 96.0376 302.457C95.7936 302.249 95.6038 301.997 95.3959 301.762C94.8898 301.194 94.2662 300.735 93.4979 300.608C92.7387 300.482 92.0157 300.906 91.3288 301.248C89.3224 302.249 87.09 302.7 84.8576 302.799C83.9177 302.835 82.9958 302.763 82.0558 302.754C81.9203 302.754 81.7757 302.763 81.6491 302.826C81.4141 302.934 81.3057 303.169 81.2334 303.403C81.1701 303.62 81.0707 303.872 81.0345 304.097C80.9984 304.341 80.9713 304.593 80.9442 304.846C80.8809 305.342 80.8267 305.838 80.7724 306.333C80.664 307.325 80.5646 308.317 80.4742 309.318C80.3838 310.3 80.3025 311.292 80.2302 312.275C80.203 312.617 80.194 312.96 80.1669 313.294C80.1036 313.988 79.95 314.601 80.8899 314.574C82.7246 314.511 84.5594 314.457 86.3941 314.394C87.3069 314.367 88.2288 314.358 89.1507 314.303C89.9822 314.249 90.8227 314.024 91.6542 313.907C93.3352 313.681 94.9169 314.033 96.5889 314.204C97.565 314.303 98.5411 314.303 99.5172 314.294C99.7703 314.502 101.072 314.285 101.424 314.285C102.048 314.285 102.662 314.285 103.286 314.285C104.127 314.294 104.967 314.312 105.817 314.322L105.79 314.312Z" fill="#3D2E09"/>
<path d="M31.6602 171.933L19.3866 130.595C18.5099 123.103 19.025 118.622 21.8991 99.193H37.4625L34.1366 123.085L39.0894 165.397L31.6692 171.942L31.6602 171.933Z" fill="#D18456"/>
<path d="M42.316 178.515C42.334 178.452 43.1655 179.263 43.8524 179.93C44.4309 180.498 44.8376 181.211 45.0183 182.004L45.4612 183.906C45.6239 184.601 45.904 185.259 46.2836 185.854L46.5096 186.205C46.9976 186.963 47.6755 187.585 48.4889 188.018L49.0673 188.324C49.3475 188.432 49.6548 188.171 49.5735 187.882L47.8924 182.148L47.5309 178.641C47.3682 177.054 46.7084 175.576 45.6329 174.395L42.2256 170.635L42.3069 178.506L42.316 178.515Z" fill="#D18456"/>
<path d="M31.6601 171.933C31.6601 171.933 31.6058 171.996 31.5968 172.032C31.4612 172.61 30.449 177.018 30.3315 179.002C30.3134 179.335 30.3224 179.669 30.3676 179.994L31.3347 187.215L31.8318 189.586C31.8318 189.586 31.8318 189.604 31.8318 189.614L32.4735 191.345C32.6 191.561 32.9344 191.552 33.07 191.327L33.54 190.551C33.54 190.551 33.5671 190.479 33.5671 190.434L33.4496 188.748C33.4315 188.505 33.0429 188.532 33.0429 188.784C33.0429 188.802 33.0429 188.82 33.0429 188.829L34.1817 192.886L34.742 194.726C34.8324 195.239 35.5735 195.294 35.8175 194.807L36.0706 193.409C36.0706 193.409 36.0706 193.373 36.0706 193.364C36.0435 193.049 35.7543 189.605 35.7452 189.433C35.7362 189.253 36.0435 183.365 36.0435 183.365L35.8356 189.65L36.1248 195.285C36.1248 195.303 36.4321 197.511 36.4321 197.511C36.4683 198.296 37.7155 198.332 38.0951 197.484L38.8362 195.402C38.8362 195.402 38.8453 195.366 38.8453 195.348L39.1616 187.603C39.1616 187.603 39.1616 187.585 39.1616 187.576L39.487 185.791C39.5322 185.556 39.8937 185.565 39.8846 185.8L39.8485 189.523C39.8485 189.523 39.8485 189.541 39.8485 189.55L40.8607 196.15C41.0144 196.736 41.864 196.754 42.117 196.177C42.4966 195.321 42.9756 193.716 42.9576 193.626C42.9214 193.454 43.4818 180.886 43.5089 180.318C43.5089 180.3 43.5089 180.291 43.5089 180.282L44.5663 176.333C44.5663 176.333 44.5663 176.27 44.5663 176.243L43.9065 173.547C43.7167 172.772 43.3552 172.051 42.8491 171.437L40.21 168.21C40.21 168.21 40.1919 168.183 40.1829 168.165L39.0531 165.397C38.9989 165.271 38.8362 165.244 38.7278 165.343L31.633 171.942L31.6601 171.933Z" fill="#D18456"/>
<path d="M67.7213 134.932L63.365 154.064C61.6749 161.475 61.6116 169.165 63.1662 176.604L74.0298 235.153L76.687 303.313L99.4537 301.456L102.599 226.353L97.1581 165.271L91.3014 138.169L67.7213 134.932Z" fill="#02197E"/>
<path d="M20.6879 285.453C20.6608 285.254 20.5885 285.056 20.4619 284.876C20.3173 284.668 20.1275 284.497 19.9377 284.344C19.7841 284.217 19.6124 284.109 19.4406 284.001C19.1243 283.803 18.7989 283.631 18.4645 283.46C18.2567 283.352 18.2476 283.352 18.1934 283.163C18.1663 283.063 18.2205 283.009 18.1301 282.928C17.868 282.721 17.5878 282.549 17.2986 282.396C17.2806 282.351 17.2444 282.306 17.1992 282.279C15.8435 281.522 14.4336 280.864 12.9965 280.296C12.6802 280.07 12.3368 279.89 11.9391 279.836C11.6951 279.8 11.5505 280.016 11.6589 280.232C11.6589 280.25 11.6408 280.259 11.6318 280.268C9.69768 283.072 8.00757 286.03 6.57957 289.122C6.43496 289.429 6.90494 289.672 7.04051 289.366C7.13089 289.176 7.22127 288.978 7.31165 288.788C7.31165 288.852 7.32068 288.915 7.32972 288.978C7.31165 289.032 7.32068 289.095 7.32972 289.14C7.31165 289.176 7.28453 289.221 7.26646 289.257C7.14896 289.474 7.35684 289.654 7.5376 289.627C7.71836 289.97 7.9895 290.285 8.39621 290.529C9.8694 291.448 11.3516 292.413 12.9423 293.116C13.1231 293.197 13.3038 293.278 13.4846 293.36C14.045 293.621 14.6143 293.837 15.1928 294.063C15.6085 294.216 16.1146 294.478 16.5485 294.27C17.0546 294.036 17.3438 293.351 17.5427 292.864C17.7686 292.296 17.9132 291.692 18.103 291.115C18.3109 290.474 18.5639 289.861 18.8532 289.257C19.1153 288.707 19.4045 288.166 19.7118 287.643C20.001 287.139 20.3987 286.643 20.5885 286.093C20.6698 285.876 20.6969 285.651 20.6698 285.435L20.6879 285.453Z" fill="white"/>
<path d="M21.5012 309.426C21.6278 309.516 21.7543 309.597 21.8808 309.687C23.354 310.688 25.1074 311.382 26.7433 312.077C27.5657 312.428 28.3882 312.744 29.2377 313.032C29.4004 313.086 29.5541 313.167 29.7168 313.222C29.8433 313.267 29.9246 313.33 30.0692 313.276C30.3675 313.167 30.5573 312.87 30.6929 312.608C31.4521 311.103 31.2532 309.255 30.5663 307.713C29.771 305.919 28.2978 304.377 27.0596 302.862C26.0021 301.573 24.8995 300.311 23.8059 299.049C22.9292 298.03 21.9351 297.128 21.1487 296.037C20.4709 295.1 19.9467 294.063 19.6123 292.945C19.3231 291.989 19.4406 290.402 18.8531 289.6C18.6995 289.384 18.4283 289.293 18.1753 289.203C16.6026 288.68 14.9577 288.004 13.5388 287.075C12.3277 286.282 10.7099 283.965 9.05592 284.506C7.42908 285.038 6.86872 287.066 5.86551 288.284C4.47366 289.988 2.95527 291.565 1.5815 293.278C1.36459 293.549 1.16575 293.819 0.948841 294.081C0.505979 294.622 0.0269657 295.036 0.822309 295.541C2.36781 296.533 3.9133 297.516 5.46784 298.508C6.23607 299.003 7.00429 299.517 7.7906 299.986C8.5046 300.419 9.32706 300.698 10.0772 301.077C11.5956 301.843 12.6982 303.025 13.9726 304.116C14.7137 304.747 15.5271 305.297 16.3315 305.847C16.4309 306.162 17.6149 306.712 17.9041 306.91C18.4193 307.262 18.9254 307.605 19.4315 307.965C20.1184 308.452 20.8053 308.939 21.4922 309.417L21.5012 309.426Z" fill="#3D2E09"/>
<path d="M39.7308 129.423L32.1479 161.556L34.4345 228.147L5.00684 284.118L24.0047 295.055L60.1386 237.299C63.7267 232.367 64.766 226.389 65.6608 220.367L68.797 155.651L68.571 130.595L39.7308 129.423Z" fill="#02197E"/>
<path d="M48.4797 135.392C48.4706 134.905 48.1181 134.499 47.6301 134.427C47.1692 134.364 46.6721 134.653 46.5546 135.13C46.175 136.717 45.8858 138.322 45.9761 139.954C45.9942 140.251 46.175 140.459 46.4009 140.558C46.428 140.855 46.4551 141.153 46.4913 141.46C46.5546 142.019 46.9432 142.56 47.5668 142.532C48.1543 142.505 48.6423 142.064 48.6423 141.46C48.6423 139.44 48.5249 137.42 48.4797 135.401V135.392Z" fill="#295C60"/>
<path d="M64.5129 139.873C64.4135 139.224 64.3412 138.547 64.2237 137.889C64.2237 137.817 64.2237 137.745 64.2147 137.673C64.1605 136.87 63.9707 136.104 63.808 135.329C63.6272 134.481 62.2444 134.662 62.2896 135.536C62.3348 136.248 62.2715 136.961 62.2625 137.682C62.2625 138.376 62.2173 139.061 62.1631 139.756C62.0456 141.144 61.675 142.523 61.91 143.921C61.9823 144.354 62.6421 144.516 62.9222 144.182C63.1482 143.921 63.329 143.65 63.4736 143.353C63.7899 143.38 64.1333 143.254 64.296 142.983C64.8835 142.037 64.6756 140.919 64.522 139.882L64.5129 139.873Z" fill="#295C60"/>
<path d="M74.4546 52.6258C74.554 49.7408 74.6534 46.8557 74.7528 43.9706C74.8251 41.924 74.1834 41.5363 72.2854 40.9953C68.146 39.8323 64.2959 38.1012 60.6264 35.9194C59.8221 35.4415 58.9996 36.0276 58.8008 36.7759C58.7375 36.848 58.7013 36.9292 58.7013 37.0373C58.7013 38.534 58.6562 40.0396 58.4392 41.5273C58.3398 42.1764 58.1862 42.8075 58.0506 43.4477C58.0235 43.5649 58.0054 43.6911 57.9964 43.8083C57.9964 43.9796 58.0145 44.1509 57.9964 44.3312C57.9783 44.6017 57.8879 44.8632 57.8066 45.1156C57.4631 46.2516 57.0474 47.3696 56.5593 48.4515C56.0532 49.5785 55.4657 50.6694 54.806 51.7152C54.7698 51.7693 55.9809 52.7881 56.0984 52.8873C56.5413 53.275 57.0022 53.6627 57.4631 54.0323C58.3941 54.7716 59.3521 55.4749 60.3372 56.133C61.2501 56.7371 62.2171 57.4584 63.2475 57.8461C63.9434 58.1075 64.7026 58.0083 65.4256 58.1346C67.0796 58.4141 68.8329 58.5313 70.4869 58.2067C71.5624 57.9903 72.647 57.5305 73.3971 56.7101C74.31 55.7093 74.3732 54.8167 74.4184 53.5094C74.4274 53.2119 74.4365 52.9234 74.4455 52.6258H74.4546Z" fill="#B86946"/>
<path d="M85.2643 32.1237C85.3275 31.9343 85.3456 31.736 85.3275 31.5286C85.2914 31.1409 85.0925 30.7803 84.9208 30.4287C84.5141 29.6173 84.1978 28.7607 83.9718 27.8862C83.4115 25.6863 83.4838 23.243 83.1765 20.98C82.6794 17.3286 82.4083 12.5231 79.6969 9.67407C78.54 8.43889 76.9583 7.65451 75.3134 7.16765C74.8977 7.04142 74.4819 6.94225 74.0572 6.85209C72.9093 6.61768 71.7344 6.50949 70.5595 6.53653C70.0624 6.54555 69.5653 6.63571 69.0772 6.53653C68.8874 6.50047 68.7157 6.47342 68.5259 6.48244C67.1883 6.56358 65.8145 6.92422 64.5402 7.32993C62.6241 7.934 60.8165 8.80854 59.0722 9.77324C57.3911 10.7019 55.9269 11.9461 54.9057 13.5509C53.9024 15.1377 53.3421 16.9679 53.1071 18.8072C52.9896 19.7539 52.9354 20.7095 52.9715 21.6562C52.9806 22.0439 53.0167 22.4316 53.0529 22.8193C52.9896 22.9635 52.9534 23.1258 52.9896 23.3242C53.4505 26.4256 53.9295 29.5632 55.3756 32.3941C56.7494 35.0899 58.8191 37.4611 60.8707 39.679C63.3652 42.3748 68.6705 44.6378 72.3399 45.4852C76.6601 46.486 78.8473 44.8812 81.1068 41.0945C82.1733 39.3094 83.0138 37.1906 83.3572 35.153C83.5651 33.9539 84.9118 33.2687 85.2643 32.1327V32.1237Z" fill="#D18456"/>
<path d="M58.8189 40.6798C59.8221 41.6625 60.997 42.4289 62.4069 42.7715C63.139 42.9518 63.8621 43.069 64.6122 43.1321C65.3353 43.1952 66.0673 43.3395 66.7813 43.4386C66.9169 43.4567 67.0705 43.4747 67.1971 43.4386C67.3688 43.3845 67.4863 43.2313 67.5857 43.087C69.5379 40.2741 69.2758 36.2079 69.077 32.9622C69.0589 32.7097 69.0408 32.4573 69.0228 32.2048C69.0137 32.0876 69.0047 31.9704 69.0047 31.8622C68.9956 31.6639 68.8872 31.4926 68.7968 31.3122C68.4534 30.6721 67.9743 30.2574 67.423 29.8066C66.8536 29.3468 66.2481 28.8419 65.9318 28.1657C64.9918 26.1642 66.4198 23.4864 68.8149 23.9823C69.4475 24.1175 70.0169 24.5413 70.3242 25.1183C70.7219 25.8666 70.7852 26.6871 71.4269 27.3002C71.5715 27.4444 71.7522 27.5256 71.942 27.5977C72.6289 27.8591 73.5327 28.1116 74.1292 27.5436C74.3552 27.3272 74.4817 27.0207 74.5992 26.7322C75.5572 24.3429 76.4339 20.0243 78.7747 18.5367C79.5611 18.0408 80.5552 18.3834 81.4138 18.3834C82.1007 18.3834 82.7515 18.2482 83.4112 18.0589C84.0077 17.8876 84.6133 17.8966 85.2008 17.6892C86.3486 17.2835 87.641 16.7516 88.0658 15.6156C88.3912 14.759 88.1291 13.7493 88.4996 12.9108C88.9786 11.8199 90.3072 11.3961 91.0755 10.4855C91.2743 10.2421 91.446 9.96258 91.4822 9.65604C91.6629 8.2766 89.5932 7.7086 89.1232 6.4013C88.9515 5.93247 89.0148 5.40955 88.8431 4.94973C88.5629 4.17437 87.7224 3.73259 86.927 3.51621C86.1226 3.29982 85.2731 3.21868 84.541 2.81296C83.5378 2.25398 82.8147 1.09093 81.6669 1.0188C80.7993 0.964704 80.3474 1.55074 79.6695 1.88433C79.3622 2.0376 79.0097 2.10972 78.6663 2.12776C77.9342 2.16382 77.2021 1.95645 76.5514 1.6409C75.3855 1.08191 74.319 0.234416 73.0447 0.0540981C70.8304 -0.261459 68.7245 1.48763 66.5012 1.23518C65.3443 1.10896 64.1603 0.441782 63.0758 0.856514C62.3256 1.14502 61.8556 1.85728 61.2501 2.3802C60.0028 3.44408 59.0358 2.49741 57.7795 2.36217C56.7944 2.26299 55.7098 2.47036 54.8512 2.97525C53.7937 3.59735 53.0346 4.77843 53.1249 5.99558C53.1701 6.60866 53.4141 7.23977 53.2243 7.81679C52.8719 8.88067 51.3444 9.05197 50.7299 9.99864C50.3322 10.6027 50.3955 11.36 50.3593 12.0453C50.3232 12.7755 50.043 13.3706 49.6363 13.9656C48.868 15.1016 48.5246 16.3729 48.5427 17.7523C48.5698 19.9071 49.3742 21.9718 50.1695 23.9823C50.6304 25.1363 51.0823 26.2904 51.5433 27.4444C52.0946 28.8419 52.6821 30.2303 53.3147 31.6008C54.1191 33.3498 54.9868 35.0809 55.9448 36.7579C56.7311 38.1283 57.662 39.5528 58.8189 40.6888V40.6798Z" fill="#823F20"/>
<path d="M84.5682 164.987C85.7521 165.032 86.9361 165.014 88.093 164.869C91.0484 164.518 94.0219 163.878 96.9773 164.599C97.2575 154.691 95.2511 144.692 93.9767 134.883C92.6391 124.641 91.0484 114.389 90.8224 104.048C90.6869 97.8363 90.7321 91.6243 90.6507 85.4123C90.5875 80.7421 90.5242 75.9456 90.1807 71.2393C90.009 68.8231 89.756 66.4068 89.3944 64.0086C89.1143 62.1152 89.1052 59.5367 87.1982 58.4638C84.2428 56.8049 81.1608 55.3803 77.9885 54.1993C77.4462 54.0009 76.8949 53.8026 76.4611 53.4239C75.6928 52.7748 75.4398 51.7469 75.3584 50.7822C75.3223 50.4036 75.4127 49.8987 75.2048 49.5651C74.5541 48.5102 72.9634 48.8258 71.9421 48.8528C66.4651 48.9881 60.97 48.393 55.6556 47.0767C55.3845 47.0136 55.0772 46.9415 54.8332 47.0767C54.553 47.221 54.4536 47.5636 54.3722 47.8611C54.0649 49.0422 54.0469 50.8273 52.7183 51.3322C50.0701 52.351 47.4491 53.4059 44.8191 54.4607C42.7946 55.2631 40.1103 55.8311 39.0167 57.9318C38.0858 59.735 37.8237 61.7456 37.2543 63.666C33.8379 75.1522 33.6572 87.3507 34.9857 99.1706C35.6636 105.202 35.2478 111.658 34.9134 117.725C34.561 124.091 33.8741 130.438 32.8437 136.722C32.5184 138.732 32.1478 140.734 31.7501 142.726C30.051 151.246 27.8186 160.542 31.8676 168.232C33.7566 167.682 35.6545 167.132 37.5435 166.583C45.4969 164.265 53.8028 163.319 62.0726 163.364C68.0106 163.4 73.9124 164.13 79.8322 164.626C81.3958 164.752 82.9865 164.924 84.5591 164.978L84.5682 164.987Z" fill="#B38C00"/>
<path d="M35.7087 123.394C35.6997 123.322 35.6907 123.241 35.6907 123.178C35.6545 121.951 36.016 120.671 36.6035 119.607C36.8746 119.129 37.2 118.661 37.2814 118.12C37.426 117.236 36.8927 116.434 36.4951 115.694C36.3324 115.388 36.0432 115.009 36.0341 114.657C36.016 114.198 36.3053 113.603 36.4318 113.17C37.0193 111.123 37.661 109.086 38.3569 107.075C38.7636 105.876 39.2516 104.695 39.6403 103.496C39.8301 102.91 39.821 102.252 39.8753 101.629C39.9566 100.719 40.0379 99.8083 40.1193 98.8977C40.3091 96.797 40.4898 94.6963 40.6796 92.5956C41.2038 86.6992 41.728 80.8028 42.2432 74.9064L40.5441 56C32.672 58.1999 27.5655 64.9979 24.5197 72.2016C22.9923 75.826 21.8987 79.6217 21.0853 83.4715C20.7147 85.2115 20.4074 86.9696 20.1544 88.7277C20.0007 89.7556 19.7205 90.8735 19.8019 91.9194C19.829 92.262 19.9375 92.5865 19.9917 92.9201C20.064 93.425 19.9917 93.9299 19.9555 94.4348C19.8652 95.5347 19.7567 96.6437 19.6121 97.7436C19.3319 99.9165 18.9071 102.08 18.175 104.145C17.5966 105.777 16.8103 107.337 15.78 108.725C15.1744 109.536 14.4785 110.33 14.2254 111.304C13.8549 112.755 14.5689 114.252 14.5689 115.748C14.5689 117.272 13.8368 118.688 13.3668 120.13C12.8969 121.582 12.7432 123.322 13.7374 124.485C15.1383 126.135 17.3978 125.828 19.3319 125.936C21.8174 126.081 24.0949 126.982 26.5171 127.469C28.5416 127.875 34.3079 128.19 35.8172 126.324C36.4318 125.558 35.8443 124.323 35.7268 123.394H35.7087Z" fill="#B38C00"/>
<path d="M82.2637 55.8852L90.6871 59.6088C95.7664 61.8538 99.6618 66.1273 101.415 71.3926C101.777 72.4745 101.876 73.7187 102.093 74.8276C102.653 77.6406 103.205 80.4536 103.765 83.2665C103.883 83.8526 103.792 84.3755 103.819 84.9615C103.846 85.6197 103.874 86.2688 103.901 86.927C104.009 89.5506 104.118 92.1742 104.226 94.7979C104.271 95.8167 104.307 96.8445 104.353 97.8633C104.47 100.766 104.705 103.949 106.73 106.032C107.118 106.437 107.57 106.789 107.877 107.258C108.971 108.98 107.624 111.207 107.769 113.244C107.859 114.425 108.456 115.498 108.872 116.607C109.287 117.716 109.513 119.024 108.899 120.042C108.591 120.556 108.094 120.926 107.588 121.251C104.832 123.036 101.533 123.739 98.3151 124.415C95.6218 124.974 92.9195 125.533 90.2261 126.092C89.6748 121.548 86.9544 117.139 87.9847 112.676C88.2287 111.613 88.6897 110.603 88.9789 109.548C89.4308 107.889 89.4489 106.158 89.4037 104.445C89.3314 101.893 89.0874 99.3509 88.6987 96.8265C88.5631 95.9429 88.7801 95.0954 88.6445 94.2209C88.5089 93.3012 88.3372 92.3906 88.1926 91.471C87.5419 87.5761 86.9002 83.6813 86.2494 79.7864C85.6258 76.0448 85.0022 72.3032 84.3876 68.5526C83.9086 65.6675 83.4296 62.7824 82.9506 59.8973C82.7336 58.581 82.5077 57.2556 82.2908 55.9393C82.2908 55.9213 82.2908 55.9033 82.2817 55.8762L82.2637 55.8852Z" fill="#B38C00"/>
<path d="M28.6503 312.554C28.4063 312.509 28.1713 312.554 27.9815 312.654C25.8575 311.509 23.833 310.228 21.9441 308.705C19.6484 306.856 17.9403 304.521 15.8073 302.538C15.1295 301.907 14.3251 301.239 13.4755 300.807C13.0055 300.446 12.5446 300.094 12.0836 299.761C11.4329 299.283 10.7731 298.832 10.0953 298.399C10.023 298.309 9.93261 298.228 9.80608 298.174C9.74281 298.147 9.67954 298.111 9.61628 298.084C7.83579 296.966 5.96493 295.974 4.03984 295.118C3.15412 294.577 2.39492 293.955 1.5092 294.09C1.30133 294.054 1.12961 294.117 0.994036 294.252C0.903656 294.297 0.813277 294.342 0.722897 294.405C0.551175 294.514 0.551175 294.748 0.668669 294.874C0.587327 294.856 0.505985 294.847 0.424643 294.829C-0.0182185 294.766 -0.0905224 295.397 0.108313 295.659C1.07538 296.921 2.50338 297.714 3.81389 298.571C5.25997 299.517 6.7422 300.41 8.21539 301.312C9.48071 302.078 10.5562 302.384 11.93 302.844C13.3399 303.313 13.9997 304.765 14.8854 305.856C18.5097 310.291 23.1913 313.844 28.3882 316.251C29.3552 316.702 30.0873 315.548 30.1506 314.772C30.2319 313.808 29.6264 312.753 28.6322 312.563L28.6503 312.554Z" fill="#1F1F1F"/>
<path d="M114.737 312.59C111.71 312.897 108.682 313.185 105.645 313.465C104.172 313.6 102.69 313.79 101.207 313.853C99.7795 313.916 98.7491 313.348 97.3934 313.068C96.0739 312.798 95.1159 313.122 93.9048 313.627C93.7873 313.681 93.6698 313.717 93.5523 313.754C93.5433 313.681 93.4981 313.627 93.4167 313.618C91.6634 313.519 89.8648 313.519 88.1114 313.79C85.861 313.609 83.5563 313.375 81.342 313.537C79.7151 313.654 78.9559 316.116 80.4834 316.972C81.6945 317.657 83.1948 317.54 84.5595 317.612C86.1502 317.693 87.7499 317.784 89.3406 317.865C90.6511 317.937 91.9797 318.099 93.2811 317.91C94.5736 317.72 95.6401 316.792 96.9506 316.999C98.252 317.198 99.2733 317.766 100.638 317.766C102.075 317.766 103.539 317.54 104.967 317.414C108.212 317.125 111.466 316.819 114.71 316.494C116.988 316.269 117.006 312.356 114.728 312.59H114.737Z" fill="#1F1F1F"/>
<path d="M100.647 305.098C100.195 305.423 99.8605 305.919 99.517 306.36C99.1917 306.775 98.8211 307.208 98.6675 307.731C98.6132 307.902 98.8211 308.146 98.9928 308.01C99.3905 307.686 99.6526 307.208 99.9509 306.784C100.267 306.333 100.674 305.901 100.918 305.405C100.999 305.242 100.837 304.963 100.647 305.107V305.098Z" fill="#1F1F1F"/>
<path d="M103.123 305.847C102.825 306.207 102.5 306.532 102.192 306.874C101.912 307.19 101.515 307.478 101.415 307.902C101.37 308.11 101.524 308.308 101.731 308.263C102.165 308.173 102.436 307.677 102.671 307.343C102.961 306.937 103.15 306.478 103.331 306.018C103.385 305.892 103.241 305.693 103.123 305.838V305.847Z" fill="#1F1F1F"/>
<path d="M105.654 305.856C105.193 306.198 104.75 306.577 104.352 306.992C103.982 307.379 103.494 307.83 103.476 308.389C103.476 308.632 103.702 308.885 103.955 308.804C104.406 308.651 104.651 308.128 104.949 307.785C105.292 307.388 105.663 307.01 106.069 306.676C106.476 306.342 106.124 305.504 105.645 305.865L105.654 305.856Z" fill="#1F1F1F"/>
<path d="M22.6672 297.913C21.682 297.579 20.3083 298.21 19.6033 298.886C19.4858 298.994 19.5581 299.301 19.7479 299.274C20.2631 299.211 20.733 299.085 21.2392 298.949C21.7453 298.814 22.2785 298.778 22.7395 298.508C22.9564 298.372 22.9112 298.003 22.6762 297.922L22.6672 297.913Z" fill="#1F1F1F"/>
<path d="M23.9145 299.517C23.3993 299.608 22.9022 299.896 22.4051 300.076C21.899 300.266 21.4019 300.482 20.8958 300.662C20.6518 300.744 20.7421 301.131 20.9952 301.086C21.9984 300.906 23.2909 300.717 24.1314 300.094C24.3935 299.896 24.2579 299.463 23.9145 299.517Z" fill="#1F1F1F"/>
<path d="M25.5503 300.771C25.0441 300.446 24.4838 300.762 23.9777 300.96C23.4083 301.185 22.857 301.375 22.4051 301.816C22.2243 301.988 22.3599 302.285 22.5858 302.312C23.1914 302.384 23.7608 302.159 24.3301 301.979C24.8272 301.825 25.4147 301.69 25.6407 301.167C25.6949 301.032 25.6858 300.861 25.5503 300.771Z" fill="#1F1F1F"/>
<path d="M5.05187 290.339C4.86207 290.195 4.69035 290.511 4.82592 290.655C6.30815 292.26 6.47988 293.864 6.16355 295.929C6.12739 296.2 6.45276 296.443 6.61545 296.145C7.63674 294.234 6.68775 291.583 5.05187 290.339Z" fill="#1F1F1F"/>
<path d="M84.948 310.526C83.7821 309.705 82.5078 308.984 81.2515 308.335C80.9984 308.2 80.8358 308.569 81.0436 308.723C81.9565 309.39 82.9145 309.985 83.8635 310.598C84.7131 311.139 85.662 311.734 85.888 312.789C85.9784 313.185 86.4755 312.996 86.4212 312.627C86.2857 311.68 85.7072 311.067 84.948 310.526Z" fill="#1F1F1F"/>
<path d="M63.7538 198.647C61.5938 205.5 59.741 212.442 58.2136 219.456C57.4544 222.945 56.7675 226.462 56.171 229.987C55.8818 231.691 55.6287 233.404 55.2039 235.081C54.7972 236.713 54.1917 238.272 53.3782 239.742C51.8237 242.573 49.6998 245.034 47.6572 247.514C45.5152 250.11 43.4636 252.779 41.4933 255.511C37.5256 261.01 33.8742 266.736 30.4127 272.56C26.924 278.429 23.6252 284.398 20.3534 290.384C19.9557 291.115 19.549 291.845 19.1514 292.575C19.0519 292.765 19.3412 292.936 19.4406 292.746C22.7304 286.742 26.0202 280.728 29.4818 274.814C32.9162 268.935 36.5224 263.147 40.4358 257.575C42.4061 254.771 44.4577 252.013 46.6088 249.335C48.6152 246.837 50.7753 244.439 52.5467 241.771C53.3963 240.49 54.1465 239.138 54.7249 237.704C55.3666 236.091 55.7462 234.396 56.0535 232.682C56.6771 229.184 57.2646 225.686 57.9786 222.206C59.4246 215.174 61.1961 208.204 63.2839 201.334C63.546 200.469 63.8171 199.594 64.0882 198.729C64.1515 198.521 63.8261 198.431 63.7629 198.638L63.7538 198.647Z" fill="#1F1F1F"/>
<path d="M42.7679 229.419C41.6652 228.607 40.3818 228.039 39.0442 227.751C38.3935 227.616 37.7156 227.534 37.0468 227.534C36.6943 227.534 36.3509 227.552 35.9984 227.589C35.7453 227.616 35.4742 227.643 35.2302 227.571C35.2302 227.571 35.2392 227.561 35.2482 227.552C35.4019 227.399 35.1579 227.165 35.0133 227.318C34.9771 227.354 34.941 227.399 34.8958 227.435C34.8325 227.444 34.7783 227.498 34.7692 227.571C34.6879 227.652 34.706 227.778 34.7963 227.841C35.9442 228.607 37.2547 229.049 38.4387 229.734C39.4871 230.338 40.4812 231.168 40.8699 232.349C40.9331 232.556 41.2585 232.466 41.1952 232.259C40.3909 229.815 37.7337 229.103 35.655 227.967C36.0345 227.967 36.4232 227.895 36.7666 227.886C37.4535 227.868 38.1404 227.931 38.8183 228.057C40.183 228.328 41.4754 228.896 42.5961 229.716C42.7679 229.843 42.9396 229.554 42.7679 229.428V229.419Z" fill="#1F1F1F"/>
<path d="M83.249 233.088C81.8029 232.782 80.2845 232.475 78.8294 232.926C78.1425 233.142 77.4918 233.476 76.8501 233.8C76.1632 234.152 75.4854 234.531 74.8256 234.936C74.6448 235.045 74.8075 235.342 74.9973 235.225C75.6119 234.846 76.2355 234.495 76.8772 234.161C77.5099 233.837 78.1606 233.494 78.8475 233.269C80.2574 232.809 81.7397 233.106 83.1586 233.404C83.3665 233.449 83.4569 233.124 83.249 233.079V233.088Z" fill="#1F1F1F"/>
<path d="M83.6194 236.289C80.8808 235.351 77.9525 235.018 75.0694 235.297C74.8525 235.315 74.8525 235.649 75.0694 235.631C77.9254 235.351 80.8176 235.685 83.529 236.604C83.7369 236.677 83.8182 236.352 83.6194 236.28V236.289Z" fill="#1F1F1F"/>
<path d="M84.46 171.654C84.2521 171.717 84.3425 172.042 84.5504 171.978C84.5504 171.978 84.5594 171.978 84.5685 171.969C84.5685 171.969 84.5685 171.987 84.5685 172.005C84.5685 172.06 84.5685 172.105 84.5685 172.159C84.5323 172.348 84.4058 172.456 84.2793 172.591C83.9539 172.934 83.6285 173.277 83.3032 173.619C82.6343 174.323 81.9655 175.026 81.2967 175.729C80.9533 176.09 80.6098 176.45 80.2664 176.811C79.9772 177.108 79.706 177.451 79.3626 177.694C78.9559 177.983 78.5401 177.992 78.0792 177.848C77.6363 177.713 77.1935 177.55 76.7597 177.397C74.9069 176.757 73.0631 176.117 71.2103 175.468C70.7675 175.314 70.3065 175.17 69.8637 174.999C69.6648 174.918 69.5021 174.818 69.3937 174.629C69.2943 174.449 69.2491 174.232 69.1858 174.025C68.9328 173.114 68.7068 172.195 68.4899 171.275C68.0109 169.183 67.6313 167.074 67.3511 164.946C67.324 164.739 66.9896 164.73 67.0167 164.946C67.2878 167.02 67.6584 169.084 68.1193 171.131C68.3453 172.132 68.5983 173.132 68.8695 174.115C68.9779 174.521 69.0954 174.936 69.475 175.179C69.6377 175.278 69.8366 175.341 70.0173 175.404C70.2794 175.495 70.5415 175.585 70.8127 175.684C72.8552 176.396 74.9069 177.108 76.9494 177.821C77.4194 177.983 77.9075 178.208 78.4136 178.272C78.8474 178.335 79.2451 178.208 79.5976 177.947C79.9681 177.667 80.2845 177.298 80.6008 176.964C80.9714 176.577 81.3419 176.18 81.7215 175.792L84.1889 173.205C84.4871 172.898 84.8758 172.601 84.921 172.15C84.9481 171.879 84.8035 171.564 84.4871 171.672L84.46 171.654Z" fill="#1F1F1F"/>
<path d="M97.99 185.998C97.0229 181.499 95.839 177.054 94.5827 172.628C93.8777 170.139 93.1456 167.66 92.4136 165.189C92.3503 164.982 92.0249 165.072 92.0882 165.28C93.3806 169.67 94.6821 174.061 95.839 178.488C96.9958 182.906 98.0262 187.36 98.7673 191.867C99.1921 194.419 99.5265 196.989 99.7434 199.567C99.7614 199.783 100.096 199.783 100.078 199.567C99.6891 195.005 98.948 190.479 97.981 186.007L97.99 185.998Z" fill="#1F1F1F"/>
<path d="M50.5856 173.854C50.5133 172.952 50.4048 172.051 50.3144 171.149C50.1066 169.075 49.9077 167.011 49.6998 164.937C49.6818 164.721 49.3474 164.721 49.3654 164.937C49.5372 166.704 49.7179 168.471 49.8896 170.238C49.98 171.122 50.0614 172.005 50.1517 172.889C50.1879 173.295 50.2692 173.718 50.2602 174.133C50.2602 174.557 50.0252 174.791 49.6727 174.99C49.0581 175.332 48.4888 175.702 47.9736 176.189C47.4675 176.667 47.0246 177.226 46.6812 177.83C46.5998 177.974 46.5275 178.118 46.4552 178.262C46.3829 178.407 46.3016 178.605 46.1479 178.686C45.9762 178.776 45.7593 178.686 45.5876 178.641C45.3616 178.569 45.1357 178.497 44.9097 178.434C44.0601 178.172 43.2015 177.902 42.352 177.64C40.5805 177.09 38.7458 176.441 36.8659 176.595C36.1248 173.466 35.6367 170.283 35.4289 167.074C35.4108 166.857 35.0764 166.857 35.0945 167.074C35.3114 170.356 35.8085 173.619 36.5767 176.811C36.5948 176.874 36.6671 176.937 36.7394 176.937C38.547 176.757 40.2913 177.343 41.9904 177.875C42.8671 178.145 43.7529 178.416 44.6295 178.695C45.0272 178.821 45.443 179.002 45.8587 179.056C46.2202 179.101 46.4733 178.93 46.654 178.632C46.8258 178.335 46.9613 178.019 47.1511 177.722C47.359 177.397 47.594 177.09 47.8471 176.811C48.3441 176.261 48.9226 175.801 49.5643 175.441C49.8535 175.278 50.1608 175.134 50.3687 174.873C50.5946 174.584 50.6127 174.223 50.5856 173.872V173.854Z" fill="#1F1F1F"/>
<path d="M99.436 235.495C98.8304 243.592 98.2159 251.697 97.6103 259.793C97.0048 267.835 96.4354 275.878 95.7937 283.92C95.4321 288.437 94.9983 292.963 94.2211 297.426C94.1849 297.633 94.5103 297.723 94.5464 297.516C95.2333 293.576 95.6581 289.6 95.9925 285.624C96.3359 281.585 96.6161 277.537 96.9234 273.488C97.529 265.392 98.1435 257.287 98.7491 249.191L99.7794 235.504C99.7975 235.288 99.4631 235.288 99.445 235.504L99.436 235.495Z" fill="#1F1F1F"/>
<path d="M19.8746 288.671C16.4673 286.598 13.069 284.506 9.67973 282.396C8.71266 281.792 7.75464 281.197 6.78757 280.593C6.60681 280.476 6.43509 280.764 6.61585 280.882C9.99606 283 13.3853 285.101 16.7926 287.184C17.7597 287.779 18.7268 288.365 19.7029 288.96C19.8836 289.068 20.0553 288.779 19.8746 288.671Z" fill="#1F1F1F"/>
<path d="M96.3537 299.328C95.4138 298.796 94.3292 298.715 93.2627 298.76C92.1149 298.805 90.9761 298.922 89.8283 298.787C89.1866 298.715 88.5539 298.598 87.9213 298.526C87.2886 298.454 86.656 298.426 86.0323 298.426C84.7399 298.426 83.4475 298.553 82.155 298.697C80.8897 298.832 79.5792 298.931 78.4404 299.544C78.2506 299.644 78.4224 299.932 78.6122 299.833C79.6244 299.292 80.7813 299.175 81.911 299.058C83.1402 298.922 84.3784 298.796 85.6166 298.769C86.2493 298.751 86.8819 298.769 87.5146 298.823C88.1201 298.868 88.7166 298.967 89.3131 299.058C89.8916 299.139 90.479 299.202 91.0665 299.202C91.6178 299.202 92.1601 299.157 92.7024 299.13C93.8864 299.058 95.1246 299.022 96.191 299.626C96.3808 299.734 96.5526 299.445 96.3628 299.337L96.3537 299.328Z" fill="#1F1F1F"/>
<path d="M74.337 53.7304C72.8728 53.9107 71.4086 54.0911 69.9445 54.2714C68.4984 54.4517 67.0433 54.6771 65.5791 54.7673C64.1602 54.8574 62.7864 54.7041 61.4217 54.3255C60.1021 53.9558 58.8278 53.4329 57.5715 52.901C56.2519 52.351 54.8872 51.783 53.8478 50.7822C53.6942 50.629 53.4502 50.8724 53.6128 51.0166C54.5347 51.9002 55.6825 52.4592 56.8484 52.9551C58.1138 53.496 59.3972 54.046 60.7077 54.4607C62.0362 54.8845 63.41 55.1459 64.8109 55.1369C66.3112 55.1189 67.8025 54.8754 69.2847 54.6951L74.337 54.064C74.5448 54.037 74.5539 53.7034 74.337 53.7304Z" fill="#FFCD1A"/>
<path d="M91.419 126.579C90.217 126.137 88.9697 125.623 88.0298 124.731C87.5779 124.298 87.2164 123.784 87.0175 123.189C86.8187 122.594 86.7554 121.963 86.7554 121.341C86.7554 120.087 86.9814 118.825 86.8187 117.581C86.7464 117.013 86.5837 116.454 86.2583 115.976C85.8968 115.435 85.3545 115.102 84.8755 114.669C84.5953 114.416 84.3784 114.137 84.2519 113.776C84.1344 113.434 84.0892 113.064 84.035 112.703C83.9717 112.289 83.9084 111.865 83.8542 111.45C83.791 111.036 83.7006 110.603 83.6825 110.179C83.6644 109.476 84.2338 109.241 84.8123 109.061C85.3545 108.89 85.8787 108.709 86.2493 108.259C86.9904 107.357 86.9362 106.032 86.8187 104.95C86.6379 103.21 86.4481 101.461 86.2583 99.7206C85.8878 96.2494 85.5082 92.7783 85.1376 89.3072C85.0924 88.8744 85.0472 88.4507 85.002 88.0179C84.9749 87.8015 84.6405 87.8015 84.6676 88.0179L85.8064 98.6026C85.9962 100.361 86.186 102.119 86.3758 103.877C86.4572 104.598 86.5566 105.319 86.5566 106.041C86.5566 106.636 86.4843 107.258 86.186 107.781C85.8697 108.331 85.3545 108.538 84.7851 108.718C84.2971 108.872 83.7277 109.052 83.4837 109.539C83.33 109.854 83.3481 110.197 83.3933 110.54C83.4566 110.963 83.5198 111.396 83.5831 111.82C83.6915 112.577 83.7277 113.425 84.0531 114.128C84.3423 114.759 84.9478 115.111 85.463 115.552C85.933 115.967 86.2493 116.49 86.412 117.094C86.7283 118.32 86.4933 119.628 86.4481 120.872C86.4029 122.125 86.5385 123.396 87.3339 124.415C88.1111 125.425 89.277 126.047 90.4339 126.534C90.7321 126.66 91.0394 126.777 91.3467 126.885C91.5456 126.958 91.6359 126.633 91.4371 126.561L91.419 126.579Z" fill="#FFCD1A"/>
<path d="M33.6485 99.7249C33.8292 97.1103 34.0823 94.4957 34.4438 91.8991C34.4709 91.6917 34.1456 91.6016 34.1184 91.809C33.4858 96.398 33.1695 101.023 33.0158 105.648C32.8622 110.292 32.8712 114.944 32.8802 119.587C32.8802 122.211 32.8983 124.825 32.9074 127.449C32.9074 127.665 33.2418 127.665 33.2418 127.449C33.2237 122.824 33.1875 118.189 33.2146 113.564C33.2327 108.948 33.3321 104.332 33.6485 99.7249Z" fill="#FFCD1A"/>
<path d="M83.9628 89.0638C78.7117 90.1367 73.316 90.2088 67.9927 89.7219C62.6241 89.2351 57.3278 88.1982 52.0768 87.0622C50.6036 86.7467 49.1213 86.4221 47.6481 86.0885C46.193 85.7549 44.7469 85.3943 43.3551 84.8443C43.1563 84.7632 43.0659 85.0877 43.2647 85.1689C44.5029 85.6558 45.7954 86.0074 47.0878 86.3049C48.3983 86.6114 49.7178 86.8909 51.0283 87.1794C53.6855 87.7565 56.3427 88.3154 59.0179 88.8023C61.6841 89.2892 64.3684 89.6949 67.0617 89.9744C69.737 90.2448 72.4213 90.3891 75.1055 90.344C77.7718 90.2989 80.438 90.0555 83.059 89.5777C83.3934 89.5146 83.7188 89.4514 84.0532 89.3883C84.261 89.3433 84.1707 89.0187 83.9628 89.0638Z" fill="#FFCD1A"/>
<path d="M59.0812 89.9517C58.6203 95.9202 58.1503 101.889 57.6894 107.857C57.2284 113.826 56.7584 119.794 56.2975 125.763C56.0354 129.117 55.7733 132.462 55.5202 135.816C55.5022 136.032 55.8366 136.032 55.8546 135.816C56.3156 129.847 56.7856 123.879 57.2465 117.91C57.7074 111.941 58.1774 105.973 58.6383 100.004C58.9005 96.6505 59.1626 93.3056 59.4156 89.9517C59.4337 89.7353 59.0993 89.7353 59.0812 89.9517Z" fill="#FFCD1A"/>
<path d="M61.2596 110.292C61.0426 105.784 60.8709 101.267 60.7534 96.7497C60.6902 94.2252 60.6359 91.6918 60.6088 89.1673C60.6088 88.9509 60.2744 88.9509 60.2744 89.1673C60.3286 93.6843 60.4371 98.2012 60.5998 102.709C60.7625 107.226 60.9794 111.734 61.2415 116.242C61.3951 118.767 61.5578 121.291 61.7386 123.815C61.7566 124.032 62.091 124.032 62.073 123.815C61.7476 119.307 61.4765 114.8 61.2505 110.292H61.2596Z" fill="#FFCD1A"/>
<path d="M107.479 106.69C106.982 106.302 106.359 106.167 105.735 106.149C105.039 106.14 104.334 106.266 103.647 106.392C102.915 106.528 102.192 106.699 101.469 106.888C98.7485 107.582 96.0281 108.448 93.1811 108.295C91.717 108.214 90.2709 107.844 89.0146 107.06C88.8339 106.942 88.6621 107.231 88.8429 107.348C90.9849 108.691 93.615 108.827 96.0552 108.484C98.8841 108.087 101.577 107.041 104.397 106.6C105.156 106.482 105.97 106.383 106.711 106.645C107.317 106.861 107.868 107.402 107.895 108.069C107.895 108.286 108.238 108.286 108.229 108.069C108.202 107.51 107.904 107.023 107.47 106.681L107.479 106.69Z" fill="#FFCD1A"/>
<path d="M106.919 113.776C102.752 113.749 98.848 115.489 94.7176 115.733C93.5698 115.796 92.422 115.733 91.2922 115.48C91.0844 115.435 90.994 115.76 91.2019 115.805C95.3051 116.734 99.3812 115.156 103.385 114.444C104.361 114.272 105.346 114.155 106.34 114.119C103.765 115.823 100.909 117.076 97.908 117.806C96.9952 118.023 96.0733 118.194 95.1424 118.32C94.9345 118.347 94.9255 118.681 95.1424 118.654C98.4413 118.221 101.65 117.184 104.569 115.589C105.401 115.129 106.214 114.633 106.991 114.083C107.127 113.993 107.082 113.776 106.91 113.767L106.919 113.776Z" fill="#FFCD1A"/>
<path d="M30.494 112.762C28.4966 112.591 26.4992 112.419 24.5018 112.239C22.7032 112.086 20.8414 111.878 19.2236 111.004C18.4282 110.571 17.7142 109.985 17.2171 109.228C17.0997 109.047 16.8104 109.219 16.9279 109.399C17.8588 110.805 19.4043 111.635 21.0131 112.059C21.9531 112.302 22.9111 112.428 23.8781 112.518C24.8994 112.618 25.9117 112.699 26.933 112.789C28.117 112.888 29.31 112.996 30.494 113.096C30.7109 113.114 30.7109 112.78 30.494 112.762Z" fill="#FFCD1A"/>
<path d="M30.6293 119.172C30.5208 118.848 30.1503 118.658 29.843 118.568C29.382 118.424 28.9121 118.325 28.4421 118.208C27.5112 117.991 26.5803 117.811 25.6403 117.622C23.5164 117.198 21.3653 116.747 19.377 115.863C19.1781 115.773 19.0064 116.062 19.2053 116.152C22.4589 117.594 26.047 117.892 29.4543 118.803C29.6441 118.857 29.8339 118.893 30.0057 118.992C30.1322 119.064 30.3852 119.226 30.2858 119.407C30.1954 119.56 29.8972 119.551 29.7526 119.56C29.5086 119.578 29.2645 119.587 29.0205 119.578C28.0625 119.569 27.1045 119.434 26.1555 119.326C24.2304 119.1 22.2962 118.884 20.3712 118.658C18.6449 118.46 16.1956 118.271 15.5358 116.314C15.4635 116.107 15.1472 116.197 15.2105 116.404C15.7889 118.144 17.7049 118.667 19.3318 118.875C21.4105 119.136 23.4983 119.362 25.577 119.596C26.6074 119.713 27.6467 119.866 28.6951 119.912C29.138 119.93 30.9275 120.092 30.6202 119.172H30.6293Z" fill="#FFCD1A"/>
<path d="M41.4297 56.0565C41.014 55.9483 40.6253 56.2278 40.2909 56.4352C39.9204 56.6606 39.5769 56.904 39.2335 57.1745C38.5647 57.7064 37.9591 58.3195 37.4259 58.9867C36.2781 60.4202 35.4556 62.0701 34.8501 63.7922C34.4795 64.82 34.1903 65.8749 33.9372 66.9387C33.883 67.1461 34.2084 67.2363 34.2626 67.0289C35.076 63.666 36.3233 60.2309 38.9623 57.8507C39.3058 57.5442 39.6583 57.2647 40.0379 57.0032C40.2277 56.877 40.4175 56.7598 40.6073 56.6426C40.8151 56.5163 41.0863 56.318 41.3484 56.3811C41.5562 56.4352 41.6466 56.1106 41.4388 56.0565H41.4297Z" fill="#FFCD1A"/>
<path d="M88.2014 59.2662C87.7405 59.176 87.3609 59.4465 87.0807 59.7801C86.7734 60.1407 86.5023 60.5465 86.2583 60.9432C85.7702 61.7366 85.3725 62.584 85.0472 63.4586C84.3784 65.2708 84.0349 67.1912 83.809 69.1025C83.6824 70.1935 83.5921 71.2934 83.5017 72.3934C83.4836 72.6097 83.818 72.6097 83.8361 72.3934C84.1072 68.805 84.4145 65.0364 86.1408 61.8087C86.3758 61.3759 86.6288 60.9522 86.918 60.5465C87.1711 60.1858 87.5869 59.4826 88.1201 59.5818C88.328 59.6178 88.4183 59.3023 88.2105 59.2572L88.2014 59.2662Z" fill="#FFCD1A"/>
<path d="M107.705 156.922C105.428 153.568 103.34 150.088 101.46 146.499C99.5802 142.911 97.9172 139.215 96.4711 135.428C95.6577 133.3 94.9166 131.145 94.2388 128.973C94.1755 128.765 93.8501 128.855 93.9134 129.063C95.1154 132.949 96.5434 136.762 98.1884 140.477C99.8242 144.182 101.677 147.798 103.738 151.287C104.904 153.261 106.124 155.2 107.416 157.093C107.534 157.273 107.832 157.102 107.705 156.922Z" fill="#1F1F1F"/>
<path d="M25.677 151.35C24.6376 148.104 23.5983 144.859 22.5589 141.613C21.5467 138.457 20.5344 135.284 20.1096 131.993C19.8656 130.127 19.8023 128.233 19.9108 126.358C19.9198 126.169 19.6306 126.133 19.5854 126.313C19.5041 126.619 19.4318 126.935 19.3504 127.241C19.3143 127.377 19.4318 127.458 19.5402 127.449C19.486 130.433 19.8746 133.381 20.6248 136.275C21.4563 139.53 22.5679 142.713 23.5983 145.904C24.1857 147.744 24.7823 149.583 25.3697 151.431C25.433 151.639 25.7584 151.548 25.6951 151.341L25.677 151.35Z" fill="#1F1F1F"/>
<path d="M31.7321 188.982C31.0181 186.07 30.5572 183.095 30.3764 180.093C30.3222 179.245 30.2951 178.389 30.2861 177.541C30.2861 177.325 29.9517 177.325 29.9517 177.541C29.9878 180.562 30.2861 183.573 30.8555 186.539C31.0181 187.387 31.2079 188.234 31.4068 189.073C31.461 189.28 31.7773 189.19 31.7321 188.982Z" fill="#1F1F1F"/>
<path d="M127.137 170.41C126.36 170.455 125.727 169.788 125.185 169.31C124.598 168.787 124.146 168.183 123.739 167.506C123.043 166.334 122.338 165.018 120.973 164.522C120.766 164.45 120.684 164.775 120.883 164.847C122.329 165.37 122.953 166.92 123.721 168.12C124.155 168.787 124.679 169.337 125.284 169.851C125.809 170.301 126.396 170.788 127.128 170.752C127.345 170.743 127.345 170.41 127.128 170.419L127.137 170.41Z" fill="#1F1F1F"/>
<path d="M123.142 169.625C123.07 169.418 122.754 169.508 122.817 169.715C123.377 171.383 123.739 173.114 123.883 174.863C123.901 175.08 124.236 175.08 124.218 174.863C124.073 173.078 123.712 171.32 123.133 169.625H123.142Z" fill="#1F1F1F"/>
<path d="M127.327 172.564C127.101 173.637 126.884 174.71 126.658 175.792C126.441 176.829 126.27 177.884 125.998 178.903C125.872 179.371 125.7 179.813 125.366 180.183C125.049 180.534 124.679 180.832 124.372 181.193C124.064 181.544 123.784 181.914 123.549 182.32C123.441 182.5 123.341 182.689 123.251 182.888C123.16 183.086 123.088 183.32 122.916 183.465C122.772 183.582 122.736 183.402 122.691 183.284C122.645 183.158 122.6 183.023 122.564 182.897C122.483 182.626 122.428 182.347 122.401 182.067C122.338 181.499 122.383 180.931 122.51 180.372C122.564 180.165 122.239 180.075 122.184 180.282C121.931 181.328 121.995 182.446 122.392 183.438C122.465 183.618 122.546 183.798 122.763 183.834C122.944 183.861 123.106 183.753 123.224 183.627C123.377 183.456 123.45 183.248 123.549 183.05C123.658 182.816 123.784 182.581 123.92 182.365C124.2 181.914 124.534 181.49 124.905 181.121C125.275 180.751 125.691 180.417 125.953 179.957C126.206 179.516 126.333 179.011 126.432 178.515C126.559 177.929 126.676 177.334 126.803 176.748C127.083 175.386 127.372 174.025 127.652 172.664C127.698 172.456 127.372 172.366 127.327 172.573V172.564Z" fill="#1F1F1F"/>
<path d="M124.01 180.246C122.772 178.65 121.904 176.784 121.47 174.809C121.425 174.602 121.1 174.692 121.145 174.9C121.588 176.937 122.492 178.84 123.766 180.48C123.902 180.652 124.136 180.408 124.001 180.246H124.01Z" fill="#1F1F1F"/>
<path d="M122.419 160.348C120.458 159.455 118.633 158.274 117.024 156.841C116.861 156.696 116.626 156.931 116.789 157.075C118.416 158.527 120.259 159.735 122.257 160.636C122.456 160.727 122.618 160.438 122.429 160.348H122.419Z" fill="#1F1F1F"/>
<path d="M69.1855 29.2115C68.9053 28.887 68.6252 28.5534 68.3359 28.2288C68.0829 27.9403 67.7937 27.6518 67.6219 27.3002C67.4683 26.9846 67.4864 26.615 67.7304 26.3535C67.9925 26.083 68.3992 26.056 68.7155 26.2453C68.8963 26.3625 69.068 26.065 68.8873 25.9568C68.5257 25.7314 68.0377 25.7224 67.6762 25.9568C67.3327 26.1912 67.1429 26.6059 67.1972 27.0207C67.2604 27.4805 67.5767 27.8501 67.866 28.1927C68.2275 28.6075 68.58 29.0222 68.9415 29.4369C69.0861 29.5992 69.3211 29.3648 69.1765 29.2025L69.1855 29.2115Z" fill="#1F1F1F"/>
<path d="M82.4627 37.3709C81.7758 37.2808 81.1341 36.9382 80.6551 36.4333C80.5104 36.28 80.2664 36.5144 80.4201 36.6677C80.9624 37.2447 81.6854 37.5963 82.4627 37.7045C82.553 37.7135 82.6344 37.6234 82.6344 37.5332C82.6344 37.434 82.553 37.38 82.4627 37.3619V37.3709Z" fill="#1F1F1F"/>
<path d="M58.4848 31.3573C57.2556 28.7788 55.8638 26.2633 54.8515 23.5856C54.2821 22.089 53.8393 20.5382 53.6314 18.9514C53.6043 18.7441 53.2699 18.7351 53.297 18.9514C53.6675 21.7644 54.743 24.4061 55.9541 26.9485C57.1833 29.5271 58.5752 32.0425 59.5784 34.7203C60.1387 36.2169 60.5726 37.7676 60.7714 39.3544C60.7985 39.5618 61.1329 39.5708 61.1058 39.3544C60.7533 36.5415 59.6959 33.8998 58.4848 31.3483V31.3573Z" fill="#1F1F1F"/>
<path d="M62.0185 30.9246C61.7745 30.1131 61.4943 29.3197 61.1689 28.5444C60.8526 27.787 60.5001 27.0387 60.2018 26.2724C59.8674 25.4158 59.6144 24.5233 59.5963 23.5946C59.5963 23.3782 59.2529 23.3782 59.2619 23.5946C59.298 25.2175 60.003 26.6961 60.6447 28.1567C61.3316 29.7164 61.8558 31.3393 62.2083 33.0072C62.4071 33.9539 62.5427 34.9186 62.624 35.8833C62.6421 36.0997 62.9765 36.0997 62.9584 35.8833C62.8138 34.1973 62.5065 32.5384 62.0185 30.9155V30.9246Z" fill="#1F1F1F"/>
<path d="M64.2872 30.7352C64.251 30.5188 63.9256 30.609 63.9618 30.8254C64.2148 32.4302 64.3595 34.0441 64.3866 35.6579C64.3866 35.8743 64.73 35.8743 64.721 35.6579C64.6848 34.008 64.5402 32.3671 64.2781 30.7352H64.2872Z" fill="#1F1F1F"/>
<path d="M71.445 5.34643C68.8782 4.58008 66.5283 6.27507 64.0699 6.66276C63.4554 6.76193 62.8317 6.78898 62.3075 6.41031C61.8556 6.08574 61.4941 5.70707 60.9157 5.62593C59.8492 5.47266 58.7827 6.14885 58.0326 6.82504C57.1649 7.60041 56.5323 8.61019 56.225 9.72816C56.1707 9.93553 56.4871 10.0257 56.5503 9.81832C56.8305 8.8446 57.3547 7.95203 58.0868 7.23977C58.7918 6.55456 59.9215 5.75215 60.9699 5.97755C61.4851 6.08574 61.8195 6.50948 62.2533 6.77996C62.7414 7.0865 63.3017 7.09552 63.8621 7.03241C65.0551 6.88815 66.1668 6.44637 67.2875 6.06771C68.5889 5.62593 70.0079 5.27431 71.3726 5.68002C71.5805 5.74313 71.6709 5.41856 71.463 5.35545L71.445 5.34643Z" fill="#1F1F1F"/>
<path d="M80.1487 11.2969C79.4438 10.3412 78.1784 10.215 77.1029 9.98061C76.5516 9.85439 75.9732 9.70112 75.5122 9.3495C74.9609 8.92575 74.7259 8.22251 74.1294 7.84384C73.5781 7.49222 72.8822 7.43812 72.2405 7.4832C71.4903 7.5373 70.7402 7.7086 70.0081 7.88892C68.2186 8.33971 66.4833 9.01591 64.8564 9.89045C64.6667 9.98962 64.8384 10.2781 65.0282 10.179C66.4291 9.42162 67.9023 8.82657 69.4387 8.39381C70.1798 8.18644 70.93 8.00613 71.6892 7.8799C72.3218 7.78073 73.0178 7.73565 73.6233 7.97006C73.9306 8.08727 74.1837 8.28562 74.3915 8.53806C74.6175 8.80854 74.7892 9.1241 75.0332 9.37654C75.4038 9.76423 75.9009 9.98962 76.398 10.1429C77.4102 10.4494 78.6394 10.4404 79.507 11.1166C80.9441 12.2436 80.0312 14.3804 80.0764 15.877C80.0764 16.0934 80.4199 16.0934 80.4108 15.877C80.3566 14.3804 81.1339 12.6313 80.1397 11.2879L80.1487 11.2969Z" fill="#1F1F1F"/>
<path d="M83.4567 8.99788C83.1133 8.68232 82.7337 8.41184 82.4083 8.07825C82.2547 7.91597 82.1191 7.74467 82.0287 7.54632C81.9203 7.32092 81.8841 7.05946 81.848 6.81603C81.7847 6.4013 81.6943 5.97755 81.3599 5.68904C81.0798 5.44561 80.7182 5.33742 80.3567 5.3284C79.2902 5.30135 78.5491 6.15787 77.9436 6.9152C77.808 7.0865 78.043 7.32092 78.1786 7.14962C78.6847 6.5185 79.2902 5.73412 80.1669 5.66199C80.5194 5.63494 80.899 5.70707 81.1701 5.9505C81.4865 6.24802 81.4955 6.69882 81.5588 7.09552C81.7034 7.97006 82.327 8.45692 82.9597 8.98886C83.6375 9.56588 84.2431 10.2511 84.6407 11.0535C85.1197 12.0182 85.2463 13.1452 84.8757 14.155C84.8034 14.3533 85.1288 14.4435 85.2011 14.2451C85.906 12.2977 84.8847 10.2872 83.4567 8.97984V8.99788Z" fill="#1F1F1F"/>
<path d="M74.4185 15.4713C73.7949 14.8131 72.9091 14.5607 72.0596 14.3353C71.5986 14.2091 71.1377 14.0919 70.7039 13.8935C70.2158 13.6681 69.8001 13.3255 69.3572 13.037C68.4444 12.451 67.3598 12.2797 66.2933 12.2977C65.0913 12.3247 63.9073 12.5592 62.7324 12.8206C61.3586 13.1362 59.9848 13.4788 58.611 13.8034C58.4032 13.8574 58.4935 14.173 58.7014 14.1279C59.8854 13.8394 61.0784 13.5599 62.2624 13.2714C63.4102 13.0009 64.5761 12.7305 65.751 12.6493C66.8085 12.5772 67.9382 12.6313 68.8872 13.1452C69.3662 13.4067 69.773 13.7583 70.2429 14.0288C70.6316 14.2451 71.0563 14.3894 71.4902 14.5156C72.4301 14.7861 73.4785 14.9484 74.1745 15.6967C74.3191 15.85 74.5631 15.6155 74.4094 15.4623L74.4185 15.4713Z" fill="#1F1F1F"/>
<path d="M71.9877 18.5908C71.9515 18.3744 71.6352 18.4646 71.6623 18.681C71.8702 20.0243 72.069 21.3587 72.2769 22.7021C72.313 22.9184 72.6294 22.8283 72.6022 22.6119C72.3944 21.2685 72.1955 19.9342 71.9877 18.5908Z" fill="#1F1F1F"/>
<path d="M64.0884 16.7065C64.0251 16.4991 63.6997 16.5893 63.763 16.7966C64.3234 18.5277 64.712 20.3038 64.9289 22.116C64.956 22.3234 65.2904 22.3324 65.2633 22.116C65.0464 20.2768 64.6487 18.4736 64.0793 16.7155L64.0884 16.7065Z" fill="#1F1F1F"/>
<path d="M60.4189 20.6554C59.8405 18.9875 59.3253 17.3105 58.8734 15.6065C58.8192 15.3992 58.4938 15.4893 58.5481 15.6967C59 17.4007 59.5151 19.0867 60.0936 20.7456C60.1659 20.944 60.4912 20.8628 60.4189 20.6554Z" fill="#1F1F1F"/>
</g>
<defs>
<clipPath id="clip0_215_2">
<rect width="236" height="318" fill="white"/>
</clipPath>
</defs>
</svg>
