<svg width="155" height="454" viewBox="0 0 155 454" fill="none" xmlns="http://www.w3.org/2000/svg">
<g clip-path="url(#clip0_203_1545)">
<path d="M10.4996 118.635C8.32553 128.937 6.16148 139.239 3.98742 149.541C1.96363 159.143 -0.0701736 168.865 0.320557 178.667C0.861569 192.54 6.20156 205.713 11.4614 218.566C15.529 228.508 19.8972 238.87 28.1526 245.762C30.0161 238.81 31.8796 231.869 33.7431 224.917C33.9234 224.237 34.1038 223.467 33.7431 222.857C33.4225 222.307 32.7813 222.067 32.2202 221.767C28.1626 219.636 27.5916 214.175 27.5615 209.594C27.5114 198.872 27.6417 187.859 23.8446 177.837C22.9028 175.347 21.7106 172.876 21.6004 170.216C21.5202 168.155 22.1013 166.135 22.6924 164.164C26.3493 151.932 30.5671 139.859 35.316 128.007C29.3549 120.685 18.8953 117.355 9.79829 119.875L10.5096 118.625L10.4996 118.635Z" fill="#CB7748"/>
<path d="M118.973 126.937C126.116 122.016 134.542 118.975 143.188 118.215C145.943 126.827 148.478 135.518 150.762 144.27C153.187 153.552 155.361 163.054 154.95 172.646C154.639 179.848 152.866 186.909 150.652 193.761C144.931 211.434 136.115 228.108 124.733 242.811C122.289 232.969 119.854 223.127 117.41 213.285C119.924 216.665 126.046 216.145 127.949 212.395C128.691 210.944 128.821 209.264 128.941 207.634C129.903 194.781 130.865 181.928 131.827 169.075C132.007 166.605 132.197 164.104 131.787 161.664C131.406 159.423 130.544 157.293 129.683 155.183C125.865 145.841 122.048 136.509 118.231 127.167L118.983 126.927L118.973 126.937Z" fill="#CB7748"/>
<path d="M42.86 432.561C43.1305 437.032 44.1925 447.304 44.453 451.775C44.5231 452.915 44.5732 454.125 44.0322 455.135C43.4411 456.236 28.7736 457.456 22.9928 460.367C22.572 460.577 22.1112 460.837 21.9609 461.277C21.7705 461.817 22.1212 462.387 22.4718 462.847C25.1368 466.328 28.8438 468.888 32.741 470.919C38.3515 473.849 44.473 475.81 50.7447 476.69C55.2131 477.32 60.2625 477.22 63.6088 474.199C67.0152 471.129 67.5762 466.088 67.8267 461.517C68.3978 450.875 68.4879 440.212 68.0872 429.57C68.0571 428.91 68.017 428.19 67.5762 427.69C67.0552 427.09 66.1836 427.01 65.3921 426.97C57.4573 426.619 49.4824 427.23 41.6978 428.77L42.87 432.561L42.86 432.561Z" fill="#8098FC"/>
<path d="M80.8912 425.109C82.1235 436.512 82.0333 451.315 80.6207 462.697C80.3502 464.897 80.0296 467.138 80.4504 469.318C80.8712 471.499 82.1836 473.639 84.2675 474.409C85.9106 475.02 87.744 474.69 89.4572 474.289C100.047 471.819 114.965 462.197 123.541 455.525C122.529 452.555 114.254 452.805 111.198 452.075C108.142 451.345 104.295 453.025 102.472 450.474C100.768 448.094 101.45 442.513 101.78 439.612C102.251 435.461 102.722 431.31 103.193 427.16C103.323 426.049 103.403 424.779 102.652 423.949C101.981 423.199 100.869 423.069 99.8667 422.989C93.8154 422.539 87.744 422.429 81.6827 422.659L80.8912 425.139L80.8912 425.109Z" fill="#8098FC"/>
<path d="M32.0698 226.958C26.1186 236.84 23.0829 248.442 23.4136 259.965C23.6139 266.706 24.9264 273.357 25.4774 280.079C26.6697 294.742 24.3854 310.495 31.5889 323.328C32.6308 325.188 33.8932 327.049 33.9833 329.169C34.0535 330.739 33.4724 332.25 33.0316 333.76C29.6452 345.362 34.4943 357.565 35.957 369.567C38.2714 388.581 35.1856 398.093 39.4436 416.777C39.8443 418.548 37.1693 430.43 38.3014 431.861C39.8844 433.861 42.4091 434.851 44.8537 435.591C52.0071 437.762 59.5512 438.622 67.0151 438.112C69.7202 437.932 72.826 437.302 74.1084 434.911C74.7196 433.781 74.7897 432.441 74.8398 431.15C75.6112 410.566 74.1685 389.902 70.5518 369.627C69.8404 365.637 69.0389 361.626 69.2593 357.575C69.6 351.124 72.5154 344.932 72.1948 338.481C71.9945 334.42 70.5217 330.489 70.3714 326.418C70.2412 322.878 71.1328 319.377 72.0145 315.936C74.0984 307.805 76.1823 299.673 78.2662 291.541C85.9907 335.88 81.4622 381.29 77.9656 426.159C77.8755 427.29 77.8053 428.49 78.3664 429.47C79.0477 430.68 80.4803 431.22 81.7928 431.64C87.5536 433.501 93.4446 434.931 99.4158 435.921C101.63 436.291 104.235 436.462 105.758 434.821C106.81 433.681 106.98 432.021 107.13 430.48C108.062 420.858 110.066 411.336 113.081 402.144C116.708 391.092 118.311 379.48 117.97 367.867C116.778 353.554 117.54 339.141 120.255 325.028L124.453 303.144L125.364 298.573C129.983 275.538 129.392 251.773 123.641 228.998L119.042 210.774L70.4315 202.102L32.0798 226.968L32.0698 226.958Z" fill="#806400"/>
<path d="M51.1255 17.1836C51.7868 24.1151 52.438 31.0365 53.0992 37.968C52.6884 35.2974 48.3503 35.2074 46.7774 37.3978C45.1944 39.5983 45.5852 42.5889 46.036 45.2495C46.6171 48.6802 48.5808 53.1211 51.9771 52.371C52.7385 52.2009 53.6703 51.8009 54.2013 52.371C54.4517 52.641 54.4918 53.0511 54.5219 53.4212C54.8525 58.1122 55.1731 62.8032 55.5037 67.4942C55.6239 69.2845 55.8544 71.2749 57.2269 72.4152C57.8681 72.9453 58.6797 73.2253 59.4812 73.4654C69.4698 76.526 80.3001 76.7861 90.4291 74.2256C90.9801 66.854 91.5311 59.4925 92.0721 52.1209C92.8436 54.0513 95.7891 54.1413 97.352 52.7811C98.9149 51.4108 99.4459 49.2403 99.8867 47.2199C100.548 44.1893 101.189 40.9086 99.9268 38.078C98.6645 35.2474 94.6069 33.517 92.3426 35.6475C93.3044 28.426 93.7653 21.1344 93.7352 13.8529L72.9463 5.7412L51.1255 17.1836Z" fill="#CB7748"/>
<path d="M11.9924 98.5207C14.5673 94.1797 17.8935 90.3289 21.8308 87.1483C39.1132 73.1853 61.6453 65.5137 83.4361 67.7142C108.102 70.2147 131.155 85.3079 143.278 106.892C146.795 113.154 149.42 119.865 152.034 126.557C143.739 131.748 135.453 136.949 127.158 142.14C125.385 143.25 123.541 144.44 122.539 146.271C121.808 147.611 121.608 149.171 121.427 150.692C118.612 173.736 115.817 197.351 121.197 219.936C115.516 219.416 109.835 218.896 104.155 218.376C98.9251 217.896 93.6652 217.416 88.4355 217.836C78.0761 218.676 68.3779 222.977 58.5195 226.277C48.6711 229.578 37.8709 231.889 27.9824 228.698C31.4989 220.476 27.1308 210.894 28.9241 202.132C29.6054 198.832 31.1383 195.761 32.1001 192.53C33.5127 187.809 33.683 182.818 33.8533 177.897C34.3242 163.794 31.1583 143.98 30.6273 146.711C21.7106 142.25 9.70816 134.478 -3.47279e-08 132.218C1.88352 122.616 5.43016 113.344 9.19721 104.112C9.98869 102.181 10.9204 100.311 11.9824 98.5107L11.9924 98.5207Z" fill="#F59F18"/>
<path d="M48.8717 233.999C57.1472 232.279 65.6831 231.879 74.0888 232.789C78.2767 233.239 82.4244 234.049 86.4921 235.139C87.4939 235.409 88.5359 235.689 89.5878 235.619C90.5597 235.559 91.4714 235.229 92.343 234.829C94.2065 233.979 96.0199 233.099 97.9735 232.449C102.322 230.978 106.9 230.288 111.489 230.398C112.18 230.418 112.18 229.338 111.489 229.318C107.411 229.218 103.324 229.738 99.3962 230.868C97.4125 231.439 95.4789 232.159 93.6054 233.029C92.7037 233.449 91.832 233.939 90.8903 234.249C89.8984 234.589 88.9266 234.599 87.9047 234.379C86.8627 234.149 85.8408 233.839 84.7989 233.579C83.7569 233.319 82.715 233.089 81.663 232.869C79.5992 232.449 77.5153 232.109 75.4213 231.849C71.2235 231.318 66.9755 231.118 62.7476 231.258C57.9887 231.409 53.2398 231.969 48.5811 232.939C47.8999 233.079 48.1904 234.119 48.8717 233.979L48.8717 233.999Z" fill="#453B26"/>
<path d="M63.4086 291.601C72.6158 291.751 81.272 288.16 90.2488 286.69C92.7836 286.28 95.3484 286.05 97.9232 286.12C98.6145 286.14 98.6145 285.06 97.9232 285.04C88.716 284.78 80.0397 288.34 71.083 289.871C68.5482 290.301 65.9834 290.551 63.4086 290.511C62.7173 290.501 62.7173 291.571 63.4086 291.591L63.4086 291.601Z" fill="#453B26"/>
<path d="M69.0191 294.222C75.4111 293.231 81.793 292.231 88.185 291.241C90.0184 290.951 91.8519 290.671 93.6853 290.381C94.3666 290.271 94.076 289.241 93.3947 289.341C87.0028 290.331 80.6208 291.331 74.2289 292.321C72.3954 292.611 70.562 292.891 68.7286 293.181C68.0473 293.291 68.3379 294.322 69.0191 294.222Z" fill="#453B26"/>
<path d="M39.534 245.071C44.9842 244.581 50.4344 244.101 55.8946 243.641C58.6197 243.411 61.3448 243.191 64.0799 242.971C65.4425 242.861 66.805 242.751 68.1676 242.641C69.2696 242.551 70.4619 242.371 71.5339 242.711C73.4475 243.321 73.3372 245.631 72.3354 247.002C71.073 248.732 68.5383 248.992 66.5746 249.172C61.1344 249.682 55.6842 250.152 50.244 250.633C48.8013 250.763 47.3486 250.903 45.9059 251.023C44.7237 251.113 43.4513 251.183 42.3192 250.763C39.9748 249.882 39.8246 247.092 39.7945 244.971C39.7845 244.281 38.7025 244.281 38.7125 244.971C38.7425 247.062 38.8828 249.552 40.616 251.003C42.4895 252.573 45.1345 252.183 47.3887 251.973C53.2697 251.443 59.1607 250.913 65.0417 250.392C67.4262 250.182 70.1313 250.132 72.145 248.672C73.6579 247.572 74.6096 245.431 73.9183 243.601C73.0167 241.211 70.2615 241.401 68.1676 241.571C65.202 241.811 62.2365 242.051 59.2709 242.291C52.6886 242.831 46.1063 243.401 39.534 244.001C38.8527 244.061 38.8427 245.141 39.534 245.081L39.534 245.071Z" fill="#453B26"/>
<path d="M54.6324 246.412C54.6725 247.312 55.1934 248.182 56.0049 248.602C56.8064 249.012 57.8083 248.962 58.5597 248.462C58.7401 248.342 58.9104 248.202 59.0506 248.042C59.1308 247.952 59.2009 247.872 59.261 247.772C59.3512 247.632 59.3712 247.472 59.3813 247.312C59.4013 246.872 59.2711 246.412 59.0506 246.032C58.6198 245.291 57.7883 244.771 56.9167 244.841C55.9048 244.921 54.983 245.622 54.7225 246.622C54.6524 246.902 54.8127 247.202 55.1033 247.282C55.3838 247.362 55.6944 247.192 55.7645 246.902C55.7745 246.852 55.7946 246.802 55.8046 246.762C55.8246 246.702 55.8246 246.702 55.8046 246.752C55.8146 246.732 55.8246 246.702 55.8346 246.682C55.8547 246.642 55.8847 246.592 55.9048 246.552C55.9048 246.532 55.9949 246.422 55.9649 246.462C55.9348 246.502 56.035 246.382 56.055 246.362C56.0851 246.322 56.1252 246.292 56.1652 246.252C56.1853 246.242 56.2955 246.152 56.2153 246.212C56.2554 246.182 56.2955 246.152 56.3456 246.132C56.3857 246.102 56.4357 246.082 56.4758 246.052C56.4758 246.052 56.6261 245.982 56.5259 246.022C56.6161 245.982 56.7163 245.952 56.8165 245.932C56.8465 245.932 56.9667 245.902 56.8666 245.922C56.9166 245.922 56.9667 245.922 57.0168 245.922C57.0669 245.922 57.117 245.922 57.1671 245.922C57.2272 245.922 57.2373 245.922 57.1671 245.922C57.1872 245.922 57.2172 245.922 57.2373 245.932C57.2873 245.942 57.3374 245.952 57.3875 245.972C57.4076 245.972 57.5378 246.032 57.4877 246.002C57.4376 245.982 57.5679 246.042 57.5779 246.052C57.628 246.082 57.6781 246.112 57.7282 246.142C57.8183 246.202 57.6881 246.102 57.7783 246.182C57.8183 246.212 57.8484 246.252 57.8885 246.282C57.9285 246.322 57.9586 246.352 57.9887 246.392C58.0888 246.502 57.9486 246.322 58.0287 246.442C58.0788 246.532 58.1389 246.612 58.179 246.702C58.2391 246.812 58.179 246.652 58.1991 246.762C58.2191 246.812 58.2291 246.852 58.2491 246.902C58.2692 246.952 58.2692 247.002 58.2792 247.052C58.3093 247.172 58.2792 246.992 58.2792 247.112C58.2792 247.232 58.2792 247.342 58.2692 247.462C58.2892 247.372 58.3193 247.282 58.3393 247.192C58.3393 247.192 58.2391 247.322 58.2992 247.252C58.2692 247.282 58.2391 247.312 58.2091 247.352C58.179 247.382 58.149 247.412 58.1189 247.442C58.1189 247.442 57.9887 247.552 58.0688 247.492C57.9987 247.552 57.9085 247.602 57.8284 247.642C57.7883 247.662 57.7482 247.682 57.7182 247.702C57.5779 247.772 57.7983 247.682 57.658 247.722C57.5779 247.752 57.4977 247.772 57.4076 247.792C57.3575 247.802 57.3074 247.812 57.2573 247.822C57.3374 247.812 57.2573 247.822 57.2172 247.822C57.127 247.822 57.0269 247.822 56.9367 247.822C56.8365 247.822 56.9667 247.822 56.9066 247.822C56.8565 247.812 56.8064 247.802 56.7564 247.792C56.7163 247.782 56.6762 247.762 56.6361 247.752C56.4959 247.712 56.7063 247.792 56.576 247.722C56.4959 247.682 56.4257 247.642 56.3456 247.592C56.3456 247.592 56.2153 247.492 56.2855 247.552C56.2554 247.522 56.2153 247.492 56.1853 247.462C56.1152 247.392 56.045 247.322 55.9849 247.252C56.035 247.312 55.9849 247.242 55.9548 247.212C55.9348 247.172 55.9048 247.142 55.8847 247.102C55.8547 247.052 55.8346 247.012 55.8146 246.962C55.7445 246.832 55.8346 247.042 55.7845 246.902C55.7545 246.822 55.7244 246.742 55.7144 246.652C55.7144 246.652 55.6843 246.482 55.6944 246.592C55.6944 246.542 55.6944 246.492 55.6843 246.432C55.6743 246.142 55.4439 245.892 55.1433 245.892C54.8628 245.892 54.5923 246.142 54.6023 246.432L54.6324 246.412Z" fill="#453B26"/>
<path d="M95.1582 239.69C99.9471 239.18 104.746 238.69 109.545 238.21C111.91 237.98 114.284 237.75 116.648 237.52C117.821 237.41 118.983 237.29 120.155 237.19C121.007 237.12 122.008 237.04 122.72 237.6C123.932 238.57 123.541 240.6 122.81 241.731C121.788 243.311 119.684 243.621 117.961 243.801C113.222 244.311 108.493 244.801 103.754 245.301C102.502 245.431 101.24 245.612 99.9772 245.682C99.0054 245.742 97.9734 245.702 97.1419 245.151C95.4387 244.011 95.4788 241.391 95.4487 239.58C95.4487 238.89 94.3667 238.89 94.3667 239.58C94.3867 241.481 94.4468 243.671 95.6792 245.241C97.0016 246.912 99.1456 246.862 101.069 246.662C106.239 246.122 111.399 245.572 116.568 245.021C118.652 244.801 120.946 244.731 122.68 243.391C124.082 242.311 124.784 240.42 124.483 238.68C124.333 237.83 123.882 237.06 123.151 236.59C122.309 236.039 121.257 236.019 120.285 236.1C117.74 236.31 115.196 236.58 112.651 236.83C106.82 237.4 100.989 237.99 95.1582 238.61C94.4769 238.68 94.4669 239.76 95.1582 239.69Z" fill="#453B26"/>
<path d="M107.872 241.031C107.902 241.891 108.313 242.751 109.064 243.221C109.765 243.651 110.677 243.571 111.318 243.081C111.519 242.931 111.679 242.771 111.819 242.571C111.869 242.511 111.909 242.451 111.949 242.381C112.04 242.231 112.06 242.061 112.06 241.891C112.07 241.461 111.96 241.041 111.769 240.65C111.429 239.95 110.687 239.38 109.886 239.46C108.934 239.55 108.162 240.32 107.962 241.241C107.902 241.511 108.042 241.831 108.343 241.901C108.613 241.961 108.944 241.821 109.004 241.521C109.024 241.421 109.054 241.321 109.094 241.221C109.054 241.341 109.114 241.191 109.124 241.171C109.144 241.121 109.174 241.081 109.204 241.041C109.224 241.001 109.254 240.971 109.274 240.931C109.194 241.041 109.305 240.891 109.325 240.871C109.385 240.81 109.445 240.75 109.505 240.7C109.395 240.79 109.545 240.68 109.565 240.67C109.595 240.65 109.635 240.63 109.675 240.61C109.695 240.6 109.725 240.59 109.745 240.58C109.685 240.61 109.675 240.61 109.705 240.6C109.745 240.6 109.795 240.57 109.836 240.56C109.856 240.56 109.926 240.53 109.946 240.54C109.866 240.54 109.856 240.55 109.916 240.54C109.946 240.54 109.966 240.54 109.996 240.54C110.026 240.54 110.096 240.53 110.116 240.54C110.036 240.53 110.026 240.53 110.086 240.54C110.186 240.56 110.236 240.58 110.276 240.59C110.156 240.56 110.256 240.59 110.296 240.6C110.336 240.62 110.377 240.65 110.417 240.67C110.537 240.74 110.377 240.63 110.457 240.7C110.527 240.77 110.597 240.84 110.667 240.911C110.737 240.991 110.627 240.83 110.687 240.941C110.717 240.981 110.747 241.021 110.767 241.071C110.797 241.111 110.817 241.161 110.837 241.211C110.837 241.231 110.888 241.361 110.857 241.251C110.888 241.351 110.928 241.451 110.948 241.551C110.958 241.591 110.968 241.641 110.978 241.681C110.958 241.551 110.978 241.741 110.978 241.761C110.978 241.871 110.978 241.971 110.968 242.081C110.988 241.991 111.018 241.901 111.038 241.811C111.018 241.851 110.988 241.891 110.968 241.931C110.948 241.961 110.888 242.041 110.948 241.971C110.888 242.041 110.827 242.101 110.767 242.161C110.757 242.171 110.637 242.261 110.737 242.191C110.697 242.211 110.667 242.241 110.627 242.261C110.587 242.281 110.557 242.301 110.517 242.321C110.487 242.331 110.377 242.391 110.497 242.341C110.417 242.371 110.336 242.401 110.256 242.421C110.226 242.421 110.106 242.461 110.236 242.421C110.206 242.421 110.166 242.421 110.136 242.421C110.096 242.421 110.056 242.421 110.016 242.421C109.996 242.421 109.866 242.401 109.946 242.421C110.026 242.441 109.896 242.411 109.876 242.401C109.836 242.391 109.795 242.371 109.755 242.361C109.695 242.351 109.836 242.411 109.755 242.361C109.715 242.341 109.685 242.321 109.645 242.301C109.605 242.281 109.575 242.251 109.535 242.231C109.435 242.171 109.595 242.281 109.505 242.211C109.445 242.151 109.375 242.091 109.325 242.031C109.315 242.021 109.234 241.901 109.295 242.001C109.264 241.961 109.244 241.931 109.214 241.891C109.164 241.811 109.124 241.731 109.084 241.651C109.034 241.551 109.104 241.731 109.064 241.611C109.044 241.571 109.034 241.521 109.014 241.481C108.984 241.401 108.964 241.311 108.954 241.231C108.954 241.211 108.954 241.181 108.944 241.161C108.944 241.221 108.944 241.231 108.944 241.191C108.944 241.131 108.944 241.081 108.934 241.021C108.934 240.74 108.693 240.47 108.393 240.48C108.112 240.49 107.842 240.72 107.852 241.021L107.872 241.031Z" fill="#453B26"/>
<path d="M70.5421 294.402C67.4864 302.533 64.4807 310.705 62.2666 319.107C60.0925 327.359 58.6799 335.89 58.9905 344.442C59.1508 348.703 59.812 352.874 60.7738 357.025C61.2647 359.155 61.7657 361.286 61.966 363.466C62.1764 365.677 62.0963 367.917 61.8859 370.128C61.4651 374.509 60.5634 378.839 60.0825 383.22C59.6116 387.531 59.3912 391.872 59.4113 396.213C59.4714 404.895 60.5233 413.587 62.5672 422.028C62.8176 423.069 63.0881 424.119 63.3687 425.149C63.549 425.819 64.5909 425.529 64.4106 424.859C62.1364 416.477 60.8439 407.856 60.5534 399.184C60.4131 394.883 60.5133 390.582 60.864 386.301C61.2246 381.88 61.9861 377.539 62.5972 373.158C63.1883 368.877 63.4087 364.646 62.5972 360.386C62.1965 358.275 61.6454 356.195 61.2146 354.084C60.7838 351.984 60.4632 349.853 60.2729 347.713C59.5114 339.211 60.5834 330.669 62.5471 322.398C64.5509 313.976 67.4363 305.804 70.4519 297.692C70.8226 296.692 71.2033 295.692 71.574 294.692C71.8145 294.042 70.7725 293.762 70.5321 294.402L70.5421 294.402Z" fill="#453B26"/>
<path d="M43.3911 424.779C50.284 428.18 58.2289 429.23 65.773 427.82C67.907 427.42 69.9909 426.82 72.0146 426.039C72.6558 425.789 72.3753 424.749 71.7241 424.999C64.7711 427.72 56.9865 428.09 49.7931 426.079C47.7693 425.519 45.8156 424.769 43.9321 423.839C43.3109 423.529 42.7699 424.459 43.3911 424.769L43.3911 424.779Z" fill="#453B26"/>
<path d="M82.5546 291.751C84.9891 300.583 87.4137 309.415 89.8482 318.257C92.2928 327.129 94.7374 336.01 97.1819 344.882C97.763 347.003 98.4042 349.113 98.805 351.274C99.2157 353.464 99.2458 355.655 98.8751 357.845C98.1538 362.096 96.4906 366.127 95.629 370.358C94.7774 374.559 94.2965 378.819 93.7655 383.07C93.2346 387.291 92.7336 391.502 92.2327 395.723C91.2308 404.175 90.249 412.627 89.197 421.068C89.0668 422.079 88.9465 423.089 88.8163 424.099C88.7261 424.779 89.8081 424.779 89.8983 424.099C90.9703 415.667 91.9522 407.235 92.954 398.794C93.455 394.533 93.9659 390.282 94.4869 386.021C95.0079 381.76 95.4888 377.489 96.2001 373.258C96.5708 371.058 97.0216 368.867 97.6228 366.707C98.2039 364.636 98.8851 362.606 99.4061 360.526C99.9171 358.505 100.278 356.415 100.228 354.324C100.178 352.154 99.6966 350.033 99.1456 347.943C96.7912 339.071 94.2765 330.249 91.8419 321.397C89.3974 312.526 86.9528 303.644 84.5082 294.772C84.2077 293.672 83.8971 292.561 83.5965 291.461C83.4162 290.791 82.3742 291.081 82.5546 291.751Z" fill="#453B26"/>
<path d="M82.6947 423.209C88.225 424.289 93.555 426.209 99.1254 427.12C100.528 427.35 101.941 427.52 103.363 427.51C104.055 427.51 104.055 426.429 103.363 426.429C100.748 426.459 98.1235 425.899 95.5888 425.309C92.7134 424.649 89.8781 423.859 87.0228 423.119C85.6802 422.769 84.3377 422.439 82.9752 422.168C82.2939 422.038 82.0034 423.069 82.6846 423.209L82.6947 423.209Z" fill="#453B26"/>
<path d="M77.5349 270.787C82.2337 266.806 87.5737 263.555 93.2844 261.225C93.9155 260.965 93.645 259.924 92.9938 260.185C87.1028 262.595 81.6225 265.906 76.7735 270.017C76.2425 270.467 77.0139 271.227 77.5349 270.777L77.5349 270.787Z" fill="#453B26"/>
<path d="M83.1253 272.857C87.9243 270.217 92.7133 267.576 97.5122 264.936C98.1234 264.605 97.5724 263.675 96.9712 264.005C92.1723 266.646 87.3833 269.286 82.5843 271.927C81.9732 272.257 82.5242 273.187 83.1253 272.857Z" fill="#453B26"/>
<path d="M92.7037 447.414C92.5033 448.764 93.2246 450.094 94.4269 450.735C95.549 451.335 96.9216 451.175 97.7932 450.224C98.5446 449.414 98.9053 448.164 98.5346 447.094C98.1539 446.004 97.1219 445.353 95.9798 445.363C94.7575 445.363 93.5252 446.094 93.1746 447.314C92.9842 447.984 94.0261 448.264 94.2165 447.604C94.2265 447.554 94.2466 447.514 94.2566 447.464C94.2967 447.324 94.2065 447.544 94.2766 447.414C94.3167 447.324 94.3668 447.244 94.4169 447.164C94.497 447.034 94.3467 447.234 94.4469 447.124C94.477 447.084 94.507 447.054 94.5471 447.014C94.5772 446.984 94.6173 446.944 94.6473 446.914C94.6673 446.894 94.6974 446.874 94.7174 446.854C94.6673 446.884 94.6774 446.884 94.7174 446.854C94.7976 446.804 94.8777 446.744 94.9579 446.704C94.998 446.684 95.0481 446.664 95.0881 446.634C95.2284 446.564 94.9879 446.664 95.1382 446.614C95.3286 446.544 95.5089 446.494 95.7093 446.464C95.5891 446.484 95.7494 446.464 95.7594 446.464C95.8095 446.464 95.8596 446.464 95.9097 446.464C96.0099 446.464 96.11 446.464 96.2002 446.464C96.3605 446.464 96.1 446.444 96.2503 446.464C96.3004 446.464 96.3505 446.484 96.3906 446.494C96.5008 446.524 96.611 446.554 96.7112 446.594C96.601 446.554 96.7412 446.614 96.7613 446.614C96.8013 446.634 96.8414 446.654 96.8915 446.684C96.9316 446.704 96.9717 446.734 97.0117 446.764C97.0318 446.774 97.0919 446.824 97.0117 446.764C97.0919 446.824 97.152 446.894 97.2221 446.964C97.3323 447.084 97.172 446.884 97.2622 447.014C97.3023 447.074 97.3424 447.124 97.3724 447.184C97.3924 447.224 97.4225 447.274 97.4425 447.324C97.3924 447.224 97.4626 447.374 97.4626 447.384C97.4926 447.484 97.5227 447.574 97.5427 447.674C97.5427 447.684 97.5628 447.854 97.5527 447.734C97.5527 447.784 97.5527 447.834 97.5628 447.884C97.5628 448.004 97.5628 448.124 97.5628 448.244C97.5527 448.404 97.5728 448.184 97.5628 448.284C97.5628 448.324 97.5427 448.364 97.5427 448.414C97.5227 448.514 97.4926 448.614 97.4626 448.714C97.4425 448.764 97.4325 448.814 97.4125 448.864C97.4526 448.764 97.3824 448.924 97.3824 448.924C97.3323 449.034 97.2722 449.134 97.2021 449.244C97.172 449.284 97.142 449.334 97.1119 449.374C97.172 449.294 97.0718 449.424 97.0718 449.424C97.0017 449.504 96.9316 449.574 96.8514 449.644C96.8514 449.644 96.7212 449.754 96.8013 449.694C96.7613 449.724 96.7212 449.754 96.6711 449.784C96.5809 449.844 96.5008 449.894 96.4006 449.934C96.5008 449.884 96.3505 449.954 96.3405 449.954C96.2904 449.974 96.2403 449.984 96.1902 450.004C96.06 450.034 96.0499 450.044 95.9297 450.054C95.6492 450.074 95.4989 450.054 95.2384 449.964C94.8176 449.824 94.3768 449.484 94.1163 449.114C93.8158 448.684 93.6555 448.184 93.7156 447.734C93.7556 447.444 93.6454 447.154 93.3349 447.074C93.0844 447.004 92.7137 447.164 92.6736 447.454L92.7037 447.414Z" fill="white"/>
<path d="M49.9234 448.554C49.3824 449.884 50.1839 451.355 51.316 452.085C52.4582 452.815 54.0111 452.695 54.8827 451.605C55.6742 450.614 55.8244 449.224 55.3135 448.074C54.7625 446.824 53.4099 446.254 52.0975 446.514C50.6247 446.804 49.3624 448.104 49.3323 449.624C49.3123 450.314 50.3943 450.314 50.4143 449.624C50.4143 449.564 50.4143 449.494 50.4243 449.434C50.4243 449.394 50.4344 449.364 50.4444 449.324C50.4744 449.204 50.5045 449.074 50.5546 448.964C50.5245 449.044 50.5846 448.894 50.5947 448.874C50.6247 448.814 50.6548 448.764 50.6848 448.704C50.7149 448.654 50.7449 448.614 50.775 448.564C50.795 448.534 50.8151 448.504 50.8351 448.474C50.8051 448.514 50.8351 448.474 50.8552 448.454C50.9353 448.354 51.0255 448.264 51.1257 448.174C51.1657 448.134 51.2058 448.104 51.2459 448.064C51.326 447.994 51.286 448.034 51.2659 448.044C51.296 448.024 51.326 448.004 51.3561 447.984C51.4663 447.914 51.5765 447.844 51.6867 447.784C51.827 447.714 51.847 447.704 51.9672 447.664C52.2277 447.574 52.4281 447.524 52.6185 447.514C52.7487 447.514 52.8689 447.514 52.9992 447.514C52.9992 447.514 53.0893 447.524 53.0392 447.514C52.9791 447.514 53.0893 447.514 53.0994 447.524C53.1595 447.534 53.2196 447.554 53.2797 447.564C53.4801 447.624 53.7005 447.724 53.8508 447.854C53.991 447.964 54.1313 448.134 54.2114 448.274C54.4318 448.624 54.522 449.014 54.532 449.424C54.532 449.534 54.532 449.644 54.522 449.754C54.522 449.784 54.522 449.824 54.512 449.854C54.512 449.854 54.522 449.774 54.512 449.834C54.502 449.904 54.492 449.964 54.4719 450.034C54.4519 450.144 54.4118 450.244 54.3818 450.344C54.3717 450.374 54.3617 450.404 54.3417 450.434C54.3417 450.434 54.3717 450.364 54.3417 450.424C54.3116 450.484 54.2816 450.544 54.2515 450.604C54.2014 450.694 54.1413 450.785 54.0812 450.875C54.0211 450.955 54.0612 450.895 54.0812 450.875C54.0612 450.895 54.0511 450.915 54.0311 450.935C53.991 450.985 53.9409 451.035 53.9009 451.075C53.7906 451.185 53.6003 451.315 53.44 451.375C53.2396 451.455 53.0593 451.485 52.8088 451.475C52.7888 451.475 52.6185 451.455 52.7086 451.475C52.6485 451.475 52.5784 451.455 52.5183 451.435C52.4181 451.415 52.2377 451.355 52.1876 451.325C51.7067 451.115 51.306 450.744 51.0555 450.274C50.8051 449.804 50.755 449.354 50.9654 448.834C51.0756 448.564 50.8451 448.244 50.5846 448.174C50.2741 448.094 50.0336 448.284 49.9234 448.554Z" fill="white"/>
<path d="M104.535 452.575C106.229 453.945 107.401 455.926 107.681 458.096C107.721 458.386 107.902 458.636 108.222 458.636C108.483 458.636 108.803 458.386 108.763 458.096C108.443 455.656 107.23 453.375 105.307 451.815C105.076 451.635 104.766 451.595 104.545 451.815C104.355 452.005 104.315 452.395 104.545 452.575L104.535 452.575Z" fill="white"/>
<path d="M107.912 453.065C109.234 453.935 110.126 455.445 110.246 456.996C110.266 457.286 110.477 457.536 110.787 457.536C111.058 457.536 111.348 457.286 111.328 456.996C111.178 455.025 110.116 453.225 108.453 452.135C108.213 451.975 107.862 452.085 107.712 452.325C107.561 452.585 107.661 452.905 107.902 453.065L107.912 453.065Z" fill="white"/>
<path d="M95.7892 357.915C100.007 357.205 104.275 356.845 108.543 356.825C109.234 356.825 109.234 355.745 108.543 355.745C104.175 355.775 99.8067 356.155 95.4986 356.875C94.8173 356.985 95.1079 358.025 95.7892 357.915Z" fill="#453B26"/>
<path d="M98.6446 361.296C102.552 360.846 106.449 360.396 110.357 359.945C111.038 359.865 111.048 358.795 110.357 358.865C106.449 359.315 102.552 359.765 98.6446 360.216C97.9633 360.296 97.9533 361.366 98.6446 361.296Z" fill="#453B26"/>
<path d="M64.5307 359.585C60.1224 359.485 55.7342 360.466 51.7768 362.396C51.1557 362.696 51.6967 363.626 52.3178 363.326C56.1049 361.476 60.3128 360.566 64.5307 360.656C65.222 360.676 65.222 359.595 64.5307 359.575L64.5307 359.585Z" fill="#453B26"/>
<path d="M65.3523 361.146C62.9278 363.326 59.8921 364.706 56.656 365.147C56.3655 365.187 56.2152 365.557 56.2753 365.807C56.3555 366.117 56.656 366.217 56.9365 366.187C60.3429 365.717 63.5489 364.206 66.1037 361.906C66.6146 361.446 65.8532 360.686 65.3423 361.146L65.3523 361.146Z" fill="#453B26"/>
<path d="M37.2698 329.259C39.2135 328.129 41.3775 327.399 43.6117 327.159C43.9022 327.129 44.1527 326.929 44.1527 326.618C44.1527 326.348 43.9022 326.048 43.6117 326.078C41.1771 326.338 38.8327 327.089 36.7288 328.319C36.1277 328.669 36.6687 329.599 37.2698 329.249L37.2698 329.259Z" fill="#453B26"/>
<path d="M39.3435 332.21C41.8482 331.84 44.383 331.76 46.9077 331.95C47.599 332 47.599 330.919 46.9077 330.869C44.2828 330.679 41.6579 330.789 39.053 331.169C38.7624 331.209 38.6122 331.58 38.6723 331.83C38.7524 332.14 39.053 332.25 39.3335 332.21L39.3435 332.21Z" fill="#453B26"/>
<path d="M19.1961 95.31C20.9294 102.451 22.6626 109.583 24.3959 116.724C26.1291 123.846 27.9024 130.967 29.5856 138.099C30.5073 142.02 31.2687 146.031 30.888 150.081C30.8179 150.772 31.8999 150.762 31.97 150.081C32.3107 146.481 31.7496 142.87 30.9782 139.359C30.1867 135.768 29.265 132.198 28.4034 128.627C26.6701 121.485 24.9369 114.354 23.2036 107.212C22.2218 103.152 21.2299 99.0908 20.2481 95.0299C20.0878 94.3598 19.0459 94.6399 19.2062 95.32L19.1961 95.31Z" fill="#C1791A"/>
<path d="M17.8732 101.631C19.6365 103.962 21.1894 106.432 22.5419 109.013C22.8625 109.623 23.7943 109.083 23.4737 108.473C22.1212 105.882 20.5682 103.412 18.805 101.091C18.6246 100.861 18.3441 100.741 18.0636 100.901C17.8331 101.031 17.6929 101.401 17.8732 101.641L17.8732 101.631Z" fill="#C1791A"/>
<path d="M122.81 146.971C123.722 140.82 124.403 134.638 124.824 128.437C125.245 122.226 125.425 115.994 125.355 109.773C125.315 106.252 125.194 102.722 124.994 99.2108C124.954 98.5207 123.882 98.5207 123.912 99.2108C124.263 105.402 124.373 111.593 124.233 117.795C124.092 123.956 123.712 130.117 123.08 136.259C122.72 139.749 122.289 143.22 121.768 146.691C121.668 147.371 122.71 147.661 122.81 146.981L122.81 146.971Z" fill="#C1791A"/>
<path d="M127.208 99.8009C126.597 102.572 125.625 105.242 124.313 107.753C123.992 108.363 124.924 108.913 125.244 108.293C126.597 105.702 127.609 102.942 128.24 100.081C128.39 99.4108 127.348 99.1208 127.198 99.7909L127.208 99.8009Z" fill="#C1791A"/>
<path d="M123.441 138.959C129.011 133.688 134.792 128.647 140.773 123.846C142.466 122.486 144.17 121.155 145.893 119.835C146.434 119.415 145.893 118.485 145.352 118.905C139.2 123.606 133.239 128.557 127.498 133.748C125.875 135.218 124.272 136.699 122.679 138.199C122.179 138.679 122.94 139.439 123.441 138.959Z" fill="#C1791A"/>
<path d="M2.91538 124.716C9.83833 127.867 16.7813 130.997 23.6943 134.168C25.3874 134.938 27.0906 135.758 28.5133 136.979C29.0342 137.429 29.8057 136.669 29.2747 136.219C28.0023 135.118 26.5296 134.318 25.0167 133.598C23.3236 132.798 21.6104 132.048 19.9072 131.268C16.4106 129.677 12.9041 128.087 9.40752 126.497C7.42381 125.596 5.4401 124.696 3.46641 123.796C2.83523 123.516 2.29422 124.436 2.9254 124.726L2.91538 124.716Z" fill="#C1791A"/>
<path d="M67.4763 165.205C69.8507 158.933 72.6359 152.812 75.7918 146.891C78.9277 141 82.4443 135.308 86.3015 129.847C88.4856 126.757 90.7799 123.756 93.1844 120.825C93.6252 120.295 92.8638 119.525 92.4229 120.065C88.1249 125.306 84.1474 130.807 80.5407 136.549C76.944 142.27 73.7179 148.221 70.8826 154.352C69.2796 157.823 67.7969 161.344 66.4443 164.915C66.1939 165.565 67.2358 165.845 67.4863 165.205L67.4763 165.205Z" fill="#C1791A"/>
<path d="M77.545 161.234C79.9295 154.882 82.9952 148.791 86.6621 143.08C87.704 141.45 88.8061 139.849 89.9482 138.289C90.359 137.729 89.4172 137.189 89.0165 137.749C84.9589 143.32 81.4924 149.301 78.6972 155.603C77.9157 157.363 77.1843 159.153 76.503 160.954C76.2626 161.604 77.3045 161.884 77.545 161.244L77.545 161.234Z" fill="#C1791A"/>
<path d="M34.5548 191.11C38.7727 190.3 43.0206 189.62 47.2786 189.07C47.9599 188.98 47.9699 187.909 47.2786 187.989C42.9204 188.55 38.5823 189.24 34.2642 190.06C33.583 190.19 33.8735 191.23 34.5548 191.1L34.5548 191.11Z" fill="#C1791A"/>
<path d="M36.1176 192.81C39.1132 193.501 42.189 193.581 45.2247 193.08C45.906 192.97 45.6154 191.93 44.9341 192.04C42.0988 192.51 39.1934 192.41 36.3982 191.77C35.7269 191.62 35.4364 192.65 36.1076 192.81L36.1176 192.81Z" fill="#C1791A"/>
<path d="M31.3587 224.677C36.8189 225.777 42.3693 224.907 47.6191 223.227C53.0593 221.476 58.2089 218.956 63.4688 216.735C68.7887 214.485 74.279 212.715 79.9396 211.534C85.6102 210.354 91.381 209.754 97.1718 209.724C102.933 209.694 108.693 210.234 114.344 211.364C115.055 211.504 115.777 211.664 116.488 211.824C117.159 211.974 117.45 210.944 116.779 210.784C111.148 209.514 105.387 208.804 99.6164 208.674C93.8456 208.544 88.0548 208.984 82.3742 209.984C76.6835 210.984 71.093 212.545 65.713 214.665C60.393 216.765 55.2634 219.336 49.8934 221.306C44.7437 223.197 39.2735 224.567 33.7532 223.967C33.0519 223.887 32.3506 223.777 31.6593 223.637C30.978 223.497 30.6875 224.537 31.3687 224.677L31.3587 224.677Z" fill="#C1791A"/>
<path d="M52.4782 35.4574C52.3379 38.128 52.909 41.1886 55.1832 42.6189C57.4475 44.0492 61.3347 42.0388 60.5032 39.4983C58.7699 41.5587 58.78 44.8794 60.5232 46.9298C62.2665 48.9803 65.5526 49.5204 67.867 48.1501C67.8369 50.2605 69.6603 52.2309 71.7643 52.371C73.8782 52.511 75.9421 50.7906 76.1925 48.7002C76.2927 50.6206 78.8575 51.6108 80.6108 50.8207C82.3641 50.0205 83.3359 48.1401 83.917 46.2997C85.2495 47.67 87.7742 46.8298 88.736 45.1795C89.6978 43.5291 89.5676 41.4987 89.3972 39.5983C90.0986 39.6583 90.8099 39.7283 91.5112 39.7883C90.7498 38.5481 92.7435 37.5479 93.6853 36.4376C94.4567 35.5374 94.5369 34.2572 94.5769 33.0769C94.6671 30.5564 94.7673 28.0259 94.8575 25.5053C97.1317 24.1951 97.3321 21.0044 96.9113 18.4239C96.1399 13.7229 94.1862 9.23193 91.2707 5.46114C90.0384 3.87081 88.5857 2.36049 86.7323 1.57033C84.8788 0.780161 82.5544 0.830172 81.0216 2.14045C79.8093 0.540111 77.2846 0.140027 75.6315 1.29027C69.2395 -1.50032 61.1143 0.430088 56.666 5.79121C53.3498 7.10149 50.8752 10.3222 50.4644 13.8629C48.9215 13.5028 47.7193 15.3932 47.8495 16.9636C47.9798 18.5339 48.8814 19.9442 49.182 21.4945C49.5026 23.2049 49.0718 24.9752 49.2622 26.7056C49.4525 28.436 50.6648 30.3264 52.408 30.2463C52.2177 31.3066 52.4682 32.4268 53.0893 33.307C53.47 32.5868 52.2878 31.8267 51.6366 32.3068C50.9854 32.7969 51.0655 33.8571 51.5865 34.4872C52.1075 35.1074 52.909 35.4074 53.6804 35.6775L52.4682 35.4774L52.4782 35.4574Z" fill="black"/>
<path d="M135.223 162.274C136.836 161.444 138.649 161.104 140.463 161.254C140.753 161.274 141.004 160.994 141.004 160.714C141.004 160.404 140.753 160.204 140.463 160.174C138.469 160.014 136.455 160.434 134.682 161.344C134.061 161.664 134.612 162.594 135.223 162.274Z" fill="#571F20"/>
<path d="M9.12695 168.225C10.9604 168.075 12.7938 167.925 14.6272 167.785C14.9178 167.765 15.1683 167.555 15.1683 167.245C15.1683 166.975 14.9178 166.685 14.6272 166.705C12.7938 166.855 10.9604 167.005 9.12695 167.145C8.83641 167.165 8.58594 167.375 8.58594 167.685C8.58594 167.955 8.83641 168.245 9.12695 168.225Z" fill="#571F20"/>
<path d="M123.07 224.817C126.086 223.757 128.661 221.616 130.224 218.816C130.564 218.206 129.633 217.666 129.292 218.276C127.869 220.816 125.545 222.807 122.79 223.777C122.139 224.007 122.419 225.047 123.08 224.817L123.07 224.817Z" fill="#571F20"/>
<path d="M22.8727 224.437C22.7725 226.617 23.6842 228.798 25.3073 230.258C25.8182 230.718 26.5897 229.958 26.0687 229.498C24.636 228.218 23.8646 226.347 23.9547 224.437C23.9848 223.747 22.9128 223.747 22.8727 224.437Z" fill="#571F20"/>
<path d="M53.5202 46.9398C53.8709 49.5104 54.2115 52.0709 54.5622 54.6415C54.6022 54.9315 54.9729 55.0815 55.2234 55.0215C55.534 54.9415 55.6342 54.6415 55.6041 54.3614C55.2535 51.7909 54.9128 49.2303 54.5622 46.6598C54.5221 46.3697 54.1514 46.2197 53.9009 46.2797C53.5904 46.3597 53.4902 46.6598 53.5202 46.9398Z" fill="#571F20"/>
<path d="M92.8838 45.1895C92.2827 48.1401 91.922 51.1307 91.8118 54.1414C91.7918 54.8315 92.8638 54.8315 92.8938 54.1414C92.994 51.2307 93.3347 48.3301 93.9258 45.4795C94.066 44.7994 93.0241 44.5193 92.8838 45.1895Z" fill="#571F20"/>
<path d="M82.7751 6.10128C84.5183 3.50073 88.2653 2.8606 90.8602 4.52095C93.6855 6.32133 94.6573 9.92208 93.4551 12.9827C93.1545 13.7529 92.7237 14.483 92.1927 15.1132C91.9322 15.4332 91.6417 15.7333 91.3311 16.0134C91.0005 16.3134 90.6198 16.7235 90.1389 16.5135C89.4175 16.2034 89.0368 15.3132 89.1069 14.5631C89.1771 13.8129 89.7181 13.1828 90.4194 12.9327C91.2309 12.6427 92.0124 12.9627 92.6836 13.4428C93.3949 13.9629 94.0462 14.6131 94.6773 15.2232C95.8896 16.4034 97.0818 17.7337 97.5627 19.3941C98.1238 21.3545 97.4425 23.4149 96.2503 25.0152C94.9779 26.7156 93.1645 27.8958 91.3611 28.9661C90.76 29.3161 91.301 30.2463 91.9022 29.8963C93.8258 28.756 95.7193 27.4758 97.0919 25.6854C98.3843 23.985 99.1257 21.8046 98.7349 19.6641C98.3542 17.6137 96.9516 15.9333 95.4989 14.523C94.1363 13.2028 92.383 11.2524 90.2691 11.8625C88.3255 12.4226 87.4338 14.6831 88.5058 16.4034C89.0268 17.2436 90.0687 17.9538 91.0706 17.5237C91.9522 17.1436 92.7036 16.2434 93.2747 15.4932C94.477 13.9029 95.1683 11.8925 95.0781 9.89207C94.9879 7.97167 94.1664 6.12128 92.8239 4.73099C91.3511 3.21067 89.2772 2.35049 87.1533 2.53053C85.0293 2.71057 83.0556 3.77079 81.8533 5.55116C81.4626 6.13129 82.4044 6.6714 82.7851 6.09128L82.7751 6.10128Z" fill="black"/>
<path d="M54.0312 11.7325C53.41 10.3222 51.4764 10.7422 50.4344 11.3624C49.0218 12.2026 47.7594 13.4028 46.8177 14.7531C45.8859 16.0834 45.2748 17.6937 45.2848 19.3341C45.2948 20.9044 45.9761 22.4347 47.0381 23.5649C48.2403 24.8552 49.9435 25.5554 51.6968 25.2153C51.5966 24.8652 51.5064 24.5251 51.4062 24.1751C48.9617 24.8052 47.559 27.3757 47.6793 29.7862C47.8095 32.5768 49.9836 34.6473 52.5985 35.3174C54.1313 35.7075 55.7844 35.6575 57.2872 35.1574C57.9385 34.9373 57.6579 33.9071 56.9967 34.1171C54.7926 34.8373 52.1076 34.5572 50.3342 32.9769C48.7212 31.5566 48.2904 29.2361 49.2422 27.3057C49.7431 26.2855 50.5747 25.4953 51.6868 25.2153C52.368 25.0452 52.0775 24.055 51.3962 24.1751C48.8615 24.6552 46.6473 22.1746 46.3768 19.8342C46.0562 17.1036 47.9197 14.5631 49.9736 12.9727C50.5146 12.5526 51.0957 12.1225 51.7669 11.9425C52.2478 11.8125 52.8489 11.7325 53.0894 12.2726C53.3699 12.9027 54.3017 12.3626 54.0211 11.7325L54.0312 11.7325Z" fill="black"/>
<path d="M30.948 79.7667C42.6098 97.0403 54.7425 114.094 69.0393 129.267C83.336 144.44 101.079 161.394 120.065 170.026C120.866 164.795 121.778 155.893 122.579 150.662C94.9177 138.469 74.9604 112.444 67.0656 103.082C59.1808 93.7096 52.7688 82.8474 50.0938 70.9049L30.938 79.7667L30.948 79.7667Z" fill="#453B26"/>
<path d="M66.5343 126.727C69.059 123.806 71.754 121.035 74.5994 118.425C75.2806 117.795 75.9619 117.125 76.7133 116.574C77.3846 116.084 78.2462 115.684 78.9174 116.384C79.4785 116.965 79.8091 117.815 80.2299 118.495C80.6908 119.245 81.1817 119.965 81.7127 120.665C82.9149 122.276 84.2775 123.756 85.7803 125.086L85.7803 124.326C83.0452 126.927 80.5305 129.757 78.2462 132.758C77.6952 133.488 77.1541 134.228 76.6232 134.988C76.4228 135.278 76.1924 135.738 75.8717 135.909C75.491 136.109 75.0903 135.528 74.8498 135.298C73.4472 133.948 72.0847 132.558 70.7522 131.138C69.2293 129.507 67.7465 127.847 66.3239 126.136C65.8831 125.606 65.1216 126.367 65.5625 126.897C68.2675 130.117 71.1329 133.198 74.1485 136.119C74.7597 136.709 75.471 137.359 76.3627 136.869C77.1441 136.429 77.615 135.438 78.126 134.728C79.2982 133.098 80.5405 131.518 81.8529 130.007C83.3357 128.287 84.9087 126.647 86.5517 125.086C86.7521 124.896 86.7621 124.516 86.5517 124.326C85.119 123.056 83.7966 121.656 82.6544 120.125C82.0834 119.365 81.5424 118.575 81.0514 117.755C80.6106 117.025 80.26 116.184 79.6388 115.574C78.1059 114.074 76.2825 115.484 75.0302 116.584C73.4973 117.935 72.0145 119.335 70.5718 120.785C68.9087 122.446 67.3157 124.176 65.7729 125.956C65.322 126.477 66.0834 127.247 66.5343 126.717L66.5343 126.727Z" fill="white"/>
<path d="M70.702 132.128C73.5373 127.757 77.2042 123.946 81.4622 120.955C82.0232 120.555 81.4922 119.625 80.9212 120.025C76.5029 123.126 72.7058 127.047 69.7703 131.578C69.3896 132.158 70.3213 132.698 70.702 132.118L70.702 132.128Z" fill="white"/>
</g>
<defs>
<clipPath id="clip0_203_1545">
<rect width="155" height="477" fill="white"/>
</clipPath>
</defs>
</svg>
