<svg width="478" height="502" viewBox="0 0 478 502" fill="none" xmlns="http://www.w3.org/2000/svg">
<path d="M104.461 237.67C79.2303 250.286 -0.901973 410.348 0.151401 449.348C1.20478 488.348 108.101 642.427 131.806 625.245C155.52 608.062 157.121 593.694 157.121 586.86C157.121 580.025 76.0449 470.719 81.3117 455.491C86.5786 440.264 149.292 332.811 150.573 320.525C151.854 308.23 129.674 225.047 104.452 237.67H104.461Z" fill="#414042"/>
<path d="M339.236 255.966C366.127 268.749 411.911 428.702 418.501 474.25C425.099 519.798 304.315 641.703 294.818 634.675C285.329 627.646 245.014 608.214 248.158 596.113C251.301 584.011 351.481 474.098 344.832 463.093C325.172 430.547 312.346 243.182 339.228 255.966H339.236Z" fill="#414042"/>
<path d="M191.723 165.325C188.579 174.274 187.459 225.527 183.633 227.01C179.807 228.493 131.798 232.336 131.798 232.336C131.798 232.336 190.4 285.611 219.936 282.687C249.473 279.763 315.751 251.516 303.768 245.069C291.793 238.631 252.119 231.165 252.119 224.069C252.119 209.836 255.936 171.063 252.119 168.038C248.301 165.013 191.714 165.333 191.714 165.333L191.723 165.325Z" fill="#DE7F4C"/>
<path d="M284.249 100.1C284.325 92.4398 283.87 84.7544 282.269 77.2544C277.558 55.1673 262.339 37.1082 238.676 36.2234C201.471 34.8329 173.047 54.2403 169.432 92.0185C167.384 113.339 167.485 136.21 176.578 156.055C184.053 172.378 199.803 188.996 218.3 192.14C237.126 195.333 256.424 179.887 265.845 165.131C277.525 146.828 284.056 121.715 284.258 100.1H284.249Z" fill="#DE7F4C"/>
<path d="M298.079 117.99C297.649 112.976 294.287 107.743 288.683 108.181C285.186 108.459 282.253 110.65 280.593 113.676C278.84 116.869 278.326 120.518 277.736 124.058C277.155 127.496 276.312 130.858 275.706 134.297C275.394 136.041 274.172 139.016 275.571 140.49C279.447 144.577 286.61 141.148 289.517 137.785C293.992 132.628 298.686 125.069 298.088 117.999L298.079 117.99Z" fill="#DE7F4C"/>
<path d="M153.143 98.0434C154.913 93.3327 159.556 89.2035 164.84 91.1417C168.135 92.3467 170.359 95.254 171.151 98.6164C171.977 102.164 171.48 105.813 171.101 109.386C170.73 112.85 170.637 116.322 170.292 119.793C170.115 121.555 170.494 124.748 168.75 125.793C163.913 128.675 157.946 123.442 156.05 119.423C153.135 113.246 150.657 104.709 153.143 98.0518V98.0434Z" fill="#DE7F4C"/>
<path d="M290.149 96.0801C290.258 95.7178 290.376 95.3638 290.503 95.0014C293.334 86.7683 294.531 78.4845 296.705 70.1587C298.542 63.1221 304.104 60.9058 308.005 55.4114C311.056 51.1137 310.365 45.2991 309.539 40.0912C308.258 32.035 306.885 23.7175 302.494 16.8411C299.309 11.8439 294.295 7.70624 288.421 6.89725C283.365 6.20623 278.317 7.99276 273.227 8.38041C263.991 9.07142 255.143 5.13601 246.202 2.71747C236.578 0.113526 226.331 -0.746021 216.632 1.51241C206.924 3.77927 197.797 9.3748 192.404 17.7597C184.162 16.7653 175.727 20.5658 170.426 26.8355C164.536 33.8046 165.37 42.4002 164.629 51.0378C163.609 62.9789 163.12 74.9705 163.171 86.9537C163.188 91.3104 161.755 112.209 172.28 105.232C177.286 101.912 179.098 93.8638 180.699 88.4537C181.971 84.1475 180.775 78.6868 182.957 74.7514C184.213 72.4845 186.943 70.4452 189.396 69.7205C193.365 68.5407 195.817 70.8665 199.044 72.7289C205.019 76.184 212.064 77.389 218.78 78.5014C229.104 80.2121 239.561 79.2514 249.944 78.6531C256.803 78.257 274.264 74.9958 276.817 83.7851C278.326 88.9846 276.059 95.0942 274.702 100.083C273.194 105.619 274.239 111.771 275.536 117.274C275.806 118.412 276.168 119.583 276.969 120.434C278.772 122.339 281.022 121.083 282.362 119.44C287.814 112.766 287.713 103.951 290.14 96.0801H290.149Z" fill="#8C3A15"/>
<path d="M226.273 119.431C228.674 129.485 220.643 140.364 213.16 146.078V141.805C217.534 145.521 221.309 146.524 226.601 148.42C228.101 148.96 228.127 151.26 226.601 151.791C220.146 154.049 215.014 149.743 210.464 145.69C209.292 144.645 209.798 142.614 210.91 141.805C217.601 136.951 223.382 128.313 223.745 119.811C223.812 118.302 225.885 117.805 226.273 119.431Z" fill="#333333"/>
<path d="M218.418 168.653C221.308 168.763 223.971 168.106 226.778 167.491C229.137 166.976 231.446 165.139 233.797 165.064C234.707 165.038 235.154 165.898 235.238 166.665C235.727 170.895 230.426 172.083 227.308 172.555C223.879 173.078 219.488 174.198 217.348 170.701C216.867 169.926 217.424 168.603 218.41 168.637L218.418 168.653Z" fill="#333333"/>
<path d="M291.911 119.313C294.127 121.302 294.372 123.864 293.436 126.628C292.787 128.541 290.782 132.299 288.211 131.499C287.664 131.33 287.301 130.74 287.31 130.176C287.343 127.268 291.666 123.973 289.897 121.041C289.096 119.718 290.748 118.26 291.919 119.313H291.911Z" fill="#C4643D"/>
<path d="M158.983 100.116C159.556 102.493 159.674 104.937 160.382 107.279C161.022 109.411 162.834 111.493 162.556 113.777C162.489 114.366 162.118 115.167 161.376 115.091C158.494 114.788 157.34 111.324 156.59 108.897C155.68 105.923 155.528 102.653 156.918 99.813C157.39 98.8439 158.747 99.1304 158.983 100.116Z" fill="#C4643D"/>
<path d="M194.485 49.5041C192.581 58.6474 213.775 66.5014 220.171 68.3216C230.873 71.3637 242.713 70.4367 253.424 67.8834C262.584 65.7008 270.379 61.4536 279.935 61.285C286.719 61.1671 296.443 58.462 299.241 51.535C300.413 48.6445 304.365 50.9198 303.657 53.5996C301.314 62.448 291.463 66.316 283.045 66.8637C279.53 67.0912 276.286 66.5856 272.755 67.3693C269.022 68.1952 265.508 69.7963 261.901 71.0266C255.261 73.2935 248.3 74.5575 241.314 75.1306C227.317 76.2682 214.516 73.2345 202.533 65.8777C198.421 63.3581 191.696 59.9283 190.086 54.9226C189.084 51.8131 189.85 48.2485 193.339 47.8019C194.232 47.6923 194.645 48.8215 194.502 49.4957L194.485 49.5041Z" fill="#AD4F1D"/>
<path d="M296.191 23.1697C295.584 27.4001 296.301 31.4029 295.079 35.5574C293.941 39.417 292.205 43.504 290.09 46.9254C286.668 52.4535 281.233 54.7878 275.056 56.2035C265.887 58.3103 257.115 56.4142 248.25 53.903C242.587 52.3018 236.705 50.1867 230.73 50.5659C225.404 50.9029 221.848 53.1277 217.812 56.4985C216.438 57.6446 214.533 55.5968 215.073 54.1642C221.764 36.3327 246.084 46.6305 258.699 49.167C266.292 50.6923 279.261 51.2147 284.84 44.4816C287.831 40.8664 290.486 34.8495 291.413 30.3327C292.07 27.0967 291.725 24.3326 293.823 21.6444C294.91 20.2455 296.368 21.9478 296.191 23.1781V23.1697Z" fill="#AD4F1D"/>
<path d="M267.227 22.0658C265.104 26.1192 263.975 31.1164 259.98 33.8889C255.421 37.0575 248.798 36.6193 243.565 36.417C236.376 36.1473 229.062 35.1698 221.865 35.667C214.239 36.1979 210.43 40.0491 205.576 45.4339C203.233 48.0378 199.795 44.4648 201.286 41.7597C207.059 31.3103 216.371 28.4703 227.798 28.8496C234.725 29.0771 241.618 30.0715 248.536 30.2653C257.326 30.5097 260.174 26.431 265.61 20.6838C266.511 19.7232 267.758 21.0293 267.219 22.0658H267.227Z" fill="#AD4F1D"/>
<path d="M196.929 18.8468C191.873 23.1277 187.255 26.3806 184.92 32.9283C182.991 38.3553 184.111 43.9761 182.687 49.361C182.123 51.4846 179.586 51.8132 178.465 49.9761C171.665 38.7851 181.718 14.5743 196.027 15.1558C198.05 15.2401 198.21 17.7682 196.929 18.8468Z" fill="#AD4F1D"/>
<path d="M195.64 180.038C203.798 184.235 209.815 190.682 219.607 190.985C227.992 191.255 236.815 188.145 244.171 184.505C245.57 183.814 246.43 185.524 245.638 186.611C243.253 189.873 239.107 190.909 235.34 191.87C230.216 193.176 224.949 194.76 219.615 194.752C209.477 194.726 201.607 188.271 194.376 181.875C193.441 181.05 194.545 179.474 195.649 180.047L195.64 180.038Z" fill="#C4643D"/>
<path d="M174.666 225.822L187.517 204.047C187.517 204.047 205.98 223.707 217.466 224.044C227.477 224.339 252.708 208.993 252.708 208.993L260.789 230.625L335.823 258.182C335.823 258.182 328.18 484.16 335.722 619.801C333.085 640 344.84 647.281 344.84 656.07C344.84 663.444 271.534 663.006 236.545 663.191C229.871 663.225 219.008 631.523 215.899 631.657C212.975 631.792 213.539 663.84 207.118 664.203C170.941 666.242 89.8226 670.835 82.3647 665.61C73.5838 659.467 85.4405 641.753 90.7074 618.048C95.9743 594.334 99.7327 252.595 107.41 239.255C110.755 233.448 174.657 225.83 174.657 225.83L174.666 225.822Z" fill="#D6D6D6"/>
<path d="M220.315 269.339C220.955 268.328 221.385 267.123 221.95 266.154C223.441 263.583 224.975 261.03 226.306 258.367C227.259 256.462 228.809 254.71 228.927 252.485C229.062 250.024 227.95 247.109 227.343 244.715C226.248 240.426 224.95 236.187 223.45 232.016C222.624 229.724 221.554 224.111 218.099 224.634C216.042 224.946 215.048 226.993 214.113 228.578C212.84 230.735 211.526 232.833 210.405 235.075C208.997 237.898 207.792 240.822 206.79 243.822C205.795 246.822 205.441 248.398 206.292 251.491C207.877 257.255 210.329 262.774 213.54 267.814C213.388 269.558 213.228 271.294 213.059 273.03C209.149 290.373 206.132 307.994 204.169 325.648C203.958 327.544 205.121 328.8 206.554 329.238C207.278 330.62 208.542 331.572 210.413 331.395C215.343 330.923 222.969 331.665 225.936 326.752C228.919 321.814 226.121 313.033 225.54 307.724C224.149 294.856 222.135 282.131 220.306 269.347L220.315 269.339Z" fill="#F32530"/>
<path d="M172.323 226.1L219.944 289.21L262.315 231.123L339.236 255.965C339.236 255.965 339.548 501.831 336.91 522.031C334.273 542.23 341.874 612.958 341.874 621.739C341.874 630.52 228.472 633.739 209.064 634.615C189.666 635.492 92.1315 626.129 83.3506 619.978C74.5697 613.834 83.7382 522.638 89.0051 498.924C94.272 475.21 95.2074 249.991 104.443 237.67C113.207 225.974 172.314 226.1 172.314 226.1H172.323Z" fill="#414042"/>
<path d="M263.158 230.389C260.166 224.322 257.47 218.17 254.908 211.909C253.416 208.252 244.484 215.035 242.739 215.971C237.826 218.608 232.686 220.808 227.394 222.544C226.079 222.974 224.706 223.395 223.593 224.246C222.321 225.215 222.515 225.788 223.071 227.196C224.301 230.305 225.59 233.389 226.913 236.465C228.178 239.398 229.484 242.314 230.832 245.213C234.54 253.184 238.324 261.274 242.891 268.783C243.388 269.6 244.585 270.266 245.478 269.533C249.009 266.659 250.863 262.294 253.029 258.367C256.121 252.755 259.113 247.083 261.666 241.201C263.546 236.87 265.248 234.595 263.166 230.381L263.158 230.389Z" fill="#D6D6D6"/>
<path d="M212.444 225.258C212.183 224.684 211.728 224.213 211.029 223.985C201.708 220.934 195.557 213.013 188.672 206.482C187.155 205.05 185.107 205.757 184.517 207.704C182.225 215.314 177.573 221.625 170.747 225.755C165.936 228.662 165.295 231.249 167.107 236.887C170.958 248.904 181.492 262.117 192.371 268.404C193.576 269.103 195.321 268.766 195.919 267.367C198.919 260.314 202.062 253.319 205.399 246.418C208.45 240.106 212.267 233.954 214.484 227.288C214.897 226.05 213.523 224.777 212.444 225.266V225.258Z" fill="#D6D6D6"/>
<path d="M104.023 374.095C102.194 411.873 97.7614 449.685 94.0957 487.32C92.3007 505.767 89.4861 524.416 88.8204 542.921C88.1125 562.489 90.885 581.466 94.0114 600.713C94.6266 604.531 89.7558 606.385 88.4917 602.407C76.8709 565.699 81.9439 526 86.2501 488.542C90.6575 450.25 94.3064 411.612 100.559 373.572C100.913 371.398 104.115 371.963 104.014 374.095H104.023Z" fill="#6D6E71"/>
<path d="M324.481 364.547C329.461 399.73 332.301 435.165 334.172 470.643C335.124 488.694 335.782 506.769 336.077 524.845C336.211 533.466 336.38 542.104 336.279 550.725C336.178 559.388 336.506 568.632 335.023 577.177C334.678 579.174 331.568 579.25 331.282 577.177C330.144 568.944 330.65 560.272 330.506 551.955C330.355 542.921 330.49 533.879 330.372 524.845C330.136 507.182 329.681 489.528 328.922 471.873C327.397 436.193 324.422 400.598 321.397 365.011C321.237 363.123 324.211 362.584 324.49 364.547H324.481Z" fill="#6D6E71"/>
<path d="M197.174 273.569C201.042 278.482 204.944 283.361 208.795 288.291C212.343 292.833 215.882 299.499 220.349 303.114C221.604 305.794 223.804 306.224 226.955 304.412C228 303.434 229.02 302.44 230.031 301.437C232.054 299.423 234.009 297.333 235.896 295.193C239.646 290.937 243.16 286.463 246.776 282.097C248.385 280.142 250.955 282.822 249.868 284.743C246.203 291.232 241.728 296.929 236.638 302.381C233.638 305.592 228.354 313.05 223.239 312.376C221.023 312.089 219.632 310.488 218.25 308.912C215.174 305.406 212.528 301.361 209.722 297.637C204.514 290.718 199.424 283.724 194.36 276.704C192.902 274.682 195.405 271.311 197.183 273.569H197.174Z" fill="#6D6E71"/>
<path d="M141.759 492.915C167.259 509.045 193.796 523.665 220.829 537.064C247.897 550.489 276.186 561.14 303.355 574.295C305.706 575.432 304.181 579.621 301.594 578.93C272.681 571.219 245.049 557.534 218.512 543.907C191.225 529.893 165.11 513.983 139.72 496.792C137.596 495.351 139.383 491.415 141.759 492.915Z" fill="#6D6E71"/>
<path d="M308.672 464.07C301.981 476.955 288.952 486.342 276.287 492.789C267.421 497.306 258.396 501.258 248.916 504.309C243.48 506.062 238.053 507.427 232.458 508.539C227.343 509.559 222.152 511.093 216.986 510.107C213.607 509.458 213.379 503.955 216.076 502.379C220.272 499.927 225.236 499.505 229.93 498.359C234.767 497.18 239.579 495.899 244.399 494.643C253.323 492.309 262.45 489.705 270.919 486.064C283.475 480.671 297.438 473.66 304.635 461.441C306.346 458.542 310.096 461.306 308.672 464.061V464.07Z" fill="#6D6E71"/>
<path d="M350.377 464.163C356.335 462.182 362.891 464.685 368.529 466.809C375.565 469.455 382.458 472.505 389.385 475.404C392.714 476.803 391.568 482.904 387.852 481.598C376.163 477.511 364.998 473.66 352.475 476.222C349.568 476.82 348.523 472.269 351.287 471.444C363.877 467.668 377.368 471.09 389.385 475.404C388.871 477.469 388.357 479.534 387.852 481.598C381.599 478.918 375.371 476.188 369.127 473.483C362.958 470.812 356.672 469.826 350.377 467.761C348.759 467.23 348.767 464.702 350.377 464.163Z" fill="#6D6E71"/>
<path d="M77.2246 454.648C71.983 450.039 61.8453 439.851 53.8734 443.618C53.7217 442.303 53.5616 440.988 53.4099 439.674C60.9942 442.109 68.1824 445.345 75.0504 449.39C76.3313 450.14 76.3313 452.365 75.0504 453.115C68.6206 456.882 60.6908 457.059 54.8004 461.786C52.9886 463.244 50.9239 459.899 52.5082 458.491C58.4155 453.25 66.4717 453.266 73.0869 449.39V453.115C66.5139 449.247 59.6375 446.171 52.3734 443.837C50.8734 443.356 50.3003 440.651 51.9099 439.893C61.3903 435.41 74.6543 444.814 79.4409 452.744C80.3341 454.219 78.5055 455.786 77.2161 454.648H77.2246Z" fill="#6D6E71"/>
<path d="M330.329 258.224C327.152 263.819 327.135 271.85 326.596 278.137C326.048 284.541 326.369 291.19 325.172 297.502C324.708 299.937 321.211 299.895 320.723 297.502C319.012 289.159 320.402 279.839 321.506 271.471C322.13 266.735 322.037 256.353 327.987 254.836C329.874 254.356 331.239 256.614 330.329 258.224Z" fill="#6D6E71"/>
<path d="M123.515 242.668C116.284 244.437 115.728 256.707 115.164 262.749C114.557 269.187 114.65 276.03 112.939 282.266C112.147 285.148 108.692 284.272 108.456 281.592C107.908 275.457 109.02 268.875 109.661 262.749C110.149 258.08 110.714 253.462 112.298 249.013C113.857 244.639 118.568 235.783 123.97 240.771C124.534 241.286 124.282 242.482 123.515 242.676V242.668Z" fill="#6D6E71"/>
</svg>
