<svg width="478" height="1294" viewBox="0 0 478 1294" fill="none" xmlns="http://www.w3.org/2000/svg">
<g clip-path="url(#clip0_1209_5695)">
<path d="M312.318 145.432C309.889 163.462 308.09 180.389 301.072 188.348C291.047 199.709 288.323 199.077 265.509 203.85C280.848 211.272 352.027 218.155 404.056 191.535C365.085 188.348 360.965 182.607 360.442 173.747C359.918 164.887 358.281 136.949 358.281 136.949L312.331 145.446L312.318 145.432Z" fill="#DE7F4C"/>
<path d="M305.339 27.7366C301.273 34.7951 290.872 60.6226 289.839 77.5631C289.839 77.5631 288.282 82.1746 275.654 99.9218C273.802 102.53 281.129 106.254 280.807 109.212C279.599 120.573 278.137 139.396 281.129 144.29C285.102 150.77 300.776 156.928 337.144 151.308C366.869 146.71 358.267 142.77 379.296 118.852C400.325 94.9338 401.976 71.2844 379.887 43.7897C357.797 16.2951 313.901 12.8667 305.325 27.7366H305.339Z" fill="#DE7F4C"/>
<path d="M403.077 65.6106C402.996 59.426 404.996 53.9405 402.11 48.1189C398.876 41.5847 392.502 36.516 385.282 35.2522C383 34.8623 380.625 34.7816 378.532 33.8271C373.982 31.7431 372.197 26.3383 368.95 22.5334C365.112 18.016 359.274 15.8514 353.691 13.8481C351.155 12.9338 348.565 12.0196 345.867 11.9792C342.432 11.9389 339.117 13.3237 335.682 13.3372C328.032 13.3775 318.907 5.22995 312.331 1.6133C311.137 0.954505 309.915 0.295709 308.573 0.0805921C304.923 -0.497535 301.635 2.35276 299.448 5.33751C294.281 12.396 290.792 24.0258 291.342 32.8321C292.067 44.5964 299.179 48.5357 309.11 52.4481C317.833 55.8765 323.416 61.4561 324.208 71.1767C324.758 77.8319 324.167 83.4384 323.751 89.9726C323.55 93.1456 325.214 96.9908 328.381 97.179C332.582 97.4345 334.85 91.3171 339.05 91.102C340.634 91.0213 342.137 91.8414 343.371 92.8498C346.498 95.3774 348.551 99.5453 347.612 103.458C346.391 108.567 340.889 111.283 335.843 112.735C334.675 113.071 333.414 113.434 332.702 114.415C332.219 115.074 332.072 115.908 331.924 116.714C330.622 124.055 326.556 134.233 329.763 141.56C332.515 147.826 338.486 151.16 345.237 150.34C349.437 149.829 353.356 148 357.046 145.957C364.588 141.762 371.352 137.755 377.471 131.571C383.135 125.843 387.872 119.242 391.683 112.143C399.279 97.9588 403.291 81.7175 403.09 65.624L403.077 65.6106Z" fill="#333333"/>
<path d="M283.961 127.578C284.753 127.47 285.544 127.363 286.309 127.174C286.953 127.013 287.598 126.865 288.242 126.731C288.886 126.596 289.544 126.502 290.188 126.381C290.644 126.3 291.154 126.287 291.543 126.005C291.208 126.26 291.409 126.112 291.61 126.058C291.825 126.018 292.026 125.924 292.214 125.803C291.973 125.911 291.959 125.924 292.16 125.857C293.1 125.548 293.583 124.553 293.462 123.612C293.341 122.63 292.657 121.931 291.677 121.837C291.463 121.81 291.489 121.823 291.758 121.837C291.57 121.783 291.369 121.756 291.167 121.756C290.993 121.756 290.832 121.756 290.657 121.756C290.832 121.783 291.006 121.81 291.194 121.837C290.926 121.783 290.657 121.716 290.376 121.743C290.147 121.756 289.906 121.81 289.664 121.85C289.302 121.904 288.953 121.958 288.604 122.025C288 122.146 287.41 122.28 286.819 122.428C286.256 122.576 285.679 122.724 285.128 122.899C284.417 123.114 283.719 123.477 283.075 123.84C282.35 124.23 282.042 125.359 282.256 126.112C282.35 126.435 282.498 126.731 282.713 127C282.968 127.309 283.558 127.645 283.974 127.591L283.961 127.578Z" fill="#333333"/>
<path d="M337.01 99.6395C337.305 99.5453 337.614 99.4647 337.909 99.3706C338.124 99.3302 338.083 99.3302 337.801 99.3706C337.895 99.3706 337.976 99.3571 338.07 99.3437C338.204 99.3437 338.338 99.3437 338.472 99.3302C338.553 99.3302 338.982 99.3033 339.023 99.3571C338.741 99.3168 338.687 99.3033 338.835 99.3302C338.902 99.3302 338.969 99.3571 339.036 99.3706C339.211 99.4109 339.385 99.4781 339.56 99.5453C339.935 99.6663 339.224 99.3168 339.573 99.5453C339.721 99.6529 339.882 99.747 340.029 99.8546C340.351 100.083 339.761 99.5319 340.029 99.8546C340.096 99.9218 340.15 99.989 340.217 100.056C340.351 100.244 340.338 100.191 340.15 99.9352C340.15 99.9352 340.338 100.271 340.351 100.285C340.392 100.365 340.432 100.446 340.472 100.527C340.365 100.218 340.338 100.15 340.392 100.312C340.432 100.46 340.472 100.621 340.512 100.769C340.633 101.199 340.485 100.218 340.512 100.782C340.512 100.944 340.512 101.105 340.512 101.266C340.512 101.723 340.62 100.809 340.512 101.212C340.499 101.307 340.472 101.387 340.445 101.481C340.378 101.71 340.392 101.656 340.512 101.334C340.472 101.347 340.365 101.629 340.338 101.697C340.217 101.898 340.244 101.858 340.432 101.589C340.378 101.67 340.311 101.75 340.244 101.831C340.15 101.952 340.043 102.06 339.935 102.167C339.761 102.328 339.788 102.315 340.002 102.113C339.922 102.181 339.841 102.248 339.761 102.302C339.466 102.517 339.157 102.705 338.848 102.893C338.137 103.31 337.399 103.7 336.674 104.09C336.312 104.291 335.95 104.48 335.601 104.681C335.453 104.775 334.594 105.461 335.064 105.085C334.863 105.246 334.661 105.407 334.46 105.569C333.614 106.241 333.266 107.29 333.655 108.325C333.977 109.199 334.983 109.992 335.963 109.602C336.876 109.239 337.721 108.863 338.566 108.338C339.237 107.921 339.922 107.505 340.593 107.088C341.948 106.241 343.317 105.165 343.948 103.646C344.659 101.912 344.673 100.123 343.988 98.3756C343.398 96.8564 342.109 95.7001 340.579 95.1758C338.768 94.5439 336.688 94.8934 335.305 96.2379C334.071 97.448 335.198 100.164 337.037 99.5857L337.01 99.6395Z" fill="#C4643D"/>
<path d="M305.661 12.275C302.44 14.359 302.748 18.5403 303.084 21.8881C303.527 26.2576 304.359 30.5331 306.023 34.6069C308.908 41.6654 314.987 48.0517 322.865 48.8584C325.079 49.0869 325.442 45.1342 323.375 44.6232C317.39 43.1443 312.787 39.0974 310.129 33.5716C308.653 30.5062 307.794 27.1853 307.244 23.8376C306.989 22.2376 306.774 20.5974 306.68 18.984C306.627 17.9353 306.493 16.3757 307.419 15.6497C309.109 14.3186 307.741 10.9306 305.661 12.275Z" fill="#4D4D4D"/>
<path d="M321.537 28.0458C322.477 38.2101 331.817 44.1392 340.942 46.2635C343.506 46.8551 344.324 42.8754 341.976 42.0418C338.017 40.6301 333.964 39.2722 330.582 36.6773C327.885 34.6203 325.483 31.5145 325.107 28.0458C324.999 27.0643 324.449 26.0291 323.322 26.0291C322.329 26.0291 321.443 27.0509 321.537 28.0458Z" fill="#4D4D4D"/>
<path d="M354.604 34.1497C354.792 37.0134 356.442 38.9898 358.603 40.7376C360.777 42.4989 362.951 43.9913 364.642 46.2769C367.89 50.6733 369.003 56.2261 368.225 61.5771C367.876 63.9568 370.936 65.2072 371.661 62.6392C373.244 57.0327 372.023 50.6196 369.044 45.6988C367.541 43.2115 365.635 41.0334 363.327 39.2721C361.69 38.0218 358.281 36.516 358.053 34.1497C357.959 33.1951 357.409 32.2271 356.322 32.2136C355.355 32.2136 354.537 33.2085 354.59 34.1497H354.604Z" fill="#4D4D4D"/>
<path d="M389.092 51.0633C391.347 53.3758 391.897 57.0462 391.226 60.1385C390.394 64.0106 387.925 66.955 385.563 69.9801C384.959 70.7599 384.825 71.849 385.415 72.6691C385.912 73.3682 386.999 73.8119 387.764 73.1934C395.011 67.3718 398.983 55.5807 391.575 48.2533C389.79 46.4786 387.496 49.4096 389.092 51.0498V51.0633Z" fill="#4D4D4D"/>
<path d="M307.473 155.583C309.419 155.408 311.391 154.978 313.257 154.413C314.169 154.145 315.082 153.849 315.968 153.526C317.055 153.136 318.155 152.787 318.974 151.94C319.537 151.362 319.618 150.393 319.349 149.681C319.068 148.928 318.464 148.484 317.672 148.417C316.733 148.336 315.82 148.78 314.961 149.103C314.062 149.439 313.176 149.775 312.277 150.084C311.405 150.393 310.519 150.716 309.62 150.972C309.204 151.093 308.775 151.187 308.359 151.281C308.171 151.321 307.983 151.362 307.795 151.402C307.674 151.429 307.567 151.442 307.446 151.456C307.178 151.509 307.916 151.388 307.473 151.456C306.426 151.59 305.581 152.41 305.634 153.526C305.675 154.467 306.359 155.691 307.473 155.597V155.583Z" fill="#C4643D"/>
<path d="M462.527 326.4C471.076 356.22 480.456 386.632 476.054 406.948C467.815 445.104 432.292 511.884 421.006 530.882C411.411 547.029 397.4 563.822 388.704 545.806C380.008 527.79 418.094 406.101 418.094 366.788C418.094 327.475 456.045 303.826 462.527 326.413V326.4Z" fill="#DE7F4C"/>
<path d="M433.849 1119.86C435.137 1126.26 436.6 1136.13 435.647 1138.59C434.694 1141.05 383.497 1140.31 373.298 1141.28C363.985 1142.16 314.505 1145.32 304.333 1136.21C302.119 1134.23 302.038 1122.91 302.508 1120.83C302.977 1118.74 433.849 1119.86 433.849 1119.86Z" fill="#FAE7D4"/>
<path d="M426.4 1080.87C431.191 1081.8 435.741 1111.42 434.144 1118.19C435.137 1127.04 396.877 1130.59 372.761 1129.59C348.632 1128.6 297.636 1129.87 302.507 1120.81C306.171 1110.77 341.533 1099.77 345.062 1097.69C348.592 1095.62 371.741 1081.73 371.741 1081.73C371.741 1081.73 417.288 1079.09 426.4 1080.86V1080.87Z" fill="#993C20"/>
<path d="M431.38 1097.02C428.32 1095.86 424.468 1097.65 421.878 1099.22C419.074 1100.93 416.779 1103.42 414.9 1106.09C412.927 1108.9 411.223 1111.94 409.854 1115.1C409.156 1116.73 408.512 1118.41 408.083 1120.13C407.573 1122.21 407.09 1124.77 408.23 1126.73C409.062 1128.17 411.33 1128.99 412.511 1127.35C413.612 1125.83 413.746 1124.24 414.122 1122.47C414.39 1121.18 414.766 1119.82 415.209 1118.62C416.229 1115.85 417.611 1113.15 419.127 1110.64C420.456 1108.43 422.053 1106.39 424.039 1104.72C425.005 1103.91 426.132 1103.16 427.313 1102.7C428.629 1102.18 430.078 1102.03 431.38 1101.45C433.258 1100.62 433.433 1097.78 431.38 1097V1097.02Z" fill="#FAE7D4"/>
<path d="M370.829 1092.58C368.668 1091.1 366.467 1089.69 364.172 1088.41C363.622 1088.1 363.005 1087.95 362.374 1088.14C361.81 1088.32 361.233 1088.81 360.978 1089.35C360.683 1089.97 360.549 1090.7 360.75 1091.37C360.911 1091.95 361.247 1092.66 361.824 1092.93C364.172 1094.07 366.481 1095.29 368.722 1096.64C369.728 1097.24 371.07 1096.88 371.58 1095.79C372.104 1094.69 371.875 1093.29 370.829 1092.58Z" fill="#FAE7D4"/>
<path d="M363.407 1098.45C362.387 1097.33 361.179 1096.36 359.891 1095.54C359.354 1095.19 358.777 1094.88 358.213 1094.6C357.771 1094.38 357.314 1094.14 356.858 1093.95C356.281 1093.72 355.556 1093.76 354.993 1094.02C354.362 1094.3 353.946 1094.66 353.704 1095.32C353.463 1095.97 353.476 1096.69 353.798 1097.33C353.946 1097.61 354.147 1097.9 354.335 1098.15C354.684 1098.59 355.154 1098.82 355.664 1099.02C356.026 1099.17 356.375 1099.31 356.737 1099.49C356.549 1099.41 356.375 1099.31 356.187 1099.23C357.865 1100.03 359.408 1101.04 360.951 1102.04C361.85 1102.64 362.978 1102.31 363.568 1101.45C364.172 1100.57 364.145 1099.26 363.407 1098.45Z" fill="#FAE7D4"/>
<path d="M355.194 1101.48C354.604 1100.95 354.013 1100.42 353.355 1099.96C352.819 1099.58 352.268 1099.22 351.718 1098.88C351.181 1098.56 350.645 1098.27 350.081 1097.98C349.665 1097.77 349.236 1097.58 348.82 1097.38C348.243 1097.11 347.504 1096.98 346.901 1097.23C346.203 1097.51 345.746 1097.96 345.478 1098.67C345.21 1099.38 345.223 1100.19 345.585 1100.87C345.975 1101.6 346.538 1102.03 347.276 1102.34C347.518 1102.43 347.759 1102.53 348.001 1102.64C348.484 1102.84 348.954 1103.05 349.423 1103.28C349.236 1103.2 349.061 1103.11 348.873 1103.03C350.188 1103.66 351.463 1104.38 352.711 1105.12C353.651 1105.67 354.738 1105.42 355.355 1104.53C355.623 1104.13 355.811 1103.63 355.798 1103.13C355.771 1102.58 355.637 1101.88 355.194 1101.51V1101.48Z" fill="#FAE7D4"/>
<path d="M423.729 1059.11L424.36 1027.72L377.162 1025.73L380.665 1059.11L383.711 1071.04H410.685L423.729 1059.11Z" fill="#DE7F4C"/>
<path d="M377.646 1081.42C374.358 1093.28 397.762 1091.91 404.365 1090.66C410.86 1089.42 424.71 1086.33 426.4 1080.87C424.32 1075.41 423.73 1059.11 423.73 1059.11C423.73 1059.11 411.625 1062.49 401.48 1062.3C388.556 1062.05 380.652 1059.11 380.652 1059.11C380.652 1059.11 378.572 1078.06 377.632 1081.42H377.646Z" fill="#FAE7D4"/>
<path d="M235.032 1130.33C235.542 1136.73 235.797 1146.6 234.535 1149.06C233.274 1151.52 182.171 1150.78 171.864 1151.75C162.443 1152.64 112.575 1155.8 103.516 1146.68C101.544 1144.7 102.859 1133.38 103.584 1131.3C104.308 1129.22 235.045 1130.33 235.045 1130.33H235.032Z" fill="#FAE7D4"/>
<path d="M232.348 1091.36C237.031 1092.28 237.944 1121.9 235.528 1128.68C235.435 1137.53 196.745 1141.07 172.737 1140.08C148.728 1139.08 97.5714 1140.36 103.57 1131.3C108.468 1121.26 145.172 1110.26 148.956 1108.18C152.741 1106.1 177.595 1092.22 177.595 1092.22C177.595 1092.22 223.477 1089.58 232.361 1091.34L232.348 1091.36Z" fill="#993C20"/>
<path d="M235.072 1107.5C231.919 1106.35 227.987 1108.18 225.262 1109.72C222.176 1111.47 219.532 1114.02 217.318 1116.77C215.077 1119.54 213.064 1122.57 211.346 1125.69C209.521 1129 207.226 1133.47 208.756 1137.23C209.48 1139.02 211.842 1139.13 213.037 1137.85C214.231 1136.56 214.526 1134.73 215.05 1133.1C215.479 1131.78 216.07 1130.49 216.714 1129.22C218.042 1126.58 219.586 1124 221.33 1121.61C223.035 1119.28 224.927 1117.1 227.208 1115.34C228.335 1114.48 229.584 1113.67 230.912 1113.19C232.268 1112.69 233.744 1112.52 235.072 1111.95C236.965 1111.15 237.126 1108.26 235.072 1107.5Z" fill="#FAE7D4"/>
<path d="M175.098 1103.05C173.112 1101.56 171.059 1100.16 168.925 1098.89C168.388 1098.56 167.744 1098.43 167.127 1098.62C166.563 1098.79 165.986 1099.29 165.731 1099.83C165.436 1100.44 165.302 1101.17 165.503 1101.84C165.678 1102.43 166 1103.12 166.577 1103.42C168.764 1104.55 170.911 1105.78 172.992 1107.13C173.971 1107.77 175.353 1107.34 175.85 1106.28C176.387 1105.14 176.118 1103.82 175.098 1103.07V1103.05Z" fill="#FAE7D4"/>
<path d="M167.006 1108.93C166.093 1107.79 164.939 1106.8 163.731 1105.98C163.222 1105.63 162.671 1105.31 162.121 1105.03C161.705 1104.81 161.276 1104.59 160.846 1104.41C160.054 1104.09 159.276 1104.37 158.578 1104.73C158.149 1104.95 157.746 1105.62 157.666 1106.08C157.545 1106.68 157.612 1107.25 157.867 1107.81C157.921 1107.92 157.988 1108.03 158.041 1108.14C158.216 1108.43 158.404 1108.67 158.659 1108.9C159.008 1109.21 158.994 1109.21 159.531 1109.44C159.813 1109.56 160.081 1109.68 160.35 1109.8C160.162 1109.71 159.987 1109.63 159.799 1109.53C161.504 1110.34 163.034 1111.43 164.564 1112.53C165.436 1113.16 166.617 1112.77 167.18 1111.94C167.811 1111.01 167.717 1109.8 167.019 1108.94L167.006 1108.93Z" fill="#FAE7D4"/>
<path d="M158.431 1111.95C157.438 1110.99 156.364 1110.11 155.196 1109.36C154.7 1109.04 154.19 1108.74 153.667 1108.46C153.412 1108.32 153.143 1108.19 152.888 1108.07C152.606 1107.93 152.338 1107.79 152.043 1107.68C151.64 1107.54 150.942 1107.53 150.553 1107.7C150.177 1107.83 149.842 1108.04 149.587 1108.34C149.372 1108.57 149.211 1108.83 149.131 1109.13C148.849 1109.88 148.916 1110.61 149.238 1111.33C149.439 1111.78 149.842 1112.21 150.244 1112.48C150.526 1112.67 150.862 1112.77 151.184 1112.91C151.506 1113.04 151.815 1113.18 152.123 1113.32C151.935 1113.23 151.761 1113.15 151.573 1113.06C153.089 1113.78 154.539 1114.64 155.948 1115.56C156.86 1116.15 158.001 1115.83 158.592 1114.96C159.182 1114.1 159.222 1112.71 158.431 1111.94V1111.95Z" fill="#FAE7D4"/>
<path d="M232.348 1069.59L236.83 1038.19L189.874 1036.21L189.283 1069.59L190.867 1081.51H217.854L232.348 1069.59Z" fill="#DE7F4C"/>
<path d="M183.539 1091.91C178.802 1103.77 202.367 1102.39 209.131 1101.14C215.787 1099.91 230.012 1096.81 232.361 1091.36C230.952 1085.9 232.361 1069.6 232.361 1069.6C232.361 1069.6 219.84 1072.98 209.722 1072.79C196.825 1072.53 189.296 1069.6 189.296 1069.6C189.296 1069.6 184.895 1088.55 183.553 1091.91H183.539Z" fill="#FAE7D4"/>
<path d="M202.247 553.59C191.511 631.664 178.815 739.774 178.815 808.141V1052.98C189.296 1074.75 237.407 1066.76 243.902 1061.41C260.033 1048.1 283.545 814.513 283.545 814.513C283.545 814.513 336.809 587.162 334.769 564.911C332.742 542.646 202.233 553.617 202.233 553.617L202.247 553.59Z" fill="#393939"/>
<path d="M417.261 550.888C418.442 617.346 411.169 752.869 418.442 812.9C426.4 878.619 432.292 1048.39 432.292 1048.39C412.779 1061.79 364.454 1059.85 361.851 1055.44C359.448 1051.38 324.811 888.689 318.464 821.908C312.116 755.128 278.378 560.017 296.911 549.059C315.444 538.102 417.261 550.888 417.261 550.888Z" fill="#393939"/>
<path d="M303.487 184.933C307.728 189.276 330.622 188.59 341.117 186.896C355.758 184.516 361.434 178.668 361.434 178.668C361.434 178.668 404.056 185.31 418.442 200.812C437.968 221.839 479.543 350.264 477.946 369.342C476.363 388.42 422.401 399.553 420.818 393.987C419.234 388.42 411.29 455.994 418.442 488.584C425.582 521.174 426.857 573.717 419.704 583.263C408.552 598.159 363.354 592.002 338.312 595.981C313.27 599.961 284.028 597.366 249.11 596.56C214.191 595.766 197.859 589.541 198.65 577.616C199.442 565.69 238.32 343.905 236.736 314.501C235.153 285.084 234.361 205.598 246.264 201.618C258.168 197.639 303.487 184.96 303.487 184.96V184.933Z" fill="#3E1E0F"/>
<path d="M303.286 724.353C315.793 697.087 327.804 669.256 336.93 640.645C337.695 638.239 334.058 636.155 332.971 638.763C321.47 666.325 311.069 694.344 299.622 721.933C298.562 724.474 301.971 727.189 303.286 724.339V724.353Z" fill="#2E2E2E"/>
<path d="M316.598 692.22C325.603 711.795 328.421 733.159 329.951 754.456C330.703 764.996 331.199 775.564 332.098 786.091C333.091 797.829 334.554 809.526 336.299 821.169C339.788 844.455 344.539 867.54 349.491 890.544C354.51 913.871 359.663 937.184 364.749 960.497C370.493 986.795 376.062 1013.15 381.792 1039.46C382.396 1042.26 386.14 1040.92 385.563 1038.29C375.485 991.138 365.232 944.027 355.234 896.85C350.323 873.644 345.572 850.398 341.949 826.95C338.459 804.376 336.634 781.762 335.118 758.987C333.548 735.472 331.239 711.083 320.114 689.88C318.719 687.218 315.471 689.759 316.585 692.206L316.598 692.22Z" fill="#2E2E2E"/>
<path d="M370.546 1042.54C379.108 1040.67 387.751 1040.09 396.5 1040.53C400.768 1040.75 405.022 1041.17 409.263 1041.69C411.316 1041.95 413.356 1042.21 415.409 1042.5C417.69 1042.81 420.079 1043.4 422.387 1043.17C424.655 1042.94 424.937 1039.75 422.897 1038.92C420.831 1038.07 418.482 1037.94 416.281 1037.63C413.946 1037.31 411.611 1036.98 409.263 1036.72C404.874 1036.21 400.473 1035.82 396.071 1035.65C387.187 1035.32 378.115 1035.88 369.58 1038.56C367.339 1039.26 368.157 1043.05 370.546 1042.52V1042.54Z" fill="#2E2E2E"/>
<path d="M192.302 1049.72C198.918 1051.01 205.762 1051.46 212.459 1052.1C219.263 1052.74 226.107 1053.59 232.938 1053.82C236.011 1053.93 235.823 1049.04 232.938 1048.65C226.295 1047.74 219.531 1047.42 212.848 1046.92C206.192 1046.42 199.428 1045.68 192.759 1045.86C190.799 1045.91 190.289 1049.34 192.289 1049.73L192.302 1049.72Z" fill="#2E2E2E"/>
<path d="M219.049 604.317C212.514 631.099 206.099 657.989 202.408 685.349C198.678 713.019 198.463 740.97 198.973 768.842C200.02 825.337 201.845 881.832 203.173 938.313C203.549 954.178 203.925 970.043 204.301 985.908C204.676 1001.91 204.609 1017.99 205.441 1033.97C205.575 1036.62 209.185 1036.68 209.185 1033.97C209.226 1019.67 208.447 1005.34 208.085 991.044C207.723 977.048 207.36 963.038 206.998 949.042C206.273 920.728 205.576 892.426 204.905 864.111C204.234 836.187 203.509 808.248 202.905 780.323C202.301 752.479 202.288 724.554 205.401 696.831C208.877 665.989 216.083 635.765 223.169 605.595C223.84 602.717 219.787 601.279 219.036 604.317H219.049Z" fill="#2E2E2E"/>
<path d="M261.255 745.152C263.898 742.933 266.22 740.325 268.649 737.878C271.105 735.391 273.467 732.809 275.761 730.188C280.365 724.944 284.927 719.58 288.926 713.852C289.691 712.763 289.879 711.311 288.926 710.236C288.108 709.321 286.524 709.2 285.719 710.236C281.465 715.681 277.358 721.22 272.89 726.517C270.689 729.126 268.448 731.68 266.206 734.248C263.898 736.883 261.348 739.317 259.107 742.006C257.926 743.417 259.47 746.658 261.255 745.152Z" fill="#2E2E2E"/>
<path d="M271.48 755.76C277.506 747.693 283.29 739.438 288.899 731.088C290.174 729.193 287.262 726.262 285.746 728.346C279.814 736.493 274.057 744.762 268.528 753.192C267.36 754.98 270.031 757.696 271.48 755.76Z" fill="#2E2E2E"/>
<path d="M408.592 813.599C397.614 808.208 384.436 807.334 373.029 811.986C370.479 813.021 371.392 817.754 374.196 816.745C384.973 812.86 396.554 813.021 407.116 817.552C409.236 818.453 410.511 814.54 408.592 813.599Z" fill="#2E2E2E"/>
<path d="M233.985 823.885C238.333 823.427 242.762 823.414 247.083 824.1C249.23 824.436 251.35 824.947 253.43 825.579C254.464 825.888 255.511 826.211 256.53 826.574C257.604 826.95 258.678 827.528 259.791 827.77C262.301 828.335 263.24 824.88 261.388 823.508C259.59 822.177 256.987 821.384 254.866 820.739C252.518 820.013 250.116 819.542 247.687 819.179C242.936 818.493 238.185 818.56 233.462 819.354C231.207 819.73 231.65 824.113 233.998 823.871L233.985 823.885Z" fill="#2E2E2E"/>
<path d="M303.326 195.689C313.351 198.741 323.791 200.032 334.245 199.225C339.291 198.835 344.31 198.029 349.222 196.792C354.214 195.528 359.824 194.022 364.024 190.97C365.836 189.652 364.923 186.251 362.468 186.816C357.784 187.891 353.369 190.069 348.699 191.32C343.827 192.624 338.862 193.484 333.829 193.874C323.966 194.64 313.968 193.78 304.426 191.131C301.702 190.378 300.736 194.909 303.312 195.689H303.326Z" fill="#673319"/>
<path d="M423.408 378.552C430.574 378.66 437.713 377.638 444.504 375.339C451.133 373.093 458.058 369.826 463.131 364.919C464.929 363.171 462.795 359.514 460.433 360.993C454.717 364.542 449.362 368.173 442.974 370.472C436.68 372.717 430.078 374.008 423.394 374.129C420.818 374.169 420.818 378.525 423.394 378.565L423.408 378.552Z" fill="#673319"/>
<path d="M407.585 273.589C411.302 290.717 413.812 308.142 415.234 325.606C415.946 334.305 416.389 343.017 416.536 351.743C416.603 355.951 416.603 360.173 416.576 364.381C416.55 368.885 416.174 373.416 416.321 377.907C416.402 380.354 420.106 381.308 420.468 378.539C421.596 369.759 421.341 360.576 421.193 351.743C421.032 342.87 420.589 333.996 419.797 325.149C418.227 307.375 415.315 289.803 411.316 272.432C410.685 269.676 407.021 270.98 407.585 273.589Z" fill="#673319"/>
<path d="M373.297 180.335C374.411 207.292 356.925 270.483 326.489 305.883C296.052 341.283 221.129 406.517 221.129 406.517L214.298 467.1C214.298 467.1 300.186 407.62 333.454 354.58C403.694 242.625 396.058 187.73 396.058 187.73L373.297 180.349V180.335Z" fill="#393939"/>
<path d="M226.617 348.651C214.244 395.371 205.897 427.424 173.998 466.347C142.112 505.256 78.3669 556.508 76.3808 559.197C59.6193 581.864 32.8465 587.915 25.8815 582.16C18.7421 576.271 0.77279 556.951 9.21394 546.975C14.394 540.858 61.0284 529.564 68.9998 522.734C76.9713 515.891 141.964 388.999 150.043 367.178C158.122 345.343 203.843 260.049 215.854 269.891C227.852 279.733 232.602 326.104 226.631 348.678L226.617 348.651Z" fill="#DE7F4C"/>
<path d="M251.283 200.435C221.397 204.993 199.683 226.276 175.245 271.639C150.808 317.002 127.189 373.376 132.181 381.093C140.488 393.919 197.871 405.764 210.245 403.721C216.807 402.632 235.166 352.348 252.222 302.656C269.279 252.964 261.952 198.808 251.283 200.435Z" fill="#3E1E0F"/>
<path d="M247.392 225.362C263.321 242.06 260.409 266.92 254.518 287.208C247.593 311.046 238.977 334.52 230.442 357.82C228 364.489 225.53 371.144 222.981 377.759C220.431 384.374 217.519 390.921 215.318 397.644C214.432 400.36 218.445 402.618 219.76 399.755C222.524 393.745 224.631 387.358 226.953 381.16C229.194 375.151 231.449 369.141 233.663 363.131C238.199 350.802 242.601 338.433 246.868 326.01C251.069 313.762 255.363 301.5 259 289.063C262.314 277.689 264.797 265.737 263.831 253.825C262.878 242.06 258.812 230.525 250.344 222.081C248.237 219.984 245.553 223.439 247.405 225.389L247.392 225.362Z" fill="#673319"/>
<path d="M139.724 368.482C146.595 378.996 158.659 383.191 170.496 385.18C177.501 386.364 184.6 387.036 191.511 388.757C198.168 390.41 204.69 392.857 210.876 395.829C213.345 397.012 215.117 393.288 212.889 391.943C207.347 388.595 201.429 386.014 195.175 384.306C188.599 382.505 181.822 381.725 175.085 380.784C163.209 379.13 150.084 376.32 142.703 365.901C141.307 363.924 138.529 366.667 139.724 368.495V368.482Z" fill="#673319"/>
<path d="M390.743 423.941C387.912 438.153 385.711 452.458 382.571 466.615C379.43 480.786 375.579 494.742 371.902 508.765C371.123 511.736 375.203 513.148 376.169 510.082C380.571 496.127 383.913 481.794 386.972 467.503C390.005 453.345 393.011 438.932 394.461 424.506C394.689 422.207 391.227 421.602 390.757 423.941H390.743Z" fill="#673319"/>
<path d="M395.951 482.171C394.381 488.194 393.039 494.271 391.952 500.402C390.878 506.466 389.791 512.677 389.67 518.849C389.63 521.094 392.891 521.78 393.334 519.413C394.461 513.43 395.079 507.353 396.152 501.357C397.239 495.347 398.568 489.391 400.111 483.475C400.863 480.571 396.729 479.119 395.937 482.185L395.951 482.171Z" fill="#673319"/>
<path d="M446.355 303.637C443.564 314.071 440.142 324.302 436.143 334.332C432.171 344.308 427.286 353.814 422.83 363.561C421.757 365.914 424.696 368.24 426.212 365.793C431.956 356.489 436.25 346.163 440.169 335.972C444.087 325.795 447.362 315.361 450.059 304.794C450.717 302.226 447.08 300.935 446.355 303.651V303.637Z" fill="#673319"/>
</g>
<g clip-path="url(#clip1_1209_5695)">
<path d="M104.499 377.624L42.8852 543.265C35.8282 566.879 31.3497 589.372 30.5693 614.006L52.3851 724.773L73.5562 745.635L84.6167 600.993L120.343 464.946C128.52 438.614 124.788 410.004 110.131 386.628L104.499 377.658V377.624Z" fill="#D18456"/>
<path d="M222.636 793.951C228.064 792.932 180.158 995.812 180.158 995.812L60.0865 1208.51L33.9619 1190.84L79.8326 1045.32C88.4164 1019.43 102.089 995.506 120.037 974.984C120.037 974.984 137.951 750.936 138.562 745.329C139.173 739.757 222.67 793.951 222.67 793.951H222.636Z" fill="#D18456"/>
<path d="M33.9273 1190.84L28.7363 1194.92C20.1525 1201.61 13.6044 1210.62 9.8723 1220.88C8.48125 1224.72 9.66873 1229 12.824 1231.55L90.0104 1292L90.4853 1290.47C93.7764 1279.8 92.6567 1268.24 87.2961 1258.46L60.0858 1208.51L33.9612 1190.84H33.9273Z" fill="#D18456"/>
<path d="M90.4856 1290.43C93.7766 1279.76 92.657 1268.21 87.2964 1258.43L66.4306 1220.13C65.7181 1219.96 65.0056 1219.72 64.2931 1219.42C50.8237 1213.64 38.8471 1205.35 29.3812 1194.38L28.7705 1194.85C20.1867 1201.55 13.6386 1210.55 9.90648 1220.81C8.51543 1224.65 9.70291 1228.93 12.8582 1231.48L90.0445 1291.93L90.5195 1290.4L90.4856 1290.43Z" fill="#E6EBFF"/>
<path d="M11.1281 1217.89L4.03711 1229.54L85.4644 1293.18C87.2965 1294.61 89.9769 1294.17 91.2322 1292.2L93.7429 1288.26C94.8286 1286.56 94.4554 1284.32 92.8607 1283.06L11.1281 1217.89Z" fill="#1F1F1F"/>
<path d="M264.944 794.155C268.812 790.214 281.773 996.798 281.773 996.798L298.16 1240.99L266.81 1244.39L227.793 1094.93C220.057 1068.76 217.581 1041.31 220.566 1014.19C220.566 1014.19 170.896 807.441 168.215 802.514C165.535 797.587 264.978 794.189 264.978 794.189L264.944 794.155Z" fill="#D18456"/>
<path d="M266.776 1244.39L265.419 1250.85C263.18 1261.52 263.96 1272.63 267.726 1282.86C269.117 1286.66 272.781 1289.18 276.853 1289.11L374.769 1285.4L374.158 1283.94C369.816 1273.65 361.503 1265.56 351.087 1261.55L298.126 1241L266.776 1244.39Z" fill="#D18456"/>
<path d="M374.192 1283.94C369.85 1273.65 361.537 1265.56 351.121 1261.55L310.509 1245.79C309.865 1246.13 309.152 1246.4 308.406 1246.64C294.394 1250.95 279.906 1252.31 265.589 1250.07L265.419 1250.85C263.18 1261.52 263.96 1272.63 267.726 1282.86C269.117 1286.66 272.781 1289.18 276.853 1289.11L374.769 1285.4L374.158 1283.94H374.192Z" fill="#E6EBFF"/>
<path d="M266.776 1279.8L267.93 1293.32L370.698 1289.35C373.853 1289.21 376.33 1286.52 376.16 1283.37L376.093 1281.6C375.957 1278.47 373.31 1276.06 370.189 1276.16L266.776 1279.76V1279.8Z" fill="#1F1F1F"/>
<path d="M269.219 679.413C267.523 661.405 262.841 643.906 260.093 626.136C255.886 598.75 252.561 570.447 257.107 542.857C259.584 527.771 265.962 513.908 269.525 499.128C273.223 483.838 272.884 467.732 270.203 452.307C268.032 439.769 264.334 427.537 260.161 415.543C256.802 405.927 254.495 391.453 247.777 383.74C245.979 381.701 243.977 379.832 242.145 377.828C238.65 373.954 235.393 370.183 230.779 367.6C223.111 363.285 214.12 361.994 205.672 359.989C178.326 353.5 118.375 353.941 96.6275 376.129C79.7652 393.355 89.4347 416.732 89.8419 439.973C90.9615 506.569 143.584 564.433 128.35 632.388C125.025 647.202 119.325 661.405 115.899 676.185C115.016 679.957 114.338 684.034 115.899 687.602C118.816 694.227 127.536 695.416 134.763 695.654C168.284 696.708 201.804 697.727 235.291 698.78C241.161 698.95 247.234 699.052 252.9 697.285C255.411 696.504 257.582 695.043 260.093 694.363C263.791 693.378 266.912 691.951 268.575 687.941C269.661 685.291 269.491 682.301 269.219 679.413Z" fill="#FFE380"/>
<path d="M260.126 626.136C259.007 618.865 257.955 611.526 257.107 604.187C247.098 606.361 236.886 607.754 227.148 608.875C213.068 610.506 198.886 611.288 184.704 611.73C166.485 612.307 149.012 608.841 131.132 606.565C131.166 615.025 130.352 623.656 128.384 632.422C125.059 647.236 119.359 661.439 115.932 676.219C115.05 679.991 114.371 684.068 115.932 687.636C118.85 694.261 127.569 695.45 134.796 695.688C168.317 696.742 201.838 697.761 235.325 698.814C241.194 698.984 247.268 699.086 252.934 697.319C255.444 696.538 257.616 695.077 260.126 694.397C263.824 693.412 266.946 691.985 268.608 687.975C269.694 685.325 269.524 682.335 269.253 679.447C267.557 661.439 262.875 643.94 260.126 626.17V626.136Z" fill="#AB8465"/>
<path d="M236.411 255.033C236.241 236.209 231.831 217.657 219.447 205.018C212.017 197.441 202.211 192.922 191.626 192.446C179.751 191.902 168.046 195.334 157.494 200.6C147.553 205.561 137.748 211.847 132.388 221.938C127.231 231.588 127.739 243.174 129.029 253.707C130.42 264.954 132.388 276.133 135.611 287.006C140.055 302.024 148.436 316.464 160.31 326.793C169.674 334.948 183.551 341.981 196.512 340.69C216.902 338.686 225.893 314.493 230.541 297.641C233.968 285.239 236.547 270.051 236.411 255.033Z" fill="#D18456"/>
<path d="M244.418 217.793C247.438 231.418 244.079 246.097 236.75 257.989C234.884 261.013 232.34 263.255 230.881 266.483C229.456 269.643 228.099 272.837 226.979 276.099C224.774 282.487 223.416 289.316 224.468 296.078C225.791 304.538 230.711 312.013 233.052 320.236C235.563 329.104 234.952 338.855 231.322 347.316C224.027 364.339 205.502 375.755 202.076 393.967C200.413 402.767 202.653 411.771 203.263 420.674C203.874 429.61 202.347 439.667 195.324 445.171C185.519 452.884 170.183 448.059 159.734 454.855C151.014 460.495 148.571 472.218 141.345 479.659C133.677 487.575 121.734 489.58 110.741 489.002C101.479 488.527 92.1828 486.42 84.1418 481.833C76.1009 477.246 69.3831 469.941 66.5671 461.107C64.4975 454.651 62.5975 450.098 58.2547 444.662C54.1155 439.463 49.5352 434.468 46.7192 428.386C41.3586 416.834 43.7675 402.835 50.7906 392.506C58.3904 381.395 72.1313 376.639 80.9865 366.683C87.365 359.514 90.4525 349.456 89.3328 339.977C88.6882 334.37 87.3311 329.172 88.8918 323.532C92.0471 312.013 105.042 305.829 109.893 294.922C113.32 287.209 112.675 276.982 110.47 268.997C109.35 264.886 109.181 260.231 108.706 255.95C108.197 251.363 107.858 246.742 108.061 242.121C108.197 238.384 108.706 234.68 109.622 231.044C116.034 205.731 140.021 187.383 165.298 183.714C181.142 181.437 197.733 184.699 211.508 192.854C215.647 195.3 220.363 198.494 224.875 200.974C229.049 203.285 236.988 204.508 240.414 207.532C241.093 208.144 241.5 208.959 241.839 209.808C242.959 212.391 243.807 215.075 244.418 217.793Z" fill="#3D2E09"/>
<path d="M0 1170.9C9.90699 1173.24 27.6514 1116.6 29.9585 1110.05C47.1939 1060.98 60.6634 1009 66.7365 957.282C72.5382 907.743 73.8953 857.83 79.0524 808.256C82.7505 773.021 88.9594 738.025 97.611 703.673C104.498 676.355 115.729 653.318 127.637 627.937L261.11 630.417C263.316 638.742 265.521 647.066 267.76 655.391C276.412 687.908 289.746 719.88 296.904 752.465C298.804 761.061 300.636 769.658 302.435 778.254C306.404 797.349 310.17 816.513 313.699 835.71C317.193 854.908 320.484 874.139 323.47 893.404C326.456 912.669 329.204 931.969 331.681 951.302C334.157 970.635 336.329 990.003 338.195 1009.4C340.095 1028.8 341.689 1048.24 342.945 1067.68C344.234 1087.14 345.218 1106.65 345.863 1126.12C346.202 1135.87 346.439 1145.65 346.575 1155.41C346.643 1160.3 346.711 1165.19 346.745 1170.05C346.779 1175.86 347.898 1181.53 347.83 1187.28C347.83 1189.76 347.729 1192.2 347.661 1194.68C347.389 1204.47 346.813 1214.29 345.964 1224.04C345.489 1229.44 344.777 1235.35 339.654 1238.38C335.04 1241.1 329.034 1241.27 323.843 1241.98C314.309 1243.27 304.81 1244.94 295.208 1245.79C290.899 1246.16 286.59 1246.36 282.247 1246.26C262.976 1245.75 244.011 1239.02 224.807 1240.69C212.729 1241.74 200.99 1246.19 191.218 1253.4C192.033 1245.45 192.847 1237.5 193.661 1229.54C194.679 1219.59 195.697 1209.67 196.715 1199.71C197.224 1194.75 197.733 1189.76 198.242 1184.8C198.445 1182.62 198.784 1180.51 199.124 1178.41C199.497 1175.96 199.124 1173.21 199.124 1170.73C199.09 1167.84 199.022 1164.95 198.954 1162.07C198.818 1156.29 198.649 1150.55 198.445 1144.77C197.563 1117.52 199.09 1089.9 198.717 1062.51C197.868 1004.68 193.22 946.613 193.967 888.817C192.915 972.98 192.304 1060.3 175.747 1143.11C170.59 1169.03 163.364 1194.62 152.982 1218.94C150.437 1224.89 148.062 1231.45 144.533 1236.88C141.921 1240.89 137.884 1242.8 133.168 1241.74C121.768 1239.19 115.763 1227.17 105.55 1222.55C95.6771 1218.06 84.1755 1218.71 74.1667 1214.56C64.5312 1210.59 57.2366 1202.6 49.2975 1195.8C35.1495 1183.74 18.0837 1175.08 0 1170.8L0 1170.9Z" fill="#B38C00"/>
<path d="M314.853 635.887C313.835 633.305 312.613 630.791 311.222 628.378C297.922 605.545 265.894 602.895 242.043 605.885C227.013 607.788 211.983 614.685 203.535 627.257C191.592 645.061 195.154 668.132 198.411 687.941C201.499 706.663 212.831 727.015 230.643 735.034C238.888 738.738 247.946 740.301 256.937 740.98C299.924 744.208 320.586 710.129 320.315 670.647C320.247 658.856 319.094 646.76 314.785 635.887H314.853Z" fill="#904723"/>
<path d="M62.0547 714.682L48.7549 728.578C46.1425 731.772 44.3104 735.578 43.4622 739.621L40.6461 763.066L35.4212 772.749L34.4373 777.982C34.098 779.885 36.5408 780.904 37.6944 779.375L47.0925 765.784L50.2138 754.639L47.2621 769.114L39.289 783.622L38.1015 789.16C37.9319 791.063 40.3747 791.981 41.4943 790.452L52.6906 776.657C52.6906 776.657 56.3888 758.479 56.6602 758.241L50.0442 780.598L43.6657 791.811L42.3425 799.592C42.139 801.223 44.2764 802.038 45.2264 800.713L58.3566 784.166L63.2422 767.653L59.3744 779.137L53.1656 791.199L52.6906 798.742C52.5888 800.373 54.7941 800.985 55.5066 799.524L68.0939 780.972L74.1671 759.226L74.4045 731.365L76.542 705.779L70.876 696.843L62.0547 714.749V714.682Z" fill="#D18456"/>
<path d="M221.618 392.574C221.618 392.574 216.597 456.894 221.686 475.955L236.445 545.677C241.839 571.84 248.048 588.999 265.555 608.739L377.11 685.529L391.631 667.589L294.903 544.216L272.442 428.896C268.337 410.242 261.517 396.04 253.951 385.337C241.33 367.43 221.516 370.488 221.55 392.574H221.618Z" fill="#D18456"/>
<path d="M370.528 677.748L383.047 695.62C386.033 699.256 389.867 702.076 394.176 703.911L419.622 712.167L429.257 720.118L434.855 722.361C436.891 723.142 438.587 720.662 437.095 719.031L424.032 705.576L412.327 699.664L427.798 706.085L442.184 718.147L448.087 720.662C450.157 721.273 451.718 718.759 450.259 717.162L437.366 701.668C437.366 701.668 417.959 693.582 417.756 693.242L441.166 705.474L452.226 715.022L460.607 718.181C462.371 718.759 463.762 716.585 462.473 715.225L446.9 696.979L429.596 687.941L441.505 694.771L453.55 704.319L461.828 706.493C463.626 706.969 464.78 704.658 463.321 703.503L445.407 685.427L422.573 673.909L391.665 667.555L368.865 648.527L352.546 663.953L370.562 677.68L370.528 677.748Z" fill="#D18456"/>
<path d="M222.229 249.324C226.945 243.786 231.152 236.175 228.675 228.7C228.438 227.918 227.216 228.258 227.454 229.04C229.727 235.869 225.961 242.869 221.652 248.033C217.513 253.028 212.356 257.241 208.929 262.813C207.199 265.634 206.079 268.726 205.638 271.987C205.197 275.385 205.468 278.851 206.113 282.215C207.47 289.418 210.32 296.247 211.677 303.485C213.238 311.775 212.356 320.439 209.234 328.254C208.929 329.002 210.15 329.342 210.456 328.594C213.238 321.629 214.29 313.984 213.408 306.509C212.559 299.203 209.811 292.306 208.047 285.205C207.199 281.739 206.554 278.205 206.656 274.604C206.758 271.07 207.674 267.638 209.37 264.512C212.593 258.634 217.886 254.353 222.161 249.324H222.229Z" fill="#1F1F1F"/>
<path d="M189.624 307.188C178.801 315.75 177.003 330.972 177.512 343.884C177.851 352.174 178.903 360.431 178.53 368.722C178.326 372.901 177.783 377.046 176.562 381.055C175.408 384.793 173.678 388.293 171.439 391.521C166.621 398.554 159.869 404.058 152.982 409.019C152.337 409.495 152.982 410.582 153.626 410.106C159.767 405.689 165.739 400.864 170.455 394.918C172.762 392.03 174.73 388.904 176.223 385.506C177.851 381.735 178.835 377.76 179.344 373.716C181.312 358.29 176.765 342.729 179.819 327.337C181.278 319.93 184.467 312.828 190.506 308.038C191.151 307.528 190.235 306.644 189.624 307.154V307.188Z" fill="#1F1F1F"/>
<path d="M194.272 360.295C184.196 370.93 184.501 386.594 184.433 400.253C184.399 407.762 184.162 415.373 181.787 422.542C179.819 428.488 176.392 434.264 171.099 437.798C164.246 442.385 155.628 442.419 147.723 441.706C146.909 441.638 146.909 442.895 147.723 442.963C154.814 443.608 162.346 443.642 168.928 440.482C174.764 437.696 178.971 432.498 181.549 426.687C187.86 412.553 184.467 396.889 186.435 382.007C187.419 374.464 189.862 366.819 195.188 361.179C195.731 360.601 194.849 359.684 194.306 360.295H194.272Z" fill="#1F1F1F"/>
<path d="M157.053 374.498C153.558 383.74 150.369 393.083 147.519 402.529C144.737 411.805 142.531 421.251 139.885 430.561C137.476 439.089 134.389 447.516 129.198 454.753C124.685 461.107 118.476 466.645 110.944 468.989C102.869 471.504 93.3696 470.518 86.9232 464.674C86.3125 464.131 85.4304 465.014 86.0411 465.558C91.8089 470.79 99.8837 472.387 107.416 471.13C115.389 469.805 122.276 465.082 127.467 459C133.201 452.306 136.865 444.22 139.58 435.929C142.633 426.483 144.703 416.766 147.451 407.218C150.606 396.243 154.236 385.439 158.274 374.77C158.579 374.022 157.358 373.682 157.053 374.43V374.498Z" fill="#1F1F1F"/>
<path d="M134.66 338.244C126.28 352.242 121.598 368.28 121.157 384.589C120.919 393.185 121.632 401.816 120.817 410.412C120.071 418.023 117.832 425.26 113.659 431.682C109.35 438.24 103.345 443.642 96.3214 447.108C95.6089 447.482 96.2196 448.569 96.9661 448.195C109.825 441.841 118.985 429.338 121.462 415.237C122.955 406.675 122.412 397.976 122.412 389.346C122.412 380.954 123.192 372.629 125.228 364.474C127.467 355.47 131.064 346.84 135.814 338.889C136.221 338.176 135.135 337.564 134.728 338.244H134.66Z" fill="#1F1F1F"/>
<path d="M133.032 298.66C128.52 302.125 124.075 305.727 119.732 309.431C117.629 311.231 115.525 312.998 113.557 314.901C111.793 316.6 110.198 318.503 109.147 320.711C108.061 323.056 107.62 325.638 107.315 328.22C106.975 331.142 106.704 334.03 106.399 336.952C105.754 342.967 105.143 348.981 104.499 354.995C103.922 360.465 103.65 366.139 102.09 371.44C100.766 375.993 98.2219 379.798 94.8291 383.026C88.4845 389.04 80.2739 392.846 74.608 399.641C68.6706 406.742 66.0581 416.358 67.4491 425.498C67.6188 426.619 67.8563 427.741 68.1616 428.828C68.3652 429.609 69.5866 429.27 69.383 428.488C66.9742 419.518 68.8402 409.631 74.2687 402.122C79.3918 394.986 87.5006 390.977 94.0487 385.405C97.2719 382.652 100.156 379.424 101.92 375.551C104.058 370.862 104.634 365.664 105.177 360.601C105.788 354.723 106.399 348.811 107.009 342.933C107.315 340.01 107.62 337.088 107.925 334.166C108.231 331.38 108.4 328.526 108.909 325.774C109.384 323.158 110.3 320.745 111.895 318.605C113.388 316.6 115.288 314.935 117.188 313.304C121.429 309.567 125.771 305.965 130.216 302.465C131.37 301.548 132.523 300.664 133.677 299.781C134.321 299.305 133.677 298.184 133.032 298.694V298.66Z" fill="#1F1F1F"/>
<path d="M176.155 250.989C166.892 261.318 156.646 273.211 156.409 287.855C156.273 296.043 159.157 303.824 160.141 311.877C160.989 318.876 160.344 325.978 158.343 332.739C156.069 340.384 152.032 347.52 146.57 353.33C146.027 353.907 146.909 354.825 147.452 354.213C157.019 344.02 162.278 329.919 161.735 315.886C161.43 307.936 158.75 300.359 157.902 292.476C157.494 288.636 157.63 284.797 158.546 281.059C159.36 277.662 160.684 274.434 162.312 271.376C166.18 264.138 171.608 257.921 177.037 251.873C177.58 251.261 176.698 250.378 176.155 250.989Z" fill="#1F1F1F"/>
<path d="M170.998 201.857C161.735 205.255 153.694 211.745 148.334 220.069C142.295 229.481 140.428 240.762 140.395 251.771C140.395 258.328 140.937 264.886 141.514 271.41C141.582 272.225 142.837 272.225 142.769 271.41C141.752 260.299 140.768 248.916 142.837 237.874C143.821 232.607 145.518 227.443 148.164 222.788C150.539 218.574 153.66 214.769 157.257 211.575C161.362 207.905 166.146 205.017 171.303 203.115C172.049 202.843 171.744 201.62 170.964 201.891L170.998 201.857Z" fill="#1F1F1F"/>
<path d="M208.285 220.953C199.294 225.03 193.831 234.136 190.947 243.242C187.453 254.319 187.012 266.143 183.144 277.118C181.176 282.656 178.326 287.957 174.051 292.068C173.474 292.646 174.357 293.529 174.933 292.952C182.567 285.579 185.621 274.978 187.588 264.852C189.692 253.911 190.947 242.393 197.088 232.811C200.006 228.224 203.942 224.317 208.929 222.074C209.676 221.735 209.031 220.647 208.285 220.987V220.953Z" fill="#1F1F1F"/>
<path d="M224.807 366.819C208.42 372.187 203.025 390.637 200.108 405.893C196.206 426.484 196.274 447.788 195.968 468.65C195.29 513.534 196.884 558.419 198.208 603.269C198.581 616.147 199.022 629.024 199.497 641.902C199.972 653.93 200.413 667.113 203.534 678.801C204.213 681.384 208.454 681.621 208.997 678.801C212.797 659.264 210.15 637.926 209.098 618.219C207.979 597.459 206.723 576.665 205.909 555.904C204.247 514.384 203.127 472.523 205.536 431.037C206.181 419.892 207.436 408.781 210.388 398.01C212.932 388.768 217.173 377.93 226.809 374.09C231.186 372.323 229.523 365.29 224.807 366.819Z" fill="#904723"/>
<path d="M288.524 734.831C278.006 737.413 266.81 740.097 256.157 736.631C251.475 735.102 247.403 732.384 244.316 728.545C241.262 724.773 239.227 720.22 237.598 715.667C233.798 705.168 231.287 694.125 229.964 683.015C228.709 672.55 229.387 661.405 225.214 651.551C221.957 643.804 214.188 636.533 205.298 637.111C204.247 637.179 203.229 637.349 202.211 637.621C201.431 637.824 201.77 639.048 202.55 638.844C211.507 636.363 220.159 643.465 223.721 651.212C225.961 656.07 226.843 661.405 227.352 666.705C227.895 672.142 228.098 677.612 228.743 683.049C230.066 694.091 232.509 705.066 236.241 715.565C237.835 720.05 239.769 724.501 242.619 728.341C245.435 732.18 249.134 735.136 253.51 736.971C263.485 741.184 274.546 739.451 284.758 737.073C286.149 736.733 287.54 736.394 288.931 736.054C289.711 735.85 289.372 734.661 288.592 734.831H288.524Z" fill="#1F1F1F"/>
<path d="M211.745 725.283C208.08 715.769 204.416 706.255 200.752 696.775C200.515 696.164 199.395 696.266 199.531 697.013C199.531 697.081 199.531 697.115 199.531 697.183C199.463 697.115 199.395 697.013 199.327 696.877C199.293 696.538 199.225 696.164 199.191 695.824C199.123 695.348 198.716 695.178 198.377 695.28C198.275 695.111 198.14 694.907 198.038 694.737C194.306 680.67 194.984 665.516 199.938 651.823C201.532 647.44 203.534 643.227 205.943 639.251C206.35 638.572 205.231 637.994 204.823 638.674C196.002 653.148 192.643 670.783 195.222 687.534C195.425 688.893 195.697 690.252 195.968 691.611C195.765 691.679 195.629 691.815 195.595 692.053C195.595 692.121 195.595 692.154 195.595 692.222C195.595 692.29 195.595 692.358 195.595 692.426C195.595 692.902 195.595 693.378 195.595 693.819C195.629 705.032 195.697 716.245 195.731 727.457C195.731 728.273 196.986 728.205 196.986 727.389C196.918 721.579 197.359 715.803 198.309 710.095C198.479 716.211 198.615 722.327 198.784 728.443C198.784 729.122 199.972 729.258 200.04 728.544C200.04 728.477 200.04 728.443 200.04 728.375C200.447 723.822 200.684 719.235 200.752 714.682C201.634 719.744 202.618 724.773 203.738 729.768C203.907 730.447 205.095 730.243 204.959 729.53C203.5 721.511 202.041 713.492 200.582 705.474C200.582 705.304 200.582 705.134 200.582 704.964C201.193 706.697 201.736 708.43 202.313 710.163C203.67 716.075 205.163 721.987 206.825 727.831C207.063 728.646 208.182 728.205 208.013 727.423C207.13 723.006 206.079 718.623 204.857 714.308C206.689 718.215 208.589 722.055 210.591 725.86C210.93 726.506 211.982 725.996 211.711 725.317L211.745 725.283ZM202.686 706.085C203.398 707.682 204.043 709.279 204.688 710.91C204.077 709.551 203.466 708.158 202.856 706.765C202.788 706.527 202.754 706.289 202.686 706.085ZM196.986 710.638C196.986 706.595 196.986 702.552 196.952 698.542C197.291 699.188 197.665 699.833 198.106 700.411C198.106 701.702 198.173 702.993 198.207 704.251C197.732 706.357 197.325 708.498 196.986 710.638Z" fill="#1F1F1F"/>
<path d="M236.071 738.16C229.353 728.918 223.823 718.793 219.718 708.124C215.578 697.421 212.83 686.174 211.609 674.758C210.93 668.37 210.693 661.948 210.93 655.527C210.93 654.711 209.709 654.711 209.675 655.527C209.234 667.079 210.32 678.631 212.864 689.912C215.409 701.125 219.412 711.997 224.705 722.191C227.725 727.967 231.151 733.505 234.985 738.772C235.46 739.417 236.546 738.772 236.071 738.126V738.16Z" fill="#1F1F1F"/>
<path d="M204.755 550.502C203.839 531.135 203.263 511.768 203.398 492.4C203.466 481.527 203.771 470.621 204.348 459.748C204.382 458.932 203.127 458.932 203.093 459.748C202.075 479.081 201.939 498.482 202.346 517.85C202.754 537.217 203.738 556.584 204.891 575.951C205.536 586.824 206.248 597.697 206.961 608.57C207.029 609.385 208.284 609.385 208.216 608.57C206.927 589.237 205.671 569.869 204.755 550.502Z" fill="#1F1F1F"/>
<path d="M236.072 372.289C228.574 381.599 224.197 392.846 221.754 404.466C219.277 416.426 218.701 428.726 218.531 440.924C218.395 449.282 218.429 457.675 218.531 466.033C218.531 466.849 219.786 466.849 219.786 466.033C219.617 452.51 219.481 438.919 220.363 425.43C221.143 413.538 222.874 401.51 227.183 390.331C229.591 384.147 232.815 378.303 236.954 373.139C237.463 372.527 236.581 371.61 236.072 372.255V372.289Z" fill="#1F1F1F"/>
<path d="M276.412 614.72C263.927 609.929 255.682 598.614 249.575 587.266C247.675 583.698 245.911 580.062 244.147 576.427C243.807 575.713 242.722 576.325 243.061 577.072C249.066 589.44 255.411 602.318 266.675 610.744C269.559 612.919 272.714 614.686 276.073 615.977C276.819 616.283 277.159 615.059 276.412 614.754V614.72Z" fill="#1F1F1F"/>
<path d="M389.46 665.312C382.098 658.822 375.245 651.789 369.002 644.246C362.556 636.465 356.856 628.141 351.631 619.476C348.883 614.923 346.168 610.302 343.318 605.817C340.502 601.4 337.585 597.051 334.565 592.804C328.526 584.241 322.113 575.951 315.667 567.694C309.424 559.744 303.385 551.453 295.955 544.556C295.039 543.706 294.123 542.891 293.173 542.109C292.562 541.6 291.646 542.483 292.291 542.993C300.026 549.516 306.167 557.603 312.376 565.52C318.89 573.844 325.37 582.169 331.545 590.731C337.72 599.294 343.352 608.162 348.781 617.2C354.006 625.898 359.502 634.358 365.813 642.275C371.92 649.954 378.637 657.123 385.864 663.749C386.746 664.565 387.662 665.38 388.578 666.161C389.189 666.705 390.071 665.822 389.46 665.278V665.312Z" fill="#1F1F1F"/>
<path d="M427.629 719.37C425.051 717.977 423.252 715.633 421.183 713.628C420.199 712.677 419.147 711.793 417.96 711.114C416.501 710.298 414.872 709.823 413.278 709.381C406.865 707.648 400.555 705.575 394.583 702.653C391.224 701.022 387.967 699.12 384.88 696.979C384.201 696.503 383.591 697.591 384.235 698.066C389.63 701.838 395.567 704.794 401.742 707.104C404.83 708.26 407.985 709.279 411.14 710.128C412.769 710.57 414.465 710.978 416.026 711.623C417.451 712.201 418.706 713.085 419.826 714.138C422.167 716.278 424.101 718.929 426.951 720.458C427.663 720.831 428.308 719.744 427.595 719.37H427.629Z" fill="#1F1F1F"/>
<path d="M447.952 717.604C445.849 717.468 443.711 717.332 441.845 716.347C440.285 715.497 438.995 714.274 437.74 713.017C436.451 711.692 435.229 710.332 433.838 709.109C432.345 707.784 430.717 706.595 428.987 705.542C428.308 705.134 427.663 706.221 428.342 706.629C430.208 707.75 431.938 709.075 433.567 710.57C434.958 711.861 436.179 713.289 437.536 714.648C438.792 715.905 440.217 717.06 441.845 717.808C443.779 718.657 445.883 718.827 447.952 718.929C448.767 718.963 448.767 717.706 447.952 717.672V717.604Z" fill="#1F1F1F"/>
<path d="M457.113 714.614C452.668 714.036 448.461 711.998 445.238 708.872C442.422 706.153 440.319 702.824 437.503 700.105C435.976 698.644 434.246 697.421 432.244 696.674C431.497 696.368 431.158 697.591 431.904 697.897C435.637 699.358 438.215 702.62 440.692 705.644C443.372 708.906 446.154 711.896 450.022 713.764C452.261 714.852 454.67 715.565 457.147 715.871C457.961 715.973 457.927 714.716 457.147 714.614H457.113Z" fill="#1F1F1F"/>
<path d="M459.216 705.848C457.215 704.386 454.602 704.522 452.533 703.197C450.633 702.008 449.479 699.935 448.325 698.067C447.104 696.062 445.747 694.159 443.983 692.596C442.151 690.931 440.047 689.64 437.74 688.689C436.993 688.383 436.654 689.606 437.401 689.912C439.708 690.863 441.845 692.256 443.643 693.989C445.374 695.654 446.561 697.659 447.817 699.698C448.936 701.498 450.191 703.333 452.058 704.42C454.093 705.61 456.638 705.542 458.538 706.935C459.182 707.41 459.827 706.323 459.182 705.848H459.216Z" fill="#1F1F1F"/>
<path d="M171.88 607.822C163.33 596.1 155.017 584.174 146.976 572.112C138.935 560.05 131.132 547.784 123.6 535.382C119.325 528.382 115.152 521.315 111.047 514.18C110.639 513.466 109.554 514.112 109.961 514.825C117.222 527.397 124.72 539.833 132.455 552.099C140.225 564.365 148.232 576.461 156.51 588.387C161.192 595.149 165.942 601.808 170.76 608.468C171.235 609.113 172.321 608.468 171.846 607.822H171.88Z" fill="#1F1F1F"/>
<path d="M179.344 583.256C173.509 574.422 167.809 565.52 162.21 556.516C156.646 547.512 151.218 538.44 145.891 529.266C142.905 524.101 139.954 518.903 137.036 513.67C136.629 512.957 135.543 513.602 135.95 514.316C141.107 523.558 146.366 532.766 151.795 541.838C157.223 550.944 162.753 559.948 168.453 568.884C171.676 573.912 174.933 578.941 178.225 583.936C178.666 584.615 179.751 583.97 179.31 583.29L179.344 583.256Z" fill="#1F1F1F"/>
<path d="M129.876 624.913C124.617 636.499 119.834 648.289 115.491 660.249C111.148 672.244 107.28 684.441 103.887 696.741C101.987 703.707 100.223 710.706 98.5947 717.774C98.425 718.555 99.6125 718.895 99.8161 718.113C102.632 705.711 105.957 693.412 109.723 681.282C113.489 669.186 117.73 657.259 122.446 645.469C125.126 638.776 127.976 632.116 130.962 625.558C131.301 624.811 130.216 624.199 129.876 624.913Z" fill="#1F1F1F"/>
<path d="M152.065 637.858C136.323 669.05 125.737 702.518 118.511 736.631C111.216 771.118 107.28 806.217 104.498 841.35C101.479 879.269 99.7145 917.29 96.2199 955.175C92.7253 993.23 87.1272 1030.98 77.6273 1068.01C68.2293 1104.57 55.8455 1140.29 43.1564 1175.79C41.5618 1180.31 39.9333 1184.8 38.3047 1189.32C37.8976 1190.47 39.7297 1190.95 40.1368 1189.82C52.792 1154.49 65.4811 1119.08 75.5917 1082.9C85.7361 1046.61 92.386 1009.68 96.4235 972.232C100.495 934.585 102.361 896.768 105.075 858.985C107.62 823.104 110.945 787.19 117.459 751.785C123.871 717.026 133.371 682.641 148.096 650.43C149.894 646.523 151.76 642.649 153.694 638.844C154.237 637.756 152.608 636.805 152.065 637.892V637.858Z" fill="#D9C0A9"/>
<path d="M162.889 655.289C151.319 688.927 142.668 723.516 136.187 758.479C129.741 793.272 125.398 828.405 122.107 863.605C118.782 899.316 116.543 935.162 114.406 970.975C112.268 1006.89 110.199 1042.77 107.213 1078.62C104.227 1114.56 100.258 1150.48 94.3202 1186.09C93.5738 1190.5 92.7934 1194.96 92.0131 1199.37C91.8095 1200.56 93.6077 1201.07 93.8452 1199.88C100.19 1164.88 104.499 1129.51 107.756 1094.11C111.047 1058.3 113.252 1022.42 115.39 986.502C117.527 950.656 119.597 914.81 122.616 879.031C125.636 843.253 129.639 807.542 135.679 772.172C141.65 737.141 149.589 702.416 160.446 668.574C161.803 664.293 163.228 660.046 164.687 655.798C165.094 654.643 163.262 654.133 162.855 655.289H162.889Z" fill="#D9C0A9"/>
<path d="M178.936 690.999C167.469 722.564 159.122 755.217 153.083 788.243C147.112 820.997 143.38 854.16 140.869 887.356C138.291 921.605 137.035 955.957 136.017 990.274C134.966 1025.68 134.151 1061.05 132.353 1096.42C130.555 1131.79 127.739 1167.16 122.718 1202.23C122.073 1206.64 121.428 1211.06 120.716 1215.48C120.512 1216.67 122.344 1217.18 122.548 1215.99C128.078 1181.33 131.335 1146.37 133.439 1111.34C135.543 1076.17 136.492 1040.93 137.51 1005.73C138.494 971.179 139.512 936.589 141.751 902.068C143.957 868.158 147.282 834.317 152.846 800.781C158.308 767.823 165.908 735.17 176.562 703.469C177.919 699.46 179.31 695.45 180.769 691.441C181.176 690.286 179.344 689.81 178.936 690.931V690.999Z" fill="#D9C0A9"/>
<path d="M187.656 735.306C182.228 762.114 178.733 789.262 176.392 816.478C174.017 844.136 172.83 871.862 171.914 899.588C171.032 927.212 170.455 954.869 169.301 982.493C168.182 1009.98 166.519 1037.47 163.432 1064.79C160.344 1092.31 155.798 1119.73 148.978 1146.57C148.13 1149.87 147.282 1153.16 146.366 1156.46C146.027 1157.65 147.859 1158.12 148.198 1156.97C155.425 1130.7 160.412 1103.86 163.907 1076.85C167.435 1049.46 169.403 1021.87 170.692 994.317C171.982 966.694 172.626 939.07 173.441 911.446C174.255 883.822 175.273 856.198 177.308 828.676C179.378 800.917 182.465 773.225 187.555 745.873C188.165 742.509 188.81 739.179 189.488 735.85C189.726 734.66 187.894 734.151 187.656 735.34V735.306Z" fill="#D9C0A9"/>
<path d="M220.601 1128.53C220.058 1099.07 217.479 1069.68 215.104 1040.32C212.695 1010.56 210.965 980.76 210.015 950.894C209.065 921.027 208.556 891.127 207.436 861.261C206.351 831.293 204.654 801.324 201.296 771.492C200.888 767.788 200.447 764.085 199.972 760.381C199.837 759.192 197.937 759.158 198.072 760.381C205.537 819.706 206.012 879.575 207.742 939.239C208.59 969.004 209.947 998.734 212.254 1028.43C214.527 1057.82 217.31 1087.18 218.361 1116.67C219.549 1149.63 218.463 1182.76 212.085 1215.21C211.847 1216.39 213.679 1216.9 213.917 1215.72C219.583 1187.04 221.11 1157.75 220.567 1128.56L220.601 1128.53Z" fill="#D9C0A9"/>
<path d="M252.594 1038.59C251.339 1006.52 249.303 974.475 246.827 942.468C244.35 910.597 241.466 878.794 238.446 846.957C235.596 817.09 234.205 786.273 225.554 757.392C224.502 753.824 223.281 750.29 221.991 746.791C221.55 745.669 219.752 746.145 220.159 747.3C230.914 775.875 232.713 806.829 235.596 836.933C238.65 868.736 241.602 900.573 244.146 932.41C249.202 995.711 252.696 1059.18 252.018 1122.72C251.644 1158.4 249.948 1194.11 246.521 1229.61C246.419 1230.84 248.286 1230.8 248.421 1229.61C251.475 1197.88 253.171 1166.04 253.782 1134.17C254.359 1102.3 253.884 1070.39 252.628 1038.56L252.594 1038.59Z" fill="#D9C0A9"/>
<path d="M284.961 1040.66C284.011 1010.42 282.077 980.217 278.753 950.146C275.428 919.974 270.27 890.108 265.046 860.242C259.04 826.026 253.069 791.811 247.064 757.595C246.86 756.406 245.028 756.916 245.232 758.105C250.592 788.651 255.919 819.197 261.28 849.743C266.538 879.813 272.035 909.815 275.699 940.123C282.994 1000.26 284.418 1060.91 283.706 1121.43C283.299 1155.71 282.213 1189.99 281.127 1224.28C281.094 1225.5 282.993 1225.5 283.027 1224.28C284.961 1163.08 286.895 1101.86 284.961 1040.63V1040.66Z" fill="#D9C0A9"/>
<path d="M308.949 1140.42C307.66 1110.15 307.626 1079.84 307.151 1049.57C306.676 1019.19 305.692 988.847 302.638 958.607C299.551 928.129 294.733 897.855 289.44 867.717C284.08 837.137 278.515 806.591 273.019 776.045L270.949 764.595C270.746 763.406 268.914 763.915 269.117 765.105C274.614 795.684 280.178 826.264 285.606 856.878C291.035 887.458 296.226 918.106 299.686 948.991C303.113 979.231 304.47 1009.64 305.047 1040.05C305.624 1070.36 305.59 1100.67 306.642 1130.94C307.694 1160.88 309.797 1190.84 314.649 1220.4C315.259 1224.11 315.904 1227.81 316.617 1231.52C316.854 1232.7 318.652 1232.19 318.449 1231.01C312.851 1201.11 310.204 1170.76 308.915 1140.39L308.949 1140.42Z" fill="#D9C0A9"/>
<path d="M193.016 955.379C191.625 971.892 190.234 988.405 188.843 1004.92C187.452 1021.43 186.061 1037.94 184.67 1054.46C183.381 1069.54 182.261 1084.66 180.565 1099.72C178.97 1114.19 176.799 1128.63 173.338 1142.77C169.911 1156.73 165.161 1170.42 158.444 1183.17C157.629 1184.73 156.747 1186.29 155.865 1187.82C155.254 1188.87 156.883 1189.82 157.494 1188.77C164.653 1176.3 169.877 1162.81 173.677 1148.98C177.511 1134.92 179.92 1120.51 181.718 1106.07C183.55 1091.19 184.738 1076.2 185.993 1061.25C187.384 1044.67 188.809 1028.06 190.2 1011.48C191.625 994.793 193.016 978.144 194.441 961.461C194.611 959.422 194.781 957.384 194.95 955.345C195.052 954.122 193.152 954.122 193.05 955.345L193.016 955.379Z" fill="#1F1F1F"/>
<path d="M290.119 1237.83C283.91 1241.13 277.43 1244.12 270.542 1245.65C267.116 1246.4 263.621 1246.74 260.092 1246.53C256.564 1246.3 253.171 1245.31 249.88 1244.12C246.589 1242.93 243.332 1241.71 239.939 1240.86C236.614 1240.01 233.221 1239.43 229.829 1239.09C222.941 1238.41 215.986 1238.75 209.2 1240.18C202.72 1241.54 196.206 1244.02 191.66 1249.05C190.845 1249.93 192.168 1251.29 192.983 1250.37C197.156 1245.79 203.025 1243.48 208.963 1242.15C215.782 1240.65 222.873 1240.28 229.829 1240.99C233.357 1241.33 236.852 1242.01 240.278 1242.93C243.536 1243.81 246.657 1245 249.812 1246.13C253.035 1247.25 256.292 1248.13 259.719 1248.4C263.044 1248.67 266.369 1248.4 269.626 1247.79C277.226 1246.36 284.351 1243.07 291.137 1239.47C292.222 1238.89 291.272 1237.26 290.187 1237.83H290.119Z" fill="#1F1F1F"/>
<path d="M82.3092 1204.71C71.3504 1206.03 60.0863 1203.55 50.6882 1197.74C40.9848 1191.73 34.6402 1181.91 25.6832 1174.98C20.9333 1171.31 15.5048 1168.52 9.4317 1167.94C8.21029 1167.84 8.24422 1169.71 9.4317 1169.85C21.103 1170.93 29.2796 1180.51 36.8456 1188.4C40.6794 1192.37 44.6829 1196.21 49.365 1199.17C53.9453 1202.06 59.0006 1204.2 64.2255 1205.49C70.129 1206.95 76.236 1207.36 82.2752 1206.61C83.4627 1206.47 83.4966 1204.57 82.2752 1204.71H82.3092Z" fill="#1F1F1F"/>
<path d="M316.821 1251.49C316.753 1250.98 316.413 1250.54 315.871 1250.54C315.396 1250.54 314.887 1250.98 314.921 1251.49C315.328 1255.47 314.683 1259.48 312.953 1263.08C312.444 1264.17 314.072 1265.12 314.581 1264.03C316.447 1260.16 317.262 1255.81 316.821 1251.49Z" fill="#1F1F1F"/>
<path d="M322.453 1251.05C322.453 1256.45 321.469 1261.79 319.603 1266.89C319.195 1268.04 321.028 1268.52 321.435 1267.4C323.335 1262.16 324.319 1256.62 324.353 1251.05C324.353 1249.83 322.486 1249.83 322.453 1251.05Z" fill="#1F1F1F"/>
<path d="M331.816 1257.98C331.341 1257.58 330.696 1257.54 330.153 1257.81C329.339 1258.22 329.679 1259.24 330.357 1259.48C330.357 1259.61 330.323 1259.75 330.289 1259.85C330.255 1260.16 330.187 1260.43 330.153 1260.74C330.086 1261.25 329.984 1261.76 329.882 1262.26C329.679 1263.39 329.407 1264.54 329.136 1265.66C328.593 1267.87 327.88 1270.05 327.066 1272.15C326.625 1273.27 328.457 1273.78 328.898 1272.66C329.984 1269.88 330.832 1266.99 331.477 1264.03C331.782 1262.6 332.02 1261.18 332.223 1259.72C332.325 1259.04 332.393 1258.43 331.816 1257.95V1257.98Z" fill="#1F1F1F"/>
<path d="M70.5369 1229.92C70.4012 1229.48 69.8583 1229.07 69.3833 1229.27C66.1262 1230.63 62.9031 1232.03 59.646 1233.38C59.171 1233.59 58.8317 1234 59.0014 1234.54C59.1371 1234.98 59.6799 1235.39 60.1549 1235.18C63.412 1233.83 66.6352 1232.43 69.8923 1231.07C70.3673 1230.87 70.7065 1230.46 70.5369 1229.92Z" fill="#1F1F1F"/>
<path d="M75.2185 1238.79C72.5043 1238.28 69.79 1238.96 67.6526 1240.66C67.2454 1240.96 67.3133 1241.67 67.6526 1241.98C68.0597 1242.39 68.5686 1242.29 68.9757 1241.98C70.5364 1240.76 72.7757 1240.25 74.7096 1240.59C75.2185 1240.69 75.7274 1240.45 75.8631 1239.94C75.9989 1239.47 75.6935 1238.89 75.2185 1238.79Z" fill="#1F1F1F"/>
<path d="M82.0377 1246.36C78.3735 1246.6 75.0146 1248.54 72.9111 1251.53C72.6057 1251.94 72.8432 1252.58 73.2504 1252.82C73.7254 1253.09 74.2343 1252.89 74.5396 1252.48C76.236 1250.07 79.086 1248.47 82.0377 1248.27C82.5467 1248.23 82.9877 1247.86 82.9877 1247.31C82.9877 1246.84 82.5467 1246.33 82.0377 1246.36Z" fill="#1F1F1F"/>
<path d="M48.0425 571.908C47.805 570.854 47.5336 569.801 47.2282 568.782C46.9907 567.966 46.7532 567.015 46.2104 566.335C45.3283 565.248 43.4283 565.384 43.2587 566.947C43.1569 567.762 44.4461 567.762 44.514 566.947C44.514 566.675 45.1247 567.015 45.1586 567.049C45.3961 567.287 45.5318 567.66 45.6336 568C45.905 568.782 46.1425 569.597 46.38 570.379C46.8211 571.976 47.1604 573.607 47.3639 575.237C47.7711 578.431 47.7711 581.693 47.3639 584.921C47.2622 585.737 48.5175 585.703 48.6193 584.921C49.1621 580.572 48.9586 576.189 48.0425 571.908Z" fill="#1F1F1F"/>
<path d="M102.802 521.587C97.95 538.916 93.8786 556.448 90.6554 574.151C89.7394 579.179 88.8912 584.208 88.0769 589.271C87.9412 590.052 89.1626 590.392 89.2983 589.61C92.0804 571.84 95.6768 554.172 100.087 536.741C101.343 531.78 102.666 526.854 104.023 521.927C104.227 521.145 103.039 520.806 102.802 521.587Z" fill="#1F1F1F"/>
<path d="M79.0186 688.757C80.0365 677.001 81.224 665.279 82.5811 653.556C83.3614 646.931 84.1757 640.339 85.0578 633.747C85.1596 632.932 83.9043 632.796 83.8025 633.611C82.2418 645.368 80.8508 657.124 79.6293 668.914C78.4079 680.636 77.3901 692.393 76.5419 704.149C76.0669 710.775 75.6258 717.434 75.2526 724.094C75.2187 724.909 76.474 725.045 76.508 724.23C77.1526 712.405 78.0008 700.581 79.0186 688.791V688.757Z" fill="#1F1F1F"/>
<path d="M192.541 627.699C190.845 628.412 189.013 628.616 187.181 628.684C185.213 628.752 183.279 628.718 181.311 628.718C177.341 628.718 173.406 628.752 169.436 628.786C165.501 628.786 161.565 628.786 157.663 628.345C153.863 627.937 150.131 627.087 146.467 625.966C142.396 624.743 138.392 623.214 134.422 621.685C133.676 621.379 133.337 622.602 134.083 622.908C141.344 625.694 148.672 628.48 156.442 629.466C160.411 629.975 164.381 630.043 168.384 630.043C172.49 630.043 176.595 630.009 180.7 629.975C184.806 629.975 189.318 630.417 193.186 628.786C193.932 628.48 193.288 627.393 192.541 627.699Z" fill="#D9C0A9"/>
</g>
<defs>
<clipPath id="clip0_1209_5695">
<rect width="471" height="1153" fill="white" transform="translate(7)"/>
</clipPath>
<clipPath id="clip1_1209_5695">
<rect width="464" height="1111" fill="white" transform="translate(0 183)"/>
</clipPath>
</defs>
</svg>
