<svg width="573" height="817" viewBox="0 0 573 817" fill="none" xmlns="http://www.w3.org/2000/svg">
<g clip-path="url(#clip0_1177_1797)">
<path d="M490.46 664.82C489.781 660.363 489.05 655.905 488.268 651.466C487.433 646.712 486.546 641.924 486.754 637.102C486.963 632.279 488.268 627.578 489.485 622.912C491.068 616.87 492.512 610.794 493.852 604.682C494.513 601.67 495.139 598.641 495.73 595.611C496.026 594.079 496.2 592.477 496.617 590.98C497.348 588.403 496.757 585.826 495.33 583.476C491.764 577.556 483.815 576.633 477.117 574.927C472.821 573.83 468.002 572.246 464.245 574.579C462.818 575.467 461.74 576.842 460.783 578.218C457.478 582.919 454.938 588.142 453.234 593.626C452.364 596.395 451.72 599.233 451.303 602.106C451.094 603.533 450.937 604.978 450.833 606.423C450.746 607.729 451.042 609.07 451.181 610.393C451.32 611.821 451.494 613.266 451.651 614.694C452.26 620.335 452.886 625.976 453.495 631.617C453.773 634.124 453.842 636.771 454.573 639.191C455.095 640.949 455.391 642.307 455.095 644.17C453.077 657.246 450.85 670.217 450.903 683.502C450.92 689.509 451.39 695.637 453.686 701.209C454.225 702.532 454.904 703.873 456.034 704.761C457.304 705.77 458.974 706.066 460.574 706.345C463.775 706.902 466.993 707.459 470.194 708.016C474.038 708.678 477.935 709.357 481.814 708.957C485.693 708.556 489.607 706.937 491.938 703.803C492.582 702.95 492.912 702.271 493.747 701.661C494.617 701.035 494.861 700.234 494.756 699.137C493.66 687.663 492.234 676.224 490.494 664.837L490.46 664.82Z" fill="#EC9D74"/>
<path d="M339.921 743.5C339.973 746.86 340.025 750.22 340.078 753.581C340.269 766.9 340.565 780.219 340.826 793.539C341.069 806.841 341.261 820.212 340.895 833.497C340.53 846.799 340.895 860.153 341.052 873.455C341.121 880.054 341.191 886.652 341.261 893.269C341.295 896.612 341.487 900.007 341.295 903.35C341.104 906.71 340.895 910.053 340.913 913.431C340.93 917.261 343.992 919.907 347.627 920.151C363.457 921.178 379.269 922.432 395.047 924.016C422.792 926.802 450.451 930.406 478.179 933.296C506.081 936.187 534.104 938.311 562.163 938.084C566.181 938.05 568.721 934.916 569.069 931.172C570.513 915.415 571.557 899.624 572.218 883.797C573.366 855.731 573.244 827.595 571.87 799.528C571.522 792.546 571.104 785.564 570.6 778.583C570.356 775.101 570.113 771.618 569.782 768.154C569.452 764.567 568.912 760.928 566.895 757.846C562.946 751.822 555.344 749.715 548.734 747.992C545.116 747.051 541.41 746.581 537.688 746.268C536.122 746.146 534.574 746.181 533.009 746.285C511.595 741.132 489.973 736.814 468.229 733.245C442.449 729.014 416.495 725.932 390.385 724.661C377.39 724.034 364.344 723.878 351.35 724.452C348.34 724.574 345.348 724.922 343 726.994C340.791 728.944 340.043 731.852 339.834 734.69C339.625 737.615 339.834 740.592 339.886 743.517L339.921 743.5Z" fill="#1F1F1F"/>
<path d="M410.32 755.061C410.285 750.673 410.355 746.268 410.407 741.881C410.511 733.68 410.581 725.41 411.137 717.227C411.659 709.705 412.86 702.184 416.426 695.463C420.113 688.516 426.55 683.536 433.995 681.186C441.127 678.94 448.781 679.201 456.087 680.176C460.14 680.716 464.28 681.343 468.211 682.457C472.282 683.606 476.213 685.156 480.214 686.531C487.816 689.143 496.479 691.754 502.48 697.361C508.116 702.619 510.116 710.193 510.777 717.61C511.56 726.455 510.951 735.508 510.864 744.37C510.812 749.559 511.125 754.974 510.047 760.058C509.56 762.373 509.612 764.828 509.473 767.196C509.403 768.397 509.368 769.599 509.055 770.783C509.021 770.939 508.934 771.27 508.829 771.601C509.212 771.897 509.455 772.332 509.403 772.959C509.16 775.936 505.785 777.347 503.471 775.414C502.115 774.265 501.593 771.688 501.28 769.982C500.845 767.718 500.932 765.263 500.81 762.965C500.706 760.928 500.166 759.065 500.01 757.046C499.836 754.643 499.749 752.258 499.731 749.855C499.697 745.485 499.662 741.115 499.627 736.744C499.592 732.722 499.592 728.701 499.523 724.696C499.471 721.475 499.297 718.097 498.844 715.66C498.201 712.212 497.487 710.193 495.87 707.546C495.852 707.511 495.609 707.181 495.539 707.076C495.383 706.902 495.244 706.728 495.07 706.554C494.548 705.979 493.991 705.422 493.382 704.935C492.391 704.151 490.39 703.072 488.929 702.393C482.301 699.241 474.526 697.1 466.959 695.776C465.011 695.428 463.045 695.097 461.097 694.749C460.192 694.575 459.27 694.418 458.366 694.279C457.844 694.192 457.322 694.122 456.8 694.035C456.539 694 456.278 693.966 456.017 693.913C456.522 693.983 456.556 693.983 456.104 693.913C452.747 693.478 449.355 693.252 445.963 693.374C445.197 693.409 444.432 693.443 443.684 693.513C443.58 693.513 443.179 693.565 442.936 693.583C442.814 693.583 442.692 693.617 442.675 693.617C440.901 693.931 439.144 694.331 437.456 694.941C437.3 694.993 437.143 695.063 437.004 695.115C436.865 695.167 436.656 695.254 436.569 695.306C435.839 695.707 435.091 696.072 434.395 696.525C434.134 696.699 433.89 696.873 433.629 697.047C432.934 697.779 432.22 698.388 431.577 699.084C431.577 699.084 431.507 699.154 431.455 699.206C431.316 699.398 431.09 699.676 431.038 699.764C430.637 700.355 430.272 700.947 429.924 701.574C429.803 701.801 429.281 702.915 429.176 703.072C428.95 703.664 428.724 704.238 428.533 704.83C428.063 706.31 427.698 707.842 427.419 709.374C427.35 709.74 427.228 710.523 427.193 710.732C427.106 711.498 427.019 712.265 426.967 713.031C426.289 721.614 426.898 730.285 426.863 738.886C426.845 743.709 426.863 748.532 426.776 753.354C426.724 755.896 426.706 758.456 426.602 761.015C426.463 764.497 425.193 767.022 423.645 770.017C421.627 773.899 415.208 774.004 413.225 770.017C411.903 767.37 410.546 764.898 410.372 761.868C410.25 759.605 410.337 757.324 410.337 755.061H410.32Z" fill="#1F1F1F"/>
<path d="M561.084 756.297C557.623 753.633 553.1 756.349 551.5 759.796C550.578 761.781 550.334 763.975 550.091 766.134C549.725 769.372 549.43 772.611 549.151 775.849C548.108 788.02 547.481 800.19 547.168 812.395C547.133 813.91 547.255 815.181 547.447 816.661C547.655 818.367 547.325 820.038 547.168 821.727C546.873 824.826 546.925 827.995 546.855 831.094C546.699 837.066 546.577 843.021 546.49 848.993C546.316 861.598 546.072 874.204 545.985 886.809C545.933 893.669 545.881 900.512 545.829 907.372C545.794 910.941 545.829 914.493 545.864 918.062C545.898 921.614 545.69 925.218 546.055 928.752C546.316 931.259 549.673 931.242 549.952 928.752C550.613 922.972 550.317 916.895 550.386 911.08C550.456 905.317 550.421 899.571 550.456 893.808C550.491 882.161 550.439 870.513 550.404 858.865C550.386 847.443 550.282 836.022 550.265 824.6C550.265 821.762 549.656 818.837 550.265 816.051C550.873 813.318 550.647 810.323 550.734 807.52C550.908 801.826 551.134 796.133 551.395 790.457C551.708 783.963 552.126 777.469 552.7 770.992C552.961 768.084 552.961 764.95 553.831 762.147C554.579 759.744 556.962 757.028 559.675 758.665C561.241 759.587 562.407 757.341 561.05 756.297H561.084Z" fill="#4B4943"/>
<path d="M563.659 825.68C563.467 816.626 563.102 807.59 562.372 798.571C562.25 797.108 560.093 797.073 560.075 798.571C559.954 806.649 559.084 814.745 558.614 822.807C558.127 830.885 557.675 838.964 557.257 847.043C556.509 860.989 555.814 874.953 555.118 888.899C555.17 883.083 555.205 877.286 555.24 871.47C555.327 854.686 555.535 837.902 555.744 821.118C555.866 811.472 555.866 801.861 555.344 792.233C555.309 791.519 554.335 791.554 554.265 792.233C552.404 808.93 552.195 825.784 551.847 842.568C551.5 859.352 551.186 876.136 551.204 892.921C551.204 902.566 551.708 912.177 551.9 921.805C551.934 923.198 553.9 923.459 554.318 922.136C556.562 914.771 556.909 907.25 557.327 899.624C557.779 891.545 558.214 883.467 558.666 875.388C559.31 863.601 559.919 851.796 560.51 839.991C560.51 841.924 560.528 843.874 560.51 845.807C560.441 861.564 560.093 877.32 559.588 893.077C559.293 902.114 558.98 911.15 558.632 920.186C558.545 922.258 561.711 922.241 561.832 920.186C563.607 888.707 564.389 857.193 563.694 825.68H563.659Z" fill="#4B4943"/>
<path d="M512.204 734.864C512.204 732.879 512.169 730.894 512.169 728.91C512.134 724.661 512.099 720.396 511.56 716.165C511.108 712.682 510.255 709.287 508.829 706.066C507.803 703.733 505.976 699.555 502.967 699.502C502.601 699.502 502.358 699.798 502.323 700.147C502.201 701.54 503.071 702.828 503.749 703.977C504.515 705.283 505.245 706.589 505.802 708.016C507.107 711.324 507.768 714.859 508.098 718.393C508.446 722.137 508.446 725.897 508.481 729.641C508.481 731.504 508.516 733.349 508.533 735.212C508.533 736.831 508.29 738.59 509.577 739.774C510.047 740.209 510.777 740.227 511.264 739.774C512.604 738.503 512.256 736.553 512.238 734.847L512.204 734.864Z" fill="#4B4943"/>
<path d="M552.961 758.038C537.236 753.163 520.867 749.82 504.689 746.877C488.668 743.97 472.316 741.236 456 741.027C455.721 741.027 455.53 741.201 455.443 741.445C452.764 740.836 449.772 740.905 447.111 740.522C443.945 740.087 440.831 739.443 437.769 738.555C432.046 736.884 426.532 735.177 420.566 734.585C415.034 734.046 409.45 733.993 403.918 733.366C401.048 733.036 398.178 732.583 395.412 731.747C392.785 730.964 390.263 729.832 387.654 728.979C386.94 728.753 386.488 729.675 386.958 730.18C390.68 734.22 396.682 735.351 401.97 735.978C407.71 736.657 413.486 736.518 419.243 736.953C425.61 737.423 431.403 739.164 437.526 740.853C440.587 741.689 443.684 742.281 446.832 742.647C450.05 743.03 453.808 743.726 457.009 743.047C457.304 742.977 457.426 742.751 457.443 742.525C473.012 745.276 488.738 747.069 504.272 749.994C520.414 753.041 536.227 757.132 552.161 761.033C554.109 761.503 554.909 758.612 552.996 758.02L552.961 758.038Z" fill="#4B4943"/>
<path d="M487.607 674.169C486.824 671.453 486.058 668.72 485.276 666.004C484.597 663.636 484.041 661.111 482.492 659.144C479.796 655.714 474.091 655.191 470.351 657.054C469.742 657.35 469.846 658.447 470.542 658.569C474.038 659.126 478.526 657.664 480.77 661.32C481.901 663.166 482.301 665.464 482.875 667.518C483.553 669.991 484.249 672.446 484.928 674.918C485.415 676.642 488.111 675.91 487.624 674.169H487.607Z" fill="#CB7A55"/>
<path d="M486.233 696.891C485.867 694.976 485.485 693.06 485.067 691.145C484.667 689.334 484.51 687.158 483.675 685.487C482.736 683.589 480.283 682.701 478.492 684.059C477.9 684.512 477.5 685.138 477.222 685.852C476.857 685.278 476.474 684.703 475.987 684.181C474.752 682.84 472.525 683.484 471.847 684.999C471.76 684.303 471.69 683.589 471.603 682.892C471.447 681.43 470.699 680.142 469.203 679.741C467.933 679.393 466.072 679.933 465.497 681.238C464.054 684.564 463.306 688.029 463.41 691.668C463.514 695.272 464.315 698.841 465.132 702.34C465.497 703.925 466.019 705.492 467.115 706.728C468.368 708.138 470.09 708.713 471.916 708.887C473.447 709.044 475.03 708.939 476.578 708.939C478.527 708.939 480.336 708.87 482.249 708.469C483.032 708.312 483.571 707.807 483.919 707.198C484.545 706.832 485.05 706.258 485.172 705.561C485.258 705.091 485.276 704.639 485.311 704.169C485.746 704.064 486.111 703.768 486.215 703.228C486.424 702.219 486.633 701.244 486.65 700.199C486.668 699.067 486.424 697.988 486.215 696.873L486.233 696.891Z" fill="#EC9D74"/>
<path d="M363.7 180.639C347.088 168.747 338.356 147.645 340.93 127.483C341.33 124.332 337.207 123.548 335.294 125.15C324.805 133.908 313.933 142.961 300.764 147.314C298.677 148.011 296.468 148.307 294.415 149.055C293.945 149.229 293.476 149.438 293.058 149.752C292.415 150.239 291.997 150.883 291.806 151.667C291.301 153.774 292.171 156.228 292.519 158.283C293.058 161.504 293.389 164.742 293.493 167.998C293.58 170.662 293.528 173.343 293.319 176.007C293.006 180.099 292.31 184.225 290.432 187.864C287.161 194.202 280.777 198.224 274.706 201.95C273.419 202.733 279.925 207.277 280.499 207.539C283.682 209.053 287.161 209.367 290.606 209.628C299.425 210.324 308.349 210.585 317.151 209.506C335.207 207.295 351.106 197.945 364.396 185.897C366.136 184.312 365.388 181.788 363.718 180.604L363.7 180.639Z" fill="#E09168"/>
<path d="M329.919 14.1376C325.222 12.8666 320.456 11.2822 315.672 10.6206C310.471 9.90671 305.304 9.62814 300.051 9.95894C289.631 10.6206 279.42 13.3715 269.801 17.3586C267.922 18.1421 266.113 19.0475 264.634 20.51C262.912 22.2163 261.868 24.4623 260.268 26.2556C254.789 32.4191 250.962 39.5402 249.187 47.6362C247.065 57.2297 248.822 66.5271 249.622 76.1206C250.248 83.6073 250.37 91.181 249.135 98.6155C248.805 100.635 248.37 102.62 247.935 104.622C247.413 106.99 246.909 109.341 246.387 111.709C246.126 112.892 245.865 114.076 245.621 115.243C245.43 116.114 245.134 117.036 245.36 117.924C245.465 118.342 245.673 118.743 245.813 119.16C246.004 119.648 246.108 120.188 246.474 120.588C247.309 121.511 248.77 121.807 249.883 122.19C250.005 122.225 250.109 122.277 250.231 122.312C251.727 122.869 253.467 124.053 253.101 125.846C252.91 126.769 253.101 127.553 253.31 128.475C253.588 129.624 253.884 130.774 254.215 131.905C254.684 133.577 255.189 135.213 255.728 136.85C257.92 143.379 260.755 149.717 264.373 155.584C268.113 161.643 273.158 166.379 280.273 167.981C294.015 171.08 316.924 164.237 327.657 156.472C348.375 141.446 354.446 118.969 362.361 94.611C366.658 81.3787 369.249 66.649 366.849 52.7899C365.596 45.5818 362.5 38.8263 358.308 32.8543C353.35 25.7855 347.801 20.2314 339.573 17.0278C336.772 15.9309 333.85 15.1648 330.928 14.3987C330.597 14.3117 330.267 14.2246 329.936 14.1376H329.919Z" fill="#EC9D74"/>
<path d="M374.885 52.5462C374.085 49.5167 373.146 46.5046 372.05 43.5621C369.719 37.2594 366.449 31.2526 361.961 26.2208C355.89 19.3957 347.818 14.6077 339.277 11.526C329.675 8.0786 319.29 7.05135 309.149 7.4518C298.433 7.86967 287.335 9.40183 276.968 12.1528C271.906 13.4934 266.965 15.6175 262.756 18.7863C260.251 20.6667 258.163 23.0172 256.389 25.594C255.415 27.0043 254.719 28.6409 253.467 29.8249C253.171 30.1034 252.858 30.3298 252.614 30.6432C251.831 31.6704 251.501 33.22 251.136 34.4388C250.248 37.3464 249.657 40.3237 249.361 43.3532C249.187 45.251 249.118 47.1662 249.187 49.0814C249.222 50.2479 249.344 51.4667 250.005 52.4243C250.527 53.173 251.327 53.6431 252.127 54.0957C257.346 57.073 262.825 59.5802 268.513 61.565C269.714 61.9829 270.984 62.3137 272.062 63.0101C272.81 63.4977 273.454 64.107 274.219 64.5597C276.55 65.9352 278.985 66.8406 280.951 68.7906C281.247 69.0866 281.542 69.4 281.821 69.7308C287.057 76.0335 284.778 86.0797 289.457 92.8177C290.397 94.1758 291.754 95.4293 293.406 95.586C294.937 95.7253 296.381 94.8896 297.703 94.0887C299.077 93.253 300.451 92.4172 301.825 91.5815C302.486 91.1811 303.147 90.6761 303.861 90.3453C304.295 90.1538 304.852 90.1886 305.322 90.1712C307.792 90.0494 310.193 91.3029 311.793 93.1485C312.106 93.4967 312.384 93.8798 312.628 94.2802C314.367 97.1008 314.646 100.635 314.141 103.908C313.637 107.251 312.28 110.629 309.601 112.701C308.035 113.92 306.07 114.634 304.73 116.096C303.182 117.785 302.713 120.205 302.573 122.486C301.86 133.524 307.757 144.389 316.646 150.727C319.412 152.711 323.361 155.515 327.083 155.288C328.527 155.201 329.884 154.54 331.258 154.156C333.38 153.547 335.45 153.094 337.468 152.137C339.486 151.179 341.382 149.995 343.209 148.707C373.807 127.257 384.157 87.6466 374.903 52.5636L374.885 52.5462Z" fill="#3D2E09"/>
<path d="M358.395 525.689C357.612 525.898 356.829 526.055 356.029 526.177C355.142 525.811 354.028 525.915 353.211 526.438C347.349 526.664 341.365 525.08 335.572 524.557C328.51 523.931 321.412 524.418 314.419 525.323C305.2 526.507 296.067 528.301 286.848 529.38C280.847 530.077 274.828 530.303 268.809 530.616C265.887 530.756 261.799 530.059 259.816 532.532C258.737 533.89 257.676 535.265 256.615 536.641C254.371 539.513 252.162 542.421 250.005 545.363C226.121 577.922 214.171 619.377 200.272 656.846C178.823 714.72 158.384 773.029 143.963 833.097C133.126 878.174 125.994 924.034 122.028 970.208C121.906 971.636 121.784 973.081 121.663 974.509C118.166 1017.46 118.288 1060.43 117.731 1103.49C117.575 1115.28 117.314 1127.05 117.018 1138.82C116.67 1152.2 116.235 1165.58 115.939 1178.97C115.887 1181.11 116.113 1183.25 116.6 1185.36C116.844 1186.38 117.296 1188.99 118.497 1189.46C120.01 1190.06 120.88 1186.28 121.245 1185.42C122.515 1182.4 123.785 1179.38 125.055 1176.35C125.455 1175.41 126.324 1174.26 127.246 1174.72C127.612 1174.89 127.82 1175.27 127.994 1175.64C129.838 1179.24 131.665 1182.87 133.509 1186.47C133.926 1187.29 134.378 1188.16 135.179 1188.65C137.405 1189.99 141.406 1188.94 143.824 1188.99C147.494 1189.06 151.147 1189.6 154.679 1190.58C163.063 1192.91 171.604 1193.69 180.215 1195.07C187.973 1196.31 189.261 1189.46 190.652 1183.44C192.931 1173.53 195.088 1163.61 197.158 1153.67C201.002 1135.23 204.499 1116.72 207.682 1098.16C209.178 1089.37 210.831 1080.59 212.431 1071.82C214.084 1062.78 214.866 1052.81 217.65 1044.07C221.703 1023.33 226.33 1002.71 230.4 981.995C234.506 962.634 238.733 943.308 243.116 924.017C245.221 914.789 248.578 905.091 249.5 895.689C249.848 892.12 251.501 889.125 252.144 885.678C252.371 884.511 252.371 883.31 252.666 882.143C253.658 878.261 256.424 874.535 258.442 871.14C263.034 863.444 268.044 856.027 272.897 848.488C293.458 816.504 311.81 783.145 328.492 748.984C344.165 716.913 362.5 683.084 369.319 647.792C374.155 622.807 372.955 597.022 368.467 572.089C367.162 564.794 365.562 557.568 363.752 550.378C362.865 546.878 362.152 543.17 360.882 539.774C359.96 537.337 358.412 535.491 358.343 532.758C360.552 532.044 362.97 531.522 362.517 528.562C362.204 526.542 360.36 525.167 358.343 525.706L358.395 525.689Z" fill="#215155"/>
<path d="M521.91 498.65C520.136 482.736 517.092 466.962 513.7 451.344C506.794 419.534 498.444 388.055 490.599 356.507C486.667 340.68 482.719 324.854 478.787 309.027C474.073 290.101 469.498 270.932 461.305 253.138C452.033 232.976 436.047 217.55 419.191 203.604C416.947 201.741 414.46 199.808 411.555 199.686C403.97 199.338 405.362 210.864 406.284 215.443C408.25 225.228 410.076 235.065 412.442 244.763C415.382 256.829 418.565 268.842 421.418 280.943C421.557 281.552 421.696 282.144 421.835 282.754C425.314 297.727 428.15 312.875 429.159 328.266C430.22 344.389 429.576 360.563 428.411 376.651C426.184 407.521 421.992 438.373 423.749 469.417C424.584 484.042 426.654 498.684 430.829 512.683C432.899 519.612 435.508 526.35 438.569 532.845C441.544 539.147 444.919 545.346 446.745 552.171C447.632 555.496 448.067 558.891 447.789 562.356C447.493 565.908 446.293 569.303 445.632 572.785C444.397 579.28 445.249 585.704 448.78 591.276C456.434 603.359 470.142 606.632 483.154 606.667C486.615 606.667 490.112 606.597 493.573 606.336C496.322 606.127 499.262 605.692 501.61 604.055C507.907 599.685 505.454 591.746 505.367 585.182C505.28 577.643 506.776 570.156 509.681 563.262C512.569 556.419 516.222 549.995 518.692 542.96C523.632 528.875 523.528 513.414 521.893 498.702L521.91 498.65Z" fill="white"/>
<path d="M513.787 1157.92C512.934 1155.41 512.082 1152.88 511.247 1150.36C501.158 1119.7 493.051 1088.45 485.05 1057.19C477.135 1026.32 468.315 995.68 461.931 964.445C461.409 961.868 460.888 959.274 460.383 956.679C455.704 932.739 451.981 908.625 449.407 884.407C446.189 854.059 442.779 821.658 445.788 791.188C448.537 763.296 459.165 736.64 464.21 709.096C464.401 708.103 464.575 707.094 464.749 706.101C468.559 683.902 469.603 661.268 467.985 638.825C466.367 616.365 462.07 594.096 455.199 572.559C451.772 561.799 447.685 551.213 442.988 540.906C440.639 535.752 438.135 530.651 435.456 525.637C434.569 523.983 433.838 522.363 431.855 521.806C431.002 521.562 430.028 521.615 429.141 521.545C423.749 521.162 418.443 521.127 413.051 521.528C400.352 522.433 387.688 523.843 374.99 524.94C368.449 525.497 361.926 526.072 355.385 526.629C353.924 526.751 353.054 527.726 352.776 528.805C341.991 528.196 332.284 535.474 327.535 544.353C321.656 555.357 321.221 568.293 320.038 580.359C315.289 628.831 310.105 677.147 310.975 725.897C312.245 797.23 317.846 867.553 341.017 935.49C349.61 960.684 359.786 985.286 369.963 1009.89C392.559 1064.54 415.155 1119.19 437.752 1173.85C438.639 1175.99 439.752 1179.91 442.588 1180.45C444.275 1180.76 446.154 1180.53 447.876 1180.65C453.46 1181.07 459.078 1181.02 464.662 1180.48C466.524 1180.31 468.594 1179.96 469.672 1178.43C470.42 1177.38 470.507 1176.04 470.559 1174.75C470.803 1169.7 471.064 1164.67 471.307 1159.62C475.256 1159.13 478.248 1163.05 479.883 1166.67C481.518 1170.29 483.153 1174.54 486.893 1175.87C489.607 1176.82 492.582 1175.9 495.295 1174.93C500.792 1172.94 506.202 1170.73 511.508 1168.29C513.265 1167.49 514.743 1166.9 515.091 1164.79C515.387 1163 514.882 1161.1 514.308 1159.41C514.134 1158.91 513.96 1158.4 513.787 1157.92Z" fill="#215155"/>
<path d="M274.314 139.66C273.709 139.501 273.104 139.788 272.769 140.282C272.18 141.175 271.336 141.987 270.588 142.752C269.76 143.597 268.916 144.458 268.04 145.271C267.339 145.908 266.416 146.482 265.524 146.785C265.078 146.944 264.601 147.072 264.123 147.104C263.502 147.151 262.961 147.311 262.324 147.279C261.4 147.231 261.034 148.602 261.846 149.016C262.403 149.303 263.056 149.67 263.661 149.781C264.33 149.909 265.062 149.909 265.747 149.829C267.308 149.654 268.629 149.048 269.871 148.076C270.954 147.231 271.877 146.243 272.801 145.207C273.135 144.84 273.422 144.442 273.725 144.043C274.075 144.012 274.409 143.852 274.616 143.517C275.094 142.721 275.221 141.876 275.333 140.967C275.396 140.378 274.855 139.788 274.33 139.644L274.314 139.66Z" fill="#181818"/>
<path d="M54.1165 392.443C40.2524 390.632 26.1797 390.528 12.2982 392.13C12.1591 392.13 12.0199 392.164 11.8807 392.182C9.93248 392.426 7.91463 392.756 6.15771 393.731C5.74022 393.958 5.37492 394.254 4.97483 394.515C4.7313 394.672 4.43558 394.793 4.22683 395.02C3.84414 395.438 3.77456 396.169 3.70498 396.691C3.40926 399.407 4.26162 402.158 4.55734 404.84C5.56627 414.085 5.56627 423.313 6.10552 432.593C6.73175 443.91 7.32319 455.244 7.89723 466.579C8.07119 470.2 7.68849 475.981 12.4026 476.294C24.0574 477.06 35.7644 476.886 47.4019 475.807C48.3412 475.719 49.3502 475.598 50.0808 474.971C50.707 474.431 51.0201 473.613 51.2636 472.812C52.7422 468.059 52.4987 462.731 52.9162 457.786C53.8033 447.044 54.7949 436.075 55.9082 425.263C56.7605 416.87 57.7521 408.478 58.9871 400.139C59.3002 398.067 59.9787 395.577 58.3261 393.871C57.4911 393.017 56.2561 392.791 55.0906 392.634C54.7601 392.582 54.447 392.547 54.1165 392.513V392.443Z" fill="#D8BFA8"/>
<path d="M7.42752 457.299H52.9509C53.8381 446.695 54.8122 435.866 55.9081 425.21C56.2038 422.25 56.5343 419.273 56.8823 416.313H5.40967C5.6706 421.728 5.80976 427.143 6.12287 432.575C6.57515 440.81 6.99264 449.063 7.42752 457.299Z" fill="#559090"/>
<path d="M63.336 401.061C63.0229 399.581 62.7098 398.119 62.3966 396.639C61.8922 394.219 61.3703 391.781 60.8659 389.361C60.7267 388.699 60.6571 387.881 60.2396 387.341C59.3177 386.123 57.1259 386.227 55.8908 386.036C55.5951 385.983 55.2994 385.931 55.0558 385.757C54.4992 385.374 54.447 384.556 54.4122 383.842C54.36 382.223 54.0469 380.394 52.7423 379.541C52.0638 379.106 51.2463 379.019 50.4461 378.949C50.046 378.914 49.6459 378.88 49.2458 378.845C44.5665 378.462 39.8524 378.27 35.1556 378.288C27.9018 378.288 20.5262 378.357 13.2898 378.653C12.7332 378.671 12.1591 378.706 11.672 378.967C11.272 379.176 11.272 379.35 11.1676 379.75C11.0806 380.064 10.9936 380.36 10.924 380.673C10.7501 381.282 10.5935 381.909 10.4196 382.519C10.2978 382.954 10.176 383.407 9.91512 383.772C8.97578 385.13 7.28844 384.643 6.00119 385.2C5.39235 385.461 4.55738 385.583 4.19208 386.21C3.33971 387.69 3.21794 389.988 2.85264 391.659C2.57432 392.93 2.29599 394.219 1.98288 395.49C1.82632 396.134 1.66976 396.761 1.51321 397.388C1.40884 397.771 1.25228 398.154 1.20009 398.554C1.1827 398.728 1.20009 398.885 1.20009 399.059C1.1653 399.32 1.09572 399.599 1.04353 399.86C0.817396 400.922 0.539072 401.967 0.208562 402.994C0.0520048 403.481 -0.104553 404.021 0.138981 404.456C0.243353 404.63 0.39991 404.77 0.573863 404.874C1.02614 405.188 1.70455 405.536 2.2786 405.501C2.87004 405.466 3.47887 405.501 4.07031 405.501C13.4638 405.536 22.8398 405.571 32.2332 405.501C37.1387 405.449 42.0442 405.362 46.9496 405.327C47.4019 405.327 47.8542 405.327 48.3065 405.327C52.8292 405.327 57.5608 405.536 62.1531 404.996C62.8315 404.909 63.6491 404.718 63.8578 404.021C63.9448 403.708 63.8752 403.377 63.823 403.063C63.6839 402.384 63.5273 401.688 63.3882 401.009L63.336 401.061Z" fill="#4B4943"/>
<path d="M47.9066 380.621C47.3326 378.723 46.7585 376.808 46.1845 374.91C46.0801 374.562 45.9583 374.196 45.68 373.97C45.4191 373.761 45.0712 373.743 44.7407 373.726C43.1055 373.622 41.4529 373.517 39.8178 373.43C39.5917 373.43 39.3481 373.413 39.1568 373.517C38.9828 373.622 38.8785 373.796 38.7741 373.97C38.3392 374.753 37.9913 375.589 37.713 376.442C37.3825 377.487 37.1563 378.566 36.9824 379.646C36.9128 380.064 36.8432 380.481 36.7736 380.899C36.704 381.387 36.6693 381.874 36.5823 382.362C36.5127 382.71 36.5649 382.989 36.7736 383.267C37.0867 383.685 37.626 383.755 38.0957 383.859C38.6523 383.981 39.209 384.086 39.7656 384.155C42.0096 384.451 44.2884 384.382 46.4976 383.964C47.2456 383.824 48.1327 383.494 48.3241 382.71C48.4111 382.31 48.3067 381.909 48.1849 381.509C48.0979 381.213 48.011 380.917 47.9066 380.603V380.621Z" fill="#4B4943"/>
<path d="M51.9597 383.023C45.0364 383.354 38.0435 384.033 31.1028 383.877C24.2142 383.72 17.1344 382.449 10.3502 384.329C10.0023 384.434 10.0719 384.973 10.4372 384.973C14.0032 384.991 17.5692 384.677 21.1353 384.834C24.5969 384.991 28.0412 385.374 31.5029 385.426C38.3044 385.531 45.1581 384.886 51.9597 384.573C52.899 384.521 52.899 382.989 51.9597 383.041V383.023Z" fill="#1F1F1F"/>
<path d="M45.7147 375.92C45.6626 375.398 45.8365 374.649 45.4364 374.248C45.2451 374.057 44.932 374.057 44.7406 374.248C44.4101 374.579 44.4797 375.049 44.5319 375.485C44.5841 375.92 44.6536 376.338 44.8102 376.756C44.845 376.86 44.932 377.034 44.932 377.156C44.8798 377.156 44.8276 377.156 44.7928 377.156C44.7058 377.156 44.5841 377.156 44.4971 377.156C44.0274 377.156 43.5577 377.191 43.0881 377.208C42.2009 377.243 41.2963 377.278 40.4092 377.348C39.9569 377.382 39.522 377.435 39.0698 377.487C38.9828 377.487 38.2696 377.539 37.9217 377.661C37.7999 377.522 37.6433 377.574 37.5564 377.713C37.5216 377.765 37.5216 377.852 37.5564 377.905C37.7477 378.27 38.3044 378.201 38.6175 378.183C39.1567 378.183 39.7134 378.166 40.2526 378.148C41.3659 378.131 42.4792 378.061 43.5925 378.027C44.3405 378.009 45.68 378.27 45.8887 377.226C45.9757 376.773 45.7495 376.32 45.7147 375.885V375.92Z" fill="#1F1F1F"/>
<path d="M60.6224 396.743C55.856 397.335 51.0898 397.109 46.3061 397.005C41.6789 396.9 37.1561 397.161 32.5812 397.858C27.6409 398.606 22.8398 399.146 17.8474 398.833C12.9941 398.519 8.21042 397.701 3.37454 397.248C3.07882 397.213 3.02663 397.718 3.30495 397.788C12.2461 400.104 21.8657 400.626 30.9634 399.32C35.9733 398.606 40.8613 398.154 45.9234 398.276C50.8288 398.397 55.7343 398.659 60.6224 398.084C61.4399 397.98 61.4399 396.639 60.6224 396.743Z" fill="#1F1F1F"/>
<path d="M454.973 363.959C453.529 324.975 448.763 285.958 438.048 248.385C436.813 244.067 435.525 239.766 434.099 235.518C432.22 229.912 430.098 224.392 427.541 219.065C426.288 216.436 424.723 213.963 423.488 211.352C422.722 209.732 422.653 207.887 421.696 206.355C411.033 189.24 384.018 188.683 367.249 181.004C366.483 180.656 365.805 180.186 365.109 179.716C364.674 179.42 364.222 179.124 363.752 178.863C362.152 177.957 361.213 176.965 360.36 175.276C359.351 173.274 358.342 171.254 357.334 169.252C356.638 167.859 355.855 166.414 354.342 165.787C353.089 165.265 351.698 165.526 350.48 166.014C349.68 166.344 348.949 166.78 348.218 167.232C344.792 169.443 341.452 171.724 337.764 173.5C333.032 175.764 328.075 177.505 322.978 178.741C317.446 180.082 311.793 180.848 306.174 181.701C303.478 182.101 300.782 182.502 298.103 182.937C297.007 182.345 295.702 182.206 294.45 182.136C293.249 182.084 292.067 182.206 290.884 182.397C290.727 182.415 290.588 182.467 290.431 182.502C289.788 182.38 289.162 182.258 288.518 182.31C287.579 182.397 286.778 182.833 286.291 183.651C286.239 183.755 286.204 183.877 286.152 183.982C285.561 184.173 284.795 184.434 285.456 184.417C284.395 184.417 283.317 184.991 282.795 185.949C277.646 195.386 271.21 204.161 263.451 211.613C259.485 215.426 255.189 218.699 250.822 222.007C246.334 225.385 242.212 229.006 239.185 233.812C233.601 242.691 232.209 253.486 231.496 263.724C230.626 276.26 230.226 288.848 229.878 301.401C228.487 352.746 230.296 404.178 235.271 455.296C236.663 469.539 238.298 483.763 240.176 497.953C241.116 505.005 242.02 512.091 243.203 519.108C244.317 525.672 245.726 532.497 248.822 538.451C250.022 540.767 253.258 540.419 254.545 538.451C254.841 537.981 255.102 537.511 255.38 537.023C294.763 537.65 334.18 536.536 373.459 533.663C383.461 532.932 393.446 532.079 403.431 531.121C411.92 530.303 421.105 530.164 429.019 526.716C436.726 523.356 440.831 516.426 442.866 508.557C445.197 499.572 446.519 490.223 447.963 481.065C454.051 442.36 456.452 403.098 455.008 363.941L454.973 363.959Z" fill="white"/>
<path d="M88.8552 443.422C88.6638 442.134 88.4377 440.741 87.5331 439.801C86.385 438.634 84.5759 438.547 82.9408 438.46C82.0188 438.425 81.0969 438.355 80.1575 438.268C77.2699 438.007 74.3997 437.555 71.5817 436.876C70.7293 436.667 69.8421 436.719 69.0072 436.51C67.5981 436.144 66.6066 434.542 65.876 433.411C65.1802 432.349 64.4148 431.321 63.8582 430.172C63.6494 429.737 63.4407 429.284 63.2319 428.849C63.2319 428.797 63.2319 428.762 63.2319 428.71C62.5535 426.795 61.7881 424.932 61.0401 423.034C60.6922 422.128 60.3269 421.206 59.979 420.3C59.6137 419.378 59.3528 418.194 58.657 417.462C57.9264 416.696 56.7957 416.487 55.8215 416.836C54.8648 417.166 54.2038 417.915 53.7167 418.768C53.5254 419.116 53.3166 419.412 53.1079 419.726C52.1511 420.248 51.1422 420.701 50.1681 421.171C49.1418 421.38 48.2198 421.832 47.2631 422.268C47.1935 422.303 47.1065 422.337 47.0369 422.39C46.9674 422.39 46.8978 422.407 46.8456 422.424C44.7756 422.773 42.7055 423.156 40.6007 423.034C37.3304 422.842 34.2688 421.415 31.2246 420.196C24.7014 417.549 17.8825 415.634 10.9418 414.485C9.56754 414.259 8.07155 414.067 6.74951 414.59C6.31463 414.764 5.77537 414.851 5.37528 415.077C4.2098 415.739 4.08803 417.288 3.91408 418.507C3.74013 419.743 3.70534 420.997 3.8445 422.233C4.00106 423.8 4.40115 425.367 4.24459 426.934C4.07064 428.675 3.25306 430.259 2.59204 431.861C1.32219 434.978 0.661166 438.669 2.27893 441.629C2.67902 442.343 3.20087 443.004 3.53138 443.753C5.06217 447.183 2.29632 451.449 3.87929 454.861C4.38375 455.941 5.27091 456.811 5.82756 457.856C6.74951 459.614 6.64514 461.721 6.87128 463.688C7.04523 465.203 7.5149 466.892 8.69778 467.937C8.9935 468.198 9.3414 468.337 9.65452 468.563C9.96763 468.807 10.2634 469.086 10.5765 469.33C11.2897 469.852 12.0551 470.305 12.8379 470.722C16.0386 472.411 19.6046 473.264 23.1532 473.769C24.858 474.013 26.5801 474.187 28.3022 474.326C36.478 474.953 45.28 475.685 53.3166 473.839C55.3171 473.369 57.4393 472.847 59.3006 471.959C60.5879 471.332 61.4054 470.113 62.7275 469.521C64.8149 468.598 67.1111 468.024 69.442 467.78C71.2511 467.588 73.095 467.588 74.852 467.763C78.1571 468.076 81.41 469.034 84.7325 468.929C85.3413 468.912 85.9675 468.842 86.472 468.511C86.9765 468.18 87.2896 467.606 87.5505 467.066C91.0122 459.841 89.9685 451.344 88.8378 443.405L88.8552 443.422Z" fill="#EC9D74"/>
<path d="M287.37 303.003C287.022 297.292 286.309 291.599 285.196 285.975C284.291 281.344 283.108 276.765 281.664 272.272C281.63 272.185 281.612 272.098 281.577 272.029C280.186 267.746 278.272 264.455 275.785 260.746C273.506 257.351 272.375 253.26 270.705 249.551C268.653 245.042 266.165 240.254 261.66 237.799C256.893 235.205 249.518 234.456 244.264 235.396C236.332 236.806 231.531 244.223 227.582 250.561C223.808 256.62 220.05 262.696 216.484 268.877C211.996 276.677 207.804 284.686 204.395 293.026C200.081 303.595 197.993 314.738 194.34 325.498C190.513 336.763 186.895 348.08 183.485 359.484C179.798 371.759 176.371 384.103 173.17 396.517C171.535 402.855 169.987 409.21 168.456 415.582C167.934 417.741 167.499 420.213 165.69 421.693C163.568 423.417 160.524 424.253 157.967 425.054C151.739 427.021 145.268 428.083 138.78 428.623C133.544 429.058 128.082 429.424 122.828 429.093C120.828 428.971 119.175 428.692 117.14 429.006C111.73 429.824 106.146 428.309 100.823 429.789C97.692 430.66 94.8914 432.575 91.6906 433.254C87.3592 434.177 82.9408 432.714 78.6268 431.792C74.3128 430.869 69.3377 430.608 65.9282 433.411C62.6927 436.057 61.8751 440.584 61.2663 444.728L57.9612 467.031C57.5959 469.556 57.3698 472.533 59.2485 474.257C60.4313 475.336 62.1361 475.563 63.6842 475.981C67.7026 477.025 71.286 479.654 74.6433 482.109C76.0001 483.102 77.096 484.268 78.1049 485.609C79.7053 487.785 81.1317 489.979 83.0626 491.894C85.0282 493.862 87.2374 495.585 89.5858 497.083C90.8035 497.866 92.0559 498.58 93.3432 499.259C99.7446 502.619 106.703 504.935 113.835 506.136C121.297 507.39 127.925 506.467 135.457 505.753C146.294 504.743 157.184 504.099 168.073 504.273C178.754 504.447 188.739 505.353 199.28 502.828C204.986 501.453 210.326 498.859 215.458 496.021C220.85 493.043 226.069 489.753 231.114 486.201C234.836 483.554 239.829 480.751 241.951 476.503C242.647 475.11 243.012 473.578 243.447 472.081C244.16 469.695 245.134 467.449 246.143 465.168C248.787 459.144 251.327 453.085 253.78 446.991C254.389 445.459 254.997 443.944 255.606 442.412C261.468 427.526 266.757 412.413 271.453 397.126C280.76 366.866 289.353 334.969 287.405 303.02L287.37 303.003Z" fill="white"/>
<path d="M261.173 564.48C256.737 583.963 252.284 603.481 246.213 622.546C240.159 641.559 231.949 659.579 222.921 677.338C214.153 694.575 204.986 711.62 197.489 729.467C189.609 748.236 184.233 767.84 179.398 787.584C169.552 827.769 160.106 868.232 153.044 908.991C145.912 950.046 138.275 990.979 132.169 1032.21C129.16 1052.56 126.359 1072.95 123.802 1093.37C121.21 1114.02 118.01 1134.93 117.418 1155.74C117.262 1160.86 117.331 1165.94 117.018 1171.06C116.949 1172.24 118.688 1172.19 118.827 1171.06C120.201 1160.6 122.567 1150.34 123.75 1139.84C124.898 1129.64 126.098 1119.44 127.351 1109.25C129.891 1088.53 132.57 1067.83 135.544 1047.16C141.441 1006.13 148.295 965.246 156.244 924.574C164.194 883.919 173.083 843.386 182.685 803.08C187.399 783.336 192.096 763.522 198.967 744.388C205.595 725.95 214.553 708.521 223.495 691.145C232.366 673.891 241.186 656.584 247.918 638.372C254.858 619.621 259.798 600.208 264.321 580.742C265.435 575.919 266.53 571.097 267.626 566.256C268.583 562.078 262.147 560.284 261.19 564.48H261.173Z" fill="#183E41"/>
<path d="M461.183 1132.62C457.461 1119.19 453.86 1105.75 449.824 1092.4C445.789 1079.06 441.701 1065.74 437.595 1052.42C429.489 1026.17 421.435 999.893 413.277 973.655C397.204 921.927 381.374 869.834 372.294 816.347C369.789 801.583 367.771 786.679 366.744 771.723C365.701 756.61 365.718 741.376 366.136 726.246C366.17 725.184 364.413 724.905 364.239 725.984C360.117 752.432 361.769 779.819 365.457 806.232C369.215 833.184 375.407 859.735 382.261 886.026C396.125 939.216 412.946 991.623 429.141 1044.13C433.751 1059.09 438.343 1074.05 443.023 1088.97C447.719 1103.92 452.781 1118.71 457.826 1133.54C458.539 1135.65 461.81 1134.79 461.201 1132.62H461.183Z" fill="#183E41"/>
<path d="M381.722 686.061C381.6 684.581 379.582 683.798 378.765 685.26C377.93 686.74 376.816 687.802 376.155 689.439C375.442 691.215 374.833 693.026 374.172 694.819C372.955 698.127 371.493 701.313 369.876 704.43C366.588 710.732 362.726 716.687 358.534 722.415C349.367 734.934 339.051 746.669 329.153 758.613C326.092 762.321 323.03 766.012 319.951 769.721C318.507 771.462 317.064 773.203 315.62 774.944C314.785 775.954 313.967 776.859 313.463 778.078C312.976 779.262 312.576 780.446 312.002 781.595C311.219 783.162 312.993 785.617 314.698 784.294C316.298 783.075 318.229 782.204 319.621 780.742C321.169 779.123 322.526 777.242 323.952 775.519C326.648 772.245 329.362 768.99 332.058 765.716C337.555 759.065 343.052 752.432 348.549 745.781C357.995 734.359 367.632 722.85 374.711 709.757C376.712 706.049 378.451 702.201 379.947 698.249C380.661 696.368 381.356 694.453 381.774 692.486C381.983 691.546 382.209 690.536 382.244 689.578C382.296 688.342 381.791 687.28 381.704 686.079L381.722 686.061Z" fill="#183E41"/>
<path d="M437.247 533.158C435.351 533.35 433.473 533.559 431.576 533.785C417.625 535.004 403.692 536.222 389.741 537.441C389.358 535.839 387.88 534.447 385.757 534.882C355.385 541.063 324.282 541.916 293.388 541.602C289.301 541.568 285.213 541.498 281.125 541.428C278.202 541.341 275.28 541.254 272.358 541.15C270.166 541.08 267.974 540.923 265.782 540.906C263.59 540.906 261.381 541.237 259.207 541.463C256.737 541.707 255.693 545.642 258.563 546.182C260.668 546.582 262.825 547.139 264.965 547.331C265.052 547.331 265.139 547.331 265.226 547.331C265.469 547.452 265.747 547.54 266.043 547.592C280.933 549.942 296.015 550.412 311.01 548.776C311.671 548.706 312.21 548.48 312.662 548.184C313.602 548.184 314.541 548.166 315.48 548.149C315.863 549.281 316.837 550.186 318.49 550.238C335.328 550.691 352.184 549.194 368.675 545.851C369.04 545.816 369.423 545.781 369.788 545.746C392.715 546.269 415.66 544.214 438.134 539.618C441.718 538.886 440.97 532.775 437.265 533.158H437.247Z" fill="#1F1F1F"/>
<path d="M360.76 625.436C362.204 623.347 360.291 620.178 357.821 620.317C355.681 620.439 353.559 620.509 351.419 620.596C337.729 619.638 324.004 619.673 310.314 620.683C310.175 620.683 310.036 620.735 309.897 620.753C308.488 620.7 307.079 620.683 305.687 620.613C303.391 620.509 301.93 622.859 302.399 624.914C304.608 634.316 315.933 633.236 323.308 633.097C332.771 632.923 342.234 632.749 351.697 632.575C352.219 632.575 352.672 632.453 353.072 632.279C353.159 632.279 353.228 632.279 353.315 632.279C355.577 632.313 357.873 632.07 359.421 630.259C360.152 629.406 360.482 628.396 360.604 627.299C360.639 626.933 360.673 626.585 360.691 626.22C360.691 625.941 360.691 625.662 360.691 625.384C360.691 625.349 360.691 625.332 360.691 625.297C360.691 625.262 360.708 625.227 360.726 625.21C360.726 625.262 360.743 625.314 360.76 625.401V625.436Z" fill="#183E41"/>
<path d="M457.739 608.199C457.739 608.199 457.6 608.199 457.548 608.165C457.078 607.486 456.33 606.998 455.391 606.998C450.12 607.364 444.832 608.426 439.683 609.871C439.004 610.028 438.308 610.167 437.63 610.324C431.994 611.629 426.445 613.266 420.965 615.094C419.591 615.547 419.104 616.783 419.261 617.897C418.826 618.228 418.443 618.594 418.165 619.081C417.156 620.857 418.234 622.772 418.878 624.461C419.417 625.854 420.791 626.951 422.374 626.446C434.203 622.685 446.467 620.021 458.748 618.298C460.087 618.106 461.357 616.365 461.235 615.042C460.974 612.187 460.87 609.261 457.739 608.199Z" fill="#183E41"/>
<path d="M440.709 542.56C440.709 541.185 440.135 539.757 439.7 538.468C438.761 535.683 437.526 533.054 436.204 530.425C435.804 529.641 434.864 529.119 433.942 529.049C433.908 528.979 433.89 528.892 433.855 528.805C433.56 528.179 432.516 528.196 432.22 528.805C432.064 529.119 431.959 529.484 431.872 529.85C431.316 530.355 430.933 531.069 431.02 531.818C431.316 534.29 431.681 536.762 432.203 539.217C432.429 540.349 432.69 541.463 432.986 542.577C433.281 543.727 433.508 545.241 434.186 546.251C429.385 546.948 424.653 548.149 419.817 548.724C414.129 549.403 408.441 549.995 402.735 550.569C397.534 551.091 392.333 551.544 387.132 551.997C387.132 551.91 387.149 551.84 387.149 551.753C387.149 551.318 387.149 550.882 387.149 550.447C387.167 550.308 387.219 550.186 387.219 550.047C387.219 549.907 387.219 549.786 387.236 549.646C387.236 549.542 387.236 549.507 387.254 549.455C387.306 549.107 387.34 548.776 387.393 548.428C387.445 547.94 387.445 547.47 387.393 546.982C387.34 546.373 387.219 545.816 387.097 545.259C387.097 544.719 387.097 544.162 387.114 543.622C387.114 542.961 387.114 542.212 386.958 541.585C386.784 540.941 386.453 540.401 386.018 539.948C385.879 539.722 385.688 539.513 385.479 539.322C385.444 539.2 385.427 539.095 385.41 538.973C385.044 537.598 383.601 536.414 382.139 536.484C380.661 536.553 379.252 537.476 378.869 538.973C377.895 542.804 378.382 547.017 380.295 550.499C380.313 550.917 380.348 551.335 380.365 551.753C380.365 552.014 380.417 552.258 380.487 552.519C376.277 552.85 372.05 553.181 367.84 553.459C351.263 554.539 334.668 555.235 318.055 555.531C318.229 554.783 318.125 554.069 317.968 553.303C317.899 552.92 317.829 552.554 317.759 552.171C317.759 551.892 317.759 551.631 317.759 551.353C317.707 550.064 317.551 548.793 317.29 547.522C317.168 546.93 317.029 546.338 316.855 545.746C316.82 545.607 316.768 545.468 316.716 545.346C316.681 545.05 316.629 544.736 316.594 544.44C316.559 544.144 316.542 543.918 316.49 543.692C316.107 542.647 315.237 541.724 313.985 541.794C312.471 541.864 311.515 542.943 311.393 544.388C311.184 546.721 311.619 549.194 311.967 551.492C312.106 552.38 312.297 553.25 312.541 554.121C312.576 554.643 312.628 555.131 312.663 555.618C308.001 555.688 303.339 555.74 298.659 555.74C292.675 555.74 286.674 555.879 280.69 555.531C274.671 555.183 268.861 554.643 263.382 551.892C261.207 550.795 259.311 553.964 261.451 555.183C270.81 560.546 281.299 561.608 291.893 561.712C303.704 561.834 315.515 561.747 327.327 561.468C351.228 560.894 375.112 559.414 398.908 557.168C405.606 556.524 412.303 555.845 418.982 555.061C424.966 554.365 431.855 554.051 437.021 550.691C438.187 549.942 438.43 548.219 437.839 547.087C438.117 546.895 438.326 546.652 438.517 546.373C439.926 545.746 440.657 544.197 440.657 542.56H440.709Z" fill="#183E41"/>
<path d="M396.891 627.682C396.282 614.102 393.725 600.504 389.585 587.55C387.271 580.29 384.262 573.378 380.852 566.587C380.226 565.334 377.982 566.222 378.539 567.562C388.732 591.885 393.307 618.559 391.689 644.884C391.237 652.388 390.681 659.858 390.124 667.362C390.037 668.615 391.829 668.72 392.211 667.64C396.682 654.791 397.499 641.211 396.908 627.7L396.891 627.682Z" fill="#183E41"/>
<path d="M214.553 684.703C214.014 678.174 213.805 671.627 213.927 665.081C214.049 658.517 214.623 652.023 215.266 645.494C215.91 638.912 216.293 632.209 217.51 625.715C217.789 624.2 215.597 623.538 215.162 625.071C213.353 631.635 211.37 638.059 210.343 644.832C209.352 651.379 208.952 658.064 208.795 664.698C208.639 671.384 208.795 678.07 209.352 684.721C209.63 688.081 209.978 691.441 210.5 694.767C210.743 696.299 210.9 697.901 211.318 699.398C211.822 701.174 212.674 702.811 213.318 704.517C213.805 705.805 215.84 705.701 215.823 704.169C215.823 702.497 215.962 700.808 215.962 699.137C215.962 697.448 215.666 695.759 215.492 694.088C215.162 690.971 214.814 687.837 214.553 684.703Z" fill="#183E41"/>
<path d="M445.075 275.929C442.501 263.793 438.604 251.971 433.229 240.794C432.829 239.975 431.611 240.689 432.011 241.507C451.877 283.085 449.563 330.738 442.066 375.032C440.935 381.683 439.648 388.316 438.361 394.933C437.091 401.41 435.612 407.869 434.794 414.415C434.603 415.895 436.986 416.139 437.352 414.764C440.5 403.081 442.135 390.841 444.066 378.915C445.962 367.093 447.563 355.201 448.554 343.257C450.433 320.762 449.772 298.041 445.092 275.911L445.075 275.929Z" fill="#A7C4D8"/>
<path d="M442.744 489.962C442.449 475.754 438.9 461.773 438.065 447.583C437.595 439.418 437.613 431.234 437.874 423.051C437.891 422.355 436.882 422.39 436.813 423.051C435.421 436.51 435.769 450.16 437.247 463.601C438.691 476.747 441.648 490.432 438.309 503.542C437.474 506.798 436.378 509.566 434.116 512.074C433.142 513.17 432.203 514.302 431.211 515.364C430.707 515.904 430.133 516.391 429.681 516.966C429.159 517.645 428.933 518.429 428.463 519.142C427.576 520.466 429.072 522.59 430.637 521.963C431.977 521.423 433.125 521.179 434.203 520.135C435.264 519.108 436.204 517.871 436.952 516.6C438.343 514.25 438.883 511.499 439.839 508.957C442.118 502.898 442.849 496.369 442.71 489.927L442.744 489.962Z" fill="#A7C4D8"/>
<path d="M273.715 325.132C266.13 347.766 263.486 371.793 260.964 395.403C259.694 407.242 258.685 419.099 256.824 430.869C255.05 442.116 252.405 453.486 246.961 463.584C244.334 468.459 241.116 472.986 237.219 476.921C233.358 480.803 228.765 483.885 224.138 486.758C222.573 487.716 223.564 490.327 225.408 489.77C235.01 486.915 242.542 478.941 247.917 470.775C254.093 461.39 257.589 450.491 259.798 439.557C264.634 415.634 264.965 391.067 267.852 366.901C269.505 353.042 272.201 339.2 276.498 325.898C277.072 324.122 274.306 323.374 273.715 325.132Z" fill="#A7C4D8"/>
<path d="M285.387 243.266C283.908 240.532 282.029 238.043 280.168 235.57C278.359 233.185 276.55 230.747 274.375 228.658C270.374 224.793 264.686 221.903 258.998 222.86C253.588 223.766 249.483 228.014 245.969 231.897C244.595 233.411 246.804 235.675 248.23 234.16C251.292 230.922 254.771 227.091 259.52 226.743C264.53 226.36 268.635 229.633 271.801 233.133C275.089 236.772 278.115 241.055 280.516 245.32C281.664 247.375 282.568 249.516 283.038 251.832C283.525 254.235 283.369 256.603 283.717 258.988C283.908 260.224 285.874 260.746 286.656 259.771C290.344 255.053 287.909 247.949 285.387 243.283V243.266Z" fill="#A7C4D8"/>
<path d="M503.332 567.057C499.696 567.249 496.478 568.746 493.103 570.017C489.537 571.358 485.797 572.629 481.988 572.89C481.344 572.942 480.701 572.925 480.074 572.907C480.492 571.88 480.875 570.853 481.222 569.808C483.919 568.572 486.424 565.577 488.024 563.401C491.207 559.118 493.156 554.034 494.773 548.985C495.226 547.557 495.643 546.129 496.061 544.684C497.87 540.262 499.279 535.648 500.322 530.877C500.722 529.032 497.974 527.604 497.087 529.519C497.017 529.659 496.965 529.798 496.913 529.937C494.391 535.561 492.686 541.411 490.738 547.244C490.616 547.627 490.477 548.01 490.338 548.393C488.581 551.527 486.58 554.539 484.354 557.359C484.545 556.297 484.736 555.253 484.91 554.191C485.937 548.062 486.563 541.811 486.737 535.596C487.067 522.886 485.745 510.123 482.788 497.762C481.988 494.384 481.153 490.937 479.935 487.681C479.013 485.243 477.726 483.067 475.412 481.761C474.456 481.221 473.516 482.109 473.69 483.084C478.161 509.061 478.839 535.926 477.326 562.252C476.908 561.399 476.508 560.528 476.126 559.64C474.577 556.088 473.273 552.432 472.072 548.741C470.159 542.891 468.298 536.205 463.27 532.218C462.088 531.278 460.505 531.87 460.365 533.419C459.565 542.96 459.704 552.328 461.931 561.677C462.383 563.592 465.132 562.739 464.819 560.876C463.566 553.233 462.87 545.311 463.392 537.528C465.793 541.167 466.506 545.677 467.532 549.977C468.298 553.233 469.324 556.419 470.594 559.518C471.759 562.356 472.89 565.63 474.786 568.067C476.073 569.721 477.465 570.348 478.874 570.33C478.717 571.062 478.561 571.81 478.422 572.542C478.422 572.629 478.422 572.698 478.422 572.768C475.934 572.489 473.516 571.828 471.081 571.079C469.15 570.487 467.219 569.895 465.271 569.321C463.236 568.694 461.113 567.771 458.956 567.823C456.156 567.893 455.495 571.323 457.6 572.82C459.322 574.056 461.67 574.457 463.671 575.084C465.845 575.763 468.002 576.442 470.176 577.086C474.125 578.235 478.196 579.106 482.318 578.723C486.337 578.34 490.129 577.121 493.834 575.589C497.609 574.039 501.575 572.455 504.167 569.181C504.793 568.398 504.48 566.953 503.28 567.022L503.332 567.057ZM476.543 486.079C477.761 487.977 478.3 490.397 478.891 492.504C479.9 496.177 480.77 499.903 481.483 503.664C482.927 511.307 483.745 519.055 483.936 526.82C484.127 534.446 483.745 542.107 482.788 549.681C482.492 552.066 482.092 554.417 481.657 556.767C481.988 545.833 481.796 534.882 481.083 523.965C480.248 511.238 478.544 498.667 476.56 486.096L476.543 486.079Z" fill="#A7C4D8"/>
<path d="M138.153 497.135C137.284 497.135 136.414 497.1 135.561 497.083C135.422 494.784 134.17 492.521 132.274 491.006C127.786 487.42 120.81 487.124 115.383 486.062C102.841 483.641 90.2989 480.699 77.5308 479.916C75.9305 473.265 75.6695 466.318 76.8176 459.545C78.1571 451.692 81.4796 444.919 84.9412 437.833C85.3935 436.91 84.2454 435.901 83.4626 436.684C77.7222 442.447 74.678 451.013 73.3734 458.918C72.0165 467.171 72.4862 475.615 74.9041 483.624C75.1477 484.442 75.7913 484.808 76.5915 484.912C81.9144 485.591 86.8373 487.82 91.6732 490.031C96.5091 492.242 101.38 494.314 106.459 495.881C115 498.51 123.802 499.851 132.691 499.921C132.569 500.164 132.43 500.408 132.239 500.652C131.526 501.592 133.091 502.793 133.874 501.923C134.431 501.296 134.831 500.635 135.109 499.921C136.118 499.903 137.127 499.886 138.136 499.834C139.858 499.747 139.875 497.152 138.136 497.152L138.153 497.135ZM125.333 490.571C127.734 491.18 130.412 492.103 131.926 494.192C132.535 495.028 132.935 496.003 133.091 496.996C123.872 496.56 114.687 494.959 105.92 492.103C97.2571 489.265 89.2378 484.233 80.3489 482.144C80.3315 482.144 80.2967 482.127 80.2793 482.109C90.0902 482.997 99.8837 485.452 109.486 487.367C114.757 488.412 120.132 489.248 125.333 490.571Z" fill="#A7C4D8"/>
<path d="M268.583 230.399C268.287 229.25 267.713 228.397 266.965 227.77C267 227.735 267.018 227.683 267.052 227.648C267.609 226.9 266.844 225.942 266.061 225.907C264.843 225.855 263.695 226.064 262.599 226.429C261.486 226.464 260.373 226.691 259.364 227.126C255.397 228.78 251.779 232.071 248.857 235.152C244.978 239.244 241.847 244.032 239.69 249.238C239.516 249.516 239.324 249.812 239.15 250.091C237.376 253.051 234.715 257.073 237.359 260.259C238.124 261.199 239.95 260.712 240.159 259.51C240.751 256.133 241.725 252.824 243.047 249.673C243.169 249.464 243.29 249.238 243.412 249.029C245.169 246.034 247.135 243.179 249.344 240.515C251.431 237.99 253.71 235.64 256.163 233.463C258.024 231.809 260.094 229.946 262.443 228.954C262.703 228.902 262.947 228.867 263.191 228.832C255.815 238.843 253.258 251.432 251.275 263.532C251.014 265.117 253.397 265.848 253.745 264.211C256.267 252.18 258.72 239.697 265.765 229.424C266.287 229.772 266.739 230.277 267.105 231.009C267.522 231.844 268.792 231.252 268.566 230.399H268.583Z" fill="#A7C4D8"/>
<path d="M456.017 266.231C454.729 261.843 452.416 257.821 449.737 254.165C447.197 250.7 444.484 247.253 441.526 244.136C439.091 241.577 436.151 239.313 432.481 239.348C431.855 239.348 431.681 240.341 432.324 240.463C435.977 241.142 438.413 243.893 440.535 246.748C442.866 249.899 445.145 253.103 447.215 256.446C449.267 259.754 451.024 263.236 452.225 266.945C452.799 268.721 453.216 270.566 453.651 272.359C454.103 274.24 453.912 276.19 454.295 278.07C454.451 278.836 455.651 278.993 455.999 278.297C457.756 274.762 457.095 269.887 456.034 266.248L456.017 266.231Z" fill="#A7C4D8"/>
<path d="M359.717 178.358C344.722 195.107 322.247 200.435 300.486 199.704C297.163 199.599 293.823 199.355 290.518 199.007C286.987 198.642 283.404 198.555 279.907 198.119C279.072 198.015 278.881 199.425 279.716 199.582C282.743 200.174 285.665 201.009 288.744 201.41C291.927 201.828 295.146 202.124 298.346 202.315C304.748 202.698 311.167 202.629 317.533 201.88C328.249 200.609 338.842 197.492 348.114 191.851C353.194 188.77 357.908 184.939 361.752 180.412C362.952 179.002 360.952 176.948 359.699 178.358H359.717Z" fill="#A7C4D8"/>
<path d="M427.802 288.952C420.757 291.773 414.077 295.446 406.98 298.145C399.795 300.879 392.368 302.95 384.853 304.552C369.597 307.808 354.011 309.096 338.477 310.315C331.345 310.872 322.456 311.308 317.046 305.754C316.037 304.726 314.541 306.259 315.481 307.321C320.09 312.579 326.927 313.937 333.606 314.041C341.521 314.163 349.523 313.31 357.386 312.579C364.553 311.9 371.737 310.994 378.852 309.741C377.912 313.554 377.721 317.593 377.443 321.458C377.356 322.555 377.303 323.652 377.216 324.749C371.633 354.644 368.014 384.921 365.736 415.234C364.988 425.228 364.414 435.221 364.361 445.25C364.361 446.747 366.536 446.713 366.657 445.25C368.066 427.7 368.988 410.115 370.641 392.582C371.998 378.183 373.79 363.854 375.668 349.507C375.529 351.823 375.39 354.139 375.251 356.472C374.798 364.289 374.381 372.124 373.963 379.942C373.755 383.789 373.546 387.62 373.337 391.468C373.129 395.455 372.381 399.86 372.885 403.829C373.076 405.379 375.425 406.041 375.86 404.23C376.747 400.452 376.521 396.169 376.729 392.303C376.938 388.456 377.129 384.608 377.338 380.777C377.756 372.96 378.173 365.125 378.556 357.307C378.939 349.49 379.321 341.655 379.669 333.837C379.843 329.99 379.982 326.159 380.121 322.311C380.191 320.57 380.261 318.794 380.295 317.018C380.661 314.651 381.026 312.283 381.391 309.932C381.426 309.706 381.339 309.514 381.2 309.375C389.306 307.86 397.325 305.858 405.101 303.125C413.451 300.182 422.131 296.648 428.654 290.484C429.263 289.91 428.637 288.656 427.784 288.987L427.802 288.952Z" fill="#A7C4D8"/>
<path d="M512.638 214.085C503.332 208.636 496.478 200.331 491.573 190.824C490.355 188.456 489.242 186.036 488.285 183.546C487.241 180.848 486.667 177.505 485.136 175.067C485.049 174.945 485.015 174.823 484.945 174.702C484.841 174.371 484.736 174.057 484.632 173.727C484.493 173.309 484.336 172.926 484.18 172.525C484.075 171.846 484.023 171.15 484.006 170.331C483.971 169.356 483.832 168.399 483.658 167.441C489.642 177.766 498.131 186.646 508.463 192.844C511.299 194.55 514.273 190.633 511.977 188.3C507.037 183.285 502.027 178.201 497.922 172.456C494.199 167.232 491.225 161.452 489.05 155.428C486.215 147.593 484.614 139.497 483.936 131.279C485.032 126.665 486.058 122.033 486.58 117.333C487.363 110.351 486.719 103.334 484.719 96.7005C484.736 96.4568 484.754 96.1956 484.771 95.9519C484.806 95.5862 484.545 95.3599 484.232 95.2902C483.136 92.0344 481.727 88.8482 479.953 85.8535C477.187 81.17 473.638 76.8695 469.463 73.3699C465.514 70.0444 461.079 67.4327 456.712 64.734C452.381 62.0527 447.91 59.2148 444.779 55.1232C441.822 51.2754 440.378 46.5918 439.282 41.9257C436.899 31.6706 435.925 20.9629 428.915 12.536C422.948 5.34528 413.868 1.61934 404.788 0.452808C394.263 -0.905246 383.165 1.06219 373.824 6.12878C364.396 11.2302 354.707 21.0848 356.811 32.6631C357.194 34.8046 359.977 35.2921 361.491 34.143C361.439 34.6305 361.421 35.118 361.473 35.6055C361.682 38.0605 362.778 40.498 364.465 42.2913C368.64 46.7833 374.99 49.3776 380.295 52.4419C381.93 53.3821 383.583 54.2701 385.218 55.2102C387.723 56.6554 390.193 58.2049 391.932 60.5728C397.534 68.2336 396.977 80.5954 396.786 89.5272C396.768 90.6415 396.716 91.7558 396.681 92.8701C396.212 105.075 394.994 117.507 397.899 129.381C400.804 141.255 408.893 152.764 420.756 155.724C425.436 156.89 430.828 156.855 434.29 160.233C437.265 163.123 437.821 167.615 438.621 171.707C441.596 186.837 450.485 200.731 462.992 209.785C475.482 218.838 491.451 222.947 506.776 221.05C506.637 221.067 506.341 220.736 505.993 220.249C507.663 220.196 509.333 220.162 510.986 220.109C514.117 220.022 515.404 215.774 512.603 214.137L512.638 214.085Z" fill="#3D2E09"/>
<path d="M376.173 45.0072C373.268 41.4031 369.841 37.5553 368.293 33.2548C367.527 31.1133 367.232 29.5289 367.353 27.3351C367.458 25.3328 368.501 23.6265 369.128 21.3979C369.597 19.7265 368.519 18.055 367.04 17.4457C366.275 16.0354 364.414 14.8514 362.778 15.5304C358.882 17.1671 352.933 19.2216 353.246 24.3752C353.507 28.6757 354.533 33.0459 356.012 37.0678C358.708 44.3978 364.605 52.5461 373.511 51.3622C376.816 50.9269 378.295 47.6537 376.155 44.9898L376.173 45.0072Z" fill="#1F1F1F"/>
<path d="M310.105 98.0061C309.775 97.1182 309.323 96.2476 308.575 95.6557C308.192 95.3423 307.757 95.1159 307.27 95.0289C306.783 94.9418 305.983 95.2726 305.583 95.0637C305.026 94.7677 304.365 95.5164 304.887 95.9691C305.235 96.2825 305.687 96.4914 306.157 96.5959C306.574 96.6829 306.992 96.6829 307.34 96.9267C308.088 97.449 308.366 98.5459 308.557 99.3816C308.923 101.001 309.758 105.127 307.218 105.475C305.983 105.65 304.748 105.075 303.495 105.162C302.26 105.249 301.042 105.737 300.329 106.799C299.025 108.784 299.407 112.666 301.495 113.989C302.208 114.442 303.113 113.85 303.13 113.049C303.147 111.778 302.608 110.577 302.643 109.288C302.643 108.871 302.643 108.4 303.043 108.174C303.443 107.948 304.052 107.983 304.487 107.983C305.861 108.017 307.2 108.209 308.47 107.478C309.375 106.955 310.071 106.015 310.488 105.058C311.41 102.899 310.906 100.113 310.105 97.9887V98.0061Z" fill="#1F1F1F"/>
<path d="M428.706 147.384C426.48 144.006 423.175 141.342 420.252 138.609C417.295 135.823 414.616 132.741 412.494 129.259C407.989 121.894 406.997 113.85 407.867 105.354C408.789 96.2652 411.294 87.2811 411.05 78.0881C410.841 69.9224 408.232 62.1745 402.961 55.8718C397.273 49.0641 389.428 45.077 380.521 44.8855C379.13 44.8506 378.904 46.8877 380.191 47.2707C387.114 49.3427 393.846 53.974 398.352 59.6499C403.396 66.0049 405.118 73.5613 404.753 81.5529C404.353 90.3803 401.987 98.9813 401.361 107.791C400.752 116.288 402.196 124.61 406.527 132.01C408.806 135.892 411.711 139.444 414.912 142.578C418.165 145.765 422.201 149.003 426.793 149.856C428.132 150.1 429.576 148.707 428.706 147.366V147.384Z" fill="#241A06"/>
<path d="M500.096 212.744C499.244 212.309 498.374 211.874 497.505 211.439C497.296 211.09 497.035 210.76 496.652 210.516C488.598 205.084 481.344 199.233 476.178 190.841C473.725 186.854 471.812 182.589 470.507 178.097C468.976 172.786 468.576 167.25 467.08 161.939C464.14 151.562 456.765 143.571 449.842 135.649C442.831 127.64 436.917 118.934 432.603 109.167C430.167 103.682 428.306 97.9018 426.915 92.0691C426.184 89.0048 425.645 85.923 425.053 82.8239C424.479 79.777 423.314 76.9042 422.774 73.8224C422.444 71.9943 419.904 72.6385 419.765 74.2229C419.504 76.9738 418.895 79.8118 418.947 82.5801C419 85.5226 419.574 88.4999 420.148 91.3727C421.261 96.8571 422.827 102.255 424.862 107.46C429.002 118.116 434.812 127.918 442.135 136.693C448.763 144.615 456.991 152.137 460.296 162.218C462.105 167.737 462.453 173.622 463.984 179.211C465.323 184.051 467.324 188.735 469.846 193.07C470.611 194.376 471.412 195.647 472.281 196.918C462.644 190.11 454.295 181.823 449.407 170.819C448.137 167.981 443.127 170.053 444.327 172.96C448.659 183.442 455.704 192.182 464.54 199.216C473.29 206.18 483.101 211.473 493.034 216.505C494.321 217.672 495.835 218.438 497.557 218.716C499.174 218.978 500.775 218.438 501.418 216.819C501.992 215.391 501.558 213.476 500.079 212.727L500.096 212.744Z" fill="#241A06"/>
<path d="M493.782 170.471C492.303 166.762 490.216 163.315 488.703 159.624C487.137 155.793 485.85 151.876 484.876 147.854C482.84 139.444 482.11 130.826 481.171 122.26C479.327 105.58 476.352 88.0646 463.74 75.8769C460.696 72.9344 457.113 70.3576 453.147 68.8254C449.146 67.2933 445.267 67.2411 441.074 67.6241C440.187 67.7111 439.805 69.1388 440.848 69.3304C447.493 70.4621 454.312 75.0412 459.079 79.6725C464.471 84.9306 468.072 91.4945 470.385 98.6156C475.691 114.982 474.682 132.532 478.77 149.177C480.788 157.378 484.041 167.354 491.364 172.316C492.477 173.082 494.304 171.794 493.765 170.471H493.782Z" fill="#241A06"/>
<path d="M370.867 66.1094C370.693 64.6991 368.466 64.6294 368.588 66.1094C370.415 88.0994 362.621 110.908 347.714 127.239C348.096 126.525 348.479 125.812 348.827 125.063C354.115 113.659 355.194 101.61 355.976 89.2311C356.063 87.9427 354.08 87.9601 353.976 89.2311C353.141 99.1554 349.001 108.261 343.591 116.497C341.817 119.195 339.903 121.737 337.885 124.21C338.738 122.295 339.521 120.362 340.216 118.377C340.651 117.211 341.051 116.027 341.382 114.825C342.043 112.388 338.32 111.36 337.607 113.781C336.372 118.29 334.25 122.521 331.275 126.142C328.266 129.816 324.456 132.201 320.629 134.9C318.959 136.067 319.916 139.288 322.125 138.469C323.83 137.842 325.413 136.955 326.892 135.91C326.109 137.024 325.291 138.138 324.439 139.201C322.943 141.081 325.43 143.762 327.153 141.917C330.719 138.051 334.024 133.925 337.294 129.816C340.495 125.794 343.556 121.633 346.235 117.263C347.922 114.512 349.418 111.656 350.74 108.714C346.705 123.374 338.807 137.146 325.222 144.163C322.804 145.381 324.926 148.986 327.344 147.784C328.562 147.175 329.744 146.513 330.892 145.782C351.593 133.49 366.518 111.134 370.362 87.4726C371.51 80.3864 371.719 73.2305 370.867 66.092V66.1094Z" fill="#241A06"/>
<path d="M298.259 87.0895C302.138 86.5672 302.399 80.5778 301.303 77.6354C300.051 74.2577 297.511 71.9768 294.658 70.0268C291.997 64.229 287.578 59.5628 282.795 55.0534C279.176 51.6583 275.123 47.8975 272.288 43.5796C270.896 39.7143 269.609 34.4388 272.653 33.2375C273.593 32.8718 273.245 31.4267 272.236 31.6879C270.392 32.1754 269.383 33.429 268.913 35.0656C268.722 33.6727 268.687 32.245 268.861 30.7477C269.018 29.4071 267.539 28.049 266.252 28.1361C260.894 28.5365 257.189 32.9241 256.423 38.0603C256.058 38.217 255.71 38.4433 255.38 38.7393C255.258 37.3639 255.188 35.9884 255.101 34.6303C255.032 33.3593 253.153 33.3419 253.118 34.6303C253.031 37.1027 253.014 39.6273 253.205 42.0822C250.561 48.1761 252.457 55.4887 256.476 60.6423C261.59 67.2411 269.139 70.0616 276.532 73.2827C280.829 75.163 284.238 77.6528 287.265 81.2395C290.275 84.8087 292.379 89.0222 294.658 93.0789C296.572 96.5089 301.599 93.4794 299.877 90.032C299.39 89.0396 298.833 88.0646 298.294 87.0895H298.259ZM256.319 41.1072C256.737 46.2957 260.059 50.9792 263.242 54.9315C263.886 55.715 264.773 55.8543 265.573 55.5931C266.147 56.4985 266.756 57.4039 267.435 58.257C265.956 57.369 264.495 56.4463 263.103 55.4713C258.406 52.2328 256.58 47.3752 255.78 42.1693C255.936 41.7862 256.128 41.4206 256.319 41.1072ZM265.017 63.2017C259.972 60.3986 255.815 55.5931 254.893 49.9868C255.954 52.6681 257.571 55.1056 260.059 57.1427C264.46 60.7468 269.557 63.637 274.81 66.1616C275.089 66.4227 275.367 66.7013 275.645 66.9625C275.941 67.2411 276.219 67.537 276.498 67.8156C272.601 66.4402 268.652 65.2388 265.017 63.2191V63.2017ZM281.803 65.4651C277.994 61.8262 273.784 58.4659 270.566 54.2699C267.574 50.3524 264.93 45.3555 264.773 40.376C264.738 39.2791 263.173 39.0353 262.842 40.1148C262.494 41.2813 262.303 42.4304 262.199 43.5447C261.816 42.5001 261.572 41.4032 261.52 40.2715C261.416 38.3737 262.164 36.0232 263.608 34.6129C264.164 41.5077 268.009 47.5667 272.758 52.7029C275.193 57.6824 278.55 62.1396 282.603 65.9178C282.412 65.8308 282.203 65.7611 282.012 65.6741C281.942 65.6044 281.873 65.5348 281.803 65.4651ZM287.091 70.967C287.509 70.8103 287.77 70.4969 287.909 70.1139C288.361 70.4099 288.831 70.7058 289.3 70.9844C290.066 72.4643 290.692 74.0139 291.127 75.6854C291.162 75.8072 291.179 75.9291 291.214 76.0684C289.892 74.3099 288.535 72.6036 287.091 70.9496V70.967Z" fill="#241A06"/>
<path d="M351.593 51.8673C344.687 62.0702 336.668 72.0989 326.683 79.394C328.927 76.9739 330.858 74.3797 332.789 71.681C333.328 70.9323 332.128 70.0095 331.519 70.6886C326.509 76.2601 320.873 81.6401 314.958 86.2714C313.671 87.2812 315.306 88.9178 316.576 88.3607C330.405 82.2146 340.773 71.1413 349.627 59.1625C347.331 66.7885 344.235 74.1708 340.651 81.2744C336.007 90.4848 330.214 98.8943 324.439 107.408C323.691 108.505 325.326 109.672 326.231 108.784C341.33 94.0715 349.627 73.1261 354.028 52.8772C354.341 51.3972 352.463 50.6138 351.61 51.8673H351.593Z" fill="#241A06"/>
<path d="M350.254 40.968C346.653 40.4457 343.069 39.993 339.434 39.7666C339.66 39.697 339.903 39.6448 340.13 39.5751C341.956 39.0354 341.191 36.4063 339.347 36.7545C329.24 38.722 318.455 39.7492 308.053 38.5479C304.347 37.9211 300.642 37.1376 296.937 36.3193C295.632 36.0233 295.076 37.9733 296.38 38.3389C303.617 40.3238 310.61 41.8385 318.142 42.1693C319.568 42.2738 320.977 42.3435 322.404 42.3783C329.797 42.5002 337.19 42.2912 344.548 42.9006C325.778 49.7257 305.496 52.3025 285.961 46.9748C284.917 46.6962 284.499 48.2458 285.508 48.594C306.644 55.8195 330.023 51.6757 350.236 43.4404C351.228 43.0399 351.645 41.1769 350.236 40.968H350.254Z" fill="#241A06"/>
<path d="M334.667 19.9529C329.797 18.6993 324.857 17.6894 319.899 16.906C314.959 16.1225 309.74 15.3564 304.748 15.8613C303.669 15.9658 303.06 17.1845 303.426 18.0028C301.964 17.9506 300.486 17.9506 299.042 18.0028C293.319 18.264 288.048 19.2913 282.656 21.2413C281.681 21.5895 282.064 23.0868 283.091 22.8083C293.997 19.8832 305.774 21.9551 316.489 24.7931C327.831 27.8052 338.912 32.1579 349.836 36.4062C351.402 37.0156 353.507 35.4312 353.315 33.7423C352.358 24.6712 342.13 21.8681 334.685 19.9355L334.667 19.9529ZM339.677 27.1088C337.12 26.2034 334.546 25.3154 331.989 24.4449C334.58 25.2284 337.19 26.0641 339.677 27.1088Z" fill="#241A06"/>
<path d="M24.8576 428.867C24.214 428.292 23.466 428.24 22.6484 428.101C21.8656 427.961 21.135 427.839 20.3348 427.787C18.7519 427.665 17.1515 427.526 15.5859 427.265C12.3678 426.742 9.30623 425.75 6.22727 424.723C5.63583 424.531 5.21834 425.471 5.79238 425.733C7.39275 426.481 8.62781 427.805 10.2282 428.571C11.7068 429.267 13.168 429.789 14.7683 430.138C16.3861 430.486 18.0213 430.677 19.6564 430.799C20.5436 430.869 21.3611 430.869 22.2483 430.799C23.0485 430.73 23.9704 430.799 24.6315 430.277C25.0663 429.946 25.2751 429.302 24.8054 428.884L24.8576 428.867Z" fill="#CB7A55"/>
<path d="M15.2906 444.502C14.9079 444.449 14.5426 444.415 14.1599 444.362C13.5337 444.171 12.8378 444.171 12.1768 444.153C11.4288 444.153 10.6808 444.119 9.93283 444.153C8.47163 444.188 7.02782 444.223 5.54923 444.223C4.97518 444.223 4.47072 444.676 4.40114 445.233C4.34895 445.738 4.66207 446.434 5.23611 446.504C6.95824 446.748 8.66298 446.974 10.4025 447.061C11.2375 447.113 12.1072 447.096 12.9248 447.026C13.812 446.957 14.6643 446.713 15.5341 446.539C16.0386 446.434 16.3517 445.877 16.2647 445.407C16.1777 444.867 15.7776 444.571 15.2558 444.519L15.2906 444.502Z" fill="#CB7A55"/>
<path d="M20.5263 457.508C19.987 457.194 19.4478 457.316 18.8563 457.403C18.2997 457.473 17.7431 457.56 17.169 457.595C16.0557 457.664 14.925 457.786 13.8117 457.821C11.5329 457.891 9.23677 457.926 6.97538 457.543C5.8099 457.351 5.28804 459.04 6.47092 459.353C8.85407 459.997 11.3242 460.502 13.8117 460.415C15.0642 460.38 16.2819 460.276 17.4995 459.98C18.5432 459.736 20.2132 459.58 20.822 458.605C21.0482 458.239 20.909 457.699 20.5263 457.49V457.508Z" fill="#CB7A55"/>
</g>
<defs>
<clipPath id="clip0_1177_1797">
<rect width="573" height="1310" fill="white"/>
</clipPath>
</defs>
</svg>
