<svg width="517" height="847" viewBox="0 0 517 847" fill="none" xmlns="http://www.w3.org/2000/svg">
<g clip-path="url(#clip0_1177_1491)">
<path d="M482.678 662.754C482.678 662.536 486.347 664.462 489.361 666.098C491.903 667.479 493.973 669.514 495.39 672.059L498.804 678.129C500.039 680.346 501.637 682.309 503.562 683.981L504.688 684.962C507.085 687.07 510.027 688.524 513.259 689.178L515.547 689.651C516.637 689.76 517.399 688.524 516.854 687.652L505.414 669.66L500.693 657.992C498.55 652.722 494.845 648.288 490.015 645.307L474.652 635.821L482.715 662.717L482.678 662.754Z" fill="#F49665"/>
<path d="M438.297 649.233C438.297 649.233 440.694 669.369 442.256 676.311C442.51 677.475 442.873 678.601 443.345 679.692L453.805 703.463L457.873 711.096C457.873 711.096 457.873 711.132 457.909 711.168L461.795 716.475C462.449 717.093 463.575 716.729 463.829 715.821L464.664 712.695C464.664 712.695 464.664 712.404 464.664 712.259L462.594 706.589C462.304 705.753 460.996 706.261 461.25 707.097C461.25 707.17 461.287 707.207 461.323 707.243L469.241 720.001L472.981 725.744C473.817 727.416 476.395 726.87 476.722 724.944L476.214 719.892C476.214 719.892 476.214 719.783 476.178 719.71C475.778 718.656 471.383 707.134 471.202 706.552C470.984 705.934 466.226 685.435 466.226 685.435L471.747 707.17L478.32 726.18C478.32 726.216 481.553 733.522 481.553 733.522C482.461 736.175 486.746 735.048 487.218 731.777L487.691 723.89C487.691 723.89 487.691 723.744 487.691 723.672L481.081 696.811C481.081 696.811 481.081 696.739 481.081 696.702L480.427 690.269C480.354 689.433 481.589 689.106 481.807 689.905L485.366 702.699C485.366 702.699 485.366 702.772 485.366 702.809L495.354 724.435C496.443 726.289 499.385 725.525 499.676 723.308C500.112 720.001 500.184 714.003 500.003 713.713C499.712 713.167 489.18 669.515 488.708 667.588C488.708 667.552 488.708 667.479 488.708 667.443L488.417 652.868C488.417 652.868 488.417 652.649 488.344 652.54L483.405 643.962C481.989 641.491 480.027 639.383 477.703 637.783L465.5 629.351C465.5 629.351 465.391 629.278 465.354 629.206L438.406 649.087L438.297 649.233Z" fill="#F49665"/>
<path d="M438.297 649.233C438.297 649.233 392.571 570.178 385.743 548.224L371.76 502.645C367.765 486.87 349.315 371.904 347.899 349.805L397.147 317.093L435.754 489.269L465.282 629.351L438.333 649.233H438.297Z" fill="#F49665"/>
<path d="M459.87 716.766C455.512 708.951 451.19 701.064 447.74 692.777C444.326 684.526 442.038 676.057 441.348 667.152C440.948 662.172 440.694 657.084 438.805 652.395C438.478 651.595 437.171 651.959 437.498 652.758C439.205 657.047 439.568 661.664 439.895 666.243C440.222 670.714 440.803 675.112 441.856 679.474C443.926 688.052 447.486 696.23 451.481 704.081C453.769 708.588 456.238 713.058 458.708 717.456C459.144 718.22 460.306 717.529 459.87 716.766Z" fill="#1F1F1F"/>
<path d="M473.998 725.998C470.221 720.182 466.371 714.258 463.974 707.679C461.577 701.136 460.633 694.194 459.471 687.324C458.817 683.472 458.054 679.619 456.965 675.839C456.71 675.003 455.403 675.366 455.657 676.202C457.618 682.963 458.417 689.941 459.725 696.847C460.379 700.264 461.178 703.681 462.304 706.988C463.429 710.296 464.918 713.458 466.625 716.511C468.55 719.964 470.693 723.308 472.836 726.616C473.308 727.343 474.47 726.652 473.998 725.925V725.998Z" fill="#1F1F1F"/>
<path d="M486.02 731.159C481.443 721.309 477.339 711.205 473.744 700.955C472.727 698.011 471.746 695.067 470.802 692.122C470.548 691.286 469.24 691.65 469.495 692.486C472.8 702.918 476.649 713.167 480.971 723.199C482.206 726.107 483.514 728.978 484.857 731.85C485.221 732.65 486.383 731.959 486.02 731.159Z" fill="#1F1F1F"/>
<path d="M492.92 682.454C491.214 685.725 489.47 688.997 487.763 692.268C486.928 693.867 486.093 695.503 485.221 697.102C484.458 698.483 483.659 699.901 482.57 701.028C482.061 701.536 481.298 702.191 480.499 701.936C479.7 701.682 479.374 700.737 479.374 699.974C479.374 699.065 479.7 698.192 479.991 697.357C480.282 696.484 480.572 695.648 480.863 694.776C481.952 691.432 482.86 688.052 483.659 684.599C484.531 680.746 485.221 676.857 485.766 672.931C485.875 672.059 484.531 672.095 484.422 672.931C483.369 680.782 481.589 688.56 479.047 696.084C478.502 697.756 477.667 699.61 478.32 701.355C478.792 702.554 479.918 703.463 481.262 703.281C482.86 703.063 483.95 701.609 484.821 700.41C485.875 698.919 486.71 697.247 487.545 695.648C489.724 691.505 491.904 687.325 494.083 683.181C494.482 682.418 493.32 681.727 492.92 682.491V682.454Z" fill="#1F1F1F"/>
<path d="M127.225 693.14L77.904 526.488C74.3811 496.284 76.4513 478.219 88.0007 399.891H150.542L137.177 496.211L157.079 666.788L127.261 693.176L127.225 693.14Z" fill="#F49665"/>
<path d="M170.045 719.673C170.117 719.419 173.459 722.69 176.219 725.38C178.543 727.67 180.178 730.541 180.904 733.74L182.684 741.409C183.338 744.207 184.463 746.861 185.989 749.26L186.897 750.677C188.858 753.73 191.582 756.238 194.851 757.983L197.175 759.219C198.301 759.655 199.536 758.601 199.209 757.438L192.454 734.321L191.001 720.182C190.347 713.785 187.696 707.824 183.374 703.063L169.682 687.906L170.009 719.637L170.045 719.673Z" fill="#F49665"/>
<path d="M127.225 693.14C127.225 693.14 127.007 693.394 126.971 693.54C126.426 695.866 122.358 713.64 121.886 721.636C121.814 722.981 121.85 724.326 122.031 725.634L125.918 754.748L127.915 764.308C127.915 764.308 127.915 764.38 127.915 764.417L130.494 771.395C131.002 772.268 132.346 772.231 132.891 771.323L134.779 768.197C134.779 768.197 134.888 767.906 134.888 767.724L134.416 760.927C134.344 759.946 132.782 760.055 132.782 761.073C132.782 761.145 132.782 761.218 132.782 761.254L137.358 777.611L139.61 785.025C139.973 787.097 142.951 787.315 143.932 785.353L144.949 779.719C144.949 779.719 144.949 779.573 144.949 779.537C144.84 778.265 143.678 764.38 143.641 763.69C143.605 762.963 144.84 739.228 144.84 739.228L144.004 764.562L145.167 787.279C145.167 787.352 146.401 796.257 146.401 796.257C146.547 799.419 151.559 799.564 153.084 796.148L156.062 787.751C156.062 787.751 156.099 787.606 156.099 787.533L157.37 756.311C157.37 756.311 157.37 756.238 157.37 756.202L158.677 749.005C158.859 748.06 160.312 748.097 160.275 749.042L160.13 764.053C160.13 764.053 160.13 764.126 160.13 764.162L164.198 790.768C164.815 793.131 168.229 793.204 169.246 790.877C170.771 787.424 172.696 780.955 172.624 780.591C172.478 779.9 174.73 729.233 174.839 726.943C174.839 726.87 174.839 726.834 174.839 726.797L179.088 710.877C179.088 710.877 179.088 710.623 179.088 710.514L176.437 699.646C175.674 696.52 174.222 693.612 172.188 691.141L161.583 678.128C161.583 678.128 161.51 678.019 161.474 677.947L156.934 666.788C156.716 666.279 156.062 666.17 155.626 666.57L127.116 693.176L127.225 693.14Z" fill="#F49665"/>
<path d="M272.138 543.971L254.632 621.1C247.84 650.977 247.586 681.981 253.833 711.968L297.488 948.006L308.166 1222.79L399.653 1215.3L412.292 912.531L390.428 666.279L366.894 557.02L272.138 543.971Z" fill="#CEA55B"/>
<path d="M159.658 521.763L129.186 651.304L138.375 919.764L20.1206 1145.41L96.463 1189.5L241.666 956.657C256.085 936.775 260.261 912.677 263.857 888.397L276.46 627.497L275.552 526.488L159.658 521.763Z" fill="#CEA55B"/>
<path d="M194.815 545.825C194.778 543.862 193.362 542.227 191.401 541.936C189.549 541.682 187.551 542.845 187.079 544.771C185.553 551.168 184.391 557.638 184.754 564.217C184.827 565.416 185.553 566.252 186.461 566.652C186.57 567.852 186.679 569.051 186.825 570.287C187.079 572.54 188.641 574.721 191.147 574.612C193.507 574.503 195.469 572.722 195.469 570.287C195.469 562.145 194.996 554.003 194.815 545.862V545.825Z" fill="#1D47FC"/>
<path d="M259.245 563.89C258.845 561.273 258.555 558.547 258.083 555.893C258.083 555.602 258.083 555.312 258.046 555.021C257.828 551.786 257.066 548.697 256.412 545.571C255.686 542.154 250.129 542.881 250.31 546.407C250.492 549.278 250.238 552.15 250.201 555.057C250.201 557.856 250.02 560.618 249.802 563.417C249.33 569.015 247.841 574.576 248.785 580.209C249.075 581.954 251.727 582.608 252.853 581.264C253.761 580.209 254.487 579.119 255.068 577.92C256.339 578.029 257.719 577.52 258.373 576.429C260.734 572.613 259.899 568.106 259.281 563.926L259.245 563.89Z" fill="#1D47FC"/>
<path d="M299.195 212.158C299.595 200.527 299.994 188.896 300.394 177.265C300.684 169.014 298.106 167.451 290.479 165.27C273.845 160.582 258.373 153.603 243.627 144.807C240.395 142.881 237.09 145.243 236.291 148.26C236.037 148.551 235.892 148.878 235.892 149.314C235.892 155.348 235.71 161.418 234.838 167.415C234.439 170.032 233.821 172.576 233.277 175.157C233.168 175.629 233.095 176.138 233.059 176.611C233.059 177.301 233.131 177.992 233.059 178.719C232.986 179.809 232.623 180.863 232.296 181.881C230.916 186.461 229.245 190.968 227.284 195.33C225.25 199.873 222.889 204.271 220.238 208.487C220.093 208.705 224.96 212.813 225.432 213.212C227.211 214.775 229.064 216.338 230.916 217.828C234.657 220.809 238.506 223.644 242.465 226.297C246.133 228.733 250.02 231.64 254.16 233.203C256.957 234.257 260.007 233.858 262.913 234.366C269.559 235.493 276.605 235.966 283.251 234.657C287.573 233.785 291.932 231.931 294.946 228.624C298.614 224.589 298.869 220.991 299.05 215.72C299.086 214.521 299.123 213.358 299.159 212.158H299.195Z" fill="#F6BC9E"/>
<path d="M342.633 129.505C342.887 128.741 342.96 127.942 342.887 127.106C342.742 125.543 341.943 124.089 341.253 122.672C339.618 119.4 338.347 115.947 337.439 112.422C335.187 103.553 335.478 93.7028 334.243 84.5797C332.246 69.8591 331.156 50.4861 320.26 39.0004C315.612 34.0208 309.256 30.8586 302.646 28.8959C300.975 28.387 299.304 27.9872 297.597 27.6237C292.985 26.6787 288.263 26.2426 283.542 26.3516C281.544 26.3879 279.547 26.7514 277.586 26.3516C276.823 26.2062 276.133 26.0972 275.37 26.1335C269.995 26.4606 264.475 27.9145 259.354 29.5501C251.654 31.9854 244.39 35.5111 237.381 39.4002C230.625 43.144 224.742 48.1599 220.638 54.6297C216.606 61.0268 214.354 68.4052 213.41 75.8201C212.938 79.6365 212.72 83.4893 212.865 87.3058C212.902 88.8687 213.047 90.4316 213.192 91.9945C212.938 92.5761 212.793 93.2303 212.938 94.03C214.79 106.533 216.715 119.182 222.526 130.595C228.047 141.463 236.364 151.022 244.608 159.964C254.632 170.831 275.951 179.955 290.697 183.371C308.057 187.406 316.846 180.936 325.926 165.67C330.212 158.473 333.589 149.932 334.97 141.717C335.805 136.883 341.216 134.121 342.633 129.541V129.505Z" fill="#F6BC9E"/>
<path d="M236.364 163.998C240.395 167.96 245.117 171.05 250.782 172.431C253.724 173.158 256.63 173.63 259.644 173.885C262.55 174.139 265.492 174.721 268.361 175.121C268.906 175.193 269.523 175.266 270.031 175.121C270.721 174.902 271.194 174.285 271.593 173.703C279.438 162.363 278.385 145.97 277.586 132.885C277.513 131.867 277.44 130.85 277.368 129.832C277.332 129.359 277.295 128.887 277.295 128.451C277.259 127.651 276.823 126.961 276.46 126.234C275.08 123.653 273.155 121.981 270.939 120.164C268.651 118.31 266.218 116.275 264.947 113.548C261.17 105.479 266.908 94.6843 276.532 96.6834C279.075 97.2286 281.363 98.9369 282.598 101.263C284.196 104.28 284.45 107.588 287.029 110.059C287.61 110.641 288.336 110.968 289.099 111.259C291.859 112.313 295.491 113.33 297.888 111.041C298.796 110.168 299.304 108.932 299.777 107.769C303.626 98.1373 307.149 80.727 316.556 74.7297C319.716 72.7306 323.711 74.1118 327.161 74.1118C329.921 74.1118 332.536 73.5666 335.188 72.8033C337.585 72.1127 340.018 72.1491 342.379 71.3131C346.991 69.6775 352.185 67.533 353.892 62.9532C355.199 59.5003 354.146 55.4294 355.635 52.0491C357.56 47.6511 362.899 45.9428 365.986 42.2717C366.785 41.2904 367.475 40.1636 367.62 38.9278C368.347 33.3667 360.03 31.0768 358.141 25.8065C357.451 23.9164 357.705 21.8083 357.015 19.9546C355.889 16.8287 352.512 15.0477 349.316 14.1754C346.083 13.3031 342.669 12.9759 339.727 11.3403C335.696 9.08678 332.791 4.398 328.178 4.10723C324.691 3.88914 322.875 6.25171 320.152 7.59655C318.917 8.21445 317.5 8.50523 316.12 8.57792C313.178 8.72331 310.236 7.88733 307.621 6.61518C302.936 4.36166 298.651 0.945026 293.53 0.218083C284.632 -1.05407 276.169 5.99728 267.235 4.97956C262.586 4.4707 257.828 1.78101 253.47 3.45298C250.456 4.61609 248.567 7.48751 246.134 9.59565C241.122 13.8846 237.235 10.0682 232.187 9.52295C228.228 9.12313 223.87 9.95912 220.42 11.9946C216.17 14.5025 213.12 19.264 213.483 24.1708C213.664 26.6425 214.645 29.1868 213.882 31.513C212.466 35.8019 206.328 36.4925 203.858 40.309C202.26 42.7442 202.515 45.7974 202.369 48.5598C202.224 51.5039 201.098 53.9028 199.464 56.3017C196.377 60.8815 194.996 66.0064 195.069 71.5675C195.178 80.2545 198.41 88.578 201.607 96.6834C203.459 101.336 205.275 105.988 207.127 110.641C209.342 116.275 211.703 121.872 214.246 127.397C217.478 134.448 220.965 141.427 224.814 148.187C227.974 153.712 231.715 159.455 236.364 164.035V163.998Z" fill="#823F20"/>
<path d="M340.453 664.753C345.211 664.935 349.969 664.862 354.618 664.28C366.494 662.863 378.443 660.282 390.319 663.19C391.445 623.244 383.382 582.935 378.261 543.39C372.886 502.099 366.494 460.773 365.586 419.083C365.041 394.039 365.223 368.996 364.896 343.953C364.642 325.125 364.388 305.788 363.007 286.815C362.317 277.074 361.3 267.333 359.848 257.665C358.722 250.032 358.686 239.637 351.022 235.311C339.146 228.623 326.761 222.881 314.013 218.119C311.834 217.32 309.619 216.52 307.875 214.993C304.788 212.376 303.771 208.233 303.444 204.344C303.299 202.817 303.662 200.782 302.827 199.437C300.212 195.184 293.82 196.456 289.716 196.565C267.707 197.111 245.625 194.712 224.269 189.405C223.18 189.15 221.945 188.86 220.964 189.405C219.838 189.986 219.439 191.368 219.112 192.567C217.877 197.329 217.804 204.525 212.466 206.561C201.824 210.668 191.292 214.921 180.723 219.173C172.587 222.408 161.801 224.698 157.406 233.167C153.665 240.436 152.612 248.542 150.324 256.284C136.595 302.59 135.869 351.768 141.208 399.419C143.932 423.735 142.261 449.76 140.917 474.221C139.501 499.882 136.741 525.471 132.6 550.805C131.293 558.91 129.804 566.979 128.206 575.012C121.378 609.36 112.407 646.834 128.678 677.838C136.268 675.621 143.895 673.404 151.486 671.186C183.447 661.845 216.824 658.029 250.056 658.21C273.917 658.356 297.633 661.3 321.422 663.299C327.705 663.808 334.098 664.498 340.417 664.717L340.453 664.753Z" fill="#02197E"/>
<path d="M144.113 498.065C144.077 497.774 144.041 497.447 144.041 497.193C143.895 492.249 145.348 487.088 147.709 482.799C148.799 480.873 150.106 478.983 150.433 476.802C151.014 473.24 148.871 470.005 147.273 467.025C146.619 465.789 145.457 464.262 145.421 462.845C145.348 460.991 146.51 458.592 147.019 456.847C149.38 448.597 151.958 440.382 154.755 432.277C156.389 427.442 158.35 422.681 159.912 417.847C160.675 415.484 160.639 412.831 160.856 410.323C161.183 406.652 161.51 402.981 161.837 399.31C162.6 390.841 163.326 382.372 164.089 373.903C166.195 350.132 168.302 326.361 170.372 302.59L163.544 226.37C131.91 235.239 111.39 262.645 99.1506 291.686C93.0127 306.297 88.6181 321.6 85.3494 337.12C83.8603 344.135 82.6255 351.223 81.6085 358.31C80.9911 362.454 79.8652 366.961 80.1921 371.177C80.301 372.558 80.7369 373.867 80.9548 375.212C81.2453 377.247 80.9548 379.283 80.8095 381.318C80.4463 385.752 80.0105 390.223 79.4294 394.657C78.3035 403.417 76.5965 412.14 73.6547 420.464C71.3303 427.043 68.1705 433.331 64.0302 438.928C61.5968 442.199 58.8002 445.398 57.7833 449.323C56.2942 455.175 59.1634 461.209 59.1634 467.243C59.1634 473.385 56.2216 479.092 54.333 484.907C52.4444 490.759 51.827 497.774 55.8221 502.463C61.4515 509.115 70.5312 507.879 78.3035 508.315C88.2912 508.896 97.4436 512.531 107.177 514.494C115.312 516.13 138.484 517.402 144.549 509.878C147.019 506.788 144.658 501.809 144.186 498.065H144.113Z" fill="#02197E"/>
<path d="M331.192 224.916L365.042 239.928C385.453 248.978 401.106 266.207 408.152 287.433C409.605 291.795 410.004 296.811 410.876 301.282C413.128 312.622 415.343 323.962 417.595 335.303C418.067 337.665 417.704 339.773 417.813 342.136C417.922 344.789 418.031 347.406 418.14 350.059C418.576 360.636 419.012 371.213 419.447 381.791C419.629 385.898 419.774 390.041 419.956 394.149C420.428 405.852 421.372 418.683 429.508 427.079C431.069 428.715 432.885 430.132 434.12 432.022C438.515 438.965 433.103 447.942 433.684 456.157C434.048 460.918 436.445 465.244 438.115 469.714C439.786 474.185 440.694 479.455 438.224 483.562C436.989 485.634 434.992 487.125 432.958 488.433C421.881 495.63 408.624 498.465 395.695 501.191C384.872 503.444 374.012 505.698 363.189 507.951C360.974 489.632 350.042 471.859 354.182 453.867C355.163 449.578 357.015 445.507 358.177 441.254C359.993 434.567 360.066 427.588 359.884 420.682C359.594 410.396 358.613 400.146 357.051 389.969C356.507 386.407 357.378 382.99 356.834 379.464C356.289 375.757 355.599 372.086 355.018 368.378C352.403 352.676 349.824 336.974 347.209 321.273C344.703 306.188 342.197 291.104 339.727 275.984C337.802 264.353 335.878 252.722 333.953 241.091C333.081 235.784 332.173 230.441 331.301 225.134C331.301 225.062 331.301 224.989 331.265 224.88L331.192 224.916Z" fill="#02197E"/>
<path d="M256.194 800.837C247.514 828.46 240.068 856.448 233.93 884.726C230.879 898.792 228.119 912.967 225.722 927.179C224.56 934.049 223.543 940.955 221.836 947.715C220.202 954.294 217.768 960.582 214.5 966.507C208.253 977.92 199.718 987.843 191.51 997.838C182.902 1008.31 174.658 1019.06 166.74 1030.08C150.796 1052.25 136.123 1075.33 122.213 1098.81C108.194 1122.47 94.9377 1146.53 81.7902 1170.67C80.1922 1173.61 78.5579 1176.56 76.9598 1179.5C76.5603 1180.26 77.7225 1180.95 78.122 1180.19C91.3421 1155.98 104.562 1131.74 118.472 1107.9C132.274 1084.2 146.765 1060.86 162.491 1038.4C170.408 1027.1 178.653 1015.98 187.297 1005.18C195.36 995.112 204.04 985.444 211.158 974.685C214.572 969.524 217.587 964.071 219.911 958.292C222.49 951.786 224.015 944.953 225.25 938.047C227.756 923.944 230.117 909.842 232.986 895.812C238.797 867.461 245.915 839.364 254.305 811.668C255.358 808.179 256.448 804.653 257.538 801.164C257.792 800.328 256.484 799.964 256.23 800.8L256.194 800.837Z" fill="#1F1F1F"/>
<path d="M339.401 692.013C338.565 692.268 338.928 693.576 339.764 693.322C339.764 693.322 339.8 693.322 339.836 693.285C339.836 693.285 339.836 693.358 339.836 693.431C339.836 693.649 339.836 693.831 339.836 694.049C339.691 694.812 339.183 695.248 338.674 695.793C337.367 697.175 336.059 698.556 334.752 699.937C332.064 702.772 329.377 705.607 326.689 708.442C325.309 709.896 323.929 711.35 322.549 712.804C321.386 714.003 320.297 715.384 318.917 716.366C317.282 717.529 315.612 717.565 313.759 716.984C311.98 716.439 310.2 715.784 308.457 715.166C301.012 712.586 293.602 710.005 286.157 707.388C284.377 706.77 282.525 706.189 280.746 705.498C279.947 705.171 279.293 704.771 278.857 704.008C278.457 703.281 278.276 702.409 278.022 701.573C277.005 697.902 276.097 694.194 275.225 690.487C273.3 682.054 271.775 673.549 270.649 664.971C270.54 664.135 269.196 664.099 269.305 664.971C270.395 673.331 271.884 681.654 273.736 689.905C274.644 693.94 275.661 697.974 276.75 701.936C277.186 703.572 277.658 705.244 279.184 706.225C279.838 706.625 280.637 706.879 281.363 707.134C282.416 707.497 283.469 707.861 284.559 708.26C292.767 711.132 301.012 714.003 309.22 716.875C311.108 717.529 313.069 718.438 315.103 718.692C316.847 718.947 318.445 718.438 319.861 717.384C321.35 716.257 322.621 714.767 323.892 713.422C325.382 711.859 326.871 710.26 328.396 708.697L338.311 698.265C339.51 697.029 341.071 695.83 341.253 694.012C341.362 692.922 340.781 691.65 339.51 692.086L339.401 692.013Z" fill="#1F1F1F"/>
<path d="M393.77 749.841C389.884 731.704 385.126 713.785 380.078 695.939C377.245 685.907 374.303 675.911 371.361 665.952C371.107 665.116 369.799 665.48 370.054 666.316C375.247 684.017 380.477 701.718 385.126 719.564C389.775 737.374 393.915 755.33 396.893 773.503C398.6 783.79 399.944 794.149 400.816 804.544C400.888 805.416 402.232 805.416 402.16 804.544C400.598 786.152 397.62 767.906 393.734 749.878L393.77 749.841Z" fill="#1F1F1F"/>
<path d="M203.277 700.882C202.986 697.247 202.551 693.613 202.187 689.978C201.352 681.618 200.553 673.295 199.718 664.935C199.645 664.062 198.301 664.062 198.374 664.935C199.064 672.059 199.79 679.183 200.48 686.307C200.844 689.869 201.17 693.431 201.534 696.993C201.679 698.629 202.006 700.337 201.969 702.009C201.969 703.717 201.025 704.662 199.609 705.462C197.139 706.843 194.851 708.333 192.781 710.296C190.747 712.222 188.967 714.476 187.587 716.911C187.26 717.493 186.97 718.074 186.679 718.656C186.389 719.237 186.062 720.037 185.444 720.364C184.754 720.728 183.883 720.364 183.193 720.182C182.285 719.892 181.377 719.601 180.469 719.346C177.055 718.292 173.604 717.202 170.19 716.148C163.072 713.931 155.699 711.314 148.145 711.932C145.167 699.319 143.205 686.489 142.37 673.549C142.297 672.677 140.954 672.677 141.026 673.549C141.898 686.779 143.895 699.937 146.983 712.804C147.055 713.058 147.346 713.313 147.636 713.313C154.9 712.586 161.91 714.948 168.738 717.093C172.261 718.183 175.82 719.274 179.343 720.4C180.941 720.909 182.611 721.636 184.282 721.854C185.735 722.036 186.752 721.346 187.478 720.146C188.168 718.947 188.713 717.674 189.476 716.475C190.311 715.166 191.255 713.931 192.272 712.804C194.27 710.587 196.594 708.733 199.173 707.279C200.335 706.625 201.57 706.043 202.405 704.989C203.313 703.826 203.386 702.372 203.277 700.955V700.882Z" fill="#1F1F1F"/>
<path d="M299.341 216.229C293.457 216.956 287.573 217.683 281.69 218.41C275.879 219.137 270.031 220.046 264.148 220.409C258.445 220.773 252.925 220.155 247.441 218.628C242.138 217.138 237.017 215.03 231.969 212.885C226.666 210.668 221.182 208.378 217.006 204.344C216.388 203.726 215.408 204.707 216.061 205.289C219.766 208.851 224.378 211.104 229.063 213.103C234.148 215.284 239.305 217.501 244.572 219.173C249.91 220.882 255.431 221.936 261.06 221.899C267.089 221.827 273.082 220.845 279.038 220.118L299.341 217.574C300.176 217.465 300.212 216.12 299.341 216.229Z" fill="#1D47FC"/>
<path d="M367.984 509.914C363.153 508.133 358.141 506.061 354.364 502.463C352.548 500.718 351.095 498.646 350.296 496.247C349.497 493.849 349.243 491.304 349.243 488.796C349.243 483.744 350.151 478.655 349.497 473.639C349.207 471.35 348.553 469.096 347.246 467.17C345.793 464.989 343.614 463.644 341.689 461.899C340.563 460.882 339.691 459.755 339.183 458.301C338.711 456.92 338.529 455.43 338.311 453.976C338.057 452.304 337.803 450.595 337.585 448.923C337.33 447.251 336.967 445.507 336.895 443.798C336.822 440.963 339.11 440.018 341.435 439.291C343.614 438.601 345.72 437.874 347.209 436.057C350.187 432.422 349.969 427.079 349.497 422.717C348.771 415.702 348.008 408.651 347.246 401.636C345.756 387.642 344.231 373.649 342.742 359.655C342.56 357.91 342.379 356.202 342.197 354.457C342.088 353.585 340.744 353.585 340.853 354.457L345.43 397.129C346.192 404.216 346.955 411.304 347.718 418.392C348.045 421.3 348.444 424.207 348.444 427.115C348.444 429.514 348.153 432.022 346.955 434.13C345.684 436.347 343.614 437.183 341.326 437.91C339.364 438.528 337.076 439.255 336.096 441.218C335.478 442.49 335.551 443.871 335.732 445.252C335.987 446.961 336.241 448.705 336.495 450.414C336.931 453.467 337.076 456.883 338.384 459.719C339.546 462.263 341.979 463.68 344.049 465.461C345.938 467.133 347.209 469.242 347.863 471.677C349.134 476.62 348.19 481.89 348.008 486.906C347.827 491.958 348.371 497.083 351.567 501.191C354.691 505.262 359.376 507.769 364.025 509.732C365.223 510.241 366.458 510.714 367.693 511.15C368.492 511.441 368.855 510.132 368.056 509.841L367.984 509.914Z" fill="#1D47FC"/>
<path d="M135.216 402.036C135.942 391.495 136.959 380.954 138.412 370.486C138.521 369.65 137.213 369.287 137.104 370.123C134.562 388.624 133.291 407.27 132.673 425.916C132.056 444.635 132.092 463.39 132.128 482.108C132.128 492.685 132.201 503.226 132.237 513.803C132.237 514.676 133.581 514.676 133.581 513.803C133.509 495.157 133.363 476.475 133.472 457.829C133.545 439.219 133.944 420.609 135.216 402.036Z" fill="#1D47FC"/>
<path d="M338.02 358.674C316.919 362.999 295.236 363.29 273.845 361.327C252.271 359.364 230.988 355.184 209.887 350.605C203.967 349.332 198.011 348.024 192.091 346.679C186.243 345.334 180.432 343.88 174.839 341.663C174.04 341.336 173.677 342.645 174.476 342.972C179.452 344.934 184.645 346.352 189.839 347.551C195.105 348.787 200.408 349.914 205.674 351.077C216.352 353.403 227.029 355.657 237.78 357.62C248.494 359.582 259.281 361.218 270.104 362.345C280.854 363.435 291.641 364.017 302.428 363.835C313.142 363.653 323.856 362.672 334.388 360.745C335.732 360.491 337.039 360.237 338.383 359.982C339.219 359.8 338.855 358.492 338.02 358.674Z" fill="#1D47FC"/>
<path d="M238.034 362.635C236.182 386.697 234.293 410.759 232.441 434.821C230.589 458.883 228.7 482.945 226.848 507.006C225.795 520.527 224.741 534.012 223.725 547.533C223.652 548.406 224.996 548.406 225.068 547.533C226.921 523.472 228.809 499.41 230.661 475.348C232.514 451.286 234.402 427.224 236.255 403.163C237.308 389.641 238.361 376.157 239.378 362.635C239.451 361.763 238.107 361.763 238.034 362.635Z" fill="#1D47FC"/>
<path d="M246.17 444.635C245.298 426.461 244.608 408.251 244.136 390.041C243.882 379.864 243.664 369.651 243.555 359.473C243.555 358.601 242.211 358.601 242.211 359.473C242.429 377.683 242.865 395.893 243.518 414.067C244.172 432.277 245.044 450.45 246.097 468.624C246.714 478.801 247.368 488.978 248.095 499.155C248.167 500.028 249.511 500.028 249.438 499.155C248.131 480.982 247.041 462.808 246.133 444.635H246.17Z" fill="#1D47FC"/>
<path d="M432.522 429.732C430.524 428.169 428.018 427.624 425.512 427.551C422.716 427.515 419.883 428.024 417.123 428.533C414.181 429.078 411.275 429.769 408.37 430.532C397.438 433.331 386.506 436.82 375.065 436.202C369.182 435.875 363.371 434.385 358.322 431.222C357.596 430.75 356.906 431.913 357.632 432.386C366.24 437.801 376.809 438.347 386.615 436.965C397.983 435.366 408.806 431.15 420.137 429.369C423.188 428.896 426.457 428.496 429.435 429.551C431.868 430.423 434.084 432.604 434.193 435.293C434.193 436.166 435.573 436.166 435.536 435.293C435.427 433.04 434.229 431.077 432.486 429.696L432.522 429.732Z" fill="#1D47FC"/>
<path d="M430.27 458.301C413.527 458.192 397.838 465.207 381.24 466.189C376.627 466.443 372.015 466.189 367.475 465.171C366.64 464.989 366.276 466.298 367.112 466.479C383.601 470.223 399.98 463.862 416.07 460.991C419.992 460.3 423.951 459.828 427.946 459.682C417.595 466.552 406.118 471.604 394.06 474.548C390.392 475.421 386.688 476.111 382.947 476.62C382.112 476.729 382.075 478.074 382.947 477.965C396.203 476.22 409.097 472.04 420.828 465.607C424.169 463.753 427.438 461.754 430.561 459.537C431.106 459.174 430.924 458.301 430.234 458.265L430.27 458.301Z" fill="#1D47FC"/>
<path d="M123.158 454.594C115.131 453.903 107.105 453.213 99.0782 452.486C91.8507 451.868 84.369 451.032 77.8679 447.506C74.6718 445.761 71.8026 443.399 69.8051 440.346C69.333 439.619 68.1708 440.309 68.6429 441.036C72.3838 446.706 78.5943 450.05 85.0591 451.759C88.8362 452.74 92.686 453.249 96.5722 453.612C100.676 454.012 104.744 454.339 108.848 454.703C113.606 455.103 118.4 455.539 123.158 455.939C124.029 456.011 124.029 454.666 123.158 454.594Z" fill="#1D47FC"/>
<path d="M123.702 480.436C123.267 479.128 121.778 478.365 120.543 478.001C118.69 477.42 116.802 477.02 114.913 476.547C111.172 475.675 107.432 474.948 103.654 474.185C95.1195 472.476 86.4756 470.659 78.4854 467.097C77.6864 466.734 76.9963 467.897 77.7954 468.26C90.8702 474.076 105.289 475.275 118.981 478.946C119.744 479.164 120.506 479.31 121.196 479.71C121.705 480 122.722 480.655 122.322 481.382C121.959 481.999 120.761 481.963 120.18 481.999C119.199 482.072 118.218 482.108 117.238 482.072C113.388 482.036 109.538 481.491 105.725 481.054C97.9887 480.146 90.2164 479.273 82.4805 478.365C75.5436 477.565 65.7012 476.802 63.0499 468.914C62.7593 468.078 61.4882 468.442 61.7424 469.278C64.0668 476.293 71.7664 478.401 78.3038 479.237C86.6572 480.291 95.0468 481.2 103.4 482.145C107.541 482.617 111.717 483.235 115.93 483.417C117.71 483.49 124.901 484.144 123.666 480.436H123.702Z" fill="#1D47FC"/>
<path d="M167.103 225.607C165.433 225.17 163.871 226.297 162.527 227.133C161.038 228.042 159.658 229.023 158.278 230.114C155.59 232.258 153.157 234.73 151.014 237.419C146.402 243.199 143.097 249.85 140.663 256.792C139.174 260.936 138.012 265.189 136.995 269.478C136.777 270.314 138.085 270.677 138.303 269.841C141.571 256.284 146.583 242.435 157.188 232.84C158.569 231.604 159.985 230.477 161.51 229.423C162.273 228.914 163.036 228.442 163.798 227.969C164.634 227.46 165.723 226.661 166.777 226.915C167.612 227.133 167.975 225.825 167.14 225.607H167.103Z" fill="#1D47FC"/>
<path d="M355.054 238.546C353.201 238.183 351.676 239.273 350.55 240.618C349.315 242.072 348.226 243.708 347.245 245.307C345.284 248.505 343.686 251.922 342.378 255.448C339.691 262.753 338.311 270.495 337.403 278.201C336.894 282.599 336.531 287.033 336.168 291.468C336.095 292.34 337.439 292.34 337.512 291.468C338.601 277.002 339.836 261.808 346.773 248.796C347.717 247.052 348.734 245.343 349.896 243.708C350.913 242.254 352.584 239.419 354.727 239.818C355.562 239.964 355.925 238.692 355.09 238.51L355.054 238.546Z" fill="#1D47FC"/>
<path d="M432.813 632.622C423.66 619.101 415.271 605.071 407.716 590.605C400.162 576.138 393.479 561.236 387.668 545.97C384.4 537.392 381.421 528.705 378.697 519.946C378.443 519.11 377.136 519.473 377.39 520.309C382.22 535.975 387.959 551.35 394.569 566.325C401.143 581.263 408.588 595.839 416.869 609.905C421.554 617.865 426.457 625.68 431.651 633.312C432.123 634.039 433.321 633.349 432.813 632.622Z" fill="#1F1F1F"/>
<path d="M103.182 610.159C99.0053 597.074 94.8286 583.99 90.652 570.905C86.5842 558.183 82.5165 545.389 80.8095 532.122C79.8289 524.598 79.5747 516.965 80.0105 509.405C80.0468 508.642 78.8846 508.497 78.703 509.223C78.3762 510.459 78.0856 511.731 77.7587 512.967C77.6135 513.512 78.0856 513.84 78.5215 513.803C78.3035 525.834 79.8652 537.72 82.8797 549.387C86.2211 562.508 90.6883 575.339 94.8286 588.206C97.1894 595.621 99.5864 603.035 101.947 610.487C102.201 611.323 103.509 610.959 103.255 610.123L103.182 610.159Z" fill="#1F1F1F"/>
<path d="M127.516 761.873C124.646 750.132 122.794 738.138 122.068 726.034C121.85 722.618 121.741 719.165 121.705 715.748C121.705 714.876 120.361 714.876 120.361 715.748C120.506 727.924 121.705 740.064 123.993 752.022C124.646 755.439 125.409 758.856 126.208 762.236C126.426 763.072 127.697 762.709 127.516 761.873Z" fill="#1F1F1F"/>
<path d="M510.898 686.997C507.775 687.179 505.232 684.489 503.053 682.563C500.693 680.455 498.877 678.02 497.242 675.293C494.446 670.568 491.613 665.262 486.129 663.263C485.293 662.972 484.967 664.28 485.766 664.571C491.577 666.679 494.083 672.931 497.17 677.765C498.913 680.455 501.019 682.672 503.453 684.744C505.559 686.561 507.92 688.524 510.862 688.378C511.734 688.342 511.734 686.997 510.862 687.034L510.898 686.997Z" fill="#1F1F1F"/>
<path d="M494.845 683.835C494.555 682.999 493.284 683.363 493.538 684.199C495.79 690.923 497.242 697.901 497.823 704.953C497.896 705.825 499.24 705.825 499.167 704.953C498.586 697.756 497.133 690.668 494.809 683.835H494.845Z" fill="#1F1F1F"/>
<path d="M511.661 695.684C510.753 700.01 509.882 704.335 508.974 708.697C508.102 712.876 507.412 717.129 506.322 721.236C505.814 723.126 505.124 724.907 503.78 726.398C502.509 727.815 501.02 729.015 499.785 730.468C498.55 731.886 497.424 733.376 496.48 735.012C496.044 735.739 495.645 736.502 495.281 737.302C494.918 738.101 494.628 739.046 493.938 739.628C493.356 740.1 493.211 739.373 493.03 738.901C492.848 738.392 492.666 737.847 492.521 737.338C492.194 736.248 491.976 735.121 491.867 733.994C491.613 731.704 491.795 729.414 492.303 727.161C492.521 726.325 491.214 725.961 490.996 726.797C489.979 731.014 490.233 735.521 491.831 739.519C492.122 740.246 492.448 740.973 493.32 741.118C494.047 741.227 494.7 740.791 495.172 740.282C495.79 739.592 496.08 738.756 496.48 737.956C496.916 737.011 497.424 736.066 497.969 735.194C499.095 733.376 500.439 731.668 501.928 730.178C503.417 728.687 505.087 727.343 506.141 725.489C507.158 723.708 507.666 721.672 508.066 719.673C508.574 717.311 509.046 714.912 509.555 712.549C510.681 707.061 511.843 701.572 512.969 696.084C513.15 695.248 511.843 694.885 511.661 695.721V695.684Z" fill="#1F1F1F"/>
<path d="M498.332 726.652C493.356 720.219 489.87 712.695 488.126 704.735C487.945 703.899 486.637 704.262 486.819 705.098C488.599 713.313 492.231 720.982 497.352 727.597C497.896 728.288 498.841 727.306 498.296 726.652H498.332Z" fill="#1F1F1F"/>
<path d="M491.94 646.434C484.059 642.836 476.722 638.074 470.258 632.295C469.604 631.713 468.66 632.658 469.313 633.24C475.851 639.092 483.26 643.962 491.286 647.597C492.085 647.96 492.739 646.797 491.976 646.434H491.94Z" fill="#1F1F1F"/>
<path d="M278.021 117.765C276.895 116.456 275.769 115.111 274.607 113.803C273.59 112.64 272.428 111.477 271.738 110.059C271.121 108.787 271.193 107.297 272.174 106.243C273.227 105.152 274.861 105.043 276.133 105.807C276.859 106.279 277.549 105.08 276.823 104.643C275.37 103.735 273.409 103.698 271.956 104.643C270.576 105.588 269.813 107.26 270.031 108.932C270.285 110.786 271.556 112.276 272.719 113.658C274.171 115.33 275.588 117.001 277.041 118.673C277.622 119.328 278.566 118.383 277.985 117.728L278.021 117.765Z" fill="#1F1F1F"/>
<path d="M331.374 150.659C328.614 150.295 326.035 148.914 324.11 146.879C323.529 146.261 322.549 147.206 323.166 147.824C325.345 150.15 328.251 151.568 331.374 152.004C331.737 152.04 332.064 151.677 332.064 151.313C332.064 150.913 331.737 150.695 331.374 150.623V150.659Z" fill="#1F1F1F"/>
<path d="M235.02 126.415C230.08 116.02 224.487 105.879 220.42 95.0841C218.132 89.0505 216.352 82.7988 215.517 76.4017C215.408 75.5657 214.064 75.5293 214.173 76.4017C215.662 87.742 219.984 98.3917 224.851 108.642C229.79 119.037 235.383 129.178 239.414 139.973C241.666 146.006 243.41 152.258 244.209 158.655C244.317 159.491 245.661 159.528 245.552 158.655C244.136 147.315 239.887 136.665 235.02 126.379V126.415Z" fill="#1F1F1F"/>
<path d="M249.221 124.671C248.24 121.4 247.114 118.201 245.807 115.075C244.535 112.022 243.119 109.005 241.92 105.916C240.577 102.463 239.56 98.8643 239.487 95.1206C239.487 94.2482 238.107 94.2482 238.143 95.1206C238.289 101.663 241.121 107.624 243.7 113.512C246.46 119.8 248.567 126.343 249.983 133.067C250.782 136.883 251.327 140.773 251.654 144.662C251.727 145.534 253.07 145.534 252.998 144.662C252.417 137.865 251.182 131.177 249.221 124.634V124.671Z" fill="#1F1F1F"/>
<path d="M258.336 123.907C258.191 123.035 256.884 123.398 257.029 124.271C258.046 130.741 258.627 137.247 258.736 143.753C258.736 144.625 260.116 144.625 260.08 143.753C259.934 137.101 259.353 130.486 258.3 123.907H258.336Z" fill="#1F1F1F"/>
<path d="M287.101 21.5539C276.787 18.4644 267.344 25.2977 257.465 26.8606C254.995 27.2604 252.489 27.3695 250.383 25.8429C248.567 24.5344 247.114 23.0078 244.79 22.6807C240.504 22.0628 236.218 24.7888 233.204 27.5149C229.717 30.6407 227.175 34.7116 225.94 39.2186C225.722 40.0546 226.993 40.4181 227.248 39.5821C228.373 35.6566 230.48 32.0583 233.422 29.1868C236.255 26.4244 240.794 23.1896 245.007 24.0982C247.078 24.5344 248.421 26.2427 250.165 27.3331C252.126 28.5689 254.378 28.6053 256.63 28.3508C261.424 27.7693 265.891 25.9883 270.394 24.4617C275.624 22.6807 281.326 21.2632 286.811 22.8988C287.646 23.1532 288.009 21.8447 287.174 21.5903L287.101 21.5539Z" fill="#1F1F1F"/>
<path d="M322.076 45.5429C319.243 41.6901 314.159 41.1813 309.837 40.2362C307.621 39.7274 305.297 39.1095 303.445 37.6919C301.229 35.9836 300.285 33.1486 297.888 31.622C295.672 30.2044 292.876 29.9864 290.297 30.1681C287.283 30.3862 284.268 31.0768 281.326 31.8037C274.135 33.6211 267.162 36.3471 260.625 39.8728C259.862 40.2726 260.552 41.4357 261.315 41.0359C266.944 37.9827 272.864 35.5838 279.038 33.8391C282.016 33.0032 285.031 32.2762 288.082 31.7674C290.624 31.3675 293.421 31.1858 295.854 32.1308C297.089 32.6033 298.106 33.403 298.941 34.4207C299.849 35.5111 300.539 36.7833 301.52 37.801C303.009 39.3639 305.006 40.2726 307.004 40.8905C311.072 42.1263 316.011 42.0899 319.498 44.816C325.272 49.3594 321.604 57.9737 321.786 64.0073C321.786 64.8796 323.166 64.8796 323.129 64.0073C322.912 57.9737 326.035 50.9223 322.04 45.5066L322.076 45.5429Z" fill="#1F1F1F"/>
<path d="M335.369 36.2746C333.989 35.0024 332.464 33.912 331.156 32.5672C330.539 31.9129 329.994 31.2223 329.631 30.4227C329.195 29.514 329.05 28.4599 328.904 27.4786C328.65 25.8066 328.287 24.0983 326.943 22.9352C325.817 21.9538 324.364 21.5176 322.912 21.4813C318.626 21.3722 315.648 24.8252 313.214 27.8784C312.67 28.569 313.614 29.514 314.159 28.8234C316.193 26.2791 318.626 23.1169 322.149 22.8261C323.565 22.7171 325.091 23.0079 326.18 23.9892C327.452 25.1887 327.488 27.006 327.742 28.6053C328.323 32.131 330.829 34.0937 333.372 36.2382C336.095 38.5644 338.529 41.3268 340.127 44.5617C342.052 48.4509 342.56 52.9942 341.071 57.0651C340.781 57.8648 342.088 58.2282 342.379 57.4286C345.211 49.5776 341.107 41.4722 335.369 36.2019V36.2746Z" fill="#1F1F1F"/>
<path d="M299.05 62.3718C296.544 59.7185 292.985 58.7007 289.571 57.7921C287.719 57.2832 285.866 56.8107 284.123 56.0111C282.162 55.1024 280.491 53.7212 278.712 52.5581C275.043 50.1955 270.685 49.5049 266.399 49.5776C261.569 49.6866 256.811 50.6317 252.09 51.6857C246.569 52.9579 241.049 54.3391 235.528 55.6476C234.693 55.8657 235.056 57.1378 235.892 56.9561C240.649 55.793 245.443 54.6662 250.201 53.5031C254.814 52.4127 259.499 51.3223 264.22 50.9951C268.47 50.7044 273.009 50.9225 276.823 52.9942C278.748 54.0483 280.382 55.4658 282.271 56.5563C283.833 57.4286 285.539 58.0101 287.283 58.519C291.06 59.6094 295.273 60.2637 298.07 63.2805C298.651 63.8984 299.631 62.9534 299.014 62.3355L299.05 62.3718Z" fill="#1F1F1F"/>
<path d="M289.28 74.9479C289.135 74.0756 287.864 74.439 287.973 75.3114C288.808 80.7271 289.607 86.1065 290.443 91.5222C290.588 92.3945 291.859 92.031 291.75 91.1587C290.915 85.743 290.116 80.3636 289.28 74.9479Z" fill="#1F1F1F"/>
<path d="M257.537 67.3512C257.283 66.5152 255.976 66.8787 256.23 67.7147C258.482 74.6933 260.043 81.8537 260.915 89.1595C261.024 89.9955 262.368 90.0318 262.259 89.1595C261.387 81.7447 259.789 74.4753 257.501 67.3876L257.537 67.3512Z" fill="#1F1F1F"/>
<path d="M242.792 83.2713C240.468 76.5471 238.397 69.7865 236.581 62.9169C236.363 62.0809 235.056 62.4444 235.274 63.2804C237.09 70.15 239.16 76.9469 241.484 83.6348C241.775 84.4344 243.082 84.1073 242.792 83.2713Z" fill="#1F1F1F"/>
</g>
<defs>
<clipPath id="clip0_1177_1491">
<rect width="517" height="1282" fill="white"/>
</clipPath>
</defs>
</svg>
