<svg width="502" height="580" viewBox="0 0 502 580" fill="none" xmlns="http://www.w3.org/2000/svg">
<g clip-path="url(#clip0_1177_1926)">
<path d="M430.563 611.067C428.271 588.157 425.5 565.28 422.252 542.482C419.18 520.91 413.257 496.123 392.417 486.491C389.694 485.233 386.431 484.278 383.39 484.915C382.227 485.154 381.24 485.886 380.094 486.109C379.346 486.252 378.82 485.965 378.056 485.934C374.904 485.759 371.879 485.504 368.695 485.583C360.607 485.743 352.503 485.52 344.416 485.058C313.402 483.307 282.499 477.942 251.326 479.55C245.483 479.852 237.746 479.804 232.842 483.243C230.55 484.851 228.623 487.589 226.888 489.707C223.051 494.387 219.787 499.466 216.953 504.72C211.206 515.418 207.257 526.865 203.643 538.311C189.251 583.939 179.109 630.728 173.346 677.995C170.449 701.748 168.649 725.613 167.965 749.509C167.71 758.663 165.943 766.83 163.252 775.618C161.931 779.917 158.142 788.291 162.17 792.223C164.351 794.357 168.029 794.054 170.862 793.879C177.406 793.465 183.933 792.653 190.461 792.112C203.564 791.013 216.683 790.09 229.817 789.326C256.071 787.797 282.388 786.938 308.689 786.747C325.836 786.619 342.983 786.779 360.113 787.224C377.786 787.686 395.442 788.45 413.066 789.501C417.476 789.772 421.886 790.042 426.296 790.361C429.401 790.583 431.964 792.367 435.053 792.191C441.198 791.841 446.341 786.221 447.36 780.808C448.745 773.581 445.624 766.385 443.411 759.332C438.46 743.491 438.03 726.775 437.393 710.282C436.12 677.168 433.827 644.069 430.531 611.083L430.563 611.067Z" fill="#A6A4C2"/>
<path d="M250.785 244.79C249.639 234.314 246.598 224.205 242.076 214.684C240.118 210.561 237.73 206.629 234.928 203.015C233.415 201.057 231.791 199.194 230.056 197.427C229.276 196.631 228.671 195.516 227.604 195.612C226.124 195.755 223.974 197.506 222.717 198.287C219.612 200.229 216.73 202.537 214.088 205.085C208.69 210.29 204.296 216.467 200.475 222.899C196.782 229.14 193.629 235.667 190.62 242.242C190.493 242.513 190.381 242.768 190.254 243.038C182.198 260.614 174.524 278.349 167.232 296.26C163.587 305.207 160.052 314.202 156.597 323.229C155.021 327.368 153.795 332.033 151.566 335.837C149.385 339.547 148.096 343.591 145.198 346.902C142.348 350.166 138.145 352.57 133.831 352.203C126.427 351.567 120.982 344.45 115.713 339.929C108.58 333.816 101.113 328.037 93.6623 322.305C68.0138 302.532 40.8051 284.956 14.4561 266.139C13.4053 265.39 12.3545 264.642 11.3038 263.894C10.6192 263.4 9.5684 262.27 8.74052 262.095C7.62606 261.856 7.59422 262.493 7.45093 263.544C7.24396 264.961 7.25988 266.33 6.63897 267.651C5.79516 269.498 4.66478 271.201 3.86874 273.08C1.1622 279.543 0.62089 286.883 0.0318188 293.872C-0.206994 296.658 0.366156 299.125 1.56022 301.641C21.7478 344.371 57.9996 382.914 93.7419 413.114C109.806 426.694 129.5 441.229 151.582 440.768C156.072 440.672 160.609 439.924 164.59 437.854C176.769 431.55 183.44 419.419 189.347 407.701C206.398 373.823 226.044 340.518 240.245 305.318C247.999 286.103 253.03 265.566 250.753 244.774L250.785 244.79Z" fill="#EC9D74"/>
<path d="M358.299 150.207C351.198 144.572 344.463 138.633 342.171 130.116C340.929 125.499 341.2 120.612 340.483 115.883C340.388 115.294 340.276 114.673 339.846 114.275C339.066 113.543 337.824 113.925 336.853 114.339C334.943 115.151 333.032 115.947 331.122 116.759C329.562 117.412 328.113 118.256 326.441 118.256C310.648 118.271 296.86 128.556 281.099 129.256C279.745 129.32 279.188 130.848 279.459 132.011C279.204 132.552 279.108 133.189 279.363 133.81C284.633 146.96 276.561 160.54 265.942 168.134C263.506 169.869 260.927 171.397 258.268 172.735C255.8 173.976 252.25 174.804 250.435 177.001C248.556 179.294 249.289 182.175 250.005 184.738C251.104 188.607 252.218 192.476 253.333 196.344C257.599 211.214 261.389 226.338 266.531 240.953C271.244 254.39 278.089 266.887 285.572 278.97C289.266 284.94 293.039 290.879 296.988 296.706C299.997 301.147 303.738 305.892 308.96 307.802C321.06 312.212 330.087 298.202 333.398 288.666C335.389 282.966 336.344 276.964 337.108 270.994C337.554 267.603 337.952 264.196 338.35 260.789C338.684 257.94 338.732 254.915 339.719 252.193C340.467 250.139 341.152 248.34 341.375 246.127C341.677 243.277 342.059 240.443 342.633 237.625C345.291 224.316 351.15 211.628 359.668 201.025C363.839 195.835 368.663 191.091 371.991 185.327C375.334 179.564 377.038 172.337 374.411 166.207C372.898 162.689 370.128 159.871 367.23 157.372C364.396 154.936 361.324 152.595 358.315 150.207H358.299Z" fill="#EC9D74"/>
<path d="M279.347 143.632C282.149 150.637 281.162 157.754 278.025 164.026C289.727 174.613 307.288 182.669 319.006 173.085C328.542 165.284 337.012 152.229 341.979 139.111C340.96 134.733 341.152 130.148 340.483 125.706C340.387 125.117 340.276 124.496 339.846 124.098C339.066 123.366 337.824 123.748 336.853 124.162L331.121 126.582C329.561 127.234 328.112 128.078 326.441 128.078C310.647 128.094 296.86 138.379 281.098 139.079C279.745 139.143 279.188 140.671 279.458 141.833C279.204 142.375 279.108 143.011 279.363 143.632H279.347Z" fill="#CB7A55"/>
<path d="M425.278 338.385C424.179 322.21 421.743 306.194 419.53 290.146C417.301 274.003 415.279 257.749 415.407 241.43C415.47 233.661 416.012 225.876 417.285 218.219C417.922 214.43 418.718 210.673 419.705 206.963C420.517 203.938 421.823 200.484 419.944 197.586C418.4 195.198 415.454 194.529 412.907 193.733C408.768 192.444 404.612 191.186 400.457 189.944C392.465 187.556 384.441 185.248 376.401 183.019C372.548 181.952 368.679 180.902 364.81 179.867C361.196 178.896 357.248 177.304 353.475 177.176C350.927 177.081 348.826 178.179 347.441 180.297C345.355 183.481 344.225 187.556 342.839 191.075C330.182 223.281 320.184 256.491 312.908 290.322C309.374 283.603 307.527 276.137 306.222 268.654C304.582 259.182 303.467 249.598 302.162 240.077C299.376 219.827 296.605 199.56 293.819 179.31C293.692 178.354 292.705 177.558 291.749 177.845C267.964 184.659 244.178 191.473 220.376 198.303C218.705 198.78 218.816 201.439 220.09 202.139C218.45 203.19 217.527 205.116 217.511 207.17C217.511 209.749 220.902 209.813 220.918 207.234C220.918 206.581 221.156 206.151 221.539 205.865C230.582 233.423 224.404 263.066 218.132 290.544C214.836 304.984 211.254 319.503 210.649 334.357C210.028 349.688 213.196 364.86 215.775 379.889C221.045 410.631 226.315 441.389 231.601 472.131C232.046 474.71 232.333 477.591 233.861 479.804C235.501 482.192 238.08 482.957 240.851 483.323C248.413 484.326 256.166 484.135 263.777 483.991C279.013 483.721 294.074 483.991 309.262 485.329C342.139 488.242 375.445 493.607 408.195 486.793C409.07 487.43 410.312 487.303 410.646 485.758C417.604 453.297 423.272 420.438 425.278 387.26C426.265 370.989 426.344 354.671 425.246 338.401L425.278 338.385Z" fill="#490407"/>
<path d="M364.587 477.862C364.237 473.787 364.317 468.023 361.308 464.855C358.187 461.576 352.647 461.448 348.428 461.034C343.333 460.525 338.19 460.429 333.08 460.541C322.954 460.764 312.876 461.83 302.783 462.515C292.625 463.2 282.436 463.582 272.246 463.677C260.576 463.789 248.906 463.502 237.252 462.865C236.106 462.802 235.039 463.295 234.211 464.075C232.619 464.33 231.171 465.54 231.011 467.769C230.98 468.246 230.98 468.708 230.948 469.186C230.629 469.775 230.454 470.491 230.502 471.335C230.597 472.815 230.709 474.28 230.82 475.761C230.868 479.55 231.139 483.323 231.616 487.096C231.616 487.239 231.632 487.398 231.648 487.542C231.712 487.908 231.744 488.274 231.792 488.656C232.11 490.917 234.1 491.808 236.042 491.601C236.536 492.079 237.141 492.429 237.841 492.557C238.876 492.748 239.927 492.875 240.962 493.034C241.838 494.196 243.27 494.897 244.815 494.419C245.34 494.26 245.834 494.021 246.343 493.798C283.773 498.336 321.824 490.439 359.047 497.348C362.008 497.906 364.587 496.107 364.746 493.002C365.017 487.971 364.985 482.909 364.555 477.878L364.587 477.862Z" fill="#A6A4C2"/>
<path d="M501.522 584.926C501.14 576.392 500.631 567.843 500.344 559.326C499.468 532.198 498.609 505.054 497.733 477.926C497.255 462.817 496.762 447.709 496.252 432.601C496.093 420.533 495.934 408.45 495.727 396.382C495.663 393.119 495.472 389.712 494.676 386.496C494.676 386.257 494.66 386.002 494.644 385.763C494.565 383.726 493.657 381.879 492.225 380.589C489.375 376.116 485.124 373.186 480.156 371.658C470.652 368.729 460.176 371.117 450.639 372.438C445.783 373.107 440.928 373.823 436.088 374.524C424.465 375.527 412.875 376.96 401.348 378.838C398.642 379.284 395.983 379.762 393.34 380.43C391.684 380.844 390.029 381.226 388.325 380.86C386.128 380.382 383.628 378.997 382.371 377.119C380.922 374.954 380.635 372.247 380.381 369.716C376.989 335.153 376.719 300.367 376.448 265.645C376.369 255.918 376.305 246.143 377.674 236.511C378.136 233.295 378.757 230.095 379.537 226.943C381.017 220.989 383.039 215.178 385.603 209.606C386.653 207.313 387.911 205.132 389.153 202.935C390.777 200.102 393.515 198.207 395.601 195.755C398.467 192.38 400.489 187.668 398.865 183.56C396.524 177.67 388.309 176.715 382.339 178.864C364.237 185.375 360.655 205.944 358.537 222.645C356.404 239.504 354.955 256.459 354.684 273.446C354.461 288.252 356.006 303.01 356.881 317.768C358.824 350.325 356.69 382.93 356.038 415.487C355.369 448.043 358.505 480.027 361.928 512.409C363.441 526.785 365.081 541.161 366.832 555.521C368.472 568.942 370.971 583.206 370.971 596.739C371.306 600.145 371.672 603.664 373.359 606.641C375.238 609.968 378.534 612.261 381.941 613.98C391.653 618.884 402.893 620.014 413.751 619.393C424.625 618.772 435.307 616.511 446.086 614.951C456.02 613.518 466.672 612.85 476.94 612.484C483.118 612.277 498.641 615.286 501.299 607.724C501.952 605.877 501.968 603.887 501.952 601.929C501.92 596.277 501.729 590.609 501.475 584.926H501.522Z" fill="#D8BFA8"/>
<path d="M472.308 517.567C450.735 494.913 434.337 467.705 420.358 439.892C418.272 435.721 412.127 438.714 413.082 442.949C419.833 472.561 428.287 501.838 439.001 530.256C434.257 525.368 429.863 520.13 425.692 514.797C417.317 504.067 409.468 492.907 401.635 481.778C398.722 477.639 392.544 480.155 393.516 485.201C396.381 500.055 400.027 514.829 404.772 529.205C407.144 536.401 409.787 543.517 412.589 550.554C415.391 557.591 418.368 564.787 422.507 571.139C424.705 574.498 430.34 572.444 429.178 568.337C427.124 561.109 424.084 554.136 421.393 547.115C418.734 540.19 416.33 533.201 414.022 526.164C411.761 519.255 409.643 512.282 407.701 505.293C419.514 521.738 431.805 537.945 447.933 550.283C451.006 552.639 456.132 548.691 454.683 545.109C445.147 521.515 436.581 497.539 429.401 473.166C439.957 491.187 451.786 508.365 466.21 523.696C470.015 527.74 476.145 521.627 472.308 517.599V517.567Z" fill="#BF9A7C"/>
<path d="M475.985 396.86C474.266 365.529 471.034 334.309 465.207 303.344C457.867 264.356 445.943 227.484 419.148 197.252C416.282 194.02 412.859 190.693 408.545 190.486C403.943 190.263 399.868 193.893 398.085 198.143C396.811 201.152 395.903 204.321 395.267 207.52C394.996 208.89 394.757 210.036 394.9 211.357C395.076 212.949 394.996 214.621 395.028 216.229C395.107 219.524 395.203 222.836 395.314 226.131C395.537 232.738 395.808 239.329 396.142 245.936C396.684 256.889 397.384 267.826 398.244 278.764C399.82 298.887 401.921 319.042 406.889 338.592C409.404 348.462 412.652 358.126 416.218 367.694C412.079 363.061 408.035 358.333 404.166 353.477C396.827 344.275 389.901 334.644 383.406 324.773C383.644 323.261 383.469 321.669 383.437 320.124C383.39 318.087 383.326 316.065 383.246 314.027C383.23 313.581 383.199 313.135 383.167 312.69C383.613 308.837 383.995 304.968 384.17 301.084C384.17 300.956 384.17 300.845 384.154 300.734C384.504 297.629 384.456 294.477 384.09 291.309C383.899 289.637 383.055 288.157 381.336 287.679C379.792 287.249 377.833 287.934 377.085 289.398C376.098 291.325 375.652 293.362 374.936 295.384C374.538 296.499 373.917 297.167 372.977 297.199C372.197 297.231 371.688 297.12 371.003 296.801C369.666 294.954 368.153 293.553 366.434 292.359C366.131 291.977 365.845 291.595 365.558 291.213L362.724 284.256C361.642 281.581 360.352 278.907 359.636 276.121C359.19 274.401 359.174 272.539 357.502 271.456C353.283 268.734 351.118 274.975 350.258 277.745C349.828 279.114 349.494 280.499 349.208 281.868C349.08 282.186 348.969 282.505 348.889 282.839C347.265 283.253 345.769 284.24 344.973 285.737C343.524 288.475 344.304 291.643 344.718 294.541C344.909 295.878 345.196 297.167 344.798 298.457C344.336 299.969 343.572 301.243 343.269 302.835C342.712 305.732 342.839 308.789 343.81 311.591C344.368 313.199 344.368 313.04 344.463 314.568C344.559 316.176 344.766 317.8 345.036 319.392C345.96 324.725 347.807 329.82 351.994 333.163C352.233 333.354 352.694 334.596 352.79 334.771C353.204 335.583 353.634 336.395 354.063 337.207C354.573 338.162 355.066 339.149 355.64 340.072C355.958 340.566 356.292 341.044 356.674 341.473C357.248 342.126 357.916 342.667 358.394 343.416C360.066 345.963 361.005 349.243 362.183 352.044C364.762 358.142 367.341 364.255 369.921 370.353C379.314 392.593 386.606 417.461 400.218 437.552C407.446 448.235 416.378 457.755 426.583 465.651C431.678 469.6 437.107 473.134 442.774 476.191C447.821 478.913 455.049 484.182 461.02 482.479C463.901 481.667 466.082 479.343 467.866 476.939C470.62 473.229 472.769 469.058 474.234 464.68C475.762 460.063 476.049 455.51 476.606 450.734C478.708 432.744 476.956 414.786 475.969 396.796L475.985 396.86Z" fill="#EC9D74"/>
<path d="M297.115 189.642L290.619 177.606C288.47 173.626 285.97 169.662 284.267 165.459C282.483 161.049 283.423 156.687 283.662 152.102C283.853 148.6 283.677 145.081 283.248 141.595C282.34 134.431 280.095 127.394 276.704 121.026C273.424 114.849 269.126 109.261 263.92 104.58C261.643 102.542 257.185 98.8649 254.654 102.702C253.078 105.09 253.078 108.497 253.3 111.219C253.762 117.094 256.166 123.175 254.686 129.082C254.479 129.925 254.176 130.753 253.794 131.549C251.979 135.259 248.349 137.694 245.658 140.831C242.506 144.508 240.627 149.268 240.421 154.108C240.261 157.881 241.089 161.75 240.102 165.412C238.08 172.862 229.722 176.301 222.446 178.896C215.17 181.507 206.907 185.582 205.729 193.208C205.235 196.376 206.143 199.592 205.952 202.792C205.554 209.622 200.555 214.748 198.167 220.878C197.068 223.711 198.071 225.733 199.217 228.376C200.571 231.496 202.64 233.009 205.936 233.693C206.971 233.9 208.022 234.06 209.056 234.282C215.616 235.731 217.144 243.341 217.733 249.056C218.068 252.304 218.004 255.87 220.106 258.593C221.889 260.885 224.691 261.729 227.509 261.299C234.944 260.185 237.3 252.845 242.968 249.12C249.878 244.583 258.666 249.072 265.225 252.129C268.393 253.61 271.498 254.326 274.618 252.384C277.405 250.633 279.204 247.656 281.194 245.124C283.55 242.147 286.129 239.234 289.377 237.18C292.37 235.285 296.048 235.317 298.993 233.502C301.955 231.656 302.448 228.09 303.037 224.937C303.817 220.718 304.534 216.436 304.534 212.153C304.534 203.795 300.983 196.854 297.115 189.674V189.642Z" fill="#67501B"/>
<path d="M262.184 92.4807C261.977 87.2748 261.85 81.9256 260.64 76.8311C259.796 73.2809 258.316 69.3805 255.609 67.0561C255.37 62.1686 248.349 58.9527 244.687 62.9964C243.032 64.8432 241.599 66.9128 239.736 68.5685C239.147 69.0939 238.51 69.5715 238.001 70.1765C236.472 72.0232 236.042 74.8252 235.549 77.1018C234.275 82.8967 233.893 88.8987 234.387 94.821C234.864 100.329 236.106 105.758 238.128 110.9C238.988 113.097 240.038 115.31 241.806 116.886C243.573 118.463 245.643 118.876 247.903 118.415C249.83 118.017 251.772 118.494 253.762 117.81C257.599 116.488 260.353 113.082 261.245 109.181C262.487 103.784 262.375 97.9891 262.152 92.4967L262.184 92.4807Z" fill="#DAD8D9"/>
<path d="M348.985 92.6718C349.16 79.7445 346.851 66.483 342.489 55.8482C335.261 38.2245 310.536 30.6624 292.895 32.2544C277.643 33.6236 260.242 42.6026 254.797 57.8064C251.501 67.0242 252.441 79.4261 252.998 89.1375C254.447 114.132 261.802 139.175 284.203 153.455C286.845 155.143 289.632 156.639 292.657 157.467C298.722 159.123 305.298 157.897 310.966 155.206C316.633 152.5 321.521 148.409 326.122 144.142C333.621 137.169 340.722 129.32 344.336 119.736C347.361 111.696 348.857 102.288 348.985 92.7036V92.6718Z" fill="#EC9D74"/>
<path d="M361.323 53.0782C360.894 51.2474 360.352 49.4484 359.747 47.6812C354.286 31.8565 343.285 18.0059 329.116 9.07462C327.078 7.78508 324.53 6.60699 322.063 6.79803C320.964 6.87763 320.041 7.403 319.006 7.68956C316.65 8.32637 314.421 9.12239 312.16 10.0935C311.666 10.3164 311.778 10.6985 311.507 11.001C311.236 11.3035 310.536 11.4945 310.186 11.7015C309.23 12.2268 308.371 12.8 307.368 13.2139C306.397 13.6119 305.457 14.0577 304.55 14.5671C302.719 15.5701 300.999 16.7641 299.391 18.0855C295.188 21.5083 291.686 25.6954 288.358 29.9461C286.543 32.2545 284.712 34.6585 283.837 37.4604C283.041 40.0077 283.248 43.0962 285.317 44.9748C286.082 45.6593 286.655 46.2802 287.1 47.2195C288.342 49.7509 289.68 52.2185 291.192 54.5906C292.338 56.3737 293.596 58.1249 295.3 59.3985C297.003 60.6562 299.232 61.3726 301.27 60.8313C302.576 60.4811 303.738 59.6692 305.075 59.3985C306.954 59.0164 308.944 59.8443 310.313 61.1816C311.698 62.5189 312.542 64.302 313.179 66.1169C313.879 68.1228 314.675 70.5586 316.745 70.9885C318.385 71.3387 319.961 70.1765 321.633 70.0651C323.4 69.9536 325.056 71.0362 326.186 72.3894C327.317 73.7427 328.065 75.3824 328.988 76.8949C330.628 79.5854 332.889 81.8938 335.532 83.5973C336.296 84.0908 337.156 84.5525 338.079 84.5366C339.416 84.5207 340.499 83.5336 341.422 82.5625C343.492 80.3973 345.371 78.0571 347.027 75.5735C347.743 74.4909 348.428 73.3924 349.017 72.2302C349.351 71.5616 349.685 70.8293 350.322 70.3835C351.628 69.492 353.681 69.5875 355.178 69.4601C357.12 69.3009 360.241 69.6671 361.451 67.7567C363.011 65.3049 362.486 60.8632 362.199 58.1249C362.024 56.4214 361.721 54.7498 361.323 53.0941V53.0782Z" fill="#67501B"/>
<path d="M313.545 7.41877C313.513 7.14813 313.45 6.87748 313.354 6.62276C312.701 5.06258 310.791 4.55313 309.135 4.26656C301.111 2.91334 292.864 2.43574 284.872 3.99592C278.567 5.2377 272.438 7.80086 267.438 11.8924C261.245 16.955 258.268 24.3579 254.829 31.331C254.32 32.3658 253.874 33.4643 252.95 34.2125C251.661 35.2314 249.91 35.4384 248.509 36.2185C246.63 37.2692 245.34 39.0045 244.274 40.8354C239.465 49.0661 238.526 59.1118 239.848 68.5525C240.707 74.7136 242.475 80.7156 244.528 86.5583C245.324 88.8349 246.009 91.0956 248.031 92.5921C249.368 93.5791 251.295 94.2319 252.871 93.3722C256.039 91.6369 254.797 86.8767 254.558 84.0747C254.256 80.4131 255.227 76.6559 257.281 73.6151C257.934 72.6599 258.714 71.7366 259.765 71.243C261.5 70.4152 263.522 70.9087 265.448 70.8291C267.773 70.7177 269.97 69.7465 272.087 68.7913C272.931 68.4092 273.807 68.0112 274.396 67.2948C275.033 66.5306 275.256 65.5277 275.494 64.5725C276.02 62.4073 276.641 60.2581 277.723 58.3158C278.137 57.5675 278.631 56.8511 279.172 56.1825C281.99 52.6323 285.938 50.2442 289.409 47.4104C291.097 46.0413 292.721 44.5448 293.978 42.7617C294.631 41.8383 295.045 40.8513 295.586 39.8642C295.809 39.4662 296.112 39.1319 296.303 38.718C296.653 37.9538 296.781 37.0941 297.003 36.2981C297.449 34.7061 297.927 33.13 298.58 31.6175C301.015 25.9022 304.614 21.4286 308.642 16.7958C309.358 15.9679 309.915 15.0923 310.393 14.1053C311.332 12.2267 313.816 9.71129 313.593 7.43469L313.545 7.41877Z" fill="#67501B"/>
<path d="M415.725 211.341C412.971 208.285 409.42 205.499 408.529 201.264C407.733 197.475 408.8 193.495 409.357 189.737C410.408 182.717 409.611 176.492 403.944 171.7C398.929 167.465 391.462 164.981 390.045 157.817C388.676 150.94 391.701 143.919 391.621 137.01C391.589 133.905 390.984 130.817 389.392 128.126C387.736 125.324 385.173 123.302 382.626 121.344C380.126 119.418 377.053 117.348 376.178 114.132C375.557 111.84 376.066 109.308 376.018 106.968C375.971 104.867 375.748 102.765 375.334 100.696C373.63 91.9553 369.061 84.027 364.524 76.4809C363.043 74.0132 361.419 71.3705 358.776 70.0013C355.879 68.5048 352.535 69.1575 349.988 71.0202C347.074 73.1376 344.225 76.0032 344.129 79.7286C344.049 82.7693 343.922 85.7146 344.352 88.7394C345.275 95.3145 347.552 101.794 347.011 108.512C346.676 112.699 345.212 116.695 343.763 120.628C341.741 126.136 339.958 131.82 337.41 137.105C335.675 140.719 333.908 144.428 333.781 148.504C333.653 152.293 335.038 155.859 336.423 159.314C338.063 163.437 339.56 167.449 337.697 171.764C335.914 175.887 332.953 179.66 330.533 183.417C328.16 187.079 325.406 190.533 325.772 195.119C325.932 197.029 326.537 198.844 326.887 200.722C327.412 203.54 327.062 206.295 326.345 209.033C324.228 217.025 319.07 225.462 322.524 233.868C323.766 236.893 326.218 239.552 329.259 240.826C333.096 242.433 335.755 240.666 339.257 239.297C343.237 237.737 345.689 241.606 348.157 244.073C350.577 246.493 353.427 248.085 356.834 248.658C364.747 250.012 372.261 246.477 379.203 243.198C383.278 241.271 387.482 239.329 391.971 238.644C396.811 237.896 400.648 239.663 405.17 240.937C412.127 242.879 418.591 239.249 421.234 232.595C424.179 225.176 420.836 216.929 415.757 211.309L415.725 211.341Z" fill="#67501B"/>
<path d="M359.493 75.3027C358.426 72.9943 356.627 71.052 354.302 70.0968C350.943 68.7117 347.122 69.4759 343.97 71.0202C343.492 71.259 343.03 71.5137 342.616 71.8639C341.566 72.7714 340.515 73.7903 340.085 75.1276C339.655 76.4649 339.687 77.8977 339.783 79.2987C340.069 83.5494 340.833 87.7523 341.677 91.9234C341.996 93.5155 342.33 95.1234 343.094 96.5562C343.874 98.0209 345.753 100.186 347.631 99.5015C348.491 99.1831 349.399 98.9761 350.243 98.594C358.139 95.1234 363.186 83.2947 359.508 75.3186L359.493 75.3027Z" fill="#EC9D74"/>
<path d="M373.36 100.998C377.388 93.7224 378.407 85.0618 377.436 76.8947C376.56 69.4918 374.665 62.0093 368.854 57.5039C367.724 56.1507 366.371 54.9726 364.715 54.097C359.779 51.5179 354.016 52.3776 349.287 55.0044C348.109 55.4979 346.963 56.1029 345.928 56.8193C344.209 57.9974 343.174 59.1755 342.378 60.7994C342.091 61.0223 341.789 61.2451 341.502 61.484C340.467 62.1048 339.496 62.8053 338.684 63.665C337.395 65.0501 336.662 66.7376 336.248 68.5207C333.717 73.8221 333.032 80.047 333.733 85.7942C334.529 92.4966 336.79 99.3423 340.563 105.01C342.633 108.114 345.371 110.996 349.001 112.206C351.66 113.097 354.494 112.874 356.961 111.728C361.276 112.063 365.431 110.009 368.743 106.904C368.886 106.777 369.029 106.634 369.173 106.49C369.3 106.363 369.443 106.22 369.571 106.092C369.857 105.806 370.128 105.519 370.383 105.201C371.529 103.88 372.548 102.447 373.36 100.966V100.998Z" fill="#DAD8D9"/>
<path d="M349.048 59.096C350.035 53.6991 348.157 47.5061 347.138 42.2206C344.813 30.2326 337.776 17.7671 328.479 9.39302C318.655 0.54136 303.992 -1.46459 291.335 0.923446C278.821 3.29556 266.101 10.0139 258.252 20.3939C255.625 23.8645 253.284 27.558 251.263 31.4266C250.785 32.3341 250.435 33.6395 251.294 34.1808C253.173 35.3749 257.87 31.2993 259.239 30.36C263.681 27.3351 267.55 23.4665 272.421 21.1422C275.255 19.7889 278.296 18.9611 281.321 18.1332C283.789 17.4646 286.272 16.78 288.804 16.382C291.51 15.9522 294.265 15.8407 297.019 15.8885C303.897 15.9999 310.902 17.1143 317 20.2825C319.69 21.6834 322.174 23.4506 324.642 25.2177C326.361 26.4436 328.096 27.6854 329.641 29.1341C331.599 30.949 333.255 33.0823 334.672 35.3271C336.168 37.6992 337.426 40.2305 338.604 42.7778C339.146 43.9559 339.798 45.134 340.037 46.3917C340.228 47.3469 340.817 48.2543 341.231 49.1299C341.948 50.6583 342.744 52.1707 343.396 53.715C344.065 55.2752 344.017 57.2174 344.988 58.6343C345.53 59.4303 346.628 60.5448 347.6 60.7358C348.38 60.895 348.825 60.2423 349.032 59.0801L349.048 59.096Z" fill="#DAD8D9"/>
<path d="M304.263 132.536C303.658 132.377 303.053 132.663 302.719 133.157C302.13 134.048 301.286 134.86 300.538 135.625C299.71 136.468 298.866 137.328 297.99 138.14C297.29 138.777 296.366 139.35 295.475 139.652C295.029 139.812 294.551 139.939 294.074 139.971C293.453 140.019 292.911 140.178 292.275 140.146C291.351 140.098 290.985 141.467 291.797 141.881C292.354 142.168 293.007 142.534 293.612 142.645C294.281 142.773 295.013 142.773 295.698 142.693C297.258 142.518 298.579 141.913 299.821 140.942C300.904 140.098 301.827 139.111 302.751 138.076C303.085 137.71 303.371 137.312 303.674 136.914C304.024 136.882 304.359 136.723 304.566 136.389C305.043 135.593 305.171 134.749 305.282 133.842C305.346 133.252 304.804 132.663 304.279 132.52L304.263 132.536Z" fill="#1F1F1F"/>
<path d="M287.896 126.98C286.766 127.951 285.11 127.505 284.028 126.709C282.642 125.674 283.136 124.082 283.231 122.586C283.407 119.895 283.582 117.189 283.598 114.483C283.63 109.229 283.343 103.975 282.515 98.7852C282.435 98.2916 281.592 98.4031 281.655 98.8966C282.515 105.902 282.308 112.938 281.91 119.975C281.815 121.678 281.592 123.414 281.576 125.117C281.56 126.216 281.894 126.916 282.738 127.585C284.553 129.002 287.259 130.244 289.059 128.126C289.743 127.33 288.708 126.295 287.912 126.98H287.896Z" fill="#1F1F1F"/>
<path d="M353.602 101.922C351.946 99.3743 349.956 97.1932 348.873 94.2957C347.727 91.2549 347.217 87.9913 347.074 84.7595C346.74 77.4203 347.695 69.6671 351.325 63.1716C351.787 62.3597 350.577 61.6592 350.067 62.4393C345.721 69.2691 344.256 77.6272 344.622 85.6351C344.877 91.5097 346.485 100.6 352.806 102.972C353.379 103.195 353.92 102.431 353.602 101.937V101.922Z" fill="#A6A4C2"/>
<path d="M363.107 61.3727C360.83 63.9199 359.747 67.0721 358.697 70.2721C358.139 71.9756 357.566 73.6631 357.041 75.3666C356.913 75.8124 356.754 76.2581 356.595 76.7198C356.499 76.4492 356.404 76.1785 356.308 75.9079C355.894 74.8094 354.271 74.9367 354.223 76.1944C354.016 80.6043 353.745 84.9983 353.49 89.4082C353.427 90.5704 355.21 90.5545 355.289 89.4082C355.496 86.7496 355.719 84.075 355.926 81.4163C356.404 82.0531 357.471 82.0053 357.916 81.3048C358.808 79.9675 359.206 78.1685 359.747 76.672C360.336 75.0482 360.862 73.4084 361.403 71.7845C362.422 68.7438 363.584 65.7667 365.113 62.9329C365.765 61.707 364.11 60.2742 363.123 61.3886L363.107 61.3727Z" fill="#A6A4C2"/>
<path d="M345.53 57.4562C345.323 56.9627 345.02 56.5169 344.654 56.1508C344.24 55.7527 343.747 55.498 343.189 55.3866C343.38 51.7249 341.136 47.5857 339.766 44.3539C338.158 40.533 336.296 36.8077 334.019 33.337C330.055 27.3351 324.864 21.9541 318.624 18.2924C311.809 14.2964 304.422 13.0069 296.589 13.4845C288.645 13.9621 281.034 14.9492 273.759 18.3561C269.635 20.2824 265.75 22.7182 262.041 25.3451C258.793 27.6376 255.083 30.0416 252.823 33.3689C252.6 33.6873 252.966 34.1808 253.348 34.0375C257.472 32.5251 260.942 29.2137 264.524 26.762C268.154 24.2943 271.928 22.0178 275.94 20.2347C280.525 18.1969 285.269 17.0506 290.253 16.5571C295.475 16.0317 300.888 15.4745 306.094 16.3661C314.962 17.8626 322.779 23.4665 328.096 30.5828C330.819 34.2286 333.032 38.2564 334.847 42.4275C335.834 44.6723 336.678 46.9648 337.442 49.2891C338.111 51.2951 338.493 53.5717 339.528 55.4503C339.607 56.2622 339.894 57.0264 340.324 57.7109C340.371 57.9975 340.419 58.2681 340.467 58.5547C339.91 59.3507 339.416 60.1786 338.986 60.8154C337.474 63.0283 336.105 65.3367 335.054 67.8203C333.096 72.4531 331.949 77.9933 334.051 82.7694C334.656 84.1545 337.012 83.454 336.917 81.9893C336.582 77.3406 336.917 73.0103 338.875 68.6959C339.83 66.6104 340.945 64.6203 342.186 62.6781C342.871 61.5955 344.081 60.29 344.686 58.9209C345.243 58.7458 345.753 58.0453 345.514 57.4403L345.53 57.4562Z" fill="#A6A4C2"/>
<path d="M347.138 155.366C342.967 146.769 345.355 136.516 350.258 128.699C350.8 127.824 349.526 126.805 348.809 127.585C342.664 134.431 340.849 143.235 342.186 152.214C342.584 154.856 342.935 157.499 343.635 160.094C344.304 162.625 345.211 165.093 345.673 167.672C346.581 172.91 345.02 176.572 341.088 179.979C337.601 182.987 334.72 185.885 333.446 190.454C332.109 195.278 332.507 200.42 332.666 205.339C332.825 210.131 332.825 215.433 330.357 219.7C328.224 223.377 324.817 226.338 323.272 230.334C322.859 231.401 323.893 232.356 324.849 232.404C328.16 232.595 331.79 230.732 334.099 228.488C336.98 225.701 338.763 222.04 339.559 218.123C341.167 210.195 338.763 202.283 339.225 194.323C339.448 190.327 341.12 187.795 344.065 185.216C346.756 182.86 349.319 180.568 350.672 177.177C353.586 169.821 350.37 161.989 347.154 155.35L347.138 155.366Z" fill="#775D25"/>
<path d="M374.968 175.68C373.996 168.293 370.908 161.161 367.564 154.554C366.514 152.5 363.616 154.299 364.508 156.337C367.771 163.772 371.561 171.334 371.656 179.644C371.704 183.767 370.51 187.461 369.109 191.282C367.803 194.864 366.896 198.35 366.339 202.108C365.813 205.626 366.323 209.128 364.571 212.392C362.932 215.433 360.512 217.805 359.461 221.196C357.773 226.625 359.365 232.627 361.546 237.912C359.477 237.546 357.662 236.145 356.356 234.298C354.048 231.019 354.175 226.88 355.019 223.122C356.834 214.987 360.527 207.298 362.597 199.194C366.561 183.592 367.294 166.653 362.295 151.195C361.53 148.854 357.837 149.841 358.585 152.214C364.285 170.538 360.639 189.817 354.716 207.616C352.073 215.56 347.281 224.603 350.052 233.152C352.153 239.632 359.079 245.092 366.052 242.688C367.724 242.099 368.345 240.459 367.596 238.883C365.941 235.397 364.094 231.894 363.33 228.089C362.486 223.95 363.441 220.527 365.829 217.152C367.771 214.398 369.077 211.819 369.507 208.428C369.969 204.671 369.586 201.041 370.669 197.411C371.72 193.909 373.407 190.645 374.347 187.095C375.334 183.369 375.461 179.517 374.968 175.712V175.68Z" fill="#775D25"/>
<path d="M406.077 232.706C405.679 230.334 405.01 227.978 404.294 225.685C402.957 221.403 401.126 217.423 399.056 213.459C396.923 209.399 394.63 205.387 391.748 201.805C388.66 197.968 384.25 195.055 382.992 190.072C381.766 185.184 382.355 179.787 382.132 174.772C381.893 169.487 381.368 164.217 380.62 158.98C379.044 147.963 376.257 137.169 372.42 126.741C371.577 124.433 367.851 125.436 368.711 127.76C372.468 138.044 375.207 148.663 376.767 159.505C377.595 165.268 378.104 171.079 378.263 176.89C378.391 181.618 377.913 186.506 379.012 191.17C380.126 195.819 383.247 198.78 386.383 202.139C389.631 205.626 392.322 209.685 394.041 214.143C395.697 218.426 396.556 223.09 397.575 227.548C398.117 229.904 398.578 232.292 399.231 234.601C399.55 235.715 399.82 236.989 400.298 238.039C400.775 239.122 401.667 239.823 402.161 240.873C403.1 242.863 406.013 241.749 406.077 239.807C406.109 238.549 406.634 237.594 406.555 236.288C406.491 235.094 406.268 233.868 406.077 232.69V232.706Z" fill="#775D25"/>
<path d="M258.57 136.962C254.256 131.342 248.843 145.097 248.222 147.804C246.423 155.684 247.808 165.252 242.665 172.034C238.446 177.622 230.661 178.721 224.356 180.504C217.351 182.478 210.712 185.503 206.971 192.094C204.646 196.201 203.452 200.882 202.879 205.53C202.545 208.205 202.417 210.816 202.354 213.491C202.274 216.436 201.462 219.461 201.685 222.374C201.812 224.093 203.93 224.269 204.567 222.756C205.379 220.814 205.586 218.665 206.079 216.611C206.621 214.382 207.417 212.249 207.99 210.036C208.977 206.183 209.502 202.203 210.728 198.43C212.989 191.537 218.163 188.257 224.77 186.155C230.581 184.293 236.918 183.115 242.013 179.549C247.824 175.473 250.005 169.328 250.642 162.482C251.04 158.231 250.753 153.917 251.326 149.682C251.613 147.644 252.043 145.623 252.807 143.712C252.998 143.25 255.147 139.398 256.118 138.618C256.628 139.191 257.726 139.35 258.347 138.554C258.427 138.458 258.507 138.363 258.57 138.251C258.825 137.917 258.825 137.248 258.57 136.93V136.962Z" fill="#775D25"/>
<path d="M263.442 152.389C263.347 151.577 262.121 151.529 262.137 152.389C262.312 161.559 257.567 170.219 252.202 177.368C249.352 181.173 246.104 184.627 242.809 188.034C239.975 190.979 237.141 194.1 235.644 197.968C234.052 202.06 234.896 205.722 236.249 209.717C236.854 211.469 237.81 213.443 237.746 215.337C237.698 217.248 236.568 218.84 235.374 220.257C229.626 227.134 223.147 234.394 223.767 243.962C223.943 246.668 228.146 248.515 229.467 245.506C231.314 241.303 232.651 236.798 235.071 232.866C237.364 229.14 240.803 226.306 243.032 222.549C245.34 218.649 245.388 214.462 243.477 210.386C241.535 206.263 239.115 203.206 241.36 198.557C243.271 194.609 246.614 191.537 249.432 188.241C252.377 184.786 255.147 181.141 257.504 177.256C262.137 169.614 264.413 161.32 263.442 152.405V152.389Z" fill="#775D25"/>
<path d="M286.639 197.252C279.252 185.98 275.622 173.037 275.638 159.569C275.638 156.735 271.275 156.735 271.227 159.569C271.196 161.511 271.259 163.437 271.355 165.364C270.049 164.345 267.741 164.934 267.566 167.115C267.279 170.665 265.544 173.913 264.7 177.336C263.84 180.854 264.175 184.261 264.907 187.763C265.671 191.473 266.849 195.087 267.008 198.892C267.152 202.33 266.69 205.753 265.655 209.033C264.668 212.169 263.172 215.162 261.229 217.821C259.207 220.575 256.437 222.645 254.335 225.335C251.247 229.283 250.18 235.174 254.749 238.406C255.943 239.25 257.233 237.435 256.262 236.432C251.119 231.146 261.213 224.603 264.063 221.116C267.725 216.643 270.209 211.294 271.164 205.578C272.23 199.274 270.973 193.67 269.731 187.525C268.951 183.656 269.11 180.185 270.368 176.428C270.973 174.597 271.546 172.862 271.896 171.063C272.979 179.119 275.271 186.904 278.535 194.53C279.697 197.252 281.194 199.927 282.006 202.776C282.818 205.594 282.452 208.301 281.544 211.039C280.653 213.761 278.981 216.07 277.325 218.362C276.497 219.508 275.51 220.591 274.746 221.769C273.902 223.075 273.743 224.507 273.17 225.94C272.278 228.185 275.128 229.697 276.911 228.806C278.408 228.058 279.729 227.771 281.003 226.593C282.149 225.542 283.2 224.253 284.155 223.043C286.082 220.623 287.594 217.9 288.693 215.003C291.049 208.858 290.157 202.665 286.607 197.236L286.639 197.252Z" fill="#775D25"/>
<path d="M286.066 32.2862C284.442 35.4703 282.738 38.6225 281.146 41.8384C280.493 43.1598 279.904 44.5607 279.092 45.8025C278.026 47.4264 276.975 47.7926 275.16 48.3498C272.724 49.098 270.861 50.6104 269.715 52.903C269.19 53.9855 268.807 55.1477 268.585 56.3258C268.33 57.6313 268.489 59.3188 268.011 60.5447C266.801 63.6173 261.452 61.8979 259.048 62.0889C256.373 62.2959 253.826 63.2989 251.708 64.9227C247.601 68.0909 244.99 74.2361 247.983 78.9803C248.508 79.8082 249.639 79.4102 249.734 78.5027C250.037 75.6689 250.323 72.5167 251.963 70.0809C253.555 67.7247 256.23 66.1486 259.064 65.862C262.041 65.5595 265.002 66.5944 267.9 65.464C270.113 64.6043 271.498 62.869 271.88 60.5128C272.278 57.9815 272.215 55.2273 274.014 53.1736C275.733 51.1995 278.806 51.4542 280.668 49.4642C282.404 47.6015 283.168 44.8951 284.091 42.5866C285.365 39.4026 286.48 36.1708 287.706 32.9549C288.056 32.0156 286.543 31.3947 286.097 32.2703L286.066 32.2862Z" fill="#775D25"/>
<path d="M330.915 70.1288C329.737 67.9955 328.75 65.6552 327.635 63.3786C328.367 63.0602 328.941 62.3438 328.766 61.3408C327.985 56.724 323.957 53.6673 320.248 51.2952C318.321 50.0693 316.331 48.9071 314.644 47.3469C312.892 45.7231 312.24 43.4465 310.616 41.7908C309.135 40.2943 307.241 40.0236 305.235 40.2624C303.037 40.5331 300.809 41.2336 299.344 39.0843C296.621 35.0883 298.07 28.561 299.503 24.3899C300.044 22.7979 297.608 22.193 297.019 23.7054C295.284 28.179 294.138 33.8147 295.602 38.5271C296.144 40.2784 297.131 41.9977 298.723 43.0007C300.633 44.1947 302.719 43.94 304.852 43.6534C306.078 43.4942 307.336 43.2395 308.275 44.2425C309.119 45.1499 309.533 46.5032 310.25 47.5061C311.539 49.337 313.243 50.7698 315.058 52.0593C315.456 52.3459 315.87 52.6165 316.284 52.8872C315.105 52.7598 313.975 52.9668 312.813 53.0145C311.03 53.1101 310.855 52.5369 309.852 51.2156C308.498 49.4325 306.365 48.7638 304.2 48.7161C301.27 48.6524 297.815 50.4036 295.141 48.6046C289.68 44.9111 293.23 36.3779 293.214 31.2357C293.214 30.4237 292.116 30.1372 291.702 30.8217C290.094 33.4486 289.696 36.951 289.489 39.9759C289.298 42.7619 289.489 45.6912 290.906 48.1589C292.052 50.1648 293.915 51.725 296.191 52.2185C299.28 52.9031 302.432 51.2156 305.457 52.0275C308.037 52.728 308.037 55.928 310.918 56.4692C313.609 56.9787 315.997 55.8643 318.528 57.3926C323.814 60.5767 324.499 67.7249 328.176 72.2303C329.482 73.8223 331.886 71.7845 330.947 70.097L330.915 70.1288Z" fill="#775D25"/>
<path d="M274.443 26.937C272.82 31.8086 271.275 36.7917 269.349 41.5677C268.999 42.4274 268.728 43.112 267.741 43.112C266.69 43.112 265.862 42.8732 264.875 43.3826C262.949 44.3697 261.627 46.7418 260.306 48.3816C259.924 48.8592 259.526 49.3527 259.144 49.8303C258.937 50.101 258.459 50.9925 258.109 51.104C257.488 51.3109 256.023 50.5149 255.323 50.3875C253.555 50.0851 251.74 50.1806 250.037 50.7219C246.55 51.8204 243.828 54.3358 242.793 57.8701C242.172 59.9875 245.197 60.6561 245.993 58.7457C247.267 55.689 250.769 53.5875 254.049 53.8422C255.959 54.0014 257.743 55.4183 259.653 54.4154C260.608 53.9059 261.213 52.9189 261.866 52.091C262.694 51.0403 263.538 49.9895 264.366 48.9388C264.891 48.2861 265.576 46.9169 266.34 46.5667C267.12 46.2005 268.346 46.6941 269.237 46.3916C271.005 45.8025 271.864 44.0513 272.39 42.4115C273.934 37.5081 275.017 32.4454 276.402 27.4942C276.768 26.2206 274.841 25.7112 274.428 26.953L274.443 26.937Z" fill="#775D25"/>
<path d="M329.514 46.9488C328.606 45.4682 327.078 44.4015 325.884 43.1598C324.674 41.9021 323.559 40.5648 322.477 39.1956C320.264 36.3618 318.242 33.3847 316.029 30.5509C315.074 29.341 314.071 28.1151 312.654 27.4306C311.205 26.7301 309.565 26.9848 308.084 26.4117C305.41 25.3769 303.34 21.954 303.802 19.0884C303.929 18.2923 302.846 17.958 302.576 18.754C301.557 21.6674 302.162 24.7241 304.375 26.953C305.394 27.9878 306.683 28.7679 308.084 29.134C308.96 29.3569 309.899 29.3251 310.759 29.5798C311.746 29.8823 312.415 30.5191 313.083 31.2833C315.647 34.2285 317.716 37.6036 320.089 40.6921C321.219 42.1727 322.397 43.6215 323.671 44.9747C324.96 46.3438 326.393 47.9677 328.24 48.5408C329.148 48.8274 329.96 47.7448 329.482 46.9329L329.514 46.9488Z" fill="#775D25"/>
<path d="M250.626 115.724C250.514 115.008 249.559 114.896 249.129 114.482C248.238 113.591 247.856 111.808 247.442 110.646C246.598 108.226 245.961 105.742 245.563 103.211C244.719 97.8777 244.942 92.2897 245.722 86.9564C245.85 86.0489 244.624 85.6668 244.321 86.5743C242.443 92.1941 242.22 98.021 243.143 103.88C243.589 106.745 244.337 109.563 245.34 112.285C245.961 113.941 247.283 118.128 249.814 117.125C250.435 116.886 250.706 116.409 250.594 115.74L250.626 115.724Z" fill="#A6A4C2"/>
<path d="M355.99 491.442C351.389 490.582 346.31 491.171 341.661 491.347C336.248 491.553 330.74 491.267 325.295 491.347C314.819 491.49 304.343 491.697 293.867 491.856C283.407 492.031 272.947 492.19 262.487 492.493C252.17 492.795 241.901 492.588 231.569 492.493C230.805 492.493 230.614 493.655 231.394 493.846C241.121 496.202 251.438 496.138 261.389 496.154C272.04 496.17 282.675 495.963 293.31 495.788C303.786 495.629 314.262 495.47 324.738 495.295C329.991 495.199 335.229 494.913 340.451 494.769C345.53 494.642 350.991 495.311 355.99 494.212C357.343 493.91 357.391 491.681 355.99 491.426V491.442Z" fill="#727292"/>
<path d="M295.618 503.669C292.832 521.563 291.734 539.664 290.619 557.686C289.505 575.708 288.725 593.761 288.088 611.799C286.814 647.811 285.827 683.822 284.92 719.85C284.41 740.164 284.012 760.494 283.917 780.824C283.917 783.419 288.725 783.419 288.741 780.824C288.916 744.797 290.046 708.785 290.969 672.758C291.909 636.698 292.641 600.623 294.599 564.596C295.698 544.265 297.704 523.999 298.962 503.685C299.073 501.838 295.889 501.949 295.618 503.685V503.669Z" fill="#727292"/>
<path d="M319.659 498.686C319.627 497.906 318.321 497.651 318.162 498.495C316.522 507.41 316.156 516.469 315.551 525.495C314.93 534.841 314.341 544.186 313.816 553.531C312.781 571.807 311.874 590.1 311.109 608.408C309.549 645.407 308.514 682.421 307.925 719.452C307.766 729.625 307.639 739.798 307.543 749.971C307.495 755.256 307.463 760.542 307.448 765.843C307.432 770.81 306.795 776 308.626 780.713C308.944 781.525 310.043 781.525 310.361 780.713C311.889 776.685 311.523 772.514 311.507 768.279C311.491 763.392 311.475 758.52 311.475 753.633C311.475 744.478 311.507 735.324 311.571 726.17C311.698 707.655 311.953 689.14 312.415 670.64C313.306 634.04 314.739 597.439 316.682 560.87C317.223 550.713 317.796 540.556 318.385 530.399C319.006 519.876 320.136 509.273 319.675 498.718L319.659 498.686Z" fill="#727292"/>
<path d="M310.09 559.756C309.963 559.31 309.772 558.88 309.565 558.466C309.517 558.387 309.469 558.323 309.421 558.243C309.198 557.925 308.96 557.607 308.705 557.32C308.036 556.62 307.24 556.222 306.349 555.903C306.205 555.855 306.046 555.824 305.887 555.792C305.425 555.728 304.916 555.617 304.438 555.664C303.865 555.712 303.292 555.808 302.75 555.999C302.512 556.031 302.289 556.078 302.066 556.142C301.206 556.429 300.378 556.89 299.773 557.591C299.534 557.877 299.184 558.275 298.993 558.657C298.882 558.848 298.802 559.071 298.722 559.278C298.627 559.501 298.516 559.724 298.452 559.963C298.324 560.409 298.293 560.87 298.245 561.316C298.229 561.491 298.229 561.666 298.245 561.841C298.34 562.844 298.516 563.609 298.993 564.5C299.455 565.36 300.124 565.917 300.888 566.474C301.254 566.745 301.763 566.904 302.161 567.079C302.336 567.143 302.496 567.207 302.671 567.238C303.133 567.334 303.626 567.414 304.12 567.414C304.613 567.414 305.123 567.334 305.6 567.238C305.775 567.207 305.935 567.159 306.094 567.095C306.508 566.936 307.017 566.761 307.415 566.49C308.243 565.933 308.864 565.344 309.389 564.5C309.644 564.102 309.803 563.656 309.963 563.227C310.042 563.035 310.09 562.86 310.122 562.653C310.297 561.619 310.345 560.791 310.074 559.756H310.09Z" fill="#727292"/>
<path d="M298.436 481.301C298.404 479.804 298.404 478.308 298.309 476.811C298.197 475.251 298.134 473.691 297.943 472.147C297.768 470.682 297.847 469.026 297.401 467.625C296.971 466.288 295.109 466.288 294.679 467.625C294.233 469.026 294.313 470.682 294.122 472.147C293.931 473.691 293.851 475.251 293.74 476.811C293.628 478.308 293.628 479.804 293.596 481.301C293.58 482.017 293.564 482.734 293.58 483.45C293.58 483.816 293.58 484.166 293.628 484.533C293.692 485.122 293.899 485.599 294.058 486.14C294.599 488.067 297.401 488.051 297.959 486.14C298.213 485.265 298.42 484.548 298.436 483.625C298.452 482.845 298.436 482.065 298.436 481.285V481.301Z" fill="#727292"/>
<path d="M257.917 469.313C257.631 468.565 256.851 468.374 256.23 468.867C255.991 469.058 255.784 469.313 255.625 469.584C255.609 469.52 255.593 469.44 255.577 469.361C255.163 467.928 253.539 466.893 252.059 467.371C250.801 467.769 250.037 468.883 250.021 470.125C249.973 471.653 250.244 473.197 250.514 474.71C250.753 476.063 250.976 477.4 251.31 478.738C251.342 478.833 251.406 478.913 251.438 479.008C251.581 480.202 251.708 481.412 251.82 482.638C251.867 483.068 252.027 483.466 252.265 483.8C252.265 483.848 252.266 483.896 252.25 483.944C252.218 484.214 252.186 484.389 252.154 484.564C252.043 485.52 252.998 486.395 253.874 486.507C254.781 486.618 255.848 486.077 256.039 485.09C256.58 482.399 257.058 479.661 257.105 476.939C257.296 475.697 257.503 474.455 257.663 473.213C257.822 471.956 258.379 470.507 257.917 469.313Z" fill="#727292"/>
<path d="M315.599 470.746C314.548 469.408 312.717 468.676 311.029 469.185C309.485 469.647 308.116 470.65 306.97 471.765C306.397 472.322 305.919 472.974 305.457 473.627C305.394 473.723 305.33 473.818 305.266 473.914C305.091 474.28 304.932 474.662 304.789 475.044C304.582 475.824 304.582 476.588 304.789 477.353C304.884 477.83 305.075 478.212 305.282 478.69C305.632 479.279 306.094 479.741 306.683 480.091C307.209 480.393 307.766 480.537 308.355 480.584C308.482 480.632 308.594 480.712 308.737 480.759C309.708 481.078 310.791 481.094 311.746 480.775C311.921 480.807 312.08 480.871 312.255 480.871C313.863 480.935 315.599 479.932 316.665 478.801C317.716 477.703 318.592 476.159 318.465 474.582C318.321 472.752 317.207 471.43 315.567 470.73L315.599 470.746Z" fill="#727292"/>
<path d="M229.579 502.331C227.875 510.976 224.691 519.382 220.774 527.247C218.896 531.02 216.746 534.681 214.358 538.168C211.779 541.941 208.643 545.141 205.825 548.675C205.076 549.615 205.745 551.047 207.035 550.745C211.047 549.806 213.737 545.045 216.014 541.861C218.784 537.993 221.236 533.917 223.369 529.666C227.636 521.181 230.088 512.202 231.457 502.841C231.632 501.631 229.833 501.074 229.579 502.331Z" fill="#727292"/>
<path d="M331.742 243.468C326.711 261.506 321.266 279.321 313.959 296.53C309.803 288.65 306.922 280.196 304.804 271.488C303.435 265.852 302.305 260.169 301.349 254.453C300.41 248.881 300.474 242.067 296.812 237.514C295.857 236.32 293.437 236.622 292.816 238.023C290.428 243.42 292.291 250.091 293.134 255.711C294.058 261.92 295.108 268.129 296.621 274.242C299.55 286.166 303.961 297.82 310.791 308.088C312.988 311.4 317.27 310.476 318.671 307.054C326.839 287.106 334.258 266.521 338.684 245.379C339.623 240.905 333.016 238.995 331.774 243.468H331.742Z" fill="#79070C"/>
<path d="M295.554 445.257C293.214 440.004 289.552 435.26 285.381 430.961C285.922 429.656 285.811 428.08 284.633 426.806C273.615 414.802 257.886 408.928 246.12 397.831C239.911 391.972 234.275 385.397 228.83 378.854C225.853 375.288 223.767 372.088 222.398 367.583C221.14 363.427 220.36 359.129 219.278 354.926C218.927 353.589 216.905 353.891 216.889 355.244C216.746 364.017 218.29 372.566 222.064 380.542C223.958 384.554 226.84 388.008 229.738 391.336C231.712 393.596 233.702 395.825 235.74 398.038C235.405 398.85 235.501 399.805 236.377 400.585C245.181 408.545 254.303 415.996 263.967 422.746C257.535 419.228 250.865 416.171 244.003 413.544C242.172 412.844 240.58 415.614 242.06 416.872C246.12 420.279 250.307 423.479 254.654 426.488C256.341 427.666 257.87 425.389 256.93 423.924C269.412 430.484 281.273 438.873 290.332 449.253C293.007 452.31 296.955 448.41 295.538 445.242L295.554 445.257Z" fill="#79070C"/>
<path d="M341.343 435.26C335.245 428.987 327.683 424.004 320.55 418.989C313.258 413.863 305.505 409.771 297.688 405.505C296.016 404.597 294.153 406.428 294.822 407.956C294.44 407.749 294.058 407.526 293.676 407.304C288.024 404.263 282.197 402.082 276.195 399.901C274.905 399.439 274.411 401.238 275.335 401.938C280.175 405.568 284.856 409.357 289.855 412.812C294.949 416.33 300.155 419.658 305.25 423.176C315.296 430.117 325.056 437.457 334.401 445.321C337.952 448.298 342.998 443.697 340.292 440.418C342.075 439.574 343.046 437.011 341.327 435.244L341.343 435.26Z" fill="#79070C"/>
<path d="M403.195 315.269C402.479 311.75 401.921 308.216 401.285 304.698C399.931 297.342 398.881 289.971 398.498 282.505C398.132 275.341 398.053 268.176 398.323 261.012C398.451 257.43 398.721 253.864 398.96 250.282C399.199 246.827 399.613 243.341 398.992 239.902C398.865 239.17 397.702 239.027 397.384 239.695C394.423 245.809 394.502 253.816 394.088 260.471C393.627 267.985 393.547 275.516 393.85 283.046C394.136 290.369 394.534 297.693 395.266 304.984C395.633 308.646 396.269 312.276 396.922 315.889C397.607 319.678 398.26 322.767 400.664 325.824C401.507 326.906 403.466 326.269 403.736 325.012C404.485 321.589 403.911 318.691 403.211 315.269H403.195Z" fill="#79070C"/>
<path d="M431.359 385.732C420.963 371.674 406.459 361.342 396.636 346.807C394.057 342.986 391.748 338.99 389.678 334.866C387.927 331.348 386.701 326.078 383.31 323.834C382.785 323.483 382.116 323.834 381.941 324.391C380.842 327.814 383.039 331.587 384.377 334.675C385.953 338.321 387.847 341.839 389.885 345.246C394.168 352.363 399.31 358.922 405.106 364.86C411.187 371.101 417.747 376.864 423.367 383.566C428.589 389.807 433.047 396.685 436.708 403.944C440.959 412.382 443.634 421.345 446.452 430.324C447.073 432.282 450.48 432.059 450.241 429.815C448.538 413.99 440.752 398.436 431.375 385.747L431.359 385.732Z" fill="#CB7A55"/>
<path d="M470.572 468.119C469.299 466.829 467.404 467.164 465.796 467.419C464.283 467.673 462.851 468.151 461.45 468.756C460.049 469.361 458.632 470.22 457.947 471.669C457.804 471.956 457.724 472.258 457.644 472.577C456.673 472.609 455.686 472.545 454.699 472.37C452.773 472.019 452.04 474.614 453.887 475.299C455.479 475.888 457.151 476.159 458.839 476.206C459.189 476.477 459.587 476.7 460.08 476.827C460.733 476.987 461.338 476.939 461.975 476.891C462.023 476.955 462.039 477.034 462.086 477.082C462.707 477.83 463.917 477.91 464.729 477.448C465.621 476.923 466.098 475.888 466.098 474.885C467.149 474.344 468.184 473.771 469.123 473.086C469.776 472.609 470.524 472.115 470.954 471.399C471.559 470.364 471.4 468.979 470.556 468.135L470.572 468.119Z" fill="#CB7A55"/>
<path d="M187.707 251.269C181.609 261.474 177.231 272.889 172.327 283.683C171.181 286.214 169.859 288.73 168.888 291.325C168.363 292.742 168.299 294.238 167.805 295.655C167.216 297.311 166.038 298.696 165.226 300.24C162.552 305.366 160.339 310.779 157.998 316.081C155.658 321.398 153.302 326.715 150.977 332.033C148.716 337.191 146.79 342.667 144.131 347.635C141.377 352.761 135.948 350.739 132.143 347.969C128.768 345.501 125.361 342.285 120.919 342.253C120.075 342.253 119.518 343.4 120.202 344.005C125.472 348.653 130.996 355.197 138.511 355.706C147.459 356.327 149.895 345.947 152.665 339.483C156.597 330.361 160.546 321.223 164.351 312.037C165.274 309.792 166.229 307.547 167.121 305.287C168.14 302.724 168.729 300.017 169.78 297.518C170.687 295.337 172.247 293.553 173.187 291.356C174.206 288.937 175.193 286.517 176.18 284.097C180.558 273.478 185.685 262.811 188.853 251.763C189.044 251.078 188.089 250.68 187.722 251.285L187.707 251.269Z" fill="#CB7A55"/>
<path d="M186.354 412.223C184.045 413.576 182.31 415.757 180.367 417.572C178.457 419.355 176.626 420.995 174.922 422.969C173.012 425.198 171.149 427.458 169.302 429.735C168.108 431.2 166.739 433.731 164.94 434.495C163.157 435.259 160.307 434.623 158.397 434.479C155.722 434.272 153.063 433.89 150.42 433.397C145.676 432.473 140.995 431.152 136.442 429.528C126.889 426.105 117.974 421.409 109.36 416.06C104.918 413.305 100.636 410.281 96.1938 407.526C94.1241 406.237 92.0703 404.931 89.9688 403.69C87.5329 402.257 84.9537 401.302 82.486 399.98C81.8651 399.646 81.2442 400.442 81.7377 400.951C83.1865 402.448 84.3328 404.183 85.8453 405.648C87.5807 407.335 89.3956 408.959 91.2584 410.503C94.5381 413.242 97.9133 415.789 101.416 418.241C108.612 423.287 116.159 427.872 124.071 431.725C131.681 435.435 139.785 438.284 148.08 439.956C152.124 440.768 156.263 441.325 160.387 441.548C164.431 441.771 168.092 441.532 171.07 438.475C174.429 435.021 177.326 430.897 180.272 427.06C181.959 424.864 183.281 422.555 184.73 420.215C186.035 418.113 187.627 416.123 188.423 413.767C188.821 412.589 187.388 411.602 186.369 412.191L186.354 412.223Z" fill="#CB7A55"/>
<path d="M408.417 605.192C403.402 604.571 398.769 603.345 396.413 598.378C395.155 595.736 394.725 592.727 394.264 589.877C393.706 586.422 393.197 582.952 392.672 579.497C390.682 566.363 388.453 553.26 386.176 540.174C381.575 513.683 376.767 487.239 371.959 460.78C369.204 445.655 366.546 430.531 363.887 415.391C363.457 412.923 359.763 413.99 360.145 416.426C368.95 472.768 376.592 529.332 386.701 585.467C387.927 592.281 388.373 600.018 393.181 605.431C396.922 609.65 403.609 612.691 409.166 610.732C412.318 609.634 411.538 605.558 408.417 605.176V605.192Z" fill="#BF9A7C"/>
</g>
<defs>
<clipPath id="clip0_1177_1926">
<rect width="502" height="1236" fill="white"/>
</clipPath>
</defs>
</svg>
