<svg width="580" height="718" viewBox="0 0 580 718" fill="none" xmlns="http://www.w3.org/2000/svg">
<g clip-path="url(#clip0_1177_1038)">
<path d="M113.396 527.661C113.396 527.661 99.7846 537.327 81.5497 546.465C61.2873 556.606 36.0235 566.231 32.4685 564.279C30.4138 561.622 56.6238 548.146 56.6238 548.146C56.6238 548.146 19.6811 564.862 15.8151 560.022C14.9095 558.748 43.3093 542.316 43.3093 542.316C43.3093 542.316 8.678 554.436 2.04101 554.016C-2.0277 553.759 7.66422 543.17 37.578 534.846C28.1564 534.453 -1.16256 541.598 -7.29534e-05 539.93C2.47359 527.973 47.9728 521.452 53.9474 515.093C59.9221 508.749 21.2761 510.362 23.5335 507.406C22.7225 503.312 50.6627 500.506 65.9913 497.645C82.3067 494.608 98.2571 498.865 105.638 496.574C113.018 494.283 113.369 527.661 113.369 527.661H113.396Z" fill="#DE7F4C"/>
<path d="M105.678 496.561C129.076 483.641 213.789 414.865 237.999 422.389C262.208 429.913 308.208 461.488 272.008 475.845C235.795 490.189 127.008 527.01 113.41 527.661C97.8515 528.407 105.678 496.574 105.678 496.574V496.561Z" fill="#DE7F4C"/>
<path d="M348.557 116.917C346.327 134.244 351.679 161.792 344.84 169.492C338 177.193 301.071 191.116 301.071 191.116C301.071 191.116 345.975 206.897 381.809 200.633C417.644 194.384 451.221 178.4 451.221 178.4L407.492 156.722L387.649 111.779L348.57 116.904L348.557 116.917Z" fill="#FFC3A4"/>
<path d="M535.65 481.133C535.988 482.719 536.299 484.332 536.61 485.945C544.22 526.292 543.328 572.807 543.328 579.287C543.328 585.767 532.771 734.219 535.65 785.208C538.529 836.21 542.26 1029.56 540.584 1048.1C539.948 1055.16 476.228 1067.39 472.389 1048.79C467.009 1022.73 426.403 715.917 419.563 641.826C412.724 567.736 400.626 482.095 412.007 477.282L535.65 481.133Z" fill="#EBA654"/>
<path d="M321.265 479.262C310.195 534.345 295.92 728.118 292.082 775.853C288.243 823.588 289.851 1049.17 292.73 1053.98C295.61 1058.79 356.546 1065.83 358.654 1053.98C360.817 1041.86 394.462 823.209 401.085 791.566C410.006 748.983 468.928 505.59 452.478 483.844C436.027 462.098 321.252 479.262 321.252 479.262H321.265Z" fill="#EBA654"/>
<path d="M344.839 169.492C355.748 168.882 385.919 185.531 398.652 178.413C411.399 171.296 431.972 161.67 431.972 161.67C431.972 161.67 469.253 164.002 482.865 174.197C500.626 187.51 513.089 220.847 523.16 264.637C533.23 308.427 524.592 304.089 532.27 345.465C539.948 386.842 555.29 439.769 553.857 457.57C552.425 475.371 536.582 487.884 535.623 495.585C534.663 503.285 511.643 509.06 491.489 509.06C471.334 509.06 430.08 497.035 409.939 502.811C389.784 508.586 327.902 515.798 315.439 502.811C302.963 489.823 315.912 398.881 315.439 365.693C314.966 332.491 285.215 201.826 297.691 191.143C310.168 180.46 344.826 169.52 344.826 169.52L344.839 169.492Z" fill="#D27546"/>
<path d="M489.596 180.42C518.861 193.163 532.96 242.159 553.979 290.274C574.985 338.402 583.298 359.565 578.824 380.741C574.35 401.918 558.994 427.568 541.719 431.418C524.444 435.268 525.714 487.233 494.057 402.555C462.399 317.876 477.012 174.956 489.583 180.433L489.596 180.42Z" fill="#D27546"/>
<path d="M301.07 191.103C285.377 193.936 275.009 206.246 266.696 226.121C258.383 246.01 247.501 340.314 237.269 354.427C227.036 368.54 206.111 403.273 191.851 412.167C173.9 423.365 174.9 437.275 171.696 444.243C165.33 458.099 159.139 454.913 161.707 474.151C164.262 493.402 179.699 510.064 179.699 510.064C179.699 510.064 205.922 503.258 207.842 501.984C209.761 500.696 229.591 518.022 257.734 504.546C285.877 491.07 307.626 420.505 319.143 385.866C330.66 351.227 344.731 349.302 347.921 311.45C351.125 273.599 347.921 182.643 301.07 191.103Z" fill="#D27546"/>
<path d="M517.807 329.549C490.732 334.145 463.44 337.616 436.527 343.134C405.6 349.492 374.537 355.362 343.299 359.985C339.676 360.527 336.026 361.151 332.363 361.558C333.35 361.382 326.929 361.721 325.834 361.734C323.009 361.761 320.225 361.571 317.413 361.395C317.264 361.395 317.156 361.382 317.034 361.368C316.44 361.26 315.845 361.151 315.25 361.043C314.642 352.027 312.749 338.727 310.357 323.448C316.764 324.845 323.32 325.753 330.119 325.902C347.624 326.268 364.751 321.008 380.944 314.921C387.852 312.331 394.718 309.566 401.747 307.275C405.356 306.109 409.006 305.024 412.683 304.116C413.845 303.831 420.415 302.774 419.293 302.774C444.705 300.415 470.226 305.539 495.584 306.719C506.804 307.234 517.915 306.841 528.648 305.119C528.702 311.627 528.567 317.863 529.607 327.448C525.687 328.166 521.754 328.858 517.834 329.522L517.807 329.549Z" fill="#F3D5B6"/>
<path d="M490.515 448.609C486.487 449.409 482.445 450.087 478.404 450.751C477.512 450.9 476.849 451.008 476.322 451.09C474.524 451.32 472.727 451.537 470.929 451.74C463.251 452.595 455.533 453.178 447.814 453.557C431.323 454.343 414.805 454.086 398.341 453.015C369.657 451.13 342.46 455.957 313.979 458.533C312.722 458.641 311.452 458.75 310.195 458.845C310.56 446.575 311.452 433.059 312.398 419.908C315.926 420.288 319.467 420.532 322.995 420.613C339.027 421.006 355.437 417.4 371.239 414.878C402.423 409.889 433.243 403.273 464.278 397.579C489.704 392.902 515.347 389.445 540.678 384.822C544.301 400.67 547.95 416.18 550.519 429.208C532.162 438.265 513.049 444.176 490.529 448.622L490.515 448.609Z" fill="#F3D5B6"/>
<path d="M518.537 247.541C507.345 248.518 496.098 248.043 484.92 247.175C458.574 245.115 432.756 241.427 406.398 245.521C393.205 247.569 380.769 252.3 368.333 257.018C361.304 259.675 354.275 262.346 347.043 264.407C343.515 265.41 339.838 266.44 336.162 266.983C336.378 266.82 330.849 267.05 330.106 267.037C328.606 266.996 327.119 266.888 325.618 266.766C325.632 266.725 324.645 266.535 322.55 266.183C319.535 265.369 316.481 264.732 313.48 263.837C308.951 262.495 304.504 260.909 300.084 259.241C296.029 231.951 293.298 207.521 295.353 196.566C323.915 196.119 352.423 193.245 381.201 190.642C405.195 188.473 429.296 186.737 453.411 187.551C465.103 187.944 475.417 188.906 483.014 190.249C488.366 191.198 493.652 192.364 498.896 193.733C506.655 207.331 513.184 225.701 518.916 247.406C518.442 247.501 518.253 247.569 518.524 247.555L518.537 247.541Z" fill="#F3D5B6"/>
<path d="M531.987 244.179C529.729 244.871 527.526 245.657 525.228 246.24C524.066 246.538 517.415 247.555 518.537 247.542C507.345 248.518 496.098 248.043 484.92 247.175C481.838 246.931 478.756 246.674 475.687 246.403C476.904 221.878 479.715 201.61 483.027 190.235C492.003 191.821 500.829 194.045 509.507 196.81C518.821 208.564 526.58 224.725 534.244 242.796C531.473 244.03 526.337 245.928 531.987 244.193V244.179Z" fill="#F3D5B6"/>
<path d="M564.225 319.951C548.924 323.937 533.379 326.906 517.807 329.549C504.817 331.746 491.8 333.698 478.783 335.731C477.525 325.591 476.606 315.368 475.998 305.241C482.527 305.865 489.056 306.434 495.571 306.732C516.996 307.722 538.069 305.417 556.831 296.836C560.441 305.146 563.631 312.603 566.388 319.368C565.672 319.558 564.955 319.761 564.225 319.951Z" fill="#F3D5B6"/>
<path d="M541.719 431.418C538.961 432.028 536.69 433.872 534.663 436.177C527.539 438.943 520.199 441.342 512.521 443.457C507.912 436.516 502.032 423.853 494.057 402.555C492.908 399.464 491.826 396.292 490.786 393.051C520.618 388.239 550.492 383.954 579.554 376.376C579.364 377.84 579.121 379.291 578.824 380.741C574.35 401.918 558.994 427.568 541.719 431.418Z" fill="#F3D5B6"/>
<path d="M347.029 264.393C343.501 265.396 339.825 266.427 336.148 266.969C336.364 266.806 330.836 267.037 330.092 267.023C328.592 266.983 327.105 266.874 325.605 266.752C325.618 266.712 324.631 266.522 322.536 266.169C319.522 265.356 316.467 264.719 313.466 263.824C305.829 261.56 298.408 258.645 291.014 255.703C281.268 251.839 271.549 247.975 261.519 245.156C263.317 236.75 265.034 230.026 266.656 226.135C271.765 213.906 277.659 204.565 285.08 198.505C287.364 197.909 289.635 197.258 291.92 196.594C302.112 196.499 312.304 196.092 322.482 195.468C338.581 206.802 345.448 236.059 347.773 264.163C347.516 264.244 347.246 264.325 346.989 264.407L347.029 264.393Z" fill="#F3D5B6"/>
<path d="M325.834 361.734C323.009 361.761 320.225 361.571 317.413 361.395C317.264 361.395 317.156 361.382 317.035 361.368C316.129 361.205 315.223 361.056 314.318 360.88C308.073 359.633 301.949 357.843 295.948 355.742C293.366 354.833 290.798 353.871 288.256 352.868C286.972 352.366 285.702 351.851 284.431 351.336C284.35 351.309 283.715 351.037 283.106 350.78C281.876 350.251 279.132 349.058 278.767 348.895C277.497 348.34 276.226 347.784 274.969 347.241C271.684 345.818 268.399 344.408 265.101 343.012C258.829 340.354 252.557 337.697 246.136 335.379C245.488 335.148 244.825 334.945 244.176 334.715C246.38 325.767 248.57 314.785 250.732 303.208C277.118 311.274 301.611 325.279 330.119 325.889C335.486 325.997 340.825 325.577 346.11 324.777C342.799 341.466 336.581 349.587 329.89 361.558C328.268 361.626 326.389 361.707 325.848 361.721L325.834 361.734Z" fill="#F3D5B6"/>
<path d="M285.323 459.034C285.161 458.939 281.971 458.411 280.349 457.977C278.984 457.611 272.279 454.899 274.036 455.821C271.198 454.493 268.399 453.11 265.642 451.591C259.275 448.107 253.152 444.176 247.164 440.068C243.392 437.478 239.689 434.794 236.026 432.055C234.782 431.133 233.552 430.198 232.322 429.263C232.038 429.046 231.808 428.869 231.619 428.734C231.43 428.585 231.2 428.395 230.875 428.151C224.766 423.352 218.737 418.444 212.695 413.563C208.815 410.418 204.936 407.273 201.029 404.155C205.409 399.464 210.032 393.58 214.547 387.384C217.25 388.035 219.94 388.767 222.616 389.581C229.253 391.614 235.728 394.122 242.135 396.766C242.257 396.82 242.352 396.861 242.46 396.901C242.879 397.091 243.392 397.308 244.041 397.593C245.312 398.149 246.583 398.691 247.853 399.247C250.813 400.535 253.76 401.809 256.721 403.084C264.939 406.595 273.158 410.133 281.619 413.021C290.081 415.909 298.935 418.064 307.856 419.352C303.206 432.516 297.827 446.548 291.825 459.441C289.649 459.373 287.472 459.251 285.31 459.061L285.323 459.034Z" fill="#F3D5B6"/>
<path d="M183.254 464.932C198.975 477.499 214.898 490.23 232.335 500.357C237.418 503.312 242.554 505.915 247.772 508.206C224.995 514.05 209.532 500.858 207.842 501.984C205.922 503.272 179.699 510.064 179.699 510.064C179.699 510.064 164.262 493.402 161.707 474.151C159.774 459.631 162.829 457.868 167.182 451.944C172.535 456.282 177.874 460.62 183.254 464.918V464.932Z" fill="#F3D5B6"/>
<path d="M387.108 257.601C376.741 244.478 371.983 226.718 363.426 212.306C357.722 202.694 338.041 169.967 323.969 178.793C317.508 182.846 313.358 172.611 318.549 168.476C334.797 155.542 355.032 178.888 364.102 190.493C370.915 199.224 376.565 208.863 381.458 218.787C386.622 229.266 392.691 241.332 394.137 253.032C394.584 256.666 390.407 261.79 387.095 257.601H387.108Z" fill="#914116"/>
<path d="M466.658 253.263C464.711 241.237 464.873 228.86 463.711 216.74C462.481 203.982 458.642 191.062 458.453 178.305C458.385 173.533 465.13 170.618 467.361 175.62C472.47 187.036 473.335 200.864 474.565 213.228C475.863 226.338 476.89 240.275 474.2 253.276C473.376 257.276 467.333 257.493 466.658 253.276V253.263Z" fill="#914116"/>
<path d="M386.392 373.407C374.429 400.521 342.947 423.284 314.426 429.453C306.923 431.079 304.504 419.664 311.398 417.183C325.226 412.221 337.905 406.961 349.936 398.312C361.858 389.743 370.603 378.979 380.39 368.228C383.85 364.419 388.081 369.597 386.405 373.407H386.392Z" fill="#914116"/>
<path d="M507.872 355.322C511.684 371.36 517.848 385.459 527.485 398.881C536.637 411.638 548.032 422.457 557.71 434.767C560.846 438.753 556.764 447.809 551.641 443.525C527.12 423.013 499.937 390.326 499.951 356.515C499.951 351.661 506.669 350.305 507.872 355.322Z" fill="#914116"/>
<path d="M472.997 243.935C459.791 236.235 386.23 231.422 381.431 252.11C376.633 272.799 367.752 395.004 379.255 407.042C390.772 419.068 507.345 424.369 511.657 395.492C515.969 366.628 483.284 249.941 472.984 243.935H472.997Z" fill="#914116"/>
<path d="M383.567 251.026C385.73 246.891 391.285 249.141 394.043 251.392C397.544 254.252 399.504 258.645 400.964 262.807C402.667 267.633 403.586 272.69 404.884 277.639C406.357 283.251 408.155 288.769 409.682 294.355C410.885 298.761 411.304 303.723 413.116 307.939C415.346 313.145 420.82 313.742 425.768 314.785C437.46 317.266 449.261 318.826 461.21 317.863C466.996 317.402 472.538 316.006 478.255 315.206C480.486 314.894 482.73 314.704 484.906 314.148C485.568 313.986 490.799 312.304 488.65 310.745C486.771 309.39 488.245 305.933 490.502 307.18C494.233 309.254 493.341 314.596 490.232 316.778C486.934 319.097 482.365 319.178 478.526 319.775C473.011 320.629 467.671 322.011 462.089 322.513C455.857 323.069 449.599 322.947 443.381 322.283C437.393 321.645 431.445 320.588 425.565 319.354C420.591 318.31 414.94 317.619 411.548 313.389C408.709 309.837 408.141 305.255 407.182 300.957C405.83 294.897 403.897 288.972 402.18 283.007C400.518 277.205 399.436 271.226 397.598 265.478C396.665 262.536 395.462 259.486 393.583 257.005C392.691 255.825 391.61 254.754 390.298 254.035C389.42 253.547 387.189 252.463 386.338 253.453C384.81 255.201 382.648 252.802 383.567 251.039V251.026Z" fill="#7D320A"/>
<path d="M394.313 260.76C395.138 277.639 394.678 294.599 396.327 311.423C396.557 313.769 393.205 314.27 392.623 311.993C390.542 303.791 390.866 295.019 390.704 286.614C390.542 278.005 390.366 269.382 390.434 260.76C390.461 257.967 394.178 257.994 394.313 260.76Z" fill="#7D320A"/>
<path d="M387.771 263.973C387.419 269.64 386.892 275.28 386.622 280.947C386.351 286.614 386.203 292.294 386 297.975C385.905 300.618 382.377 300.632 382.296 297.975C381.972 286.519 382.553 274.778 384.215 263.431C384.54 261.18 387.892 261.763 387.757 263.973H387.771Z" fill="#7D320A"/>
<path d="M403.099 399.41C401.653 399.952 400.207 400.427 398.828 401.118C397.273 401.891 395.746 402.704 394.137 403.341C390.893 404.616 387.46 405.28 384.202 406.527C382.053 407.354 380.931 403.667 382.742 402.623C385.973 400.779 389.623 400.237 393.056 398.922C396.233 397.702 399.152 395.641 402.626 395.41C404.843 395.261 404.911 398.745 403.113 399.41H403.099Z" fill="#7D320A"/>
<path d="M508.129 395.654C492.422 400.63 476.187 404.738 459.656 405.416C451.126 405.768 442.651 404.873 434.216 403.762C426.633 402.758 417.874 402.094 411.034 398.393C409.074 397.322 410.317 393.906 412.521 394.421C416.508 395.356 420.334 396.725 424.375 397.485C428.214 398.217 432.08 398.705 435.946 399.206C443.962 400.25 452.018 400.982 460.088 400.616C476.12 399.884 491.719 395.898 507.169 391.818C509.48 391.208 510.264 394.977 508.115 395.668L508.129 395.654Z" fill="#7D320A"/>
<path d="M452.478 309.281C451.829 304.916 449.396 302.557 446.922 299.195C446.773 298.991 446.625 298.774 446.652 298.517C446.692 298.164 447.071 297.961 447.395 297.839C449.599 297.012 451.978 296.849 454.33 296.687C454.992 296.646 455.695 296.619 456.249 296.971C456.641 297.229 456.898 297.663 457.128 298.069C463.156 308.536 459.98 321.293 463.738 332.451C465.157 336.68 467.658 340.544 470.915 343.568C472.227 344.774 473.754 346.713 472.591 348.069C472.281 348.435 471.821 348.638 471.375 348.828C468.428 350.007 465.211 350.495 462.048 350.224C457.506 339.894 452.883 329.21 452.721 317.917C452.681 315.03 452.924 312.115 452.478 309.268V309.281Z" fill="#7D320A"/>
<path d="M466.496 327.136C466.806 328.451 467.253 329.753 467.82 330.959C468.523 332.437 469.983 333.928 469.537 335.664C469.05 337.589 467.023 337.846 465.36 338.023C463.765 338.185 462.156 338.09 460.561 337.982C458.953 337.874 457.358 337.779 455.749 337.657C454.79 337.589 454.006 337.372 453.451 336.504C452.965 335.759 452.87 334.783 452.613 333.942C452.208 332.627 451.708 331.42 451.045 330.16C450.599 329.292 450.329 328.424 450.586 327.448C450.843 326.458 451.64 325.74 452.586 325.455C453.397 325.211 454.357 325.265 455.209 325.211C456.101 325.157 457.006 325.103 457.899 325.062C459.683 324.954 461.535 324.777 463.278 325.279C465.684 325.984 464.792 330.2 462.238 329.536C460.805 329.17 459.075 329.549 457.601 329.631C456.75 329.685 455.911 329.726 455.06 329.78C454.668 329.807 454.262 329.834 453.87 329.848C453.032 329.875 453.951 329.766 453.668 329.848C453.411 329.915 453.965 329.59 453.641 329.888C453.884 329.617 454.127 329.346 454.371 329.075C454.181 327.57 454.235 327.163 454.533 327.855C454.614 328.017 454.695 328.18 454.776 328.343C454.898 328.587 455.019 328.844 455.127 329.088C455.411 329.726 455.655 330.376 455.898 331.027C456.317 332.18 456.587 333.359 456.939 334.538C456.763 334.213 456.601 333.874 456.425 333.549C456.466 333.603 456.506 333.657 456.547 333.711C456.249 333.522 455.966 333.332 455.668 333.142C455.398 333.142 455.371 333.142 455.601 333.156C455.749 333.156 455.898 333.183 456.047 333.196C456.249 333.21 456.452 333.223 456.655 333.251C457.209 333.291 457.763 333.332 458.318 333.386C459.358 333.467 460.399 333.562 461.44 333.63C462.413 333.698 463.387 333.739 464.346 333.711C464.833 333.698 465.333 333.671 465.82 333.603C466.009 333.576 466.225 333.495 466.414 333.495C466.725 333.495 466.414 333.467 466.293 333.644C466.131 333.969 465.968 334.281 465.793 334.606C465.793 334.674 465.779 334.742 465.766 334.81C465.847 335.176 465.941 335.542 466.022 335.908C465.766 335.284 465.333 334.715 465.022 334.091C464.738 333.522 464.481 332.939 464.252 332.356C463.724 330.973 463.373 329.631 463.184 328.167C463.062 327.218 463.346 326.119 464.373 325.808C465.32 325.509 466.252 326.228 466.469 327.15L466.496 327.136Z" fill="#FFCA8C"/>
<path d="M405.803 321.401C405.803 333.955 405.546 346.523 405.505 359.077C405.492 364.907 405.6 370.75 406.168 376.552C406.465 379.643 406.925 382.707 407.546 385.744C408.114 388.523 409.533 391.574 409.439 394.394C409.385 396.02 407.344 397.566 406.073 395.966C404.275 393.716 403.856 390.286 403.261 387.52C402.667 384.754 402.248 381.948 401.91 379.128C401.166 372.905 400.95 366.642 400.95 360.365C400.936 347.377 401.301 334.362 401.68 321.374C401.761 318.432 405.803 318.405 405.803 321.374V321.401Z" fill="#7D320A"/>
<path d="M376.051 371.441C375.781 376.837 375.754 382.26 376.01 387.656C376.132 390.353 376.335 393.051 376.592 395.749C376.835 398.312 377.646 401.186 377.254 403.734C376.997 405.456 374.591 405.768 373.848 404.236C372.753 401.958 372.807 398.854 372.564 396.359C372.28 393.566 372.09 390.76 371.982 387.954C371.766 382.436 371.901 376.932 372.361 371.428C372.577 368.838 376.2 368.757 376.065 371.428L376.051 371.441Z" fill="#7D320A"/>
<path d="M474.227 244.247C473.876 244.83 473.497 245.359 472.808 245.562C472.47 245.671 472.159 245.657 471.821 245.643C471.456 245.63 471.091 245.603 470.713 245.562C469.875 245.481 469.036 245.345 468.212 245.155C467.55 244.993 466.86 244.816 466.238 244.532C465.765 244.315 465.292 244.098 464.846 243.84C464.684 243.745 464.535 243.651 464.386 243.529C464.211 243.379 464.035 243.23 463.873 243.081C464.103 243.285 464.13 243.312 463.967 243.162C463.548 242.796 463.197 242.43 463.075 241.861C462.981 241.373 462.994 240.912 463.17 240.437C463.535 239.475 464.427 238.933 465.454 239.177C467.374 239.638 469.212 240.356 471.172 240.668C470.983 240.641 470.78 240.614 470.591 240.573C470.983 240.627 471.375 240.682 471.767 240.709C472.024 240.736 472.281 240.749 472.537 240.79C473.348 240.912 473.862 241.468 474.241 242.173C474.565 242.769 474.592 243.664 474.241 244.247H474.227Z" fill="#7D320A"/>
<path d="M394.219 244.41C393.84 244.573 393.394 244.708 393.043 244.939C393.178 244.857 393.299 244.803 393.097 244.912C392.975 244.979 392.867 245.034 392.745 245.101C392.556 245.21 392.38 245.318 392.191 245.413C391.421 245.833 390.65 246.24 389.893 246.701C389.163 247.148 388.447 247.609 387.757 248.097C387.392 248.355 387.041 248.653 386.649 248.884C386.473 248.992 386.297 249.101 386.108 249.223C385.919 249.345 385.689 249.467 385.473 249.535C385.378 249.562 384.432 249.724 385.121 249.602C384.31 249.751 383.608 249.548 383.121 248.83C382.634 248.111 382.621 247.216 382.972 246.443C383.459 245.372 384.486 244.627 385.432 243.976C386.203 243.447 386.987 242.946 387.798 242.498C389.515 241.549 391.312 240.777 393.164 240.126C394.232 239.746 395.381 240.641 395.597 241.685C395.841 242.878 395.327 243.949 394.219 244.423V244.41Z" fill="#7D320A"/>
<path d="M498.518 315.558C504.208 331.081 508.304 347.147 511.413 363.375C512.873 371.007 514.563 378.884 514.941 386.666C515.103 389.96 514.995 394.312 513.116 397.159C511.67 399.369 507.966 399.884 507.399 396.671C507.074 394.827 509.142 392.617 510.737 394.475C510.818 394.57 510.9 394.665 510.967 394.746C510.467 394.516 509.98 394.285 509.48 394.055C509.615 394.055 510.21 390.557 510.264 389.906C510.386 388.415 510.318 386.91 510.21 385.419C509.967 382.206 509.413 379.006 508.926 375.834C507.899 369.15 506.682 362.493 505.29 355.864C502.519 342.618 498.977 329.549 495.219 316.561C494.544 314.257 497.666 313.253 498.504 315.545L498.518 315.558Z" fill="#7D320A"/>
<path d="M308.87 42.9221C305.815 75.7306 312.966 81.5602 312.357 91.0096C311.965 97.151 308.208 103.577 306.031 108.607C304.815 111.44 313.723 113.108 314.777 115.955C319.481 128.739 326.578 143.612 338.54 147.584C360.141 154.756 375.456 139.911 390.258 118.205C405.059 96.5003 438.352 37.689 391.582 14.8993C344.813 -7.89041 310.776 22.4371 308.87 42.9085V42.9221Z" fill="#FFC3A4"/>
<path d="M352.95 77.2085C354.991 74.009 359.33 72.6126 362.926 73.548C366.873 74.5648 369.941 78.0084 371.09 81.9264C372.226 85.8445 371.604 90.1421 369.941 93.8703C368.265 97.5986 365.616 100.812 362.696 103.645C359.776 106.492 360.655 109.759 361.371 113.569C362.872 121.663 364.71 129.689 366.873 137.62C368.752 144.479 370.306 152.261 373.293 158.66C377.2 167.039 382.796 174.522 388.311 181.884C393.11 188.296 398.057 194.831 404.775 199.183C412.656 204.294 422.24 205.894 431.499 207.385C436.798 208.239 442.745 208.944 447.071 205.745C449.72 203.779 451.275 200.647 453.721 198.424C457.371 195.129 462.589 194.248 467.495 194.289C472.402 194.329 477.309 195.156 482.202 194.668C491.016 193.787 499.031 188.161 503.438 180.555C505.465 177.044 505.668 172.773 507.696 169.411C510.224 165.208 513.63 163.663 513.049 157.915C512.657 154.024 510.67 150.472 508.237 147.408C499.815 136.806 486.825 131.817 475.376 125.364C462.535 118.124 456.141 108.878 446.814 97.7341C441.218 91.0369 434.162 84.9632 425.592 83.3364C423.199 82.8754 420.09 82.184 419.847 79.7437C419.766 78.9031 420.09 78.0897 420.388 77.317C426.714 60.9263 426.119 40.4955 417.63 24.8911C411.845 14.2623 394.908 5.49074 383.742 2.5217C375.848 0.433889 367.616 -0.40666 359.465 0.108515C348.246 0.813491 337.202 4.08078 327.362 9.53079C323.563 11.6322 318.927 13.9098 315.588 16.6619C312.114 19.5225 309.303 22.4508 305.18 24.6064C303.787 25.3385 302.328 26.0164 301.219 27.1416C299.002 29.3921 298.705 32.9306 299.124 36.0759C300.084 43.3968 304.463 51.4769 310.032 56.2897C316.615 61.9973 325.321 64.6003 331.62 70.5655C333.809 72.6397 335.418 75.2156 337.283 77.5745C339.149 79.9335 341.393 82.1704 344.245 83.1059C350.125 85.0446 350.638 81.4926 352.652 77.683C352.747 77.5068 352.842 77.3441 352.95 77.1678V77.2085Z" fill="#AD572A"/>
<path d="M321.387 125.269C321.833 125.269 322.239 125.31 322.685 125.377C322.468 125.35 322.239 125.31 322.022 125.282C322.387 125.323 322.766 125.337 323.131 125.282C322.901 125.31 322.685 125.35 322.455 125.377C322.725 125.337 322.996 125.255 323.252 125.133C323.05 125.228 322.847 125.323 322.644 125.418C323.239 125.147 323.739 124.74 324.226 124.32C324.05 124.469 323.874 124.618 323.712 124.767C324.131 124.401 324.537 124.008 324.956 123.628C325.321 123.303 325.686 122.991 326.064 122.679C326.429 122.368 326.835 122.164 327.308 122.029C328.281 121.744 329.254 122.178 329.822 122.978C330.417 123.845 330.484 124.998 330.011 125.933C329.552 126.842 328.781 127.519 328.051 128.197C327.389 128.821 326.699 129.458 325.929 129.96C324.05 131.153 321.374 131.505 319.806 129.594C319.157 128.807 318.981 127.777 319.332 126.828C319.67 125.947 320.441 125.296 321.414 125.269H321.387Z" fill="#333333"/>
<path d="M356.208 97.1241C356.167 97.5986 356.181 97.4494 356.275 96.6767C356.343 96.3377 356.478 96.053 356.694 95.7819C356.911 95.4701 357.167 95.2125 357.424 94.9413C357.789 94.5617 358.168 94.1821 358.519 93.789C358.911 93.3687 359.276 92.9349 359.627 92.4739C359.682 92.4061 360.195 91.7283 359.938 92.0808C360.087 91.8638 360.222 91.6469 360.357 91.4165C360.628 90.9691 360.885 90.5081 361.101 90.0472C361.182 89.8845 361.25 89.7354 361.317 89.5727C361.425 89.3015 361.452 89.2473 361.385 89.4235C361.317 89.5862 361.344 89.532 361.439 89.2609C361.493 89.0982 361.547 88.9219 361.601 88.7592C361.75 88.2441 361.858 87.7289 361.952 87.2002C362.101 86.4274 362.007 87.5798 361.966 87.0781C361.966 86.8883 361.966 86.685 361.966 86.4816C361.966 86.3596 361.844 85.7766 361.966 86.224C362.088 86.7121 361.912 85.9393 361.885 85.858C361.804 85.4784 361.696 85.1123 361.574 84.7463C361.804 85.4242 361.601 84.8548 361.533 84.6921C361.439 84.4887 361.331 84.2989 361.223 84.1091C360.912 83.5261 361.479 84.3396 361.141 83.9871C361.02 83.8515 360.898 83.7159 360.776 83.5804C360.425 83.1872 361.195 83.8109 360.736 83.5804C360.411 83.4177 360.384 83.4177 360.736 83.5261C360.668 83.499 359.979 83.2821 360.398 83.3906C360.776 83.499 360.114 83.3906 359.992 83.3906C359.925 83.3906 359.857 83.3906 359.803 83.4041C360.155 83.3499 360.155 83.3635 359.844 83.4448C359.587 83.5397 359.546 83.5533 359.709 83.499C359.871 83.4312 359.83 83.4719 359.587 83.5939C359.817 83.1872 359.479 83.7295 359.398 83.8244C359.56 83.5939 359.56 83.6075 359.398 83.8786C359.506 83.5804 359.506 83.5939 359.425 83.8922C359.1 85.2344 357.735 86.2647 356.343 85.8444C354.937 85.4106 354.261 83.7702 354.586 82.4145C355.248 79.7572 357.64 77.6559 360.452 77.8321C362.764 77.9677 364.548 79.5132 365.629 81.4654C367.846 85.4648 366.994 90.3454 364.71 94.1143C363.98 95.3209 363.142 96.4597 362.182 97.4765C361.642 98.0459 361.074 98.6018 360.452 99.0898C360.222 99.2796 359.979 99.4695 359.722 99.6321C359.452 99.7948 359.168 99.8897 358.857 99.944C358.708 99.9711 357.573 99.8626 358.141 99.944C356.667 99.7677 355.991 98.5611 356.221 97.1376L356.208 97.1241Z" fill="#F29869"/>
<path d="M311.938 32.456C316.061 40.3056 322.117 46.9893 328.862 52.6698C332.309 55.571 335.904 58.2689 339.581 60.8719C341.338 62.1056 343.109 63.3393 344.893 64.5595C346.732 65.8203 349.084 67.054 350.233 69.0063C350.949 70.2264 350.165 72.5583 348.503 72.4091C346.313 72.2058 344.258 70.4704 342.46 69.2638C340.5 67.9488 338.567 66.6066 336.648 65.2238C332.823 62.4581 329.092 59.5704 325.564 56.4387C318.602 50.2837 312.533 43.1662 308.491 34.7336C307.342 32.3475 310.587 29.8394 311.952 32.456H311.938Z" fill="#C4632F"/>
<path d="M340.203 41.119C348.53 49.1856 359.56 53.5374 370.509 56.7234C376.389 58.4316 382.363 59.8551 388.271 61.482C391.298 62.3225 394.299 63.2037 397.26 64.2205C400.058 65.1831 403.18 66.105 405.613 67.8403C407.411 69.1283 406.465 72.3955 404.099 71.8939C400.963 71.2161 397.922 69.6434 394.867 68.6266C391.893 67.637 388.879 66.7693 385.851 65.9423C379.728 64.2748 373.537 62.797 367.454 60.9397C356.383 57.5504 345.583 52.6833 337.486 44.1694C335.769 42.3663 338.216 39.2346 340.19 41.1326L340.203 41.119Z" fill="#C4632F"/>
<path d="M374.726 72.355C379.038 73.9547 383.472 75.1885 387.865 76.5035C390.068 77.1678 392.285 77.7914 394.502 78.4151C396.651 79.0252 399.138 79.4861 401.058 80.6927C402.653 81.7095 402.085 84.6378 400.098 84.6785C397.868 84.7327 395.475 83.7702 393.339 83.1601C391.123 82.5094 388.919 81.8315 386.73 81.1401C382.323 79.7437 378.038 78.0355 373.766 76.273C371.658 75.4054 372.415 71.4873 374.726 72.3414V72.355Z" fill="#C4632F"/>
<path d="M416.292 77.0728C416.387 77.0728 416.468 77.0728 416.562 77.0728C418.184 77.0457 419.928 77.222 421.145 78.293C422.51 79.486 422.821 81.601 422.213 83.2956C421.591 85.0038 420.185 86.3189 418.59 87.1865C415.427 88.9219 410.02 91.0639 406.762 88.5694C404.559 86.8747 403.599 83.0923 405.059 80.6248C406.898 77.5202 412.953 77.1406 416.292 77.0728Z" fill="#FFF4E8"/>
<path d="M377.281 103.564C377.281 116.646 379.444 129.594 383.756 141.944C385.878 148.045 388.608 153.942 391.785 159.569C395.016 165.29 398.922 170.577 402.626 175.986C404.018 178.02 401.193 180.664 399.355 178.833C389.866 169.438 383.458 156.328 379.052 143.829C374.523 130.963 372.442 117.202 373.05 103.577C373.185 100.568 377.281 100.527 377.281 103.577V103.564Z" fill="#C4632F"/>
<path d="M394.881 87.8373C391.853 88.8812 388.73 89.5726 385.54 89.898C382.35 90.2233 379.133 90.2911 376.051 89.3557C373.888 88.6914 374.294 85.1123 376.578 85.0038C377.349 84.9631 378.079 84.8818 378.849 84.8954C379.606 84.9225 380.377 84.9631 381.134 84.9767C382.553 85.0038 383.972 84.9767 385.378 84.8547C388.23 84.6107 391.028 84.0548 393.759 83.2143C396.516 82.3737 397.449 86.9561 394.894 87.8373H394.881Z" fill="#C4632F"/>
<path d="M389.893 103.645C389.176 110.559 390.366 117.636 393.286 123.954C396.232 130.326 400.653 135.003 405.843 139.572C408.263 141.7 410.534 143.964 412.156 146.784C413.737 149.55 414.427 152.709 414.805 155.854C415.184 159.04 415.17 162.266 415.562 165.452C415.954 168.679 417.103 171.119 418.495 174.007C419.279 175.634 417.63 178.738 415.684 177.179C410.398 172.977 410.831 164.652 410.358 158.592C410.115 155.461 409.682 152.248 408.087 149.468C406.289 146.337 403.275 144.005 400.612 141.632C389.636 131.83 384.499 117.717 386.446 103.116C386.743 100.933 390.123 101.476 389.893 103.645Z" fill="#C4632F"/>
<path d="M405.775 118.639C411.615 120.09 416.86 123.344 420.644 128.062C425.038 133.525 426.254 140.223 428.539 146.676C430.701 152.79 434.73 157.861 439.515 162.145C441.907 164.287 444.503 166.212 447.125 168.069C449.666 169.859 452.991 171.404 454.978 173.844C456.181 175.322 455.208 178.061 453.072 177.532C450.207 176.827 447.49 174.441 445.097 172.76C442.488 170.93 439.961 168.991 437.555 166.903C432.999 162.944 428.917 158.349 426.227 152.899C423.226 146.811 422.632 139.762 419.266 133.851C416.143 128.36 410.831 124.293 404.802 122.503C402.612 121.852 403.423 118.043 405.748 118.626L405.775 118.639Z" fill="#C4632F"/>
<path d="M421.212 114.477C428.822 114.938 431.81 122.178 436.216 127.208C441.272 132.983 447.679 137.43 452.91 143.042C454.383 144.629 452.545 148.167 450.477 146.608C447.476 144.344 444.719 141.768 441.934 139.26C439.366 136.928 436.73 134.623 434.378 132.088C432.121 129.661 430.431 126.869 428.484 124.211C426.727 121.798 424.389 119.155 421.226 118.829C418.765 118.572 418.684 114.328 421.226 114.491L421.212 114.477Z" fill="#C4632F"/>
<path d="M436.392 106.885C451.194 110.478 456.425 126.652 467.158 135.613C472.7 140.236 479.269 142.934 486.325 144.113C491.448 144.967 498.585 146.147 500.086 152.126C500.532 153.915 498.153 156.261 496.76 154.308C495.138 152.044 493.476 150.824 490.772 150.051C488.028 149.279 485.19 149.021 482.405 148.425C475.768 146.988 469.496 143.815 464.333 139.395C454.073 130.597 448.909 115.535 435.433 110.776C433.283 110.017 434.027 106.316 436.379 106.885H436.392Z" fill="#C4632F"/>
<path d="M496.612 181.233C487.217 180.569 477.62 175.905 471.024 169.221C469.496 167.676 471.483 164.083 473.443 165.696C476.877 168.53 480.54 171.133 484.554 173.112C488.528 175.078 492.8 176.271 497.098 177.288C499.045 177.749 498.707 181.396 496.625 181.247L496.612 181.233Z" fill="#C4632F"/>
<path d="M366.737 145.916C364.696 148.262 361.898 149.943 359.087 151.19C357.776 151.76 356.424 152.221 355.045 152.559C353.545 152.925 351.301 153.508 349.908 152.587C348.935 151.949 348.597 150.146 349.53 149.319C350.206 148.709 350.922 148.479 351.801 148.316C352.463 148.194 353.126 148.058 353.774 147.896C355.126 147.57 356.437 147.137 357.708 146.581C357.857 146.513 357.992 146.459 358.14 146.391C358.492 146.228 357.911 146.499 358.262 146.323C358.587 146.16 358.897 145.998 359.208 145.821C359.803 145.496 360.371 145.144 360.939 144.778C362.101 144.032 363.155 143.137 364.237 142.283C365.088 141.619 366.345 142.066 366.886 142.88C367.494 143.801 367.467 145.062 366.724 145.916H366.737Z" fill="#F29869"/>
<path d="M328.065 304.048C325.875 321.049 327.74 338.28 327.024 355.335C326.334 371.834 322.441 388.781 315.453 403.775C314.196 406.459 310.735 404.345 311.344 401.823C313.304 393.77 316.372 386.042 318.386 377.989C320.427 369.801 321.401 361.504 321.698 353.071C322.279 336.233 320.738 319.395 323.847 302.72C324.442 299.506 328.443 301.12 328.065 304.035V304.048Z" fill="#333333"/>
<path d="M521.01 337.602C520.064 341.046 521.646 344.72 522.632 348.001C523.633 351.322 524.714 354.63 525.877 357.897C528.256 364.608 530.986 371.197 534.001 377.65C536.866 383.765 540.245 389.594 543.165 395.681C546.071 401.728 548.599 408.249 547.829 415.028C547.694 416.193 547.166 417.305 545.896 417.495C544.828 417.658 543.584 416.831 543.449 415.692C541.746 401.592 533.365 389.892 527.728 377.162C524.809 370.587 522.267 363.822 520.064 356.975C518.064 350.739 514.644 342.862 516.739 336.274C517.712 333.237 521.808 334.62 520.997 337.602H521.01Z" fill="#333333"/>
<path d="M438.609 611.024C436.879 630.33 433.297 649.5 429.445 668.466C427.525 677.929 425.457 687.379 423.24 696.774C421.023 706.156 419.158 715.89 415.522 724.837C415.103 725.881 413.805 726.247 412.845 725.827C411.723 725.325 411.453 724.092 411.602 722.98C412.872 713.585 415.792 704.366 417.955 695.134C420.172 685.725 422.267 676.303 424.227 666.84C428.106 648.103 431.161 629.205 435.014 610.469C435.473 608.232 438.812 608.747 438.609 611.011V611.024Z" fill="#FFCA8C"/>
<path d="M418.969 535.565C418.495 541.435 417.982 547.292 417.455 553.149C416.968 558.477 416.779 563.94 415.792 569.2C414.913 573.932 412.805 578.026 408.817 580.832C404.235 584.059 398.895 586.486 393.989 589.197C389.082 591.922 384.202 594.729 379.147 597.182C374.956 599.216 369.793 602.361 365.183 599.894C360.736 597.508 356.694 593.264 353.099 589.767C349.679 586.445 345.137 582.636 343.353 578.094C342.217 575.179 342.434 571.844 342.339 568.766C342.244 565.689 342.15 562.612 342.082 559.534C341.92 552.783 341.501 545.963 341.717 539.212C341.812 536.161 345.651 536.256 345.921 539.212C346.854 549.447 346.786 559.886 347.07 570.149C347.138 572.522 346.881 575.098 348.246 577.172C349.503 579.084 351.287 580.724 352.882 582.351C356.302 585.835 359.938 589.089 363.737 592.153C365.386 593.481 367.251 595.501 369.522 595.217C371.739 594.946 374.172 593.508 376.159 592.559C380.552 590.472 384.783 588.031 389.041 585.686C393.515 583.232 397.99 580.778 402.464 578.311C406.519 576.074 409.642 573.891 410.845 569.187C412.169 564.008 412.304 558.436 412.872 553.121C413.494 547.251 414.143 541.394 414.819 535.538C415.157 532.65 419.239 532.514 418.982 535.538L418.969 535.565Z" fill="#FFCA8C"/>
<path d="M539.772 536.514C540.245 548.702 540.651 560.876 540.921 573.078C541.029 578.148 540.529 582.717 537.515 586.947C534.46 591.231 530.229 594.797 526.255 598.172C522.159 601.657 517.834 604.843 513.305 607.73C511.44 608.923 509.467 610.36 507.25 610.753C504.627 611.228 502.451 609.954 500.545 608.286C496.044 604.327 491.718 600.138 487.325 596.057C485.257 594.132 483.189 592.221 481.121 590.296C479.282 588.587 477.295 586.933 476.079 584.683C474.741 582.188 474.727 579.328 474.876 576.576C475.052 573.214 475.268 569.838 475.457 566.476C475.849 559.738 476.214 553 476.714 546.262C476.944 543.238 481.121 543.144 481.013 546.262C480.648 556.633 479.837 566.991 479.458 577.362C479.377 579.748 479.566 581.687 481.229 583.517C482.851 585.293 484.743 586.852 486.501 588.465C490.421 592.072 494.354 595.678 498.274 599.284C500.18 601.033 502.005 602.999 504.073 604.558C506.317 606.252 508.088 604.815 510.142 603.527C514.211 600.979 518.131 598.172 521.848 595.136C525.593 592.085 529.31 588.818 532.486 585.171C535.798 581.348 536.244 577.525 536.163 572.617C535.974 560.592 535.852 548.566 535.825 536.528C535.825 533.708 539.637 533.735 539.745 536.528L539.772 536.514Z" fill="#FFCA8C"/>
<path d="M533.96 530.278C525.255 530.766 516.563 530.942 507.845 530.671C499.383 530.413 490.448 530.305 482.135 528.597C479.675 528.095 480.202 523.675 482.716 523.729C486.974 523.797 491.245 524.434 495.49 524.76C499.761 525.085 504.033 525.329 508.304 525.533C516.847 525.912 525.417 526.075 533.96 525.939C536.488 525.899 536.461 530.142 533.96 530.278Z" fill="#FFCA8C"/>
<path d="M408.398 526.875C399.869 526.211 391.326 525.777 382.783 525.411C374.267 525.045 365.575 525.384 357.1 524.489C354.464 524.204 354.424 520.137 357.1 519.893C365.535 519.134 374.335 519.974 382.783 520.462C391.353 520.964 399.882 521.804 408.398 522.74C410.737 522.997 410.791 527.051 408.398 526.861V526.875Z" fill="#FFCA8C"/>
<path d="M337.959 528.366C330.079 594.213 323.32 660.196 318.224 726.315C313.141 792.312 309.654 858.417 307.64 924.576C306.504 961.858 305.883 999.154 305.734 1036.44C305.734 1039.93 300.841 1039.93 300.854 1036.44C301.057 969.911 302.841 903.386 306.248 836.956C309.654 770.512 314.723 704.149 321.373 637.963C325.091 600.979 329.335 564.062 334.215 527.214C334.593 524.394 338.257 525.777 337.946 528.366H337.959Z" fill="#FFCA8C"/>
<path d="M432.526 662.447C441.961 684.125 444.422 707.742 447.044 731.02C449.883 756.277 452.708 781.534 455.533 806.791C461.224 857.617 466.901 908.443 472.578 959.269C474.173 973.613 475.795 987.956 477.417 1002.3C479.026 1016.62 481.121 1030.96 482.108 1045.33C482.297 1047.99 478.228 1048.76 477.796 1045.99C475.849 1033.39 474.822 1020.6 473.416 1007.93C472.037 995.453 470.659 982.981 469.266 970.508C466.468 945.251 463.603 919.994 460.791 894.737C455.154 844.222 449.504 793.708 443.867 743.194C440.934 716.893 439.231 689.548 428.89 664.86C427.822 662.311 431.296 659.614 432.54 662.461L432.526 662.447Z" fill="#FFCA8C"/>
<path d="M64.0852 546.045C55.8397 550.383 47.6482 554.884 39.227 558.856C37.3075 559.765 36.1856 556.185 37.8752 555.236C45.8639 550.749 54.1365 546.763 62.3145 542.628C64.4908 541.53 66.0858 545.001 64.0852 546.045Z" fill="#C4643D"/>
<path d="M55.1098 539.537C48.2025 542.845 41.3492 546.248 34.4824 549.597C32.2656 550.681 30.684 547.319 32.6711 546.099C39.3081 542.005 46.4587 538.642 53.7986 536.012C55.7316 535.321 56.8535 538.71 55.1233 539.537H55.1098Z" fill="#C4643D"/>
<path d="M48.9595 534.751C44.4988 535.863 40.038 536.961 35.5773 538.032C31.1031 539.103 26.6559 540.283 22.1411 541.11C19.8026 541.53 18.9781 537.951 21.1949 537.219C29.8866 534.345 39.0783 532.636 48.0673 531.05C50.2842 530.657 51.1222 534.223 48.973 534.751H48.9595Z" fill="#C4643D"/>
<path d="M50.9059 506.715C53.7986 507.529 55.2044 510.66 54.8124 513.48C54.3934 516.463 52.2036 518.835 49.811 520.462C47.4455 522.075 44.7015 523.092 42.0927 524.217C39.1459 525.492 36.2126 526.698 33.1712 527.675C31.0625 528.352 29.9406 524.882 31.7519 523.879C36.0775 521.479 40.7139 519.784 45.1341 517.588C46.8778 516.72 48.7972 515.663 49.9327 514.022C50.1219 513.751 50.2977 513.426 50.4193 513.114C50.4869 512.938 50.541 512.64 50.5545 512.504C50.5545 512.504 50.4734 512.043 50.5545 512.368C50.4328 511.826 50.2706 511.596 49.757 511.447C47.0806 510.687 48.0808 505.929 50.9195 506.715H50.9059Z" fill="#C4643D"/>
</g>
<defs>
<clipPath id="clip0_1177_1038">
<rect width="580" height="1144" fill="white" transform="matrix(-1 0 0 1 580 0)"/>
</clipPath>
</defs>
</svg>
