<svg width="324" height="981" viewBox="0 0 324 981" fill="none" xmlns="http://www.w3.org/2000/svg">
<g clip-path="url(#clip0_1209_5781)">
<path d="M100.73 179.06C99.9625 177.745 98.6482 176.664 97.2038 176.195C97.0997 176.169 97.0086 176.143 96.9045 176.117C97.347 173.682 97.8154 171.194 97.9195 168.746C98.0366 165.803 97.1908 162.769 95.0047 160.711C94.0808 159.839 92.9617 159.213 91.7646 158.81C91.6605 156.987 89.9949 155.124 87.8608 155.763C78.4007 158.614 70.0206 163.224 62.226 169.28C54.7438 175.101 48.1985 181.99 42.4079 189.491C29.7206 205.912 21.2755 225.055 15.7191 244.98C9.52513 267.17 6.72743 290.168 4.34613 313.023C1.82169 337.101 0.169092 361.271 -7.17003e-05 385.48C-0.0781471 397.669 0.234155 409.858 1.0019 422.021C1.36625 427.673 1.66554 433.377 2.51135 438.989C3.16198 443.326 4.46324 447.754 7.15684 451.283C9.87647 454.838 13.8063 456.856 18.1395 456.961C26.5065 459.734 35.7845 461.597 44.0215 458.263C48.9662 456.257 52.9611 452.741 55.6287 448.105C57.997 443.99 59.3242 439.341 60.5214 434.77C61.172 432.296 61.7836 429.809 62.5253 427.36C62.9027 426.11 63.3061 424.873 63.7615 423.649C63.8656 423.375 63.9697 423.115 64.0738 422.842C64.0868 422.816 64.0868 422.789 64.0998 422.776C64.1389 422.685 64.1779 422.581 64.23 422.49C64.5293 421.852 64.8416 421.201 65.1669 420.576C65.6614 419.651 65.7915 418.622 65.6223 417.646C67.0017 414.182 68.3159 410.692 69.5391 407.175C77.9973 382.875 81.7969 357.481 84.7378 332.022C87.7827 305.652 90.6325 279.268 93.5603 252.885C95.0177 239.719 96.4881 226.553 97.9455 213.387C98.6873 206.746 99.416 200.117 100.158 193.489C100.522 190.22 100.886 186.951 101.251 183.696C101.433 182.042 101.602 180.583 100.717 179.073L100.73 179.06Z" fill="#806400"/>
<path d="M122.812 401.875C122.057 401.875 122.057 403.047 122.812 403.047C123.567 403.047 123.567 401.875 122.812 401.875Z" fill="#566A9F"/>
<path d="M195.514 159.096C194.863 158.159 194.2 157.234 193.64 156.283C190.556 151.061 190.309 144.719 189.437 138.716C188.565 132.713 186.587 126.253 181.46 123.011C179.417 121.722 177.049 121.057 174.72 120.419C167.966 118.57 161.213 116.708 154.459 114.859C149.996 113.635 145.39 112.397 140.809 113.01C140.106 113.101 139.352 113.27 138.87 113.804C138.298 114.442 138.285 115.38 138.285 116.239C138.363 126.918 135.929 138.599 130.542 147.91C128.395 151.608 125.025 155.398 126.118 159.539C127.068 163.133 130.946 164.982 134.433 166.272C137.439 167.379 140.471 168.42 143.516 169.384C146.574 170.348 149.84 170.973 152.807 172.171C153.64 172.509 154.381 173.004 155.188 173.343C156.398 173.864 157.712 173.968 159.014 174.124C162.41 174.515 165.806 174.906 169.19 175.296C170.257 175.973 171.597 176.117 172.781 175.713C176.425 176.13 180.068 176.546 183.712 176.976C186.887 177.341 191.402 178.409 193.588 175.335C194.46 174.111 195.15 172.822 196.1 171.65C197.362 170.113 198.416 168.42 198.507 166.376C198.624 163.693 197.102 161.401 195.527 159.135L195.514 159.096Z" fill="#D9754C"/>
<path d="M255.944 384.282C255.684 381.287 255.02 378.291 252.873 376.273C251.181 374.684 248.28 374.45 246.276 375.557C245.313 376.091 244.584 376.963 243.634 377.536C241.916 378.565 240.095 379.112 238.963 380.961C238.234 382.159 237.974 383.553 237.935 385.024C237.792 385.662 237.818 386.339 238 386.991C238.117 388.514 238.364 390.025 238.468 391.379C238.741 394.687 239.002 397.995 239.275 401.302C239.47 403.737 239.665 406.173 239.861 408.595C238.924 416.382 238.039 424.17 237.258 431.97C236.646 437.257 236.048 442.558 235.436 447.845C234.59 452.715 233.732 457.573 232.886 462.443C232.157 464.566 231.428 466.675 230.661 468.785C230.231 469.957 229.776 471.116 229.346 472.288C226.991 477.093 225 482.081 223.53 487.212C223.009 489.048 223.465 491.041 225.378 491.861C226.132 492.187 226.952 492.2 227.707 491.991C227.316 494.192 226.939 496.406 226.549 498.607C226.223 500.482 227.473 502.331 229.19 502.982C226.106 510.288 222.749 517.489 219.105 524.534C218.025 526.631 216.88 528.832 216.932 531.189C216.971 532.908 217.635 534.562 218.429 536.098C221.786 542.662 227.499 547.988 234.278 550.892C234.942 551.179 235.644 551.439 236.347 551.296C237.648 551.035 238.299 549.603 238.728 548.34C240.693 542.636 242.606 536.893 244.441 531.15C245.495 527.855 246.38 524.469 247.564 521.214C248.514 518.596 250.023 516.161 251.038 513.556C256.829 498.646 256.933 482.263 256.998 466.493C257.102 439.862 257.206 413.205 256.074 386.6C256.035 385.832 255.996 385.05 255.931 384.269L255.944 384.282Z" fill="#D9754C"/>
<path d="M217.076 313.96C217.791 341.581 218.728 369.384 224.519 396.406C224.805 397.734 225.157 399.153 226.184 400.026C227.811 401.406 230.257 400.833 232.3 400.195C239.249 397.981 246.185 395.768 253.134 393.541C254.643 393.059 256.022 392.616 257.532 393.306C258.547 393.775 259.419 394.53 260.551 394.713C264.871 395.442 266.12 390.832 266.523 387.537C267.786 377.367 268.527 366.089 262.437 357.846C261.657 356.791 260.772 355.801 260.238 354.603C259.692 353.366 259.562 351.986 259.432 350.645C259.432 324.782 254.526 298.034 252.184 272.262C249.36 241.203 244.845 208.152 226.471 182.003C224.155 178.708 221.63 175.583 218.858 172.653C217.141 170.843 212.534 164.891 209.88 165.126C207.173 165.36 205.755 169.202 205.195 171.376C204.74 173.121 204.545 174.932 204.467 176.729C204.258 181.495 204.675 186.3 205.091 191.04C205.937 200.534 207.355 209.975 208.865 219.39C209.606 224.053 210.374 228.702 211.103 233.364C212.456 242.024 213.692 250.723 214.395 259.461C214.746 263.81 214.968 268.186 215.02 272.548C215.059 275.999 215.124 278.903 215.996 282.224C217.219 286.899 216.568 292.434 216.672 297.239C216.802 302.813 216.933 308.373 217.076 313.947V313.96Z" fill="#B4C2FE"/>
<path d="M142.305 932.765C142.24 932.309 142.175 931.866 142.11 931.423C141.03 923.961 139.495 916.265 138.558 908.673C137.79 902.513 135.383 891.9 140.301 887.003C141.369 885.936 142.644 885.115 143.945 884.36C144.557 884.008 145.181 883.605 145.845 883.357C146.222 883.214 146.652 883.214 147.003 883.019C147.94 882.511 148.057 881.052 148.018 880.115C147.953 878.942 147.602 877.783 147.185 876.677C144.192 868.863 141.212 861.05 138.219 853.223C137.335 850.905 136.437 848.574 135.461 846.295C134.225 843.378 132.845 840.5 131.18 837.804C130.36 836.463 129.462 835.161 128.473 833.924C128.148 833.507 127.848 832.96 127.25 833.051C126.925 833.103 126.586 833.351 126.287 833.481C124.647 834.275 122.904 834.9 121.212 835.59C118.037 836.88 114.849 838.143 111.648 839.393C105.259 841.88 98.8174 844.263 92.3502 846.542C90.5544 847.181 88.7587 847.793 86.9499 848.418C85.3103 848.978 85.0111 849.499 84.972 851.27C84.907 854.421 84.5686 857.638 85.2323 860.711C85.9219 863.849 87.1581 866.805 88.1471 869.84C89.7997 874.736 91.4653 879.633 93.1179 884.516C96.384 894.14 99.6372 903.763 102.903 913.387C105.024 919.638 107.145 925.889 109.501 932.061C111.856 938.247 114.445 944.342 117.49 950.215C118.87 952.884 120.34 955.502 121.928 958.054C122.357 958.758 122.852 960.021 123.58 960.476C124.504 961.049 126.118 960.307 127.029 960.008C132.286 958.25 137.595 955.554 140.458 950.801C143.646 945.514 143.138 938.937 142.279 932.752L142.305 932.765Z" fill="#8C3A15"/>
<path d="M122.305 963.863C123.385 963.29 124.83 962.144 124.348 960.047C124.166 959.24 123.724 958.458 123.437 957.703C122.774 956.023 122.305 954.226 121.746 952.507C120.51 948.73 119.234 944.98 117.998 941.216L107.445 909.077C103.997 898.594 100.548 888.11 97.0999 877.627C95.2912 872.158 93.4954 866.688 91.6867 861.219C90.5676 857.833 89.5266 854.421 88.3294 851.061C88.0692 850.332 87.7569 849.434 87.1713 849.004C86.3776 848.431 85.4537 848.952 84.751 849.147C83.6189 849.473 82.4998 849.837 81.3807 850.228C80.9383 850.384 80.4959 850.54 80.1576 850.905C78.2707 852.885 81.8362 859.643 82.695 862.144C84.712 867.978 86.3385 873.903 88.2514 879.75C91.7648 890.468 95.2652 901.185 98.7916 911.89L109.124 943.339C110.919 948.809 112.663 954.304 114.511 959.747C114.992 961.18 115.409 962.3 116.346 963.224C117.1 963.967 117.946 964.409 118.74 964.566C119.859 964.787 120.887 964.488 121.837 964.058C121.98 963.993 122.123 963.928 122.292 963.837L122.305 963.863Z" fill="#1F1F1F"/>
<path d="M137.621 902.422C137.816 901.667 137.36 900.82 137.022 900.169C136.723 899.596 136.319 899.101 135.877 898.62C135.031 897.695 133.912 896.953 132.754 896.471C130.164 895.377 127.354 895.338 124.595 895.416C123.996 895.429 123.515 895.989 123.541 896.575C123.567 897.213 124.101 897.604 124.699 897.63C126.95 897.721 129.41 897.734 131.505 898.606C132.507 899.023 133.313 899.557 134.055 900.339C134.302 900.599 134.615 901.042 134.836 901.445C134.888 901.537 134.836 901.445 134.914 901.602C134.966 901.732 135.031 901.875 135.07 902.005C135.213 902.435 135.33 902.722 135.643 903.073C136.28 903.789 137.425 903.203 137.621 902.422Z" fill="#1F1F1F"/>
<path d="M138.207 913.582C138.168 911.303 136.255 909.728 134.342 908.842C132.416 907.944 130.308 907.319 128.226 906.902C127.55 906.772 126.769 907.214 126.652 907.918C126.535 908.621 126.938 909.35 127.667 909.493C129.489 909.858 131.167 910.353 132.781 911.043C133.171 911.212 133.549 911.395 133.913 911.603C133.991 911.642 134.069 911.694 134.147 911.746C134.186 911.772 134.199 911.785 134.225 911.798C134.433 911.942 134.603 912.085 134.772 912.228C134.85 912.293 134.928 912.371 135.006 912.449C135.019 912.462 135.045 912.489 135.058 912.502C135.188 912.658 135.279 912.814 135.396 912.983C135.448 913.14 135.5 913.244 135.526 913.335C135.552 913.504 135.552 913.608 135.565 913.726C135.565 914.416 136.255 915.054 136.958 914.989C137.7 914.924 138.233 914.338 138.22 913.595L138.207 913.582Z" fill="#1F1F1F"/>
<path d="M118.388 850.124C118.557 850.033 118.753 849.941 118.909 849.824C119.234 849.577 119.429 849.251 119.598 848.9C119.82 848.444 120.002 847.962 120.158 847.48C120.47 846.556 120.613 845.618 120.679 844.654C120.731 843.795 120.679 842.948 120.535 842.102C120.431 841.516 120.353 840.852 120.041 840.331C119.82 839.953 119.455 839.536 119.286 839.263C119.026 838.82 118.401 838.677 117.959 838.911C117.477 839.159 117.282 839.654 117.412 840.175C117.477 840.409 117.412 840.852 117.438 841.19C117.464 841.451 117.543 841.711 117.595 841.959C117.621 842.128 117.634 842.219 117.647 842.31C117.699 842.714 117.738 843.118 117.738 843.521C117.738 843.73 117.738 843.925 117.738 844.133C117.738 844.199 117.738 844.264 117.738 844.329C117.738 844.355 117.738 844.433 117.725 844.498C117.634 845.279 117.477 846.061 117.243 846.803C117.23 846.868 117.204 846.92 117.191 846.985C117.191 846.998 117.152 847.09 117.126 847.142C117.061 847.311 116.983 847.48 116.918 847.637C116.762 847.988 116.619 848.301 116.619 848.691C116.619 848.887 116.632 849.069 116.619 849.264C116.593 850.202 117.699 850.567 118.401 850.163L118.388 850.124Z" fill="#1F1F1F"/>
<path d="M109.085 861.362C110.009 860.659 110.881 859.878 111.713 859.07C112.494 858.328 113.275 857.573 113.964 856.752C114.693 855.88 115.331 854.929 115.955 853.978C116.632 852.963 115.032 851.999 114.251 852.819C112.819 854.33 111.31 855.815 109.761 857.195C109.046 857.833 108.291 858.419 107.536 859.018C106.651 859.721 105.702 860.32 104.921 861.128C104.088 862 105.09 863.55 106.222 863.12C107.289 862.716 108.161 862.026 109.072 861.336L109.085 861.362Z" fill="#1F1F1F"/>
<path d="M98.2191 868.655C98.8177 868.381 99.4423 868.121 99.9628 867.717C100.457 867.339 100.9 866.91 101.329 866.454C101.68 866.076 101.733 865.412 101.433 864.995C101.095 864.527 100.6 864.409 100.054 864.514C99.5204 864.631 98.9869 864.722 98.4664 864.878C97.9719 865.008 97.5165 865.23 97.035 865.412C96.5535 865.594 96.0721 865.764 95.5906 865.907C95.3173 865.985 95.0701 866.063 94.8098 866.193C94.4065 866.376 94.2633 866.428 93.951 866.74C93.8599 866.832 93.7688 866.936 93.6777 867.027C92.858 867.834 93.4565 869.241 94.4845 869.475C94.8489 869.553 95.1872 869.644 95.5646 869.579C95.968 869.514 96.3323 869.423 96.7097 869.28C97.2302 869.084 97.7377 868.876 98.2321 868.642L98.2191 868.655Z" fill="#1F1F1F"/>
<path d="M139.885 895.846C139.781 895.273 139.638 894.765 139.469 894.27C139.586 894.296 139.703 894.322 139.807 894.348C141.264 894.7 142.735 894.96 144.231 895.078C146.691 895.273 149.449 895.012 151.479 893.463C153.392 892.004 154.446 889.426 152.78 887.342C150.724 884.79 147.042 885.545 144.4 886.626C142.956 887.225 141.577 887.993 140.327 888.944C139.742 889.4 139.13 889.895 138.597 890.442C138.415 890.389 138.258 890.324 138.193 890.233C137.764 889.582 138.727 887.603 138.948 886.964C139.39 885.675 139.872 884.386 140.067 883.045C140.431 880.492 140.002 877.692 138.063 875.856C136.267 874.15 133.288 873.655 131.049 874.723C128.85 875.778 128.226 878.187 128.603 880.44C129.644 886.665 134.172 891.522 137.452 896.64C138.115 897.669 140.119 897.174 139.885 895.846ZM148.655 888.736C149.319 888.723 150.711 888.983 150.425 889.934C150.23 890.572 149.397 890.949 148.838 891.158C147.679 891.587 146.352 891.653 145.142 891.627C144.14 891.6 143.151 891.444 142.175 891.249C143.177 890.559 144.231 889.986 145.363 889.556C146.404 889.165 147.536 888.749 148.668 888.723L148.655 888.736ZM131.83 880.141C131.713 879.476 131.557 878.344 132.155 877.836C132.949 877.172 134.537 877.484 135.318 877.992C137.634 879.516 136.528 883.084 135.838 885.167C135.604 885.871 135.318 886.652 135.083 887.459C133.613 885.258 132.299 882.719 131.83 880.141Z" fill="#1F1F1F"/>
<path d="M266.966 586.352C263.752 570.556 260.382 554.786 256.934 539.041C251.143 512.658 245.743 486.014 238.898 459.877C237.076 452.91 233.797 445.67 226.601 443.013C223.062 441.711 219.197 441.594 215.475 441.893C209.958 442.323 204.558 443.717 199.236 445.175C185.247 449.017 171.831 454.668 159.443 462.248C153.106 466.128 146.626 471.09 144.856 478.291C143.672 483.11 144.804 488.162 145.975 492.994C157.075 539.107 175.176 583.735 185.195 629.926C186.926 637.908 188.787 645.813 189.776 653.887C190.335 658.445 190.895 663.003 191.454 667.548C192.573 676.663 193.692 685.766 194.812 694.882C194.968 696.158 195.124 697.434 195.28 698.711C195.944 704.128 196.607 709.702 195.306 715.002C194.148 719.781 191.48 724.026 188.8 728.155C183.998 735.577 179.053 742.909 174.109 750.241C156.854 775.856 139.482 801.589 118.22 823.987C114.797 827.595 111.05 831.632 110.998 836.593C110.958 840.604 113.379 844.185 115.721 847.441C121.147 854.994 126.678 862.469 132.299 869.879C134.602 872.913 137.205 876.116 140.9 877.028C146.392 878.382 151.532 874.163 155.696 870.335C157.062 869.071 158.441 867.821 159.834 866.584C169.645 857.807 180.172 849.889 190.049 841.203C196.139 835.851 199.574 829.626 203.712 822.828C209.36 813.543 217.492 805.925 224.207 797.434C231.546 788.162 238.352 778.461 244.559 768.381C256.907 748.339 266.914 726.852 274.227 704.48C277.207 695.364 279.771 686.027 280.499 676.468C281.423 664.318 279.393 652.155 277.259 640.174C276.01 633.194 274.735 626.214 273.407 619.234C271.338 608.256 269.178 597.304 266.94 586.352H266.966Z" fill="#473200"/>
<path d="M213.367 893.983C213.029 880.505 212.574 867.027 212.001 853.548C210.856 826.605 209.242 799.674 207.16 772.77C206.939 769.983 206.705 767.183 206.471 764.396C205.195 740.109 203.53 715.835 201.487 691.587C196.633 633.911 189.893 576.416 182.462 519.026C180.393 503.008 178.324 486.99 176.086 470.986C174.954 462.886 173.822 454.786 172.612 446.699C172.013 442.675 171.389 438.625 170.517 434.653C169.645 430.668 168.357 426.852 167.576 422.841C167.29 421.37 165.585 421.07 164.479 421.682C164.141 420.458 163.789 419.247 163.399 418.036C162.735 415.979 159.873 416.421 159.716 418.531C159.521 421.161 159.482 423.779 159.521 426.41C159.066 425.706 158.532 425.029 158.038 424.352C156.945 422.815 154.16 422.75 153.679 424.925C153.405 426.149 152.859 427.569 152.859 428.819C152.859 430.147 153.197 431.632 153.444 432.986C152.065 430.42 150.412 428.05 148.382 426.006C140.211 417.828 121.694 427.725 114.472 431.384C107.835 434.744 101.329 438.338 94.6406 441.581C89.7218 443.951 84.738 446.204 79.8713 448.665C72.3891 452.455 64.9459 456.999 60.8599 464.618C55.0693 475.374 56.3186 488.722 56.6959 500.456C57.2555 518.244 57.9451 536.398 62.1091 553.783C65.2192 566.766 70.3721 579.138 75.9675 591.21C84.8291 610.34 93.8858 629.092 98.7005 649.642C118.389 733.78 130.829 819.612 151.662 903.659C153.301 910.275 154.863 916.916 156.645 923.479C157.582 926.93 159.027 930.642 162.462 932.257C171.05 936.294 182.28 929.522 191.038 928.649C197.973 927.959 209.177 932.152 212.561 923.792C215.97 915.34 213.562 902.774 213.341 893.97L213.367 893.983Z" fill="#513900"/>
<path d="M242.295 401.745C239.692 362.443 239.041 323.063 238.339 283.696C238.222 277.536 238.144 271.363 238 265.204C237.844 257.976 238.235 250.488 236.907 243.43C235.294 234.926 233.693 226.423 232.08 217.932C228.683 200.026 224.649 182.237 212.392 168.134C209.932 165.308 207.213 162.703 204.22 160.424C200.238 157.39 194.916 155.398 190.036 157.351C188.006 158.159 186.184 159.383 184.271 160.451C178.416 163.693 173.159 163.068 167.524 159.943C165.026 158.562 162.358 157.703 159.834 156.427C152.443 152.676 146.21 147.024 140.341 141.19C139.56 140.422 138.727 139.601 137.647 139.38C136.763 139.198 135.839 139.445 134.967 139.693C132.273 140.461 129.593 141.216 126.899 141.985C125.871 142.271 125.233 142.675 124.349 143.196C123.62 143.625 122.735 143.678 121.928 143.795C119.026 144.211 116.099 144.407 113.249 145.11C106.521 146.777 100.106 149.681 94.2505 153.457C57.555 177.067 50.0598 224.977 48.5243 266.115C47.2101 301.276 48.3031 336.71 48.5764 371.819C48.6154 376.286 48.3031 380.792 48.186 385.258C47.8216 399.297 47.5744 413.335 47.4183 427.386C47.2491 442.336 47.4052 457.286 47.7956 472.223C47.9908 479.463 48.238 486.717 48.5243 493.957C48.6675 497.578 48.8236 501.198 48.9928 504.818C49.0709 506.628 49.1619 508.439 49.253 510.249C49.3571 512.254 48.9928 514.911 49.7345 516.786C51.3871 517.151 53.7814 514.924 54.9656 513.947C56.2017 512.944 57.3208 511.824 58.531 510.783C59.2337 510.171 59.9624 509.585 60.7301 509.051C61.9273 508.217 63.1895 507.501 64.5168 506.915C66.5988 505.99 68.85 505.469 70.8929 504.441C73.4044 503.164 75.2391 501.068 76.7226 498.711C79.1169 494.869 81.277 490.871 83.5411 486.951C84.7383 484.881 85.9355 482.823 87.1196 480.753C86.7422 481.417 88.0695 483.865 88.2907 484.542C88.4989 485.167 88.6941 485.805 88.8633 486.443C89.0585 487.173 89.2146 487.902 89.3187 488.644C89.579 490.441 89.8783 492.265 90.0084 494.075C90.2687 497.526 89.4489 502.253 92.5979 504.649C94.3676 506.003 96.7879 506.003 99.0131 506.029C111.948 506.186 124.856 509.298 136.437 515.08C146.951 520.328 156.294 527.686 166.718 533.116C170.062 534.861 173.835 536.971 177.531 537.856C180.368 538.547 183.699 538.599 186.627 538.846C209.021 540.695 232.08 533.819 249.66 519.794C251.104 518.635 252.561 517.385 253.368 515.731C254.578 513.27 254.188 510.353 253.772 507.644C251.612 493.398 249.699 479.125 248.033 464.813C245.587 443.86 243.661 422.841 242.268 401.784L242.295 401.745Z" fill="#E6EBFF"/>
<path d="M166.665 885.141C165.741 878.474 164.817 871.806 163.88 865.139C162.019 851.934 160.067 838.742 158.063 825.563C154.082 799.323 149.891 773.122 145.493 746.946C141.199 721.435 136.593 696.041 129.488 671.129C122.721 647.415 114.484 624.144 106.924 600.677C104.647 593.593 102.422 586.47 100.301 579.32C100.444 579.32 100.587 579.32 100.73 579.307C103.437 578.852 105.558 576.364 107.51 574.58C109.526 572.731 111.465 570.804 113.313 568.798C117.113 564.709 120.535 560.32 123.567 555.632C129.605 546.243 133.886 535.903 136.632 525.108C137.152 523.076 134.133 522.06 133.522 524.092C130.425 534.393 125.506 544.107 119.351 552.911C116.358 557.195 113.053 561.31 109.474 565.139C107.692 567.053 105.831 568.889 103.905 570.66C102.305 572.132 100.353 573.408 99.0904 575.192C94.6922 560.034 90.8404 544.706 88.1078 529.21C87.5743 526.214 86.9887 523.232 86.3381 520.263C86.0258 518.818 83.7096 519.13 83.7616 520.615C84.204 532.817 86.7024 545.006 89.4091 556.882C92.1547 568.915 95.564 580.779 99.2075 592.564C106.495 616.122 114.823 639.354 121.953 662.964C129.384 687.564 134.667 712.541 139 737.857C143.476 763.98 147.692 790.142 151.726 816.33C155.786 842.675 159.69 869.059 163.333 895.468C163.789 898.737 164.27 901.966 164.986 905.196C165.481 907.449 169.15 906.98 169.033 904.649C168.682 898.112 167.576 891.627 166.678 885.141H166.665Z" fill="#473200"/>
<path d="M263.023 946.009C262.58 945.93 262.125 945.852 261.683 945.774C254.265 944.472 246.484 943.521 238.976 942.05C232.886 940.852 222.059 939.836 218.949 933.624C218.273 932.27 217.882 930.811 217.583 929.327C217.44 928.636 217.245 927.907 217.219 927.204C217.206 926.813 217.336 926.384 217.258 925.993C217.062 924.951 215.722 924.365 214.811 924.131C213.679 923.818 212.469 923.792 211.298 923.844C202.944 924.248 194.59 924.652 186.236 925.042C183.75 925.159 181.278 925.29 178.792 925.498C175.63 925.772 172.481 926.175 169.384 926.918C167.849 927.282 166.339 927.725 164.856 928.272C164.362 928.454 163.75 928.571 163.646 929.17C163.594 929.496 163.711 929.9 163.763 930.212C164.01 932.022 164.049 933.872 164.179 935.695C164.414 939.12 164.622 942.544 164.804 945.969C165.168 952.819 165.416 959.682 165.559 966.545C165.598 968.446 165.624 970.361 165.65 972.262C165.676 973.994 166.079 974.437 167.745 975.023C170.712 976.064 173.666 977.406 176.789 977.718C179.977 978.044 183.178 977.796 186.366 977.796C191.532 977.744 196.698 977.705 201.851 977.653C212.001 977.562 222.163 977.458 232.313 977.367C238.911 977.302 245.508 977.237 252.105 976.924C258.703 976.611 265.313 976.052 271.832 974.997C274.799 974.515 277.74 973.942 280.668 973.226C281.462 973.03 282.828 972.965 283.492 972.418C284.324 971.715 284.129 969.957 284.116 968.993C284.09 963.446 283.192 957.56 279.575 953.34C275.554 948.652 269.152 947.089 263.01 945.969L263.023 946.009Z" fill="#8C3A15"/>
<path d="M286.29 974.736C286.082 973.525 285.444 971.806 283.297 971.598C282.477 971.52 281.605 971.689 280.785 971.741C278.977 971.845 277.129 971.741 275.32 971.741C271.351 971.741 267.396 971.78 263.427 971.78H229.62C218.598 971.78 207.564 971.78 196.542 971.806C190.791 971.806 185.039 971.806 179.287 971.819C175.722 971.819 172.157 971.754 168.604 971.845C167.823 971.858 166.873 971.884 166.288 972.301C165.494 972.874 165.702 973.916 165.676 974.645C165.637 975.817 165.624 977.002 165.65 978.174C165.65 978.643 165.676 979.112 165.911 979.542C167.212 981.951 174.72 980.675 177.375 980.636C183.543 980.531 189.671 980.844 195.826 980.844C207.095 980.844 218.364 980.87 229.62 980.87H262.698C268.45 980.87 274.214 980.935 279.953 980.87C281.462 980.857 282.659 980.818 283.83 980.206C284.78 979.724 285.457 979.06 285.847 978.344C286.407 977.354 286.446 976.286 286.342 975.231C286.329 975.075 286.303 974.906 286.277 974.736H286.29Z" fill="#1F1F1F"/>
<path d="M232.756 940.995C232.105 940.578 231.155 940.747 230.427 940.865C229.789 940.969 229.19 941.203 228.605 941.464C227.46 941.985 226.419 942.805 225.586 943.756C223.738 945.878 222.827 948.535 222.047 951.191C221.877 951.764 222.255 952.403 222.814 952.559C223.439 952.728 223.959 952.35 224.181 951.791C224.974 949.681 225.742 947.35 227.239 945.631C227.941 944.81 228.696 944.198 229.672 943.743C229.984 943.586 230.518 943.43 230.96 943.352C231.064 943.326 230.96 943.352 231.129 943.326C231.273 943.313 231.416 943.3 231.559 943.3C232.014 943.3 232.327 943.274 232.756 943.091C233.641 942.714 233.433 941.438 232.756 941.008V940.995Z" fill="#1F1F1F"/>
<path d="M243.517 943.912C241.344 943.235 239.249 944.563 237.817 946.1C236.36 947.649 235.111 949.46 234.07 951.309C233.731 951.908 233.9 952.793 234.551 953.132C235.176 953.47 235.995 953.301 236.373 952.65C237.284 951.022 238.286 949.59 239.444 948.275C239.717 947.962 240.016 947.662 240.329 947.376C240.394 947.311 240.459 947.259 240.537 947.207C240.563 947.181 240.589 947.168 240.602 947.142C240.81 946.985 240.992 946.868 241.174 946.764C241.265 946.712 241.357 946.66 241.461 946.608C241.487 946.608 241.5 946.582 241.526 946.582C241.708 946.517 241.89 946.464 242.085 946.412C242.254 946.412 242.359 946.399 242.45 946.399C242.606 946.425 242.723 946.451 242.827 946.49C243.491 946.699 244.297 946.243 244.454 945.566C244.623 944.85 244.232 944.146 243.53 943.938L243.517 943.912Z" fill="#1F1F1F"/>
<path d="M177.101 942.948C177.062 942.753 177.036 942.545 176.971 942.362C176.841 941.972 176.594 941.685 176.307 941.412C175.943 941.06 175.54 940.734 175.136 940.435C174.355 939.849 173.51 939.419 172.612 939.054C171.818 938.742 170.985 938.521 170.139 938.39C169.554 938.299 168.89 938.182 168.305 938.299C167.875 938.39 167.368 938.612 167.055 938.677C166.548 938.794 166.223 939.341 166.301 939.836C166.379 940.37 166.795 940.721 167.329 940.747C167.576 940.76 167.966 940.969 168.305 941.047C168.552 941.099 168.825 941.112 169.085 941.138C169.254 941.164 169.346 941.177 169.437 941.19C169.84 941.268 170.23 941.36 170.621 941.477C170.816 941.542 171.011 941.607 171.193 941.672C171.258 941.698 171.31 941.724 171.375 941.737C171.402 941.737 171.48 941.776 171.532 941.802C172.247 942.128 172.937 942.532 173.575 942.987C173.627 943.026 173.679 943.065 173.731 943.105C173.744 943.118 173.809 943.17 173.861 943.209C174.004 943.326 174.134 943.443 174.264 943.56C174.538 943.821 174.798 944.042 175.162 944.172C175.344 944.238 175.527 944.277 175.709 944.342C176.594 944.654 177.283 943.717 177.127 942.922L177.101 942.948Z" fill="#1F1F1F"/>
<path d="M184.856 955.294C184.479 954.2 183.998 953.132 183.503 952.077C183.048 951.113 182.566 950.124 182.007 949.212C181.408 948.248 180.705 947.337 180.003 946.451C179.248 945.501 177.83 946.712 178.376 947.714C179.365 949.551 180.302 951.439 181.135 953.353C181.512 954.239 181.838 955.137 182.176 956.036C182.566 957.091 182.84 958.185 183.373 959.174C183.946 960.229 185.728 959.773 185.663 958.549C185.611 957.416 185.234 956.361 184.856 955.294Z" fill="#1F1F1F"/>
<path d="M188.396 967.899C188.331 967.248 188.279 966.571 188.058 965.946C187.85 965.36 187.589 964.8 187.29 964.253C187.043 963.81 186.431 963.537 185.937 963.706C185.39 963.888 185.117 964.318 185.052 964.865C184.987 965.412 184.922 965.946 184.896 966.493C184.87 967.001 184.935 967.509 184.948 968.017C184.974 968.525 184.974 969.032 184.974 969.553C184.974 969.84 184.974 970.1 185 970.374C185.052 970.803 185.052 970.973 185.26 971.363C185.325 971.481 185.39 971.598 185.455 971.715C185.963 972.744 187.485 972.627 188.032 971.715C188.227 971.402 188.409 971.103 188.461 970.725C188.526 970.322 188.552 969.957 188.539 969.553C188.513 969.006 188.474 968.459 188.409 967.899H188.396Z" fill="#1F1F1F"/>
<path d="M227.212 936.776C226.64 936.698 226.119 936.672 225.586 936.685C225.651 936.58 225.703 936.476 225.768 936.385C226.549 935.109 227.264 933.794 227.85 932.413C228.8 930.134 229.412 927.439 228.579 925.016C227.798 922.737 225.677 920.94 223.179 921.878C220.108 923.037 219.678 926.774 219.886 929.613C220.003 931.176 220.303 932.726 220.823 934.21C221.07 934.913 221.344 935.643 221.708 936.32C221.604 936.476 221.5 936.606 221.383 936.632C220.628 936.841 219.041 935.304 218.52 934.9C217.44 934.08 216.36 933.221 215.15 932.609C212.847 931.463 210.049 930.994 207.694 932.27C205.507 933.455 204.115 936.125 204.427 938.586C204.74 941.008 206.835 942.349 209.099 942.688C215.332 943.639 221.357 940.865 227.238 939.328C228.423 939.016 228.579 936.958 227.238 936.763L227.212 936.776ZM223.205 926.214C223.4 925.576 224.076 924.326 224.896 924.912C225.443 925.29 225.534 926.214 225.56 926.813C225.599 928.051 225.261 929.327 224.857 930.473C224.519 931.41 224.063 932.309 223.582 933.168C223.244 932.009 223.022 930.824 222.97 929.613C222.918 928.506 222.879 927.295 223.218 926.214H223.205ZM209.789 939.536C209.125 939.445 207.993 939.237 207.707 938.508C207.316 937.544 208.11 936.138 208.852 935.552C211.025 933.82 214.07 935.994 215.826 937.297C216.425 937.739 217.076 938.26 217.765 938.729C215.215 939.432 212.404 939.901 209.802 939.536H209.789Z" fill="#1F1F1F"/>
<path d="M196.503 317.229C196.893 305.456 197.258 293.671 196.945 281.899C196.633 270.439 195.462 259.07 193.653 247.754C191.649 235.2 188.943 222.776 187.212 210.184C185.481 197.578 184.44 184.829 184.974 172.106C184.987 171.676 184.271 171.572 184.219 172.001C181.122 194.309 185.299 216.89 188.669 238.924C190.4 250.267 192.092 261.622 192.781 273.082C193.484 284.842 193.289 296.627 192.977 308.386C192.339 332.1 191.025 355.788 189.932 379.489C188.839 403.047 187.902 426.618 187.667 450.202C187.433 473.89 188.37 497.447 190.192 521.07C190.413 523.948 190.725 526.774 191.168 529.626C191.467 531.553 194.707 531.111 194.577 529.157C194.213 523.284 193.445 517.437 192.99 511.564C192.534 505.704 192.183 499.831 191.896 493.957C191.337 482.211 191.103 470.439 191.09 458.679C191.077 435.096 192.066 411.538 193.237 387.98C194.421 364.396 195.709 340.826 196.49 317.229H196.503Z" fill="#B4C2FE"/>
<path d="M202.463 457.52C201.89 433.676 201.734 409.832 201.994 385.988C202.255 362.365 203.27 338.781 203.764 315.171C204.246 291.861 203.374 268.525 201.019 245.331C199.717 232.517 198.052 219.703 195.814 207.019C193.562 194.27 191.129 181.352 187.186 168.993C187.03 168.485 186.314 168.707 186.405 169.215C188.318 180.688 190.895 192.043 192.834 203.529C194.786 215.119 196.529 226.722 197.843 238.403C200.42 261.271 201.617 284.295 201.396 307.306C201.162 330.915 199.925 354.512 199.574 378.135C199.21 401.745 199.262 425.355 199.717 448.952C200.238 475.635 200.875 502.396 202.983 529.001C203.101 530.486 205.378 530.525 205.326 529.001C204.402 505.17 203.049 481.365 202.476 457.533L202.463 457.52Z" fill="#B4C2FE"/>
<path d="M142.553 726.149C141.837 725.589 141.135 724.99 140.406 724.43C140.744 723.649 140.601 722.659 140.081 722.008C139.417 721.174 138.519 720.966 137.504 721.122C136.606 721.266 135.735 721.513 134.876 721.8C134.069 721.552 133.262 721.331 132.429 721.174C128.565 720.393 124.609 720.445 120.744 721.2C118.35 721.669 119 725.277 121.304 725.342C123.62 725.407 125.897 725.667 128.135 726.123C127.198 727.113 126.352 728.194 125.676 729.379C124.44 731.514 126.886 733.845 128.994 732.699C129.137 732.621 129.293 732.543 129.436 732.452C128.721 733.559 128.005 734.666 127.289 735.786C126.743 736.645 126.118 737.44 125.871 738.429C125.65 739.289 125.39 740.161 125.259 741.047C125.09 742.115 126.157 743.261 127.237 742.557C127.953 742.089 128.578 741.529 129.254 741.021C130.178 740.331 130.673 739.523 131.297 738.586C132.286 737.075 133.275 735.551 134.264 734.041C135.8 731.697 137.322 729.34 138.858 726.996C139.677 727.243 140.497 727.503 141.265 727.881C142.28 728.376 143.607 726.996 142.579 726.175L142.553 726.149Z" fill="#473200"/>
<path d="M197.661 725.277C196.854 724.417 195.332 724.248 194.2 724.196C193.185 724.157 192.157 724.235 191.142 724.209C189.177 724.157 187.251 723.909 185.39 723.219C184.18 722.776 182.762 721.878 181.773 720.875C181.265 720.354 180.94 719.95 180.523 719.234C180.406 719.026 180.094 718.57 180.003 718.414C180.003 718.231 179.99 718.127 179.964 718.023C180.328 716.682 178.663 715.796 177.57 716.343C177.387 716.421 177.361 716.447 177.492 716.395C177.713 716.304 177.596 716.356 177.114 716.551C176.776 716.747 176.464 716.994 176.268 717.346C175.956 717.893 175.878 718.557 175.943 719.169C176.073 720.237 176.425 721.435 177.075 722.49C178.259 724.43 180.133 726.019 182.15 727.048C184.492 728.246 187.017 728.793 189.619 729.014C190.855 729.118 192.105 729.131 193.341 729.105C194.629 729.079 196.789 728.897 197.648 727.79C198.247 727.009 198.377 726.058 197.648 725.277H197.661Z" fill="#473200"/>
<path d="M224.389 693.007C223.452 692.447 222.45 691.978 221.435 691.548C221.162 688.631 220.459 685.727 219.679 682.98C216.126 670.478 212.314 658.015 208.384 645.631C207.304 642.219 206.302 638.755 205.027 635.408C203.66 631.827 202.086 628.376 200.654 624.834C200.212 623.727 198.611 624.131 198.846 625.329C199.496 628.558 199.978 631.801 200.68 635.018C201.383 638.221 202.255 641.373 203.153 644.524C204.909 650.723 206.77 656.908 208.605 663.081C210.44 669.267 212.288 675.439 214.148 681.625C214.252 681.964 214.344 682.289 214.448 682.628C213.667 682.042 212.86 681.482 212.04 680.987C211.207 680.492 210.075 680.596 209.308 681.182C208.345 680.948 207.395 681.143 206.718 682.016C205.989 682.953 206.015 684.399 206.913 685.245C208.097 686.352 209.282 687.459 210.479 688.579C210.232 688.54 209.971 688.501 209.724 688.475C209.49 688.449 209.269 688.41 209.06 688.384C207.863 688.241 206.809 689.426 206.666 690.507C206.497 691.783 207.265 692.746 208.41 693.189C210.206 693.879 212.092 694.192 213.992 694.205C214.213 694.257 214.435 694.322 214.656 694.387C214.474 695.117 214.669 695.924 215.476 696.302C215.788 696.445 216.113 696.575 216.426 696.692C216.334 697.213 216.23 697.734 216.074 698.242C214.591 703.295 208.241 707.84 211.012 713.517C211.702 714.937 213.654 714.364 214.096 713.114C214.877 710.939 215.749 708.842 216.998 706.889C218.39 704.688 219.848 702.565 220.668 700.052C220.954 699.167 221.162 698.268 221.305 697.369C221.943 697.369 222.593 697.343 223.244 697.317C225.508 697.226 226.406 694.231 224.402 693.02L224.389 693.007Z" fill="#513900"/>
<path d="M182.267 161.831C181.968 160.854 181.187 160.138 179.391 159.773C173.952 158.666 168.825 156.739 163.828 154.356C158.506 151.817 153.119 148.73 148.473 145.071C144.244 141.737 141.225 137.505 138.649 132.843C138.194 132.022 137.699 130.421 136.489 131.41L128.304 138.052C127.64 138.599 126.938 139.185 126.664 139.992C126.131 141.607 127.432 143.43 128.096 144.824C129.072 146.855 130.087 148.861 131.167 150.84C133.873 155.828 136.762 160.958 140.588 165.204C143.047 167.925 145.819 170.361 148.799 172.496C151.844 174.671 155.084 176.546 158.454 178.187C159.768 178.825 161.096 179.437 162.436 179.997C167.381 182.107 172.534 183.422 177.882 183.982C178.858 184.086 180.081 183.149 180.25 182.172C180.302 181.912 180.341 181.651 180.38 181.391C180.784 179.034 181.122 176.664 181.395 174.293C181.682 171.806 181.89 169.306 182.046 166.806C182.163 164.891 182.658 163.146 182.254 161.831H182.267Z" fill="#B4C2FE"/>
<path d="M200.511 163.758C199.418 161.323 198.559 158.744 197.583 156.257C197.115 155.059 196.646 153.861 195.97 152.767C195.801 152.494 195.618 152.22 195.332 152.077C194.629 151.712 193.836 152.285 193.237 152.806C191.35 154.46 189.294 155.893 187.16 157.221C186.093 157.885 185.013 158.523 183.92 159.148C182.671 159.864 181.734 160.294 181.161 161.714C180.979 162.156 181.161 162.43 181.305 162.873C181.656 163.94 181.89 165.034 182.098 166.141C182.632 168.967 183.868 171.702 185.065 174.293C185.247 174.697 185.443 175.114 185.651 175.518C186.51 177.223 187.98 180.206 190.192 180.232C191.663 180.245 192.482 179.333 193.289 178.252C194.031 177.263 194.773 176.26 195.514 175.27C196.946 173.343 198.39 171.415 199.821 169.488C200.485 168.603 201.552 167.574 201.669 166.415C201.747 165.542 200.993 164.839 200.654 164.097C200.602 163.993 200.55 163.875 200.511 163.771V163.758Z" fill="#B4C2FE"/>
<path d="M89.4878 413.257C89.3577 409.858 89.2146 406.472 89.1365 403.073C89.0584 399.726 88.5379 396.197 88.9934 392.89C89.4748 389.374 89.5139 385.779 89.7611 382.237C90.0474 378.278 90.2946 374.267 90.8411 370.348C90.9322 369.71 89.9953 369.397 89.8392 370.074C88.3037 376.585 87.3147 383.045 87.0154 389.738C86.9504 391.288 87.2497 392.825 87.1976 394.361C87.1456 396.106 86.9113 397.838 86.8723 399.583C86.7812 402.969 86.8333 406.368 86.9113 409.754C87.1846 423.232 88.1215 436.71 87.7311 450.202C87.5099 457.755 86.4949 465.139 85.7012 472.64C85.558 473.994 87.7051 474.228 88.0304 472.952C89.683 466.636 90.0734 459.891 90.3467 453.379C90.6329 446.699 90.5549 440.031 90.3336 433.351C90.0994 426.644 89.7481 419.95 89.4748 413.244L89.4878 413.257Z" fill="#B4C2FE"/>
<path d="M152.104 230.46C149.957 214.155 145.259 198.099 138.128 183.279C134.524 175.778 130.581 168.342 125.376 161.818C122.799 158.588 119.911 155.567 116.618 153.041C113.652 150.762 109.969 149.876 107.067 147.389C106.534 146.933 106.013 146.438 105.376 146.165C104.152 145.631 102.721 145.983 101.498 146.543C98.4268 147.962 95.3949 149.447 92.4931 151.218C91.0357 152.103 89.3961 153.002 88.1469 154.187C85.9217 156.322 86.3642 159.812 89.4482 160.75C90.5542 161.089 91.7384 161.154 92.7924 161.61C93.6122 161.974 94.419 162.573 95.3038 162.43C95.7593 162.352 96.1887 162.065 96.6571 162.091C97.0475 162.104 97.3858 162.339 97.6981 162.547C103.007 166.194 107.887 170.452 112.129 175.296C114.862 178.422 117.035 181.456 119.325 185.245C120.483 187.173 121.576 189.152 122.591 191.158C123.047 192.056 123.489 192.968 123.918 193.892C124.153 194.387 124.374 194.882 124.595 195.377C124.686 195.585 124.777 195.807 124.881 196.015C124.933 196.119 124.972 196.21 124.998 196.289C124.998 196.315 125.025 196.367 125.077 196.497C130.997 210.9 132.871 226.332 132.962 241.776C132.871 246.933 132.637 252.077 132.246 257.208C131.349 269.006 129.553 280.688 126.872 292.199C126.794 292.512 126.768 292.825 126.768 293.137C126.729 293.372 126.69 293.606 126.651 293.827C126.274 295.038 125.909 296.236 125.532 297.448C125.233 298.398 125.415 299.414 125.883 300.247C125.649 301.094 125.74 302.018 126.313 302.917C127.067 304.115 128.082 305.066 129.241 305.782C130.776 306.915 132.494 307.8 134.342 308.347C136.554 308.999 138.141 307.683 138.714 305.99C138.753 305.964 138.779 305.951 138.818 305.938C139.976 305.248 141.264 304.089 141.629 302.761C141.733 302.37 141.759 301.966 141.746 301.537C141.928 301.315 142.11 301.081 142.24 300.807C152.754 278.995 155.24 254.291 152.104 230.447V230.46Z" fill="#806400"/>
<path d="M99.4157 369.957C98.674 369.684 97.9323 369.593 97.1776 369.619C97.1385 369.384 97.0865 369.163 96.9954 368.928C96.566 367.848 95.3818 367.131 94.2628 367.808C93.0136 368.564 92.3239 369.671 92.2588 371.129C92.1677 371.272 92.1027 371.364 91.9856 371.468C91.1398 372.301 90.2419 373.083 89.357 373.877C87.6784 375.388 85.9607 376.859 84.2561 378.344C80.7037 381.43 77.0081 384.36 73.4687 387.459C66.546 393.541 59.4281 399.427 52.011 404.897C51.3864 405.365 50.8658 405.938 50.5015 406.59C48.0291 407.41 45.7129 408.282 43.5528 409.871C42.746 410.457 42.2125 411.317 42.2255 412.241C42.1474 412.267 42.0824 412.306 41.9913 412.332C41.1715 412.684 40.4168 413.088 39.8052 413.752C38.4388 415.21 38.3087 417.034 38.2437 418.935C38.1786 420.485 38.1265 422.047 38.0615 423.597C37.9444 426.787 37.8663 429.978 37.7882 433.182C37.7362 435.33 39.5319 436.646 41.4708 436.867C44.1123 437.166 47.0792 436.75 49.4735 435.591C50.5666 435.057 51.5295 434.275 52.5575 433.611C53.6896 432.869 54.7176 432.036 55.6545 431.046C57.242 429.366 58.7645 427.504 60.0787 425.576C74.3405 416.786 86.1559 403.907 93.508 388.853C93.5471 388.762 93.5861 388.671 93.6382 388.579C95.6421 385.662 97.5289 382.68 99.2726 379.607C100.196 378.526 101.107 377.419 101.979 376.273C103.814 373.877 101.706 370.791 99.4027 369.957H99.4157Z" fill="#806400"/>
<path d="M311.872 242.662C307.656 241.802 303.557 240.226 299.419 238.989C297.064 238.286 294.591 237.583 292.197 238.117C289.946 238.625 288.098 240.161 286.354 241.672C282.294 245.188 278.339 248.808 274.474 252.546C271.676 255.241 240.407 289.751 242.957 290.884C247.551 292.942 252.144 294.986 256.725 297.044C260.915 298.919 265.404 300.833 269.919 300.065C279.367 298.476 288.15 285.792 294.721 279.515C300.109 274.385 305.457 269.202 310.766 263.98C314.774 260.047 322.23 255.098 323.778 249.498C324.221 248.001 324 246.204 322.842 245.162C321.957 244.368 320.707 244.133 319.523 243.938C317.402 243.586 315.281 243.235 313.16 242.896C312.731 242.831 312.301 242.753 311.872 242.662Z" fill="#1F1F1F"/>
<path d="M248.696 295.169C247.408 292.655 246.12 290.155 244.831 287.642C244.246 286.287 243.452 284.907 242.606 283.696C241.591 282.25 241.032 281.43 239.249 281.742C237.167 282.107 234.942 282.237 233.12 283.383C232.079 284.034 231.103 284.542 229.945 284.985C226.718 286.183 223.491 287.381 220.264 288.579C205.547 294.049 190.816 299.479 176.086 304.909C168.721 307.618 161.356 310.327 153.978 313.035C148.291 315.119 140.275 316.499 135.708 320.667C134.719 321.565 133.756 322.477 132.832 323.427C119.546 336.971 117.751 353.718 120.34 371.78C120.626 373.799 120.809 376.078 121.954 377.836C123.216 379.776 125.558 380.297 127.731 380.453C131.7 380.74 135.669 379.476 139.365 378.187C145.441 376.065 151.128 372.939 156.528 369.449C159.144 367.756 161.707 365.985 164.232 364.162C169.489 360.385 174.993 357.182 180.484 353.757C200.472 341.281 220.016 328.155 239.822 315.393L247.187 310.639C249.815 308.946 252.158 307.045 252.079 303.607C252.014 300.612 250.01 297.786 248.67 295.182L248.696 295.169Z" fill="#FA9A6B"/>
<path d="M302.907 264.904C303.102 264.227 303.518 263.628 303.87 263.003C304.377 262.104 304.741 261.128 304.95 260.112C305.054 259.604 305.119 259.07 304.924 258.588C304.455 257.468 302.894 257.39 301.709 257.624C296.296 258.679 291.846 262.182 287.63 265.516C285.457 267.235 283.284 268.98 280.941 270.465C279.9 271.129 278.963 271.546 277.766 271.793C276.387 272.066 275.216 272.874 273.993 273.512C273.667 273.681 273.342 273.851 273.017 274.02C271.182 274.97 269.321 275.869 267.46 276.742C265.665 277.588 263.895 278.513 262.086 279.346C260.369 280.14 258.469 280.427 256.569 280.466C256.335 280.466 256.074 280.466 255.866 280.349C255.463 280.127 255.372 279.58 255.372 279.112C255.307 275.348 257.272 271.845 259.627 268.915C261.214 266.936 263.01 265.112 264.65 263.172C265.391 262.287 266.289 261.362 266.823 260.333C267.747 258.523 265.274 257.781 263.856 258.25C260.473 259.369 257.298 261.023 254.357 263.029C252.886 264.032 251.481 265.112 250.128 266.245C249.399 266.857 248.722 267.535 247.968 268.095C247.07 268.759 246.471 269.149 245.899 270.165C244.337 272.926 242.632 275.596 240.785 278.174C239.405 280.114 237.948 281.99 236.425 283.813C234.63 285.948 232.678 288.097 231.676 290.741C231.194 292.017 231.455 293.15 231.559 294.478C231.689 296.054 231.923 297.617 232.261 299.166C232.912 302.122 233.914 305.013 235.254 307.722C235.775 308.777 237.037 310.144 238.351 309.754C238.755 309.636 239.054 309.441 239.496 309.415C240.733 309.363 242.138 309.519 243.309 309.024C243.79 308.816 244.207 308.634 244.74 308.556C246.419 308.308 248.111 308.152 249.802 307.917C253.173 307.436 256.53 306.85 259.861 306.172C262.893 305.547 265.912 304.844 268.905 304.063C272.392 303.151 275.893 302.096 278.924 300.156C281.306 298.632 283.323 296.601 285.327 294.582C289.465 290.402 293.72 286.066 295.893 280.596C296.257 279.685 296.556 278.747 297.09 277.927C297.715 276.963 298.612 276.208 299.419 275.413C301.488 273.369 303.18 270.66 303.011 267.756C302.959 266.844 302.724 265.92 302.92 265.021C302.92 264.969 302.946 264.917 302.959 264.852L302.907 264.904Z" fill="#FA9A6B"/>
<path d="M302.763 241.633C298.313 240.708 293.29 238.755 289.334 241.906C285.274 245.136 282.203 249.511 278.651 253.249C274.968 257.13 270.674 260.346 266.705 263.927C262.789 267.47 259.523 271.546 256.308 275.713C256.178 275.882 256.478 276.116 256.608 275.947C259.744 271.988 262.932 268.082 266.653 264.67C270.258 261.362 274.149 258.393 277.649 254.981C281.097 251.621 284.038 247.779 287.5 244.433C289.425 242.583 291.39 240.93 294.201 240.969C296.986 240.995 299.809 241.893 302.529 242.427C303.037 242.531 303.258 241.75 302.75 241.646L302.763 241.633Z" fill="#B8B09E"/>
<path d="M117.503 179.021C116.605 177.81 115.564 176.703 114.458 175.687C112.298 173.694 109.839 171.949 107.197 170.647C104.543 169.345 101.732 168.381 98.8042 167.899C97.3858 167.665 95.9675 167.47 94.5361 167.47C93.1958 167.47 91.1788 167.47 90.2549 168.603C89.8125 169.15 89.6954 169.944 90.2549 170.478C90.8015 170.986 91.2049 170.973 91.8555 171.129C91.7644 171.129 92.428 171.35 92.5061 171.363C92.8444 171.429 93.2088 171.416 93.5471 171.442C94.7963 171.533 96.0585 171.663 97.2947 171.91C99.8712 172.405 102.409 173.265 104.751 174.463C107.041 175.635 109.188 177.054 111.075 178.799C112.038 179.698 112.936 180.662 113.782 181.664C114.614 182.654 115.577 184.139 116.905 184.399C117.79 184.568 118.752 184.165 119 183.214C119.39 181.677 118.388 180.219 117.503 179.034V179.021Z" fill="#B4C2FE"/>
<path d="M131.427 304.975C130.984 303.112 129.865 301.68 128.889 300.052C127.887 298.385 126.95 296.666 126.091 294.921C124.426 291.535 123.047 288.006 121.966 284.373C119.78 277.028 118.935 269.475 119.13 261.831C119.533 245.631 123.957 229.861 124.569 213.674C124.738 209.246 124.764 204.532 123.71 200.195C123.372 198.815 122.409 197.448 120.899 197.161C119.871 196.966 118.869 197.565 119 198.698C119.065 199.271 119.598 199.557 120.041 199.362C120.145 199.518 120.249 199.674 120.301 199.857C120.353 200.039 120.314 200.612 120.314 200.664C120.314 201.615 120.314 202.552 120.327 203.49C120.366 205.378 120.366 207.267 120.327 209.155C120.223 212.944 119.95 216.708 119.533 220.471C118.713 227.842 117.399 235.161 116.306 242.492C114.133 257.117 113.144 271.806 117.542 286.131C118.7 289.881 120.158 293.541 121.875 297.057C122.773 298.88 123.749 300.677 124.79 302.422C125.87 304.206 126.859 305.925 128.629 307.084C130.073 308.035 131.765 306.472 131.414 304.949L131.427 304.975Z" fill="#B4C2FE"/>
<path d="M93.2999 313.713C86.8327 321.865 80.3004 329.939 73.69 337.974C73.1435 336.476 72.5839 334.991 71.9593 333.52C71.595 332.66 71.2046 331.775 70.8663 330.889C70.7492 330.525 70.619 330.173 70.5019 329.808C70.4238 329.561 70.3458 329.301 70.2937 329.053C69.9163 327.399 69.6301 325.706 69.3048 324.04C68.0035 317.476 66.5071 310.913 65.6092 304.284C65.375 302.604 62.9416 303.177 62.8115 304.662C62.4341 309.337 62.356 313.895 62.9286 318.557C63.5012 323.219 64.6463 327.79 66.1427 332.244C67.1317 335.187 68.3028 338.065 69.604 340.865C69.8773 341.724 70.1766 342.597 70.5279 343.456C70.7231 343.938 71.0745 344.355 71.4909 344.693C73.5338 348.561 75.8631 352.246 78.4786 355.762C78.3225 356.7 78.1793 357.651 78.0492 358.588C77.7629 360.75 80.7038 361.531 82.0571 360.255C84.6726 363.25 87.5224 365.946 90.8536 368.277C92.7404 369.592 94.7053 366.766 93.2349 365.191C92.4411 364.344 91.6473 363.498 90.8536 362.638C90.6844 358.172 90.5413 353.731 90.8536 349.251C91.2179 343.925 92.1288 338.651 93.5081 333.494C93.9896 331.684 91.4391 331.085 90.7755 332.739C89.5133 335.916 88.1339 339.054 86.6765 342.154C87.2491 340.226 87.8607 338.312 88.5373 336.398C89.0058 335.07 88.147 333.976 87.0409 333.546C90.0208 327.699 93.404 322.06 97.1647 316.669C98.7522 314.403 95.0436 311.486 93.2999 313.687V313.713ZM76.852 344.446C76.5658 343.938 76.2925 343.417 76.0192 342.896C77.0082 341.698 77.9841 340.487 78.9731 339.289C78.2314 340.995 77.5287 342.714 76.852 344.446ZM88.0038 359.487C86.8587 358.198 85.7266 356.895 84.6336 355.567C85.8828 352.963 87.0279 350.319 88.0949 347.649C87.7306 351.608 87.6655 355.58 88.0038 359.5V359.487Z" fill="#B4C2FE"/>
<path d="M147.094 311.408C146.73 311.199 146.34 311.043 145.949 310.965C144.349 310.665 142.644 311.069 141.095 310.548C139.95 310.158 139.04 309.298 138.051 308.595C136.073 307.162 133.6 306.264 131.18 306.602C128.174 307.032 125.637 309.194 123.763 311.434C122.396 313.062 121.108 314.755 119.898 316.5C118.636 318.323 117.465 320.198 116.372 322.125C115.318 324.001 114.524 326.071 113.327 327.855C112.572 328.975 111.557 329.874 110.932 331.072C109.904 333.051 109.28 335.304 108.551 337.414C105.675 345.761 103.385 354.317 101.693 362.977C100.978 366.649 100.275 370.673 101.706 374.267C102.37 375.934 103.45 377.38 105.025 378.291C106.781 379.32 108.811 379.398 110.789 379.529C111.505 379.581 112.403 379.581 112.988 380.049C113.639 380.57 113.899 381.638 114.277 382.367C115.5 384.725 117.582 385.701 120.119 386.027C125.897 386.756 131.713 386.548 137.465 385.727C138.454 385.584 139.352 384.321 139.274 383.344C138.285 371.168 137.959 358.914 138.415 346.699C138.623 341.086 139.079 335.447 140.562 330.004C142.058 324.547 144.83 320.081 147.875 315.38C148.435 314.507 148.812 313.465 148.239 312.515C147.966 312.059 147.55 311.681 147.081 311.395L147.094 311.408Z" fill="#B4C2FE"/>
<path d="M197.713 295.481C187.238 296.979 178.767 304.61 169.073 308.321C164.102 310.223 158.91 311.473 154.043 313.634C151.623 314.715 149.371 316.044 147.316 317.724C145.155 319.508 142.696 321.774 142.319 324.665C142.084 326.475 144.336 327.243 145.663 326.579C146.977 325.928 147.771 324.691 148.773 323.675C149.606 322.828 150.491 322.047 151.454 321.344C153.34 319.976 155.396 318.857 157.543 317.958C162.267 315.979 167.277 314.78 172 312.801C176.633 310.861 180.888 308.178 185.208 305.652C189.567 303.099 193.979 300.859 198.754 299.232C201.162 298.411 200.147 295.143 197.726 295.494L197.713 295.481Z" fill="#D9754C"/>
<path d="M279.21 293.358C274.955 294.843 271.104 297.304 267.005 299.154C265.001 300.065 262.958 300.912 260.915 301.719C259.418 302.305 257.883 302.93 256.321 303.334C255.957 302.93 255.189 302.878 254.916 303.451C254.851 303.568 254.591 303.685 254.382 303.842C253.276 304.623 253.172 306.785 254.799 307.071C257.232 307.514 259.379 306.915 261.669 306.121C263.973 305.313 266.237 304.415 268.475 303.425C272.808 301.511 277.415 299.518 280.915 296.263C282.151 295.117 280.876 292.785 279.223 293.358H279.21Z" fill="#D9754C"/>
<path d="M300.317 271.35C298.99 273.108 297.246 274.671 295.633 276.156C293.967 277.705 292.145 279.099 290.259 280.375C286.472 282.94 282.373 284.985 278.365 287.16C277.077 287.863 278.209 289.621 279.484 289.074C283.908 287.199 288.229 285.037 292.236 282.354C294.188 281.052 296.036 279.62 297.715 277.979C299.471 276.286 300.708 274.359 301.931 272.275C302.555 271.207 301.02 270.4 300.317 271.324V271.35Z" fill="#D9754C"/>
<path d="M300.369 263.172C299.601 263.589 299.029 264.449 298.43 265.087C297.805 265.751 297.168 266.402 296.517 267.04C295.242 268.29 293.928 269.488 292.6 270.673C291.286 271.845 289.738 272.848 288.619 274.215C288.02 274.945 287.33 275.4 286.55 275.921C285.782 276.442 284.884 276.846 284.35 277.627C283.726 278.526 284.754 279.555 285.665 279.346C286.537 279.151 287.291 278.383 287.981 277.849C288.736 277.276 289.386 276.729 290.245 276.338C291.937 275.544 293.342 274.059 294.708 272.796C296.049 271.546 297.311 270.231 298.508 268.863C299.107 268.173 299.705 267.483 300.278 266.767C300.863 266.05 301.657 265.282 301.93 264.396C302.217 263.472 301.15 262.769 300.369 263.185V263.172Z" fill="#D9754C"/>
<path d="M256.569 277.302C256.608 277.224 256.699 277.015 256.712 276.976C256.79 276.82 256.868 276.677 256.946 276.533C257.662 275.27 258.495 274.072 259.275 272.848C260.134 271.507 260.668 270.048 261.383 268.642C261.683 268.043 261.592 267.313 261.032 266.884C260.525 266.506 259.692 266.467 259.249 266.988C258.586 267.769 257.831 268.459 257.18 269.254C256.491 270.1 255.866 270.973 255.255 271.871C254.2 273.395 252.821 274.984 252.47 276.859C252.105 278.786 252.691 281.026 254.552 281.99C255.528 282.498 256.881 282.667 257.857 282.081C258.755 281.547 259.366 280.675 259.353 279.607C259.34 278.461 258.026 277.601 257.011 278.265C256.933 278.304 256.881 278.331 256.842 278.344C256.725 278.344 256.608 278.344 256.504 278.37C256.478 278.291 256.465 278.226 256.439 278.148C256.439 278.109 256.439 278.057 256.439 277.992C256.439 277.888 256.491 277.614 256.439 277.81C256.452 277.731 256.465 277.666 256.491 277.588C256.491 277.588 256.556 277.38 256.582 277.289L256.569 277.302Z" fill="#D9754C"/>
<path d="M249.477 310.691C249.061 310.04 248.228 309.793 247.59 309.467C246.771 309.064 245.977 308.608 245.209 308.1C243.53 307.019 241.995 305.717 240.629 304.258C239.601 303.151 238.625 301.706 237.076 301.276C236.699 301.172 236.321 301.263 235.957 301.185C235.775 301.146 235.645 301.094 235.528 301.042C234.265 297.825 233.264 294.478 232.522 291.093C232.223 288.67 232.196 286.235 232.639 283.8C232.73 283.266 232.496 282.771 231.962 282.602C231.181 282.354 230.414 282.354 229.711 282.537C228.8 282.367 227.824 282.797 227.538 283.891C227.317 284.139 227.096 284.399 226.913 284.698C226.679 285.076 226.51 285.454 226.367 285.844C225.703 287.03 225.625 288.423 225.534 289.842C225.404 291.757 225.482 293.645 225.755 295.546C226.289 299.31 227.603 302.995 229.36 306.355C229.425 306.485 229.503 306.615 229.568 306.746C229.139 307.54 229.126 308.36 229.477 309.22C230.18 310.965 231.702 312.515 233.094 313.739C236.009 316.304 239.705 318.101 243.543 318.674C243.83 319.013 244.285 319.156 244.754 318.804C245.664 318.127 246.523 317.398 247.304 316.591C247.447 316.486 247.564 316.356 247.655 316.226C247.89 315.966 248.111 315.679 248.332 315.406C248.644 315.197 248.918 314.898 249.113 314.507C249.243 314.26 249.308 313.999 249.36 313.739C249.802 312.736 250.037 311.564 249.49 310.691H249.477Z" fill="#1F1F1F"/>
<path d="M243.075 312.358C242.984 311.915 242.672 311.603 242.333 311.316C241.826 310.9 241.318 310.47 240.811 310.053C239.575 309.051 238.299 308.1 236.933 307.279C236.725 307.149 236.478 307.11 236.23 307.149C235.996 307.149 235.762 307.188 235.528 307.305C234.799 307.67 233.992 307.944 233.654 308.751C233.394 309.363 233.589 310.079 234.07 310.535C234.318 310.769 234.617 310.965 234.89 311.186C236.061 312.124 237.219 313.074 238.404 313.973C239.041 314.455 239.679 314.976 240.525 314.963C241.097 314.963 241.592 314.78 242.034 314.416C242.255 314.233 242.463 313.999 242.646 313.778C242.997 313.361 243.179 312.892 243.075 312.345V312.358Z" fill="#B8B09E"/>
<path d="M177.856 179.464C177.83 179.229 177.804 179.021 177.765 178.812C177.713 178.643 177.661 178.539 177.622 178.461C177.583 178.383 177.544 178.278 177.505 178.187C177.31 177.849 177.036 177.575 176.698 177.38C176.347 177.172 175.969 177.067 175.553 177.067C175.15 177.067 174.759 177.172 174.408 177.38C174.226 177.484 174.069 177.614 173.939 177.758C173.731 177.914 173.562 178.096 173.432 178.331C173.354 178.526 173.276 178.708 173.198 178.904C173.094 179.216 173.081 179.529 173.159 179.854C173.172 180.167 173.263 180.466 173.445 180.74C173.588 181.013 173.796 181.235 174.056 181.404C174.291 181.612 174.551 181.755 174.863 181.834C175.071 181.86 175.28 181.886 175.488 181.925C175.813 181.925 176.125 181.873 176.399 181.716C176.698 181.625 176.945 181.456 177.166 181.222C177.297 181.065 177.414 180.896 177.544 180.74C177.765 180.375 177.869 179.971 177.869 179.542C177.869 179.529 177.869 179.503 177.869 179.49L177.856 179.464Z" fill="#C0DDED"/>
<path d="M193.276 174.111C193.263 174.007 193.211 173.903 193.146 173.812C193.042 173.512 192.873 173.239 192.638 173.017C192.248 172.627 192.04 172.574 191.545 172.379C191.22 172.314 190.999 172.288 190.778 172.262C190.739 172.262 190.7 172.262 190.674 172.262C190.439 172.288 190.205 172.301 189.984 172.353C189.724 172.431 189.528 172.535 189.32 172.627C188.995 172.809 188.761 173.017 188.579 173.291C188.357 173.525 188.214 173.812 188.136 174.124C188.032 174.45 188.019 174.775 188.097 175.101C188.11 175.426 188.214 175.739 188.383 176.012C188.513 176.182 188.644 176.351 188.774 176.507C189.086 176.807 189.437 177.028 189.867 177.145C190.088 177.171 190.309 177.211 190.517 177.237C190.608 177.237 190.7 177.211 190.791 177.198C190.934 177.211 191.077 177.198 191.233 177.171C191.454 177.171 191.663 177.119 191.858 177.002C191.962 176.976 192.066 176.937 192.157 176.872C192.196 176.846 192.222 176.82 192.261 176.794C192.404 176.703 192.547 176.611 192.677 176.481C192.743 176.403 192.795 176.325 192.86 176.247C192.86 176.26 192.99 176.091 193.042 175.999C193.042 175.986 193.276 175.439 193.289 175.426C193.419 175.049 193.419 174.463 193.289 174.098L193.276 174.111Z" fill="#C0DDED"/>
<path d="M62.9023 174.892C59.493 179.75 56.7083 184.946 54.301 190.337C53.6634 190.454 53.0648 190.858 52.7915 191.639C51.3081 195.728 49.6685 199.765 48.159 203.855C46.7277 207.735 45.5435 211.72 44.3203 215.679C41.8219 223.792 39.5187 231.957 37.3716 240.161C36.773 242.466 36.2005 244.784 35.6149 247.089C34.1445 251.934 32.6611 256.791 31.2037 261.648C30.9694 262.43 31.1907 263.068 31.6201 263.511C29.5901 272.262 27.6512 281.026 25.7904 289.803C23.7865 299.271 21.8346 308.764 19.8957 318.244C19.2711 321.305 23.8125 322.62 24.6193 319.547C27.9375 306.902 31.2687 294.257 34.5869 281.599C32.1536 295.325 29.7332 309.05 27.2999 322.763C25.6083 332.296 23.9296 341.828 22.238 351.361C21.6915 354.434 26.2979 355.801 26.9876 352.676C28.2758 346.829 29.5641 340.969 30.8523 335.122C30.1497 341.411 29.447 347.701 28.7833 354.004C27.6252 364.982 26.5191 375.96 25.4781 386.938C25.2179 389.673 29.9154 390.35 30.3188 387.589C32.3748 373.447 34.4308 359.304 36.4868 345.149C36.5649 348.522 36.6429 351.895 36.734 355.28C36.5518 360.62 36.5258 365.972 36.4998 371.324C36.1094 376.585 35.7841 381.859 35.5369 387.121C34.9123 396.653 34.2877 406.186 33.8582 415.731C33.6891 419.39 33.572 423.037 33.4809 426.696C32.2837 431.215 30.7743 435.669 28.9655 440.018C27.8594 440.773 26.6232 441.32 25.348 441.581C23.8125 441.581 22.277 441.451 20.8457 441.333C18.0089 441.099 17.6185 445.396 20.195 446.165C22.0949 446.738 24.0207 446.79 25.8945 446.464C27.8204 446.425 29.7202 446.178 31.516 445.54C33.1165 444.967 34.4828 444.12 35.6279 443.052C36.8641 443.117 38.1914 442.323 38.3085 440.695C38.3476 440.213 38.3736 439.745 38.4126 439.263C38.5688 438.95 38.7249 438.625 38.8551 438.286C40.0132 435.382 40.2864 432.139 40.5337 429.001C42.8369 419.547 43.1622 409.61 42.0562 399.961C42.2123 392.186 42.1863 384.412 42.0692 376.637L42.1472 374.827C42.5636 365.816 42.98 356.791 43.3964 347.779C44.5155 335.043 45.6346 322.32 46.2722 309.571C46.6756 301.432 46.8578 293.293 46.7407 285.154C46.7927 284.581 46.8318 283.995 46.8838 283.422C47.9639 270.764 49.2911 258.119 50.9958 245.527C51.1519 244.394 50.8006 243.248 49.8116 242.714C49.8377 242.544 49.8637 242.375 49.8897 242.206C49.9288 241.958 49.9548 241.75 49.9808 241.529C50.137 240.331 48.9268 239.237 47.8467 239.107C47.5865 239.08 47.3393 239.093 47.118 239.133L49.8507 223.714C50.1239 222.19 49.148 221.096 48.0159 220.758C50.7355 211.577 53.4812 202.383 57.1117 193.541C59.532 187.668 62.3688 181.925 65.8431 176.598C67.0403 174.762 64.1645 173.147 62.9413 174.905L62.9023 174.892Z" fill="#4D3C00"/>
<path d="M101.784 372.874C100.925 372.379 100.053 372.483 99.3246 372.926C98.752 372.744 98.0754 372.887 97.633 373.564C96.2016 375.726 94.4058 377.601 93.0265 379.815C91.7253 381.885 90.476 384.008 89.2138 386.105C84.5163 392.408 79.8057 398.711 75.1082 405.014C71.2565 410.183 67.4048 415.34 63.54 420.51C61.8094 422.828 60.0787 425.159 58.335 427.477C55.1209 430.564 51.7506 433.481 48.2372 436.215C46.4545 437.596 48.0421 440.396 49.9809 440.422C55.4332 440.513 59.2719 435.616 62.6161 431.944C66.3377 427.868 69.8251 423.584 73.1693 419.195C74.1323 417.932 75.0431 416.643 75.967 415.366C82.0829 407.774 87.6653 399.713 92.9615 391.574C96.2666 386.508 99.4677 381.378 102.682 376.26C103.385 375.127 102.916 373.551 101.797 372.887L101.784 372.874Z" fill="#4D3C00"/>
<path d="M155.136 234.796C154.954 229.392 154.186 224.144 153.028 218.909C151.935 211.72 150.23 204.649 147.849 197.786C146.821 194.817 142.072 196.093 143.113 199.088C145.52 206.003 147.186 213.088 148.227 220.263C149.346 243.196 146.496 266.389 140.107 288.41C138.779 292.968 137.283 297.474 135.669 301.927C134.889 303.985 134.108 306.029 133.34 308.087C132.351 310.757 136.515 311.798 137.543 309.246C138.129 307.787 138.701 306.329 139.261 304.857C139.951 304.584 140.484 303.959 140.796 303.217C145.559 291.822 149.294 279.88 151.649 267.704C151.857 266.779 152.065 265.842 152.26 264.917C152.352 264.579 152.443 264.253 152.521 263.915C152.547 263.797 152.547 263.693 152.521 263.589C154.407 254.109 155.475 244.498 155.136 234.809V234.796Z" fill="#4D3C00"/>
<path d="M229.854 34.106C223.595 21.344 212.665 11.2515 198.195 7.50102C172.469 0.833489 142.371 14.2858 134.837 40.7606C128.239 63.9146 129.046 86.5999 137.582 109.168C142.28 121.578 149.346 133.26 159.847 141.529C164.778 145.41 170.53 148.183 176.698 149.277C179.053 149.694 181.461 149.798 183.842 149.616C184.545 149.564 185.234 149.486 185.924 149.381C187.564 149.134 189.19 148.756 190.778 148.262C191.415 148.066 192.157 147.897 192.677 147.467C193.094 147.129 193.445 146.738 193.888 146.412C196.256 144.732 198.403 142.766 200.381 140.643C204.363 136.359 207.642 131.502 211.051 126.761C211.494 126.149 211.975 125.511 212.652 125.173C213.446 124.782 214.356 124.912 215.202 125.003C216.503 125.147 218.299 125.147 219.366 124.222C220.485 123.258 219.913 120.901 219.77 119.651C218.924 112.072 221.383 104.532 224.428 97.5388C226.107 93.6841 227.968 89.9076 229.607 86.0399C230.414 84.1386 231.169 82.1982 231.832 80.2318C232.964 76.8069 233.459 73.2648 234.07 69.6966C234.448 67.5349 234.786 65.3731 235.072 63.1984C235.372 60.9715 235.879 58.7447 235.736 56.5048C235.255 48.6392 233.225 40.9559 229.841 34.067L229.854 34.106Z" fill="#FA9A6B"/>
<path d="M257.024 32.6735C255.203 31.3452 252.965 31.7359 250.987 32.4782C248.709 33.3376 246.797 34.0278 244.376 33.2074C242.203 32.4782 240.316 30.9936 238.781 29.3137C235.528 25.7585 233.537 21.2267 229.984 17.9059C227.187 15.2884 223.556 13.6346 219.782 13.1788C217.622 10.3399 215.202 7.80046 211.975 6.38101C204.024 2.90399 194.564 7.63117 186.236 5.19596C182.684 4.15416 179.6 1.87521 176.06 0.768298C168.513 -1.58878 159.014 1.6929 153.614 7.38374C152.273 8.79018 151.245 10.418 149.775 11.7202C147.654 13.5955 145.442 15.1842 143.62 17.3981C141.876 19.5207 140.445 21.9169 139.43 24.4823C138.324 27.2952 137.504 30.5248 134.641 32.0614C133.47 32.6865 132.143 32.8949 130.92 33.4028C127.901 34.6659 127.523 37.3876 126.131 39.914C125.702 40.7084 125.155 41.4377 124.778 42.2581C123.62 44.7975 123.945 48.001 123.854 50.7097C123.62 57.7028 123.528 64.6959 123.893 71.689C124.14 76.4292 124.609 81.1564 125.389 85.8445C127.406 97.9815 131.661 110.027 139.17 119.872C140.25 121.292 141.408 122.672 142.618 123.987C143.815 125.277 144.609 125.693 146.418 125.628C149.762 125.485 152.065 122.633 153.366 119.807C155.383 115.419 156.06 110.392 156.333 105.6C156.554 101.589 157.478 97.2782 155.604 93.4887C154.889 92.0171 153.796 90.767 153.002 89.3345C152.208 87.9151 151.727 86.3133 151.519 84.7115C151.414 83.8781 151.375 83.0446 151.44 82.1982C151.493 81.4168 151.792 80.6224 151.766 79.8541C151.675 76.5334 155.344 74.0851 158.402 74.0721C161.577 74.0721 164.557 76.1036 166.197 78.8253C167.03 80.2057 167.563 81.7424 168.084 83.266C168.526 84.5422 169.02 85.8835 168.903 87.2509C168.864 87.6806 168.877 88.0192 169.112 88.4099C170.465 90.5196 173.523 91.9651 175.956 91.0665C176.373 90.9102 176.763 90.7019 177.127 90.4675C177.622 90.4675 178.129 90.3242 178.624 89.9335C183.842 85.9226 186.978 80.5704 189.151 74.7363C189.177 74.6711 189.216 74.606 189.255 74.5409C190.53 71.8713 191.688 69.1496 192.859 66.4279C193.419 65.1126 193.953 63.7973 194.499 62.469C194.759 62.7425 195.02 63.016 195.306 63.2764C196.087 64.0057 196.997 64.5787 197.986 64.9563C199.99 65.7116 202.085 65.9981 204.206 66.2065C206.627 66.4409 209.06 66.5451 211.467 66.4018C217.518 74.6972 229.178 76.5464 237.675 70.9076C241.162 73.3428 245.677 71.4416 248.644 68.824C251.689 66.1284 256.634 61.9221 255.853 57.3251C255.645 56.088 253.745 55.3197 253.16 56.7652C252.522 58.38 251.976 59.9687 250.935 61.3882C249.933 62.7686 248.696 63.9666 247.473 65.1517C245.586 67.0009 242.216 69.9961 239.497 68.3552C240.03 67.7171 240.485 67.0269 240.863 66.2846C243.257 65.8028 245.404 64.1359 247.161 62.2607C250.05 59.1483 253.069 56.2312 254.136 51.9729C254.383 50.9962 254.201 49.9023 253.706 49.0037C254.123 47.6754 254.097 46.2039 253.459 44.9277C253.381 44.7844 253.303 44.6412 253.212 44.511C256.231 43.1436 258.95 40.9949 259.106 37.3876C259.185 35.5905 258.508 33.7413 257.024 32.6735ZM204.245 61.7007C202.32 61.5575 200.173 61.4533 198.39 60.698C198.364 60.698 198.351 60.6719 198.325 60.6719C198.533 60.5287 198.702 60.3724 198.819 60.1771C199.444 60.1771 200.042 60.2161 200.654 59.9948C200.901 59.9036 201.109 59.7734 201.305 59.6171C201.357 59.6171 201.383 59.6301 201.435 59.6171C202.411 59.5129 203.426 59.4218 204.428 59.4087C206.497 60.0078 208.514 60.8412 210.361 61.8049C208.318 61.844 206.275 61.857 204.232 61.7007H204.245ZM213.862 66.1674C214.018 66.1414 214.161 66.1414 214.317 66.1153C215.202 66.8967 216.178 67.5869 217.232 68.1469C220.017 69.6054 223.608 70.53 227.109 70.543C227.824 70.7644 228.553 70.9597 229.295 71.116C223.777 72.0927 217.987 70.3346 213.862 66.1674ZM255.645 38.2602C254.916 40.3438 252.262 41.3986 250.375 42.2711C250.024 42.1148 249.659 41.9586 249.282 41.8283C249.113 41.7632 248.931 41.6981 248.761 41.633C248.592 40.8126 248.189 40.0052 247.499 39.2759C245.743 37.4007 243.296 37.3095 241.292 36.0203C240.707 35.6426 240.225 35.1087 239.692 34.679C237.844 33.1814 235.892 31.8661 234.096 30.3034C230.414 27.0998 227.109 23.4796 224.259 19.5207C223.439 18.3748 222.632 17.1767 221.812 15.9916C225.053 17.0334 227.915 19.0389 230.088 21.8908C233.159 25.9148 235.228 30.7331 239.34 33.8716C241.227 35.3171 243.413 36.45 245.795 36.7105C248.371 36.997 250.362 35.9682 252.756 35.265C253.797 34.9655 255.034 34.7831 255.606 35.9161C255.957 36.6063 255.905 37.5569 255.658 38.2732L255.645 38.2602Z" fill="#402D00"/>
<path d="M206.041 133.403C205.768 133.259 205.507 133.103 205.234 132.96C204.922 132.726 204.622 132.478 204.349 132.179C204.115 131.879 203.894 131.567 203.725 131.241C203.595 130.994 203.23 130.772 202.957 130.72C202.827 130.694 202.697 130.694 202.567 130.72C202.345 130.525 201.955 130.395 201.669 130.421C201.382 130.447 201.135 130.551 200.914 130.746C200.419 131.176 200.367 131.853 200.693 132.413C201.604 133.989 203.256 134.978 204.857 135.76C205.481 136.059 206.327 135.838 206.626 135.174C206.926 134.51 206.691 133.754 206.041 133.403Z" fill="#1F1F1F"/>
<path d="M240.212 50.6317C238.559 51.413 237.193 52.7283 235.957 54.0696C234.812 55.3067 233.732 56.7653 232.079 57.3383C228.943 58.4191 226.08 55.1375 223.764 53.5096C222.385 52.546 220.914 51.6735 219.249 51.2958C216.906 50.7749 214.694 51.5563 212.391 51.9079C208.37 52.5199 205.234 49.9415 201.981 47.9881C200.224 46.9333 198.285 46.0868 196.229 45.8394C193.809 45.5529 191.792 46.3082 189.866 47.7407C189.45 48.0532 189.866 48.6262 190.309 48.4048C192.43 47.35 195.266 47.2328 197.466 48.1574C199.183 48.8866 200.758 50.0717 202.267 51.1526C205.403 53.4055 208.539 55.463 212.573 54.9551C214.772 54.6817 217.023 53.7571 219.223 54.5124C220.81 55.0593 222.15 56.1662 223.465 57.182C226.028 59.1614 228.943 61.3492 232.378 60.8153C236.62 60.1511 239.054 55.8146 241.708 52.8976C242.593 51.9339 241.513 50.0326 240.212 50.6577V50.6317Z" fill="#513907"/>
<path d="M239.601 35.213C239.276 34.3795 238.326 34.2623 237.701 34.8353C237.194 35.3041 236.114 35.7469 235.424 36.1636C234.487 36.7366 233.524 37.1924 232.483 37.531C230.375 38.2342 228.15 38.4816 225.938 38.5207C221.292 38.6119 216.816 37.3226 212.405 36.0334C208.254 34.8093 203.673 33.2726 199.288 33.5331C196.087 33.7284 192.404 34.4837 190.869 37.6482C190.687 38.0128 191.246 38.4426 191.493 38.0649C194.083 34.2623 198.767 34.666 202.723 35.5255C207.603 36.5803 212.248 38.5337 216.985 40.0443C221.292 41.4247 225.925 42.4665 230.466 41.8675C233.355 41.4898 241.254 39.4844 239.588 35.1869L239.601 35.213Z" fill="#513907"/>
<path d="M227.642 28.311C225.573 23.3234 219.744 20.6538 215.059 18.8697C212.366 17.8539 209.607 16.8903 207.174 15.3276C204.975 13.9081 203.166 11.9678 200.941 10.5613C198.715 9.1549 196.204 8.58191 193.589 8.95956C190.843 9.35024 188.318 10.4962 185.638 11.1213C179.756 12.4887 175.202 7.7094 169.58 6.94107C164.388 6.22483 157.687 7.17548 154.278 11.6292C150.647 16.3824 152.235 22.5811 153.926 27.7641C154.03 28.1027 154.499 27.9204 154.434 27.5948C153.497 22.9588 152.287 17.0075 155.371 12.8924C158.416 8.82934 164.518 7.96985 169.229 8.634C171.975 9.02467 174.135 10.2879 176.438 11.7594C178.442 13.0356 180.524 14.0904 182.957 14.1816C185.378 14.2728 187.759 13.5565 190.036 12.8403C192.352 12.124 194.838 11.3297 197.258 12.0329C199.561 12.71 201.357 14.5072 203.166 15.9917C205.066 17.5544 207.096 18.8176 209.347 19.8073C213.784 21.7607 219.288 22.8806 222.646 26.6572C223.361 27.4516 224.22 28.6366 224.298 29.7435C224.363 30.6421 223.413 30.577 222.633 30.5379C220.056 30.4337 217.389 29.4831 215.046 28.4934C209.763 26.2535 204.909 23.1671 199.887 20.4454C197.18 18.9869 194.382 17.8279 191.246 17.9581C188.318 18.0884 185.521 19.2734 182.593 19.2474C180.121 19.2213 178.117 17.6195 176.113 16.3694C174.031 15.0541 171.701 14.0514 169.177 14.403C166.561 14.7546 166.744 18.7785 169.437 18.5311C171.727 18.3228 173.705 20.0027 175.54 21.1617C177.726 22.5551 179.977 23.5708 182.619 23.6099C185.651 23.662 188.514 22.4639 191.52 22.3337C194.525 22.2035 197.063 23.8573 199.665 25.1466C205.261 27.9334 210.7 31.3453 216.686 33.2466C219.171 34.041 222.359 34.9004 224.949 34.093C227.486 33.2987 228.696 30.7853 227.668 28.298L227.642 28.311Z" fill="#513907"/>
<path d="M138.779 102.188C137.725 100.091 136.75 97.9555 135.813 95.8068C134.017 91.6656 131.974 87.3291 131.076 82.8884C129.241 73.8899 133.874 64.8522 130.608 55.9709C130.191 54.8379 129.554 53.8352 129.046 52.7413C128.382 51.3218 128.838 50.0977 129.554 48.8085C130.855 46.5035 132.403 44.3548 133.809 42.1279C133.965 41.8675 133.587 41.6721 133.405 41.8544C131.623 43.5213 130.139 45.4226 128.76 47.4281C127.706 48.9647 126.639 50.6316 127.081 52.572C127.315 53.5877 127.862 54.4863 128.239 55.4369C128.708 56.622 128.981 57.8591 129.085 59.1353C129.28 61.4924 129.059 63.9407 128.734 66.2717C128.057 71.2333 126.743 76.1297 127.172 81.1825C127.589 86.092 129.033 90.9494 130.777 95.5333C131.779 98.1769 132.898 100.755 134.147 103.295C135.409 105.86 136.476 108.204 138.936 109.78C139.847 110.366 140.927 109.415 140.901 108.478C140.835 106.108 139.82 104.284 138.779 102.201V102.188Z" fill="#513907"/>
<path d="M145.402 88.8007C144.57 85.1023 142.24 82.068 141.134 78.4738C140.041 74.8926 140.08 70.9208 140.21 67.2093C140.275 65.3081 140.51 63.4589 140.77 61.5706C141.03 59.7474 141.538 57.8592 141.525 56.023C141.525 55.4891 140.835 55.476 140.601 55.8277C138.636 58.7447 138.115 63.0552 137.621 66.4671C137.074 70.2827 136.866 74.2545 137.556 78.0571C138.258 81.8988 140.484 84.9851 141.577 88.6705C142.136 90.5327 142.24 92.447 142.54 94.3613C142.826 96.2366 143.19 98.0988 143.62 99.9349C143.763 100.521 144.544 100.326 144.687 99.8698C145.858 96.1714 146.248 92.6033 145.389 88.8007H145.402Z" fill="#513907"/>
<path d="M194.98 51.6472C192.391 51.0872 190.166 50.2929 188.019 48.665C185.937 47.0763 184.102 45.188 181.994 43.6514C177.505 40.3567 172.677 39.3018 167.199 39.3149C165.013 39.3149 162.748 39.2888 161.031 37.7652C159.417 36.3327 158.311 34.3142 156.867 32.6994C154.433 29.9647 150.712 27.6727 146.99 28.2848C146.873 27.9592 146.509 27.7118 146.157 27.855C145.403 28.1936 144.973 28.5973 144.583 29.3396C144.205 30.0559 144.804 30.8893 145.585 30.8633C148.083 30.7721 150.503 30.9284 152.559 32.5171C154.29 33.8584 154.98 35.942 156.125 37.7261C157.257 39.4972 158.584 41.1771 160.445 42.2319C162.657 43.4951 165.221 43.5732 167.706 43.6123C173.028 43.7165 177.335 45.6699 181.33 49.1339C185.143 52.4416 189.71 56.7911 195.228 55.5149C197.245 55.0461 196.789 52.0509 194.993 51.6472H194.98Z" fill="#513907"/>
<path d="M170.895 61.1147C170.088 60.5938 169.294 60.2161 169.593 59.1222C169.945 57.859 170.778 56.6609 171.376 55.5019C172.014 54.2908 172.951 53.0146 172.912 51.5952C172.886 50.7097 171.845 50.2669 171.142 50.7227C169.919 51.5171 169.372 53.1709 168.709 54.4211C168.045 55.6843 167.225 56.9605 166.822 58.3409C166.08 60.9323 167.668 62.3518 169.619 63.628C170.673 64.3052 170.947 64.9954 170.595 66.2325C170.231 67.5348 169.58 68.7328 169.203 70.0221C168.67 71.8452 168.305 75.6608 170.426 76.6766C170.713 76.8068 171.077 76.6635 171.142 76.338C171.337 75.2441 170.934 74.1242 171.116 72.9782C171.324 71.702 171.714 70.5039 172.248 69.3449C173.172 67.3394 174.213 64.9303 172.873 62.8597C172.378 62.1044 171.623 61.5965 170.882 61.1147H170.895Z" fill="#513907"/>
<path d="M161.317 48.3395C161.2 47.7796 160.38 47.9228 160.263 48.4046C159.821 50.3189 159.6 52.2333 158.884 54.0825C158.168 55.9447 157.114 57.6376 155.774 59.1092C154.473 60.5547 153.692 62.3127 153.484 64.24C153.315 65.8678 153.354 68.5114 154.993 69.423C155.397 69.6574 155.826 69.423 156.06 69.0714C156.516 68.3942 156.49 67.3394 156.477 66.558C156.464 65.6855 156.477 64.787 156.646 63.9275C156.997 62.0653 158.194 60.6198 159.079 58.9919C160.732 55.9317 162.033 51.8165 161.317 48.3265V48.3395Z" fill="#513907"/>
<path d="M155.552 79.7368C154.72 81.0651 154.355 82.9664 154.772 84.477C154.98 85.2453 155.474 85.8964 156.138 86.3262C156.841 86.7689 157.66 86.8992 158.415 87.2247C159.209 87.5763 160.094 88.4098 160.068 89.3474C160.029 90.3111 159.222 90.9492 159.053 91.8738C158.975 92.2905 159.313 92.7723 159.768 92.7072C160.836 92.564 161.499 91.6394 161.85 90.6887C162.241 89.6339 162.111 88.514 161.473 87.5763C160.914 86.7559 160.055 86.1308 159.157 85.7271C158.376 85.3886 157.244 85.3104 156.645 84.6202C156.06 83.9431 156.177 82.8492 156.359 82.0418C156.541 81.2213 156.867 80.2707 157.608 79.7889C159.573 78.5127 161.317 80.6484 162.67 81.7683C162.918 81.9767 163.269 81.7292 163.178 81.4297C162.267 78.2913 157.517 76.5983 155.539 79.7238L155.552 79.7368Z" fill="#1F1F1F"/>
<path d="M223.491 97.7992C221.07 102.604 218.624 107.501 218.364 112.983C218.221 115.835 218.923 118.622 218.975 121.474C218.975 121.813 219.066 122.49 218.754 122.737C218.611 122.855 217.999 122.815 217.804 122.842C217.18 122.933 216.555 123.063 215.956 123.232C214.59 123.61 213.653 124.157 212.599 125.107C212.235 125.433 212.69 125.967 213.094 125.85C214.551 125.407 216.047 124.86 217.544 124.6C218.429 124.443 219.665 124.6 220.29 123.805C220.992 122.907 220.693 121.175 220.615 120.133C220.485 118.583 220.198 117.033 220.055 115.484C219.496 109.428 222.046 103.685 224.519 98.3071C224.831 97.6429 223.829 97.135 223.491 97.7862V97.7992Z" fill="#1F1F1F"/>
<path d="M204.376 126.279C202.398 125.602 200.511 124.691 198.689 123.662C196.894 122.646 195.163 121.513 193.471 120.328C192.652 119.755 191.741 119.208 190.986 118.544C190.752 118.336 190.596 118.101 190.439 117.841C189.971 117.059 189.32 116.395 188.787 115.666C186.692 112.775 184.649 109.663 183.165 106.407C181.773 103.347 181.148 99.7655 180.342 96.4969C179.912 94.7779 179.691 93.0069 179.691 91.2228C179.691 89.5819 180.368 87.6285 179.691 86.0528C179.405 85.3756 178.78 84.6334 178.09 84.3338C177.544 84.0994 176.88 84.0343 176.308 83.852C174.512 83.266 172.56 83.1358 170.712 83.5134C170.452 83.5655 170.166 83.6437 169.971 83.826C169.814 83.9692 169.736 84.1776 169.671 84.3859C169.255 85.6491 169.203 86.9774 169.255 88.2927C169.294 89.3345 169.385 90.3893 169.411 91.4311C169.411 91.952 169.424 92.4729 169.385 92.9938C169.346 93.3715 169.177 93.671 169.112 94.0226C168.904 95.1035 168.773 96.1843 168.526 97.2652C168.266 98.3852 167.941 99.5051 167.576 100.599C166.822 102.891 165.872 105.118 164.883 107.306C162.944 111.616 160.784 115.861 159.391 120.393C157.752 125.706 157.466 131.228 159.17 136.567C159.678 138.143 160.289 139.771 161.109 141.216C161.265 141.49 161.434 141.75 161.656 141.972C161.981 142.284 162.397 142.479 162.723 142.792C163.555 143.586 163.803 144.928 164.531 145.839C166.067 147.78 168.37 148.952 170.621 149.85C171.558 150.215 172.508 150.54 173.471 150.853C175.826 151.621 178.169 152.377 180.524 153.145C182.111 153.666 183.699 154.174 185.325 154.512C186.77 154.825 188.396 155.124 189.867 154.864C190.817 154.695 191.441 154.109 192.144 153.483C193.211 152.52 194.447 151.83 195.605 150.996C196.737 150.189 197.831 149.329 198.885 148.431C201.097 146.516 203.127 144.42 204.909 142.089C205.937 140.747 207.004 139.419 207.798 137.922C208.189 137.179 208.514 136.398 208.696 135.577C208.865 134.783 208.787 133.963 208.943 133.168C209.06 132.569 209.321 132.009 209.399 131.41C209.516 130.629 209.334 129.73 208.982 129.027C208.163 127.386 206.224 126.878 204.623 126.345C204.545 126.318 204.454 126.292 204.376 126.266V126.279ZM200.056 132.96C200.524 133.559 200.928 134.197 201.253 134.887C201.578 135.604 201.838 136.385 201.916 137.179C201.969 137.778 201.76 138.755 201.396 139.224C201.149 139.549 200.771 139.758 200.381 139.888C199.041 140.357 197.531 140.07 196.256 139.432C194.981 138.794 193.914 137.83 192.86 136.893C191.637 135.799 190.426 134.705 189.203 133.611C188.553 133.025 187.876 132.413 187.433 131.658C186.926 130.772 187.03 130.017 187.095 129.066C187.121 128.767 187.147 128.532 187.303 128.259C187.616 127.751 188.188 127.412 188.774 127.308C189.646 127.165 190.544 127.451 191.376 127.751C193.81 128.61 196.269 129.587 198.286 131.202C198.937 131.723 199.535 132.322 200.056 132.973V132.96Z" fill="#402D00"/>
<path d="M198.325 135.122C197.453 134.405 196.581 133.689 195.683 133.012C195.384 132.739 195.085 132.465 194.798 132.179C194.642 132.022 194.486 131.827 194.304 131.697C194.239 131.593 194.161 131.514 194.07 131.449C194.005 131.397 193.979 131.384 193.992 131.384C193.965 131.371 193.952 131.345 193.939 131.345C193.796 131.267 193.666 131.267 193.562 131.28C193.432 131.189 193.315 131.111 193.185 131.033C193.042 130.954 192.937 130.902 192.872 130.85C192.521 130.603 192.027 130.551 191.727 130.915C191.467 131.241 191.441 131.775 191.792 132.061C191.936 132.179 192.079 132.309 192.235 132.439C192.3 132.504 192.378 132.569 192.456 132.634C192.677 132.83 192.911 132.999 193.133 133.194C193.562 133.572 193.965 133.963 194.369 134.366C194.46 134.458 194.551 134.562 194.642 134.653C194.694 134.705 194.746 134.757 194.785 134.809C194.824 134.848 194.915 134.952 194.824 134.861C194.902 134.952 194.98 135.044 195.072 135.135C195.215 135.291 195.306 135.408 195.397 135.525C195.514 135.669 195.631 135.851 195.774 135.981C195.904 136.098 196.074 136.19 196.23 136.281C196.451 136.424 196.646 136.567 196.88 136.697C197.062 136.789 197.271 136.736 197.401 136.606C197.752 136.75 198.156 136.723 198.429 136.398C198.728 136.02 198.741 135.434 198.351 135.109L198.325 135.122Z" fill="#1F1F1F"/>
<path d="M186.405 67.5478C186.079 66.2325 185.143 65.2298 183.906 64.7089C183.386 64.4875 182.826 64.3833 182.306 64.1489C182.137 64.0708 181.993 64.0057 181.837 63.8754C181.837 63.9015 181.837 63.9406 181.837 63.9666C181.772 63.7713 181.72 63.6671 181.681 63.615C181.85 62.5471 180.783 61.7137 179.729 62.2997C177.27 63.6541 178.896 66.8576 180.926 67.6389C181.772 67.9645 182.865 67.9385 182.761 69.0454C182.644 70.3737 181.902 71.7671 181.434 73.0042C180.406 75.6608 179.157 78.1872 177.686 80.6354C176.945 81.8595 176.216 83.0967 175.435 84.2817C174.758 85.3235 173.913 86.3523 173.574 87.5764C173.47 87.9541 173.874 88.2145 174.199 88.1364C175.357 87.8499 176.411 86.9774 177.27 86.183C178.324 85.2063 179.326 84.2166 180.211 83.0837C181.98 80.7917 183.334 78.2263 184.453 75.5697C185.442 73.1996 187.068 70.2044 186.418 67.5608L186.405 67.5478Z" fill="#513907"/>
<path d="M172.638 97.682C172.053 100.247 171.259 102.774 170.153 105.157C169.021 107.579 167.524 109.676 166.015 111.864C165.663 112.371 166.301 112.983 166.743 112.515C168.578 110.561 169.958 108.048 171.064 105.626C172.196 103.138 173.015 100.547 173.432 97.8513C173.51 97.3304 172.755 97.1741 172.638 97.682Z" fill="#513907"/>
<path d="M172.235 107.722C171.259 110.001 170.231 112.215 168.838 114.273C168.175 115.249 167.537 116.226 166.821 117.164C166.431 117.672 166.041 118.166 165.65 118.674C165.208 119.26 164.909 119.69 164.896 120.445C164.896 120.849 165.312 121.175 165.689 121.149C166.991 121.031 167.862 119.703 168.591 118.726C169.385 117.645 170.127 116.539 170.686 115.314C171.766 113.009 172.638 110.496 172.95 107.97C173.002 107.566 172.417 107.293 172.248 107.722H172.235Z" fill="#513907"/>
<path d="M171.714 118.505C171.259 119.403 170.972 120.367 170.569 121.292C170.166 122.242 169.723 123.141 169.229 124.04C168.266 125.811 167.069 127.425 165.689 128.91C165.117 129.535 163.724 130.889 164.661 131.736C165.611 132.595 166.939 131.202 167.537 130.538C168.916 128.988 170.062 127.204 170.959 125.342C171.454 124.326 171.844 123.232 172.157 122.151C172.482 121.044 172.755 119.859 172.664 118.7C172.625 118.192 171.935 118.049 171.701 118.505H171.714Z" fill="#513907"/>
<path d="M173.341 125.68C172.86 126.722 172.248 127.738 171.701 128.754C171.142 129.782 170.608 130.811 170.023 131.827C169.463 132.778 168.865 133.715 168.24 134.614C167.59 135.564 166.653 136.593 166.418 137.739C166.314 138.26 166.848 138.807 167.381 138.586C168.474 138.13 169.255 137.023 169.919 136.085C170.647 135.057 171.311 133.989 171.923 132.882C172.508 131.827 173.042 130.759 173.458 129.626C173.888 128.441 174.148 127.269 174.447 126.058C174.603 125.42 173.64 125.068 173.354 125.68H173.341Z" fill="#513907"/>
<path d="M176.984 130.915C176.737 130.564 176.06 130.733 176.138 131.202C176.23 131.762 175.813 132.387 175.605 132.895C175.358 133.468 175.11 134.054 174.85 134.614C174.33 135.721 173.796 136.828 173.185 137.908C172.612 138.911 172.04 139.914 171.376 140.865C170.725 141.789 169.385 143.117 169.801 144.342C169.892 144.602 170.127 144.823 170.4 144.862C170.764 144.928 171.012 144.849 171.298 144.706C172.443 144.276 173.224 142.857 173.861 141.906C174.603 140.786 175.241 139.627 175.774 138.39C176.295 137.166 176.711 135.903 176.997 134.601C177.245 133.494 177.674 131.918 176.984 130.915Z" fill="#513907"/>
<path d="M178.962 138.156C178.637 139.745 178.103 141.255 177.297 142.675C176.919 143.352 176.49 143.977 176.034 144.589C175.787 144.928 175.488 145.227 175.267 145.579C175.033 145.931 174.681 146.295 174.525 146.725C174.395 147.076 174.382 147.428 174.655 147.728C174.889 147.988 175.28 148.131 175.631 148.001C176.503 147.676 177.18 146.816 177.713 146.087C178.26 145.331 178.741 144.537 179.144 143.691C179.938 142.076 180.524 140.331 180.823 138.56C181.018 137.349 179.21 136.958 178.962 138.169V138.156Z" fill="#513907"/>
<path d="M186.38 141.88C185.859 141.776 185.469 142.115 185.313 142.57C185.065 143.313 184.753 144.016 184.389 144.706C184.05 145.357 183.53 145.982 183.048 146.555C182.541 147.167 182.007 147.766 181.461 148.326C181.136 148.652 180.81 148.991 180.537 149.368C180.498 149.42 180.485 149.446 180.459 149.472C180.394 149.551 180.329 149.629 180.277 149.707C180.134 149.889 180.056 150.058 180.03 150.228C179.938 150.41 179.834 150.579 179.769 150.801C179.665 151.165 180.003 151.4 180.303 151.426C180.498 151.426 180.667 151.387 180.836 151.348C181.057 151.374 181.279 151.322 181.487 151.217C181.604 151.165 181.708 151.1 181.825 151.048C181.864 151.022 181.903 151.009 181.916 151.009C181.929 151.009 181.955 150.996 181.994 150.983C182.45 150.788 182.892 150.358 183.244 150.019C183.92 149.355 184.48 148.626 184.974 147.819C185.43 147.089 185.755 146.308 186.119 145.527C186.497 144.693 186.809 143.834 187.056 142.948C187.186 142.479 186.822 141.984 186.367 141.88H186.38Z" fill="#513907"/>
<path d="M196.334 144.159C195.917 143.951 195.475 144.146 195.24 144.524C195.097 144.771 194.889 145.019 194.759 145.279C194.733 145.305 194.707 145.318 194.642 145.384C194.603 145.436 194.564 145.501 194.525 145.553C194.447 145.67 194.369 145.787 194.278 145.891C193.913 146.386 193.536 146.868 193.132 147.337C192.742 147.793 192.378 148.275 191.974 148.73C191.779 148.952 191.571 149.173 191.363 149.394C191.129 149.642 190.855 149.876 190.712 150.176C190.413 150.527 190.101 150.892 190.048 151.361C189.983 151.973 190.348 152.39 190.959 152.416C191.519 152.442 191.974 152.051 192.417 151.752C192.664 151.621 192.859 151.439 193.08 151.218C193.276 151.009 193.471 150.801 193.653 150.593C194.017 150.176 194.356 149.746 194.694 149.316C195.058 148.821 195.358 148.288 195.644 147.741C195.878 147.285 196.164 146.79 196.282 146.282C196.412 145.957 196.542 145.618 196.672 145.279C196.815 144.863 196.737 144.407 196.308 144.185L196.334 144.159Z" fill="#513907"/>
</g>
<defs>
<clipPath id="clip0_1209_5781">
<rect width="324" height="981" fill="white"/>
</clipPath>
</defs>
</svg>
