<svg width="389" height="602" viewBox="0 0 389 602" fill="none" xmlns="http://www.w3.org/2000/svg">
<path d="M114.03 510.794C114.03 510.794 87.8755 583.481 78.5475 669.404C69.2194 755.326 78.2577 1189.78 78.2577 1189.78C78.2577 1189.78 151.036 1194.87 153.577 1190.67C156.118 1186.48 192.826 887.45 192.826 887.45L215.745 711.649L225.719 557.128L114.039 510.802L114.03 510.794Z" fill="#EBBF91"/>
<path d="M318.378 510.934C318.378 510.934 344.036 610.82 345.568 661.317C347.107 711.814 345.386 898.988 345.386 898.988L342.844 1191.85C342.844 1191.85 250.806 1191.74 248.265 1187.54C245.732 1183.35 209.967 898.88 209.967 898.88L208.196 711.674L210.323 552.493L318.37 510.943L318.378 510.934Z" fill="#EBBF91"/>
<path d="M178.317 165.127C178.317 167.701 174.311 219.655 172.606 223.272C170.901 226.889 128.764 234.694 123.235 239.586C117.706 244.477 188.15 291.688 210.366 286.3C232.581 280.912 292.663 231.714 288.69 231.143C284.717 230.572 243.316 219.514 241.619 216.394C239.922 213.273 233.913 165.069 230.561 163.935C227.209 162.801 178.317 165.118 178.317 165.118V165.127Z" fill="#CF793C"/>
<path d="M165.265 220.582C165.223 220.689 165.182 220.797 165.141 220.905C163.551 225.101 160.274 225.904 156.102 227.087C127.895 235.099 100.283 246.406 72.6216 256.255C68.2597 257.811 63.5916 259.599 61.0754 263.481C58.3854 267.636 59.3704 272.271 59.0807 276.881C58.7744 281.773 59.5524 286.35 60.2891 291.225C62.0603 302.953 63.964 314.665 65.8511 326.377C72.3567 366.71 79.1438 406.994 85.4756 447.352C88.4884 466.546 90.7315 485.541 92.9331 504.818C94.3485 517.159 97.7006 532.62 107.409 541.071C116.348 548.859 122.986 557.981 134.723 559.586C187.141 566.746 246.403 566.688 298.498 557.467C309.589 555.506 321.541 552.162 328.005 542.933C338.525 527.902 329.255 506.25 330.488 489.299C332.003 468.582 333.956 447.89 335.835 427.198C339.394 388.04 343.094 348.89 346.106 309.682C347.24 294.892 348.391 280.084 348.887 265.26C349.036 260.981 351.205 249.178 348.06 245.47C344.319 241.059 335.404 239.387 330.215 237.765C319.579 234.437 308.753 231.706 297.894 229.215C288.309 227.013 278.675 224.977 268.957 223.437C267.319 223.172 266.069 223.355 264.521 222.742C262.857 222.08 261.186 221.517 259.472 220.987C256.137 219.953 252.669 218.943 249.97 216.617C246.105 213.273 244.681 208.001 242.927 203.2C242.521 202.075 241.892 200.8 240.708 200.61C240.038 200.494 239.368 200.784 238.747 201.065C236.082 202.273 233.441 203.531 230.826 204.831C228.914 205.783 226.952 206.809 225.62 208.473C224.262 210.169 223.683 212.388 223.609 214.556C223.534 216.667 224.155 218.72 224.097 220.805C224.039 222.916 223.666 225.076 223.302 227.162C222.458 232.02 221.283 236.813 219.95 241.555C216.581 253.549 211.764 265.136 205.606 275.971C206.707 274.026 200.466 265.517 199.473 263.332C196.8 257.455 194.548 251.347 192.678 245.172C190.518 238.063 191.511 229.579 192.612 222.328C192.926 220.251 193.274 218.182 193.563 216.104C193.919 213.588 195.409 210.327 193.737 208.001C192.727 206.602 190.898 206.139 189.251 205.617C186.139 204.624 183.209 203.068 180.651 201.04C179.137 199.84 176.049 196.902 173.873 198.218C172.366 199.128 171.762 203.233 171.191 204.756C169.213 210.029 167.251 215.309 165.257 220.582H165.265Z" fill="#E6EBFF"/>
<path d="M222.698 215.425C222.847 221.492 226.481 227.476 228.79 232.981C231.695 239.884 234.484 246.836 237.191 253.814C237.952 255.775 240.386 255.634 241.652 254.451C248.654 247.929 258.537 239.437 262.071 230.349C262.75 228.61 261.21 225.126 258.967 226.897C255.094 229.968 252.42 234.371 249.184 238.096C245.55 242.276 241.677 246.207 237.63 249.981C239.119 250.197 240.609 250.403 242.091 250.619C239.376 243.658 236.496 236.788 233.367 230.001C230.942 224.745 228.773 218.173 224.122 214.507C223.476 214.002 222.673 214.747 222.69 215.425H222.698Z" fill="#B4C2FE"/>
<path d="M233.059 250.834C213.907 290.472 210.993 336.317 211.631 379.614C212.185 416.909 211.804 454.569 214.279 491.798C215.736 513.674 217.846 536.552 223.947 557.658C224.551 559.752 227.804 559.429 227.539 557.12C225.271 537.321 221.116 517.862 219.452 497.965C218.095 481.808 217.739 465.61 217.598 449.404C217.251 408.277 213.998 366.578 218.385 325.599C221.099 300.255 228.251 276.426 236.304 252.365C236.966 250.387 234.044 248.798 233.051 250.842L233.059 250.834Z" fill="#B4C2FE"/>
<path d="M225.355 218.33C216.739 242.573 209.546 267.172 203.711 292.235C198.141 316.171 197.297 340.133 195.79 364.583C193.183 406.944 191.47 449.413 194.077 491.815C194.731 502.41 195.567 512.987 196.444 523.565C197.487 536.072 197.644 549.124 200.119 561.432C200.715 564.387 204.655 563.518 204.729 560.737C205.027 549.389 203.124 537.752 202.172 526.446C201.369 516.869 200.599 507.285 199.962 497.692C198.778 479.996 198.091 462.283 198.108 444.546C198.124 421.851 199.101 399.172 200.26 376.51C201.526 351.712 201.311 326.071 206.401 301.712C212.22 273.877 219.52 246.282 227.929 219.125C228.484 217.346 225.984 216.543 225.347 218.33H225.355Z" fill="#B4C2FE"/>
<path d="M108.385 564.983C108.419 559.95 109.453 555.034 109.677 550.002C109.817 546.724 111.804 544.324 115.255 544.771C151.409 549.464 188.009 549.993 224.427 549.911C241.991 549.869 259.331 549.215 276.745 546.873C294.764 544.448 312.791 541.327 330.959 540.276C330.984 540.26 331.017 540.251 331.042 540.235C333.574 538.919 336.629 541.418 337.283 543.744C339.286 550.804 340.519 558.163 332.681 562.036C324.404 566.133 313.842 567.64 304.845 569.444C283.938 573.64 262.973 574.501 241.701 574.551C220.446 574.6 199.191 574.162 177.953 573.607C157.02 573.053 135.939 573.061 115.048 571.67C111.514 571.439 108.361 568.823 108.385 564.983Z" fill="#333333"/>
<path d="M267.997 545.855C266.698 551.251 268.345 556.822 268.544 562.318C268.742 567.913 267.824 573.822 269.702 579.186C271.201 583.457 276.812 583.986 278.104 579.186C279.618 573.558 278.178 567.846 277.367 562.193C276.556 556.532 276.862 550.018 273.932 544.994C272.417 542.395 268.709 542.875 267.997 545.855Z" fill="#403A5B"/>
<path d="M154.323 548.876C151.177 557.434 148.893 568.889 150.416 577.969C151.301 583.25 157.989 582.347 159.363 577.969C160.663 573.814 160.812 569.253 161.548 564.958C162.301 560.579 163.319 556.234 164.031 551.855C165.14 545.027 156.822 542.047 154.314 548.876H154.323Z" fill="#403A5B"/>
<path d="M197.23 573.45C197.362 575.114 198.505 576.297 200.152 576.38C206.094 576.686 212.046 576.926 217.997 577.067C220.976 577.141 223.948 577.191 226.927 577.216C228.74 577.233 231.745 577.795 233.441 576.719C236.305 574.898 235.759 571.017 235.808 568.004C235.916 562.044 235.808 555.936 234.799 550.051C234.476 548.197 233.011 547.353 231.728 547.51C231.347 547.27 230.9 547.121 230.362 547.13C220.587 547.312 210.845 546.956 201.128 545.979C199.448 545.813 197.669 547.022 197.95 548.959C199.15 557.153 196.584 565.231 197.23 573.442V573.45ZM215.456 570.868C211.168 570.752 206.881 570.57 202.593 570.363C202.444 564.205 203.76 558.121 203.504 551.971C212.269 552.716 221.034 553.056 229.841 552.898C230.304 558.759 231.413 565.471 230.329 571.166C225.711 571.968 220.016 570.992 215.456 570.868Z" fill="#633F33"/>
<path d="M192.107 209.979C189.706 215.938 188.572 222.419 186.702 228.577C184.509 235.819 182.034 242.995 179.104 249.981H183.681C177.225 240.231 169.494 230.398 160.919 222.436C158.23 219.936 155.432 223.843 157.344 226.409C164.263 235.687 171.977 244.767 179.509 253.557C181.041 255.336 183.317 254.12 183.937 252.257C188.324 239.205 194.217 224.687 194.788 210.807C194.846 209.383 192.711 208.473 192.098 209.996L192.107 209.979Z" fill="#B4C2FE"/>
<path d="M191.908 210.136C188.978 221.302 189.474 233.171 191.328 244.485C193.182 255.783 196.774 268.844 203.321 278.396C205.564 281.665 209.322 278.661 207.998 275.358C203.752 264.822 199.175 255.129 196.973 243.865C194.813 232.815 194.937 221.782 194.846 210.575C194.829 208.771 192.388 208.299 191.908 210.136Z" fill="#B4C2FE"/>
<path d="M182.571 251.065C182.307 255.775 184.285 260.311 185.584 264.789C187.066 269.912 188.398 275.068 189.714 280.241C191.022 285.406 192.338 290.571 193.505 295.777C194.532 300.354 194.788 305.503 197.246 309.533C198.206 311.106 200.822 311.048 201.153 308.962C201.956 303.938 200.243 298.956 199.125 294.047C197.942 288.858 196.692 283.668 195.227 278.545C193.762 273.43 192.098 268.356 190.377 263.315C188.862 258.871 187.645 253.706 184.376 250.23C183.647 249.451 182.621 250.138 182.571 251.057V251.065Z" fill="#B4C2FE"/>
<path d="M224.486 242.433C224.445 242.549 224.412 242.656 224.37 242.772C224.229 243.368 224.229 243.964 224.37 244.552C224.511 245.106 224.768 245.603 225.148 246.033C225.868 246.828 227.035 247.25 228.086 246.894C228.194 246.861 228.302 246.819 228.409 246.786C229.543 246.397 230.346 245.47 230.636 244.312C230.934 243.12 230.644 241.787 229.816 240.868C229.038 240.008 227.847 239.619 226.721 239.958C226.166 240.132 225.703 240.438 225.314 240.868C224.916 241.324 224.643 241.845 224.494 242.433H224.486Z" fill="#B4C2FE"/>
<path d="M205.706 298.575C205.706 298.633 205.706 298.691 205.706 298.74C205.706 299.692 205.921 300.586 206.359 301.43C206.773 302.217 207.344 302.854 208.081 303.342C208.818 303.822 209.62 304.062 210.506 304.071C211.383 304.071 212.195 303.822 212.931 303.342C212.981 303.317 213.022 303.293 213.072 303.268C213.825 302.771 214.404 302.117 214.827 301.314C215.274 300.454 215.497 299.543 215.497 298.566C215.497 296.737 214.636 294.883 213.072 293.873C211.566 292.897 209.637 292.897 208.131 293.873C207.377 294.37 206.798 295.024 206.376 295.827C205.929 296.688 205.706 297.598 205.706 298.575Z" fill="#B4C2FE"/>
<path d="M206.806 374.855C207.419 374.879 207.982 374.739 208.495 374.432C209.049 374.225 209.521 373.894 209.902 373.431C210.332 372.976 210.638 372.454 210.804 371.867C211.077 371.279 211.21 370.658 211.185 369.996C211.135 369.566 211.077 369.135 211.027 368.705C210.829 367.894 210.456 367.182 209.902 366.561C209.604 366.304 209.314 366.056 209.016 365.8C208.346 365.361 207.609 365.146 206.806 365.137C206.194 365.113 205.631 365.253 205.118 365.56C204.563 365.766 204.091 366.098 203.711 366.561C203.28 367.016 202.974 367.538 202.809 368.125C202.535 368.713 202.403 369.334 202.428 369.996C202.477 370.426 202.535 370.857 202.585 371.287C202.784 372.098 203.156 372.81 203.711 373.431C204.009 373.687 204.298 373.936 204.596 374.192C205.267 374.631 206.003 374.846 206.806 374.855Z" fill="#B4C2FE"/>
<path d="M204.721 439.025C210.258 439.025 210.274 429.573 204.721 429.573C199.167 429.573 199.167 439.025 204.721 439.025Z" fill="#B4C2FE"/>
<path d="M208.751 516.497C208.917 516.472 209.091 516.439 209.256 516.455C208.867 516.397 208.478 516.339 208.089 516.282C208.106 516.282 208.122 516.282 208.139 516.29C209.703 516.72 211.292 516.24 212.377 515.048C212.923 514.427 213.295 513.716 213.494 512.913C213.701 512.052 213.701 511.2 213.494 510.339C213.386 509.751 213.121 509.172 212.79 508.675C212.393 507.914 211.83 507.293 211.11 506.813C210.39 506.349 209.604 506.109 208.751 506.101C207.021 506.101 205.507 507.177 204.712 508.675C203.86 510.281 203.86 512.317 204.712 513.923C205.109 514.684 205.672 515.305 206.392 515.785C207.112 516.248 207.899 516.488 208.751 516.497Z" fill="#B4C2FE"/>
<path d="M241.172 558.924C238.863 549.613 236.752 540.251 234.848 530.857C231.761 515.644 227.126 499.438 226.547 484.051C225.893 466.62 225.885 449.164 226.555 431.733C227.672 402.574 230.66 373.489 235.502 344.718C239.467 321.195 240.551 298.227 244.234 274.597C246.088 262.703 257.469 220.317 264.049 219.315C273.775 217.834 288.309 226.442 297.893 228.643C308.753 231.143 319.579 233.866 330.215 237.193C335.404 238.816 344.318 240.488 348.06 244.899C350.485 247.755 349.102 256.148 349.036 259.467C348.829 270.508 348.076 281.549 347.315 292.566C345.121 324.374 342.224 356.14 339.352 387.891C337.531 407.97 335.206 428.05 334.254 448.196C333.368 466.943 336.753 486.99 339.303 505.604C344.674 544.853 353.729 583.606 366.327 621.166C367.303 624.088 368.23 627.581 366.36 630.031C364.969 631.852 362.503 632.406 360.243 632.812C335.156 637.281 309.556 638.812 284.112 637.372C275.082 636.859 265.912 636.677 262.096 627.995C257.792 618.195 254.969 607.211 251.791 596.981C247.884 584.4 244.342 571.712 241.172 558.924Z" fill="#4D4E4E"/>
<path d="M58.8407 260.725C60.8024 257.803 67.2003 255.99 70.1883 254.6C78.3659 250.776 86.6841 247.242 95.0189 243.774C113.137 236.233 131.47 228.701 150.275 223.024C152.585 222.328 161.491 219.307 163.485 220.888C165.091 222.154 165.596 224.331 166.001 226.334C175.189 271.799 183.035 317.529 189.516 363.457C192.612 385.416 194.913 407.49 196.303 429.623C198.116 458.675 201.981 488.099 197.983 516.927C193.34 550.391 186.396 583.531 177.192 616.043C175.785 621.026 174.179 626.232 170.471 629.849C160.572 639.508 142.752 634.922 130.874 632.87C115.148 630.147 99.6706 625.983 84.706 620.43C76.3298 617.326 67.6722 613.105 67.1756 603.321C66.6293 592.611 72.5969 582.786 75.171 572.689C79.5246 555.605 84.0273 538.546 87.2801 521.215C89.5148 509.279 93.6202 495.614 93.4877 483.456C93.3719 472.406 89.5894 460.322 87.8595 449.305C81.5277 408.947 74.7406 368.663 68.235 328.33C65.694 312.579 63.1281 296.82 60.8934 281.02C60.3554 277.196 56.4322 264.317 58.8407 260.716V260.725Z" fill="#4D4E4E"/>
<path d="M197.313 518.583C192.554 532.248 191.188 547.444 188.473 561.622C185.792 575.618 183.391 589.838 179.783 603.627C176.356 616.713 169.213 627.034 155.225 629.716C140.923 632.456 126.579 626.405 113.443 621.481C110.431 620.347 109.57 625.296 112.194 626.505C125.577 632.646 139.838 638.382 154.861 635.998C167.806 633.946 177.457 626.041 182.349 613.94C188.018 599.903 189.756 583.837 192.446 569.03C195.393 552.799 199.862 535.476 199.44 518.897C199.407 517.54 197.752 517.316 197.313 518.574V518.583Z" fill="#333333"/>
<path d="M152.957 521.074C150.763 525.336 150.275 529.632 149.812 534.342C149.58 536.709 149.588 539.763 148.893 541.998C147.395 546.815 145.317 546.161 141.195 545.01C129.997 541.882 118.707 538.422 107.211 536.626C104.032 536.129 102.965 540.707 105.919 541.816C113.236 544.564 120.776 546.393 128.341 548.354C132.107 549.331 135.865 550.316 139.648 551.251C142.222 551.88 145.384 553.172 148.098 552.716C152.766 551.93 153.611 546.368 154.165 542.527C155.15 535.699 154.803 528.697 155.407 521.819C155.531 520.428 153.602 519.832 152.957 521.082V521.074Z" fill="#333333"/>
<path d="M266.665 512.549C268.08 525.701 271.854 538.439 272.732 551.731C272.864 553.718 274.536 556.06 276.854 555.224C286.091 551.897 294.906 550.564 304.73 550.54C313.272 550.515 323.138 552.327 331.316 549.381C333.467 548.603 333.823 544.787 331.316 544.191C322.128 541.998 311.078 542.784 301.635 542.908C292.34 543.032 282.631 544.084 274.346 548.603C275.943 549.323 277.532 550.043 279.13 550.763C277.342 537.793 275.885 523.433 270.216 511.473C269.338 509.619 266.45 510.546 266.665 512.54V512.549Z" fill="#333333"/>
<path d="M233.036 519.261C235.668 538.571 239.831 557.674 243.779 576.752C245.749 586.279 247.719 595.806 249.697 605.332C251.187 612.508 252.602 619.842 255.872 626.472C268.982 653.065 302.967 639.268 325.671 639.135C328.683 639.119 328.634 634.252 325.671 634.037C314.662 633.234 303.712 635.626 292.778 636.47C286.612 636.95 279.734 637.265 273.783 635.411C265.158 632.721 260.606 625.42 257.966 617.226C253.124 602.187 250.988 585.923 247.719 570.487C244.036 553.08 240.485 535.6 235.618 518.475C235.072 516.571 232.796 517.498 233.036 519.269V519.261Z" fill="#333333"/>
<path d="M180.336 483.762C179.988 483.836 178.358 482.942 177.845 482.752C176.57 482.28 175.295 481.8 174.012 481.37C171.96 480.683 169.328 479.805 167.408 481.138C166.472 481.783 166.249 482.826 166.398 483.886C166.927 487.503 171.629 489.142 174.733 489.68C177.745 490.201 181.213 490.516 182.993 487.586C184.119 485.723 182.422 483.306 180.344 483.753L180.336 483.762Z" fill="#333333"/>
<path d="M126.57 233.519C128.283 245.586 132.819 257.488 135.55 269.382C138.141 280.639 140.4 291.962 142.205 303.375C143.239 309.939 144.142 316.527 144.878 323.132C145.284 326.774 144.994 331.426 146.592 334.786C148.297 338.378 150.862 339.024 154.587 339.165C160.671 339.396 165.885 340.646 171.058 343.974C170.644 342.848 170.23 341.722 169.825 340.597C168.633 345.124 161.291 345.985 159.23 350.57C156.499 356.67 161.3 364.831 163.079 370.542C168.269 387.204 171.53 404.395 173.947 421.652C174.369 424.657 179.029 423.903 178.755 420.932C177.324 405.189 174.22 389.753 169.792 374.573C168.103 368.804 160.96 355.247 166.348 350.769C169.932 347.798 173.549 347.044 175.014 342.186C175.387 340.953 174.807 339.529 173.781 338.809C170.181 336.293 166.282 334.348 161.97 333.412C160.166 333.023 158.287 333.081 156.499 332.734C151.351 331.732 151.417 330.308 150.862 325.425C149.695 315.203 148.272 305.023 146.467 294.892C144.572 284.289 142.312 273.753 139.614 263.324C136.949 253.011 134.549 241.597 129.508 232.153C128.482 230.233 126.338 231.78 126.586 233.519H126.57Z" fill="#333333"/>
<path d="M292.141 234.611C283.682 252.671 279.892 273.239 276.043 292.731C274.222 301.968 273.974 313.481 268.875 321.626C263.801 329.737 253.935 333.727 245.493 337.211C243.382 338.08 242.844 340.621 244.268 342.376C246.917 345.662 249.573 348.948 252.222 352.234C253.488 353.806 255.467 355.627 256.253 357.514C257.569 360.693 255.938 364.409 254.954 367.405C252.355 375.31 249.582 383.156 246.884 391.019C241.33 407.201 235.569 423.125 231.654 439.778C231.066 442.278 234.642 444.538 235.85 441.74C243.788 423.299 249.292 404.055 255.334 384.911C256.766 380.383 258.173 375.839 259.63 371.32C260.905 367.356 262.783 363.225 262.419 358.971C261.74 351.166 252.868 343.725 248.216 337.998C247.811 339.719 247.397 341.441 246.991 343.162C254.672 339.959 262.585 336.574 268.693 330.739C276.134 323.637 277.624 314.243 279.337 304.534C283.426 281.384 290.693 258.689 294.045 235.488C294.202 234.404 292.771 233.312 292.158 234.603L292.141 234.611Z" fill="#333333"/>
<path d="M377.393 298.682C373.403 281.226 365.722 263.87 354.126 250.006C351.999 247.465 349.648 244.965 346.611 243.641C338.268 239.999 330.024 248.649 328.12 255.949C319.521 288.816 315.564 323.372 311.757 357.117C306.683 402.127 305.748 446.234 312.684 490.996C317.087 519.385 331.307 549.546 364.737 549.141C365.59 549.836 366.765 550.109 367.891 549.803C377.988 547.005 380.654 527.778 382.044 519.294C384.958 501.466 384.643 482.528 385.76 464.468C387.192 441.458 388.616 418.424 388.376 395.365C388.095 368.274 385.496 341.209 380.629 314.557C379.66 309.252 378.601 303.955 377.393 298.691V298.682Z" fill="#4D4E4E"/>
<path d="M311.972 417.762C310.052 415.519 307.983 413.607 305.872 411.844C301.27 408.011 296.544 404.51 291.876 400.877C290.469 399.784 289.012 398.361 287.382 398.476C285.925 398.576 284.493 399.536 283.078 400.024C280.239 400.993 277.408 402.027 274.602 403.211C271.722 404.419 268.883 405.777 266.069 407.291C257.568 411.877 248.513 414.732 240.278 420.063C239.045 420.857 237.696 421.925 237.58 423.531C237.505 424.516 237.936 425.451 238.349 426.32C243.291 436.658 248.224 446.987 253.165 457.325C253.902 458.856 254.68 460.454 255.971 461.397C258.255 463.061 260.921 461.911 263.428 462.084C265.994 462.258 268.188 462.341 270.77 461.861C277.292 460.652 283.674 458.459 289.691 455.347C290.154 455.107 294.607 458.707 295.311 459.121C297.157 460.214 299.06 461.29 301.03 462.068C303.828 463.185 306.609 463.558 308.769 460.851C311.6 457.292 311.343 451.233 311.856 446.756C312.519 440.987 313.181 435.218 313.843 429.449C314.066 427.495 314.505 425.318 314.455 423.324C314.389 420.683 313.222 419.243 311.964 417.778L311.972 417.762Z" fill="#CF793C"/>
<path d="M263.933 460.884C263.941 460.818 263.957 460.76 263.966 460.694C264.537 456.68 262.36 451.209 261.383 447.352C259.008 437.991 255.805 428.845 251.807 420.046C251.145 418.598 250.367 417.042 248.927 416.355C247.222 415.535 245.21 416.198 243.456 416.901C239.756 418.374 236.106 419.997 232.53 421.751C228.805 423.58 224.965 425.608 220.81 425.592C217.93 425.584 215.157 424.582 212.326 424.027C206.317 422.836 200.317 425.004 194.697 426.842C187.595 429.159 180.51 431.518 173.441 433.918C159.296 438.719 145.201 443.693 131.171 448.825C129.483 449.446 127.795 450.075 126.114 450.704C125.99 446.847 125.121 443.015 124.476 439.224C123.838 435.474 123.193 431.733 122.539 427.992C119.708 411.877 116.53 395.82 112.548 379.978C106.937 357.655 99.2806 335.879 90.0685 314.797C85.3672 304.046 80.2604 293.468 74.7811 283.089C72.4139 278.603 63.4583 257.795 58.8481 260.741C47.3267 268.108 36.8316 306.347 35.5984 323.364C33.0657 358.524 32.3208 394.14 35.1018 429.308C35.3004 431.849 35.5238 434.39 35.7639 436.931C37.5517 455.885 40.4155 474.748 44.5705 493.33C48.6758 511.655 51.1341 552.774 77.1814 550.382C124.293 546.062 169.03 525.841 212.649 508.716C223.26 504.553 231.785 493.942 236.685 483.869C238.307 480.525 239.648 476.983 241.991 474.094C245.401 469.89 250.582 467.547 255.747 465.917C259.033 464.882 263.262 464.791 263.957 460.901L263.933 460.884Z" fill="#4D4E4E"/>
<path d="M62.9287 259.69C65.0972 265.773 69.3101 271.145 72.3064 276.873C75.4019 282.782 78.2243 288.874 80.6577 295.09C83.2401 301.678 85.4418 308.449 87.2792 315.286C89.0753 321.965 90.052 329.141 92.3861 335.622C93.1476 337.749 95.7548 337.335 95.9286 335.092C96.9715 321.46 91.575 306.131 86.7082 293.625C84.0347 286.747 80.9227 280.067 77.3222 273.62C74.1687 267.975 70.9076 261.362 65.8918 257.174C64.3937 255.924 62.3824 258.15 62.937 259.698L62.9287 259.69Z" fill="#333333"/>
<path d="M116.861 447.724C108.989 444.901 98.5274 447.625 90.9292 450.397C82.4785 453.476 74.93 458.194 68.2175 464.162C66.4131 465.767 68.176 469.161 70.5101 468.54C85.5078 464.543 100.464 460.388 115.263 455.719C114.436 454.147 113.616 452.566 112.788 450.993C107.864 457.706 102.103 463.458 95.9285 469.012C94.0496 470.701 96.3754 474.607 98.6764 472.968C105.612 468.019 111.348 461.828 116.389 454.991C117.746 453.154 116.786 449.363 113.914 450.265C99.0985 454.908 84.2497 459.427 69.2603 463.491C70.0218 464.948 70.7915 466.413 71.553 467.87C78.1 462.01 85.6734 457.507 94.0082 454.701C101.499 452.177 109.411 452.351 116.861 450.108C117.97 449.777 117.887 448.105 116.861 447.732V447.724Z" fill="#333333"/>
<path d="M220.132 432.023C222.449 440.118 225.95 447.658 227.639 455.984C229.319 464.253 228.615 472.662 230.072 480.865C230.494 483.232 233.623 482.967 234.194 480.865C236.429 472.654 234.6 462.573 232.895 454.37C231.165 446.019 228.607 436.79 223.575 429.796C222.176 427.851 219.594 430.16 220.132 432.023Z" fill="#333333"/>
<path d="M246.295 459.742C246.701 459.759 247.074 459.667 247.413 459.469C247.777 459.336 248.092 459.113 248.34 458.807C248.63 458.509 248.828 458.161 248.936 457.772C249.118 457.383 249.201 456.969 249.184 456.531C249.151 456.249 249.118 455.959 249.085 455.678C248.952 455.14 248.704 454.668 248.34 454.263C248.141 454.097 247.951 453.932 247.752 453.758C247.305 453.468 246.825 453.319 246.295 453.319C245.89 453.303 245.517 453.394 245.178 453.592C244.814 453.725 244.499 453.948 244.251 454.254C243.961 454.552 243.763 454.9 243.655 455.289C243.473 455.678 243.39 456.092 243.407 456.531C243.44 456.812 243.473 457.102 243.506 457.383C243.639 457.921 243.887 458.393 244.251 458.798C244.45 458.964 244.64 459.129 244.839 459.303C245.286 459.593 245.766 459.742 246.295 459.742Z" fill="#333333"/>
<path d="M229.27 478.68C219.072 475.41 205.325 478.795 195.351 481.75C183.846 485.16 173.202 490.855 163.766 498.238C162.136 499.512 162.831 503.129 165.314 502.318C175.991 498.842 186.776 495.68 197.445 492.163C207.079 488.984 218.849 486.625 227.416 481.146C228.955 480.161 228.558 476.867 226.414 477.041C216.316 477.844 205.573 483.141 196.038 486.476C185.394 490.193 174.882 494.265 164.255 498.023C164.768 499.38 165.289 500.746 165.802 502.103C175.263 495.465 185.617 490.441 196.708 487.196C202.27 485.566 207.981 484.424 213.75 483.836C218.89 483.315 224.246 483.679 229.278 482.545C231.115 482.131 230.917 479.201 229.278 478.68H229.27Z" fill="#333333"/>
<path d="M168.468 426.063C163.866 421.817 158.345 418.267 153.826 414.211C148.247 409.212 139.788 401.224 131.958 400.182C125.262 399.288 114.56 403.6 109.644 407.862C103.924 412.837 104.264 420.981 105.836 427.719C107.674 435.615 110.025 443.403 112.872 451.01C117.234 462.664 130.113 449.23 138.977 452.582C147.254 455.711 159.52 468.226 168.55 468.606C179.12 469.062 178.259 439.886 174.965 433.976C173.301 430.98 171.025 428.414 168.476 426.055L168.468 426.063Z" fill="#CF793C"/>
<path d="M375.688 524.633C368.885 501.631 356.047 476.445 335.156 463.003C323.916 455.769 310.673 452.475 297.819 448.817C285.686 445.365 273.005 442.096 261.335 437.403C253.53 434.274 245.154 431.385 236.819 429.366C227.656 427.139 220.025 426.825 210.705 427.802C206.741 428.215 202.337 429.606 198.373 429.399C191.635 429.051 183.648 426.328 177.291 424.127C173.451 422.802 170.355 419.881 168.104 424.085C165.886 428.224 164.421 433.032 162.741 437.411C159.48 445.928 156.475 454.544 153.744 463.243C152.56 467.017 165.414 470.568 167.45 471.926C172.896 475.543 179.096 480.087 183.309 485.127C186.694 489.183 188.672 493.661 192.554 497.534C198.696 503.667 205.408 509.213 212.584 514.088C216.135 516.497 220.099 519.584 224.139 521.099C228.211 522.63 232.813 523.457 237.009 524.773C252.412 529.599 267.948 534.01 283.608 537.967C303.315 542.949 323.387 546.401 343.086 551.326C347.307 552.178 351.512 553.064 355.824 553.329C366.079 553.958 376.524 550.688 377.807 539.109C378.345 534.25 377.079 529.26 375.697 524.616L375.688 524.633Z" fill="#4D4E4E"/>
<path d="M195.501 429.134C189.881 434.109 187.729 444.777 185.684 451.697C183.458 459.237 180.213 468.325 181.521 476.238C181.803 477.926 183.996 478.075 184.774 476.71C188.606 470.005 189.277 460.859 191.379 453.443C193.448 446.168 198.058 437.775 197.785 430.194C197.744 428.919 196.461 428.29 195.501 429.142V429.134Z" fill="#333333"/>
<path d="M169.213 455.844C169.138 455.902 169.064 455.96 168.99 456.026C168.758 456.208 168.501 456.39 168.303 456.613C168.104 456.837 167.955 457.118 167.781 457.367C167.765 457.392 167.748 457.416 167.731 457.449C167.649 457.673 167.558 457.896 167.475 458.12C167.442 458.368 167.417 458.616 167.384 458.865C167.4 459.13 167.433 459.395 167.483 459.651C167.566 459.875 167.649 460.09 167.731 460.313C167.88 460.628 168.096 460.884 168.369 461.083C168.518 461.249 168.7 461.373 168.915 461.439C169.205 461.613 169.528 461.687 169.875 461.679C169.999 461.662 170.123 461.646 170.248 461.621C170.479 461.621 170.695 461.555 170.885 461.431C171.208 461.315 171.473 461.116 171.696 460.851C171.828 460.661 171.961 460.47 172.093 460.28C172.151 460.189 172.218 460.106 172.267 460.015C172.383 459.817 172.474 459.51 172.549 459.287C172.565 459.237 172.582 459.188 172.59 459.138L172.689 458.815C172.714 458.583 172.747 458.352 172.772 458.112C172.747 457.88 172.714 457.648 172.689 457.408C172.607 457.201 172.532 456.986 172.449 456.779C172.309 456.481 172.102 456.233 171.837 456.042C171.696 455.885 171.522 455.769 171.315 455.703C171.133 455.587 170.935 455.521 170.719 455.521C170.512 455.455 170.297 455.455 170.09 455.521C169.768 455.537 169.478 455.645 169.205 455.835L169.213 455.844Z" fill="#333333"/>
<path d="M194.135 483.19C205.499 487.875 217.252 491.401 228.5 496.417C240.171 501.623 251.245 507.922 261.931 514.907C262.601 513.128 263.28 511.357 263.95 509.577C240.957 503.841 220.637 493.868 199.887 482.727C197.653 481.527 196.245 484.821 198.066 486.187C216.772 500.266 240.063 509.304 262.56 515.197C265.639 516 267.046 511.481 264.579 509.867C244.094 496.483 219.065 483.488 194.458 480.542C192.951 480.36 192.984 482.71 194.135 483.182V483.19Z" fill="#333333"/>
<path d="M310.218 453.617C318.023 457.193 327.31 457.491 335.529 459.99C344.253 462.647 352.29 466.413 359.399 472.174C360.326 470.411 361.253 468.648 362.18 466.885C345.569 458.318 327.211 453.501 308.621 452.078C306.229 451.896 305.922 455.438 307.528 456.555C312.817 460.23 317.775 464.402 322.824 468.391C326.507 471.305 337.068 477.67 336.365 483.323C337.027 482.586 337.681 481.858 338.343 481.121C337.813 481.229 337.275 481.336 336.746 481.444C333.609 482.081 334.759 486.683 337.433 487.072C337.987 487.155 338.542 487.23 339.096 487.312C340.271 487.478 341.687 486.12 341.828 485.003C342.688 478.092 338.566 473.73 333.509 469.534C325.936 463.235 317.651 458.178 309.705 452.417C309.341 453.907 308.977 455.405 308.612 456.895C326.623 458.65 343.334 463.947 359.391 472.182C362.859 473.962 364.862 469.062 362.172 466.893C354.731 460.901 346.123 456.812 336.944 454.246C328.676 451.937 318.768 449.338 310.21 450.861C308.762 451.118 309.2 453.162 310.21 453.625L310.218 453.617Z" fill="#333333"/>
<path d="M171.134 423.374C175.636 429.292 185.9 432.619 193.092 433.074C203.182 433.711 213.23 430.459 223.444 430.897C233.93 431.352 244.219 433.67 254.217 436.757C264.323 439.886 274.082 444.687 284.345 447.194C286.737 447.782 288.127 444.074 285.975 442.899C277.185 438.131 267.17 435.019 257.652 432.006C248.572 429.134 239.286 426.858 229.809 425.857C219.462 424.764 209.812 426.138 199.59 427.338C194.119 427.984 188.987 427.404 183.83 425.36C179.891 423.796 176.365 421.147 172.102 420.775C170.72 420.659 170.505 422.538 171.134 423.365V423.374Z" fill="#333333"/>
<path d="M294.343 83.6157C297.132 79.5021 299.988 77.5488 297.48 71.3908C295.924 67.5669 292.944 64.7776 289.104 63.3043C287.713 62.7746 284.303 62.518 283.359 61.3344C282.143 59.8032 284.104 54.9695 284.361 52.8754C284.99 47.7438 283.666 43.4398 279.858 39.9138C278.203 38.3826 276.018 37.2569 274.602 35.4857C273.013 33.4992 273.361 31.0576 272.939 28.6904C271.763 22.102 269.363 15.2322 262.402 12.8733C258.214 11.4579 253.521 11.1103 249.763 8.61895C246.387 6.37592 244.359 1.49256 240.336 0.317241C234.418 -1.41263 221.937 4.37291 216.912 7.02979C214.529 8.28788 212.037 9.8191 209.356 9.51285C208.147 9.37215 207.013 8.86726 205.904 8.36237C201.087 6.18555 195.558 2.29542 190.658 0.813854C185.419 -0.76703 181.81 3.15621 178.135 6.29315C173.376 10.3488 168.733 7.55123 164.305 10.5392C160.986 12.7822 157.046 13.4858 154.149 16.2668C151.029 19.2547 149.564 23.6001 146.013 26.2239C141.163 29.7995 134.111 29.5015 132.323 36.272C131.479 39.4669 131.719 41.8506 130.179 45.1448C128.126 49.5481 125.933 53.9018 123.806 58.2719C122.581 60.7881 121.331 63.6105 122.109 66.3005C122.871 68.916 125.436 70.8445 125.751 73.5511C126.148 76.986 122.78 79.8084 122.482 83.2598C122.101 87.5638 126.537 91.0484 126.579 95.3772C126.645 101.833 119.982 107.453 126.306 113.52C130.287 117.336 137.81 118.122 136.743 125.695C136.569 126.912 136.056 128.145 136.395 129.321C136.66 130.239 137.405 130.935 138.108 131.589C145.127 137.995 149.208 143.731 159.305 142.009C163.527 141.289 167.483 139.377 171.249 137.415C172.424 136.803 182.497 132.176 182.497 131.348C189.93 127.798 198.389 126.606 206.558 127.657C213.949 128.609 219.735 134.121 227.697 134.038C230.867 134.005 234.021 133.269 237.174 133.542C243.382 134.072 245.799 138.914 250.682 141.223C254.365 142.961 261.616 145.494 265.398 143.011C270.249 139.824 268.817 131.655 276.63 133.004C279.146 133.434 280.785 135.338 283.334 133.873C286.811 131.886 285.42 127.5 284.684 124.421C284.137 122.136 283.922 119.471 285.453 117.683C286.67 116.268 288.681 115.796 290.006 114.488C292.828 111.707 291.305 107.056 290.486 103.182C289.186 97.074 290.312 90.4938 293.424 85.1056C293.73 84.5759 294.045 84.0875 294.359 83.624L294.343 83.6157Z" fill="#333333"/>
<path d="M261.085 94.5743C260.142 87.2161 258.693 79.8994 256.169 72.9137C248.736 52.3457 231.736 37.0169 208.916 39.293C173.028 42.8769 148.313 65.2493 149.828 101.982C150.68 122.707 153.792 144.649 165.14 162.494C174.476 177.178 191.783 191.041 209.943 191.612C228.433 192.192 244.912 174.819 251.997 159.415C260.787 140.312 263.734 115.341 261.077 94.5743H261.085Z" fill="#CF793C"/>
<path d="M276.721 109.911C275.645 105.16 271.73 100.575 266.408 101.742C263.089 102.47 260.565 104.962 259.364 108.082C258.098 111.376 258.098 114.944 257.99 118.42C257.891 121.789 257.519 125.141 257.386 128.51C257.32 130.223 256.534 133.236 258.073 134.469C262.336 137.879 268.75 133.641 271.101 130.032C274.71 124.487 278.227 116.624 276.713 109.911H276.721Z" fill="#CF793C"/>
<path d="M134.995 109.911C136.071 105.16 139.986 100.575 145.308 101.742C148.627 102.47 151.152 104.962 152.352 108.082C153.618 111.376 153.618 114.944 153.726 118.42C153.825 121.789 154.198 125.141 154.33 128.51C154.396 130.223 155.183 133.236 153.643 134.469C149.38 137.879 142.966 133.641 140.615 130.032C137.007 124.487 133.489 116.624 135.004 109.911H134.995Z" fill="#CF793C"/>
<path d="M266.218 89.9393C266.276 89.5751 266.342 89.2192 266.409 88.8633C270.522 67.9973 272.724 45.8484 263.934 25.7604C261.989 21.3074 259.555 16.9786 256.054 13.6182C244.582 2.60168 223.087 7.6092 208.719 5.83794C188.49 3.3466 172.789 -1.92577 154.166 11.7311C142.694 20.1404 132.455 34.3849 135.162 49.0846C136.47 56.1862 139.325 62.5925 140.203 69.9093C141.097 77.3998 140.55 84.9815 141.444 92.4803C141.916 96.4615 141.792 103 146.609 104.432C151.583 105.905 155.151 99.7722 157.394 96.1553C161.623 89.3351 165.116 82.2584 170.239 76.0093C175.934 69.065 183.176 63.1139 191.735 60.3909C200.342 57.6512 209.745 58.3299 218.485 60.6143C227.797 63.0477 236.91 67.4676 243.018 74.9002C247.09 79.8498 249.565 85.8257 251.154 91.9837C252.619 97.6616 252.288 104.598 255.392 109.704C264.091 123.99 265.506 94.1854 266.202 89.9641L266.218 89.9393Z" fill="#333333"/>
<path d="M201.931 121.317C202.717 129.759 198.314 138.765 192.363 144.476C191.287 145.51 191.635 147.505 192.802 148.291C197.801 151.652 203.156 154.756 209.074 151.726C210.241 151.13 210.018 148.871 208.702 148.589C203.504 147.464 199.597 147.025 195.003 144.103C195.152 145.378 195.301 146.644 195.442 147.919C201.915 141.405 207.924 129.908 204.273 120.613C203.76 119.314 201.799 120.051 201.923 121.325L201.931 121.317Z" fill="#333333"/>
<path d="M202.353 171.326C204.96 174.38 209.554 172.51 212.79 171.475C215.687 170.548 219.983 168.487 218.89 164.713C218.65 163.885 217.988 163.48 217.144 163.612C215.091 163.943 213.221 165.979 211.209 166.708C208.561 167.659 206.036 168.76 203.206 169.033C202.088 169.141 201.633 170.498 202.353 171.334V171.326Z" fill="#333333"/>
<path d="M269.346 114.083C270.232 115.184 269.628 117.543 269.23 118.718C268.75 120.142 267.732 121.698 268.005 123.229C268.08 123.635 268.444 124.065 268.85 124.173C271.473 124.818 273.054 120.796 273.418 118.842C273.956 115.937 273.377 113.553 270.869 111.881C269.487 110.963 268.502 113.048 269.338 114.083H269.346Z" fill="#B56126"/>
<path d="M138.803 111.277C137.851 114.083 138.472 117.088 139.631 119.736C140.5 121.731 142.329 125.563 144.978 125.224C145.681 125.133 146.095 124.644 146.136 123.933C146.277 121.648 144.142 119.811 143.215 117.841C142.172 115.639 141.733 113.231 140.823 110.971C140.392 109.903 139.084 110.416 138.795 111.269L138.803 111.277Z" fill="#B56126"/>
<path d="M185.717 185.016C193.894 190.528 202.734 195.643 212.939 193.723C217.732 192.821 222.35 190.768 226.828 188.889C230.246 187.458 233.731 185.926 235.535 182.566C236.065 181.573 235.039 180 233.913 180.762C227.424 185.148 220.132 188.765 212.269 190.081C202.345 191.745 195.351 186.017 186.511 182.922C185.294 182.5 184.798 184.395 185.717 185.016Z" fill="#B56126"/>
<path d="M163.212 10.9613C158.776 16.7634 158.875 26.9605 163.568 32.6633C166.126 35.7671 169.304 36.5865 172.937 37.9191C179.402 40.2946 181.413 44.5075 181.14 51.1538C181.007 54.4977 185.146 54.7708 186.205 51.9153C188.556 45.5421 185.262 37.7867 179.724 34.0952C176.447 31.9101 172.06 31.9018 168.931 29.5843C163.013 25.1975 166.68 17.5662 165.579 11.6648C165.389 10.6302 163.916 10.0508 163.212 10.9696V10.9613Z" fill="#4D4D4D"/>
<path d="M133.183 35.5685C140.417 41.3044 150.333 33.9877 156.573 41.8838C160.538 46.8996 164.47 54.3074 171.927 50.4917C173.938 49.4654 173.036 45.8401 170.793 45.8484C162.69 45.8815 161.093 35.7755 153.883 33.4828C147.394 31.4218 140.674 35.105 134.069 33.2096C132.637 32.7958 132.215 34.8071 133.175 35.5685H133.183Z" fill="#4D4D4D"/>
<path d="M129.36 60.7717C137.562 49.8876 152.303 69.9425 162.376 59.704C164.222 57.8334 162.061 54.324 159.595 55.698C152.237 59.8116 145.45 53.8771 137.876 53.7446C133.548 53.6702 129.484 55.2014 127.696 59.3481C127.265 60.3496 128.482 61.9305 129.36 60.7717Z" fill="#4D4D4D"/>
<path d="M128.11 78.0207C129.203 85.2298 138.514 78.3931 142.197 79.0056C146.716 79.7588 152.982 89.5835 157.261 82.7385C158.238 81.1824 156.764 79.2705 155.076 79.585C151.575 80.2389 147.726 75.3141 143.944 74.743C142.33 74.4947 140.6 74.5278 139.011 74.9003C137.239 75.3141 131.147 79.1712 129.898 77.1847C129.202 76.0922 127.936 76.895 128.11 78.0207Z" fill="#4D4D4D"/>
<path d="M200.127 6.19367C195.136 9.23957 190.906 14.4374 192.942 20.5872C194.316 24.7256 198.148 27.1507 200.185 30.8919C202.742 35.5849 202.403 40.5427 201.12 45.5337C200.325 48.6127 204.869 51.3523 206.251 47.9422C208.494 42.4298 208.478 36.6443 206.301 31.0574C205.076 27.9205 203.272 25.5864 201.112 23.0785C199.365 21.0507 198.066 19.9995 197.735 17.1688C197.296 13.4277 199.224 11.1267 201.757 8.52775C202.808 7.45176 201.567 5.31633 200.135 6.1854L200.127 6.19367Z" fill="#4D4D4D"/>
<path d="M237.869 15.9026C238.787 14.8597 238.92 14.4044 239.06 13.0388C239.218 11.5655 237.728 10.4646 236.395 10.7792C229.509 12.418 222.275 18.4436 220.644 25.512C219.784 29.2201 220.694 32.5639 221.911 36.0816C223.972 42.0327 223.566 47.065 221.886 53.0409C221.042 56.0454 224.965 58.0981 226.645 55.2674C230.32 49.068 230.179 41.8671 227.953 35.1711C226.198 29.8905 225.255 26.0003 229.641 21.4067C230.221 20.7942 236.859 15.497 237.066 15.588C236.718 14.9011 236.362 14.2141 236.015 13.5271C235.965 13.883 235.907 14.2306 235.857 14.5865C235.692 15.6956 236.9 17.0034 237.885 15.8943L237.869 15.9026Z" fill="#4D4D4D"/>
<path d="M236.901 60.8793C239.847 56.6995 242.811 52.619 246.643 49.1923C251.286 45.0456 252.254 49.4738 257.295 50.4339C264.935 51.8906 272.789 45.8154 274.792 38.6807C275.306 36.8515 273.749 34.9313 271.846 35.4031C267.765 36.4046 264.885 39.7401 260.954 41.1555C256.501 42.7612 253.529 39.2187 249.449 40.3692C242.885 42.2315 236.876 53.0163 234.476 58.7935C233.88 60.2337 235.676 62.6174 236.901 60.8793Z" fill="#4D4D4D"/>
<path d="M251.485 75.4301C254.159 74.2382 256.542 71.9455 259.456 71.391C262.841 70.7454 265.87 73.0629 269.239 72.9884C274.379 72.8808 277.988 69.7108 279.221 64.9102C279.817 62.6009 277.168 60.5648 275.347 62.4023C273.129 64.637 270.323 66.1186 267.137 65.7296C264.579 65.4151 262.444 64.5294 259.82 65.026C255.533 65.8372 251.816 69.3631 249.913 73.1539C249.449 74.0892 250.177 76.0095 251.485 75.4218V75.4301Z" fill="#4D4D4D"/>
<path d="M253.43 89.0372C257.361 88.3998 261.028 87.4232 265.042 87.9446C268.245 88.3667 271.324 89.749 274.569 89.8483C278.881 89.9807 282.581 87.7873 282.962 83.384C283.069 82.126 281.662 80.6444 280.354 81.1741C277.755 82.2336 276.034 83.1688 273.145 82.8295C270.199 82.4819 267.533 81.3976 264.529 81.3479C259.795 81.2734 255.226 82.7219 251.898 86.1154C250.715 87.3238 251.857 89.2937 253.43 89.0372Z" fill="#4D4D4D"/>
<path d="M146.352 85.3457C142.006 86.0244 138 87.1914 134.251 89.5421C131.139 91.4871 127.157 94.0695 126.28 97.8355C125.982 99.1267 126.975 100.517 128.374 100.161C131.594 99.3419 134.002 96.1139 136.775 94.3509C140.069 92.2652 143.595 90.4112 147.303 89.211C149.555 88.4826 148.686 84.9732 146.343 85.3457H146.352Z" fill="#4D4D4D"/>
<path d="M332.838 251.471C325.761 265.864 321.582 281.549 318.18 297.184C316.417 305.304 314.993 313.481 313.867 321.717C312.907 328.802 311.36 336.648 312.634 343.733C313.147 346.614 316.665 346.059 317.46 343.733C319.818 336.797 319.67 328.694 320.646 321.452C321.706 313.589 323.046 305.759 324.627 297.979C327.715 282.774 332.259 267.942 335.809 252.861C336.232 251.065 333.79 249.551 332.838 251.471Z" fill="#333333"/>
<path d="M225.04 581.544C220.604 591.99 220.165 604.96 218.882 616.15C218.171 622.349 217.517 628.574 217.07 634.798C216.648 640.732 215.828 647.147 216.971 653.007C217.484 655.639 220.794 655.267 221.498 653.007C223.17 647.644 223.12 641.543 223.609 635.965C224.122 630.138 224.527 624.303 225.09 618.476C226.207 606.863 229.262 594.117 228.21 582.496C228.07 580.948 225.86 579.624 225.04 581.544Z" fill="#F5D9BC"/>
<path d="M196.675 589.78C193.646 602.22 194.259 615.803 195.624 628.433C196.899 640.244 198.852 653.934 204.547 664.52C205.714 666.681 208.23 664.984 207.891 662.956C205.813 650.599 201.733 638.779 200.35 626.198C199.026 614.172 199.887 602.278 199.705 590.235C199.68 588.39 197.139 587.852 196.667 589.78H196.675Z" fill="#F5D9BC"/>
</svg>
