<svg id="Layer_1" xmlns="http://www.w3.org/2000/svg" viewBox="0 0 130 130"><defs><style>.cls-3{fill:#fbdfd8}.cls-5{fill:#f89f1f}.cls-8{fill:#ef69a6}</style></defs><path d="M77.27 50.02c3.12-7.19 9.85-13.23 14.9-15.76 5.05-2.52 7.99-3.78 5.83-4.2s-9.85-.3-17.12 3.3c-7.27 3.6-11.36 7.48-11.36 7.48s-5.36 6.09-5.43 12.08c0 0 8.13-3.2 13.19-2.91" style="fill:#eb2127"/><path class="cls-5" d="M63.7 53.48v-.56c.09-6.07 5.31-12.07 5.53-12.33.06-.06 4.24-3.98 11.48-7.57 7.27-3.61 14.97-3.8 17.36-3.34.26.05.95.18 1.02.71.1.77-1.14 1.42-5.09 3.37l-1.66.82c-4.9 2.45-11.6 8.37-14.72 15.57l-.1.24h-.26c-4.92-.3-12.95 2.84-13.03 2.87l-.52.2Zm31.95-23.21c-3.3 0-9.08.69-14.61 3.43-7.13 3.53-11.23 7.38-11.27 7.42-.03.03-4.91 5.65-5.29 11.26 1.87-.7 8.16-2.89 12.55-2.74C80.27 42.37 87.04 36.42 92 33.93l1.66-.83c2.19-1.08 4.26-2.11 4.63-2.57-.06-.03-.18-.07-.37-.1-.47-.09-1.25-.16-2.27-.16Z"/><path d="M78.84 46.97s4.63-4.46 17.17-4.38c12.54.07 22.55 5.76 21.13 7.43s-1.42 1.75-9.11 1.6c-7.69-.15-15.74.95-19 3.72 0 0-2.34-3.28-5.36-3.43s-4.62-.85-6.41-1.9c0 0 1.27-2.55 1.57-3.05Z" style="fill:#b62026"/><path class="cls-5" d="M89.04 55.71h-.05c-.1-.01-.2-.07-.26-.15-.02-.03-2.27-3.14-5.07-3.27-2.97-.14-4.61-.79-6.58-1.95a.383.383 0 0 1-.15-.49c.05-.1 1.28-2.57 1.59-3.08.02-.03.04-.05.06-.07.19-.19 4.81-4.49 17.12-4.49h.32c11.22.07 20.43 4.58 21.51 6.91.27.58.05.96-.1 1.14-1.55 1.83-1.82 1.88-9.4 1.73-6.86-.14-15.37.75-18.75 3.63-.07.06-.15.09-.24.09Zm-11.28-5.84c1.74.98 3.27 1.54 5.93 1.67 2.63.12 4.72 2.41 5.41 3.27 3.71-2.82 12.16-3.7 18.94-3.56 7.45.15 7.5.09 8.78-1.43.06-.07.13-.15.02-.38-.89-1.94-9.69-6.41-20.83-6.47h-.31c-11.48 0-16.14 3.86-16.57 4.25-.26.45-1.04 1.99-1.37 2.66ZM71.75 45.78a.34.34 0 0 1-.22-.07.37.37 0 0 1-.08-.52c3.41-4.65 7.97-8.38 13.2-10.8.19-.09.41 0 .5.18.09.19 0 .41-.18.5a33.427 33.427 0 0 0-12.91 10.57.37.37 0 0 1-.3.15Z"/><path class="cls-5" d="M85.64 48.98c-.16 0-.3-.1-.35-.25a.38.38 0 0 1 .23-.48c6.74-2.32 14.21-2.48 21.04-.46.2.06.31.27.25.47-.06.2-.27.31-.47.25-6.68-1.98-13.99-1.82-20.58.45-.04.01-.08.02-.12.02Z"/><path d="M50.97 62.27s-8.75-8.88-9.37-16.78c-.62-7.9 3.14-11.96 4.07-12.63.93-.67 2.22-3.18 2.68-5.89.46-2.71 5.04-6.17 10.71-3.75 5.66 2.42 12.91 9.89 10.06 19.27-2.84 9.38-11.67 19.49-11.67 19.49l-3.43 3.53-3.05-3.24Z" style="fill:#f6b8c7"/><path class="cls-5" d="M54.02 65.89c-.11.03-.2-.04-.27-.12l-3.05-3.24c-.4-.41-8.85-9.09-9.47-17.01-.72-9.12 4.17-12.93 4.22-12.97.85-.61 2.09-3.08 2.53-5.65.25-1.44 1.47-2.92 3.19-3.86 1.39-.75 4.27-1.78 8.04-.17 3.25 1.39 6.38 4.07 8.39 7.17 1.77 2.73 3.53 7.13 1.89 12.56-2.83 9.35-11.66 19.52-11.75 19.62l-3.44 3.55c-.07.07-.17.11-.27.11Zm1.22-43.12c-1.67 0-2.95.51-3.72.93-1.5.82-2.6 2.12-2.81 3.32-.49 2.88-1.85 5.42-2.83 6.13-1.2.87-4.49 4.99-3.91 12.3.6 7.67 9.17 16.46 9.26 16.54l2.78 2.96 3.15-3.25c.08-.09 8.79-10.14 11.58-19.33 2.7-8.92-4.13-16.38-9.85-18.82-1.36-.58-2.59-.79-3.66-.79Z"/><path class="cls-8" d="M42.03 48.27s-5.49-6.36-12.1-4.5c-6.61 1.86-4.09 4.86-8.14 6.32-4.04 1.46-11.9 7.93-8.03 12.96 2.72 3.54 6.17 6.2 10.64 7.23 1.87.43 3.92.57 6.17.37 7.62-.68 14.03-6.32 14.03-6.32l4.07-5.14"/><path class="cls-5" d="M28.61 71.11c-1.49 0-2.93-.16-4.29-.47-4.18-.96-7.83-3.44-10.86-7.37-1.1-1.43-1.39-3.05-.87-4.83 1.14-3.91 6.09-7.62 9.07-8.7 1.62-.58 2.09-1.41 2.63-2.37.76-1.34 1.63-2.86 5.53-3.95 6.77-1.9 12.25 4.35 12.48 4.61.13.16.12.39-.04.53-.16.13-.39.12-.53-.04-.05-.06-5.41-6.15-11.71-4.38-3.61 1.01-4.36 2.33-5.08 3.6-.57 1-1.15 2.03-3.03 2.71-2.84 1.02-7.53 4.54-8.61 8.21-.45 1.54-.2 2.94.75 4.17 2.96 3.84 6.37 6.16 10.43 7.09 1.88.43 3.91.55 6.05.36 7.4-.66 13.75-6.17 13.81-6.23l4.02-5.09a.38.38 0 0 1 .53-.06c.16.13.19.36.06.53l-4.07 5.14c-.31.28-6.63 5.77-14.29 6.46-.67.06-1.34.09-1.99.09Z"/><path class="cls-8" d="M65.81 50.02s5.81-3.1 8.77-1.53 4.74 3.2 9.1 3.43 9.16 7.55 10.77 15.18c1.21 5.78-5.58 8.95-11.65 9.33-1.7.11-3.34 0-4.74-.35-9.04-2.18-14.03-8.11-16.51-12.25-1.49-2.49-2.07-4.34-2.07-4.34"/><path class="cls-5" d="M81.58 76.83c-1.31 0-2.54-.13-3.62-.39-9-2.17-14.08-7.96-16.74-12.42-1.49-2.5-2.08-4.34-2.1-4.42-.06-.2.05-.41.25-.47s.41.05.47.25c0 .02.58 1.84 2.03 4.26 2.59 4.34 7.53 9.97 16.28 12.08 1.34.32 2.94.44 4.63.34 4.46-.28 8.5-1.99 10.3-4.35 1.02-1.33 1.35-2.85 1-4.52-1.65-7.86-6.42-14.67-10.42-14.88-3.57-.18-5.43-1.27-7.59-2.53-.53-.31-1.08-.63-1.67-.94-2.75-1.46-8.36 1.5-8.42 1.53-.18.1-.41.03-.51-.15-.1-.18-.03-.41.15-.51.24-.13 6.02-3.18 9.12-1.53.6.32 1.16.64 1.7.96 2.07 1.21 3.86 2.25 7.25 2.42 4.76.25 9.59 8.2 11.11 15.48.4 1.89.01 3.61-1.14 5.13-2.34 3.08-7.14 4.42-10.85 4.65-.42.03-.83.04-1.24.04Z"/><path d="M45.35 55.34s-3.27 2.09-3.56 4.99c-.26 2.53 1.47 2.92 2.81 3.95.19.15.38.31.55.49 1.36 1.46 2.22 4.95.06 7.93-2.16 2.99-7.41 8.52-7.99 9.33s-.3 2.63 1.59 3.11 4.23.31 2.98 2.54c-1.25 2.23-7.54 7.51-2.41 13.96 5.13 6.45 10.19 5.96 14.85 5.96s8.33-1.03 10.41-3.11 5.78-5.51 4.7-8.88c-1.09-3.38-4.08-6.49-4.08-8.1 0-.77.67-.77 1.46-.74.84.04 1.81.12 2.2-.67.86-1.71-.32-2.59-3.12-4.94-3.37-2.82-3.8-3.88-5.53-7.57-1.73-3.69-2.09-3.84-1.46-6.51.28-1.21 1.76-1.95 2.75-3.27a4.4 4.4 0 0 0 .93-2.61c.07-1.9-2.22-3.43-2.22-3.43" style="fill:#e90e8b"/><path class="cls-5" d="M52.4 107.98c-4.14 0-8.74-.37-13.32-6.11-4.4-5.53-.66-10.35 1.35-12.95.44-.57.82-1.05 1.03-1.43.19-.34.39-.8.26-1.08-.18-.38-1.03-.53-1.86-.68-.38-.07-.77-.14-1.15-.24-1.32-.34-1.81-1.21-1.99-1.7-.25-.7-.18-1.48.19-2 .21-.29.94-1.1 1.95-2.22 1.85-2.05 4.64-5.16 6.05-7.11 2.06-2.85 1.2-6.14-.03-7.46-.16-.17-.33-.31-.5-.45-.27-.21-.56-.39-.84-.56-1.1-.7-2.35-1.48-2.12-3.72.31-3.04 3.6-5.17 3.74-5.26.17-.11.41-.06.52.11.11.17.06.41-.11.52-.03.02-3.12 2.03-3.39 4.71-.18 1.77.68 2.32 1.78 3.01.3.19.6.38.89.6.23.17.42.35.59.53 1.4 1.5 2.4 5.21.09 8.41-1.43 1.98-4.24 5.1-6.1 7.17-.96 1.06-1.71 1.9-1.9 2.16-.23.31-.26.84-.1 1.3.13.35.49.97 1.47 1.23.36.09.73.16 1.1.22 1.06.19 2.06.37 2.4 1.1.22.46.12 1.03-.29 1.76-.24.42-.63.93-1.09 1.52-2.02 2.6-5.39 6.96-1.36 12.02 4.69 5.89 9.24 5.86 13.64 5.83h.91c4.67 0 8.18-1.04 10.14-3l.35-.35c2.08-2.06 5.21-5.18 4.25-8.15-.53-1.66-1.54-3.25-2.43-4.66-.93-1.48-1.67-2.65-1.67-3.55 0-.34.1-.61.3-.8.38-.37 1.03-.34 1.55-.31h.11c.89.05 1.49.04 1.74-.46.66-1.32 0-1.96-2.67-4.19l-.35-.29c-3.34-2.8-3.88-3.96-5.49-7.4l-.14-.3c-.22-.48-.43-.9-.61-1.27-1.2-2.51-1.46-3.03-.88-5.48.2-.84.86-1.45 1.56-2.1.43-.4.88-.81 1.25-1.31.55-.73.82-1.49.85-2.39.06-1.67-2.03-3.09-2.05-3.1a.373.373 0 0 1-.1-.52.37.37 0 0 1 .52-.1c.1.07 2.46 1.66 2.39 3.75a4.838 4.838 0 0 1-1 2.82c-.41.55-.91 1.01-1.34 1.41-.64.59-1.19 1.1-1.34 1.72-.51 2.19-.36 2.51.83 4.98.18.38.38.8.61 1.28l.14.3c1.6 3.42 2.08 4.45 5.29 7.14l.35.29c2.54 2.13 3.82 3.19 2.86 5.1-.49.97-1.57.92-2.45.88h-.11c-.33-.02-.84-.04-.99.1-.05.05-.07.13-.07.26 0 .69.76 1.89 1.56 3.15.91 1.44 1.94 3.08 2.51 4.83 1.1 3.42-2.23 6.73-4.44 8.92l-.35.35c-2.11 2.11-5.8 3.22-10.67 3.22H52.4Z"/><path class="cls-8" d="M58.87 59.8s-3.02 5.13-1.91 10.46c1.12 5.33 2.29 7.19 3.28 9.11.99 1.92.77 4.12-.44 4.61s-2.32.23-3.09-.14-1.09-.14-.95.32 1.7 3.81 3.08 6.23c1.38 2.42 1.98 9.9-5.03 9.9-7 0-6.41-7.47-5.03-9.9 1.38-2.42 2.94-5.77 3.08-6.23s-.2-.68-.95-.32-1.88.63-3.09.14-1.43-2.69-.44-4.61c.99-1.92 2.17-3.78 3.28-9.11 1.12-5.33-1.91-10.46-1.91-10.46"/><path class="cls-5" d="M53.82 100.65c-3.14 0-4.66-1.47-5.38-2.71-1.45-2.5-.92-6.1.02-7.75 1.37-2.4 2.92-5.72 3.05-6.15v-.01c-.08 0-.21.04-.43.14-.79.38-2.01.71-3.39.15-.49-.2-.87-.62-1.09-1.21-.41-1.09-.23-2.6.45-3.92l.32-.6c.91-1.73 1.95-3.69 2.93-8.41 1.07-5.12-1.83-10.14-1.86-10.19a.38.38 0 0 1 .13-.51c.18-.1.41-.05.51.13.13.21 3.08 5.32 1.95 10.73-1.01 4.83-2.07 6.83-3 8.61l-.31.6c-.58 1.13-.74 2.43-.41 3.32.1.27.3.63.67.78 1.12.46 2.14.18 2.78-.13.72-.35 1.1-.22 1.3-.05.1.09.32.34.17.82-.16.51-1.73 3.88-3.12 6.3-.83 1.45-1.31 4.78-.02 7 .9 1.55 2.49 2.33 4.73 2.33s3.83-.79 4.73-2.33c1.29-2.22.8-5.55-.03-7-1.38-2.42-2.96-5.79-3.12-6.3-.15-.47.07-.73.17-.82.19-.17.58-.3 1.3.05.65.31 1.66.59 2.78.13.37-.15.56-.5.67-.78.33-.89.17-2.19-.41-3.32l-.31-.6c-.94-1.77-2-3.78-3.01-8.61-1.13-5.41 1.83-10.51 1.95-10.73.11-.18.34-.24.51-.13.18.1.24.33.13.51-.03.05-2.94 5.08-1.87 10.19.99 4.72 2.02 6.68 2.93 8.41l.32.6c.68 1.32.86 2.83.45 3.92-.22.59-.6 1.01-1.09 1.21-1.38.56-2.61.22-3.39-.15-.21-.1-.34-.13-.42-.14.25.71 1.72 3.85 3.04 6.16.94 1.64 1.47 5.25.02 7.75-.72 1.24-2.23 2.71-5.38 2.71ZM40.78 55.17c-.11 0-.22-.05-.3-.15-1.9-2.45-5.01-3.97-8.12-3.97a.38.38 0 1 1 0-.76c3.33 0 6.67 1.64 8.71 4.26.13.16.1.4-.07.53a.4.4 0 0 1-.23.08ZM22.69 59.35c-.18 0-.34-.13-.37-.32-.09-.62.37-1.17 1.28-1.49a25.328 25.328 0 0 1 15.66-.42c.2.06.31.27.25.47s-.26.31-.47.25a24.604 24.604 0 0 0-15.2.41c-.39.14-.83.4-.79.67.03.2-.11.4-.32.43h-.06ZM32.03 66.23c-.09 0-.19-.04-.26-.11a.368.368 0 0 1 0-.53c1.96-2 4.58-3.3 7.36-3.65.22-.02.39.12.42.33.03.21-.12.39-.33.42-2.62.33-5.07 1.55-6.92 3.43-.07.08-.17.11-.27.11ZM63.36 57.68a.36.36 0 0 1-.32-.18.363.363 0 0 1 .13-.51c3.12-1.87 6.95-2.53 10.51-1.81.2.04.33.24.29.44-.04.2-.23.34-.44.29-3.38-.68-7.02-.05-9.98 1.72a.34.34 0 0 1-.19.05ZM58.09 47.67s-.09 0-.13-.02a.378.378 0 0 1-.22-.48c1.3-3.39 3.91-6.28 7.15-7.91.19-.09.41-.02.5.17.09.19.02.41-.17.5-3.08 1.55-5.56 4.29-6.79 7.51-.06.15-.2.24-.35.24ZM50.13 43.81c-.11 0-.22-.05-.3-.15-1.88-2.47-2.8-5.65-2.54-8.74.02-.21.21-.35.41-.34.21.02.36.2.34.41-.25 2.91.62 5.9 2.38 8.23.13.16.09.4-.07.53a.4.4 0 0 1-.23.08ZM83.99 67.04c-.1 0-.19-.04-.27-.11-4.55-4.62-11.16-7.17-17.62-6.82-.2.02-.38-.15-.39-.35a.37.37 0 0 1 .35-.39c6.7-.36 13.49 2.27 18.19 7.04.15.15.14.38 0 .53-.07.07-.17.11-.26.11ZM74.1 69.12c-.07 0-.14-.01-.21-.04a.375.375 0 0 1-.2-.49c.04-.1.12-.18.22-.21-.02-.02-.04-.05-.06-.08-2.07-2.68-5.18-4.49-8.53-4.95a.373.373 0 1 1 .1-.74c3.55.49 6.84 2.4 9.02 5.24.09.12.27.35.26.64 0 .21-.12.42-.29.53-.1.06-.21.1-.31.1Z"/><path class="cls-5" d="M53.17 96.84h-.06a.362.362 0 0 1-.31-.43 85.92 85.92 0 0 0-.13-26.83c-.03-.2.11-.4.31-.43.21-.03.4.11.43.31 1.46 8.97 1.5 18.07.13 27.06-.03.19-.19.32-.37.32Z"/><path class="cls-3" d="M38.34 84.94c-1.89-.48-2.17-2.3-1.59-3.11s5.84-6.34 7.99-9.33c2.16-2.99 1.3-6.47-.06-7.93-.17-.18-.36-.34-.55-.49v.06s-6.41 5.64-14.03 6.32c-2.25.2-4.3.06-6.17-.37l.46.19s-7.21 8.09-1.28 14.32 15.68.54 15.68.54"/><path class="cls-5" d="M30.23 87.86c-2.54 0-5.21-.73-7.38-3.01-5.33-5.6-.43-12.67.94-14.42a.393.393 0 0 1-.21-.46c.06-.19.25-.3.44-.25 1.88.43 3.91.55 6.05.36 7.02-.63 13.08-5.6 13.75-6.17.04-.06.08-.11.14-.14.13-.06.28-.08.39 0 .23.18.42.35.59.53 1.4 1.5 2.4 5.21.09 8.41-1.43 1.98-4.24 5.1-6.09 7.16-.96 1.06-1.71 1.91-1.9 2.17-.23.31-.26.84-.1 1.3.13.35.49.97 1.47 1.23.11.03.2.1.25.2.16-.06.35 0 .45.17.1.18.04.41-.13.51-.06.04-4.2 2.4-8.76 2.4Zm-5.61-17.25c-.34.4-1.83 2.25-2.73 4.64-1.34 3.56-.83 6.62 1.51 9.08 4.74 4.98 12.15 1.99 14.48.86-1.04-.39-1.46-1.14-1.62-1.58-.25-.7-.18-1.48.19-2 .21-.29.94-1.1 1.95-2.23 1.85-2.05 4.64-5.15 6.04-7.1 2.06-2.86 1.2-6.14-.03-7.46-.08-.08-.16-.16-.24-.23-1.18.99-7.05 5.61-14.03 6.23-1.93.17-3.79.1-5.53-.22Z"/><path class="cls-3" d="M82.79 76.42c-1.7.11-3.34 0-4.74-.35-9.04-2.18-14.03-8.11-16.51-12.25-.99 1.32-2.47 2.06-2.75 3.27-.63 2.67-.27 2.82 1.46 6.51s2.16 4.74 5.53 7.57c2.79 2.34 3.97 3.22 3.12 4.94-.39.79-1.36.71-2.2.67 0 0 9.8 7.92 16.1 2.62 6.52-5.48 0-12.94 0-12.94"/><path class="cls-5" d="M77.58 91.61c-5.41 0-10.82-4.3-11.12-4.55a.375.375 0 0 1-.12-.42c.06-.15.2-.26.37-.24h.11c.89.05 1.49.04 1.74-.46.66-1.32 0-1.96-2.67-4.19l-.35-.29c-3.34-2.8-3.88-3.96-5.49-7.4l-.14-.3c-.22-.48-.43-.9-.61-1.27-1.2-2.51-1.46-3.03-.88-5.48.2-.84.86-1.45 1.56-2.1.43-.4.88-.81 1.25-1.31.08-.1.22-.16.32-.15.12 0 .24.08.3.18 2.59 4.35 7.52 9.97 16.27 12.08 1.34.32 2.94.44 4.63.34.17 0 .32.09.38.25.48.58 3.2 4.02 2.9 7.91-.16 2.09-1.17 3.94-3.01 5.48-1.67 1.4-3.56 1.93-5.45 1.93Zm-9.74-4.47c2.54 1.75 9.81 6.08 14.71 1.96 1.67-1.41 2.6-3.07 2.74-4.96.27-3.49-2.21-6.74-2.7-7.35-1.68.09-3.28-.04-4.63-.37-8.7-2.1-13.73-7.57-16.47-11.97-.33.37-.68.69-1 .99-.64.59-1.19 1.1-1.34 1.72-.51 2.19-.36 2.51.83 4.98.18.38.38.8.61 1.28l.14.3c1.6 3.42 2.08 4.45 5.29 7.14l.35.29c2.54 2.13 3.82 3.19 2.86 5.1-.3.6-.83.81-1.39.87ZM54.66 47.76a.37.37 0 0 1-.37-.33c-.7-5.72.07-11.57 2.23-16.91.08-.19.29-.29.49-.21.19.08.28.3.21.49a33.507 33.507 0 0 0-2.18 16.54c.03.21-.12.39-.33.42h-.04Z"/><path d="M48.98 47.29a7.77 7.77 0 0 0-2.52 8.52c.02.07.05.13.07.2.02.07.05.13.07.2 1.95 5.08 7.15 10.84 7.15 10.84s5.39-5.86 7.33-11c0 0 0-.02.01-.03.9-2.46.53-5.31-1.22-7.51-2.67-3.35-7.56-3.89-10.9-1.22Z" style="fill:#fba919"/><path class="cls-5" d="m53.76 67.61-.28-.31c-.21-.24-5.28-5.87-7.23-10.96l-.17-.47A8.164 8.164 0 0 1 48.74 47a8.071 8.071 0 0 1 5.98-1.73c2.16.24 4.09 1.31 5.45 3.01a8.053 8.053 0 0 1 1.28 7.87c-1.95 5.18-7.2 10.91-7.42 11.16l-.28.3ZM46.82 55.7l.14.37c1.64 4.29 5.71 9.14 6.81 10.41 1.12-1.27 5.34-6.22 6.98-10.57.9-2.47.47-5.14-1.16-7.17a7.344 7.344 0 0 0-4.95-2.73c-1.96-.22-3.89.34-5.43 1.57a7.41 7.41 0 0 0-2.39 8.11Z"/></svg>