<svg width="575" height="132" fill="none" xmlns="http://www.w3.org/2000/svg"><path d="M570.2 108.27v-8.84c0-6.25-1.19-10.9-3.62-14.22-1.95-2.65-5.77-5.8-12.97-5.8-1.54 0-3.17.25-4.86.75-.57.17-1.14.36-1.7.57a6 6 0 0 0-3.25-.94h-2.64c-1.31 0-2.6.42-3.63 1.22l-.22.1c-.01 0-.37.14-1.35.3-.62.09-1.77.2-3.72.2a6.03 6.03 0 0 0-5.38 3.31 21.28 21.28 0 0 0-3.8-2.72 22.14 22.14 0 0 0-11-2.79c-4 0-7.72 1.04-11.08 3.09a21.36 21.36 0 0 0-5.19 4.43l-.5-.76a15.56 15.56 0 0 0-6.5-5.08 22.02 22.02 0 0 0-8.9-1.68c-3.38 0-6.41.67-9.22 2a22.04 22.04 0 0 0-8.8 7.4v-2.98c0-1.59-.62-3.04-1.63-4.12a10.97 10.97 0 0 0 1.69-5.95c0-2.77-.95-5.32-2.75-7.35a9.99 9.99 0 0 0-7.56-3.42 9.91 9.91 0 0 0-7.47 3.31 10.76 10.76 0 0 0-2.9 7.46c0 2.18.58 4.2 1.7 5.93a6.04 6.04 0 0 0-5.03 5.96v4.1a6.05 6.05 0 0 0 4.14 5.74V109.02a6.05 6.05 0 0 0-3.7 5.57v3.34c0 3.34 2.7 6.05 6.03 6.05h15.27c2.5 0 4.65-1.53 5.57-3.7.99.8 2.05 1.5 3.2 2.1 3.23 1.73 6.8 2.6 10.59 2.6 2.04 0 4.15-.3 6.27-.87a22.01 22.01 0 0 0 10.27-6.34c1.6 1.81 3.49 3.31 5.65 4.5 3.31 1.8 7.01 2.71 11 2.71 3.97 0 7.9-1.03 11.21-3.06a20.7 20.7 0 0 0 3.4-2.6 6.03 6.03 0 0 0 5.87 4.65h15.27c.85 0 1.65-.17 2.38-.5a6 6 0 0 0 2.4.5H568c3.34 0 6.04-2.7 6.04-6.05v-4.03c0-2.56-1.6-4.74-3.83-5.63v.01ZM254.27 107.38l.17-.11h-.17v.11Z" fill="#6F1714"/><path d="m266.8 107.65-1.42-1.31a6.05 6.05 0 0 0 3.06-5.17c.05-3.56-.46-6.72-1.54-9.4a17.62 17.62 0 0 0-11.33-10.7 23.24 23.24 0 0 0-6.87-1.02 20.57 20.57 0 0 0-15.07 6.23 6.03 6.03 0 0 0-5.98-5.22h-2.78l.02-2.72a6.05 6.05 0 0 0-6.04-6.1h-3.83a6.04 6.04 0 0 0-5.93 4.9 5.87 5.87 0 0 1-.88 2.12c-.45.7-.94 1.21-1.48 1.6-.23.16-.37.2-.4.2a6.03 6.03 0 0 0-4.97 2.94c-3.02-2.62-7-3.95-11.86-3.95-3.1 0-5.99.47-8.6 1.38-2.85 1-5.22 2.46-7.02 4.34-.3.31-.59.65-.85.99h-2.1c-.34-.55-.72-1.06-1.13-1.54-2.01-2.36-5.8-5.17-12.41-5.17-2.52 0-5.1.55-7.68 1.64-.6.25-1.2.53-1.77.82-.35-.24-.72-.46-1.1-.66-2.2-1.2-4.83-1.8-7.8-1.8-2.14 0-4.32.4-6.5 1.21a6.03 6.03 0 0 0-3.05-.83h-2.64c-1.31 0-2.6.43-3.64 1.22a4.8 4.8 0 0 1-.21.1c-.02 0-.37.14-1.35.3-.62.1-1.77.2-3.72.2a6 6 0 0 0-2.83.71 5.91 5.91 0 0 0-.49-.6 10.98 10.98 0 0 0 1.69-5.95c0-2.78-.95-5.32-2.75-7.35a9.98 9.98 0 0 0-7.56-3.42 9.91 9.91 0 0 0-7.47 3.3 10.76 10.76 0 0 0-2.9 7.46c0 2.18.58 4.2 1.7 5.93l-.5.1a6 6 0 0 0-3.84-1.38H90.2l.02-2.72a6.05 6.05 0 0 0-6.04-6.09h-3.83a6.04 6.04 0 0 0-5.93 4.9 5.86 5.86 0 0 1-.88 2.11c-.46.7-.94 1.22-1.48 1.6-.23.16-.37.2-.4.2l-.28.03-.02-10.04c0-3.34-2.7-6.04-6.03-6.04H62.5c-1.3 0-2.56.42-3.6 1.2l-.23.1c-.02 0-.4.15-1.45.31-.64.1-1.82.22-3.83.22a6 6 0 0 0-4.12 1.63H36.93a6.02 6.02 0 0 0-4.94 2.57h-4.02a6.02 6.02 0 0 0-4.93-2.57H6.32a6.04 6.04 0 0 0-6.04 6.05v4.15a6.06 6.06 0 0 0 4.4 5.82v14.57c0 3.54.34 6.82 1 9.74a23.01 23.01 0 0 0 3.94 8.77 18.9 18.9 0 0 0 8.06 6.15c3.09 1.29 6.7 1.9 11.01 1.9 3.47 0 6.66-.56 9.5-1.67a20.3 20.3 0 0 0 9.66-7.87v2.5c0 3.34 2.7 6.04 6.04 6.04h15.27a6.03 6.03 0 0 0 5.35-3.24 13.3 13.3 0 0 0 6.15 3.6 19.4 19.4 0 0 0 7.36.49 17.22 17.22 0 0 0 6.74-2.37 6 6 0 0 0 4 1.52h15.27c.77 0 1.5-.15 2.17-.41a6 6 0 0 0 2.16.4h15.02c.73 0 1.43-.12 2.08-.36.64.24 1.34.37 2.07.37h15.08a6 6 0 0 0 2.01-.35 6 6 0 0 0 2.01.35h14.9c1.39 0 2.67-.48 3.69-1.27a15.7 15.7 0 0 0 8.56 2.27c2.5 0 4.96-.49 7.3-1.46l.13-.06c.75.33 1.57.52 2.43.52h10.87a6.02 6.02 0 0 0 5.1-2.82c.08.08.15.16.24.23a13.3 13.3 0 0 0 5.47 2.95 19.41 19.41 0 0 0 7.36.48c1.38-.14 2.8-.52 4.38-1.17a19.5 19.5 0 0 0 6.46-4.44 19.9 19.9 0 0 0 3.85 2.91c3.27 1.9 6.99 2.86 11.07 2.86 1.88 0 3.92-.25 6.05-.76a22.11 22.11 0 0 0 13.2-9.35 6.05 6.05 0 0 0-.9-7.87l.01.02Zm-12.53-.27v-.1h.17l-.16.1Z" fill="#6F1714"/><path d="M22.1 77.93a6.25 6.25 0 0 0-2.6.56c-.65.34-1.11.87-1.39 1.6-.27.74-.4 1.78-.4 3.12v16.87c0 2.52.24 4.71.72 6.58a13.52 13.52 0 0 0 2.1 4.69 8.74 8.74 0 0 0 3.43 2.83c1.36.63 2.94.94 4.74.94 2.52.09 4.64-.44 6.38-1.57a10.34 10.34 0 0 0 3.93-4.97 21.37 21.37 0 0 0 1.32-8l.06-16.86c0-1.05.02-2.06.06-3.03.05-.96.1-1.72.2-2.26-.72.04-1.54.07-2.46.09-.92.02-1.66.05-2.2.1v-4.16h13.58v3.46a6.06 6.06 0 0 0-2.68.6 2.9 2.9 0 0 0-1.35 1.85c-.25.89-.37 2.14-.37 3.78l-.07 15.36c0 3.32-.39 6.22-1.16 8.72a16.56 16.56 0 0 1-3.43 6.26 14.23 14.23 0 0 1-5.46 3.78 19.84 19.84 0 0 1-7.3 1.26c-3.47 0-6.37-.49-8.7-1.45a12.87 12.87 0 0 1-5.53-4.19 17 17 0 0 1-2.89-6.48A38.2 38.2 0 0 1 9.8 99V84.58c0-1.09.03-2.23.09-3.43.06-1.2.11-2.1.16-2.74-.72.04-1.53.07-2.46.1-.92.02-1.65.05-2.2.09v-4.15H22.1v3.46ZM52.96 115.19c1.21 0 2.08-.27 2.6-.79a3.6 3.6 0 0 0 .95-2.23c.1-.97.15-2.06.15-3.28V81.7a48.56 48.56 0 0 1 .25-5.03l-2.32.12-2.14.13v-4.1c1.93 0 3.51-.09 4.75-.28 1.23-.18 2.2-.43 2.89-.72.7-.3 1.18-.57 1.48-.82h2.82l.07 38.52c0 .67-.02 1.48-.07 2.43a29.1 29.1 0 0 1-.25 2.73c.72-.08 1.45-.13 2.2-.15l1.89-.03v4.03H52.96v-3.34ZM84.7 119.53c-1.18 0-2.32-.15-3.43-.44a7.35 7.35 0 0 1-3.02-1.64 8.2 8.2 0 0 1-2.16-3.55 19.59 19.59 0 0 1-.82-6.27l.12-16.23-4.46.06v-4.4a6.7 6.7 0 0 0 3.65-1.3c1.17-.82 2.2-1.9 3.08-3.24a11.84 11.84 0 0 0 1.76-4.28h3.83l-.06 8.81h8.86v4.03l-8.86.19-.07 16.17c0 1.27.12 2.43.35 3.5a5.13 5.13 0 0 0 1.26 2.55c.6.63 1.43.94 2.48.94.8 0 1.7-.25 2.73-.76 1.03-.5 2.07-1.5 3.11-3.02l2.58 2.33a15.74 15.74 0 0 1-3.24 3.72 13.4 13.4 0 0 1-3.2 1.95c-1.03.42-1.94.67-2.73.76-.8.08-1.39.12-1.76.12ZM97.83 115.19c1.21 0 2.07-.27 2.57-.79s.82-1.27.94-2.23c.13-.97.2-2.06.2-3.28V97.12a48.86 48.86 0 0 1 .24-5.03l-2.32.12c-.84.04-1.53.09-2.07.13v-4.1c1.88 0 3.44-.08 4.68-.27 1.23-.2 2.2-.43 2.89-.73.69-.29 1.18-.57 1.47-.82h2.83v23.1l-.03 2.43c-.02.94-.1 1.86-.22 2.74.67-.09 1.4-.14 2.17-.16l1.91-.03v4.03H97.83v-3.34Zm8.65-44.24c-2.01 0-3.73 1.27-4.38 3.06l-.04.12c0 .04-.02.08-.04.12-.98 3.11-.74 7.2-.7 7.74l-.03.04h.03v.03l.03-.04c.55-.08 4.7-.73 7.53-2.41l.01-.01a4.66 4.66 0 0 0-2.41-8.65M117.44 118.52v-3.33c1.2 0 2.07-.27 2.57-.79s.82-1.27.94-2.23c.13-.97.2-2.06.2-3.28V97.06a47.94 47.94 0 0 1 .24-4.97l-2.32.13-2.08.12v-4.09c1.89 0 3.44-.1 4.66-.28 1.2-.19 2.15-.43 2.82-.72.67-.3 1.16-.57 1.45-.82h2.64c.08.42.13.93.16 1.54.02.6.05 1.16.09 1.67a18 18 0 0 1 4.52-2.61c1.64-.65 3.23-.98 4.78-.98 1.97 0 3.61.36 4.94 1.07a7.73 7.73 0 0 1 3.1 3.08 19.75 19.75 0 0 1 4.97-2.99 13.73 13.73 0 0 1 5.34-1.16c3.48 0 6.09 1.02 7.83 3.05 1.74 2.04 2.58 5.49 2.54 10.36v10.07a54.54 54.54 0 0 1-.25 5.16c.67-.08 1.38-.14 2.14-.16l1.88-.03v4.03h-14.9v-3.34c1.1 0 1.87-.26 2.33-.78.47-.52.75-1.27.85-2.23.1-.97.16-2.06.16-3.28v-9.38c0-3.02-.48-5.18-1.45-6.48a4.79 4.79 0 0 0-4.08-1.95 7.4 7.4 0 0 0-3.36.66 12 12 0 0 0-2.8 1.73c.2.8.36 1.66.44 2.58.08.93.13 1.91.13 2.96v5.26c0 1.74-.02 3.5-.07 5.26 0 .67 0 1.47-.03 2.42-.02.94-.09 1.86-.22 2.74.67-.09 1.39-.14 2.14-.16l1.95-.03v4.03H136.6v-3.34c1.14 0 1.94-.26 2.43-.78a4 4 0 0 0 .9-2.24c.13-.96.2-2.05.2-3.27v-9.5c0-3.02-.45-5.18-1.36-6.45a4.72 4.72 0 0 0-3.99-1.99c-1.13 0-2.2.25-3.23.76-1.03.5-1.92 1.11-2.67 1.82v16l-.03 2.42c-.03.94-.1 1.85-.22 2.73.67-.08 1.35-.13 2.04-.15l1.79-.03v4.03h-15.02v-.03ZM192.72 118.52a10.9 10.9 0 0 1-.22-1.6l-.1-1.54a14.12 14.12 0 0 1-4.56 3.14c-1.61.67-3.27 1.01-4.99 1.01-2.85 0-5.04-.78-6.57-2.33a7.84 7.84 0 0 1-2.3-5.73c0-2.01.55-3.72 1.64-5.13a12.54 12.54 0 0 1 4.28-3.46c1.75-.9 3.7-1.6 5.84-2.08a31.9 31.9 0 0 1 6.34-.78v-3.46c0-1.22-.13-2.34-.4-3.37a4.71 4.71 0 0 0-1.48-2.46c-.71-.6-1.76-.9-3.14-.9-.92.03-1.85.23-2.8.59-.94.36-1.68.91-2.23 1.67.34.38.55.78.63 1.23.09.44.13.82.13 1.16 0 .76-.3 1.54-.88 2.36-.6.82-1.53 1.2-2.83 1.16-1.13-.04-2-.44-2.61-1.2a4.19 4.19 0 0 1-.91-2.7c0-1.6.57-2.99 1.73-4.18a11.8 11.8 0 0 1 4.68-2.84c1.97-.69 4.17-1.04 6.6-1.04 3.6 0 6.36.95 8.3 2.84 1.92 1.88 2.86 4.9 2.82 9.06v4c0 1.2-.01 2.39-.03 3.58-.02 1.2-.03 2.53-.03 4a54.9 54.9 0 0 1-.25 5.16 27.4 27.4 0 0 1 2.3-.16c.77-.02 1.4-.05 1.91-.09v4.1h-10.87Zm-.7-14.79c-1.25.09-2.49.29-3.7.6-1.22.31-2.3.75-3.27 1.3a6.78 6.78 0 0 0-2.3 2.04 4.49 4.49 0 0 0-.78 2.8c.04 1.3.46 2.25 1.26 2.86.8.61 1.72.92 2.76.92 1.22 0 2.32-.25 3.3-.76.98-.5 1.9-1.17 2.74-2.01v-7.75ZM219.36 119.53c-1.17 0-2.31-.15-3.42-.44a7.36 7.36 0 0 1-3.02-1.64 8.21 8.21 0 0 1-2.16-3.55 19.6 19.6 0 0 1-.82-6.27l.12-16.23-4.46.06v-4.4a6.7 6.7 0 0 0 3.65-1.3c1.17-.82 2.2-1.9 3.08-3.24a11.85 11.85 0 0 0 1.76-4.28h3.83l-.06 8.81h8.86v4.03l-8.86.19-.07 16.17c0 1.27.12 2.43.35 3.5a5.13 5.13 0 0 0 1.26 2.55c.6.63 1.43.94 2.48.94.8 0 1.7-.25 2.73-.76 1.03-.5 2.06-1.5 3.11-3.02l2.58 2.33a15.75 15.75 0 0 1-3.24 3.72 13.41 13.41 0 0 1-3.2 1.95c-1.03.42-1.94.67-2.74.76-.8.08-1.38.12-1.75.12ZM247.51 119.53c-3.01 0-5.7-.68-8.04-2.05a14.02 14.02 0 0 1-5.47-5.79 18.95 18.95 0 0 1-1.95-8.84c0-2.94.65-5.69 1.95-8.25a16.05 16.05 0 0 1 5.5-6.2 14.57 14.57 0 0 1 8.26-2.36c1.76 0 3.46.25 5.1.76a11.56 11.56 0 0 1 7.5 7.17 18.18 18.18 0 0 1 1.1 7.05l-21.1.38c0 2.6.3 4.9.9 6.9.61 1.98 1.6 3.56 2.99 4.71 1.38 1.16 3.2 1.73 5.47 1.73a11 11 0 0 0 3.23-.53 13.79 13.79 0 0 0 6.44-4.37l2.39 2.2a16.05 16.05 0 0 1-9.61 6.9c-1.68.39-3.23.59-4.66.59Zm-6.84-21.9h13.07c-.05-1.68-.29-3.1-.72-4.25a5.65 5.65 0 0 0-1.92-2.64 5.1 5.1 0 0 0-3.08-.92c-2.05 0-3.7.69-4.93 2.05-1.24 1.36-2.05 3.28-2.42 5.76Z" fill="#FFC803"/><path d="m450.46 71.38-1.07-16.02a9.07 9.07 0 0 0-9.64-8.44l-2.8.19-.03-.41-2.55-38.24a9.07 9.07 0 0 0-9.63-8.44l-18.03 1.2c-1.58.11-3.1.63-4.4 1.49a73.6 73.6 0 0 0-6-.83c-3.7-.34-7.1-.41-10.12-.21-9.58.64-18.12 3.1-25.37 7.34a54.27 54.27 0 0 0-18.4 17.38l-.77-11.73A9.07 9.07 0 0 0 332 6.22l-18.17 1.21c-1.33.1-2.6.47-3.73 1.09a59.58 59.58 0 0 0-13.89-.84c-7.4.5-13.83 2.04-19.13 4.58-5.51 2.65-10.01 6.06-13.4 10.15a36.18 36.18 0 0 0-7.04 13.2 38.17 38.17 0 0 0-1.47 12.97 40.25 40.25 0 0 0 4.49 16.46 40.1 40.1 0 0 0 7.23 9.65 9.07 9.07 0 0 0-7.24 9.5l2.56 38.36a9.06 9.06 0 0 0 9.63 8.45l17.94-1.2c1.48-.1 2.9-.56 4.14-1.33 5.07.97 9.9 1.32 14.37 1.02 8.52-.57 16.12-2.59 22.59-6 6.97-3.66 12.41-8.7 16.17-14.95.3-.51.6-1.03.87-1.56 4 4.27 8.65 7.85 13.94 10.69 7.8 4.18 16.77 6.3 26.68 6.3a73.36 73.36 0 0 0 18.1-2.3 124.9 124.9 0 0 0 9.88-3.12l.06-.02c2.76-1.05 5.35-1.99 7.7-2.81 1.4-.5 2.8-.78 4.19-.88l6.91-.46a9.05 9.05 0 0 0 8.44-9.65l-1.58-23.7.3-.04a9.06 9.06 0 0 0 7.9-9.6Z" fill="#6F1714"/><path d="M445.69 114.58c1.21 0 2.07-.26 2.58-.78.5-.53.81-1.27.94-2.24.13-.96.19-2.05.19-3.27V96.52a48.78 48.78 0 0 1 .25-5.04l-2.33.13-2.07.12v-4.09c1.88 0 3.45-.09 4.68-.28 1.23-.19 2.2-.43 2.9-.72.68-.3 1.17-.57 1.47-.82h2.82v23.1c0 .67 0 1.48-.02 2.42-.03.95-.1 1.86-.23 2.74.67-.08 1.4-.13 2.17-.15.78-.03 1.41-.04 1.92-.04v4.03h-15.27v-3.33Zm7.23-43.08a4.47 4.47 0 0 0-4.28 3.17c-.95 2.99-.71 6.9-.68 7.43l-.02.03h.03v.03l.03-.03c.53-.08 4.5-.7 7.22-2.32l.02-.01a4.47 4.47 0 0 0-2.32-8.3M480.32 118.92c-2.81 0-5.4-.62-7.77-1.88a14.1 14.1 0 0 1-5.65-5.51c-1.4-2.41-2.1-5.32-2.1-8.72a18.2 18.2 0 0 1 4.55-12.12 15.49 15.49 0 0 1 11.85-5.26c2.55 0 4.7.4 6.47 1.17a9.6 9.6 0 0 1 4.02 3.09 6.85 6.85 0 0 1 1.38 4.06 4.7 4.7 0 0 1-.97 2.95 3.48 3.48 0 0 1-2.8 1.33c-1.42.04-2.42-.37-2.98-1.23a4.47 4.47 0 0 1-.85-2.43c0-.42.06-.87.18-1.35.13-.48.34-.93.63-1.35a3.07 3.07 0 0 0-1.44-1.67 6.92 6.92 0 0 0-2.08-.73 7.23 7.23 0 0 0-7.41 3.02c-1.51 2.02-2.27 4.96-2.27 8.82 0 2.3.33 4.43.98 6.38a10.7 10.7 0 0 0 2.98 4.73 7.67 7.67 0 0 0 5.16 1.85c1.84.04 3.62-.4 5.34-1.35a12.56 12.56 0 0 0 4.2-3.69l2.52 2.33a17.96 17.96 0 0 1-4.46 4.6c-1.6 1.09-3.2 1.85-4.8 2.3a17.7 17.7 0 0 1-4.69.66ZM513.5 118.92a16.7 16.7 0 0 1-8.11-1.98 14.62 14.62 0 0 1-5.75-5.6 16.53 16.53 0 0 1-2.1-8.47c0-3.4.7-6.42 2.13-9.06a15.87 15.87 0 0 1 5.75-6.17c2.4-1.46 5.06-2.2 7.95-2.2 2.89 0 5.65.67 8.04 2.01a15.05 15.05 0 0 1 5.69 5.6 16.5 16.5 0 0 1 2.1 8.5c0 3.44-.68 6.48-2.04 9.1a15.17 15.17 0 0 1-5.6 6.1 15.16 15.16 0 0 1-8.07 2.18Zm.31-3.83c1.89 0 3.33-.59 4.34-1.77 1-1.17 1.7-2.67 2.1-4.5.4-1.82.6-3.7.6-5.63 0-1.64-.13-3.3-.4-4.97-.28-1.68-.7-3.2-1.3-4.57a8.76 8.76 0 0 0-2.32-3.27 5.24 5.24 0 0 0-3.52-1.23 5.9 5.9 0 0 0-4.4 1.83 10.41 10.41 0 0 0-2.35 4.46c-.49 1.8-.72 3.72-.72 5.73 0 2.27.27 4.48.81 6.64a12.7 12.7 0 0 0 2.58 5.29 5.58 5.58 0 0 0 4.59 1.98ZM533.98 117.92v-3.34c1.22 0 2.07-.26 2.58-.78.5-.53.82-1.27.94-2.24.13-.96.19-2.05.19-3.27V96.46a47.94 47.94 0 0 1 .25-4.98c-.67.05-1.44.09-2.3.13-.86.04-1.56.09-2.1.13v-4.1c1.88 0 3.43-.09 4.65-.28 1.21-.18 2.16-.43 2.83-.72.67-.3 1.15-.57 1.44-.82h2.64c.09.46.13.84.13 1.14 0 .29.02.6.06.9l.19 1.36c.84-.71 1.81-1.35 2.92-1.92a20.09 20.09 0 0 1 3.36-1.35c1.14-.34 2.18-.5 3.15-.5 3.76 0 6.47 1.1 8.1 3.33s2.45 5.77 2.45 10.64v9.5c0 .67 0 1.48-.03 2.43a23 23 0 0 1-.22 2.74c.71-.09 1.45-.14 2.2-.16l1.89-.03v4.03h-15.27v-3.34c1.21 0 2.08-.26 2.6-.78.53-.53.85-1.28.98-2.24.13-.96.19-2.05.19-3.27l-.07-8.94c0-3.02-.45-5.28-1.35-6.77-.9-1.49-2.38-2.23-4.43-2.23a9.2 9.2 0 0 0-3.58.88 9.65 9.65 0 0 0-2.96 2.08c.05.5.07 1.02.07 1.57v1.64l-.07 12.4c0 .67 0 1.47-.03 2.42-.02.94-.09 1.86-.22 2.74.67-.09 1.4-.14 2.17-.16l1.92-.03v4.03h-15.27v-.01Z" fill="#FFC803"/><path d="M338.35 74.4a34.08 34.08 0 0 0-8.76-8.94c-3.34-2.35-7-4.37-10.86-6-3.7-1.55-7.35-2.9-10.84-4.03-4.79-1.64-8.8-3.22-11.93-4.7-2.78-1.3-4.86-2.74-6.18-4.25a7.67 7.67 0 0 1-1.85-4.73c-.14-2.15.6-3.79 2.4-5.32a12.5 12.5 0 0 1 7.54-2.94h.07c3.45-.3 6.52.14 9.13 1.32a16.34 16.34 0 0 1 6.67 5.67c1.94 2.74 3.43 6.34 4.43 10.7l.72 3.14 15.65-1.05L332 15.04l-18.17 1.21.41 2.5a51.25 51.25 0 0 0-18.03-2.25c-6.23.42-11.56 1.67-15.82 3.71-4.31 2.07-7.8 4.69-10.33 7.76a27.15 27.15 0 0 0-5.31 9.89 29.08 29.08 0 0 0-1.15 9.88 31.32 31.32 0 0 0 3.44 12.78 31.26 31.26 0 0 0 7.83 9.48 49.85 49.85 0 0 0 10.8 6.66c3.87 1.78 8.08 3.45 12.5 4.95l.07.03c3.31 1.06 6.66 2.2 9.94 3.38a24.55 24.55 0 0 1 7.26 3.97 6.3 6.3 0 0 1 2.36 4.75 6.78 6.78 0 0 1-1.03 4.06 10.15 10.15 0 0 1-3.85 3.58 15.3 15.3 0 0 1-6.57 1.78c-5.27.36-9.76-.9-13.74-3.82-3.91-2.87-6.65-7.55-8.15-13.92l-.74-3.11-15.63 1.04 2.56 38.37 17.93-1.2-.41-2.98c2.1.7 4.26 1.29 6.45 1.72 4.46.89 8.66 1.2 12.47.95 7.25-.48 13.64-2.15 18.98-4.97 5.49-2.89 9.73-6.8 12.62-11.6a27.53 27.53 0 0 0 3.81-16.31 26.09 26.09 0 0 0-4.14-12.93ZM433.14 73.43c.15-.17.4-.42.94-.58.86-.27 1.94-.49 3.2-.65l3.52-.44-1.06-16.02-42.52 2.84 1.2 18.04 4.07-.64c.6-.1 1.85-.26 4.34-.48l1.15-.1v.84c.02 2.27.1 4.66.27 7.1l.65 9.74c-.84.35-1.78.69-2.82 1a58.44 58.44 0 0 1-11.8 2.28c-5.11.34-9.35-.76-12.95-3.36-3.72-2.7-6.74-6.64-8.94-11.72-2.32-5.32-3.73-11.6-4.2-18.7-.3-4.41-.07-8.8.67-13.03.73-4.13 1.99-7.9 3.75-11.19a22.43 22.43 0 0 1 6.66-7.7c2.68-1.93 5.87-3 9.74-3.26 3.53-.23 6.83.27 9.8 1.48a18.45 18.45 0 0 1 7.54 5.68c2.12 2.63 3.7 6.14 4.67 10.41l.73 3.14 15.52-1.03-2.55-38.24-18.03 1.2.5 3.04a66.98 66.98 0 0 0-12.34-2.4c-3.21-.3-6.13-.36-8.68-.2-8.18.56-15.38 2.62-21.42 6.14a45.26 45.26 0 0 0-14.72 13.54 54.76 54.76 0 0 0-7.97 17.8 62.11 62.11 0 0 0-1.75 19.14c.62 9.24 3.09 17.65 7.34 25a44.9 44.9 0 0 0 17.87 17.35c6.47 3.47 13.99 5.22 22.4 5.22 1.4 0 2.81-.05 4.25-.15a58.3 58.3 0 0 0 11.46-1.83c3.29-.9 6.35-1.87 9.1-2.87l.04-.01a337.1 337.1 0 0 1 7.9-2.89 24.97 24.97 0 0 1 6.58-1.36l6.92-.46-1.66-24.85c-.18-2.8-.06-4.38.08-5.23.2-1.15.48-1.53.54-1.6Z" fill="#F4333D"/></svg>