<svg width="43" height="43" fill="none" xmlns="http://www.w3.org/2000/svg"><g clip-path="url(#a)"><path d="M26.57 16.33H16.43c-.3 0-.54.25-.54.55v25.58c0 .3.24.54.54.54h10.14c.3 0 .55-.24.55-.54V16.88c0-.3-.25-.55-.55-.55Z" fill="#F2333D"/><path d="M41.75 30.79H31.61c-.3 0-.55.24-.55.54v11.13c0 .3.25.54.55.54h10.14c.3 0 .54-.24.54-.54V31.33c0-.3-.24-.54-.54-.54ZM11.4 23.56H1.25c-.3 0-.54.25-.54.55v18.35c0 .3.24.54.54.54H11.4c.3 0 .54-.24.54-.54V24.1c0-.3-.24-.55-.54-.55Z" fill="#703619"/><path d="M26.55 3.67h-2.8a.2.2 0 0 1-.18-.13L22.71.88A1.25 1.25 0 0 0 21.5 0c-.57 0-1.04.35-1.21.88l-.87 2.66a.19.19 0 0 1-.18.13h-2.8c-.56 0-1.03.34-1.2.88-.18.53 0 1.09.46 1.42l2.26 1.64c.07.05.1.14.07.21l-.87 2.66c-.17.54 0 1.1.46 1.42a1.26 1.26 0 0 0 1.5 0l2.26-1.64a.19.19 0 0 1 .22 0l2.27 1.64c.45.33 1.04.33 1.5 0 .45-.32.63-.88.46-1.42l-.87-2.66a.19.19 0 0 1 .07-.2l2.26-1.65c.46-.33.64-.89.47-1.42a1.25 1.25 0 0 0-1.21-.88Z" fill="#F2333D"/><path d="M11.37 12.1h-2.8a.2.2 0 0 1-.18-.13l-.86-2.66a1.25 1.25 0 0 0-1.2-.88c-.57 0-1.04.35-1.22.88l-.86 2.66a.19.19 0 0 1-.18.13h-2.8c-.56 0-1.03.34-1.2.88-.18.53 0 1.09.45 1.42l2.27 1.64c.07.05.1.14.07.21l-.87 2.66c-.17.54.01 1.1.46 1.42.46.33 1.04.33 1.5 0L6.2 18.7a.19.19 0 0 1 .22 0l2.26 1.64a1.26 1.26 0 0 0 1.5 0c.45-.32.63-.88.46-1.42l-.86-2.66a.19.19 0 0 1 .07-.2l2.26-1.65c.45-.33.64-.89.46-1.42a1.25 1.25 0 0 0-1.2-.88ZM42.94 19.42a1.25 1.25 0 0 0-1.21-.88h-2.8a.2.2 0 0 1-.18-.13l-.86-2.66a1.25 1.25 0 0 0-1.22-.87c-.56 0-1.03.34-1.2.87l-.87 2.66a.19.19 0 0 1-.18.13h-2.8c-.56 0-1.03.34-1.2.88-.18.53 0 1.1.45 1.42l2.27 1.64c.06.05.1.14.06.21l-.86 2.66c-.17.54 0 1.1.46 1.43.45.32 1.04.32 1.5 0l2.26-1.65a.19.19 0 0 1 .21 0l2.27 1.65a1.26 1.26 0 0 0 1.5 0c.45-.33.63-.9.46-1.43l-.86-2.66a.19.19 0 0 1 .06-.2l2.27-1.65c.45-.33.63-.89.46-1.42Z" fill="#703619"/></g><defs><clipPath id="a"><path fill="#fff" d="M0 0h43v43H0z"/></clipPath></defs></svg>