<svg width="373" height="577" viewBox="0 0 373 577" fill="none" xmlns="http://www.w3.org/2000/svg">
<path d="M279.818 280.7L327.507 276.116C327.507 276.116 344.62 360.348 347.839 384.054C351.057 407.76 350.246 482.954 350.246 482.954C351.032 491.335 354.201 522.311 351.095 526.119C347.54 530.483 342.142 530.383 339.978 530.237C339.978 530.237 338.479 536.353 333.888 536.043C333.888 536.043 331.625 541.286 327.026 541.533C322.4 541.749 304.364 540.005 304.364 540.005C304.364 540.005 304.556 533.244 310.235 533.099C310.235 533.099 311.053 528.814 320.252 529.171C320.252 529.171 318.225 523.081 325.877 521.984L328.962 520.667L324.64 508.089L322.058 510.231C319.475 512.374 316.512 524.08 313.541 524.143C310.57 524.207 306.932 521.528 306.932 521.528L316.56 478.512L322.875 471.988L298.75 376.286L279.788 280.698L279.818 280.7Z" fill="#FFC3A4"/>
<g clip-path="url(#clip0_811_65)">
<path d="M168.519 182.422L233.999 184.286L228.985 128.352C228.985 128.352 233.505 127.572 234.799 103.409C236.095 79.2154 238.912 38.1592 238.912 38.1592C211.358 24.9524 178.804 27.6737 153.817 45.2626L150.102 47.8613L168.491 182.391L168.519 182.422Z" fill="#FFC3A4"/>
<path d="M156.51 77.9667C156.108 77.7743 140.052 72.3647 139.893 88.9334C139.734 105.502 156.443 102.241 156.462 101.773C156.482 101.306 156.509 77.9959 156.509 77.9959L156.51 77.9667Z" fill="#FFC3A4"/>
<path d="M234.484 77.7427C234.902 77.5843 249.855 74.2212 248.642 90.7463C247.429 107.271 231.047 102.639 231.067 102.171C231.086 101.703 234.484 77.7427 234.484 77.7427Z" fill="#FFC3A4"/>
<path d="M255.06 30.7167C255.448 27.7165 254.469 24.4547 252.082 22.5988C249.695 20.7428 245.912 20.7032 243.828 22.8717C245.137 18.8847 242.022 14.0702 237.846 13.6336C233.903 13.2067 230.412 16.0489 226.533 16.9424C222.772 17.8114 218.796 16.7682 215.284 15.1584C211.771 13.5779 208.486 11.4505 204.911 9.95525C197.441 6.89298 188.789 6.85655 181.3 9.91381C173.84 12.9723 167.663 19.0416 164.51 26.4662C159.279 24.5802 153.136 27.0197 149.699 31.387C146.234 35.7238 145.169 41.595 145.586 47.1176C145.871 50.8485 146.806 54.4891 147.918 58.0786C147.905 58.4001 147.863 58.6913 147.879 59.014C147.592 72.3263 152.788 114.681 158.465 115.004C168.357 115.561 162.434 70.1887 162.434 70.1887C174.78 66.015 171.026 47.6155 174.185 44.9938C177.344 42.372 183.965 36.204 208.901 50.2687C218.589 55.7363 231.744 56.1058 238.985 54.7953C239.192 54.7453 239.399 54.7246 239.634 54.7051C239.693 54.7075 239.751 54.7099 239.782 54.6819C239.87 54.6855 239.931 54.6295 239.99 54.6027C242.299 54.1127 244.532 53.2974 246.635 52.0961C249.009 50.7303 251.169 48.8578 252.27 46.3558C253.342 43.8525 253.123 40.6515 251.208 38.7272C253.18 36.437 254.759 33.7204 255.146 30.7495L255.06 30.7167Z" fill="#333333"/>
<path d="M151.198 75.9016C153.113 89.8614 152.313 97.1199 154.213 106.482C157.237 121.278 164.062 132.835 176.965 140.691C189.869 148.546 207.765 149.171 219.539 139.673C227.702 133.101 233.62 125.498 235.222 115.139C236.825 104.781 238.761 86.3829 239.253 75.9197C240.182 57.041 242.19 39.0269 242.19 39.0269L188.54 27.0227L157.036 44.0194L151.198 75.9016Z" fill="#333333"/>
<path d="M124.71 286.02L77.0058 281.594C77.0058 281.594 60.1717 365.882 57.0318 389.599C53.8919 413.316 54.9531 488.506 54.9531 488.506C54.195 496.89 51.1288 527.876 54.2475 531.673C57.8168 536.026 63.2144 535.908 65.3778 535.755C65.3778 535.755 66.8973 541.866 71.4871 541.541C71.4871 541.541 73.7673 546.776 78.3671 547.008C82.994 547.209 101.024 545.405 101.024 545.405C101.024 545.405 100.81 538.644 95.1302 538.518C95.1302 538.518 94.2982 534.236 85.1001 534.623C85.1001 534.623 87.1073 528.527 79.4513 527.455L76.362 526.149L80.6417 513.556L83.2313 515.69C85.8209 517.824 88.8229 529.52 91.7941 529.573C94.7653 529.627 98.3943 526.936 98.3943 526.936L88.6242 483.952L82.2878 477.449L106.094 381.668L124.739 286.018L124.71 286.02Z" fill="#FFC3A4"/>
<path d="M289.732 460.281L206.044 456.813L105.693 466.124C105.693 466.124 107.78 608.998 108.461 652.717C109.112 696.465 107.477 770.602 107.477 770.602L119.007 943.941L184.036 939.725L185.404 906.721C224.233 899.106 239.328 922.016 239.328 922.016C239.328 922.016 267.989 809.408 272.185 788.146C276.38 766.884 276.416 686.033 276.416 686.033L289.734 460.252L289.732 460.281ZM190.933 773.299L198.16 598.922L202.483 542.73L201.954 555.505L199.904 698.383L190.932 773.329L190.933 773.299Z" fill="#000C3D"/>
<path d="M257.456 385.779C257.456 385.779 256.482 387.027 254.524 389.113C253.558 390.186 252.355 391.424 250.802 392.766C249.278 394.108 247.598 395.737 245.521 397.232C243.497 398.817 241.268 400.482 238.697 402.074C236.207 403.786 233.353 405.25 230.406 406.884C224.378 409.914 217.439 412.672 209.927 414.674C202.389 416.588 195.008 417.512 188.288 417.79C184.918 417.796 181.718 417.898 178.735 417.599C175.746 417.475 172.998 417.068 170.481 416.671C167.958 416.391 165.739 415.742 163.77 415.309C161.8 414.906 160.122 414.397 158.788 413.931C156.089 413.058 154.615 412.499 154.647 412.413C154.747 412.095 160.676 414.244 170.641 415.594C173.132 415.932 175.854 416.249 178.817 416.314C181.773 416.553 184.918 416.42 188.231 416.382C194.869 416.012 202.106 415.082 209.556 413.195C216.981 411.218 223.802 408.514 229.796 405.629C232.741 404.053 235.563 402.647 238.051 400.993C240.618 399.489 242.873 397.884 244.894 396.357C253.006 390.309 257.207 385.534 257.456 385.779Z" fill="#142286"/>
<path d="M117.54 396.203L123.914 300.768L110.611 231.986L117.374 185.53L170.041 161.181L234.867 158.187L289.396 175.059L281.917 359.002L294.722 467.59L107.737 469.475L117.54 396.203Z" fill="#6D6E71"/>
<path d="M122.988 185.835C122.988 185.835 104.826 181.48 94.6043 214.118C84.3816 246.785 68.3455 301.613 68.3455 301.613L129.756 301.815L127.028 188.403" fill="#6D6E71"/>
<path d="M288.282 175.818C288.282 175.818 322.54 178.789 326.723 238.35C326.85 240.142 335.841 303.211 335.841 303.211L275.245 300.699L288.282 175.818Z" fill="#6D6E71"/>
<path d="M218.923 384.108C219.002 384.287 216.386 385.584 212.051 387.337C207.688 389.089 201.553 391.207 194.624 393.029C187.695 394.85 181.313 395.991 176.679 396.619C172.046 397.247 169.133 397.361 169.111 397.184C169.092 396.949 171.935 396.452 176.493 395.557C181.08 394.664 187.355 393.342 194.225 391.548C201.095 389.753 207.223 387.811 211.661 386.325C216.1 384.84 218.817 383.899 218.895 384.107L218.923 384.108Z" fill="#8A8A8A" stroke="#8A8A8A"/>
<path d="M121.496 280.945C121.565 281.358 110.362 283.471 96.4785 285.648C82.5949 287.825 71.3049 289.261 71.2369 288.819C71.1676 288.406 82.3705 286.293 96.254 284.116C110.138 281.938 121.428 280.503 121.496 280.945Z" fill="#8A8A8A" stroke="#8A8A8A"/>
<path d="M329.705 276.016C329.688 276.425 319.245 276.197 306.404 275.46C293.562 274.723 283.148 273.793 283.193 273.385C283.21 272.976 293.654 273.204 306.495 273.941C319.337 274.678 329.751 275.607 329.705 276.016Z" fill="#8A8A8A" stroke="#8A8A8A"/>
<path d="M120.125 228.043C120.125 228.043 120.423 229.231 120.603 231.384C120.77 233.86 121.029 236.898 121.303 240.496C121.855 248.543 122.539 258.977 123.33 270.532C124.076 282.261 124.597 292.894 124.778 300.603C124.888 304.458 124.874 307.573 124.824 309.717C124.735 311.859 124.685 313.062 124.493 313.054C124.34 313.047 124.196 311.866 124.016 309.713C123.849 307.237 123.59 304.198 123.316 300.601C122.764 292.554 122.08 282.12 121.289 270.565C120.543 258.835 120.021 248.202 119.84 240.494C119.731 236.639 119.744 233.523 119.795 231.38C119.883 229.238 119.933 228.035 120.125 228.043Z" fill="#8A8A8A" stroke="#8A8A8A"/>
<path d="M291.065 232.333C291.065 232.333 291.162 233.48 291.048 235.525C290.963 237.571 290.725 240.548 290.401 244.195C289.753 251.489 288.644 261.576 287.349 272.679C286.118 283.61 285.017 293.492 284.154 301.128C283.783 304.51 283.491 307.397 283.22 309.758C282.992 311.798 282.801 312.932 282.716 312.899C282.601 312.895 282.591 311.752 282.647 309.705C282.703 307.657 282.855 304.676 283.093 301.026C283.598 293.696 284.563 283.604 285.859 272.5C287.204 261.575 288.39 251.726 289.341 244.063C289.769 240.684 290.146 237.83 290.474 235.472C290.76 233.434 290.979 232.33 291.065 232.333Z" fill="#8A8A8A" stroke="#8A8A8A"/>
<path d="M288.959 176.841C289.339 176.711 291.097 180.854 291.847 186.362C292.599 191.84 292.009 196.355 291.637 196.31C291.205 196.292 291.128 191.896 290.37 186.564C289.67 181.234 288.579 176.972 288.988 176.843L288.959 176.841Z" fill="#8A8A8A" stroke="#8A8A8A"/>
<path d="M287.826 456.395C287.809 456.804 248.041 458.26 198.918 459.621C149.795 460.982 109.968 461.762 109.958 461.323C109.975 460.914 149.743 459.458 198.866 458.096C247.96 456.734 287.787 455.954 287.797 456.394L287.826 456.395Z" fill="#8A8A8A" stroke="#8A8A8A"/>
<g opacity="0.3">
<path d="M119.608 234.042C115.404 256.973 109.828 279.642 102.945 301.906L122.8 301.528L119.609 234.013L119.608 234.042Z" fill="black"/>
</g>
<path d="M223.185 26.0224C223.185 26.0224 222.291 26.366 220.589 26.3833C218.886 26.4006 216.413 25.9174 213.744 24.489C211.014 23.1166 208.266 20.777 205.232 18.2499C202.226 15.7533 198.547 13.2287 194.03 12.5144C189.573 11.744 185.145 12.439 181.642 14.1388C178.11 15.8374 175.539 18.425 173.855 20.8444C170.48 25.8295 170.463 29.7822 170.262 29.686C170.262 29.686 170.271 28.7493 170.633 27.0951C171.023 25.4713 171.825 23.1031 173.484 20.5948C175.142 18.0865 177.747 15.4123 181.399 13.6309C184.993 11.847 189.571 11.0996 194.143 11.9041C198.776 12.6525 202.598 15.2708 205.603 17.7967C208.636 20.3531 211.325 22.6902 213.966 24.0882C216.575 25.5434 218.96 26.0522 220.629 26.1214C222.298 26.1906 223.188 25.9346 223.215 25.9943L223.185 26.0224Z" fill="#6D6E71"/>
<path d="M170.984 30.6818C170.984 30.6818 169.644 29.7477 167.15 29.0587C164.743 28.3732 160.935 28.2447 157.541 30.154C154.146 32.0925 152.279 35.3829 151.621 37.8156C150.932 40.2763 151.157 41.9256 151.04 41.9207C151.011 41.9195 150.91 41.5346 150.881 40.8013C150.853 40.068 150.898 38.9863 151.215 37.7109C151.789 35.1869 153.664 31.6918 157.24 29.6436C160.843 27.6259 164.794 27.8482 167.284 28.6542C168.528 29.0572 169.505 29.5662 170.104 29.9718C170.703 30.3773 171.014 30.6538 170.984 30.6818Z" fill="#6D6E71"/>
<path d="M166.928 89.6086C166.54 89.7683 164.677 85.884 162.74 80.9424C160.833 76.0021 159.596 71.8802 159.984 71.7205C160.372 71.5609 162.235 75.4452 164.171 80.3867C166.078 85.3271 167.316 89.449 166.928 89.6086Z" fill="#6D6E71"/>
<path d="M180.707 99.6969C180.488 100.01 176.478 96.9738 173.38 91.7499C170.252 86.5246 169.49 81.5731 169.873 81.5305C170.318 81.4025 171.682 85.9982 174.673 90.9835C177.633 95.9967 181.013 99.3874 180.707 99.6969Z" fill="#6D6E71"/>
<path d="M194.548 103.316C194.329 103.658 191.318 101.981 188.241 99.0715C185.165 96.1619 183.32 93.2448 183.652 93.0243C183.986 92.7453 186.29 95.1836 189.284 97.9726C192.248 100.79 194.797 102.975 194.548 103.316Z" fill="#6D6E71"/>
<path d="M220.162 81.9161C220.543 81.9319 220.352 85.8189 218.356 90.0997C216.389 94.3816 213.551 97.0461 213.269 96.7708C212.928 96.4932 215.134 93.5389 216.974 89.486C218.872 85.4355 219.724 81.8687 220.161 81.9454L220.162 81.9161Z" fill="#6D6E71"/>
<path d="M229.078 69.1959C229.46 69.1824 229.675 73.9062 227.691 79.3003C225.766 84.6968 222.599 88.2262 222.288 87.9497C221.917 87.7001 224.419 83.9381 226.247 78.7719C228.132 73.6372 228.611 69.1472 229.049 69.1947L229.078 69.1959Z" fill="#6D6E71"/>
<path d="M236.878 36.0189C236.878 36.0189 236.202 36.7523 234.642 37.5954C233.11 38.469 230.61 39.3318 227.435 39.4931C224.261 39.6543 220.445 38.9984 216.582 37.3741C212.688 35.7778 208.8 33.3325 204.709 30.8495C200.617 28.3665 196.601 26.1794 192.629 25.0485C188.689 23.8602 184.875 23.8779 181.851 24.6603C178.828 25.4136 176.658 26.8171 175.377 27.994C174.096 29.1708 173.591 30.0284 173.535 29.9675C173.535 29.9675 173.953 29.077 175.209 27.8113C176.434 26.5443 178.637 25.0543 181.723 24.2158C184.78 23.3468 188.712 23.3048 192.74 24.4967C196.8 25.6313 200.874 27.8207 204.995 30.305C209.086 32.8172 212.946 35.2321 216.752 36.8247C220.526 38.4746 224.252 39.1562 227.366 39.0509C233.709 38.8745 236.799 35.8106 236.821 35.9872L236.878 36.0189Z" fill="#6D6E71"/>
<path d="M241.384 44.0826C241.384 44.0826 241.081 44.3044 240.481 44.6309C239.881 44.9575 238.984 45.3596 237.852 45.7812C235.586 46.6537 232.296 47.4838 228.562 47.6805C224.83 47.8479 221.477 47.3575 219.128 46.7038C217.968 46.3921 217.012 46.0889 216.408 45.8003C215.774 45.5398 215.428 45.379 215.459 45.351C215.492 45.2645 216.908 45.7625 219.233 46.2981C221.557 46.8337 224.883 47.2644 228.528 47.0933C232.174 46.893 235.431 46.1495 237.692 45.3939C239.982 44.6395 241.329 43.9925 241.354 44.0814L241.384 44.0826Z" fill="#6D6E71"/>
</g>
<defs>
<clipPath id="clip0_811_65">
<rect width="312.151" height="1007.58" fill="white" transform="translate(46.5598 1.54156) rotate(2.37318)"/>
</clipPath>
</defs>
</svg>
