<svg width="175" height="718" viewBox="0 0 175 718" fill="none" xmlns="http://www.w3.org/2000/svg">
<g clip-path="url(#clip0_468_4745)">
<path d="M115.044 347.869C113.96 347.447 113.164 346.285 113.375 345.099C113.616 343.703 113.866 342.314 114.108 340.918C113.632 341.051 113.109 341.043 112.633 340.84C111.424 340.318 111.136 339.062 111.463 337.899C112.392 334.654 113.648 331.503 115.138 328.461C115.411 327.72 115.699 326.986 115.972 326.245C116.456 324.911 116.924 323.577 117.384 322.236C117.922 319.162 118.461 316.081 118.999 313.008C119.381 309.661 119.771 306.322 120.153 302.976C120.348 301.01 120.567 299.044 120.785 297.087L109.661 293.342L107.298 203.463L125.567 200.718L135.505 232.006L132.642 300.082C132.705 308.319 132.673 316.565 132.642 324.802C132.603 334.771 132.533 345.123 128.867 354.554C128.227 356.207 127.268 357.744 126.675 359.398C125.934 361.457 125.372 363.595 124.701 365.685C123.539 369.32 122.33 372.94 121.089 376.551C120.816 377.347 120.411 378.26 119.584 378.416C119.139 378.502 118.687 378.338 118.273 378.158C113.983 376.325 110.371 372.955 108.25 368.805C107.75 367.838 107.329 366.793 107.306 365.701C107.274 364.211 107.992 362.822 108.679 361.496C110.988 357.042 113.102 352.494 115.06 347.876L115.044 347.869Z" fill="#FFC3A4"/>
<path d="M89.5281 104.825C90.0118 115.371 90.1912 125.247 93.8497 130.2C99.0761 137.275 100.683 137.057 113.648 140.981C104.388 144.483 62.8187 144.826 34.0576 126.768C56.7887 126.924 59.4644 123.811 60.221 118.718C60.9777 113.624 63.3491 97.5623 63.3491 97.5623L89.5203 104.825H89.5281Z" fill="#FFC3A4"/>
<path d="M96.354 20.0008C98.8268 25.3052 104.646 44.4479 104.318 56.6247C104.318 56.6247 105.145 60.018 113.071 73.5208C114.233 75.5022 108.749 77.702 108.788 79.8393C108.936 88.0456 108.788 101.603 106.339 104.911C103.086 109.294 91.463 112.711 65.7442 106.377C44.7292 101.205 51.1492 98.9352 37.5916 80.4946C24.0263 62.0539 24.3461 45.033 41.9132 26.7639C59.4803 8.49488 91.1588 8.82251 96.3618 20.0008H96.354Z" fill="#FFC3A4"/>
<path d="M29.1433 74.9093C31.4211 80.2293 34.3932 85.2529 38.0985 89.7071C42.1002 94.5201 46.687 97.8197 51.8277 101.291C54.3473 102.992 57.0385 104.552 60.0184 105.176C64.808 106.19 69.3011 104.185 71.6647 99.8791C74.4262 94.8477 72.1484 87.3045 71.6881 81.9689C71.6335 81.3838 71.5789 80.7754 71.2747 80.2762C70.8223 79.5351 69.9408 79.1919 69.1295 78.872C65.6114 77.5147 61.8437 75.2135 61.2821 71.4849C60.853 68.6298 62.5926 65.7748 64.9952 64.1679C65.9469 63.5282 67.0701 63.0368 68.2012 63.1928C71.1967 63.614 72.437 68.1306 75.4637 68.2086C77.7492 68.271 79.1846 65.6266 79.2392 63.341C79.3562 58.6372 79.286 54.5887 80.0972 49.8693C81.2829 42.9658 85.6357 39.3307 92.1025 37.4274C99.4663 35.2588 104.81 32.8796 106.073 24.5173C107.017 18.2534 105.254 9.71177 102.001 4.32935C100.621 2.05157 98.4444 -0.202813 95.7922 -0.0155979C94.8171 0.0546077 93.8966 0.452439 92.9995 0.84247C88.0539 3.01884 81.0021 8.26086 75.5183 7.75382C73.0611 7.5276 70.7677 6.3185 68.3027 6.13129C66.3681 5.98308 64.4569 6.48232 62.577 6.96595C58.4582 8.04244 54.1289 9.22813 51.0944 12.2158C48.528 14.7354 46.9054 18.4953 43.5122 19.6888C41.9442 20.2426 40.2359 20.1412 38.5821 20.2816C33.3323 20.7262 28.4413 23.9479 25.711 28.4177C23.2772 32.4038 24.3615 36.4523 23.9169 40.8752C22.7546 52.3811 24.6034 64.2537 29.1511 74.8781L29.1433 74.9093Z" fill="#333333"/>
<path d="M99.3652 52.857C97.1264 52.3343 94.8252 52.4123 92.6254 53.0208C91.6113 53.3016 90.6363 53.7385 89.708 54.3001C88.5613 54.9866 87.711 55.985 86.6423 56.7573C86.0495 57.1863 85.1368 56.8353 84.7468 56.3127C84.2787 55.6886 84.2865 54.7837 84.6922 54.1363C85.4644 52.8726 86.9232 51.8663 88.1713 51.1018C89.3492 50.3764 90.6519 49.8459 91.9858 49.4715C94.6614 48.7227 97.415 48.8553 100.044 49.7055C100.777 49.9396 101.074 50.899 100.925 51.5777C100.785 52.2095 100.153 53.0364 99.3808 52.857H99.3652Z" fill="#333333"/>
<path d="M69.1144 69.4333C68.9038 69.3475 68.6931 69.2773 68.4903 69.1837C68.3421 69.1369 68.3655 69.1447 68.5683 69.1915C68.5059 69.1759 68.4435 69.1681 68.3733 69.1603C68.2797 69.1447 68.1783 69.1369 68.0847 69.1213C68.0301 69.1213 67.7259 69.0667 67.6947 69.1057C67.8975 69.0901 67.9365 69.0901 67.8273 69.1057C67.7805 69.1057 67.7259 69.1213 67.6791 69.1291C67.5464 69.1525 67.4216 69.1837 67.2968 69.2149C67.0238 69.2851 67.5464 69.0745 67.2812 69.2227C67.1642 69.2851 67.055 69.3475 66.938 69.4099C66.6884 69.5503 67.1486 69.1993 66.938 69.4099C66.8912 69.4567 66.8366 69.4957 66.7976 69.5425C66.6884 69.6673 66.704 69.6361 66.8522 69.4567C66.8522 69.4645 66.6884 69.6829 66.6806 69.6985C66.6494 69.7531 66.6104 69.8077 66.5792 69.8701C66.6728 69.6595 66.704 69.6127 66.6494 69.7219C66.6104 69.8311 66.5714 69.9403 66.5324 70.0495C66.4232 70.346 66.587 69.6595 66.5324 70.0573C66.5168 70.1743 66.509 70.2836 66.5012 70.4006C66.4778 70.7282 66.4466 70.0651 66.5012 70.3616C66.5012 70.424 66.5168 70.4942 66.5324 70.5566C66.5714 70.7204 66.5558 70.6892 66.4934 70.4474C66.5246 70.463 66.5792 70.6736 66.5948 70.7204C66.665 70.8686 66.6494 70.8374 66.5324 70.6346C66.5714 70.697 66.6104 70.7594 66.6494 70.8218C66.7118 70.9154 66.782 70.9934 66.8522 71.0792C66.9614 71.204 66.9536 71.1884 66.8132 71.0402C66.8678 71.0948 66.9224 71.1416 66.977 71.1884C67.172 71.36 67.3826 71.5161 67.6011 71.6643C68.0847 72.0075 68.5917 72.3273 69.0832 72.6549C69.3328 72.8188 69.5746 72.9826 69.8164 73.1542C69.9178 73.2322 70.4873 73.7782 70.1753 73.474C70.3079 73.5988 70.4483 73.7314 70.5809 73.8562C71.1426 74.3945 71.322 75.1589 70.9787 75.8766C70.6901 76.4772 69.9256 76.9843 69.2392 76.6411C68.6073 76.329 68.0223 76.0014 67.4606 75.5802C67.0004 75.237 66.5402 74.9015 66.0877 74.5583C65.175 73.864 64.2546 73.0138 63.9035 71.8827C63.4979 70.5956 63.5993 69.3085 64.2078 68.1072C64.7304 67.0619 65.7211 66.313 66.8522 66.0322C68.1939 65.6968 69.6526 66.0712 70.5575 67.1321C71.3688 68.076 70.3859 69.9481 69.1066 69.4177L69.1144 69.4333Z" fill="#E89069"/>
<path d="M97.1022 8.91611C99.2786 10.6088 98.795 13.5887 98.3425 15.9601C97.7497 19.0569 96.8838 22.068 95.4329 24.8762C92.9211 29.7438 88.1549 33.9327 82.4604 34.0029C80.8534 34.0263 80.8456 31.1791 82.3668 30.9451C86.7429 30.2664 90.3 27.661 92.5622 23.8777C93.8181 21.7793 94.6372 19.4625 95.2457 17.099C95.5343 15.9679 95.7839 14.8134 95.9555 13.6589C96.0647 12.9178 96.2597 11.8023 95.6357 11.2251C94.5046 10.172 95.6981 7.82403 97.11 8.91611H97.1022Z" fill="#4D4D4D"/>
<path d="M84.7232 19.1973C83.4049 26.4129 76.3375 30.0558 69.6679 30.9997C67.7958 31.2649 67.4603 28.363 69.1921 27.9106C72.1173 27.154 75.1128 26.4363 77.6948 24.7982C79.7542 23.4955 81.6732 21.4283 82.1568 18.9711C82.2972 18.2691 82.7574 17.5748 83.5687 17.645C84.2786 17.7074 84.8558 18.4953 84.7232 19.1973Z" fill="#4D4D4D"/>
<path d="M60.6423 21.4673C60.3225 23.5033 59.012 24.8138 57.3582 25.9293C55.6889 27.0525 54.043 27.9808 52.6856 29.5097C50.0802 32.4506 48.9335 36.3509 49.1519 40.2278C49.2455 41.9439 46.9756 42.6538 46.6167 40.7738C45.8367 36.6629 47.116 32.1541 49.5654 28.8155C50.7979 27.1384 52.3034 25.6952 54.0664 24.5797C55.3223 23.7841 57.8575 22.926 58.1773 21.2489C58.3021 20.5702 58.7624 19.9072 59.5346 19.9696C60.2289 20.0242 60.7515 20.7964 60.6501 21.4673H60.6423Z" fill="#4D4D4D"/>
<path d="M34.8534 31.3897C33.0905 32.903 32.4664 35.4928 32.7473 37.7394C33.0983 40.5632 34.6818 42.8176 36.1874 45.1422C36.5696 45.735 36.593 46.5229 36.1172 47.0767C35.7115 47.5448 34.9159 47.7944 34.401 47.3029C29.5802 42.685 27.4818 33.9951 33.2465 29.2289C34.6428 28.0744 36.0938 30.321 34.8534 31.3897Z" fill="#4D4D4D"/>
<path d="M86.7431 111.315C85.3624 111.073 83.9739 110.628 82.6712 110.114C82.0315 109.856 81.3996 109.591 80.7834 109.302C80.0267 108.951 79.2623 108.631 78.7318 107.976C78.3652 107.524 78.3652 106.837 78.5992 106.338C78.8488 105.823 79.3091 105.535 79.8785 105.535C80.5572 105.535 81.189 105.917 81.7819 106.198C82.3981 106.494 83.0222 106.79 83.6462 107.071C84.2547 107.344 84.8631 107.633 85.4872 107.867C85.7836 107.976 86.08 108.078 86.3765 108.171C86.5091 108.21 86.6417 108.249 86.7743 108.288C86.8523 108.312 86.9381 108.327 87.0161 108.351C87.2033 108.397 86.6885 108.273 87.0005 108.351C87.7416 108.514 88.2954 109.154 88.1862 109.95C88.1004 110.621 87.531 111.455 86.7353 111.315H86.7431Z" fill="#E89069"/>
<path d="M93.7168 130.481C93.7168 130.481 126.729 127.813 139.218 204.86L145.778 228.386C145.778 228.386 155.069 234.276 111.268 231.031C67.4676 227.786 93.7246 130.481 93.7246 130.481H93.7168Z" fill="#6D6E71"/>
<path d="M50.7171 283.942C50.2115 283.942 50.2115 284.684 50.7171 284.684C51.2227 284.684 51.2227 283.942 50.7171 283.942Z" fill="#566A9F"/>
<path d="M67.982 691.018C67.924 690.62 67.8577 690.222 67.7996 689.832C66.7636 683.241 65.4043 676.415 64.4594 669.714C63.6886 664.277 61.6164 654.862 64.7909 650.774C65.4789 649.885 66.3243 649.214 67.1863 648.621C67.5924 648.341 68.0068 648.005 68.4461 647.818C68.6948 647.709 68.9932 647.724 69.2252 647.576C69.8469 647.17 69.8717 645.891 69.8054 645.072C69.7143 644.035 69.4325 643.005 69.1009 642.022C66.7387 635.033 64.3848 628.043 62.0226 621.054C61.3181 618.979 60.6218 616.904 59.8593 614.853C58.8895 612.239 57.8369 609.657 56.5936 607.208C55.972 605.991 55.3089 604.813 54.5878 603.682C54.3475 603.3 54.1154 602.816 53.7093 602.871C53.4855 602.902 53.2617 603.097 53.0711 603.206C51.977 603.83 50.8083 604.306 49.6728 604.829C47.5427 605.819 45.4125 606.795 43.2741 607.738C38.989 609.634 34.679 611.444 30.3358 613.16C29.134 613.636 27.9239 614.104 26.7138 614.572C25.6197 614.993 25.4291 615.438 25.4788 616.99C25.5617 619.751 25.4539 622.56 26.0341 625.282C26.6309 628.067 27.5923 630.719 28.3963 633.426C29.7308 637.794 31.0569 642.162 32.3914 646.523C35.0105 655.112 37.6297 663.7 40.2405 672.288C41.9397 677.866 43.6471 683.451 45.5037 688.966C47.3686 694.489 49.3827 699.957 51.7035 705.254C52.7561 707.656 53.8667 710.02 55.052 712.329C55.3752 712.961 55.7648 714.1 56.2787 714.529C56.9335 715.075 58.011 714.49 58.616 714.264C62.1469 712.945 65.6778 710.816 67.4598 706.775C69.4325 702.274 68.8191 696.478 67.9903 691.018H67.982Z" fill="#8C3A15"/>
<path d="M55.5154 717.423C56.2365 716.963 57.1731 716.027 56.767 714.162C56.6095 713.452 56.278 712.742 56.0459 712.064C55.5237 710.558 55.1259 708.967 54.6783 707.43C53.6837 704.068 52.6559 700.714 51.6613 697.352L43.149 668.692C40.3724 659.339 37.5875 649.994 34.8026 640.649C33.3521 635.774 31.8933 630.898 30.4428 626.015C29.5477 622.996 28.694 619.962 27.7408 616.959C27.5336 616.303 27.2766 615.508 26.8622 615.11C26.2986 614.564 25.677 614.985 25.2128 615.133C24.4503 615.375 23.696 615.64 22.9501 615.929C22.66 616.046 22.3616 616.171 22.1378 616.467C20.9277 618.129 23.6297 624.205 24.326 626.444C25.9422 631.647 27.2932 636.92 28.8349 642.139C31.6612 651.695 34.4959 661.251 37.3305 670.806L45.6604 698.857C47.1109 703.733 48.52 708.639 50.0036 713.491C50.3931 714.771 50.7164 715.769 51.396 716.627C51.9431 717.314 52.5399 717.735 53.0869 717.906C53.8577 718.148 54.5539 717.93 55.1922 717.602C55.2833 717.555 55.3911 717.493 55.4988 717.431L55.5154 717.423Z" fill="#1F1F1F"/>
<path d="M60.662 654.433C60.7864 653.871 60.488 653.247 60.2559 652.763C60.0487 652.334 59.7835 651.968 59.4851 651.609C58.9132 650.923 58.1672 650.369 57.3881 650.01C55.6475 649.191 53.7578 649.167 51.9011 649.23C51.5033 649.245 51.1718 649.651 51.1966 650.096C51.2215 650.572 51.5696 650.86 51.9757 650.876C53.4842 650.946 55.1419 650.954 56.551 651.601C57.2223 651.913 57.7694 652.303 58.2667 652.881C58.4324 653.068 58.6397 653.403 58.7889 653.7C58.822 653.77 58.7888 653.692 58.8386 653.809C58.88 653.91 58.9132 654.012 58.9463 654.113C59.0458 654.433 59.1204 654.643 59.3276 654.909C59.7503 655.447 60.5211 655.01 60.6538 654.425L60.662 654.433Z" fill="#1F1F1F"/>
<path d="M61.0599 662.725C61.0351 661.032 59.7421 659.862 58.4657 659.199C57.1727 658.528 55.7553 658.068 54.3546 657.756C53.8987 657.655 53.3765 657.982 53.2937 658.513C53.2108 659.035 53.4926 659.573 53.9816 659.683C55.2083 659.956 56.3355 660.322 57.4213 660.837C57.6783 660.962 57.9352 661.095 58.1756 661.251C58.2253 661.282 58.275 661.321 58.333 661.352C58.3579 661.368 58.3745 661.375 58.3828 661.383C58.5237 661.492 58.6397 661.594 58.7475 661.703C58.8055 661.758 58.8552 661.812 58.9049 661.867C58.9215 661.882 58.9298 661.89 58.9381 661.906C59.021 662.015 59.0873 662.14 59.1619 662.257C59.2033 662.374 59.2282 662.444 59.2448 662.514C59.2614 662.639 59.2696 662.717 59.2696 662.803C59.2696 663.318 59.7338 663.794 60.2062 663.739C60.7035 663.684 61.0599 663.255 61.0517 662.701L61.0599 662.725Z" fill="#1F1F1F"/>
<path d="M48.2955 617.45C48.4116 617.372 48.5359 617.302 48.6354 617.208C48.8509 617.013 48.9669 616.732 49.0664 616.42C49.199 616.023 49.2984 615.609 49.3979 615.196C49.5802 614.4 49.6383 613.581 49.6383 612.731C49.6383 611.982 49.5719 611.225 49.4393 610.484C49.3482 609.969 49.2653 609.376 49.0332 608.908C48.8674 608.565 48.6022 608.183 48.4779 607.933C48.279 607.528 47.8479 607.387 47.5496 607.559C47.2263 607.754 47.1103 608.183 47.2263 608.651C47.276 608.862 47.2512 609.244 47.2843 609.54C47.3092 609.767 47.3755 610.001 47.4252 610.227C47.4501 610.383 47.4667 610.461 47.475 610.539C47.5247 610.89 47.5661 611.249 47.5827 611.607C47.591 611.787 47.5993 611.966 47.5993 612.138C47.5993 612.192 47.5993 612.247 47.5993 612.31C47.5993 612.341 47.5993 612.403 47.5993 612.45C47.5744 613.129 47.4915 613.807 47.3589 614.455C47.3506 614.509 47.3341 614.556 47.3258 614.611C47.3258 614.626 47.3009 614.697 47.2926 614.751C47.2512 614.892 47.2097 615.04 47.1683 615.18C47.0771 615.477 46.9942 615.75 47.0025 616.085C47.0025 616.249 47.0274 616.42 47.0357 616.584C47.0605 617.411 47.8314 617.77 48.2955 617.458V617.45Z" fill="#1F1F1F"/>
<path d="M42.3699 626.897C42.975 626.319 43.5386 625.672 44.0856 625.009C44.5912 624.4 45.0968 623.769 45.5361 623.074C46.0003 622.349 46.3981 621.538 46.796 620.734C47.2187 619.868 46.0832 618.956 45.5776 619.642C44.6575 620.906 43.6878 622.138 42.6766 623.285C42.2124 623.815 41.7151 624.299 41.2261 624.791C40.6542 625.368 40.0243 625.851 39.5187 626.53C38.9882 627.256 39.7342 628.667 40.4967 628.332C41.2095 628.02 41.7897 627.458 42.3782 626.897H42.3699Z" fill="#1F1F1F"/>
<path d="M35.2165 632.825C35.6143 632.615 36.0287 632.42 36.3768 632.084C36.7001 631.772 36.9902 631.421 37.2637 631.039C37.4875 630.727 37.5041 630.142 37.272 629.76C37.0233 629.338 36.6752 629.206 36.3105 629.284C35.9458 629.354 35.5894 629.424 35.233 629.526C34.9015 629.619 34.5948 629.791 34.2716 629.931C33.9483 630.072 33.6251 630.196 33.3018 630.306C33.1195 630.368 32.9537 630.423 32.7797 630.516C32.5144 630.664 32.415 630.703 32.2078 630.961C32.1497 631.039 32.0917 631.125 32.0337 631.203C31.5032 631.873 31.9674 633.137 32.6802 633.387C32.9289 633.473 33.1692 633.558 33.4179 633.527C33.6914 633.488 33.9318 633.426 34.1887 633.317C34.5368 633.168 34.8766 633.005 35.2082 632.825H35.2165Z" fill="#1F1F1F"/>
<path d="M62.1878 649.55C62.1215 649.128 62.0221 648.746 61.906 648.38C61.9806 648.395 62.0635 648.419 62.1381 648.434C63.1161 648.692 64.1025 648.894 65.1137 648.98C66.7714 649.121 68.6197 648.926 69.9873 647.779C71.2803 646.695 71.9848 644.776 70.8576 643.231C69.4734 641.328 66.9951 641.897 65.2297 642.701C64.26 643.145 63.3316 643.723 62.4945 644.425C62.0967 644.76 61.6905 645.127 61.3341 645.54C61.2181 645.501 61.1103 645.454 61.0606 645.384C60.7705 644.9 61.417 643.426 61.5662 642.958C61.8646 642.006 62.1878 641.047 62.3205 640.041C62.5691 638.145 62.279 636.062 60.9694 634.689C59.7593 633.418 57.7618 633.059 56.2533 633.847C54.7697 634.627 54.3553 636.421 54.6122 638.098C55.3167 642.724 58.3503 646.336 60.5633 650.143C61.0026 650.907 62.3619 650.54 62.1961 649.55H62.1878ZM68.0892 644.261C68.5368 644.253 69.4734 644.44 69.2828 645.158C69.1584 645.626 68.5865 645.915 68.2135 646.071C67.4344 646.39 66.5476 646.445 65.727 646.422C65.0556 646.406 64.3926 646.289 63.7378 646.141C64.4091 645.634 65.1137 645.205 65.8762 644.885C66.5724 644.588 67.335 644.284 68.0975 644.269L68.0892 644.261ZM56.7755 637.872C56.6926 637.381 56.5931 636.538 56.991 636.164C57.5214 635.665 58.5907 635.899 59.1211 636.281C60.6793 637.412 59.9334 640.064 59.4692 641.616C59.3117 642.139 59.1211 642.724 58.9553 643.317C57.969 641.687 57.0822 639.791 56.7672 637.872H56.7755Z" fill="#1F1F1F"/>
<path d="M147.609 419.447C145.446 407.699 143.183 395.975 140.862 384.274C136.967 364.655 133.345 344.85 128.736 325.418C127.51 320.239 125.313 314.856 120.464 312.875C118.086 311.9 115.483 311.822 112.988 312.04C109.275 312.36 105.653 313.398 102.072 314.482C92.6649 317.337 83.6553 321.541 75.3254 327.174C71.0734 330.052 66.7137 333.742 65.5202 339.108C64.7245 342.689 65.487 346.449 66.2661 350.037C73.7257 384.321 85.8932 417.505 92.6317 451.835C93.8004 457.771 95.0519 463.645 95.715 469.652C96.088 473.037 96.4693 476.423 96.8422 479.808C97.5965 486.579 98.3425 493.358 99.0967 500.129C99.2045 501.08 99.3039 502.024 99.4117 502.976C99.8592 507.009 100.299 511.143 99.4365 515.09C98.6574 518.64 96.8588 521.799 95.0685 524.872C91.8443 530.395 88.5206 535.84 85.197 541.293C73.5931 560.334 61.923 579.469 47.6254 596.123C45.3295 598.799 42.8098 601.802 42.7766 605.499C42.7518 608.487 44.3763 611.139 45.9594 613.565C49.6063 619.182 53.3279 624.744 57.1074 630.243C58.6573 632.497 60.4062 634.884 62.8844 635.555C66.5728 636.562 70.0291 633.426 72.8306 630.578C73.7506 629.642 74.6789 628.706 75.6072 627.786C82.2048 621.265 89.2749 615.375 95.9139 608.916C100.008 604.93 102.321 600.312 105.098 595.257C108.894 588.362 114.356 582.691 118.881 576.38C123.821 569.484 128.388 562.268 132.557 554.78C140.854 539.881 147.584 523.905 152.507 507.266C154.513 500.488 156.229 493.545 156.726 486.439C157.348 477.406 155.989 468.365 154.546 459.449C153.709 454.253 152.847 449.066 151.96 443.879C150.568 435.719 149.118 427.567 147.617 419.431L147.609 419.447Z" fill="#142286"/>
<path d="M111.579 648.161C111.355 638.137 111.048 628.113 110.659 618.097C109.888 598.058 108.811 578.041 107.41 558.048C107.269 555.973 107.103 553.898 106.954 551.823C106.1 533.765 104.973 515.714 103.605 497.695C100.348 454.815 95.8059 412.068 90.8163 369.398C89.4238 357.487 88.0397 345.575 86.5312 333.687C85.7686 327.665 85.0144 321.643 84.2021 315.636C83.796 312.649 83.3816 309.63 82.7931 306.681C82.2046 303.725 81.3426 300.885 80.8204 297.906C80.6298 296.813 79.486 296.587 78.74 297.04C78.5162 296.135 78.2759 295.23 78.0189 294.333C77.5713 292.804 75.6484 293.139 75.5407 294.707C75.4163 296.657 75.3832 298.615 75.4081 300.566C75.1014 300.043 74.7367 299.544 74.4134 299.037C73.6758 297.898 71.8026 297.843 71.4876 299.458C71.3053 300.371 70.9406 301.424 70.9406 302.352C70.9406 303.28 71.1644 304.443 71.3384 305.449C70.4101 303.545 69.2995 301.775 67.9319 300.261C62.4449 294.177 49.9957 301.533 45.1386 304.255C40.6794 306.751 36.3031 309.427 31.8025 311.837C28.4954 313.6 25.1469 315.27 21.8729 317.111C16.8418 319.927 11.8439 323.312 9.09213 328.968C5.20485 336.971 6.04198 346.886 6.29063 355.615C6.66361 368.844 7.12777 382.339 9.92926 395.257C12.018 404.907 15.4825 414.104 19.2455 423.082C25.1966 437.303 31.2969 451.25 34.5211 466.516C47.7578 529.077 56.1208 592.886 70.12 655.361C71.2224 660.275 72.275 665.213 73.4686 670.104C74.0985 672.663 75.0682 675.424 77.3807 676.626C83.1578 679.629 90.7003 674.597 96.5933 673.942C101.26 673.427 108.786 676.548 111.065 670.33C113.361 664.051 111.736 654.698 111.587 648.161H111.579Z" fill="#142286"/>
<path d="M0.0497594 300.066C0.157509 291.189 0.31499 282.312 0.563644 273.443C0.646528 270.619 0.845451 267.772 0.828874 264.94C0.646528 242.747 -0.0828559 220.344 0.79572 198.12C1.82349 172.121 6.86287 141.831 31.5293 126.908C35.4663 124.521 39.7763 122.688 44.3018 121.635C46.2165 121.19 48.1891 121.066 50.1369 120.8C50.6839 120.722 51.2807 120.691 51.7697 120.418C52.3665 120.083 52.7975 119.833 53.4854 119.654C55.2923 119.17 57.0992 118.686 58.9061 118.203C59.4946 118.047 60.1079 117.891 60.7047 118.008C60.8373 118.031 60.9616 118.086 61.0859 118.133L61.6081 116.799C89.0678 132.891 98.8233 127.844 98.8233 127.844L98.8647 128.89C101.227 128.944 103.556 129.974 105.437 131.316C107.443 132.751 109.275 134.397 110.924 136.183C119.163 145.099 121.873 156.34 124.153 167.659C125.239 173.033 126.316 178.408 127.402 183.783C128.305 188.244 128.032 192.987 128.14 197.551C128.231 201.451 128.289 205.343 128.363 209.244C128.836 234.128 129.275 259.027 131.024 283.864C131.961 297.172 133.254 310.457 134.895 323.71C136.014 332.751 137.307 341.776 138.757 350.778C139.031 352.494 139.296 354.335 138.484 355.888C137.937 356.941 136.958 357.728 135.989 358.462C124.169 367.331 108.67 371.676 93.6181 370.506C91.6455 370.35 89.4076 370.319 87.5013 369.882C85.023 369.312 82.4867 367.986 80.2323 366.879C73.2285 363.446 66.9459 358.797 59.8758 355.482C52.093 351.823 43.4232 349.858 34.7204 349.756C33.2202 349.741 31.6039 349.741 30.4104 348.883C28.2968 347.361 28.8521 344.374 28.6781 342.197C28.5869 341.059 28.388 339.904 28.2139 338.765C28.1393 338.297 28.0399 337.837 27.9073 337.377C27.7912 336.971 27.6586 336.573 27.5177 336.175C27.3685 335.746 26.4734 334.194 26.7303 333.781C25.9263 335.083 25.1223 336.394 24.3184 337.697C22.7933 340.169 21.3428 342.705 19.7348 345.131C18.7402 346.628 17.5052 347.947 15.8227 348.758C14.4551 349.413 12.9383 349.741 11.5376 350.326C10.6424 350.7 9.78869 351.145 8.993 351.675C8.47912 352.011 7.9901 352.385 7.51766 352.767C6.71368 353.423 5.95114 354.132 5.12229 354.764C4.31831 355.373 2.71035 356.785 1.5997 356.558C1.10239 355.373 1.34276 353.696 1.27645 352.432C1.21843 351.285 1.16041 350.146 1.10239 349C0.986355 346.714 0.886893 344.421 0.787432 342.135C0.588509 337.556 0.42274 332.977 0.298413 328.398C0.0331825 318.952 -0.0745675 309.505 0.0414709 300.059L0.0497594 300.066Z" fill="#6D6E71"/>
<path d="M80.1904 641.577C79.5688 636.624 78.9471 631.663 78.3172 626.709C77.0657 616.896 75.7561 607.091 74.4133 597.285C71.7362 577.776 68.9181 558.298 65.9674 538.843C63.083 519.872 59.9832 500.995 55.209 482.484C50.6586 464.847 45.1302 447.553 40.0411 430.103C38.5078 424.837 37.0158 419.541 35.5902 414.221C35.6897 414.221 35.7809 414.221 35.8803 414.213C37.6955 413.877 39.1294 412.029 40.439 410.702C41.79 409.33 43.0913 407.894 44.3428 406.404C46.8957 403.362 49.1999 400.109 51.2305 396.615C55.2836 389.641 58.1597 381.949 60.0163 373.923C60.3644 372.417 58.3337 371.653 57.9193 373.166C55.8389 380.826 52.5318 388.042 48.3876 394.594C46.3735 397.777 44.1522 400.843 41.7568 403.682C40.555 405.102 39.3117 406.467 38.0187 407.785C36.9413 408.877 35.6234 409.829 34.778 411.147C31.8273 399.875 29.233 388.479 27.393 376.957C27.0365 374.726 26.6387 372.518 26.2077 370.303C26.0005 369.227 24.434 369.461 24.4754 370.561C24.7655 379.633 26.4564 388.697 28.2715 397.519C30.1199 406.467 32.4075 415.281 34.8609 424.049C39.7593 441.562 45.354 458.832 50.1448 476.384C55.1344 494.676 58.6819 513.249 61.5994 532.064C64.6081 551.488 67.4428 570.935 70.1531 590.413C72.88 610 75.5074 629.611 77.9525 649.245C78.2592 651.679 78.5824 654.074 79.0632 656.477C79.3947 658.146 81.8647 657.803 81.7818 656.071C81.5414 651.211 80.8037 646.39 80.1987 641.57L80.1904 641.577Z" fill="#000938"/>
<path d="M158.832 687.788C158.434 687.726 158.045 687.671 157.655 687.609C151.124 686.642 144.269 685.939 137.663 684.84C132.301 683.95 122.777 683.194 120.034 678.576C119.437 677.569 119.097 676.477 118.832 675.385C118.708 674.87 118.534 674.332 118.509 673.81C118.492 673.513 118.608 673.201 118.542 672.912C118.376 672.132 117.182 671.703 116.395 671.524C115.392 671.298 114.331 671.274 113.295 671.313C105.943 671.61 98.5832 671.906 91.2313 672.21C89.0432 672.296 86.8633 672.39 84.6835 672.546C81.8985 672.749 79.1219 673.053 76.4033 673.599C75.0523 673.872 73.7178 674.2 72.4166 674.605C71.9773 674.746 71.4385 674.831 71.3556 675.276C71.3059 675.518 71.4136 675.814 71.4551 676.056C71.6706 677.406 71.712 678.779 71.8198 680.136C72.027 682.679 72.2093 685.23 72.3668 687.78C72.6818 692.874 72.9056 697.976 73.0299 703.085C73.0631 704.505 73.0879 705.917 73.1128 707.337C73.1376 708.624 73.4858 708.959 74.9528 709.396C77.572 710.176 80.1663 711.167 82.918 711.401C85.7278 711.643 88.5376 711.455 91.3557 711.455C95.8977 711.416 100.448 711.385 104.99 711.346C113.933 711.276 122.868 711.206 131.812 711.135C137.622 711.089 143.432 711.042 149.234 710.808C155.044 710.574 160.854 710.16 166.607 709.38C169.217 709.022 171.812 708.592 174.381 708.07C175.086 707.929 176.279 707.875 176.868 707.461C177.605 706.939 177.423 705.628 177.423 704.918C177.398 700.792 176.602 696.416 173.42 693.288C169.88 689.809 164.236 688.638 158.84 687.804L158.832 687.788Z" fill="#8C3A15"/>
<path d="M179.313 709.146C179.131 708.249 178.567 706.962 176.686 706.814C175.965 706.752 175.194 706.884 174.473 706.915C172.881 706.993 171.257 706.915 169.665 706.915C166.176 706.915 162.687 706.939 159.197 706.939H129.442C119.736 706.939 110.022 706.939 100.316 706.954C95.2517 706.954 90.1875 706.962 85.1232 706.97C81.9902 706.97 78.8489 706.923 75.7159 706.986C75.0279 707.001 74.1991 707.017 73.6852 707.329C72.9807 707.758 73.163 708.53 73.1464 709.068C73.1133 709.942 73.105 710.823 73.1216 711.697C73.1216 712.04 73.1464 712.391 73.3454 712.719C74.4892 714.513 81.1033 713.561 83.4407 713.53C88.8696 713.46 94.2654 713.686 99.6861 713.686C109.607 713.694 119.529 713.702 129.442 713.702H158.567C163.631 713.702 168.704 713.749 173.76 713.702C175.086 713.686 176.139 713.663 177.175 713.21C178.012 712.852 178.6 712.352 178.949 711.83C179.438 711.089 179.471 710.293 179.38 709.521C179.363 709.412 179.346 709.279 179.322 709.146H179.313Z" fill="#1F1F1F"/>
<path d="M117.796 684.059C117.356 683.747 116.718 683.872 116.237 683.966C115.806 684.044 115.409 684.216 115.011 684.411C114.24 684.793 113.535 685.409 112.98 686.111C111.737 687.687 111.124 689.66 110.601 691.642C110.485 692.071 110.742 692.539 111.124 692.656C111.538 692.781 111.894 692.5 112.035 692.079C112.566 690.511 113.088 688.779 114.091 687.492C114.563 686.883 115.077 686.431 115.732 686.088C115.947 685.978 116.304 685.854 116.602 685.791C116.668 685.776 116.602 685.791 116.71 685.776C116.809 685.768 116.909 685.76 117 685.76C117.298 685.76 117.514 685.744 117.804 685.604C118.401 685.323 118.26 684.379 117.804 684.059H117.796Z" fill="#1F1F1F"/>
<path d="M125.032 686.236C123.573 685.737 122.164 686.727 121.194 687.866C120.216 689.021 119.379 690.362 118.675 691.735C118.443 692.188 118.567 692.835 118.998 693.085C119.421 693.335 119.976 693.21 120.216 692.734C120.83 691.525 121.501 690.456 122.28 689.481C122.463 689.247 122.661 689.021 122.877 688.818C122.918 688.771 122.968 688.732 123.01 688.685C123.034 688.662 123.043 688.654 123.059 688.639C123.2 688.529 123.325 688.436 123.449 688.35C123.515 688.311 123.573 688.272 123.639 688.233C123.656 688.225 123.673 688.217 123.681 688.209C123.805 688.155 123.93 688.124 124.054 688.085C124.162 688.085 124.236 688.077 124.303 688.077C124.41 688.1 124.485 688.116 124.559 688.147C125.007 688.303 125.554 687.968 125.654 687.461C125.761 686.922 125.504 686.408 125.032 686.244V686.236Z" fill="#1F1F1F"/>
<path d="M80.3821 685.51C80.3572 685.37 80.3406 685.214 80.2992 685.074C80.2163 684.785 80.0422 684.574 79.8516 684.372C79.6029 684.106 79.3377 683.872 79.0642 683.646C78.542 683.209 77.9701 682.889 77.3651 682.624C76.8263 682.39 76.271 682.226 75.6991 682.133C75.3012 682.07 74.8619 681.977 74.4641 682.07C74.1823 682.133 73.8342 682.297 73.627 682.351C73.2871 682.437 73.0716 682.843 73.1214 683.209C73.1794 683.607 73.4529 683.865 73.8176 683.888C73.9834 683.896 74.2486 684.052 74.4724 684.106C74.6382 684.145 74.8205 684.153 74.9946 684.177C75.1106 684.2 75.1686 684.208 75.2349 684.216C75.5002 684.27 75.7654 684.34 76.0306 684.434C76.1632 684.481 76.2876 684.528 76.4202 684.582C76.4616 684.598 76.5031 684.613 76.5362 684.637C76.5528 684.645 76.6025 684.668 76.6357 684.684C77.1164 684.925 77.5806 685.222 78.0033 685.565C78.0364 685.588 78.0696 685.62 78.1027 685.651C78.111 685.659 78.1607 685.698 78.1939 685.729C78.2851 685.815 78.3762 685.9 78.4674 685.994C78.6581 686.189 78.8238 686.353 79.0725 686.454C79.1968 686.501 79.3211 686.532 79.4372 686.579C80.0339 686.813 80.4898 686.119 80.3903 685.526L80.3821 685.51Z" fill="#1F1F1F"/>
<path d="M85.5947 694.7C85.3378 693.888 85.0228 693.085 84.6913 692.305C84.3846 691.587 84.0614 690.854 83.6884 690.175C83.2905 689.458 82.8098 688.787 82.3374 688.124C81.8318 687.414 80.8786 688.319 81.2433 689.06C81.9064 690.425 82.5363 691.829 83.0999 693.249C83.3568 693.904 83.5723 694.575 83.7961 695.246C84.0614 696.033 84.2437 696.845 84.6001 697.578C84.9814 698.366 86.1832 698.023 86.1418 697.118C86.1003 696.275 85.8517 695.487 85.603 694.692L85.5947 694.7Z" fill="#1F1F1F"/>
<path d="M87.9739 704.068C87.9242 703.577 87.8911 703.085 87.7419 702.617C87.601 702.18 87.4269 701.767 87.2197 701.361C87.0539 701.026 86.6395 700.831 86.308 700.948C85.9433 701.081 85.7526 701.4 85.7112 701.814C85.6698 702.219 85.62 702.617 85.6035 703.023C85.5869 703.405 85.6283 703.78 85.6449 704.154C85.6615 704.536 85.6615 704.911 85.6615 705.293C85.6615 705.503 85.6615 705.698 85.678 705.909C85.7112 706.237 85.7112 706.354 85.8521 706.642C85.8935 706.728 85.9433 706.814 85.9764 706.9C86.3163 707.664 87.344 707.578 87.7087 706.9C87.833 706.666 87.9574 706.44 87.9988 706.167C88.0403 705.862 88.0651 705.589 88.0485 705.293C88.032 704.887 88.0071 704.474 87.9657 704.068H87.9739Z" fill="#1F1F1F"/>
<path d="M114.074 680.931C113.693 680.869 113.337 680.861 112.988 680.861C113.03 680.791 113.071 680.713 113.104 680.635C113.635 679.683 114.116 678.708 114.497 677.679C115.135 675.986 115.55 673.973 114.986 672.179C114.455 670.486 113.03 669.145 111.356 669.839C109.292 670.697 109.002 673.482 109.143 675.596C109.217 676.75 109.424 677.913 109.772 679.013C109.938 679.535 110.121 680.081 110.369 680.58C110.303 680.697 110.228 680.791 110.145 680.815C109.64 680.963 108.579 679.824 108.223 679.527C107.493 678.919 106.772 678.279 105.951 677.827C104.402 676.977 102.528 676.626 100.937 677.577C99.4699 678.451 98.5333 680.44 98.7405 682.273C98.9478 684.075 100.357 685.074 101.874 685.331C106.059 686.041 110.112 683.974 114.066 682.835C114.862 682.609 114.969 681.072 114.066 680.931H114.074ZM111.38 673.076C111.513 672.608 111.969 671.68 112.516 672.101C112.881 672.382 112.947 673.068 112.964 673.513C112.997 674.426 112.765 675.385 112.491 676.236C112.267 676.938 111.961 677.601 111.629 678.248C111.405 677.382 111.256 676.501 111.215 675.604C111.182 674.777 111.157 673.88 111.38 673.076ZM102.363 682.975C101.915 682.905 101.161 682.749 100.962 682.211C100.697 681.493 101.235 680.448 101.733 680.011C103.191 678.724 105.239 680.339 106.416 681.306C106.813 681.634 107.253 682.024 107.717 682.375C106.01 682.905 104.111 683.24 102.363 682.975Z" fill="#1F1F1F"/>
<path d="M63.9869 523.375C63.5061 522.953 63.0337 522.509 62.5447 522.103C62.7684 521.518 62.6773 520.785 62.3292 520.301C61.8816 519.685 61.2765 519.529 60.5969 519.646C59.9918 519.747 59.4033 519.935 58.8314 520.145C58.2927 519.966 57.7456 519.802 57.1903 519.677C54.5877 519.092 51.9354 519.139 49.3412 519.701C47.7332 520.052 48.1725 522.727 49.7141 522.774C51.2724 522.821 52.7974 523.016 54.3059 523.351C53.676 524.084 53.1124 524.888 52.6482 525.769C51.8194 527.361 53.4605 529.085 54.8778 528.234C54.9773 528.172 55.0768 528.117 55.1762 528.055C54.6955 528.882 54.2148 529.701 53.7257 530.528C53.3528 531.16 52.9383 531.752 52.7643 532.494C52.6151 533.133 52.441 533.781 52.3499 534.436C52.2338 535.224 52.9466 536.082 53.676 535.567C54.1567 535.224 54.5712 534.803 55.027 534.42C55.6487 533.905 55.9802 533.313 56.4029 532.603C57.066 531.472 57.7291 530.348 58.4004 529.217C59.4282 527.47 60.456 525.723 61.4837 523.975C62.0391 524.155 62.5861 524.35 63.1 524.631C63.7879 524.997 64.6748 523.967 63.9786 523.367L63.9869 523.375Z" fill="#000938"/>
<path d="M101.028 488.373C100.489 487.827 99.4612 487.718 98.6987 487.687C98.019 487.656 97.3311 487.71 96.6432 487.695C95.3253 487.663 94.024 487.5 92.7807 487.071C91.9685 486.79 91.007 486.228 90.3522 485.588C90.0124 485.261 89.7886 485.003 89.5151 484.551C89.4322 484.418 89.225 484.138 89.1587 484.036C89.1587 483.919 89.1504 483.857 89.1338 483.787C89.3825 482.936 88.2635 482.375 87.5259 482.726C87.4098 482.78 87.3932 482.788 87.4761 482.757C87.6253 482.702 87.5424 482.733 87.2192 482.858C86.9871 482.975 86.7799 483.139 86.6473 483.357C86.4318 483.701 86.3821 484.122 86.4318 484.512C86.523 485.191 86.755 485.939 87.186 486.61C87.9817 487.843 89.2416 488.841 90.6009 489.489C92.1757 490.245 93.8748 490.589 95.6237 490.729C96.4525 490.799 97.2897 490.807 98.1268 490.791C98.9888 490.776 100.448 490.659 101.019 489.957C101.426 489.465 101.508 488.857 101.019 488.365L101.028 488.373Z" fill="#000938"/>
<path d="M118.989 467.982C118.359 467.624 117.688 467.327 117 467.062C116.818 465.221 116.337 463.388 115.815 461.648C113.428 453.746 110.858 445.868 108.222 438.044C107.493 435.883 106.822 433.699 105.96 431.585C105.048 429.323 103.987 427.138 103.017 424.9C102.719 424.205 101.641 424.455 101.799 425.212C102.23 427.255 102.561 429.299 103.034 431.335C103.506 433.363 104.095 435.352 104.692 437.349C105.877 441.273 107.128 445.173 108.363 449.082C109.598 452.99 110.842 456.898 112.085 460.798C112.151 461.009 112.217 461.219 112.292 461.43C111.77 461.063 111.231 460.712 110.676 460.4C110.12 460.088 109.35 460.151 108.836 460.525C108.189 460.377 107.551 460.502 107.095 461.048C106.606 461.641 106.623 462.561 107.228 463.091C108.023 463.794 108.827 464.496 109.623 465.198C109.449 465.174 109.283 465.151 109.109 465.127C108.952 465.104 108.803 465.088 108.662 465.065C107.858 464.971 107.145 465.728 107.054 466.407C106.938 467.21 107.452 467.826 108.231 468.099C109.433 468.536 110.701 468.739 111.977 468.739C112.126 468.778 112.275 468.817 112.425 468.848C112.3 469.309 112.441 469.816 112.98 470.057C113.195 470.151 113.403 470.229 113.618 470.299C113.56 470.627 113.486 470.954 113.386 471.282C112.391 474.48 108.123 477.343 109.98 480.932C110.444 481.829 111.753 481.47 112.06 480.674C112.582 479.301 113.171 477.975 114.008 476.743C114.944 475.346 115.922 474.005 116.478 472.421C116.677 471.859 116.809 471.298 116.909 470.72C117.34 470.72 117.771 470.705 118.21 470.689C119.735 470.635 120.34 468.731 118.989 467.967V467.982Z" fill="#000938"/>
<path d="M177.797 183.307C174.962 182.768 172.21 181.762 169.425 180.982C167.842 180.537 166.176 180.093 164.568 180.428C163.06 180.748 161.808 181.723 160.64 182.675C157.913 184.898 155.252 187.191 152.658 189.547C150.785 191.256 129.757 213.066 131.472 213.784C134.556 215.079 137.647 216.374 140.731 217.676C143.54 218.862 146.566 220.071 149.599 219.587C155.948 218.581 161.858 210.562 166.267 206.599C169.889 203.354 173.478 200.078 177.051 196.786C179.744 194.298 184.751 191.17 185.795 187.636C186.093 186.692 185.944 185.553 185.165 184.89C184.568 184.383 183.731 184.243 182.936 184.118C181.51 183.9 180.084 183.673 178.659 183.455C178.369 183.408 178.078 183.361 177.797 183.307Z" fill="#1F1F1F"/>
<path d="M135.326 216.498C134.464 214.915 133.594 213.323 132.732 211.74C132.334 210.882 131.812 210.008 131.24 209.244C130.56 208.331 130.179 207.808 128.985 208.011C127.585 208.245 126.093 208.323 124.866 209.049C124.17 209.462 123.507 209.782 122.728 210.055C120.556 210.812 118.393 211.568 116.221 212.325C106.333 215.781 96.4283 219.221 86.5318 222.645C81.5836 224.361 76.6271 226.07 71.6789 227.778C67.858 229.096 62.4705 229.97 59.3954 232.599C58.7324 233.16 58.0859 233.746 57.4559 234.346C48.5293 242.911 47.3192 253.489 49.0597 264.917C49.2504 266.188 49.3747 267.639 50.1455 268.747C50.991 269.972 52.5658 270.299 54.0328 270.401C56.6934 270.58 59.3706 269.784 61.8571 268.965C65.9433 267.624 69.7643 265.642 73.3946 263.442C75.1518 262.374 76.8675 261.25 78.5749 260.104C82.1058 257.717 85.8025 255.696 89.4991 253.52C102.935 245.634 116.072 237.334 129.383 229.276L134.331 226.265C136.097 225.188 137.672 223.995 137.622 221.818C137.58 219.923 136.229 218.136 135.334 216.498H135.326Z" fill="#FFC3A4"/>
<path d="M171.762 197.363C171.895 196.934 172.176 196.552 172.408 196.162C172.748 195.593 172.997 194.976 173.138 194.337C173.212 194.017 173.254 193.674 173.113 193.377C172.798 192.667 171.754 192.621 170.95 192.769C167.311 193.432 164.327 195.647 161.484 197.761C160.026 198.853 158.558 199.945 156.984 200.889C156.287 201.303 155.649 201.576 154.845 201.724C153.925 201.896 153.13 202.403 152.301 202.816C152.085 202.925 151.861 203.034 151.646 203.136C150.411 203.737 149.168 204.306 147.908 204.86C146.698 205.398 145.512 205.975 144.294 206.506C143.142 207.005 141.857 207.192 140.589 207.216C140.423 207.216 140.258 207.216 140.117 207.145C139.843 207.005 139.785 206.662 139.777 206.365C139.735 203.994 141.053 201.779 142.636 199.922C143.706 198.666 144.907 197.519 146.01 196.295C146.507 195.741 147.112 195.148 147.468 194.501C148.09 193.354 146.432 192.886 145.479 193.182C143.208 193.892 141.07 194.937 139.089 196.201C138.103 196.833 137.158 197.512 136.246 198.237C135.757 198.619 135.301 199.048 134.795 199.407C134.19 199.828 133.793 200.078 133.403 200.718C132.35 202.457 131.207 204.15 129.963 205.78C129.035 207.005 128.057 208.191 127.029 209.345C125.827 210.695 124.518 212.052 123.838 213.729C123.515 214.533 123.689 215.25 123.764 216.093C123.846 217.091 124.004 218.082 124.236 219.057C124.667 220.929 125.347 222.747 126.25 224.463C126.598 225.126 127.444 225.992 128.33 225.75C128.604 225.672 128.803 225.547 129.101 225.539C129.938 225.508 130.875 225.609 131.662 225.297C131.986 225.173 132.267 225.048 132.624 225.001C133.751 224.845 134.895 224.744 136.022 224.595C138.285 224.291 140.539 223.925 142.786 223.496C144.824 223.105 146.855 222.661 148.869 222.162C151.207 221.584 153.569 220.921 155.608 219.697C157.216 218.729 158.567 217.45 159.909 216.179C162.694 213.534 165.546 210.796 167.013 207.34C167.253 206.771 167.46 206.17 167.817 205.655C168.231 205.047 168.836 204.571 169.383 204.064C170.776 202.777 171.911 201.061 171.795 199.228C171.762 198.651 171.596 198.065 171.737 197.496C171.745 197.465 171.754 197.426 171.762 197.395V197.363Z" fill="#FFC3A4"/>
<path d="M171.671 182.659C168.679 182.074 165.297 180.842 162.645 182.831C159.918 184.875 157.854 187.636 155.467 190.007C152.989 192.465 150.105 194.493 147.436 196.755C144.8 198.994 142.612 201.568 140.448 204.205C140.357 204.314 140.564 204.462 140.656 204.353C142.761 201.849 144.899 199.384 147.411 197.223C149.831 195.132 152.45 193.26 154.804 191.1C157.125 188.978 159.097 186.544 161.427 184.438C162.72 183.268 164.046 182.23 165.927 182.246C167.792 182.261 169.698 182.831 171.522 183.166C171.862 183.229 172.011 182.737 171.663 182.675L171.671 182.659Z" fill="#B8B09E"/>
<path d="M47.1446 143.079C46.5395 142.314 45.8433 141.612 45.0973 140.965C43.6469 139.701 41.9975 138.601 40.2154 137.782C38.4251 136.963 36.5437 136.347 34.5793 136.043C33.6261 135.895 32.6729 135.77 31.7032 135.77C30.7998 135.77 29.4487 135.77 28.8271 136.48C28.5287 136.823 28.4458 137.33 28.8271 137.665C29.1918 137.993 29.4653 137.977 29.9046 138.079C29.8466 138.079 30.2859 138.219 30.3439 138.227C30.576 138.266 30.8163 138.258 31.0484 138.274C31.8855 138.328 32.7393 138.414 33.5681 138.562C35.3004 138.874 37.0078 139.42 38.5743 140.169C40.116 140.91 41.5582 141.807 42.8263 142.915C43.4728 143.477 44.0696 144.085 44.6415 144.725C45.1968 145.349 45.8433 146.293 46.7467 146.457C47.3435 146.566 47.99 146.308 48.1558 145.708C48.4127 144.74 47.7414 143.82 47.1529 143.071L47.1446 143.079Z" fill="#8A8A8A"/>
<path d="M101.061 216.686C94.0163 217.629 88.3304 222.458 81.8074 224.798C78.4671 225.999 74.9777 226.787 71.7038 228.16C70.0792 228.839 68.5624 229.681 67.1865 230.742C65.7361 231.866 64.0784 233.301 63.8297 235.126C63.6722 236.273 65.189 236.757 66.0759 236.335C66.9545 235.922 67.4932 235.142 68.1646 234.494C68.7199 233.956 69.3167 233.465 69.9632 233.02C71.2313 232.154 72.6155 231.452 74.0577 230.883C77.2321 229.627 80.5973 228.878 83.78 227.622C86.8882 226.39 89.7477 224.697 92.657 223.098C95.5828 221.491 98.55 220.071 101.758 219.034C103.382 218.511 102.694 216.452 101.061 216.67V216.686Z" fill="#E89069"/>
<path d="M155.848 215.352C152.988 216.296 150.402 217.848 147.642 219.018C146.291 219.595 144.924 220.133 143.548 220.64C142.537 221.015 141.517 221.405 140.456 221.662C140.208 221.405 139.694 221.374 139.511 221.733C139.47 221.811 139.296 221.881 139.155 221.974C138.409 222.474 138.343 223.831 139.437 224.018C141.07 224.291 142.512 223.925 144.053 223.417C145.603 222.91 147.129 222.341 148.629 221.717C151.538 220.508 154.638 219.252 156.983 217.185C157.812 216.459 156.959 214.985 155.848 215.352Z" fill="#E89069"/>
<path d="M170.03 201.443C169.135 202.551 167.966 203.542 166.88 204.485C165.761 205.46 164.535 206.35 163.266 207.153C160.722 208.776 157.962 210.071 155.268 211.444C154.398 211.888 155.16 213.004 156.022 212.66C158.998 211.475 161.907 210.11 164.593 208.417C165.902 207.59 167.145 206.685 168.281 205.655C169.458 204.587 170.295 203.37 171.116 202.052C171.538 201.373 170.502 200.866 170.03 201.451V201.443Z" fill="#E89069"/>
<path d="M170.062 196.271C169.54 196.537 169.159 197.083 168.761 197.48C168.338 197.902 167.907 198.307 167.476 198.713C166.623 199.501 165.736 200.257 164.841 201.006C163.954 201.747 162.909 202.387 162.172 203.245C161.774 203.705 161.31 203.994 160.779 204.329C160.265 204.657 159.66 204.914 159.304 205.406C158.889 205.968 159.577 206.623 160.191 206.49C160.771 206.365 161.285 205.882 161.749 205.546C162.255 205.18 162.694 204.844 163.274 204.587C164.41 204.088 165.363 203.144 166.274 202.348C167.178 201.56 168.023 200.733 168.836 199.86C169.242 199.423 169.64 198.986 170.029 198.534C170.419 198.081 170.949 197.597 171.14 197.036C171.33 196.451 170.618 196.006 170.087 196.271H170.062Z" fill="#E89069"/>
<path d="M140.622 205.203C140.647 205.156 140.705 205.016 140.722 205C140.771 204.907 140.829 204.813 140.879 204.719C141.36 203.924 141.915 203.167 142.446 202.395C143.018 201.545 143.382 200.632 143.863 199.743C144.07 199.36 144.004 198.9 143.631 198.635C143.291 198.393 142.736 198.37 142.437 198.705C141.99 199.197 141.484 199.633 141.045 200.14C140.581 200.671 140.166 201.225 139.752 201.794C139.039 202.761 138.119 203.76 137.879 204.946C137.638 206.163 138.028 207.582 139.28 208.191C139.934 208.511 140.846 208.612 141.501 208.245C142.106 207.902 142.512 207.356 142.504 206.677C142.495 205.96 141.609 205.414 140.929 205.827C140.879 205.858 140.846 205.866 140.813 205.882C140.738 205.882 140.655 205.882 140.581 205.897C140.564 205.851 140.556 205.804 140.539 205.757C140.539 205.733 140.539 205.702 140.539 205.663C140.539 205.593 140.573 205.429 140.539 205.546C140.548 205.499 140.556 205.453 140.573 205.406C140.573 205.406 140.614 205.273 140.639 205.211L140.622 205.203Z" fill="#E89069"/>
<path d="M55.8915 232.607L48.083 219.697C48.083 219.697 12.278 224.12 12.2702 224.12C10.7257 224.307 12.8241 245.127 13.0971 246.695C15.2345 259.183 23.7762 265.432 35.29 269.753C47.81 274.457 57.9743 269.098 69.059 263.45" fill="#FFC3A4"/>
<path d="M46.3825 170.155L55.8915 226.577C55.8915 226.577 10.7803 254.074 5.6709 225.976" fill="#6D6E71"/>
<path d="M46.3825 170.155L55.8915 226.577C55.8915 226.577 10.7803 254.074 5.6709 225.976" stroke="#8A8A8A" stroke-width="3.5" stroke-linecap="round" stroke-linejoin="round"/>
<path d="M61.6562 129.443C66.8748 132.579 72.5849 134.779 78.5914 135.809C81.4855 136.308 84.4341 136.565 87.375 136.558C90.3626 136.558 93.7481 136.503 96.5485 135.372C97.7576 134.888 97.7186 132.845 96.2599 132.813C93.4673 132.759 90.6746 133.359 87.8664 133.398C84.9333 133.445 82.0159 133.227 79.1219 132.735C73.4586 131.768 67.9357 129.872 62.9355 127.033C61.5002 126.222 60.3223 128.64 61.664 129.443H61.6562Z" fill="#8A8A8A"/>
<path d="M110.067 151.129C110.067 151.129 119.522 203.542 117.517 204.556" stroke="#8A8A8A" stroke-width="3.5" stroke-linecap="round" stroke-linejoin="round"/>
</g>
<defs>
<clipPath id="clip0_468_4745">
<rect width="175" height="718" fill="white"/>
</clipPath>
</defs>
</svg>
