<svg width="57" height="57" viewBox="0 0 57 57" fill="none" xmlns="http://www.w3.org/2000/svg">
<circle opacity="0.5" cx="28.5" cy="28.5" r="28.5" fill="black"/>
<g clip-path="url(#clip0_1148_6)">
<path d="M30.1102 40.7765C30.1102 42.5803 28.0335 43.6311 26.5446 42.5835L19.1153 37.359H15.2548C14.0094 37.359 13 36.3652 13 35.1391V23.8622C13 22.6361 14.0094 21.6423 15.2548 21.6423H19.1142L26.5436 16.4157C28.0346 15.367 30.1091 16.4199 30.1091 18.2227V40.7765H30.1102Z" fill="white"/>
<path d="M36.5359 32.8827C36.5359 34.1088 35.5865 35.1026 34.4152 35.1026C33.2438 35.1026 32.2944 34.1088 32.2944 32.8827V26.1163C32.2944 24.8902 33.2438 23.8964 34.4152 23.8964C35.5865 23.8964 36.5359 24.8902 36.5359 26.1163V32.8827Z" fill="white"/>
<path d="M43 36.2664C43 37.4925 42.0506 38.4863 40.8793 38.4863C39.7079 38.4863 38.7585 37.4925 38.7585 36.2664V22.7336C38.7585 21.5075 39.7079 20.5137 40.8793 20.5137C42.0506 20.5137 43 21.5075 43 22.7336V36.2664Z" fill="white"/>
<!-- <path d="M44.3392 31.3133C45.2199 32.1803 45.2199 33.586 44.3392 34.453C43.4586 35.3201 42.0308 35.3201 41.1502 34.453L39.3084 32.6397L37.4666 34.453C36.586 35.3201 35.1582 35.3201 34.2776 34.453C33.3969 33.586 33.3969 32.1803 34.2776 31.3133L36.1193 29.5L34.2776 27.6867C33.3969 26.8196 33.3969 25.414 34.2776 24.5469C35.1582 23.6799 36.586 23.6799 37.4666 24.5469L39.3084 26.3602L41.1502 24.5469C42.0308 23.6799 43.4586 23.6799 44.3392 24.5469C45.2199 25.414 45.2199 26.8196 44.3392 27.6867L42.4975 29.5L44.3392 31.3133Z" fill="white"/> -->
</g>
<defs>
<clipPath id="clip0_1148_6">
<rect width="32" height="27" fill="white" transform="translate(13 16)"/>
</clipPath>
</defs>
</svg>
