<svg width="1920" height="513" viewBox="0 0 1920 513" fill="none" xmlns="http://www.w3.org/2000/svg">
<path d="M2098 260.523H-179L-178.995 566H2098V260.523Z" fill="#EDE6DF"/>
<path d="M2098 333.246V246.845C2095.31 246.873 2092.55 246.91 2089.87 246.979C2058.23 247.831 2026.62 250.351 1995.03 252.449C1909.78 251.472 1824.53 250.624 1739.28 249.902C1713.68 246.141 1688.07 241.787 1662.2 240.68C1634.35 239.489 1606.67 243.158 1579 245.752C1567.16 246.863 1555.3 247.753 1543.43 248.457C1473.09 248.021 1402.75 247.665 1332.41 247.401C1326.02 247.16 1319.64 246.923 1313.25 246.701C1311.07 246.622 1308.9 246.845 1306.78 247.313C1257.95 247.141 1209.12 247.011 1160.3 246.923C1130.86 246.873 1101.43 246.84 1071.99 246.817C1017.41 235.862 961.971 244.186 906.834 246.785C906.264 246.812 905.694 246.831 905.125 246.854C892.947 246.868 880.764 246.886 868.586 246.905C852.591 246.303 836.633 244.946 820.601 243.088C791.099 239.674 761.759 236.65 732.029 236.279C672.719 235.533 613.181 240.101 554.052 244.279C536.542 245.515 519.037 246.859 501.541 248.281C423.702 248.739 345.863 249.3 268.024 249.971C118.988 251.254 -29.9646 252.899 -178.991 255.02V330.582C-38.7473 330.999 101.413 331.157 241.62 334.872C319.385 336.933 397.127 339.99 474.786 344.539C553.88 349.171 1096.92 332.505 1175.55 334.357C1310.26 337.535 1880.59 341.838 2098 333.241V333.246Z" fill="#E5EAFF"/>
<path d="M254.238 206.375C213.503 228.28 167.181 236.492 121.443 239.146C97.1704 240.555 72.8422 240.485 48.5371 240.332C26.2702 240.193 3.96161 240.008 -18.2173 237.849C-43.1708 235.422 -68.0364 230.355 -91.0166 220.086C-92.3646 219.483 -93.5412 221.471 -92.184 222.082C-51.0178 240.541 -5.15916 242.208 39.2403 242.593C87.3409 243.01 136.03 243.538 183.371 233.773C208.394 228.609 232.87 220.512 255.41 208.39C256.731 207.681 255.554 205.666 254.234 206.38L254.238 206.375Z" fill="#76605A"/>
<path d="M523.948 202.956C506.183 209.793 488.451 216.727 470.64 223.453C453.177 230.049 435.491 235.515 416.907 237.812C398.55 240.087 379.961 239.911 361.553 238.373C344.83 236.979 328.141 234.528 311.923 230.142C293.839 225.25 276.469 217.83 261.159 206.94C259.946 206.078 258.797 208.075 259.997 208.932C287.257 228.442 320.729 236.502 353.599 239.952C372.142 241.898 390.893 242.569 409.486 240.925C428.177 239.271 446.145 234.825 463.771 228.465C484.176 221.105 504.326 212.989 524.568 205.198C525.953 204.666 525.351 202.41 523.948 202.952V202.956Z" fill="#76605A"/>
<path d="M868.077 209.427C827.615 231.726 784.744 251.81 738.543 258.175C713.399 261.635 687.867 260.912 662.584 259.81C650.054 259.263 637.478 258.406 625.189 255.785C613.288 253.246 601.852 248.999 590.609 244.413C578.445 239.447 566.151 234.519 554.529 228.363C548.966 225.412 543.56 222.138 538.507 218.376C533.374 214.555 528.626 210.201 522.748 207.519C521.409 206.908 520.233 208.89 521.581 209.511C526.908 211.956 531.313 215.769 535.922 219.312C540.517 222.846 545.404 225.978 550.467 228.798C560.421 234.348 570.969 238.725 581.47 243.121C592.8 247.864 604.182 252.588 616.026 255.914C628.01 259.282 640.364 260.82 652.759 261.616C678.046 263.251 703.783 264.048 729.037 261.612C752.638 259.333 775.693 253.427 797.89 245.182C822.598 236.006 846.199 224.148 869.258 211.442C870.574 210.72 869.397 208.705 868.082 209.432L868.077 209.427Z" fill="#76605A"/>
<path d="M1209.78 209.122C1199.3 215.949 1188.28 221.925 1176.53 226.279C1164.71 230.66 1152.44 233.903 1140.31 237.321C1117.13 243.853 1093.76 249.133 1069.72 251.204C1025.31 255.025 980.189 249.592 937.902 235.529C913.949 227.562 890.974 216.797 869.55 203.457C868.285 202.669 867.123 204.666 868.382 205.453C906.825 229.433 950.34 245.015 995.179 251.389C1017.52 254.566 1040.17 255.502 1062.69 254.061C1086.13 252.556 1109.1 248.216 1131.75 242.102C1145.83 238.303 1160.05 234.514 1173.82 229.716C1186.98 225.13 1199.29 218.728 1210.95 211.127C1212.2 210.312 1211.03 208.293 1209.77 209.117L1209.78 209.122Z" fill="#76605A"/>
<path d="M1477 206.273C1443.13 216.135 1409.03 225.714 1374.07 230.883C1340.23 235.886 1305.33 236.613 1271.75 229.331C1252.32 225.116 1234.22 217.617 1216.15 209.506C1214.81 208.904 1213.63 210.891 1214.98 211.503C1230.98 218.701 1247.03 225.612 1264.08 229.919C1280.59 234.093 1297.59 236.261 1314.59 236.858C1349.77 238.1 1384.79 232.574 1418.93 224.444C1438.65 219.748 1458.15 214.184 1477.61 208.52C1479.05 208.103 1478.44 205.856 1476.99 206.273H1477Z" fill="#76605A"/>
<path d="M1838.28 207.051C1821.57 219.511 1800.59 223.351 1780.31 225.561C1757.1 228.09 1733.75 229.549 1710.42 230.253C1663.13 231.68 1615.73 229.6 1568.75 224.051C1542.09 220.901 1515.58 216.598 1489.27 211.225C1487.82 210.928 1487.19 213.161 1488.66 213.457C1535.55 223.064 1583.15 229.16 1630.95 231.68C1678.94 234.209 1727.12 233.148 1774.95 228.442C1797.34 226.237 1820.93 222.879 1839.46 209.061C1840.65 208.177 1839.49 206.157 1838.29 207.056L1838.28 207.051Z" fill="#76605A"/>
<path d="M2095.1 193.572C2063.61 207.403 2029.47 214.059 1995.28 216.357C1978.38 217.492 1961.41 217.612 1944.49 217.01C1927.74 216.412 1910.99 215.023 1894.49 211.956C1875.99 208.515 1857.88 202.91 1841.19 194.132C1839.88 193.442 1838.71 195.429 1840.03 196.124C1870 211.929 1904.01 217.367 1937.51 219.043C1972.02 220.771 2007.01 219.534 2040.97 212.786C2059.96 209.01 2078.55 203.383 2096.27 195.578C2097.63 194.98 2096.46 192.984 2095.11 193.577L2095.1 193.572Z" fill="#76605A"/>
<path d="M265.314 198.431C262.414 195.837 258.213 195.212 254.711 196.916C252.95 197.773 252.033 198.788 250.968 200.066C247.957 203.665 246.424 209.511 250.18 213.341C252.751 215.958 257.064 216.964 260.598 216.297C264.447 215.565 267.092 212.535 268.033 208.821C268.964 205.124 268.237 201.053 265.314 198.436V198.431Z" fill="#010F4B"/>
<path d="M262.108 239.461C262.006 228.998 261.863 218.534 261.682 208.07C261.64 205.689 257.93 205.573 257.967 207.973C258.593 244.594 258.75 281.224 258.407 317.849C258.319 327.252 258.194 336.655 258.041 346.058C257.411 346.401 257.031 347.077 257.374 347.976C257.597 348.564 257.824 349.152 258.046 349.736C258.745 351.561 261.668 351.612 261.71 349.342C262.326 312.721 262.465 276.091 262.104 239.466L262.108 239.461Z" fill="#010F4B"/>
<path d="M282.013 339.212C275.509 337.276 268.269 337.415 261.543 337.392C254.34 337.368 246.72 337.151 239.68 338.869C232.875 340.527 225.82 345.099 226.756 353.136C226.964 354.924 227.349 356.758 228.604 358.06C230.197 359.709 232.25 359.936 234.385 360.241C241.171 361.209 248.013 361.839 254.864 362.076C261.71 362.312 268.57 362.145 275.389 361.501C281.425 360.927 289.939 360.658 292.324 353.752C294.84 346.475 288.262 341.074 282.008 339.212H282.013Z" fill="#010F4B"/>
<path d="M527.272 195.295C524.372 192.701 520.171 192.076 516.669 193.78C514.908 194.637 513.991 195.652 512.926 196.93C509.915 200.529 508.382 206.375 512.138 210.206C514.709 212.823 519.022 213.828 522.556 213.161C526.405 212.429 529.05 209.4 529.991 205.685C530.922 201.988 530.195 197.917 527.272 195.3V195.295Z" fill="#010F4B"/>
<path d="M524.066 236.325C523.964 225.862 523.821 215.398 523.64 204.934C523.599 202.553 519.888 202.438 519.925 204.832C520.551 241.453 520.708 278.083 520.365 314.708C520.277 324.111 520.152 333.514 519.999 342.917C519.369 343.26 518.989 343.936 519.332 344.835C519.555 345.423 519.782 346.012 520.004 346.595C520.703 348.42 523.626 348.471 523.668 346.202C524.284 309.581 524.423 272.951 524.062 236.325H524.066Z" fill="#010F4B"/>
<path d="M543.972 336.076C537.469 334.14 530.228 334.279 523.502 334.256C516.299 334.232 508.679 334.015 501.639 335.733C494.834 337.391 487.779 341.963 488.715 350C488.923 351.788 489.308 353.622 490.563 354.924C492.156 356.577 494.209 356.8 496.344 357.105C503.13 358.073 509.972 358.703 516.823 358.94C523.669 359.176 530.529 359.009 537.348 358.365C543.384 357.791 551.898 357.522 554.283 350.616C556.799 343.339 550.221 337.938 543.967 336.076H543.972Z" fill="#010F4B"/>
<path d="M873.654 196.393C870.755 193.799 866.553 193.174 863.051 194.878C861.291 195.735 860.374 196.749 859.309 198.028C856.298 201.627 854.764 207.473 858.521 211.303C861.092 213.92 865.405 214.925 868.939 214.258C872.788 213.527 875.433 210.497 876.374 206.782C877.305 203.086 876.577 199.014 873.654 196.397V196.393Z" fill="#010F4B"/>
<path d="M870.445 237.423C870.343 226.96 870.2 216.496 870.019 206.032C869.977 203.651 866.267 203.536 866.304 205.93C866.929 242.551 867.087 279.181 866.744 315.806C866.656 325.209 866.531 334.612 866.378 344.015C865.748 344.358 865.368 345.034 865.711 345.933C865.934 346.521 866.16 347.109 866.383 347.693C867.082 349.518 870.005 349.564 870.047 347.299C870.663 310.679 870.802 274.049 870.441 237.423H870.445Z" fill="#010F4B"/>
<path d="M890.353 337.174C883.849 335.238 876.609 335.376 869.883 335.353C862.68 335.33 855.06 335.112 848.019 336.831C841.215 338.489 834.16 343.061 835.096 351.098C835.304 352.886 835.689 354.72 836.944 356.021C838.537 357.67 840.589 357.897 842.725 358.203C849.511 359.171 856.353 359.801 863.204 360.037C870.05 360.274 876.91 360.107 883.729 359.463C889.765 358.889 898.279 358.62 900.664 351.714C903.179 344.437 896.602 339.036 890.348 337.174H890.353Z" fill="#010F4B"/>
<path d="M1218.44 201.303C1215.54 198.709 1211.33 198.084 1207.83 199.788C1206.07 200.645 1205.16 201.659 1204.09 202.938C1201.08 206.537 1199.55 212.383 1203.3 216.213C1205.87 218.83 1210.19 219.836 1213.72 219.168C1217.57 218.437 1220.21 215.407 1221.15 211.692C1222.09 207.996 1221.36 203.925 1218.44 201.307V201.303Z" fill="#010F4B"/>
<path d="M1215.23 242.333C1215.12 231.869 1214.98 221.406 1214.8 210.942C1214.76 208.561 1211.05 208.445 1211.09 210.84C1211.71 247.461 1211.87 284.091 1211.53 320.716C1211.44 330.119 1211.31 339.522 1211.16 348.925C1210.53 349.268 1210.15 349.944 1210.49 350.843C1210.71 351.431 1210.94 352.019 1211.16 352.603C1211.86 354.428 1214.79 354.479 1214.83 352.209C1215.44 315.589 1215.58 278.959 1215.22 242.333H1215.23Z" fill="#010F4B"/>
<path d="M1235.13 342.084C1228.63 340.148 1221.39 340.287 1214.66 340.263C1207.46 340.24 1199.84 340.022 1192.8 341.741C1185.99 343.399 1178.94 347.971 1179.87 356.008C1180.08 357.796 1180.47 359.63 1181.72 360.931C1183.31 362.58 1185.37 362.807 1187.5 363.113C1194.29 364.081 1201.13 364.711 1207.98 364.947C1214.83 365.184 1221.69 365.017 1228.51 364.373C1234.54 363.799 1243.06 363.53 1245.44 356.624C1247.96 349.347 1241.38 343.946 1235.13 342.084H1235.13Z" fill="#010F4B"/>
<path d="M1489.12 203.234C1486.22 200.64 1482.02 200.015 1478.52 201.72C1476.76 202.577 1475.84 203.591 1474.77 204.869C1471.76 208.469 1470.23 214.314 1473.99 218.145C1476.56 220.762 1480.87 221.767 1484.4 221.1C1488.25 220.368 1490.9 217.339 1491.84 213.624C1492.77 209.928 1492.04 205.856 1489.12 203.239V203.234Z" fill="#010F4B"/>
<path d="M1485.91 244.265C1485.81 233.801 1485.67 223.337 1485.49 212.874C1485.45 210.493 1481.74 210.377 1481.77 212.772C1482.4 249.392 1482.56 286.022 1482.21 322.648C1482.12 332.051 1482 341.454 1481.85 350.857C1481.22 351.2 1480.84 351.876 1481.18 352.774C1481.4 353.363 1481.63 353.951 1481.85 354.535C1482.55 356.36 1485.47 356.411 1485.52 354.141C1486.13 317.52 1486.27 280.89 1485.91 244.265H1485.91Z" fill="#010F4B"/>
<path d="M1505.82 344.015C1499.31 342.079 1492.07 342.218 1485.35 342.195C1478.15 342.172 1470.53 341.954 1463.48 343.673C1456.68 345.331 1449.62 349.903 1450.56 357.939C1450.77 359.727 1451.15 361.561 1452.41 362.863C1454 364.517 1456.05 364.739 1458.19 365.045C1464.98 366.013 1471.82 366.643 1478.67 366.879C1485.52 367.115 1492.38 366.948 1499.19 366.305C1505.23 365.73 1513.74 365.462 1516.13 358.555C1518.64 351.278 1512.07 345.877 1505.81 344.015H1505.82Z" fill="#010F4B"/>
<path d="M1843.33 195.165C1840.43 192.572 1836.23 191.946 1832.72 193.651C1830.96 194.508 1830.05 195.522 1828.98 196.801C1825.97 200.4 1824.44 206.245 1828.19 210.076C1830.76 212.693 1835.08 213.698 1838.61 213.031C1842.46 212.299 1845.11 209.27 1846.05 205.555C1846.98 201.859 1846.25 197.787 1843.33 195.17V195.165Z" fill="#010F4B"/>
<path d="M1840.12 236.196C1840.02 225.732 1839.88 215.268 1839.7 204.805C1839.65 202.424 1835.94 202.308 1835.98 204.707C1836.61 241.328 1836.76 277.958 1836.42 314.583C1836.33 323.986 1836.21 333.389 1836.05 342.792C1835.42 343.135 1835.04 343.811 1835.39 344.71C1835.61 345.298 1835.84 345.886 1836.06 346.47C1836.76 348.295 1839.68 348.346 1839.72 346.076C1840.34 309.456 1840.48 272.826 1840.12 236.2L1840.12 236.196Z" fill="#010F4B"/>
<path d="M1860.34 335.57C1853.83 333.634 1846.59 333.773 1839.87 333.75C1832.66 333.727 1825.04 333.509 1818 335.227C1811.2 336.886 1804.14 341.457 1805.08 349.494C1805.29 351.282 1805.67 353.116 1806.93 354.418C1808.52 356.071 1810.57 356.294 1812.71 356.599C1819.5 357.568 1826.34 358.197 1833.19 358.434C1840.03 358.67 1846.89 358.503 1853.71 357.859C1859.75 357.285 1868.26 357.016 1870.65 350.11C1873.16 342.833 1866.59 337.432 1860.33 335.57H1860.34Z" fill="#010F4B"/>
<path d="M-0.309372 243.774C-0.425179 243 -0.545612 242.222 -0.670681 241.448C-1.11537 238.665 -2.95898 236.043 -5.62249 235.232C-7.77182 232.657 -21.849 209.395 -22.3354 205.597C-22.4929 204.388 -22.5485 201.558 -22.5531 201.442C-22.5253 201.298 -22.2289 199.367 -22.0899 198.667C-21.4738 195.545 -20.4918 192.507 -19.6302 189.449C-16.1329 177.008 -10.5789 167.202 -8.74921 154.399C-8.23967 150.818 -10.3195 146.83 -14.1642 146.228C-15.4844 146.02 -16.8231 146.177 -18.0321 146.636C-19.4403 144.792 -21.7286 143.588 -24.0493 143.852C-27.982 144.301 -30.5251 147.358 -30.4973 151.258C-30.4834 153.422 -31.6229 156.817 -32.5169 159.281C-33.8742 163.038 -35.1851 166.813 -36.4635 170.602C-38.8352 177.619 -41.1837 184.697 -43.069 191.863C-44.9266 198.931 -45.9688 207.042 -42.9579 213.953C-39.9516 220.859 -33.9622 225.422 -28.7417 230.582C-23.0024 236.256 -18.046 241.865 -13.0479 248.188C-11.1116 250.638 -8.03121 251.921 -4.96007 250.847C-2.23172 249.888 0.13995 246.775 -0.309372 243.778V243.774Z" fill="#E8BAA3"/>
<path d="M1239.2 483.819C1233.61 478.511 1225.55 478.969 1218.42 479.312C1208.92 479.77 1199.43 479.015 1189.93 478.668C1171.32 477.982 1152.79 479.956 1134.21 480.752C1125 481.146 1115.75 481.234 1106.55 480.479C1097.66 479.752 1088.97 477.941 1080.34 475.69C1062.83 471.122 1045.3 465.175 1027 465.212C1022.26 464.577 1017.21 464.994 1012.74 465.272C1004.57 465.777 996.434 466.981 988.364 468.366C972.675 471.062 957.162 474.332 941.204 474.953C924.718 475.592 908.154 474.99 891.663 474.828C874.996 474.661 858.325 474.499 841.659 474.337C837.531 474.295 833.399 474.254 829.272 474.212C825.432 474.175 821.37 473.781 817.59 474.601C809.377 476.38 805.356 487.084 813.282 492.101C816.469 494.12 820.633 494.417 824.288 494.676C828.29 494.959 832.306 494.792 836.295 494.394C844.368 493.588 852.308 491.865 860.359 490.897C876.65 488.933 893.104 489.516 909.451 490.378C925.899 491.249 942.27 492.087 958.746 491.721C967.038 491.536 975.339 491.318 983.626 491.818C991.537 492.291 999.176 493.815 1006.9 495.515C1019.49 498.285 1075.51 499.896 1090.49 500.434C1109.4 501.11 1128.22 501.004 1147.12 499.915C1165.9 498.836 1184.74 497.418 1203.55 498.502C1212.81 499.035 1222.14 500.596 1231.42 500.184C1235.19 500.017 1239.33 498.961 1241.49 495.589C1244.02 491.652 1242.4 486.857 1239.21 483.828L1239.2 483.819Z" fill="#8E8E8E"/>
<path d="M960.457 396.283C957.895 392.253 953.36 389.418 948.446 387.667C942.864 385.68 936.629 385.314 930.672 384.999C924.043 384.652 917.401 384.453 910.763 384.402C895.829 384.291 880.908 384.962 866.081 386.333C859.475 386.945 852.282 387.269 846.389 390.071C841.058 392.605 837.185 396.755 835.258 401.619C833.688 405.598 840.02 407.803 842.795 405.218C846.811 407.506 853.945 406.395 858.086 406.075C864.478 405.584 870.796 404.685 877.147 403.926C890.321 402.346 903.291 402.948 916.539 403.828L936.351 405.144C939.566 405.357 942.776 405.57 945.991 405.783C949.071 405.987 952.3 406.459 955.38 406.237C957.696 406.07 960.059 405.283 961.3 403.532C962.94 401.221 961.865 398.497 960.457 396.288V396.283Z" fill="#010F4B"/>
<path d="M1220.67 394.161C1218.32 390.141 1214.14 387.315 1209.6 385.578C1204.46 383.605 1198.7 383.253 1193.2 382.957C1187.08 382.623 1180.95 382.442 1174.82 382.41C1161.04 382.341 1147.26 383.049 1133.57 384.457C1127.47 385.083 1120.83 385.43 1115.39 388.242C1110.46 390.789 1106.87 394.949 1105.08 399.817C1103.62 403.796 1109.47 405.987 1112.03 403.398C1115.74 405.672 1122.32 404.542 1126.15 404.213C1132.05 403.703 1137.88 402.791 1143.75 402.013C1155.91 400.401 1167.89 400.971 1180.11 401.814L1198.4 403.078C1201.36 403.282 1204.33 403.486 1207.3 403.694C1210.14 403.889 1213.12 404.357 1215.96 404.125C1218.1 403.954 1220.29 403.157 1221.43 401.406C1222.95 399.09 1221.97 396.371 1220.67 394.161H1220.67Z" fill="#010F4B"/>
<path d="M1100.97 391.299C1100.54 389.289 1099.51 387.501 1097.93 386.18C1096.25 384.782 1094.17 384.073 1092.14 383.378C1090.5 382.818 1088.52 382.317 1086.92 381.382C1086.62 380.534 1086.25 379.7 1085.91 378.876C1085.1 376.93 1084.18 375.105 1082.92 373.419C1081.32 371.298 1078.21 372.53 1078.66 375.212C1078.66 375.235 1078.67 375.254 1078.67 375.277C1078.45 375.721 1078.39 376.263 1078.58 376.889C1078.62 377.037 1078.66 377.185 1078.71 377.333C1078.29 377.583 1077.92 377.963 1077.69 378.417C1077.45 378.413 1077.21 378.454 1076.97 378.533C1075.52 378.459 1074.04 379.58 1074.64 381.34C1075.43 383.679 1076.58 385.796 1078.08 387.681C1079.13 389.682 1081.1 391.521 1083.06 392.114C1084.86 392.661 1086.86 392.531 1088.72 392.582C1089.99 392.619 1091.43 392.512 1092.73 392.744C1093.49 393.791 1094.24 394.842 1094.79 396.047C1095.59 397.793 1096.45 400.577 1098.67 400.943C1102.45 401.563 1101.15 392.151 1100.97 391.299H1100.97Z" fill="#E8BAA3"/>
<path d="M1040.7 481.304C1040.45 479.942 1039.35 478.988 1038.17 478.381C1036.26 477.39 1034.2 476.616 1032.22 475.75C1031.32 475.356 1030.52 475.968 1030.51 476.736C1030.29 477.218 1030.36 477.82 1030.95 478.172C1031.22 478.334 1031.5 478.497 1031.78 478.659C1032.25 478.937 1032.69 478.863 1033 478.612C1033.19 478.7 1033.39 478.784 1033.59 478.872C1033.11 479.312 1033.19 480.294 1033.76 480.766C1033.15 481.387 1032.7 482.267 1032.44 483.374C1032.22 484.296 1031.64 485.917 1032.36 486.774C1033.13 487.696 1034.42 487.149 1035.32 486.774C1037.47 485.894 1041.24 484.208 1040.7 481.299L1040.7 481.304Z" fill="#AF4C46"/>
<path d="M1033.84 477.881C1033.05 476.445 1032.04 474.749 1030.14 474.967C1029.84 474.999 1029.58 475.078 1029.36 475.189C1028.24 474.726 1026.93 475.884 1027.13 477.07C1026.93 477.126 1026.75 477.218 1026.59 477.343C1026.52 476.959 1026.27 476.597 1025.8 476.343C1025.67 476.269 1025.53 476.199 1025.4 476.125C1024.32 475.546 1022.9 476.157 1022.85 477.473C1022.75 479.803 1023.01 482.137 1023.76 484.351C1024.32 485.968 1025.03 487.872 1026.74 488.571C1028.58 489.322 1031.17 488.201 1032.96 487.751C1035.09 487.219 1035.91 486.325 1035.85 484.087C1035.79 481.873 1034.9 479.789 1033.84 477.876V477.881Z" fill="#AF4C46"/>
<path d="M1019.04 405.325C1020.79 412.796 1032.37 473.054 1032.75 476.75C1033.04 479.53 1031.13 480.739 1028.73 481.461C1025.92 482.309 1024.05 482.059 1023.17 479.094C1021 471.799 1001.13 420.819 1000.57 411.527C1000.55 411.295 1018.73 403.963 1019.05 405.325H1019.04Z" fill="#E8BAA3"/>
<path d="M1029.06 447.791C1027.62 436.174 1025.47 424.668 1022.44 413.356C1021.68 410.54 1020.88 407.738 1020.02 404.954C1019.29 402.564 1018.72 399.85 1017.48 397.654C1016.1 395.208 1013.82 394.319 1011.13 394.134C1008.01 393.921 1004.87 393.93 1001.75 393.828C1000.48 393.786 999.157 394.597 998.476 395.727C996.086 393.04 985.64 396.422 987.076 400.405C993.478 418.146 999.931 435.873 1006.36 453.604C1007.03 455.424 1008.9 456.865 1010.94 456.203C1014.4 455.072 1022.87 452.506 1026.33 451.381C1027.73 450.922 1029.27 449.435 1029.06 447.791H1029.06Z" fill="#010F4B"/>
<path d="M1021.06 376.31C1025.33 382.688 1055.63 434.937 1057.29 438.263C1058.54 440.76 1058.94 442.636 1056.95 444.155C1054.61 445.938 1052.78 446.364 1050.91 443.896C1046.31 437.832 1009.74 397.121 1005.95 388.626C1005.86 388.413 1020.28 375.147 1021.06 376.31Z" fill="#E8BAA3"/>
<path d="M1045.39 412.523C1039.95 402.156 1033.89 392.147 1027.06 382.628C1025.37 380.261 1023.63 377.922 1021.84 375.615C1020.31 373.632 1018.83 371.298 1016.89 369.677C1014.74 367.875 1012.29 367.842 1009.71 368.621C1006.71 369.519 1003.77 370.635 1000.82 371.641C999.617 372.048 998.663 373.271 998.427 374.573C995.244 372.901 990.848 376.634 993.595 379.858C1005.84 394.208 1013.71 412.694 1025.98 427.021C1027.24 428.494 1029.5 429.18 1031.18 427.841C1034.01 425.567 1041.26 419.119 1044.1 416.844C1045.24 415.923 1046.16 413.991 1045.39 412.523H1045.39Z" fill="#010F4B"/>
<path d="M1046.56 438.291C1047.4 440.083 1050.7 439.314 1051.93 438.883C1054.36 438.031 1055.35 437.693 1056.4 435.419C1057.8 435.812 1061.33 435.155 1064.84 435.345C1067.32 435.484 1069.79 435.845 1069.22 439.273C1068.99 440.648 1055.39 447.388 1050.65 447.008C1046.37 446.665 1046.18 442.645 1046.24 441.325C1046.31 439.819 1046.59 439.351 1046.56 438.286C1046.55 438.272 1046.56 438.3 1046.56 438.286L1046.56 438.291Z" fill="#AF4C46"/>
<path d="M1044.47 353.029C1043.64 349.449 1042.44 344.956 1040.42 341.486C1039.22 338.392 1037.52 335.238 1034.84 333.723C1033.66 333.061 1032.5 332.884 1031.45 333.093C1031.28 332.783 1031.11 332.468 1030.93 332.157C1028.32 327.539 1022 331.606 1024.17 336.261C1022.36 335.539 1020.41 335.112 1018.42 334.946C1011.74 334.376 1004.35 335.293 997.958 337.6C994.869 338.712 991.256 340.138 989.111 343.103C988.87 343.436 988.657 343.793 988.467 344.159C988.444 344.168 988.421 344.173 988.393 344.182C988.147 343.784 987.879 343.404 987.582 343.07C985.85 341.134 983.108 340.958 981.259 342.769C980.866 343.158 980.528 343.612 980.236 344.113C980.097 343.918 979.949 343.728 979.791 343.557C978.23 341.843 976.099 341.449 974.32 342.376C972.922 339.647 968.451 339.314 967.238 343.32C963.523 355.577 961.994 370.455 965.292 383.086C966.747 388.659 969.642 393.536 973.7 397.024C981.482 403.717 1020.1 400.947 1026.34 400.396C1031.55 399.933 1036.83 397.825 1040.43 393.217C1043.52 389.247 1045.07 385.013 1045.61 380.136C1046.61 371.228 1046.49 361.751 1044.47 353.034V353.029Z" fill="#010F4B"/>
<path d="M1022.18 215.727C1022.13 213.476 1022.25 211.025 1021.21 208.964C1019.03 204.661 1013.73 204.369 1010.29 207.357C1008.9 208.566 1008 210.09 1007.37 211.739C1004.7 210.131 1000.26 211.396 1000.13 215.514C999.838 225.227 999.717 234.95 999.509 244.663C999.439 247.869 1002.52 249.698 1005.39 249.138C1006.12 248.994 1006.86 248.892 1007.59 248.818C1008.81 249.281 1010.29 249.24 1011.54 248.753C1013.74 248.883 1015.88 249.471 1017.93 248.271C1022.02 245.881 1021.47 239.79 1021.74 235.719C1022.05 231.179 1022.21 226.635 1022.23 222.087C1022.24 219.965 1022.22 217.844 1022.17 215.722L1022.18 215.727Z" fill="#E8BAA3"/>
<path d="M1023.62 162.385C1017.31 159.05 1008.7 160.161 1002.5 163.2C988.005 170.301 987.236 190.459 991.331 204.124C993.355 210.877 996.908 219.493 1004.08 221.994C1010.07 224.083 1017.08 224.634 1022.46 221.179C1029.31 216.788 1031.8 209.803 1032.87 203.832C1034.22 196.259 1034.14 188.333 1033.48 180.69C1032.85 173.381 1030.53 166.039 1023.62 162.385H1023.62Z" fill="#E8BAA3"/>
<path d="M1035.13 177.693C1033.73 169.3 1028.82 161.111 1020.55 158.86C1020.16 158.429 1019.78 157.998 1019.38 157.581C1017.38 155.525 1014.97 152.75 1012.07 152.055C1008.89 151.296 1006.15 153.588 1006.1 156.632C1004.64 156.641 1003.25 156.937 1002.04 157.623C1001.1 158.16 1000.41 158.874 999.94 159.68C999.064 159.786 998.212 159.916 997.415 159.995C994.515 160.277 991.291 160.217 989.091 162.431C987.146 164.39 986.553 167.485 987.41 170.074C987.79 171.232 988.401 172.2 989.165 173.024C987.099 176.109 986.21 180.009 988.382 183.224C988.535 183.446 988.693 183.65 988.85 183.836C989.198 187.759 990.578 191.742 992.135 195.304C995.465 202.906 1001.34 212.035 1009.42 215.157C1013.6 216.769 1018.35 216.241 1021.83 213.355C1024.98 210.738 1027.74 207.074 1030.09 203.744C1035.48 196.092 1036.64 186.768 1035.13 177.689L1035.13 177.693Z" fill="#010F4B"/>
<path d="M1091.74 394.745C1089.24 390.72 1084.8 387.885 1079.99 386.139C1074.53 384.156 1068.42 383.79 1062.58 383.485C1056.09 383.142 1049.58 382.947 1043.08 382.901C1028.45 382.804 1013.84 383.485 999.319 384.865C992.848 385.481 985.802 385.81 980.031 388.617C974.805 391.155 971.012 395.306 969.122 400.174C967.579 404.153 973.782 406.353 976.501 403.768C980.434 406.052 987.419 404.935 991.477 404.616C997.739 404.12 1003.93 403.217 1010.14 402.453C1023.04 400.864 1035.75 401.457 1048.73 402.328L1068.13 403.629C1071.28 403.842 1074.43 404.051 1077.57 404.264C1080.59 404.468 1083.75 404.936 1086.77 404.713C1089.04 404.546 1091.35 403.754 1092.56 402.003C1094.17 399.692 1093.12 396.968 1091.74 394.759V394.745Z" fill="#010F4B"/>
<path d="M1087.63 369.862C1085.73 364.832 1073.85 316.297 1071.11 305.361C1068.58 295.226 1069.57 252.866 1040.3 240.74C1040.3 240.74 1040.3 240.74 1040.29 240.74C1036.32 238.442 1032.01 237.849 1026.86 235.506C1025.46 233.44 1023.78 231.457 1022.26 229.688C1021.26 228.53 1020.47 228.257 1018.96 228.206C1016.67 228.131 1015.54 228.307 1013.24 228.354C1008.64 228.451 1006.57 228.484 1001.97 228.669C998.533 228.808 995.666 231.165 992.9 233.213C989 234.672 982.626 236.719 979.018 239.244C978.022 239.943 977.072 240.689 976.164 241.472C972.607 242.588 969.582 245.571 967.011 248.128C963.94 251.18 961.239 254.641 958.858 258.258C954.018 265.605 950.539 273.761 947.329 281.923C943.623 291.359 939.927 300.877 937.217 310.656C934.794 319.391 932.529 329.99 939.181 337.503C942.289 341.014 946.852 342.955 951.299 344.117C953.564 344.71 955.871 345.169 958.201 345.53C957.7 360.654 957.218 374.026 957.107 375.041C956.848 377.347 956.445 379.974 958.27 381.799C959.854 383.383 962.078 383.397 964.162 383.614C966.853 383.892 969.545 384.156 972.241 384.406C977.41 384.884 978.415 385.347 983.599 385.657C988.291 385.94 993.187 385.861 997.607 384.078C1002.09 382.271 1004.48 378.38 1007.2 374.61C1008.31 373.072 1009.41 371.525 1010.49 369.964C1010.77 370.645 1011.04 371.33 1011.31 372.011C1012.64 375.355 1013.64 379.158 1016.84 381.22C1019.54 382.957 1022.88 383.188 1026 383.008C1030.09 382.771 1034.17 382.317 1038.24 381.78C1042.23 381.247 1046.22 380.622 1050.18 379.853C1053.95 379.121 1058 378.742 1058.33 374.082C1058.58 370.371 1057.93 356.462 1057.07 342.112C1060.36 352.918 1064.98 367.407 1066.07 370.39C1066.87 372.599 1068.91 382.294 1072.24 382.507C1075.33 382.702 1085.79 379.205 1087.23 377.584C1089.28 375.281 1088.6 372.47 1087.62 369.876L1087.63 369.862Z" fill="#B85B2D"/>
<path d="M1229.06 400.406H828.101C825.433 400.406 823.27 402.569 823.27 405.237V488.826H832.71V420.235H1224.45V488.826H1233.89V405.237C1233.89 402.569 1231.73 400.406 1229.06 400.406H1229.06Z" fill="#8F4723"/>
<path d="M25.8013 555.213C25.1141 563.617 16.9742 630.557 16.1291 634.553C15.4928 637.556 13.09 638.182 10.336 638.131C7.10855 638.07 5.24028 637.184 5.31664 633.784C5.4999 625.425 1.83974 565.399 4.37996 555.493C4.44105 555.244 7.05764 513.349 7.97904 513.156C12.9373 512.132 25.9235 553.681 25.8013 555.213Z" fill="#E8BAA3"/>
<path d="M228.185 545.658C227.859 541.326 227.502 536.994 227.161 532.662C226.556 524.996 226.55 521.591 225.945 513.924C223.455 482.384 221.847 451.195 218.94 419.69C217.291 401.833 215.371 383.965 212.434 366.271C212.103 364.28 210.713 362.682 208.957 361.832C208.005 358.961 204.671 357.164 201.739 357.739C201.52 357.78 201.306 357.836 201.097 357.897C200.329 357.648 199.524 357.444 198.695 357.281C195.269 356.609 191.827 356.034 188.371 355.561C187.398 354.598 186.1 353.957 184.532 353.84C183.306 353.748 182.018 354.084 180.893 354.721C177.986 354.461 175.069 354.273 172.147 354.186C169.841 354.115 167.489 354.064 165.122 354.064C164.211 353.331 163.075 352.847 161.737 352.751C160.021 352.623 158.402 353.219 157.165 354.273C154.941 354.405 152.726 354.604 150.542 354.899C149.458 354.812 148.369 354.975 147.381 355.398C147.152 355.438 146.918 355.479 146.689 355.525C142.723 356.294 139.012 358.365 137.164 362.066C136.665 363.069 136.355 364.082 136.207 365.095C134.822 366.011 129.986 366.734 129.813 368.898C126.061 415.867 121.108 480.648 116.236 527.465C114.857 540.715 112.882 546.554 114.979 553.716C117.713 563.042 125.929 564.503 135.113 563.897C139.536 563.607 143.924 562.538 148.353 562.477C152.772 562.416 163.539 565.648 167.229 564.885C173.012 563.689 168.583 522.191 171.22 523.23C175.42 524.884 172.997 563.307 178.429 565.465C183.392 567.435 199.937 566.02 218.477 561.678C219.48 561.444 225.242 558.634 226.698 556.307C228.744 553.034 228.459 549.328 228.185 545.674V545.658Z" fill="#010F4B"/>
<path d="M47.0965 217.779C47.0405 215.305 47.1779 212.613 46.0274 210.347C43.6348 205.618 37.8111 205.298 34.0339 208.581C32.5067 209.91 31.5191 211.584 30.8217 213.397C27.8844 211.63 23.0076 213.02 22.8701 217.545C22.5443 228.22 22.412 238.905 22.1829 249.579C22.1066 253.102 25.4867 255.113 28.6429 254.497C29.4472 254.339 30.2567 254.227 31.061 254.146C32.41 254.655 34.0288 254.609 35.4033 254.074C37.8213 254.217 40.1732 254.863 42.4283 253.545C46.9183 250.918 46.3176 244.224 46.6179 239.75C46.9539 234.761 47.1321 229.767 47.1524 224.769C47.1626 222.437 47.1423 220.106 47.0863 217.774L47.0965 217.779Z" fill="#E8BAA3"/>
<path d="M79.4263 416.037C77.5021 395.655 72.2943 369.108 69.5352 348.828C69.0567 345.31 65.142 344.379 62.2352 345.473C62.22 345.331 62.2149 345.188 62.1996 345.046C61.9298 342.047 59.8681 340.332 57.618 339.945C57.6028 338.973 57.5824 338.001 57.5671 337.028C57.4552 330.599 48.2869 330.136 46.9786 335.689C44.4333 334.315 40.7935 334.727 39.4852 337.497C37.3472 337.726 35.4433 339.248 34.8222 341.401C34.4048 342.842 34.0077 344.287 33.6055 345.728C33.6106 345.534 33.6157 345.346 33.6208 345.158C33.799 338.963 24.8089 338.031 23.0527 343.727C22.7574 344.684 22.4723 345.646 22.1822 346.608C19.4078 345.59 15.6153 346.624 14.648 349.994C13.9201 352.524 13.2074 355.069 12.5202 357.619C12.2758 357.395 12.0162 357.192 11.7362 357.018C10.4025 355.705 8.46802 355.013 6.65576 355.71C4.58896 356.509 2.87342 357.741 2.25236 360.001C1.89093 361.31 1.71275 368.869 2.19636 370.086C-5.19014 392.916 -5.24613 416.796 -5.8621 425.913C-7.12967 444.65 -3.03681 562.83 -2.13068 600.515C-1.90669 609.78 -4.42145 611.546 3.12795 612.564C12.9783 613.893 24.6511 614.28 25.0177 614.091C34.9444 615.873 34.3437 459.509 39.5616 459.509C39.5616 459.509 51.7536 574.569 57.0479 602.831C57.7708 606.69 57.0479 611.062 60.9524 611.841C64.4395 612.539 78.7136 612.691 82.0378 612.854C87.5102 613.124 87.0724 606.868 87.1131 604.842C87.2608 597.542 82.8116 452.011 79.4212 416.037H79.4263Z" fill="#010F4B"/>
<path d="M131 317.837C129.361 315.857 126.423 315.74 124.596 317.532C123.573 318.535 122.941 319.99 122.473 321.523C121.373 319.166 117.189 318.743 116.232 321.971C112.46 334.697 110.367 347.163 109.701 360.419C109.573 362.913 107.659 373.028 106.763 375.583C104.635 381.631 103.363 388.538 102.538 394.886C100.777 408.432 102.054 407.974 98.5623 423.708C98.2212 425.256 101.423 434.948 103.724 431.4C114.781 414.342 120.6 395.721 125.644 370.946C127.691 360.882 129.809 346.715 131.427 336.575C131.926 333.465 132.415 330.324 132.573 327.173C132.72 324.246 132.975 320.24 130.995 317.847L131 317.837Z" fill="#E8BAA3"/>
<path d="M233.402 318.219C233.397 318.178 233.387 318.143 233.382 318.102C233.168 316.819 232.883 315.562 232.537 314.355C230.679 307.865 227.395 301.899 225.939 295.281C224.865 290.415 224.01 285.37 220.971 281.415C220.263 279.302 219.265 277.389 217.922 275.77C207.613 263.359 209.257 268.857 208.051 267.742C207.567 267.294 206.9 266.826 206.269 266.347C206.096 264.759 204.991 263.217 203.652 262.448C202.135 261.583 200.445 261.226 198.766 261.837C196.403 262.692 195.024 264.469 194.851 266.979C194.851 267.029 194.851 267.08 194.851 267.131C193.828 266.464 192.774 265.838 191.705 265.263C186.222 262.285 179.788 259.587 173.419 259.989C172.539 260.045 171.627 260.137 170.716 260.295C168.98 257.958 165.967 257.617 162.576 259.317C153.479 263.873 141.002 267.208 132.679 274.39C132.363 274.66 132.073 274.996 131.798 275.373C130.093 277.088 128.617 279.094 127.212 280.977C124.717 284.327 122.554 287.921 120.66 291.642C120.232 292.487 119.82 293.337 119.413 294.192C119.413 294.192 119.408 294.192 119.403 294.202C108.6 316.264 102.222 344.134 100.537 355.298C99.656 361.147 99.0553 367.031 98.8619 372.941C98.7703 375.746 98.7652 378.551 98.8466 381.356C98.9077 383.489 99.6204 386.314 98.6125 388.197C97.2685 390.707 96.1944 392.896 96.3013 395.848C96.3573 397.289 96.6169 399.06 97.3652 400.338C98.2866 401.916 99.9818 402.619 101.575 403.321C106.92 405.673 112.917 406.9 118.766 406.294C119.586 406.207 120.375 406.05 121.113 405.81C121.088 407.516 120.227 417.483 124.01 423.53C125.547 426.269 127.649 428.773 129.609 431.039C132.893 434.841 136.685 438.135 140.727 441.107C149.061 447.226 158.855 451.4 168.868 453.839C179.436 456.414 190.778 457.494 201.642 456.766C207.063 456.404 212.51 455.386 217.285 452.673C222.661 449.614 225.904 442.843 226.143 436.74C226.372 430.927 223.379 403.504 222.859 398.276C222.371 393.334 221.729 387.846 221.027 382.175C226.321 380.877 229.345 376.418 231.198 371.246C233.621 364.486 235.026 357.207 235.55 350.044C236.278 340.149 234.751 326.74 233.397 318.229L233.402 318.219Z" fill="#79070C"/>
<path d="M247.989 415.839C247.892 410.646 247.78 405.454 247.719 400.257C247.602 389.867 247.607 379.483 247.734 369.093C247.795 364.109 247.983 359.121 247.989 354.137C247.994 350.742 247.739 347.194 246.319 344.063C244.557 340.169 241.116 338.011 236.947 337.425C233.684 336.967 230.334 336.855 226.985 336.804C223.503 313.622 221.298 289.229 207.238 270.002C204.973 266.907 199.77 269.794 202 273.067C214.971 292.125 217.246 314.584 220.677 336.718C220.509 336.718 220.336 336.713 220.168 336.708C218.392 336.662 217.699 338.291 218.066 339.619C218.066 339.619 219.344 366.573 221.029 382.165C222.423 395.049 224.684 416.281 226.028 432.479C226.089 433.63 226.124 434.597 226.124 434.597C233.139 434.149 243.723 433.777 246.66 426.386C247.983 423.062 248.045 419.371 247.978 415.839H247.989Z" fill="#B85B2D"/>
<path d="M176.225 237.586C175.68 237.011 175.059 236.736 174.443 236.68C174.545 236.288 174.637 235.917 174.718 235.576C175.482 232.526 171.328 230.969 169.521 232.791C167.622 230.302 165.85 227.726 164.201 225.084C161.355 218.176 160.663 210.444 161.544 202.874C161.651 201.958 161.345 201.271 160.821 200.818C161.371 198.395 157.98 195.921 155.695 198.151C155.17 198.665 154.682 199.189 154.218 199.734C153.943 199.912 153.689 200.141 153.46 200.421C149.25 205.644 148.171 213.157 147.57 219.5C146.888 226.723 147.57 234.104 149.515 241.124C150.304 243.985 150.96 248.022 154.305 249.187C157.446 250.282 161.467 249.681 164.588 248.831C168.844 247.67 181.881 243.562 176.225 237.586Z" fill="#E8BAA3"/>
<path d="M215.469 289.947C212.964 281.552 217.495 273.001 214.043 264.764C210.999 257.495 204.702 252.262 203.75 244.087C203.277 240.04 203.551 236.003 203.887 231.966C205.435 225.491 206.036 218.813 204.605 212.226C202.829 204.03 197.748 196.893 190.138 193.187C182.476 189.456 173.629 189.278 165.626 192.057C163.666 192.739 161.742 193.569 159.909 194.541C158.367 195.361 156.392 196.237 155.73 197.977C155.572 198.395 155.501 198.792 155.501 199.159C155.486 199.209 155.46 199.25 155.45 199.301C153.78 205.618 155.048 212.465 159.131 217.616C160.251 219.032 161.808 220.172 162.821 221.663C163.789 223.094 163.967 224.728 164.048 226.413C164.135 228.215 164.186 229.966 164.496 231.656C164.17 239.108 160.123 246.316 160.856 253.932C161.274 258.304 163.254 262.295 163.875 266.612C164.613 271.738 162.984 276.844 162.455 281.914C161.65 289.595 163.992 297.083 171.48 300.301C177.676 302.963 186.635 301.431 190.978 306.969C198.023 315.949 208.046 315.394 214.277 310.044C220.386 304.806 217.378 296.33 215.469 289.936V289.947Z" fill="#3E1E0F"/>
<path d="M218.895 216.822C218.192 208.774 211.936 203.002 206.158 197.916C206.133 197.071 206.066 196.221 205.959 195.371C204.987 187.817 199.591 183.343 193.528 179.443C187.71 175.702 180.415 173.869 173.797 176.745C172.682 177.229 171.664 177.845 170.712 178.542C165.469 177.824 160.052 178.033 155.089 179.367C146.878 181.571 140.738 186.896 138.366 191.299C134.966 197.621 135.536 205.486 139.165 211.584C143.477 218.823 151.989 222.203 159.06 226.087C163.417 228.479 167.77 230.877 172.127 233.265C175.93 235.352 179.778 237.413 183.968 238.61C192.057 240.921 201.694 240.559 209.248 236.624C216.1 233.056 219.536 224.26 218.89 216.822H218.895Z" fill="#E5B200"/>
<path d="M195.087 206.967C190.683 206.341 186.244 205.165 182.177 203.358C178.242 201.612 174.51 199.311 171.324 196.41C169.496 194.745 167.862 192.902 166.253 191.029C165.164 189.756 164.008 188.463 163.092 187.038C161.432 188.988 159.778 190.942 158.124 192.892C157.945 193.106 157.798 193.345 157.681 193.6C159.737 196.455 162.247 199.062 164.645 201.388C168.529 205.145 173.11 208.225 178.033 210.444C182.91 212.643 188.006 214.17 193.3 214.944C195.84 215.316 198.63 215.687 201.409 215.779C201.414 215.769 201.424 215.758 201.43 215.753C203.104 213.147 204.443 210.327 205.344 207.385C201.974 207.868 198.248 207.425 195.076 206.972L195.087 206.967Z" fill="#010F4B"/>
<path d="M77.9661 252.155C69.7346 243.832 51.4083 237.724 33.2195 238.284C14.2416 238.869 0.578375 241.74 -11.2573 253.336C-16.8519 258.818 -25.7147 280.448 -28.143 292.242C-29.1305 297.038 -29.8025 299.002 -25.2006 301.319C-23.3425 302.255 -9.04801 312.36 -7.00158 312.518C-5.31149 315.669 -6.73686 331.51 -7.40882 337.568C-8.09606 343.819 -7.62773 362.898 -5.21986 368.833C-2.82217 374.743 1.09762 379.503 6.38169 383.071C8.27031 384.344 19.7802 384.049 23.6287 383.565C32.3592 382.46 40.9471 381.875 49.7284 382.934C53.7347 383.417 57.7156 383.942 61.8746 383.779C73.5271 383.326 72.4224 370.36 71.8574 368.777C71.4908 353.827 68.3601 325.412 66.7311 310.548C67.9529 309.499 67.5456 309.667 68.7877 308.72C70.8494 307.142 73.0639 305.732 75.3241 304.459C80.1449 301.736 85.0777 300.275 90.3415 298.702C93.4977 297.76 93.5485 297.766 94.5972 294.477C95.6306 291.24 88.5546 262.871 77.9661 252.165V252.155Z" fill="#FFFCF5"/>
<path d="M91.033 356.224C91.0075 352.88 92.6569 308.17 92.6009 297.822C89.4702 299.237 86.0747 299.914 82.8727 301.074C77.0745 303.177 71.5308 305.864 66.71 310.278C68.227 325.442 70.1919 340.352 71.2406 356.016C72.2486 371.027 84.741 407.231 87.5968 423.668C87.9786 425.862 95.7469 423.138 95.4771 421.005C94.0008 409.369 94.851 399.686 94.6932 390.788C94.4641 377.645 93.5019 367.332 91.0279 356.224H91.033Z" fill="#E8BAA3"/>
<path d="M99.4633 436.954C99.0968 431.655 97.3354 426.478 95.6504 421.474C95.6148 421.301 95.5537 421.143 95.4773 421.005C94.8003 419.366 92.0361 419.514 92.0259 421.438C91.919 421.463 91.8171 421.494 91.7204 421.535C90.9161 420.954 89.6944 420.949 89.1293 421.626C88.0297 421.061 86.864 419.499 87.1236 421.158C87.6174 424.314 87.2611 430.214 88.213 433.273C89.2515 436.602 91.4252 438.659 89.9794 442.345C89.9438 442.436 89.9234 442.523 89.9031 442.614C89.5671 443.322 89.4704 444.075 89.9438 444.941C90.7634 446.437 92.4688 446.376 93.833 445.643C97.2336 443.821 99.7433 440.97 99.4684 436.959L99.4633 436.954Z" fill="#E8BAA3"/>
<path d="M87.8925 436.205C90.5803 431.624 94.4645 427.771 98.2061 424.044C98.313 423.902 98.4351 423.79 98.5675 423.698C99.9012 422.533 102.314 423.897 101.464 425.622C101.546 425.689 101.627 425.765 101.693 425.846C102.676 425.683 103.77 426.223 103.974 427.083C105.211 427.068 106.952 426.193 105.979 427.562C104.132 430.168 101.825 435.61 99.6111 437.921C97.1981 440.441 94.3372 441.311 93.9859 445.251C93.9757 445.353 93.9554 445.434 93.935 445.526C93.9198 446.305 93.6703 447.028 92.866 447.588C91.4661 448.56 89.9643 447.746 89.0684 446.488C86.8336 443.342 85.8562 439.672 87.8925 436.2V436.205Z" fill="#E8BAA3"/>
<path d="M48.6752 159.153C41.7418 155.488 32.2834 156.709 25.4671 160.049C9.53848 167.852 8.69343 190.006 13.1935 205.023C15.4182 212.445 19.3227 221.913 27.203 224.662C33.7851 226.957 41.4873 227.563 47.4077 223.766C54.9265 218.94 57.6653 211.264 58.8412 204.702C60.3328 196.379 60.2411 187.669 59.5183 179.27C58.826 171.237 56.2705 163.169 48.6803 159.153H48.6752Z" fill="#E8BAA3"/>
<path d="M59.7004 165.098C54.3552 159.041 45.6044 156.195 37.77 155.732C37.2965 155.706 36.9351 155.839 36.6755 156.063C32.4757 156.353 28.4745 157.809 24.2645 159.198C22.6355 159.733 20.9963 160.227 19.2808 160.385C17.3158 160.563 15.3712 160.293 13.4164 160.69C9.91913 161.408 7.2669 163.871 5.46991 166.865C3.82055 169.619 2.95515 173.014 3.82565 176.155C3.78492 176.394 3.7951 176.654 3.87146 176.934C5.27139 182.289 7.75051 181.525 8.26976 187.038C8.98245 194.623 11.6907 204.468 13.9967 209.884C15.7174 213.931 20.5178 219.032 24.6361 221.327C28.5152 223.491 35.7744 224.402 41.6999 218.375C43.8634 216.176 46.0168 213.544 46.3426 210.627C46.7651 206.86 46.9331 202.859 48.4145 199.316C49.6108 196.445 51.4689 194.888 53.9836 193.177C56.6817 191.334 58.7026 189.085 59.4917 185.842C59.96 183.902 59.9397 181.912 59.7055 179.942C61.3599 178.517 62.5613 176.73 62.877 174.343C63.33 170.917 61.9403 167.633 59.7004 165.098Z" fill="#010F4B"/>
<path d="M671.464 458.159C670.125 456.01 667.939 455.04 665.701 454.107C663.1 453.023 660.442 452.1 657.719 451.374C652.724 450.036 647.555 449.282 642.4 448.891C641.288 448.806 640.171 448.749 639.059 448.702C638.597 448.311 638.056 447.986 637.467 447.746C632.439 445.706 627.034 446.186 621.818 447.11C616.885 447.981 612.097 449.023 607.084 449.315C596.802 449.918 586.487 449.117 576.253 450.563C571.334 451.261 566.315 452.467 561.867 454.748C557.216 457.127 553.913 463.271 557.829 467.851C560.934 471.484 566.933 471.658 571.352 471.894C576.856 472.186 582.346 471.583 587.788 470.81C598.234 469.321 608.606 466.777 619.236 467.38C629.88 467.988 640.185 471.239 650.849 471.757C655.806 471.998 661.404 471.828 666.083 470.019C670.62 468.266 674.475 462.989 671.473 458.164L671.464 458.159Z" fill="#8E8E8E"/>
<path d="M633.292 427.329C632.26 427.334 631.105 427.254 629.941 427.216C630.384 436.805 630.804 444.966 630.992 449.305C632.005 450.149 633.452 450.375 634.517 449.494C634.649 450.549 635.228 451.275 635.987 451.647C635.681 453.065 635.346 454.479 634.979 455.888C635.44 455.925 635.94 455.935 636.477 455.921C639.314 455.831 638.338 454.733 638.838 451.614C639.078 450.106 639.879 439.976 640.817 427.287C638.31 427.301 635.803 427.315 633.296 427.329H633.292Z" fill="#010F4B"/>
<path d="M593.163 426.693C591.759 426.632 590.152 426.396 588.564 426.345C588.8 435.971 589.036 444.226 589.21 448.575C589.337 448.495 589.46 448.41 589.573 448.311C590.534 449.371 592.108 449.781 593.3 448.891C593.38 449.951 593.922 450.705 594.662 451.115C594.252 452.665 593.804 454.206 593.314 455.737C593.314 455.751 593.309 455.761 593.305 455.775C595.901 455.765 597.461 454.832 597.696 451.784C597.927 448.796 598.926 438.972 600.066 426.99C597.762 426.891 595.463 426.792 593.159 426.693H593.163Z" fill="#010F4B"/>
<path d="M630.129 451.501C630.209 450.285 630.388 448.905 631.557 448.212C632.768 447.496 634.638 447.826 635.972 447.812C637.461 447.798 641.584 447.374 642.234 447.967C644.298 449.852 647.408 451.595 649.458 453.457C650.805 454.682 651.451 456.727 650.179 458.258C648.982 459.7 646.904 459.62 645.203 459.676C642.899 459.752 635.652 459.86 635.501 459.822C633.182 459.775 630.718 459.506 630.204 457.061C629.846 455.351 630.011 453.221 630.124 451.496L630.129 451.501Z" fill="#AF4C46"/>
<path d="M598.729 451.61C598.71 450.389 598.597 449.004 597.462 448.255C596.284 447.477 594.404 447.718 593.075 447.642C591.59 447.557 587.491 446.931 586.812 447.491C584.659 449.272 581.469 450.86 579.33 452.623C577.921 453.782 577.181 455.794 578.373 457.382C579.499 458.88 581.577 458.903 583.274 459.04C585.573 459.229 592.801 459.69 592.957 459.657C595.275 459.723 597.749 459.573 598.385 457.16C598.828 455.469 598.767 453.334 598.734 451.605L598.729 451.61Z" fill="#AF4C46"/>
<path d="M598.469 241.207C596.198 231.459 594.214 221.644 592.523 211.782C590.822 198.24 589.879 184.571 587.208 171.175C586.831 169.276 584.743 168.758 583.207 169.352C583.245 168.951 583.283 168.556 583.32 168.155C583.542 165.95 581.153 164.927 579.386 165.502C578.081 163.778 574.377 164.39 574.061 167.293C572.454 182.074 569.632 197.406 571.705 212.263C573.265 223.439 578.443 233.452 585.921 241.674C586.506 242.677 587.132 243.653 587.816 244.595C588.452 245.476 589.314 245.881 590.167 245.929C590.233 245.99 590.299 246.051 590.365 246.112C592 247.597 594.615 246.621 595.27 244.92C597.018 244.977 598.955 243.276 598.469 241.207Z" fill="#E8BAA3"/>
<path d="M671.4 162.802C671.028 159.141 665.255 159.099 665.628 162.802C665.83 164.852 666.009 166.906 666.165 168.956C665.906 168.867 665.632 168.824 665.359 168.81C665.378 168.631 665.392 168.457 665.411 168.278C665.731 165.069 656.034 163.636 655.6 166.869C651.831 194.876 649.371 223.335 649.296 251.701C649.074 252.068 648.928 252.502 648.881 253.006C648.749 254.462 648.933 255.79 649.442 257.157C650.257 259.324 653.089 259.767 654.432 258.391C654.498 258.782 654.564 259.174 654.639 259.565C654.733 260.059 654.931 260.446 655.19 260.757C654.144 266.722 653.051 272.678 651.958 278.624C651.284 282.28 656.312 283.717 657.546 280.165C670.613 242.635 675.396 202.344 671.4 162.802Z" fill="#E8BAA3"/>
<path d="M631.486 111.024C631.312 109.469 630.304 108.136 628.598 108.136C625.172 108.131 621.742 108.112 618.316 108.126C617.803 108.126 617.365 108.244 616.992 108.433C616.012 108.786 615.235 109.644 615.225 111.01C615.155 118.869 615.305 126.743 615.386 134.602C615.414 137.316 618.5 138.046 620.145 136.784C621.332 138.885 624.8 138.235 625.375 135.959C625.399 135.87 625.422 135.785 625.441 135.709C625.846 135.469 626.195 135.149 626.449 134.753C627.599 137.425 631.736 137.26 631.972 133.811C632.5 126.206 632.335 118.601 631.486 111.024Z" fill="#E8BAA3"/>
<path d="M659.908 259.829C659.036 244.864 653.693 228.386 649.16 214.1C648.1 210.76 597.413 209.172 596.466 212.154C591.933 226.44 583.965 248.011 583.098 262.976C582.66 270.524 579.898 309.746 579.762 347.12C579.62 385.875 582.108 422.721 582.485 424.719C583.343 429.29 584.346 429.252 588.436 429.676C592.866 430.133 597.319 430.138 601.757 429.817C604.481 429.624 606.262 427.796 606.493 425.082C607.572 412.539 609.348 381.493 613.052 350.475C615.94 326.275 618.372 314.665 621.901 298.409C623.253 328.343 625.091 405.707 626.754 425.082C626.99 427.796 628.766 429.624 631.49 429.817C635.929 430.133 635.293 430.496 639.722 430.039C643.817 429.615 645.942 429.944 646.799 425.374C647.534 421.454 660.803 275.208 659.908 259.833V259.829Z" fill="#FFFCF5"/>
<path d="M624.08 116.678C633.653 115.643 640.348 104.947 639.033 92.7869C637.719 80.6271 628.893 71.6085 619.32 72.6433C609.747 73.6782 603.052 84.3746 604.367 96.5344C605.681 108.694 614.507 117.713 624.08 116.678Z" fill="#E8BAA3"/>
<path d="M647.908 82.97C647.032 79.78 644.092 77.4995 642.753 74.4556C641.467 71.5296 640.558 68.401 638.71 65.7576C636.675 62.8457 633.89 60.6924 630.521 59.5286C627.147 58.3648 623.298 58.492 619.98 59.7736C619.156 60.094 618.256 60.5039 617.403 61.0081C615.231 60.9421 613.049 61.2767 611.555 61.7761C606.4 63.5054 603.512 67.1194 601.255 71.8548C599.983 74.5169 597.782 75.7326 595.991 77.9754C594.149 80.2842 593.112 83.2291 593.39 86.1928C593.631 88.7514 594.724 91.1779 596.613 92.9543C597.429 93.7223 598.451 94.2171 599.295 94.9333C600.308 95.7956 600.981 96.9829 602.009 97.8452C602.555 98.3069 603.111 98.6651 603.667 98.9431C603.795 99.0373 603.931 99.1268 604.077 99.2116C605.628 100.097 606.245 101.973 606.966 103.514C607.889 105.488 608.893 107.486 610.514 108.993C614.321 112.532 621.012 112.965 625.964 112.607C631.958 112.169 635.186 107.471 637.386 102.336C638.319 100.159 638.955 97.9347 639.332 95.6778C641.542 95.0228 643.639 93.9674 645.222 92.2664C647.508 89.8162 648.822 86.3059 647.904 82.9747L647.908 82.97Z" fill="#E5B200"/>
<path d="M631.999 211.24C631.075 211.179 630.133 211.122 629.181 211.07C630.175 242.315 630.736 273.563 630.632 304.826C630.524 336.876 629.794 368.926 628.441 400.948C628.078 409.547 627.664 418.141 627.211 426.736C627.701 428.022 628.634 428.983 629.911 429.478C631.174 406.074 632.098 382.656 632.691 359.229C633.502 327.189 633.69 295.129 633.257 263.084C633.021 245.801 632.63 228.514 631.999 211.24ZM649.254 214.133C649.235 214.067 649.188 214.006 649.132 213.94C647.638 273.86 646.262 333.785 644.834 393.71C644.552 405.645 644.269 417.576 643.986 429.511C645.47 429.054 646.399 428.05 646.893 425.402C646.893 425.383 646.903 425.35 646.908 425.322C648.236 370.651 649.532 315.979 650.837 261.308C651.148 248.242 651.464 235.171 651.77 222.106C650.927 219.392 650.074 216.725 649.254 214.128V214.133ZM595.231 216.301C594.59 218.265 593.907 220.32 593.205 222.449C589.737 280.923 587.56 339.477 586.58 398.045C586.406 408.506 586.264 418.966 586.17 429.426C586.82 429.535 587.593 429.61 588.531 429.704C588.696 429.723 588.865 429.732 589.03 429.751C589.596 375.923 591.037 322.119 593.596 268.343C594.374 251.997 595.259 235.661 596.216 219.326C596.249 219.179 596.268 219.029 596.268 218.887C596.268 218.831 596.254 218.774 596.249 218.713C596.268 218.355 596.291 217.992 596.31 217.634C596.357 216.833 595.834 216.39 595.226 216.301H595.231ZM603.689 385.653C602.954 400.392 602.228 415.126 601.531 429.864C601.635 429.855 601.743 429.85 601.847 429.845C602.836 429.775 603.694 429.487 604.405 429.021C607.242 371.117 610.182 313.223 613.401 255.343C614.23 240.435 615.083 225.531 615.931 210.627C614.974 210.618 614.032 210.609 613.108 210.609C609.687 268.941 606.596 327.292 603.684 385.653H603.689Z" fill="#010F4B"/>
<path d="M671.524 157.389C668.861 147.937 661.765 137.693 653.373 132.576C653.02 132.35 652.492 132.072 651.874 131.775C650.084 130.804 647.916 129.848 645.287 128.981C645.268 128.971 645.245 128.962 645.226 128.957C645.141 128.924 645.075 128.905 645.009 128.891C638.855 126.903 630.218 125.423 617.986 125.423C607.426 125.423 601.635 126.757 597.785 128.491C596.028 129.216 591.99 131.021 590.444 132.025C582.052 137.142 574.956 147.385 572.294 156.837C570.856 161.945 568.171 171.053 573.787 173.07C577.382 174.361 582.429 175.228 587.485 176.217C587.683 179.445 587.933 182.828 588.22 186.272C587.782 184.562 587.9 185.174 588.258 186.701C588.371 188.03 588.484 189.363 588.606 190.701C588.833 200.365 587.457 220.593 588.055 224.419C588.682 228.434 590.472 232.538 594.793 233.574C599.058 234.597 604.156 233.904 608.477 233.574C613.396 233.197 618.311 232.519 623.145 231.543C628.004 230.568 632.857 228.924 637.842 228.787C639.93 228.73 642.012 228.909 644.001 229.583C645.985 230.252 647.45 231.76 649.372 232.505C649.519 232.561 649.66 232.599 649.806 232.646C650.037 233.028 650.178 233.207 650.221 233.103C650.315 233.079 650.404 232.98 650.494 232.816C653.797 233.409 656.243 230.738 656.681 227.411C657.378 222.12 656.596 216.315 656.483 210.986C656.356 204.992 655.305 196.911 655.173 190.918C655.686 185.933 656.243 181.065 656.86 176.665C661.218 175.826 665.506 175.147 670.03 173.64C677.117 171.284 672.965 162.51 671.524 157.407V157.389Z" fill="#8E8E8E"/>
<path d="M1879.92 183.137C1875.03 166.996 1864.1 152.246 1851.03 141.789C1849.23 140.348 1849.06 138.319 1846.94 139.561C1845.07 140.655 1843.87 143.21 1844.59 145.331C1847.86 154.914 1852.32 163.874 1857.78 172.389C1860.34 176.39 1863.26 180.75 1864.98 185.37C1863.85 184.818 1862.58 184.65 1861.08 185.181C1859.12 185.882 1857.11 187.798 1857.33 190.108C1857.53 192.209 1858.25 193.839 1860.14 194.938C1860.45 195.117 1860.76 195.255 1861.07 195.357C1861.29 195.669 1861.49 195.955 1861.54 196.022C1861.58 196.057 1861.61 196.093 1861.64 196.129C1858.16 196.369 1856.15 196.298 1858.62 199.998C1863.2 206.842 1874.48 214.406 1880.28 207.363C1884.52 202.211 1881.29 187.65 1879.92 183.132L1879.92 183.137Z" fill="#E8BAA3"/>
<path d="M1913.28 431.361C1906.39 425.969 1897.7 426.353 1889.48 427.487C1874.3 429.583 1859.86 435.818 1844.55 437.055C1829.02 438.307 1813.86 434.377 1798.61 432.159C1795.59 431.719 1792.55 431.32 1789.51 431.019C1788.75 430.186 1787.71 429.532 1786.32 429.174C1778.47 427.155 1770.36 426.986 1762.41 428.622C1755.28 430.094 1746.03 433.212 1743.85 441.077C1741.38 449.981 1748.61 457.192 1756.44 459.671C1763.52 461.91 1771.47 462.436 1778.86 462.492C1794.15 462.61 1809.29 459.635 1824.31 457.167C1838.48 454.841 1853.23 452.72 1867.57 454.862C1875.65 456.068 1883.45 458.194 1891.7 458.081C1895.94 458.025 1900.17 457.529 1904.34 456.804C1908.02 456.165 1912.4 455.572 1915.51 453.385C1923.42 447.803 1919.7 436.375 1913.28 431.356V431.361Z" fill="#8E8E8E"/>
<path d="M1869.86 357.355C1871.07 365.732 1878.03 433.084 1878.1 437.178C1878.15 440.26 1875.93 441.41 1873.23 441.972C1870.05 442.636 1868.03 442.181 1867.35 438.839C1865.66 430.615 1848.68 372.672 1848.96 362.404C1848.96 362.149 1842.17 320.551 1843.03 320.157C1847.66 318.046 1869.65 355.821 1869.87 357.35L1869.86 357.355Z" fill="#E8BAA3"/>
<path d="M1867.15 437.924C1868.39 439.61 1870.45 440.07 1872.42 439.672C1875.09 439.13 1877.35 437.086 1877.97 434.505C1879.5 434.617 1889.84 436.089 1893.15 436.447C1895.76 436.733 1898.44 437.811 1898.57 441.491C1898.62 442.963 1895.7 444.129 1892.74 444.568C1887.75 445.309 1877.15 447.578 1872.15 448.176C1867.64 448.718 1867.25 444.783 1867.04 443.398C1866.79 441.823 1866.45 439.493 1867.12 437.878C1867.13 437.893 1867.14 437.909 1867.15 437.919V437.924Z" fill="#010F4B"/>
<path d="M1814.12 361.832C1812.05 370.04 1792.9 434.985 1791.4 438.798C1790.27 441.665 1787.79 441.89 1785.07 441.384C1781.88 440.791 1780.18 439.6 1780.82 436.247C1782.39 427.998 1788.7 367.95 1792.86 358.561C1792.96 358.326 1802.48 317.269 1803.43 317.233C1808.51 317.039 1814.49 360.334 1814.11 361.832H1814.12Z" fill="#E8BAA3"/>
<path d="M1780.99 435.322C1781.5 437.357 1783.24 438.568 1785.2 438.946C1787.89 439.462 1790.74 438.43 1792.3 436.278C1793.67 436.963 1802.68 442.253 1805.6 443.842C1807.92 445.1 1809.98 447.118 1808.7 450.568C1808.19 451.948 1805.05 451.918 1802.14 451.197C1797.24 449.986 1786.57 448.059 1781.72 446.71C1777.34 445.493 1778.49 441.711 1778.82 440.346C1779.19 438.798 1779.75 436.508 1780.99 435.271C1780.99 435.287 1780.99 435.302 1781 435.322H1780.99Z" fill="#010F4B"/>
<path d="M1889.49 367.735C1889.34 360.447 1888.54 353.179 1887.32 345.993C1882.44 317.136 1870.25 290.247 1861.67 262.434C1857.63 249.344 1854.03 235.673 1853.03 221.898C1854.75 216.813 1856.09 211.605 1857.03 206.32C1858.35 207.143 1849.14 121.161 1823.71 127.238C1823.11 127.381 1821.01 132.968 1820.58 133.239C1819.51 133.826 1818.2 134.368 1817.83 135.6C1813.58 149.946 1817.46 159.683 1815 174.443C1812.75 187.977 1802.05 201.424 1804.94 214.973C1790.52 261.447 1776.68 308.299 1769.33 356.486C1768.38 362.701 1767.54 368.936 1766.8 375.182C1766.47 378.044 1765.91 380.962 1766.47 383.829C1767.08 386.937 1769.07 389.15 1771.68 390.811C1776.53 393.903 1782.23 396.116 1787.62 398.074C1793.44 400.189 1799.63 402.05 1805.81 402.786C1811.83 403.501 1816.03 400.011 1817.15 394.184C1818.26 388.434 1827.15 348.599 1828.82 336.134C1829.08 341.97 1829.34 347.807 1829.6 353.649C1830.18 366.84 1830.76 380.032 1831.34 393.218C1831.46 395.768 1833.37 397.757 1835.96 397.833C1836.42 397.849 1836.86 397.818 1837.28 397.762C1837.63 397.864 1838 397.941 1838.4 397.966C1852.8 399.009 1867.72 394.92 1879.58 386.656C1882.53 384.596 1885.93 382.311 1887.81 379.153C1889.83 375.754 1889.57 371.537 1889.49 367.73L1889.49 367.735Z" fill="#FFEDB2"/>
<path d="M1823.12 94.3187C1823.45 101.781 1820.83 108.542 1825.23 113.383C1829.63 118.218 1841.05 121.126 1845.73 120.916C1855.09 120.497 1857.67 107.725 1857.01 92.8007C1856.34 77.8766 1853.25 70.4402 1843.9 70.8593C1834.54 71.2784 1822.45 79.3946 1823.12 94.3187Z" fill="#E8BAA3"/>
<path d="M1869.03 325.784C1865.17 312.255 1860.14 299.155 1855.41 285.918C1850.52 272.216 1846.64 258.355 1844.76 243.901C1842.68 227.965 1842.43 211.87 1842.16 195.822C1842.13 194.186 1839.59 194.181 1839.62 195.822C1839.84 210.235 1840.08 224.684 1841.62 239.03C1843.12 252.947 1846.11 266.471 1850.56 279.744C1855.03 293.058 1860.34 306.076 1864.49 319.502C1868.68 333.077 1872.01 346.923 1874.45 360.922C1876.08 370.285 1877.27 379.709 1878.09 389.17C1878.38 388.976 1878.67 388.781 1878.96 388.582C1879.47 388.224 1880 387.856 1880.53 387.483C1878.63 366.62 1874.78 345.931 1869.03 325.784ZM1842.11 318.127C1840.1 306.204 1836.75 294.591 1835.11 282.591C1833.22 268.73 1832.62 254.731 1832 240.768C1831.93 239.137 1829.39 239.127 1829.46 240.768C1829.99 252.886 1830.52 265.019 1831.87 277.081C1833.18 288.79 1835.8 300.127 1838.26 311.631C1840.77 323.402 1841.79 335.402 1842.84 347.372C1843.88 359.148 1844.71 370.959 1844.65 382.786C1844.62 388.551 1844.36 394.306 1843.82 400.031C1844.68 400.01 1845.55 399.969 1846.41 399.913C1847.84 384.412 1847.15 368.685 1845.91 353.184C1844.97 341.49 1844.06 329.709 1842.11 318.133L1842.11 318.127ZM1792.85 277.889C1790.25 313.804 1782.73 349.059 1773.28 383.742C1772.47 386.691 1771.65 389.635 1770.82 392.579C1770.9 392.63 1770.97 392.681 1771.05 392.732C1771.72 393.156 1772.41 393.565 1773.1 393.959C1781.09 365.695 1788.03 337.104 1792.17 308.018C1793.6 298.016 1794.71 287.968 1795.39 277.889C1795.5 276.258 1792.97 276.269 1792.85 277.889ZM1816.66 260.205C1814.67 303.295 1808.17 346.13 1797.15 387.841C1795.89 392.604 1794.57 397.347 1793.2 402.07C1794.01 402.32 1794.84 402.555 1795.66 402.785C1805.69 368.281 1812.63 332.878 1816.42 297.152C1817.72 284.865 1818.64 272.548 1819.2 260.205C1819.27 258.569 1816.73 258.574 1816.65 260.205H1816.66Z" fill="#FFD74D"/>
<path d="M1879.71 189.117C1877.52 185.186 1874.55 181.553 1872.07 177.791C1869.55 173.973 1867.09 170.109 1864.78 166.163C1860.06 158.119 1855.89 149.716 1853.05 140.813C1851.79 136.862 1848.38 127.76 1837.49 126.676C1837.41 126.385 1837.33 126.093 1837.2 125.797C1835.5 121.575 1828.42 125.061 1824.38 127.034C1821.05 128.654 1818.09 126.502 1812.79 136.402C1803.22 154.27 1804.95 167.676 1805.29 190.747C1805.32 192.608 1805.63 197.049 1794.81 211.211C1789.41 218.28 1782.6 224.183 1775.7 229.795C1775.28 230.132 1774.87 230.464 1774.45 230.792C1774.35 230.878 1773.78 231.323 1773.58 231.482C1772.8 232.085 1772.01 232.678 1771.21 233.265C1769.38 234.609 1767.53 235.913 1765.66 237.18C1761.89 239.726 1758.03 242.117 1754.08 244.371C1750.23 246.564 1746.3 248.624 1742.31 250.551C1740.37 251.486 1738.42 252.396 1736.45 253.275C1734.04 254.348 1733.24 254.69 1730.78 255.682C1722.26 259.101 1713.54 261.999 1704.69 264.422C1695.03 267.064 1683.36 267.856 1677.14 276.739C1673.64 281.738 1673.66 288.106 1676.49 293.391C1679.05 298.175 1683.75 301.221 1688.49 303.516C1697.09 307.676 1703.78 312.005 1710.24 318.532C1717.11 325.472 1721.52 333.195 1725.99 342.39C1728.04 346.611 1730.21 350.695 1733.09 354.421C1735.52 357.569 1738.28 360.038 1741.5 361.985C1744.01 364.806 1746.91 367.285 1750.1 369.319C1750.82 369.774 1751.68 369.881 1752.51 369.728C1753.9 370.842 1756.69 370.198 1756.86 367.796C1757.37 360.615 1761.25 354.334 1765.07 348.436C1768.83 342.609 1772.9 336.972 1777.12 331.462C1785.8 320.131 1795.18 309.352 1804.19 298.282C1821.19 277.414 1837.47 254.885 1844.37 228.461C1847.03 218.27 1848.21 207.7 1847.48 197.233C1847.51 197.248 1847.53 197.269 1847.56 197.284C1847.63 197.32 1847.69 197.35 1847.76 197.381C1849.26 199.773 1851.15 201.863 1853.38 203.576C1853.81 203.954 1854.24 204.327 1854.68 204.695C1855.47 205.508 1856.26 206.315 1857.07 207.107C1857.71 207.731 1858.42 207.935 1859.09 207.854C1860.68 208.605 1862.38 208.748 1864.54 207.664C1868.46 205.702 1871.45 202.088 1874.48 199.027C1877.02 196.461 1881.99 193.216 1879.7 189.117H1879.71Z" fill="#FFFCF5"/>
<path d="M1857.91 116.056C1857.82 113.383 1857.04 110.812 1855.56 108.578C1854.13 106.432 1852.3 104.684 1851.05 102.409C1850.75 101.873 1849.76 99.9509 1849.92 97.7379C1850.14 94.4975 1851.8 93.1993 1853.77 89.9794C1863.42 74.253 1846.95 71.0995 1841.59 69.8474C1835.12 68.3345 1822.25 71.0842 1817.22 78.9346C1813.95 84.0354 1812.47 91.1856 1810.58 99.0412C1809.86 102.031 1805.25 102.128 1804.25 105.21C1803.73 106.83 1803.92 108.374 1803.86 110.03C1803.82 111.21 1803.42 111.89 1802.94 112.994C1801.54 116.219 1801.7 119.562 1803.56 122.577C1805.25 125.296 1808.05 127.08 1810.96 128.23C1813.3 129.16 1815.97 129.549 1817.94 131.164C1820.35 133.131 1822.39 134.435 1825.5 135.043C1828.73 135.671 1832.06 135.968 1835.11 134.465C1836.32 133.867 1837.35 133.096 1838.26 132.206C1839.63 132.354 1841 132.242 1842.32 131.91C1845.28 132.002 1848.21 131.532 1850.93 129.988C1855.78 127.238 1858.09 121.478 1857.91 116.056Z" fill="#AF4C46"/>
<path d="M1656.58 441.338C1653.41 431.305 1639.96 433.273 1631.84 433.406C1615.41 433.677 1598.99 433.947 1582.56 434.29C1576.64 432.731 1570.4 432.174 1564.35 432.711C1556.03 433.447 1542.48 435.496 1542.59 446.469C1542.69 456.487 1556.66 459.257 1564.37 459.916C1572.66 460.622 1580.97 458.925 1589.1 457.509C1593.05 456.819 1596.96 456.216 1600.98 456.103C1605.18 455.986 1608.76 456.589 1612.8 457.667C1621.44 459.978 1630.09 460.535 1638.87 458.572C1646.92 456.768 1659.96 452.015 1656.58 441.333L1656.58 441.338Z" fill="#8E8E8E"/>
<path d="M1639.52 436.166C1637.18 427.119 1634.34 391.685 1625.22 365.91C1623.92 362.251 1618.47 351.727 1616.43 347.158C1612.8 338.991 1612.05 329.658 1610.02 320.959C1609.27 317.744 1604.71 318.394 1604.94 321.705C1605.04 323.147 1605.15 324.588 1605.27 326.024C1604.84 324.89 1604.42 323.755 1603.99 322.62C1603.28 320.77 1601.27 320.765 1600.05 321.772C1599.91 321.465 1599.77 321.159 1599.62 320.857C1598.57 318.67 1595.81 319.078 1594.96 320.872C1593.43 319.477 1590.86 320.494 1590.7 322.743C1590.14 322.794 1589.61 323.004 1589.2 323.341C1588.25 323.709 1587.57 324.608 1587.78 325.978C1588.9 333.18 1594.28 342.154 1597.68 348.599C1612.31 376.367 1629.2 435.276 1630.93 438.951C1632.39 442.053 1632.18 442.927 1635.16 442.166C1638.66 441.277 1640.46 439.835 1639.51 436.155L1639.52 436.166Z" fill="#E8BAA3"/>
<path d="M1638.32 430.83C1637.87 429.583 1636.37 431.402 1634.94 431.034C1633.46 430.651 1634.64 433.176 1633.25 433.559C1631.69 433.993 1629.35 433.048 1628.85 433.86C1627.26 436.447 1622.47 440.939 1620.89 443.5C1619.85 445.181 1619.79 447.507 1621.58 448.718C1623.26 449.863 1625.4 449.152 1627.19 448.703C1629.61 448.089 1636.26 442.064 1636.41 441.982C1638.81 441.236 1641.74 441.312 1641.54 438.614C1641.4 436.723 1638.96 432.593 1638.32 430.83Z" fill="#E8BAA3"/>
<path d="M1640.9 438.614C1638.42 439.697 1630.72 444.67 1629.03 445.488C1627.59 443.72 1624.74 438.532 1623.97 439.12C1622.2 440.474 1620.69 442.043 1619.29 443.776C1618.29 445.028 1616.88 446.475 1616.26 447.972C1614.96 451.166 1618.71 451.182 1620.9 451.049C1622.8 450.931 1624.66 450.829 1626.42 450.252C1629.52 449.234 1633.21 445.422 1635.08 443.945C1635.68 443.469 1636.24 443.101 1636.82 442.795C1637.03 443.684 1637.37 445.238 1637.58 446.127C1637.75 446.832 1638.36 446.469 1638.87 446.275C1639.3 446.112 1639.68 446.234 1639.57 445.647C1639.51 445.299 1639.43 444.865 1639.35 444.41C1639.09 443.014 1639.7 441.609 1640.87 440.806C1640.87 440.806 1640.88 440.796 1640.88 440.796C1641.88 440.106 1642.28 440.127 1642.17 439.212C1642.09 438.624 1641.64 438.292 1640.89 438.619L1640.9 438.614Z" fill="#010F4B"/>
<path d="M1556.93 321.404C1557.43 325.917 1563.5 353.153 1568.19 380.645C1573.24 410.166 1576.93 439.983 1577.49 442.278C1578.29 445.611 1577.92 446.423 1580.99 446.275C1584.59 446.106 1586.65 445.054 1586.46 441.261C1585.98 431.929 1587.27 379.352 1583.5 352.274C1580.21 328.697 1556.74 319.697 1556.93 321.404Z" fill="#E8BAA3"/>
<path d="M1586.34 435.792C1586.15 434.484 1584.32 435.966 1582.99 435.317C1581.62 434.648 1582.27 437.351 1580.83 437.453C1579.22 437.566 1577.11 436.171 1576.45 436.871C1574.38 439.084 1568.79 442.529 1566.73 444.721C1565.37 446.163 1564.85 448.427 1566.36 449.975C1567.78 451.432 1570.02 451.166 1571.86 451.084C1574.36 450.967 1582.08 446.398 1582.24 446.347C1584.74 446.096 1587.59 446.761 1587.94 444.072C1588.18 442.191 1586.61 437.653 1586.34 435.803V435.792Z" fill="#E8BAA3"/>
<path d="M1587.32 443.939C1584.68 444.507 1576.13 447.834 1574.31 448.294C1573.26 446.275 1571.5 440.617 1570.63 441.041C1568.62 442.018 1566.83 443.249 1565.12 444.67C1563.88 445.692 1562.2 446.827 1561.3 448.171C1559.39 451.039 1563.06 451.805 1565.23 452.112C1567.12 452.378 1568.96 452.654 1570.8 452.434C1574.03 452.056 1578.42 449.061 1580.55 447.992C1581.24 447.645 1581.85 447.4 1582.48 447.216C1582.51 448.13 1582.53 449.72 1582.56 450.635C1582.59 451.36 1583.26 451.125 1583.8 451.039C1584.25 450.967 1584.6 451.161 1584.61 450.563C1584.62 450.205 1584.63 449.771 1584.64 449.306C1584.66 447.885 1585.54 446.633 1586.85 446.081C1586.85 446.081 1586.86 446.076 1586.87 446.071C1587.99 445.595 1588.37 445.692 1588.44 444.778C1588.49 444.19 1588.11 443.771 1587.31 443.939H1587.32Z" fill="#010F4B"/>
<path d="M1642.87 211.845C1640.23 211.13 1637.24 211.109 1634.52 210.828C1631.69 210.537 1628.87 210.261 1626.04 209.969C1614.11 208.738 1602.22 207.123 1590.79 203.33C1587.39 202.201 1583.53 204.639 1582.61 207.976C1581.61 211.61 1583.83 215.014 1587.25 216.164C1587.3 216.179 1587.35 216.2 1587.41 216.215C1587.19 217.968 1587.28 219.834 1587.33 221.648C1587.45 225.716 1587.6 229.785 1587.78 233.848C1588.13 241.376 1588.39 248.971 1589.15 256.474C1589.43 259.27 1590.43 261.984 1592.99 263.481C1593.97 264.054 1595.06 264.396 1596.17 264.509C1596.19 264.616 1596.22 264.728 1596.24 264.836C1593.56 264.657 1590.74 266.686 1589.8 269.027C1588.62 271.95 1589.52 275.834 1592.53 277.373C1597.68 280 1602.93 282.484 1608.38 284.411C1613.53 286.23 1619.26 287.84 1624.72 286.414C1636.07 283.445 1636.42 269.231 1638.55 259.929C1641.07 248.956 1644.45 238.32 1647.74 227.572C1648.48 225.164 1649.27 222.532 1649.18 219.997C1649.05 216.205 1646.58 212.847 1642.87 211.84L1642.87 211.845Z" fill="#E5B200"/>
<path d="M1562.13 138.999C1557.7 134.256 1547.4 124.325 1546.97 123.809C1548.59 117.119 1559.82 91.7682 1561.17 84.9552C1561.48 83.3555 1559.48 79.3076 1558.26 80.386C1552.78 85.2363 1535.73 111.624 1532.14 118.483C1531.78 119.168 1527.99 124.913 1536.53 136.407C1540.31 141.488 1544.53 146.256 1548.56 151.147C1550.18 153.12 1552.61 151.444 1552.77 149.399C1552.97 149.563 1553.17 149.721 1553.38 149.88C1555.38 151.403 1557.47 148.893 1557.15 146.977C1557.01 146.103 1556.72 145.362 1556.3 144.621C1556.9 144.902 1557.5 145.178 1558.09 145.459C1560.27 146.481 1562.1 144.764 1561.83 142.857C1562.83 141.932 1563.23 140.184 1562.12 138.999H1562.13Z" fill="#E8BAA3"/>
<path d="M1564.5 180.203C1564.62 179.759 1564.74 179.314 1564.86 178.869C1565.28 177.387 1565.73 175.915 1566.24 174.459C1566.44 173.891 1566.65 173.324 1566.86 172.757C1566.91 172.629 1566.96 172.506 1567.01 172.378C1567.43 172.087 1567.77 171.642 1568 171.003C1568.02 170.942 1568.04 170.881 1568.06 170.82C1568.48 169.629 1568.46 167.962 1567.27 167.145C1567.21 167.099 1567.14 167.053 1567.07 167.007C1565.9 166.204 1564.55 166.031 1563.32 166.843C1561.85 167.814 1561.4 169.823 1560.84 171.382C1560.09 173.472 1559.4 175.598 1558.8 177.735C1557.54 182.232 1556.64 186.827 1556.04 191.463C1554.85 200.611 1554.74 209.898 1555.25 219.103C1555.5 223.692 1555.81 228.303 1556.82 232.8C1557.5 235.816 1558.78 242.782 1563.05 242.48C1565.28 242.322 1566.29 240.584 1566.77 238.448C1567.4 237.727 1567.69 236.705 1567.22 235.514C1567.19 235.453 1567.17 235.386 1567.15 235.325C1567.23 233.802 1567.21 232.35 1567.29 231.333C1567.7 226.366 1568.06 221.393 1568.37 216.414C1569.08 205.027 1569.55 193.625 1569.77 182.212C1569.82 179.508 1566.21 178.726 1564.51 180.198L1564.5 180.203ZM1563.01 186.786C1563.09 186.393 1563.17 185.999 1563.25 185.606C1562.92 188.11 1562.49 190.604 1562.03 193.088C1562.29 190.977 1562.63 188.871 1563.01 186.786Z" fill="#010F4B"/>
<path d="M1611.46 138.61C1605 137.966 1589.44 124.902 1588.79 124.79C1585.59 118.698 1577.31 92.2332 1573.83 86.2278C1573.01 84.8172 1568.84 83.0948 1568.64 84.7099C1567.72 91.9674 1572.31 123.052 1574.13 130.576C1574.32 131.327 1580.08 144.784 1594.08 147.789C1600.27 149.118 1604.87 153.156 1611.12 154.178C1613.64 154.592 1611.25 141.845 1610.03 140.21C1610.28 140.2 1610.54 140.189 1610.8 140.169C1613.31 139.995 1613.07 138.774 1611.46 138.615V138.61Z" fill="#E8BAA3"/>
<path d="M1611.48 138.62C1605.02 137.977 1589.47 124.913 1588.81 124.8C1587.45 122.209 1585.17 115.938 1582.73 109.12C1579.4 113.582 1576.31 118.248 1573.87 123.272C1573.61 123.804 1573.33 124.397 1573.04 125.025C1573.46 127.392 1573.85 129.324 1574.15 130.586C1574.34 131.337 1580.1 144.795 1594.1 147.8C1598.23 148.684 1601.66 150.774 1605.33 152.374C1606.13 151.802 1606.9 151.153 1607.64 150.488C1609.07 149.21 1610.45 147.876 1611.78 146.502C1611.31 143.645 1610.58 140.92 1610.05 140.22C1610.3 140.21 1610.57 140.2 1610.82 140.179C1613.33 140.006 1613.1 138.784 1611.48 138.626V138.62Z" fill="#FFFCF5"/>
<path d="M1626.86 155.701C1625.95 147.948 1624.12 143.486 1616.31 141.396C1614.08 140.798 1595 142.581 1583.1 143C1582.72 142.893 1582.29 142.837 1581.82 142.857C1574.46 143.149 1568.12 139.321 1562.25 135.298C1558.94 133.024 1555.76 131.445 1552.26 134.353C1550.86 135.513 1549.58 136.878 1548.26 138.135C1546.97 139.377 1545.31 140.598 1544.34 142.132C1542.32 145.29 1544.14 148.95 1545.51 151.996C1546.77 154.802 1548.38 157.393 1550.25 159.826C1553.88 164.533 1558.45 168.433 1563.7 171.187C1563.56 172.45 1563.38 173.533 1563.13 174.331C1560.32 183.173 1557.97 193.206 1557.71 201.792C1561 203.939 1565.93 208.697 1569.77 209.969C1578.21 212.77 1587.45 213.823 1596.21 215.08C1598.3 215.382 1602.05 208.339 1604.18 208.646C1605.9 205.339 1616.33 185.912 1620.7 178.644C1624.77 171.883 1627.8 163.715 1626.86 155.706V155.701Z" fill="#FFFCF5"/>
<path d="M1574.87 69.0857C1574.8 68.8506 1574.61 68.7433 1574.42 68.7331C1574.16 68.5082 1573.69 68.6513 1573.6 69.004C1573.57 69.0449 1573.55 69.0908 1573.53 69.1419C1572.89 72.0296 1572.22 74.9122 1571.54 77.7897C1571.35 78.4184 1571.19 79.0521 1571.07 79.6859C1571.03 79.783 1570.99 79.875 1570.96 79.9568C1570.85 78.2906 1570.69 76.6244 1569.89 75.1065C1569.42 74.2069 1568.19 74.35 1567.68 75.1065C1566.54 76.8289 1566.42 78.9295 1566.49 80.9432C1566.56 83.4271 1568.34 86.7748 1568.64 89.2332C1568.84 90.8329 1570.84 89.6523 1570.65 88.0219C1570.64 87.8788 1570.62 87.7306 1570.59 87.5824C1570.95 87.7408 1571.37 87.7357 1571.71 87.5824C1571.83 87.613 1571.95 87.6028 1572.07 87.5159C1572.4 87.2655 1572.71 86.9026 1572.97 86.4681C1572.96 86.6368 1572.94 86.8055 1572.93 86.9741C1572.89 87.4852 1573.65 87.6692 1573.89 87.2348C1576.85 81.7712 1576.75 74.9531 1574.88 69.0908L1574.87 69.0857Z" fill="#E8BAA3"/>
<path d="M1616.92 185.289C1616.92 185.289 1616.95 185.294 1616.96 185.299C1617.07 185.007 1617.05 185.023 1616.92 185.289Z" fill="#010F4B"/>
<path d="M1637.01 372.892C1636.43 368.905 1635.85 364.924 1635.25 360.942C1634.15 353.644 1633.01 346.35 1631.84 339.062C1627.13 309.879 1618.2 283.47 1612.68 254.435C1609.51 237.819 1607.24 234.037 1609.3 211.462C1611.44 198.603 1616.16 186.945 1616.92 185.289C1616.67 185.202 1616.39 185.176 1616.1 185.237C1617.96 181.578 1619.49 177.755 1620.79 174.055C1623.9 165.151 1625.06 155.502 1622.67 146.287C1622.43 145.367 1622.4 142.883 1618.74 142.116C1618.22 142.009 1620.05 146.297 1620.22 146.961C1622.4 155.803 1621.3 164.85 1618.31 173.37C1616.81 177.658 1614.95 182.135 1612.61 186.306C1610.51 186.689 1608.32 186.684 1606.22 186.658C1602.92 186.623 1599.63 186.321 1596.39 185.718C1594.23 185.319 1592.06 184.614 1590.02 184.445C1592.45 179.385 1594.75 173.692 1594.84 167.84C1594.93 162.703 1595 156.55 1593.41 151.679C1592.33 148.382 1589.34 143.736 1585.55 142.586C1583.97 142.111 1583.3 144.559 1584.87 145.05C1586.86 145.679 1588.12 146.987 1589.09 148.484C1590.6 150.784 1591.44 153.815 1591.97 155.895C1593.1 160.347 1592.53 165.749 1592.1 170.334C1591.63 175.276 1589.32 180.387 1587.07 184.701C1585.87 185.074 1584.75 185.851 1583.78 187.256C1580.65 191.759 1577.24 195.873 1572.7 199.022C1570.49 200.555 1568.04 202.027 1565.46 202.829C1563.3 203.504 1560.08 203.407 1558.88 201.541C1558.72 200.637 1558.56 199.727 1558.4 198.822C1558.06 196.962 1555.57 197.672 1555.38 199.231C1555.2 200.637 1555.46 201.833 1556.01 202.819C1556.01 202.84 1556.02 202.86 1556.02 202.881C1556.12 203.422 1556.43 203.739 1556.8 203.887C1558.27 205.462 1560.64 206.264 1562.98 206.3C1562.14 206.806 1561.37 207.429 1560.67 208.181C1560.49 208.375 1560.37 208.6 1560.31 208.835C1557.78 209.842 1555.35 212.172 1555.58 214.656C1556.22 221.592 1547.49 248.813 1546.46 256.73C1544.41 272.523 1543.67 288.566 1543.74 304.461C1543.81 320.745 1544.23 337.023 1544.98 353.291C1545.37 361.607 1545.75 369.938 1546.51 378.233C1546.85 382.03 1547.3 385.823 1547.88 389.589C1548.5 393.632 1548.9 398.406 1551.77 401.58C1555.15 405.321 1560.17 405.53 1564.86 406.062C1569.08 406.542 1573.32 406.823 1577.57 406.91C1586.95 407.105 1616 404.355 1625.75 398.748C1632.04 395.135 1637.73 391.097 1638.15 383.431C1638.33 379.93 1637.51 376.347 1637.01 372.892Z" fill="#010F4B"/>
<path d="M1618.84 141.186C1618.44 139.28 1615.42 139.689 1615.82 141.62C1622.06 171.954 1622.96 203.054 1618.27 233.674C1617.97 235.626 1621 236.005 1621.3 234.063C1626.08 203.305 1625.32 171.647 1618.84 141.191V141.186Z" fill="#E5B200"/>
<path d="M1573.8 60.5931L1567.84 59.1657C1566.83 58.9244 1565.82 59.5454 1565.58 60.5528L1561.69 76.7861C1561.45 77.7935 1562.07 78.8059 1563.08 79.0472L1569.04 80.4746C1570.05 80.716 1571.06 80.0949 1571.3 79.0874L1575.19 62.8542C1575.43 61.8467 1574.81 60.8345 1573.8 60.5931Z" fill="#010F4B"/>
<path d="M1572.83 61.5951L1568.34 60.5188C1567.33 60.2775 1566.32 60.8986 1566.08 61.906L1562.92 75.1024C1562.68 76.1098 1563.3 77.1221 1564.3 77.3634L1568.8 78.4396C1569.81 78.6809 1570.82 78.0599 1571.06 77.0524L1574.22 63.8561C1574.46 62.8486 1573.84 61.8364 1572.83 61.5951Z" fill="#FFFCF5"/>
<path d="M1568.59 74.0536C1568.48 73.3841 1567.62 72.9701 1567.02 73.1592C1565.16 73.7316 1564.09 75.3671 1562.87 76.7828C1562.54 77.161 1562.23 77.5699 1561.9 77.9634C1562.3 76.3688 1562.75 74.7845 1563.25 73.2205C1564.04 70.8081 1565.55 68.273 1565.4 65.7022C1565.35 64.8334 1564.31 63.9697 1563.47 64.5932C1560.97 66.4587 1558.83 68.7637 1557.9 71.8048C1556.74 75.6124 1556.77 79.6501 1555.45 83.4373C1554.9 84.9911 1557.35 85.6401 1557.9 84.1119C1558.03 83.7491 1558.15 83.3811 1558.26 83.0131C1558.42 83.4322 1558.77 83.7388 1559.19 83.8308C1559.25 84.0455 1559.31 84.2602 1559.41 84.485C1559.7 85.1597 1560.6 85.2057 1561.17 84.945C1563.16 84.02 1564.42 81.7354 1565.7 80.0488C1567.05 78.2599 1568.98 76.4404 1568.59 74.0434V74.0536Z" fill="#E8BAA3"/>
<path d="M1614.73 111.049C1618.37 97.6732 1614.52 84.9801 1606.14 82.6985C1597.75 80.4168 1588 89.4106 1584.36 102.787C1580.72 116.163 1584.57 128.856 1592.96 131.138C1601.34 133.419 1611.09 124.425 1614.73 111.049Z" fill="#E8BAA3"/>
<path d="M1633.16 99.3732C1632.16 97.1959 1630.55 95.4531 1628.18 94.8347C1627.25 94.5945 1626.03 94.7223 1624.85 94.7376C1624.12 92.3457 1622.94 90.1581 1620.97 88.3028C1617.74 85.2823 1613.5 83.0794 1609.13 82.369C1604.91 81.6842 1599.82 82.1033 1595.66 84.2397C1592.44 85.8905 1589.51 88.8702 1588.53 92.6881C1587.75 95.7445 1588.59 98.6986 1590.5 101.126C1591.36 102.215 1592.58 103.196 1593.2 104.448C1594.13 106.319 1593.31 108.041 1592.51 109.774C1589.64 116.015 1587.79 123.277 1591.68 129.569C1593.02 131.741 1595 133.448 1597.25 134.475C1598.09 135.216 1599.01 135.866 1600.02 136.372C1601.84 137.302 1603.78 137.69 1605.75 138.15C1606.69 138.37 1607.72 138.564 1608.56 139.07C1609.44 139.602 1610.02 140.511 1610.84 141.14C1614.38 143.869 1619.04 142.234 1622.31 139.883C1626.16 137.107 1627.86 133.622 1627.08 128.894C1626.26 123.85 1625.94 119.137 1626.09 114.026C1626.14 112.304 1626.05 110.28 1625.56 108.415C1625.58 108.343 1625.59 108.271 1625.61 108.195C1626.27 108.353 1626.93 108.45 1627.54 108.471C1629.78 108.542 1632.17 107.638 1633.38 105.655C1634.64 103.59 1634.09 101.428 1633.15 99.3783L1633.16 99.3732Z" fill="#3E1E0F"/>
<g clip-path="url(#clip0_1386_6)">
<path d="M1357.66 343.897L1329.91 345.128C1329.91 345.128 1326.91 394.877 1326.98 408.749C1327.05 422.621 1333.61 465.728 1333.61 465.728C1333.84 470.604 1334.53 488.646 1336.62 490.581C1339.01 492.799 1342.1 492.304 1343.33 492.045C1343.33 492.045 1344.69 495.435 1347.3 494.885C1347.3 494.885 1349.03 497.712 1351.69 497.481C1354.36 497.231 1364.57 494.768 1364.57 494.768C1364.57 494.768 1363.92 490.901 1360.64 491.278C1360.64 491.278 1359.83 488.884 1354.57 489.834C1354.57 489.834 1355.25 486.174 1350.76 486.164L1348.88 485.658L1350.35 478.085L1352 479.106C1353.66 480.127 1356.31 486.608 1358.02 486.404C1359.73 486.2 1361.6 484.367 1361.6 484.367L1352.59 460.449L1348.44 457.215L1354.53 400.312L1357.68 343.893L1357.66 343.897Z" fill="#DBB9A3"/>
<path d="M1342.51 485.246C1342.56 485.149 1343.91 485.801 1346.26 485.53C1347.43 485.441 1348.84 485.143 1350.52 485.276C1351.35 485.344 1352.23 485.591 1353.03 486.081C1353.83 486.572 1354.57 487.353 1354.79 488.432C1354.91 488.963 1354.87 489.526 1354.59 490.035C1354.32 490.56 1353.71 490.879 1353.26 490.957C1352.36 491.13 1351.58 491.224 1350.79 491.339C1349.32 491.544 1347.92 491.735 1346.63 491.902C1344.26 492.193 1342.78 492.331 1342.77 492.195C1342.75 492.079 1344.2 491.737 1346.54 491.28C1347.83 491.044 1349.2 490.79 1350.67 490.532C1351.46 490.4 1352.26 490.249 1353.08 490.111C1353.46 490.03 1353.69 489.878 1353.84 489.603C1353.99 489.329 1354.04 488.956 1353.96 488.591C1353.6 487.054 1351.88 486.22 1350.46 486.085C1348.97 485.914 1347.56 486.142 1346.33 486.158C1343.85 486.28 1342.44 485.347 1342.54 485.256L1342.51 485.246Z" fill="#FFDFD2"/>
<path d="M1360.19 490.815C1360.19 490.815 1360.53 490.675 1360.79 491.105C1360.91 491.307 1360.98 491.585 1360.9 491.932C1360.8 492.283 1360.51 492.569 1360.15 492.749C1359.42 493.092 1358.66 493.167 1357.78 493.386C1356.84 493.585 1355.9 493.765 1354.92 493.955C1350.85 494.706 1347.52 495.13 1347.47 494.898C1347.42 494.665 1350.69 493.839 1354.75 493.088C1355.74 492.915 1356.68 492.752 1357.62 492.589C1358.48 492.423 1359.34 492.381 1359.87 492.183C1360.44 491.994 1360.54 491.557 1360.46 491.245C1360.4 490.946 1360.16 490.892 1360.18 490.818L1360.19 490.815Z" fill="#FFDFD2"/>
<path d="M1341.17 479.337C1341.41 479.321 1341.74 480.536 1341.89 482.081C1342.04 483.627 1341.98 484.889 1341.72 484.908C1341.48 484.924 1341.16 483.71 1341 482.164C1340.85 480.618 1340.92 479.356 1341.17 479.337Z" fill="#FFDFD2"/>
<path d="M1347.77 470.164C1347.99 470.238 1347.48 472.097 1345.95 473.876C1344.43 475.653 1342.67 476.44 1342.55 476.238C1342.42 476.023 1343.87 474.956 1345.27 473.291C1346.7 471.656 1347.52 470.06 1347.75 470.151L1347.77 470.164Z" fill="#FFDFD2"/>
<path d="M1350.26 477.459C1350.13 477.643 1349.29 477.282 1348.6 476.421C1347.92 475.576 1347.73 474.68 1347.95 474.581C1348.18 474.482 1348.69 475.119 1349.3 475.858C1349.89 476.617 1350.41 477.254 1350.26 477.442L1350.26 477.459Z" fill="#FFDFD2"/>
<path d="M1444.24 346.258L1472.01 345.348C1472.01 345.348 1478.83 394.718 1479.83 408.555C1480.83 422.391 1477.61 465.875 1477.61 465.875C1477.76 470.754 1478.46 488.795 1476.52 490.886C1474.31 493.281 1471.19 493.026 1469.94 492.863C1469.94 492.863 1468.85 496.347 1466.2 496C1466.2 496 1464.7 498.951 1462.03 498.926C1459.35 498.882 1448.97 497.214 1448.97 497.214C1448.97 497.214 1449.33 493.308 1452.62 493.432C1452.62 493.432 1453.25 490.982 1458.56 491.524C1458.56 491.524 1457.61 487.926 1462.08 487.571L1463.91 486.922L1461.87 479.485L1460.3 480.63C1458.73 481.776 1456.58 488.442 1454.86 488.37C1453.14 488.298 1451.13 486.615 1451.13 486.615L1458.28 462.074L1462.17 458.529L1451.71 402.265L1444.23 346.256L1444.24 346.258Z" fill="#DBB9A3"/>
<path d="M1470.24 486.02C1470.19 485.927 1468.89 486.681 1466.52 486.592C1465.35 486.594 1463.92 486.406 1462.26 486.667C1461.43 486.798 1460.57 487.113 1459.81 487.664C1459.05 488.215 1458.38 489.05 1458.24 490.143C1458.17 490.682 1458.25 491.24 1458.56 491.726C1458.87 492.229 1459.5 492.5 1459.96 492.543C1460.87 492.645 1461.66 492.68 1462.46 492.733C1463.93 492.824 1465.35 492.907 1466.64 492.974C1469.03 493.081 1470.51 493.105 1470.51 492.969C1470.53 492.851 1469.05 492.623 1466.69 492.347C1465.39 492.21 1464 492.063 1462.51 491.919C1461.71 491.849 1460.9 491.759 1460.07 491.685C1459.69 491.634 1459.45 491.5 1459.27 491.238C1459.1 490.976 1459.03 490.607 1459.08 490.237C1459.32 488.677 1460.97 487.713 1462.37 487.469C1463.85 487.184 1465.28 487.302 1466.5 487.224C1468.98 487.155 1470.32 486.115 1470.21 486.033L1470.24 486.02Z" fill="#FFDFD2"/>
<path d="M1453.04 492.935C1453.04 492.935 1452.69 492.821 1452.46 493.27C1452.36 493.48 1452.31 493.764 1452.42 494.103C1452.55 494.445 1452.86 494.708 1453.23 494.86C1453.98 495.146 1454.75 495.162 1455.64 495.312C1456.6 495.438 1457.54 495.545 1458.54 495.659C1462.65 496.095 1466 496.261 1466.03 496.026C1466.06 495.79 1462.75 495.218 1458.64 494.782C1457.64 494.685 1456.69 494.595 1455.74 494.505C1454.87 494.407 1454.01 494.431 1453.46 494.274C1452.88 494.129 1452.75 493.701 1452.81 493.384C1452.85 493.081 1453.08 493.009 1453.05 492.937L1453.04 492.935Z" fill="#FFDFD2"/>
<path d="M1471.11 480.026C1470.87 480.029 1470.64 481.265 1470.61 482.818C1470.58 484.37 1470.74 485.624 1471 485.623C1471.24 485.62 1471.47 484.384 1471.5 482.832C1471.53 481.279 1471.37 480.026 1471.11 480.026Z" fill="#FFDFD2"/>
<path d="M1463.83 471.388C1463.61 471.479 1464.27 473.293 1465.94 474.949C1467.59 476.603 1469.4 477.252 1469.5 477.042C1469.62 476.818 1468.1 475.866 1466.57 474.314C1465.02 472.793 1464.07 471.265 1463.85 471.374L1463.83 471.388Z" fill="#FFDFD2"/>
<path d="M1461.91 478.853C1462.06 479.027 1462.87 478.602 1463.49 477.691C1464.1 476.796 1464.22 475.888 1463.99 475.806C1463.76 475.725 1463.3 476.4 1462.75 477.183C1462.21 477.986 1461.75 478.661 1461.91 478.836L1461.91 478.853Z" fill="#FFDFD2"/>
<path d="M1380 293.864L1417.98 293.372L1413.73 261.087C1413.73 261.087 1416.33 260.527 1416.5 246.497C1416.67 232.449 1417.32 208.596 1417.32 208.596C1401.04 201.606 1382.24 203.964 1368.19 214.754L1366.1 216.349L1379.98 293.847L1380 293.864Z" fill="#DBB9A3"/>
<path d="M1370.53 233.637C1370.3 233.535 1360.87 230.787 1361.17 240.389C1361.48 249.992 1371.08 247.701 1371.08 247.43C1371.08 247.158 1370.53 233.654 1370.53 233.654L1370.53 233.637Z" fill="#DBB9A3"/>
<path d="M1415.7 231.635C1415.94 231.533 1424.52 229.226 1424.22 238.828C1423.91 248.431 1414.31 246.14 1414.31 245.869C1414.31 245.598 1415.7 231.635 1415.7 231.635Z" fill="#DBB9A3"/>
<path d="M1426.5 203.896C1426.65 202.149 1426 200.283 1424.57 199.265C1423.15 198.247 1420.96 198.315 1419.8 199.621C1420.46 197.28 1418.54 194.565 1416.11 194.413C1413.82 194.26 1411.86 195.99 1409.64 196.601C1407.48 197.195 1405.15 196.686 1403.08 195.838C1401 195.006 1399.05 193.853 1396.94 193.072C1392.54 191.478 1387.53 191.664 1383.26 193.615C1379.01 195.566 1375.58 199.231 1373.93 203.608C1370.86 202.641 1367.36 204.202 1365.47 206.814C1363.57 209.41 1363.09 212.837 1363.47 216.027C1363.72 218.181 1364.35 220.268 1365.08 222.321C1365.08 222.508 1365.06 222.677 1365.08 222.864C1365.23 230.583 1369.26 254.996 1372.56 255.047C1378.3 255.132 1373.78 228.988 1373.78 228.988C1380.83 226.274 1378.22 215.704 1379.98 214.11C1381.75 212.515 1385.44 208.782 1400.22 216.332C1405.97 219.267 1413.6 219.165 1417.76 218.232C1417.88 218.198 1418 218.181 1418.13 218.164C1418.17 218.164 1418.2 218.164 1418.22 218.147C1418.27 218.147 1418.3 218.113 1418.34 218.097C1419.66 217.757 1420.94 217.231 1422.13 216.485C1423.47 215.637 1424.68 214.5 1425.25 213.024C1425.82 211.548 1425.61 209.699 1424.46 208.63C1425.54 207.256 1426.39 205.644 1426.55 203.913L1426.5 203.896Z" fill="#333333"/>
<path d="M1367.41 232.568C1368.85 240.61 1368.56 244.834 1369.89 250.212C1372 258.712 1376.23 265.244 1383.89 269.485C1391.56 273.726 1401.94 273.659 1408.53 267.873C1413.1 263.869 1416.35 259.323 1417.03 253.283C1417.71 247.243 1418.39 236.538 1418.42 230.464C1418.51 219.505 1419.24 209.02 1419.24 209.02L1387.87 203.354L1370.03 213.957L1367.41 232.568Z" fill="#333333"/>
<path d="M1456.9 451.932L1408.33 451.932L1350.41 459.736C1350.41 459.736 1355.05 542.46 1356.5 567.772C1357.93 593.102 1358.76 636.092 1358.76 636.092L1369.6 736.24L1407.17 732.236L1407.17 713.082C1429.49 707.738 1438.78 720.648 1438.78 720.648C1438.78 720.648 1452.68 654.72 1454.6 642.302C1456.52 629.883 1454.6 583.041 1454.6 583.041L1456.9 451.915L1456.9 451.932ZM1407.17 635.651L1407.17 534.452L1408.33 501.793L1408.33 509.207L1410.57 592.033L1407.17 635.668L1407.17 635.651Z" fill="#000C3D"/>
<path d="M1436.41 409.544C1436.41 409.544 1435.87 410.291 1434.79 411.546C1434.25 412.191 1433.59 412.937 1432.72 413.752C1431.87 414.566 1430.93 415.55 1429.77 416.466C1428.63 417.433 1427.38 418.451 1425.93 419.435C1424.53 420.487 1422.91 421.403 1421.24 422.421C1417.82 424.321 1413.87 426.086 1409.56 427.426C1405.24 428.715 1400.99 429.428 1397.1 429.75C1395.15 429.835 1393.3 429.971 1391.56 429.869C1389.83 429.869 1388.23 429.699 1386.76 429.53C1385.29 429.428 1383.99 429.105 1382.84 428.902C1381.69 428.715 1380.7 428.461 1379.92 428.223C1378.34 427.782 1377.47 427.494 1377.48 427.443C1377.53 427.256 1381.02 428.359 1386.83 428.902C1388.28 429.038 1389.86 429.156 1391.58 429.122C1393.3 429.19 1395.12 429.038 1397.04 428.936C1400.87 428.562 1405.04 427.85 1409.31 426.578C1413.57 425.254 1417.46 423.524 1420.86 421.708C1422.53 420.724 1424.13 419.842 1425.53 418.824C1426.98 417.891 1428.25 416.907 1429.38 415.974C1433.94 412.276 1436.26 409.408 1436.41 409.544Z" fill="#142286"/>
<path d="M1355.6 418.943L1357 363.5L1347.64 323.97L1350.44 296.893L1380.37 281.523L1417.86 278.231L1449.85 286.697L1449.94 393.444L1459.96 456.047L1351.68 461.628L1355.6 418.943Z" fill="#6D6E71"/>
<path d="M1353.7 296.935C1353.7 296.935 1343.08 294.848 1337.94 314.002C1332.8 333.173 1324.83 365.323 1324.83 365.323L1360.41 363.966L1356.11 298.326" fill="#6D6E71"/>
<path d="M1449.23 287.163C1449.23 287.163 1469.14 288.062 1473 322.468C1473.12 323.503 1479.84 359.826 1479.84 359.826L1444.67 359.826L1449.23 287.163Z" fill="#6D6E71"/>
<path d="M1414.04 409.501C1414.09 409.603 1412.61 410.417 1410.14 411.537C1407.65 412.657 1404.15 414.031 1400.18 415.253C1396.21 416.474 1392.54 417.288 1389.87 417.763C1387.2 418.238 1385.51 418.374 1385.5 418.272C1385.48 418.137 1387.12 417.78 1389.74 417.153C1392.37 416.525 1395.97 415.609 1399.91 414.404C1403.85 413.2 1407.35 411.927 1409.89 410.96C1412.42 409.993 1413.97 409.383 1414.02 409.501L1414.04 409.501Z" fill="#8A8A8A" stroke="#8A8A8A"/>
<path d="M1355.12 352.073C1355.17 352.311 1348.73 353.804 1340.74 355.398C1332.75 356.993 1326.24 358.096 1326.19 357.841C1326.14 357.604 1332.58 356.111 1340.57 354.516C1348.56 352.921 1355.07 351.819 1355.12 352.073Z" fill="#8A8A8A" stroke="#8A8A8A"/>
<path d="M1475.63 344.218C1475.63 344.456 1469.57 344.574 1462.12 344.456C1454.66 344.337 1448.6 344.048 1448.62 343.811C1448.62 343.573 1454.67 343.455 1462.13 343.573C1469.59 343.692 1475.64 343.98 1475.63 344.218Z" fill="#8A8A8A" stroke="#8A8A8A"/>
<path d="M1353.06 321.457C1353.06 321.457 1353.26 322.138 1353.42 323.381C1353.57 324.812 1353.79 326.566 1354.04 328.643C1354.55 333.292 1355.2 339.32 1355.94 345.996C1356.65 352.773 1357.21 358.921 1357.5 363.382C1357.65 365.613 1357.72 367.418 1357.74 368.661C1357.74 369.905 1357.74 370.603 1357.63 370.603C1357.54 370.603 1357.43 369.922 1357.27 368.678C1357.12 367.248 1356.89 365.494 1356.65 363.416C1356.14 358.768 1355.49 352.739 1354.75 346.064C1354.04 339.286 1353.48 333.139 1353.19 328.677C1353.04 326.447 1352.97 324.641 1352.95 323.398C1352.95 322.155 1352.95 321.457 1353.06 321.457Z" fill="#8A8A8A" stroke="#8A8A8A"/>
<path d="M1452.2 319.839C1452.2 319.839 1452.28 320.5 1452.26 321.688C1452.26 322.875 1452.2 324.606 1452.1 326.727C1451.9 330.968 1451.5 336.838 1451.01 343.302C1450.56 349.664 1450.16 355.415 1449.84 359.86C1449.71 361.828 1449.61 363.508 1449.51 364.882C1449.43 366.07 1449.34 366.731 1449.29 366.714C1449.23 366.714 1449.19 366.053 1449.18 364.865C1449.16 363.677 1449.18 361.947 1449.23 359.826C1449.34 355.568 1449.66 349.698 1450.14 343.234C1450.66 336.872 1451.11 331.138 1451.48 326.676C1451.65 324.708 1451.8 323.045 1451.93 321.671C1452.05 320.483 1452.15 319.839 1452.2 319.839Z" fill="#8A8A8A" stroke="#8A8A8A"/>
<path d="M1449.64 287.74C1449.86 287.655 1450.98 290.013 1451.54 293.186C1452.11 296.341 1451.88 298.971 1451.66 298.954C1451.41 298.954 1451.26 296.409 1450.69 293.339C1450.16 290.268 1449.43 287.825 1449.66 287.74L1449.64 287.74Z" fill="#8A8A8A" stroke="#8A8A8A"/>
<path d="M1455.7 449.726C1455.7 449.964 1432.69 451.762 1404.27 453.73C1375.84 455.698 1352.78 457.106 1352.77 456.852C1352.77 456.614 1375.77 454.816 1404.2 452.848C1432.61 450.88 1455.66 449.472 1455.68 449.726L1455.7 449.726Z" fill="#8A8A8A" stroke="#8A8A8A"/>
<g opacity="0.3">
<path d="M1352.9 324.945C1351.02 338.331 1348.33 351.598 1344.88 364.661L1356.37 363.966L1352.9 324.928L1352.9 324.945Z" fill="black"/>
</g>
<path d="M1407.91 201.942C1407.91 201.942 1407.4 202.162 1406.42 202.213C1405.43 202.264 1403.99 202.044 1402.41 201.28C1400.79 200.551 1399.15 199.261 1397.33 197.87C1395.53 196.496 1393.33 195.122 1390.7 194.816C1388.1 194.477 1385.55 194.986 1383.56 196.055C1381.56 197.124 1380.13 198.684 1379.21 200.126C1377.38 203.095 1377.46 205.386 1377.34 205.335C1377.34 205.335 1377.33 204.792 1377.5 203.825C1377.68 202.875 1378.09 201.484 1378.99 199.991C1379.89 198.498 1381.34 196.886 1383.41 195.766C1385.45 194.647 1388.08 194.104 1390.75 194.46C1393.45 194.782 1395.73 196.207 1397.53 197.599C1399.35 199.007 1400.96 200.296 1402.53 201.043C1404.07 201.823 1405.47 202.061 1406.44 202.061C1407.4 202.061 1407.91 201.891 1407.93 201.925L1407.91 201.942Z" fill="#6D6E71"/>
<path d="M1377.78 205.895C1377.78 205.895 1376.99 205.386 1375.52 205.046C1374.11 204.707 1371.9 204.724 1369.98 205.912C1368.06 207.116 1367.06 209.067 1366.74 210.492C1366.4 211.934 1366.57 212.885 1366.5 212.885C1366.48 212.885 1366.42 212.664 1366.38 212.24C1366.35 211.816 1366.35 211.188 1366.5 210.441C1366.77 208.965 1367.78 206.896 1369.8 205.623C1371.84 204.368 1374.13 204.402 1375.59 204.809C1376.32 205.013 1376.9 205.284 1377.26 205.505C1377.61 205.725 1377.8 205.878 1377.78 205.895Z" fill="#6D6E71"/>
<path d="M1376.85 240.131C1376.63 240.233 1375.46 238.027 1374.22 235.211C1372.99 232.395 1372.18 230.037 1372.4 229.935C1372.62 229.833 1373.79 232.039 1375.03 234.855C1376.26 237.671 1377.07 240.029 1376.85 240.131Z" fill="#6D6E71"/>
<path d="M1385.07 245.645C1384.96 245.832 1382.56 244.169 1380.64 241.217C1378.7 238.265 1378.14 235.415 1378.36 235.381C1378.62 235.296 1379.52 237.926 1381.37 240.742C1383.2 243.575 1385.24 245.458 1385.07 245.645Z" fill="#6D6E71"/>
<path d="M1393.18 247.409C1393.06 247.613 1391.28 246.714 1389.43 245.102C1387.57 243.49 1386.43 241.845 1386.62 241.709C1386.81 241.539 1388.2 242.896 1390 244.44C1391.79 246.001 1393.32 247.206 1393.18 247.409Z" fill="#6D6E71"/>
<path d="M1407.51 234.397C1407.73 234.397 1407.71 236.653 1406.66 239.181C1405.62 241.709 1404.04 243.321 1403.87 243.168C1403.67 243.015 1404.87 241.251 1405.84 238.859C1406.84 236.467 1407.25 234.38 1407.51 234.414L1407.51 234.397Z" fill="#6D6E71"/>
<path d="M1412.37 226.813C1412.59 226.796 1412.83 229.528 1411.81 232.7C1410.82 235.873 1409.07 237.993 1408.88 237.841C1408.66 237.705 1410.02 235.466 1410.96 232.429C1411.93 229.409 1412.1 226.796 1412.35 226.813L1412.37 226.813Z" fill="#6D6E71"/>
<path d="M1416.09 207.405C1416.09 207.405 1415.71 207.846 1414.83 208.372C1413.96 208.915 1412.54 209.474 1410.7 209.644C1408.87 209.814 1406.64 209.525 1404.36 208.677C1402.07 207.846 1399.76 206.522 1397.33 205.182C1394.9 203.842 1392.52 202.671 1390.19 202.111C1387.88 201.518 1385.67 201.619 1383.94 202.145C1382.2 202.654 1380.98 203.52 1380.27 204.232C1379.55 204.945 1379.28 205.454 1379.25 205.42C1379.25 205.42 1379.47 204.894 1380.16 204.13C1380.84 203.367 1382.08 202.451 1383.85 201.891C1385.6 201.314 1387.88 201.195 1390.24 201.789C1392.62 202.349 1395.03 203.52 1397.48 204.86C1399.91 206.217 1402.2 207.523 1404.45 208.355C1406.67 209.22 1408.85 209.525 1410.65 209.39C1414.32 209.135 1416.04 207.286 1416.05 207.388L1416.09 207.405Z" fill="#6D6E71"/>
<path d="M1418.89 211.968C1418.89 211.968 1418.72 212.104 1418.38 212.308C1418.04 212.511 1417.53 212.766 1416.89 213.037C1415.59 213.597 1413.71 214.157 1411.55 214.36C1409.39 214.547 1407.44 214.343 1406.06 214.021C1405.38 213.868 1404.82 213.716 1404.46 213.563C1404.09 213.427 1403.89 213.343 1403.9 213.326C1403.92 213.275 1404.75 213.529 1406.11 213.784C1407.47 214.038 1409.41 214.208 1411.52 214.021C1413.62 213.818 1415.49 213.309 1416.78 212.817C1418.09 212.325 1418.86 211.917 1418.87 211.968L1418.89 211.968Z" fill="#6D6E71"/>
</g>
<defs>
<clipPath id="clip0_1386_6">
<rect width="181" height="584.241" fill="white" transform="translate(1305 192)"/>
</clipPath>
</defs>
</svg>
