<?xml version="1.0" encoding="UTF-8"?>
<svg xmlns="http://www.w3.org/2000/svg" width="1920" height="513" xmlns:xlink="http://www.w3.org/1999/xlink" version="1.1" viewBox="0 0 1920 513">
  <defs>
    <style>
      .cls-1 {
        fill: none;
      }

      .cls-2 {
        fill: #8a8a8a;
        stroke: #8a8a8a;
      }

      .cls-3 {
        fill: #142286;
      }

      .cls-4 {
        fill: #e5b200;
      }

      .cls-5 {
        fill: #010f4b;
      }

      .cls-6 {
        fill: #fffcf5;
      }

      .cls-7 {
        fill: #6d6e71;
      }

      .cls-8 {
        fill: #ede6df;
      }

      .cls-9 {
        fill: #8e8e8e;
      }

      .cls-10 {
        fill: #ffc3a4;
      }

      .cls-11 {
        fill: #3e1e0f;
      }

      .cls-12 {
        fill: #000c3d;
      }

      .cls-13 {
        fill: #e8baa3;
      }

      .cls-14 {
        fill: #ffd74d;
      }

      .cls-15 {
        fill: #b85b2d;
      }

      .cls-16 {
        fill: #8f4723;
      }

      .cls-17 {
        opacity: .3;
      }

      .cls-18 {
        fill: #79070c;
      }

      .cls-19 {
        fill: #76605a;
      }

      .cls-20 {
        fill: #e5eaff;
      }

      .cls-21 {
        fill: #af4c46;
      }

      .cls-22 {
        fill: #333;
      }

      .cls-23 {
        fill: #ffedb2;
      }

      .cls-24 {
        clip-path: url(#clippath);
      }

      .cls-25 {
        fill: #ffdfd2;
      }
    </style>
    <clipPath id="clippath">
      <rect class="cls-1" x="1305" y="192" width="181" height="584.2"/>
    </clipPath>
  </defs>
  <!-- Generator: Adobe Illustrator 28.7.1, SVG Export Plug-In . SVG Version: 1.2.0 Build 142)  -->
  <g>
    <g id="Layer_1">
      <path class="cls-8" d="M2098,260.5H-179v305.5h2277v-305.5Z"/>
      <path class="cls-20" d="M2098,333.2v-86.4c-2.7,0-5.4,0-8.1.1-31.6.9-63.3,3.4-94.8,5.5-85.2-1-170.5-1.8-255.8-2.5-25.6-3.8-51.2-8.1-77.1-9.2-27.8-1.2-55.5,2.5-83.2,5.1-11.8,1.1-23.7,2-35.6,2.7-70.3-.4-140.7-.8-211-1.1-6.4-.2-12.8-.5-19.2-.7-2.2,0-4.3.1-6.5.6-48.8-.2-97.7-.3-146.5-.4-29.4,0-58.9,0-88.3-.1-54.6-11-110-2.6-165.2,0-.6,0-1.1,0-1.7,0-12.2,0-24.4,0-36.5,0-16-.6-32-2-48-3.8-29.5-3.4-58.8-6.4-88.6-6.8-59.3-.7-118.8,3.8-178,8-17.5,1.2-35,2.6-52.5,4-77.8.5-155.7,1-233.5,1.7-149,1.3-298,2.9-447,5v75.6c140.2.4,280.4.6,420.6,4.3,77.8,2.1,155.5,5.1,233.2,9.7,79.1,4.6,622.1-12,700.8-10.2,134.7,3.2,705,7.5,922.4-1.1h0Z"/>
      <path class="cls-19" d="M254.2,206.4c-40.7,21.9-87.1,30.1-132.8,32.8-24.3,1.4-48.6,1.3-72.9,1.2-22.3-.1-44.6-.3-66.8-2.5-25-2.4-49.8-7.5-72.8-17.8-1.3-.6-2.5,1.4-1.2,2,41.2,18.5,87,20.1,131.4,20.5,48.1.4,96.8.9,144.1-8.8,25-5.2,49.5-13.3,72-25.4,1.3-.7.1-2.7-1.2-2h0Z"/>
      <path class="cls-19" d="M523.9,203c-17.8,6.8-35.5,13.8-53.3,20.5-17.5,6.6-35.1,12.1-53.7,14.4-18.4,2.3-36.9,2.1-55.4.6-16.7-1.4-33.4-3.8-49.6-8.2-18.1-4.9-35.5-12.3-50.8-23.2-1.2-.9-2.4,1.1-1.2,2,27.3,19.5,60.7,27.6,93.6,31,18.5,1.9,37.3,2.6,55.9,1,18.7-1.7,36.7-6.1,54.3-12.5,20.4-7.4,40.6-15.5,60.8-23.3,1.4-.5.8-2.8-.6-2.2h0Z"/>
      <path class="cls-19" d="M868.1,209.4c-40.5,22.3-83.3,42.4-129.5,48.7-25.1,3.5-50.7,2.7-76,1.6-12.5-.5-25.1-1.4-37.4-4-11.9-2.5-23.3-6.8-34.6-11.4-12.2-5-24.5-9.9-36.1-16-5.6-3-11-6.2-16-10-5.1-3.8-9.9-8.2-15.8-10.9-1.3-.6-2.5,1.4-1.2,2,5.3,2.4,9.7,6.3,14.3,9.8,4.6,3.5,9.5,6.7,14.5,9.5,10,5.6,20.5,9.9,31,14.3,11.3,4.7,22.7,9.5,34.6,12.8,12,3.4,24.3,4.9,36.7,5.7,25.3,1.6,51,2.4,76.3,0,23.6-2.3,46.7-8.2,68.9-16.4,24.7-9.2,48.3-21,71.4-33.7,1.3-.7.1-2.7-1.2-2h0Z"/>
      <path class="cls-19" d="M1209.8,209.1c-10.5,6.8-21.5,12.8-33.2,17.2-11.8,4.4-24.1,7.6-36.2,11-23.2,6.5-46.6,11.8-70.6,13.9-44.4,3.8-89.5-1.6-131.8-15.7-24-8-46.9-18.7-68.4-32.1-1.3-.8-2.4,1.2-1.2,2,38.4,24,82,39.6,126.8,45.9,22.3,3.2,45,4.1,67.5,2.7,23.4-1.5,46.4-5.8,69.1-12,14.1-3.8,28.3-7.6,42.1-12.4,13.2-4.6,25.5-11,37.1-18.6,1.2-.8,0-2.8-1.2-2h0Z"/>
      <path class="cls-19" d="M1477,206.3c-33.9,9.9-68,19.4-102.9,24.6-33.8,5-68.7,5.7-102.3-1.6-19.4-4.2-37.5-11.7-55.6-19.8-1.3-.6-2.5,1.4-1.2,2,16,7.2,32.1,14.1,49.1,18.4,16.5,4.2,33.5,6.3,50.5,6.9,35.2,1.2,70.2-4.3,104.3-12.4,19.7-4.7,39.2-10.3,58.7-15.9,1.4-.4.8-2.7-.6-2.2h0Z"/>
      <path class="cls-19" d="M1838.3,207.1c-16.7,12.5-37.7,16.3-58,18.5-23.2,2.5-46.6,4-69.9,4.7-47.3,1.4-94.7-.7-141.7-6.2-26.7-3.1-53.2-7.5-79.5-12.8-1.5-.3-2.1,1.9-.6,2.2,46.9,9.6,94.5,15.7,142.3,18.2,48,2.5,96.2,1.5,144-3.2,22.4-2.2,46-5.6,64.5-19.4,1.2-.9,0-2.9-1.2-2h0Z"/>
      <path class="cls-19" d="M2095.1,193.6c-31.5,13.8-65.6,20.5-99.8,22.8-16.9,1.1-33.9,1.3-50.8.7-16.8-.6-33.5-2-50-5.1-18.5-3.4-36.6-9-53.3-17.8-1.3-.7-2.5,1.3-1.2,2,30,15.8,64,21.2,97.5,22.9,34.5,1.7,69.5.5,103.5-6.3,19-3.8,37.6-9.4,55.3-17.2,1.4-.6.2-2.6-1.2-2h0Z"/>
      <path class="cls-5" d="M265.3,198.4c-2.9-2.6-7.1-3.2-10.6-1.5-1.8.9-2.7,1.9-3.7,3.1-3,3.6-4.5,9.4-.8,13.3,2.6,2.6,6.9,3.6,10.4,3,3.8-.7,6.5-3.8,7.4-7.5.9-3.7.2-7.8-2.7-10.4h0Z"/>
      <path class="cls-5" d="M262.1,239.5c-.1-10.5-.2-20.9-.4-31.4,0-2.4-3.8-2.5-3.7,0,.6,36.6.8,73.3.4,109.9,0,9.4-.2,18.8-.4,28.2-.6.3-1,1-.7,1.9.2.6.5,1.2.7,1.8.7,1.8,3.6,1.9,3.7-.4.6-36.6.8-73.3.4-109.9h0Z"/>
      <path class="cls-5" d="M282,339.2c-6.5-1.9-13.7-1.8-20.5-1.8-7.2,0-14.8-.2-21.9,1.5-6.8,1.7-13.9,6.2-12.9,14.3.2,1.8.6,3.6,1.8,4.9,1.6,1.6,3.6,1.9,5.8,2.2,6.8,1,13.6,1.6,20.5,1.8,6.8.2,13.7,0,20.5-.6,6-.6,14.5-.8,16.9-7.7,2.5-7.3-4.1-12.7-10.3-14.5h0Z"/>
      <path class="cls-5" d="M527.3,195.3c-2.9-2.6-7.1-3.2-10.6-1.5-1.8.9-2.7,1.9-3.7,3.1-3,3.6-4.5,9.4-.8,13.3,2.6,2.6,6.9,3.6,10.4,3,3.8-.7,6.5-3.8,7.4-7.5.9-3.7.2-7.8-2.7-10.4h0Z"/>
      <path class="cls-5" d="M524.1,236.3c-.1-10.5-.2-20.9-.4-31.4,0-2.4-3.8-2.5-3.7-.1.6,36.6.8,73.3.4,109.9,0,9.4-.2,18.8-.4,28.2-.6.3-1,1-.7,1.9.2.6.5,1.2.7,1.8.7,1.8,3.6,1.9,3.7-.4.6-36.6.8-73.3.4-109.9h0Z"/>
      <path class="cls-5" d="M544,336.1c-6.5-1.9-13.7-1.8-20.5-1.8-7.2,0-14.8-.2-21.9,1.5-6.8,1.7-13.9,6.2-12.9,14.3.2,1.8.6,3.6,1.8,4.9,1.6,1.7,3.6,1.9,5.8,2.2,6.8,1,13.6,1.6,20.5,1.8,6.8.2,13.7,0,20.5-.6,6-.6,14.5-.8,16.9-7.7,2.5-7.3-4.1-12.7-10.3-14.5h0Z"/>
      <path class="cls-5" d="M873.7,196.4c-2.9-2.6-7.1-3.2-10.6-1.5-1.8.9-2.7,1.9-3.7,3.1-3,3.6-4.5,9.4-.8,13.3,2.6,2.6,6.9,3.6,10.4,3,3.8-.7,6.5-3.8,7.4-7.5.9-3.7.2-7.8-2.7-10.4h0Z"/>
      <path class="cls-5" d="M870.4,237.4c-.1-10.5-.2-20.9-.4-31.4,0-2.4-3.8-2.5-3.7-.1.6,36.6.8,73.3.4,109.9,0,9.4-.2,18.8-.4,28.2-.6.3-1,1-.7,1.9.2.6.4,1.2.7,1.8.7,1.8,3.6,1.9,3.7-.4.6-36.6.8-73.2.4-109.9h0Z"/>
      <path class="cls-5" d="M890.4,337.2c-6.5-1.9-13.7-1.8-20.5-1.8-7.2,0-14.8-.2-21.9,1.5-6.8,1.7-13.9,6.2-12.9,14.3.2,1.8.6,3.6,1.8,4.9,1.6,1.6,3.6,1.9,5.8,2.2,6.8,1,13.6,1.6,20.5,1.8,6.8.2,13.7,0,20.5-.6,6-.6,14.5-.8,16.9-7.7,2.5-7.3-4.1-12.7-10.3-14.5h0Z"/>
      <path class="cls-5" d="M1218.4,201.3c-2.9-2.6-7.1-3.2-10.6-1.5-1.8.9-2.7,1.9-3.7,3.2-3,3.6-4.5,9.4-.8,13.3,2.6,2.6,6.9,3.6,10.4,3,3.8-.7,6.5-3.8,7.4-7.5.9-3.7.2-7.8-2.7-10.4h0Z"/>
      <path class="cls-5" d="M1215.2,242.3c-.1-10.5-.2-20.9-.4-31.4,0-2.4-3.8-2.5-3.7-.1.6,36.6.8,73.3.4,109.9,0,9.4-.2,18.8-.4,28.2-.6.3-1,1-.7,1.9.2.6.4,1.2.7,1.8.7,1.8,3.6,1.9,3.7-.4.6-36.6.8-73.2.4-109.9h0Z"/>
      <path class="cls-5" d="M1235.1,342.1c-6.5-1.9-13.7-1.8-20.5-1.8-7.2,0-14.8-.2-21.9,1.5-6.8,1.7-13.9,6.2-12.9,14.3.2,1.8.6,3.6,1.8,4.9,1.6,1.6,3.7,1.9,5.8,2.2,6.8,1,13.6,1.6,20.5,1.8,6.8.2,13.7,0,20.5-.6,6-.6,14.6-.8,16.9-7.7,2.5-7.3-4.1-12.7-10.3-14.5h0Z"/>
      <path class="cls-5" d="M1489.1,203.2c-2.9-2.6-7.1-3.2-10.6-1.5-1.8.9-2.7,1.9-3.8,3.1-3,3.6-4.5,9.4-.8,13.3,2.6,2.6,6.9,3.6,10.4,3,3.8-.7,6.5-3.8,7.4-7.5.9-3.7.2-7.8-2.7-10.4h0Z"/>
      <path class="cls-5" d="M1485.9,244.3c0-10.5-.2-20.9-.4-31.4,0-2.4-3.8-2.5-3.7-.1.6,36.6.8,73.2.4,109.9,0,9.4-.2,18.8-.4,28.2-.6.3-1,1-.7,1.9.2.6.4,1.2.7,1.8.7,1.8,3.6,1.9,3.7-.4.6-36.6.8-73.3.4-109.9h0Z"/>
      <path class="cls-5" d="M1505.8,344c-6.5-1.9-13.8-1.8-20.5-1.8-7.2,0-14.8-.2-21.9,1.5-6.8,1.7-13.9,6.2-12.9,14.3.2,1.8.6,3.6,1.8,4.9,1.6,1.7,3.6,1.9,5.8,2.2,6.8,1,13.6,1.6,20.5,1.8,6.8.2,13.7,0,20.5-.6,6-.6,14.6-.8,16.9-7.8,2.5-7.3-4.1-12.7-10.3-14.5h0Z"/>
      <path class="cls-5" d="M1843.3,195.2c-2.9-2.6-7.1-3.2-10.6-1.5-1.8.9-2.7,1.9-3.7,3.1-3,3.6-4.5,9.4-.8,13.3,2.6,2.6,6.9,3.6,10.4,3,3.8-.7,6.5-3.8,7.4-7.5.9-3.7.2-7.8-2.7-10.4h0Z"/>
      <path class="cls-5" d="M1840.1,236.2c0-10.5-.2-20.9-.4-31.4,0-2.4-3.8-2.5-3.7,0,.6,36.6.8,73.3.4,109.9,0,9.4-.2,18.8-.4,28.2-.6.3-1,1-.7,1.9.2.6.4,1.2.7,1.8.7,1.8,3.6,1.9,3.7-.4.6-36.6.8-73.2.4-109.9h0Z"/>
      <path class="cls-5" d="M1860.3,335.6c-6.5-1.9-13.8-1.8-20.5-1.8-7.2,0-14.8-.2-21.9,1.5-6.8,1.7-13.9,6.2-12.9,14.3.2,1.8.6,3.6,1.9,4.9,1.6,1.7,3.6,1.9,5.8,2.2,6.8,1,13.6,1.6,20.5,1.8,6.8.2,13.7,0,20.5-.6,6-.6,14.6-.8,16.9-7.7,2.5-7.3-4.1-12.7-10.3-14.5h0Z"/>
      <path class="cls-13" d="M-.3,243.8c-.1-.8-.2-1.6-.4-2.3-.4-2.8-2.3-5.4-5-6.2-2.1-2.6-16.2-25.8-16.7-29.6-.2-1.2-.2-4-.2-4.2,0-.1.3-2.1.5-2.8.6-3.1,1.6-6.2,2.5-9.2,3.5-12.4,9.1-22.2,10.9-35.1.5-3.6-1.6-7.6-5.4-8.2-1.3-.2-2.7,0-3.9.4-1.4-1.8-3.7-3-6-2.8-3.9.4-6.5,3.5-6.4,7.4,0,2.2-1.1,5.6-2,8-1.4,3.8-2.7,7.5-3.9,11.3-2.4,7-4.7,14.1-6.6,21.3-1.9,7.1-2.9,15.2.1,22.1,3,6.9,9,11.5,14.2,16.6,5.7,5.7,10.7,11.3,15.7,17.6,1.9,2.4,5,3.7,8.1,2.7,2.7-1,5.1-4.1,4.7-7.1H-.3Z"/>
      <path class="cls-9" d="M1239.2,483.8c-5.6-5.3-13.6-4.9-20.8-4.5-9.5.5-19-.3-28.5-.6-18.6-.7-37.1,1.3-55.7,2.1-9.2.4-18.5.5-27.7-.3-8.9-.7-17.6-2.5-26.2-4.8-17.5-4.6-35-10.5-53.3-10.5-4.7-.6-9.8-.2-14.3,0-8.2.5-16.3,1.7-24.4,3.1-15.7,2.7-31.2,6-47.2,6.6-16.5.6-33,0-49.5-.1-16.7-.2-33.3-.3-50-.5-4.1,0-8.3,0-12.4-.1-3.8,0-7.9-.4-11.7.4-8.2,1.8-12.2,12.5-4.3,17.5,3.2,2,7.4,2.3,11,2.6,4,.3,8,.1,12-.3,8.1-.8,16-2.5,24.1-3.5,16.3-2,32.7-1.4,49.1-.5,16.4.9,32.8,1.7,49.3,1.3,8.3-.2,16.6-.4,24.9,0,7.9.5,15.6,2,23.3,3.7,12.6,2.8,68.6,4.4,83.6,4.9,18.9.7,37.7.6,56.6-.5,18.8-1.1,37.6-2.5,56.4-1.4,9.3.5,18.6,2.1,27.9,1.7,3.8-.2,7.9-1.2,10.1-4.6,2.5-3.9.9-8.7-2.3-11.8h0Z"/>
      <path class="cls-5" d="M960.5,396.3c-2.6-4-7.1-6.9-12-8.6-5.6-2-11.8-2.4-17.8-2.7-6.6-.3-13.3-.5-19.9-.6-14.9-.1-29.9.6-44.7,1.9-6.6.6-13.8.9-19.7,3.7-5.3,2.5-9.2,6.7-11.1,11.5-1.6,4,4.8,6.2,7.5,3.6,4,2.3,11.2,1.2,15.3.9,6.4-.5,12.7-1.4,19.1-2.1,13.2-1.6,26.1-1,39.4,0l19.8,1.3c3.2.2,6.4.4,9.6.6,3.1.2,6.3.7,9.4.5,2.3-.2,4.7-1,5.9-2.7,1.6-2.3.6-5-.8-7.2h0Z"/>
      <path class="cls-5" d="M1220.7,394.2c-2.4-4-6.5-6.8-11.1-8.6-5.1-2-10.9-2.3-16.4-2.6-6.1-.3-12.2-.5-18.4-.5-13.8,0-27.6.6-41.2,2-6.1.6-12.7,1-18.2,3.8-4.9,2.5-8.5,6.7-10.3,11.6-1.5,4,4.4,6.2,7,3.6,3.7,2.3,10.3,1.1,14.1.8,5.9-.5,11.7-1.4,17.6-2.2,12.2-1.6,24.1-1,36.4-.2l18.3,1.3c3,.2,5.9.4,8.9.6,2.8.2,5.8.7,8.7.4,2.1-.2,4.3-1,5.5-2.7,1.5-2.3.5-5-.8-7.2h0Z"/>
      <path class="cls-13" d="M1101,391.3c-.4-2-1.5-3.8-3-5.1-1.7-1.4-3.8-2.1-5.8-2.8-1.6-.6-3.6-1.1-5.2-2-.3-.8-.7-1.7-1-2.5-.8-1.9-1.7-3.8-3-5.5-1.6-2.1-4.7-.9-4.3,1.8,0,0,0,0,0,0-.2.4-.3,1,0,1.6,0,.1,0,.3.1.4-.4.2-.8.6-1,1.1-.2,0-.5,0-.7.1-1.4,0-2.9,1-2.3,2.8.8,2.3,1.9,4.5,3.4,6.3,1.1,2,3,3.8,5,4.4,1.8.5,3.8.4,5.7.5,1.3,0,2.7,0,4,.2.8,1,1.5,2.1,2.1,3.3.8,1.7,1.7,4.5,3.9,4.9,3.8.6,2.5-8.8,2.3-9.6h0Z"/>
      <path class="cls-21" d="M1040.7,481.3c-.2-1.4-1.3-2.3-2.5-2.9-1.9-1-4-1.8-6-2.6-.9-.4-1.7.2-1.7,1-.2.5-.2,1.1.4,1.4.3.2.6.3.8.5.5.3.9.2,1.2,0,.2,0,.4.2.6.3-.5.4-.4,1.4.2,1.9-.6.6-1.1,1.5-1.3,2.6-.2.9-.8,2.5,0,3.4.8.9,2.1.4,3,0,2.2-.9,5.9-2.6,5.4-5.5h0Z"/>
      <path class="cls-21" d="M1033.8,477.9c-.8-1.4-1.8-3.1-3.7-2.9-.3,0-.6.1-.8.2-1.1-.5-2.4.7-2.2,1.9-.2,0-.4.1-.5.3,0-.4-.3-.7-.8-1-.1,0-.3-.1-.4-.2-1.1-.6-2.5,0-2.6,1.3,0,2.3.2,4.7.9,6.9.6,1.6,1.3,3.5,3,4.2,1.8.8,4.4-.4,6.2-.8,2.1-.5,3-1.4,2.9-3.7,0-2.2-.9-4.3-2-6.2h0Z"/>
      <path class="cls-13" d="M1019,405.3c1.8,7.5,13.3,67.7,13.7,71.4.3,2.8-1.6,4-4,4.7-2.8.8-4.7.6-5.6-2.4-2.2-7.3-22-58.3-22.6-67.6,0-.2,18.2-7.6,18.5-6.2h0Z"/>
      <path class="cls-5" d="M1029.1,447.8c-1.4-11.6-3.6-23.1-6.6-34.4-.8-2.8-1.6-5.6-2.4-8.4-.7-2.4-1.3-5.1-2.5-7.3-1.4-2.4-3.7-3.3-6.3-3.5-3.1-.2-6.3-.2-9.4-.3-1.3,0-2.6.8-3.3,1.9-2.4-2.7-12.8.7-11.4,4.7,6.4,17.7,12.9,35.5,19.3,53.2.7,1.8,2.5,3.3,4.6,2.6,3.5-1.1,11.9-3.7,15.4-4.8,1.4-.5,2.9-1.9,2.7-3.6h0Z"/>
      <path class="cls-13" d="M1021.1,376.3c4.3,6.4,34.6,58.6,36.2,62,1.2,2.5,1.6,4.4-.3,5.9-2.3,1.8-4.2,2.2-6-.3-4.6-6.1-41.2-46.8-45-55.3,0-.2,14.3-13.5,15.1-12.3Z"/>
      <path class="cls-5" d="M1045.4,412.5c-5.4-10.4-11.5-20.4-18.3-29.9-1.7-2.4-3.4-4.7-5.2-7-1.5-2-3-4.3-5-5.9-2.2-1.8-4.6-1.8-7.2-1.1-3,.9-5.9,2-8.9,3-1.2.4-2.2,1.6-2.4,2.9-3.2-1.7-7.6,2.1-4.8,5.3,12.2,14.4,20.1,32.8,32.4,47.2,1.3,1.5,3.5,2.2,5.2.8,2.8-2.3,10.1-8.7,12.9-11,1.1-.9,2.1-2.9,1.3-4.3h0Z"/>
      <path class="cls-21" d="M1046.6,438.3c.8,1.8,4.1,1,5.4.6,2.4-.9,3.4-1.2,4.5-3.5,1.4.4,4.9-.3,8.4,0,2.5.1,5,.5,4.4,3.9-.2,1.4-13.8,8.1-18.6,7.7-4.3-.3-4.5-4.4-4.4-5.7,0-1.5.3-2,.3-3,0,0,0,0,0,0h0Z"/>
      <path class="cls-5" d="M1044.5,353c-.8-3.6-2-8.1-4-11.5-1.2-3.1-2.9-6.2-5.6-7.8-1.2-.7-2.3-.8-3.4-.6-.2-.3-.3-.6-.5-.9-2.6-4.6-8.9-.6-6.8,4.1-1.8-.7-3.8-1.1-5.8-1.3-6.7-.6-14.1.3-20.5,2.7-3.1,1.1-6.7,2.5-8.8,5.5-.2.3-.5.7-.6,1.1,0,0,0,0,0,0-.2-.4-.5-.8-.8-1.1-1.7-1.9-4.5-2.1-6.3-.3-.4.4-.7.8-1,1.3-.1-.2-.3-.4-.4-.6-1.6-1.7-3.7-2.1-5.5-1.2-1.4-2.7-5.9-3.1-7.1.9-3.7,12.3-5.2,27.1-1.9,39.8,1.5,5.6,4.4,10.5,8.4,13.9,7.8,6.7,46.4,3.9,52.6,3.4,5.2-.5,10.5-2.6,14.1-7.2,3.1-4,4.6-8.2,5.2-13.1,1-8.9.9-18.4-1.1-27.1h0Z"/>
      <path class="cls-13" d="M1022.2,215.7c0-2.3,0-4.7-1-6.8-2.2-4.3-7.5-4.6-10.9-1.6-1.4,1.2-2.3,2.7-2.9,4.4-2.7-1.6-7.1-.3-7.2,3.8-.3,9.7-.4,19.4-.6,29.1,0,3.2,3,5,5.9,4.5.7-.1,1.5-.2,2.2-.3,1.2.5,2.7.4,3.9,0,2.2.1,4.3.7,6.4-.5,4.1-2.4,3.5-8.5,3.8-12.6.3-4.5.5-9.1.5-13.6,0-2.1,0-4.2,0-6.4h0Z"/>
      <path class="cls-13" d="M1023.6,162.4c-6.3-3.3-14.9-2.2-21.1.8-14.5,7.1-15.3,27.3-11.2,40.9,2,6.8,5.6,15.4,12.7,17.9,6,2.1,13,2.6,18.4-.8,6.9-4.4,9.3-11.4,10.4-17.3,1.3-7.6,1.3-15.5.6-23.1-.6-7.3-2.9-14.7-9.9-18.3h0Z"/>
      <path class="cls-5" d="M1035.1,177.7c-1.4-8.4-6.3-16.6-14.6-18.8-.4-.4-.8-.9-1.2-1.3-2-2.1-4.4-4.8-7.3-5.5-3.2-.8-5.9,1.5-6,4.6-1.5,0-2.8.3-4.1,1-.9.5-1.6,1.3-2.1,2.1-.9.1-1.7.2-2.5.3-2.9.3-6.1.2-8.3,2.4-1.9,2-2.5,5.1-1.7,7.6.4,1.2,1,2.1,1.8,2.9-2.1,3.1-3,7-.8,10.2.2.2.3.4.5.6.3,3.9,1.7,7.9,3.3,11.5,3.3,7.6,9.2,16.7,17.3,19.9,4.2,1.6,8.9,1.1,12.4-1.8,3.1-2.6,5.9-6.3,8.3-9.6,5.4-7.7,6.6-17,5-26.1h0Z"/>
      <path class="cls-5" d="M1091.7,394.7c-2.5-4-6.9-6.9-11.8-8.6-5.5-2-11.6-2.3-17.4-2.7-6.5-.3-13-.5-19.5-.6-14.6,0-29.2.6-43.8,2-6.5.6-13.5.9-19.3,3.8-5.2,2.5-9,6.7-10.9,11.6-1.5,4,4.7,6.2,7.4,3.6,3.9,2.3,10.9,1.2,15,.8,6.3-.5,12.5-1.4,18.7-2.2,12.9-1.6,25.6-1,38.6-.1l19.4,1.3c3.2.2,6.3.4,9.4.6,3,.2,6.2.7,9.2.4,2.3-.2,4.6-1,5.8-2.7,1.6-2.3.6-5-.8-7.2h0Z"/>
      <path class="cls-15" d="M1087.6,369.9c-1.9-5-13.8-53.6-16.5-64.5-2.5-10.1-1.5-52.5-30.8-64.6h0c-4-2.3-8.3-2.9-13.4-5.2-1.4-2.1-3.1-4-4.6-5.8-1-1.2-1.8-1.4-3.3-1.5-2.3,0-3.4.1-5.7.1-4.6,0-6.7.1-11.3.3-3.4.1-6.3,2.5-9.1,4.5-3.9,1.5-10.3,3.5-13.9,6-1,.7-1.9,1.4-2.9,2.2-3.6,1.1-6.6,4.1-9.2,6.7-3.1,3.1-5.8,6.5-8.2,10.1-4.8,7.3-8.3,15.5-11.5,23.7-3.7,9.4-7.4,19-10.1,28.7-2.4,8.7-4.7,19.3,2,26.8,3.1,3.5,7.7,5.5,12.1,6.6,2.3.6,4.6,1.1,6.9,1.4-.5,15.1-1,28.5-1.1,29.5-.3,2.3-.7,4.9,1.2,6.8s3.8,1.6,5.9,1.8c2.7.3,5.4.5,8.1.8,5.2.5,6.2.9,11.4,1.3,4.7.3,9.6.2,14-1.6,4.5-1.8,6.9-5.7,9.6-9.5,1.1-1.5,2.2-3.1,3.3-4.6.3.7.5,1.4.8,2,1.3,3.3,2.3,7.1,5.5,9.2,2.7,1.7,6,2,9.2,1.8,4.1-.2,8.2-.7,12.2-1.2,4-.5,8-1.2,11.9-1.9,3.8-.7,7.8-1.1,8.1-5.8.2-3.7-.4-17.6-1.3-32,3.3,10.8,7.9,25.3,9,28.3.8,2.2,2.8,11.9,6.2,12.1,3.1.2,13.6-3.3,15-4.9,2.1-2.3,1.4-5.1.4-7.7h0Z"/>
      <path class="cls-16" d="M1229.1,400.4h-401c-2.7,0-4.8,2.2-4.8,4.8v83.6h9.4v-68.6h391.7v68.6h9.4v-83.6c0-2.7-2.2-4.8-4.8-4.8h0Z"/>
      <path class="cls-13" d="M25.8,555.2c-.7,8.4-8.8,75.3-9.7,79.3-.6,3-3,3.6-5.8,3.6-3.2,0-5.1-.9-5-4.3.2-8.4-3.5-68.4-.9-78.3,0-.2,2.7-42.1,3.6-42.3,5-1,17.9,40.5,17.8,42.1Z"/>
      <path class="cls-5" d="M228.2,545.7c-.3-4.3-.7-8.7-1-13-.6-7.7-.6-11.1-1.2-18.7-2.5-31.5-4.1-62.7-7-94.2-1.6-17.9-3.6-35.7-6.5-53.4-.3-2-1.7-3.6-3.5-4.4-1-2.9-4.3-4.7-7.2-4.1-.2,0-.4,0-.6.2-.8-.2-1.6-.5-2.4-.6-3.4-.7-6.9-1.2-10.3-1.7-1-1-2.3-1.6-3.8-1.7-1.2,0-2.5.2-3.6.9-2.9-.3-5.8-.4-8.7-.5-2.3,0-4.7-.1-7-.1-.9-.7-2-1.2-3.4-1.3-1.7-.1-3.3.5-4.6,1.5-2.2.1-4.4.3-6.6.6-1.1,0-2.2,0-3.2.5-.2,0-.5,0-.7.1-4,.8-7.7,2.8-9.5,6.5-.5,1-.8,2-1,3-1.4.9-6.2,1.6-6.4,3.8-3.8,47-8.7,111.8-13.6,158.6-1.4,13.2-3.4,19.1-1.3,26.3,2.7,9.3,11,10.8,20.1,10.2,4.4-.3,8.8-1.4,13.2-1.4,4.4,0,15.2,3.2,18.9,2.4,5.8-1.2,1.4-42.7,4-41.7,4.2,1.7,1.8,40.1,7.2,42.2,5,2,21.5.6,40-3.8,1-.2,6.8-3,8.2-5.4,2-3.3,1.8-7,1.5-10.6h0Z"/>
      <path class="cls-13" d="M47.1,217.8c0-2.5,0-5.2-1.1-7.4-2.4-4.7-8.2-5-12-1.8-1.5,1.3-2.5,3-3.2,4.8-2.9-1.8-7.8-.4-8,4.1-.3,10.7-.5,21.4-.7,32,0,3.5,3.3,5.5,6.5,4.9.8-.2,1.6-.3,2.4-.4,1.3.5,3,.5,4.3,0,2.4.1,4.8.8,7-.5,4.5-2.6,3.9-9.3,4.2-13.8.3-5,.5-10,.5-15,0-2.3,0-4.7,0-7h0Z"/>
      <path class="cls-5" d="M79.4,416c-1.9-20.4-7.1-46.9-9.9-67.2-.5-3.5-4.4-4.4-7.3-3.4,0-.1,0-.3,0-.4-.3-3-2.3-4.7-4.6-5.1,0-1,0-1.9,0-2.9-.1-6.4-9.3-6.9-10.6-1.3-2.5-1.4-6.2-1-7.5,1.8-2.1.2-4,1.8-4.7,3.9-.4,1.4-.8,2.9-1.2,4.3,0-.2,0-.4,0-.6.2-6.2-8.8-7.1-10.6-1.4-.3,1-.6,1.9-.9,2.9-2.8-1-6.6,0-7.5,3.4-.7,2.5-1.4,5.1-2.1,7.6-.2-.2-.5-.4-.8-.6-1.3-1.3-3.3-2-5.1-1.3-2.1.8-3.8,2-4.4,4.3-.4,1.3-.5,8.9,0,10.1-7.4,22.8-7.4,46.7-8.1,55.8-1.3,18.7,2.8,136.9,3.7,174.6.2,9.3-2.3,11,5.3,12,9.9,1.3,21.5,1.7,21.9,1.5,9.9,1.8,9.3-154.6,14.5-154.6,0,0,12.2,115.1,17.5,143.3.7,3.9,0,8.2,3.9,9,3.5.7,17.8.8,21.1,1,5.5.3,5-6,5.1-8,.1-7.3-4.3-152.8-7.7-188.8h0Z"/>
      <path class="cls-13" d="M131,317.8c-1.6-2-4.6-2.1-6.4-.3-1,1-1.7,2.5-2.1,4-1.1-2.4-5.3-2.8-6.2.4-3.8,12.7-5.9,25.2-6.5,38.4-.1,2.5-2,12.6-2.9,15.2-2.1,6-3.4,13-4.2,19.3-1.8,13.5-.5,13.1-4,28.8-.3,1.5,2.9,11.2,5.2,7.7,11.1-17.1,16.9-35.7,21.9-60.5,2-10.1,4.2-24.2,5.8-34.4.5-3.1,1-6.3,1.1-9.4.1-2.9.4-6.9-1.6-9.3h0Z"/>
      <path class="cls-18" d="M233.4,318.2s0,0,0-.1c-.2-1.3-.5-2.5-.8-3.7-1.9-6.5-5.1-12.5-6.6-19.1-1.1-4.9-1.9-9.9-5-13.9-.7-2.1-1.7-4-3-5.6-10.3-12.4-8.7-6.9-9.9-8-.5-.4-1.2-.9-1.8-1.4-.2-1.6-1.3-3.1-2.6-3.9-1.5-.9-3.2-1.2-4.9-.6-2.4.9-3.7,2.6-3.9,5.1v.2c-1-.7-2.1-1.3-3.1-1.9-5.5-3-11.9-5.7-18.3-5.3-.9,0-1.8.1-2.7.3-1.7-2.3-4.7-2.7-8.1-1-9.1,4.6-21.6,7.9-29.9,15.1-.3.3-.6.6-.9,1-1.7,1.7-3.2,3.7-4.6,5.6-2.5,3.4-4.7,6.9-6.6,10.7-.4.8-.8,1.7-1.2,2.5,0,0,0,0,0,0-10.8,22.1-17.2,49.9-18.9,61.1-.9,5.8-1.5,11.7-1.7,17.6,0,2.8,0,5.6,0,8.4,0,2.1.8,5-.2,6.8-1.3,2.5-2.4,4.7-2.3,7.7,0,1.4.3,3.2,1.1,4.5.9,1.6,2.6,2.3,4.2,3,5.3,2.4,11.3,3.6,17.2,3,.8,0,1.6-.2,2.3-.5,0,1.7-.9,11.7,2.9,17.7,1.5,2.7,3.6,5.2,5.6,7.5,3.3,3.8,7.1,7.1,11.1,10.1,8.3,6.1,18.1,10.3,28.1,12.7,10.6,2.6,21.9,3.7,32.8,2.9,5.4-.4,10.9-1.4,15.6-4.1,5.4-3.1,8.6-9.8,8.9-15.9.2-5.8-2.8-33.2-3.3-38.5-.5-4.9-1.1-10.4-1.8-16.1,5.3-1.3,8.3-5.8,10.2-10.9,2.4-6.8,3.8-14,4.4-21.2.7-9.9-.8-23.3-2.2-31.8h0Z"/>
      <path class="cls-15" d="M248,415.8c0-5.2-.2-10.4-.3-15.6-.1-10.4-.1-20.8,0-31.2,0-5,.2-10,.3-15,0-3.4-.2-6.9-1.7-10.1-1.8-3.9-5.2-6.1-9.4-6.6-3.3-.5-6.6-.6-10-.6-3.5-23.2-5.7-47.6-19.7-66.8-2.3-3.1-7.5-.2-5.2,3.1,13,19.1,15.2,41.5,18.7,63.7-.2,0-.3,0-.5,0-1.8,0-2.5,1.6-2.1,2.9,0,0,1.3,27,3,42.5,1.4,12.9,3.7,34.1,5,50.3,0,1.2,0,2.1,0,2.1,7-.4,17.6-.8,20.5-8.2,1.3-3.3,1.4-7,1.3-10.5h0Z"/>
      <path class="cls-13" d="M176.2,237.6c-.5-.6-1.2-.9-1.8-.9.1-.4.2-.8.3-1.1.8-3.1-3.4-4.6-5.2-2.8-1.9-2.5-3.7-5.1-5.3-7.7-2.8-6.9-3.5-14.6-2.7-22.2.1-.9-.2-1.6-.7-2.1.6-2.4-2.8-4.9-5.1-2.7-.5.5-1,1-1.5,1.6-.3.2-.5.4-.8.7-4.2,5.2-5.3,12.7-5.9,19.1-.7,7.2,0,14.6,1.9,21.6.8,2.9,1.4,6.9,4.8,8.1,3.1,1.1,7.2.5,10.3-.4,4.3-1.2,17.3-5.3,11.6-11.2Z"/>
      <path class="cls-11" d="M215.5,289.9c-2.5-8.4,2-16.9-1.4-25.2-3-7.3-9.3-12.5-10.3-20.7-.5-4-.2-8.1.1-12.1,1.5-6.5,2.1-13.2.7-19.7-1.8-8.2-6.9-15.3-14.5-19-7.7-3.7-16.5-3.9-24.5-1.1-2,.7-3.9,1.5-5.7,2.5-1.5.8-3.5,1.7-4.2,3.4-.2.4-.2.8-.2,1.2,0,0,0,0,0,.1-1.7,6.3-.4,13.2,3.7,18.3,1.1,1.4,2.7,2.6,3.7,4,1,1.4,1.1,3.1,1.2,4.8,0,1.8.1,3.6.4,5.2-.3,7.5-4.4,14.7-3.6,22.3.4,4.4,2.4,8.4,3,12.7.7,5.1-.9,10.2-1.4,15.3-.8,7.7,1.5,15.2,9,18.4,6.2,2.7,15.2,1.1,19.5,6.7,7,9,17.1,8.4,23.3,3.1,6.1-5.2,3.1-13.7,1.2-20.1h0Z"/>
      <path class="cls-4" d="M218.9,216.8c-.7-8-7-13.8-12.7-18.9,0-.8,0-1.7-.2-2.5-1-7.6-6.4-12-12.4-15.9-5.8-3.7-13.1-5.6-19.7-2.7-1.1.5-2.1,1.1-3.1,1.8-5.2-.7-10.7-.5-15.6.8-8.2,2.2-14.4,7.5-16.7,11.9-3.4,6.3-2.8,14.2.8,20.3,4.3,7.2,12.8,10.6,19.9,14.5,4.4,2.4,8.7,4.8,13.1,7.2,3.8,2.1,7.7,4.1,11.8,5.3,8.1,2.3,17.7,1.9,25.3-2,6.9-3.6,10.3-12.4,9.6-19.8h0Z"/>
      <path class="cls-5" d="M195.1,207c-4.4-.6-8.8-1.8-12.9-3.6-3.9-1.7-7.7-4-10.9-6.9-1.8-1.7-3.5-3.5-5.1-5.4-1.1-1.3-2.2-2.6-3.2-4-1.7,2-3.3,3.9-5,5.9-.2.2-.3.5-.4.7,2.1,2.9,4.6,5.5,7,7.8,3.9,3.8,8.5,6.8,13.4,9.1,4.9,2.2,10,3.7,15.3,4.5,2.5.4,5.3.7,8.1.8,0,0,0,0,0,0,1.7-2.6,3-5.4,3.9-8.4-3.4.5-7.1,0-10.3-.4h0Z"/>
      <path class="cls-6" d="M78,252.2c-8.2-8.3-26.6-14.4-44.7-13.9-19,.6-32.6,3.5-44.5,15.1-5.6,5.5-14.5,27.1-16.9,38.9-1,4.8-1.7,6.8,2.9,9.1,1.9.9,16.2,11,18.2,11.2,1.7,3.2.3,19-.4,25-.7,6.3-.2,25.3,2.2,31.3,2.4,5.9,6.3,10.7,11.6,14.2,1.9,1.3,13.4,1,17.2.5,8.7-1.1,17.3-1.7,26.1-.6,4,.5,8,1,12.1.8,11.7-.5,10.5-13.4,10-15-.4-15-3.5-43.4-5.1-58.2,1.2-1,.8-.9,2.1-1.8,2.1-1.6,4.3-3,6.5-4.3,4.8-2.7,9.8-4.2,15-5.8,3.2-.9,3.2-.9,4.3-4.2,1-3.2-6-31.6-16.6-42.3h0Z"/>
      <path class="cls-13" d="M91,356.2c0-3.3,1.6-48.1,1.6-58.4-3.1,1.4-6.5,2.1-9.7,3.3-5.8,2.1-11.3,4.8-16.2,9.2,1.5,15.2,3.5,30.1,4.5,45.7,1,15,13.5,51.2,16.4,67.7.4,2.2,8.2-.5,7.9-2.7-1.5-11.6-.6-21.3-.8-30.2-.2-13.1-1.2-23.5-3.7-34.6h0Z"/>
      <path class="cls-13" d="M99.5,437c-.4-5.3-2.1-10.5-3.8-15.5,0-.2,0-.3-.2-.5-.7-1.6-3.4-1.5-3.5.4-.1,0-.2,0-.3,0-.8-.6-2-.6-2.6,0-1.1-.6-2.3-2.1-2-.5.5,3.2.1,9.1,1.1,12.1,1,3.3,3.2,5.4,1.8,9.1,0,0,0,.2,0,.3-.3.7-.4,1.5,0,2.3.8,1.5,2.5,1.4,3.9.7,3.4-1.8,5.9-4.7,5.6-8.7h0Z"/>
      <path class="cls-13" d="M87.9,436.2c2.7-4.6,6.6-8.4,10.3-12.2.1-.1.2-.3.4-.3,1.3-1.2,3.7.2,2.9,1.9,0,0,.2.1.2.2,1-.2,2.1.4,2.3,1.2,1.2,0,3-.9,2,.5-1.8,2.6-4.2,8-6.4,10.4-2.4,2.5-5.3,3.4-5.6,7.3,0,.1,0,.2,0,.3,0,.8-.3,1.5-1.1,2.1-1.4,1-2.9.2-3.8-1.1-2.2-3.1-3.2-6.8-1.2-10.3h0Z"/>
      <path class="cls-13" d="M48.7,159.2c-6.9-3.7-16.4-2.4-23.2.9-15.9,7.8-16.8,30-12.3,45,2.2,7.4,6.1,16.9,14,19.6,6.6,2.3,14.3,2.9,20.2-.9,7.5-4.8,10.3-12.5,11.4-19.1,1.5-8.3,1.4-17,.7-25.4-.7-8-3.2-16.1-10.8-20.1h0Z"/>
      <path class="cls-5" d="M59.7,165.1c-5.3-6.1-14.1-8.9-21.9-9.4-.5,0-.8.1-1.1.3-4.2.3-8.2,1.7-12.4,3.1-1.6.5-3.3,1-5,1.2-2,.2-3.9,0-5.9.3-3.5.7-6.1,3.2-7.9,6.2-1.6,2.8-2.5,6.1-1.6,9.3,0,.2,0,.5,0,.8,1.4,5.4,3.9,4.6,4.4,10.1.7,7.6,3.4,17.4,5.7,22.8,1.7,4,6.5,9.1,10.6,11.4,3.9,2.2,11.1,3.1,17.1-3,2.2-2.2,4.3-4.8,4.6-7.7.4-3.8.6-7.8,2.1-11.3,1.2-2.9,3.1-4.4,5.6-6.1,2.7-1.8,4.7-4.1,5.5-7.3.5-1.9.4-3.9.2-5.9,1.7-1.4,2.9-3.2,3.2-5.6.5-3.4-.9-6.7-3.2-9.2Z"/>
      <path class="cls-9" d="M671.5,458.2c-1.3-2.1-3.5-3.1-5.8-4.1-2.6-1.1-5.3-2-8-2.7-5-1.3-10.2-2.1-15.3-2.5-1.1,0-2.2-.1-3.3-.2-.5-.4-1-.7-1.6-1-5-2-10.4-1.6-15.6-.6-4.9.9-9.7,1.9-14.7,2.2-10.3.6-20.6-.2-30.8,1.2-4.9.7-9.9,1.9-14.4,4.2-4.7,2.4-8,8.5-4,13.1,3.1,3.6,9.1,3.8,13.5,4,5.5.3,11-.3,16.4-1.1,10.4-1.5,20.8-4,31.4-3.4,10.6.6,20.9,3.9,31.6,4.4,5,.2,10.6,0,15.2-1.7,4.5-1.8,8.4-7,5.4-11.9h0Z"/>
      <path class="cls-5" d="M633.3,427.3c-1,0-2.2,0-3.4-.1.4,9.6.9,17.8,1.1,22.1,1,.8,2.5,1.1,3.5.2.1,1.1.7,1.8,1.5,2.2-.3,1.4-.6,2.8-1,4.2.5,0,1,0,1.5,0,2.8,0,1.9-1.2,2.4-4.3.2-1.5,1-11.6,2-24.3-2.5,0-5,0-7.5,0h0Z"/>
      <path class="cls-5" d="M593.2,426.7c-1.4,0-3-.3-4.6-.3.2,9.6.5,17.9.6,22.2.1,0,.2-.2.4-.3,1,1.1,2.5,1.5,3.7.6,0,1.1.6,1.8,1.4,2.2-.4,1.6-.9,3.1-1.3,4.6,0,0,0,0,0,0,2.6,0,4.2-.9,4.4-4,.2-3,1.2-12.8,2.4-24.8-2.3,0-4.6-.2-6.9-.3h0Z"/>
      <path class="cls-21" d="M630.1,451.5c0-1.2.3-2.6,1.4-3.3,1.2-.7,3.1-.4,4.4-.4,1.5,0,5.6-.4,6.3.2,2.1,1.9,5.2,3.6,7.2,5.5,1.3,1.2,2,3.3.7,4.8-1.2,1.4-3.3,1.4-5,1.4-2.3,0-9.6.2-9.7.1-2.3,0-4.8-.3-5.3-2.8-.4-1.7-.2-3.8,0-5.6h0Z"/>
      <path class="cls-21" d="M598.7,451.6c0-1.2-.1-2.6-1.3-3.4-1.2-.8-3.1-.5-4.4-.6-1.5,0-5.6-.7-6.3-.2-2.2,1.8-5.3,3.4-7.5,5.1-1.4,1.2-2.1,3.2-1,4.8,1.1,1.5,3.2,1.5,4.9,1.7,2.3.2,9.5.6,9.7.6,2.3,0,4.8,0,5.4-2.5.4-1.7.4-3.8.3-5.6h0Z"/>
      <path class="cls-13" d="M598.5,241.2c-2.3-9.7-4.3-19.6-5.9-29.4-1.7-13.5-2.6-27.2-5.3-40.6-.4-1.9-2.5-2.4-4-1.8,0-.4,0-.8.1-1.2.2-2.2-2.2-3.2-3.9-2.7-1.3-1.7-5-1.1-5.3,1.8-1.6,14.8-4.4,30.1-2.4,45,1.6,11.2,6.7,21.2,14.2,29.4.6,1,1.2,2,1.9,2.9.6.9,1.5,1.3,2.4,1.3,0,0,.1.1.2.2,1.6,1.5,4.2.5,4.9-1.2,1.7,0,3.7-1.6,3.2-3.7Z"/>
      <path class="cls-13" d="M671.4,162.8c-.4-3.7-6.1-3.7-5.8,0,.2,2.1.4,4.1.5,6.2-.3,0-.5-.1-.8-.1,0-.2,0-.4,0-.5.3-3.2-9.4-4.6-9.8-1.4-3.8,28-6.2,56.5-6.3,84.8-.2.4-.4.8-.4,1.3-.1,1.5,0,2.8.6,4.2.8,2.2,3.6,2.6,5,1.2,0,.4.1.8.2,1.2,0,.5.3.9.6,1.2-1,6-2.1,11.9-3.2,17.9-.7,3.7,4.4,5.1,5.6,1.5,13.1-37.5,17.8-77.8,13.9-117.4Z"/>
      <path class="cls-13" d="M631.5,111c-.2-1.6-1.2-2.9-2.9-2.9-3.4,0-6.9,0-10.3,0-.5,0-1,.1-1.3.3-1,.4-1.8,1.2-1.8,2.6,0,7.9,0,15.7.2,23.6,0,2.7,3.1,3.4,4.8,2.2,1.2,2.1,4.7,1.5,5.2-.8,0,0,0-.2,0-.2.4-.2.8-.6,1-1,1.2,2.7,5.3,2.5,5.5-.9.5-7.6.4-15.2-.5-22.8Z"/>
      <path class="cls-6" d="M659.9,259.8c-.9-15-6.2-31.4-10.7-45.7-1.1-3.3-51.7-4.9-52.7-1.9-4.5,14.3-12.5,35.9-13.4,50.8-.4,7.5-3.2,46.8-3.3,84.1-.1,38.8,2.3,75.6,2.7,77.6.9,4.6,1.9,4.5,6,5,4.4.5,8.9.5,13.3.1,2.7-.2,4.5-2,4.7-4.7,1.1-12.5,2.9-43.6,6.6-74.6,2.9-24.2,5.3-35.8,8.8-52.1,1.4,29.9,3.2,107.3,4.9,126.7.2,2.7,2,4.5,4.7,4.7,4.4.3,3.8.7,8.2.2,4.1-.4,6.2,0,7.1-4.7.7-3.9,14-150.2,13.1-165.5h0Z"/>
      <path class="cls-13" d="M624.1,116.7c9.6-1,16.3-11.7,15-23.9-1.3-12.2-10.1-21.2-19.7-20.1-9.6,1-16.3,11.7-15,23.9,1.3,12.2,10.1,21.2,19.7,20.1Z"/>
      <path class="cls-4" d="M647.9,83c-.9-3.2-3.8-5.5-5.2-8.5-1.3-2.9-2.2-6.1-4-8.7-2-2.9-4.8-5.1-8.2-6.2-3.4-1.2-7.2-1-10.5.2-.8.3-1.7.7-2.6,1.2-2.2,0-4.4.3-5.8.8-5.2,1.7-8,5.3-10.3,10.1-1.3,2.7-3.5,3.9-5.3,6.1-1.8,2.3-2.9,5.3-2.6,8.2.2,2.6,1.3,5,3.2,6.8.8.8,1.8,1.3,2.7,2,1,.9,1.7,2,2.7,2.9.5.5,1.1.8,1.7,1.1.1,0,.3.2.4.3,1.6.9,2.2,2.8,2.9,4.3.9,2,1.9,4,3.5,5.5,3.8,3.5,10.5,4,15.5,3.6,6-.4,9.2-5.1,11.4-10.3.9-2.2,1.6-4.4,1.9-6.7,2.2-.7,4.3-1.7,5.9-3.4,2.3-2.5,3.6-6,2.7-9.3h0Z"/>
      <path class="cls-5" d="M632,211.2c-.9,0-1.9-.1-2.8-.2,1,31.2,1.6,62.5,1.5,93.8-.1,32.1-.8,64.1-2.2,96.1-.4,8.6-.8,17.2-1.2,25.8.5,1.3,1.4,2.2,2.7,2.7,1.3-23.4,2.2-46.8,2.8-70.2.8-32,1-64.1.6-96.1-.2-17.3-.6-34.6-1.3-51.8ZM649.3,214.1c0,0,0-.1-.1-.2-1.5,59.9-2.9,119.8-4.3,179.8-.3,11.9-.6,23.9-.8,35.8,1.5-.5,2.4-1.5,2.9-4.1,0,0,0,0,0,0,1.3-54.7,2.6-109.3,3.9-164,.3-13.1.6-26.1.9-39.2-.8-2.7-1.7-5.4-2.5-8h0ZM595.2,216.3c-.6,2-1.3,4-2,6.1-3.5,58.5-5.6,117-6.6,175.6-.2,10.5-.3,20.9-.4,31.4.7.1,1.4.2,2.4.3.2,0,.3,0,.5,0,.6-53.8,2-107.6,4.6-161.4.8-16.3,1.7-32.7,2.6-49,0-.1,0-.3,0-.4s0-.1,0-.2c0-.4,0-.7,0-1.1,0-.8-.5-1.2-1.1-1.3h0ZM603.7,385.7c-.7,14.7-1.5,29.5-2.2,44.2.1,0,.2,0,.3,0,1,0,1.8-.4,2.6-.8,2.8-57.9,5.8-115.8,9-173.7.8-14.9,1.7-29.8,2.5-44.7-1,0-1.9,0-2.8,0-3.4,58.3-6.5,116.7-9.4,175h0Z"/>
      <path class="cls-9" d="M671.5,157.4c-2.7-9.5-9.8-19.7-18.2-24.8-.4-.2-.9-.5-1.5-.8-1.8-1-4-1.9-6.6-2.8,0,0,0,0,0,0,0,0-.2,0-.2,0-6.2-2-14.8-3.5-27-3.5s-16.4,1.3-20.2,3.1c-1.8.7-5.8,2.5-7.3,3.5-8.4,5.1-15.5,15.4-18.1,24.8-1.4,5.1-4.1,14.2,1.5,16.2,3.6,1.3,8.6,2.2,13.7,3.1.2,3.2.4,6.6.7,10.1-.4-1.7-.3-1.1,0,.4.1,1.3.2,2.7.3,4,.2,9.7-1.1,29.9-.6,33.7.6,4,2.4,8.1,6.7,9.2,4.3,1,9.4.3,13.7,0,4.9-.4,9.8-1.1,14.7-2,4.9-1,9.7-2.6,14.7-2.8,2.1,0,4.2.1,6.2.8,2,.7,3.4,2.2,5.4,2.9.1,0,.3,0,.4.1.2.4.4.6.4.5,0,0,.2-.1.3-.3,3.3.6,5.7-2.1,6.2-5.4.7-5.3,0-11.1-.2-16.4-.1-6-1.2-14.1-1.3-20.1.5-5,1.1-9.9,1.7-14.3,4.4-.8,8.6-1.5,13.2-3,7.1-2.4,2.9-11.1,1.5-16.2h0Z"/>
      <path class="cls-13" d="M1879.9,183.1c-4.9-16.1-15.8-30.9-28.9-41.3-1.8-1.4-2-3.5-4.1-2.2-1.9,1.1-3.1,3.6-2.3,5.8,3.3,9.6,7.7,18.5,13.2,27.1,2.6,4,5.5,8.4,7.2,13-1.1-.6-2.4-.7-3.9-.2-2,.7-4,2.6-3.8,4.9.2,2.1.9,3.7,2.8,4.8.3.2.6.3.9.4.2.3.4.6.5.7,0,0,0,0,0,.1-3.5.2-5.5.2-3,3.9,4.6,6.8,15.9,14.4,21.7,7.4,4.2-5.2,1-19.7-.4-24.2h0Z"/>
      <path class="cls-9" d="M1913.3,431.4c-6.9-5.4-15.6-5-23.8-3.9-15.2,2.1-29.6,8.3-44.9,9.6-15.5,1.3-30.7-2.7-45.9-4.9-3-.4-6.1-.8-9.1-1.1-.8-.8-1.8-1.5-3.2-1.8-7.8-2-16-2.2-23.9-.6-7.1,1.5-16.4,4.6-18.6,12.5-2.5,8.9,4.8,16.1,12.6,18.6,7.1,2.2,15,2.8,22.4,2.8,15.3.1,30.4-2.9,45.5-5.3,14.2-2.3,28.9-4.4,43.3-2.3,8.1,1.2,15.9,3.3,24.1,3.2,4.2,0,8.5-.6,12.6-1.3,3.7-.6,8.1-1.2,11.2-3.4,7.9-5.6,4.2-17-2.2-22h0Z"/>
      <path class="cls-13" d="M1869.9,357.4c1.2,8.4,8.2,75.7,8.2,79.8,0,3.1-2.2,4.2-4.9,4.8-3.2.7-5.2.2-5.9-3.1-1.7-8.2-18.7-66.2-18.4-76.4,0-.3-6.8-41.9-5.9-42.2,4.6-2.1,26.6,35.7,26.8,37.2h0Z"/>
      <path class="cls-5" d="M1867.2,437.9c1.2,1.7,3.3,2.1,5.3,1.7,2.7-.5,4.9-2.6,5.5-5.2,1.5.1,11.9,1.6,15.2,1.9,2.6.3,5.3,1.4,5.4,5,0,1.5-2.9,2.6-5.8,3.1-5,.7-15.6,3-20.6,3.6-4.5.5-4.9-3.4-5.1-4.8-.2-1.6-.6-3.9,0-5.5,0,0,0,0,0,0h0Z"/>
      <path class="cls-13" d="M1814.1,361.8c-2.1,8.2-21.2,73.2-22.7,77-1.1,2.9-3.6,3.1-6.3,2.6-3.2-.6-4.9-1.8-4.2-5.1,1.6-8.2,7.9-68.3,12-77.7,0-.2,9.6-41.3,10.6-41.3,5.1-.2,11.1,43.1,10.7,44.6h0Z"/>
      <path class="cls-5" d="M1781,435.3c.5,2,2.2,3.2,4.2,3.6,2.7.5,5.5-.5,7.1-2.7,1.4.7,10.4,6,13.3,7.6,2.3,1.3,4.4,3.3,3.1,6.7-.5,1.4-3.6,1.4-6.6.6-4.9-1.2-15.6-3.1-20.4-4.5-4.4-1.2-3.2-5-2.9-6.4.4-1.5.9-3.8,2.2-5.1,0,0,0,0,0,0h0Z"/>
      <path class="cls-23" d="M1889.5,367.7c-.2-7.3-.9-14.6-2.2-21.7-4.9-28.9-17.1-55.7-25.6-83.6-4-13.1-7.6-26.8-8.6-40.5,1.7-5.1,3.1-10.3,4-15.6,1.3.8-7.9-85.2-33.3-79.1-.6.1-2.7,5.7-3.1,6-1.1.6-2.4,1.1-2.8,2.4-4.2,14.3-.4,24.1-2.8,38.8-2.2,13.5-12.9,27-10.1,40.5-14.4,46.5-28.3,93.3-35.6,141.5-.9,6.2-1.8,12.5-2.5,18.7-.3,2.9-.9,5.8-.3,8.6.6,3.1,2.6,5.3,5.2,7,4.8,3.1,10.5,5.3,15.9,7.3,5.8,2.1,12,4,18.2,4.7,6,.7,10.2-2.8,11.3-8.6,1.1-5.8,10-45.6,11.7-58,.3,5.8.5,11.7.8,17.5.6,13.2,1.2,26.4,1.7,39.6.1,2.6,2,4.5,4.6,4.6.5,0,.9,0,1.3,0,.3.1.7.2,1.1.2,14.4,1,29.3-3,41.2-11.3,3-2.1,6.4-4.3,8.2-7.5,2-3.4,1.8-7.6,1.7-11.4h0Z"/>
      <path class="cls-13" d="M1823.1,94.3c.3,7.5-2.3,14.2,2.1,19.1,4.4,4.8,15.8,7.7,20.5,7.5,9.4-.4,11.9-13.2,11.3-28.1-.7-14.9-3.8-22.4-13.1-21.9-9.4.4-21.5,8.5-20.8,23.5Z"/>
      <path class="cls-14" d="M1869,325.8c-3.9-13.5-8.9-26.6-13.6-39.9-4.9-13.7-8.8-27.6-10.7-42-2.1-15.9-2.3-32-2.6-48.1,0-1.6-2.6-1.6-2.5,0,.2,14.4.5,28.9,2,43.2,1.5,13.9,4.5,27.4,8.9,40.7,4.5,13.3,9.8,26.3,13.9,39.8,4.2,13.6,7.5,27.4,10,41.4,1.6,9.4,2.8,18.8,3.6,28.2.3-.2.6-.4.9-.6.5-.4,1-.7,1.6-1.1-1.9-20.9-5.8-41.6-11.5-61.7ZM1842.1,318.1c-2-11.9-5.4-23.5-7-35.5-1.9-13.9-2.5-27.9-3.1-41.8,0-1.6-2.6-1.6-2.5,0,.5,12.1,1.1,24.3,2.4,36.3,1.3,11.7,3.9,23,6.4,34.6,2.5,11.8,3.5,23.8,4.6,35.7,1,11.8,1.9,23.6,1.8,35.4,0,5.8-.3,11.5-.8,17.2.9,0,1.7,0,2.6-.1,1.4-15.5.7-31.2-.5-46.7-.9-11.7-1.8-23.5-3.8-35.1h0ZM1792.8,277.9c-2.6,35.9-10.1,71.2-19.6,105.9-.8,2.9-1.6,5.9-2.5,8.8,0,0,.2.1.2.2.7.4,1.4.8,2,1.2,8-28.3,14.9-56.9,19.1-85.9,1.4-10,2.5-20.1,3.2-30.1.1-1.6-2.4-1.6-2.5,0ZM1816.7,260.2c-2,43.1-8.5,85.9-19.5,127.6-1.3,4.8-2.6,9.5-4,14.2.8.2,1.6.5,2.5.7,10-34.5,17-69.9,20.8-105.6,1.3-12.3,2.2-24.6,2.8-36.9,0-1.6-2.5-1.6-2.5,0h0Z"/>
      <path class="cls-6" d="M1879.7,189.1c-2.2-3.9-5.2-7.6-7.6-11.3-2.5-3.8-5-7.7-7.3-11.6-4.7-8-8.9-16.4-11.7-25.3-1.3-4-4.7-13.1-15.6-14.1,0-.3-.2-.6-.3-.9-1.7-4.2-8.8-.7-12.8,1.2-3.3,1.6-6.3-.5-11.6,9.4-9.6,17.9-7.8,31.3-7.5,54.3,0,1.9.3,6.3-10.5,20.5-5.4,7.1-12.2,13-19.1,18.6-.4.3-.8.7-1.2,1,0,0-.7.5-.9.7-.8.6-1.6,1.2-2.4,1.8-1.8,1.3-3.7,2.6-5.5,3.9-3.8,2.5-7.6,4.9-11.6,7.2-3.8,2.2-7.8,4.3-11.8,6.2-1.9.9-3.9,1.8-5.9,2.7-2.4,1.1-3.2,1.4-5.7,2.4-8.5,3.4-17.2,6.3-26.1,8.7-9.7,2.6-21.3,3.4-27.5,12.3-3.5,5-3.5,11.4-.7,16.7,2.6,4.8,7.3,7.8,12,10.1,8.6,4.2,15.3,8.5,21.8,15,6.9,6.9,11.3,14.7,15.8,23.9,2.1,4.2,4.2,8.3,7.1,12,2.4,3.1,5.2,5.6,8.4,7.6,2.5,2.8,5.4,5.3,8.6,7.3.7.5,1.6.6,2.4.4,1.4,1.1,4.2.5,4.3-1.9.5-7.2,4.4-13.5,8.2-19.4,3.8-5.8,7.8-11.5,12.1-17,8.7-11.3,18.1-22.1,27.1-33.2,17-20.9,33.3-43.4,40.2-69.8,2.7-10.2,3.8-20.8,3.1-31.2,0,0,0,0,0,0,0,0,.1,0,.2,0,1.5,2.4,3.4,4.5,5.6,6.2.4.4.9.8,1.3,1.1.8.8,1.6,1.6,2.4,2.4.6.6,1.4.8,2,.7,1.6.8,3.3.9,5.5-.2,3.9-2,6.9-5.6,9.9-8.6,2.5-2.6,7.5-5.8,5.2-9.9h0Z"/>
      <path class="cls-21" d="M1857.9,116.1c0-2.7-.9-5.2-2.3-7.5-1.4-2.1-3.3-3.9-4.5-6.2-.3-.5-1.3-2.5-1.1-4.7.2-3.2,1.9-4.5,3.8-7.8,9.7-15.7-6.8-18.9-12.2-20.1-6.5-1.5-19.3,1.2-24.4,9.1-3.3,5.1-4.8,12.3-6.6,20.1-.7,3-5.3,3.1-6.3,6.2-.5,1.6-.3,3.2-.4,4.8,0,1.2-.4,1.9-.9,3-1.4,3.2-1.2,6.6.6,9.6,1.7,2.7,4.5,4.5,7.4,5.7,2.3.9,5,1.3,7,2.9,2.4,2,4.5,3.3,7.6,3.9,3.2.6,6.6.9,9.6-.6,1.2-.6,2.2-1.4,3.2-2.3,1.4.1,2.7,0,4.1-.3,3,0,5.9-.4,8.6-1.9,4.8-2.8,7.2-8.5,7-13.9Z"/>
      <path class="cls-9" d="M1656.6,441.3c-3.2-10-16.6-8.1-24.7-7.9-16.4.3-32.8.5-49.3.9-5.9-1.6-12.2-2.1-18.2-1.6-8.3.7-21.9,2.8-21.8,13.8,0,10,14.1,12.8,21.8,13.4,8.3.7,16.6-1,24.7-2.4,4-.7,7.9-1.3,11.9-1.4,4.2-.1,7.8.5,11.8,1.6,8.6,2.3,17.3,2.9,26.1.9,8.1-1.8,21.1-6.6,17.7-17.2h0Z"/>
      <path class="cls-13" d="M1639.5,436.2c-2.3-9-5.2-44.5-14.3-70.3-1.3-3.7-6.8-14.2-8.8-18.8-3.6-8.2-4.4-17.5-6.4-26.2-.8-3.2-5.3-2.6-5.1.7.1,1.4.2,2.9.3,4.3-.4-1.1-.8-2.3-1.3-3.4-.7-1.9-2.7-1.9-3.9-.8-.1-.3-.3-.6-.4-.9-1.1-2.2-3.8-1.8-4.7,0-1.5-1.4-4.1-.4-4.3,1.9-.6,0-1.1.3-1.5.6-.9.4-1.6,1.3-1.4,2.6,1.1,7.2,6.5,16.2,9.9,22.6,14.6,27.8,31.5,86.7,33.2,90.4,1.5,3.1,1.2,4,4.2,3.2,3.5-.9,5.3-2.3,4.3-6h0Z"/>
      <path class="cls-13" d="M1638.3,430.8c-.4-1.2-1.9.6-3.4.2-1.5-.4-.3,2.1-1.7,2.5-1.6.4-3.9-.5-4.4.3-1.6,2.6-6.4,7.1-8,9.6-1,1.7-1.1,4,.7,5.2,1.7,1.1,3.8.4,5.6,0,2.4-.6,9.1-6.6,9.2-6.7,2.4-.7,5.3-.7,5.1-3.4-.1-1.9-2.6-6-3.2-7.8Z"/>
      <path class="cls-5" d="M1640.9,438.6c-2.5,1.1-10.2,6.1-11.9,6.9-1.4-1.8-4.3-7-5.1-6.4-1.8,1.4-3.3,2.9-4.7,4.7-1,1.3-2.4,2.7-3,4.2-1.3,3.2,2.4,3.2,4.6,3.1,1.9-.1,3.8-.2,5.5-.8,3.1-1,6.8-4.8,8.7-6.3.6-.5,1.2-.8,1.7-1.1.2.9.6,2.4.8,3.3.2.7.8.3,1.3.1.4-.2.8,0,.7-.6,0-.3-.1-.8-.2-1.2-.3-1.4.3-2.8,1.5-3.6h0c1-.7,1.4-.7,1.3-1.6,0-.6-.5-.9-1.3-.6h0Z"/>
      <path class="cls-13" d="M1556.9,321.4c.5,4.5,6.6,31.7,11.3,59.2,5.1,29.5,8.7,59.3,9.3,61.6.8,3.3.4,4.1,3.5,4,3.6-.2,5.7-1.2,5.5-5-.5-9.3.8-61.9-3-89-3.3-23.6-26.8-32.6-26.6-30.9Z"/>
      <path class="cls-13" d="M1586.3,435.8c-.2-1.3-2,.2-3.3-.5-1.4-.7-.7,2-2.2,2.1-1.6.1-3.7-1.3-4.4-.6-2.1,2.2-7.7,5.7-9.7,7.9-1.4,1.4-1.9,3.7-.4,5.3,1.4,1.5,3.7,1.2,5.5,1.1,2.5-.1,10.2-4.7,10.4-4.7,2.5-.3,5.3.4,5.7-2.3.2-1.9-1.3-6.4-1.6-8.3h0Z"/>
      <path class="cls-5" d="M1587.3,443.9c-2.6.6-11.2,3.9-13,4.4-1.1-2-2.8-7.7-3.7-7.3-2,1-3.8,2.2-5.5,3.6-1.2,1-2.9,2.2-3.8,3.5-1.9,2.9,1.8,3.6,3.9,3.9,1.9.3,3.7.5,5.6.3,3.2-.4,7.6-3.4,9.8-4.4.7-.3,1.3-.6,1.9-.8,0,.9,0,2.5,0,3.4,0,.7.7.5,1.2.4.4,0,.8.1.8-.5,0-.4,0-.8,0-1.3,0-1.4.9-2.7,2.2-3.2,0,0,0,0,0,0,1.1-.5,1.5-.4,1.6-1.3,0-.6-.3-1-1.1-.8h0Z"/>
      <path class="cls-4" d="M1642.9,211.8c-2.6-.7-5.6-.7-8.3-1-2.8-.3-5.7-.6-8.5-.9-11.9-1.2-23.8-2.8-35.2-6.6-3.4-1.1-7.3,1.3-8.2,4.6-1,3.6,1.2,7,4.6,8.2,0,0,0,0,.2,0-.2,1.8-.1,3.6,0,5.4.1,4.1.3,8.1.5,12.2.3,7.5.6,15.1,1.4,22.6.3,2.8,1.3,5.5,3.8,7,1,.6,2.1.9,3.2,1,0,.1,0,.2,0,.3-2.7-.2-5.5,1.9-6.4,4.2-1.2,2.9-.3,6.8,2.7,8.3,5.2,2.6,10.4,5.1,15.8,7,5.2,1.8,10.9,3.4,16.3,2,11.3-3,11.7-17.2,13.8-26.5,2.5-11,5.9-21.6,9.2-32.4.7-2.4,1.5-5,1.4-7.6-.1-3.8-2.6-7.1-6.3-8.2h0Z"/>
      <path class="cls-13" d="M1562.1,139c-4.4-4.7-14.7-14.7-15.2-15.2,1.6-6.7,12.8-32,14.2-38.9.3-1.6-1.7-5.6-2.9-4.6-5.5,4.9-22.5,31.2-26.1,38.1-.4.7-4.2,6.4,4.4,17.9,3.8,5.1,8,9.8,12,14.7,1.6,2,4,.3,4.2-1.7.2.2.4.3.6.5,2,1.5,4.1-1,3.8-2.9-.1-.9-.4-1.6-.8-2.4.6.3,1.2.6,1.8.8,2.2,1,4-.7,3.7-2.6,1-.9,1.4-2.7.3-3.9h0Z"/>
      <path class="cls-5" d="M1564.5,180.2c.1-.4.2-.9.4-1.3.4-1.5.9-3,1.4-4.4.2-.6.4-1.1.6-1.7,0-.1,0-.3.2-.4.4-.3.8-.7,1-1.4,0,0,0-.1,0-.2.4-1.2.4-2.9-.8-3.7,0,0-.1,0-.2-.1-1.2-.8-2.5-1-3.8-.2-1.5,1-1.9,3-2.5,4.5-.8,2.1-1.4,4.2-2,6.4-1.3,4.5-2.2,9.1-2.8,13.7-1.2,9.1-1.3,18.4-.8,27.6.2,4.6.6,9.2,1.6,13.7.7,3,2,10,6.2,9.7,2.2-.2,3.2-1.9,3.7-4,.6-.7.9-1.7.4-2.9,0,0,0-.1,0-.2,0-1.5,0-3,.1-4,.4-5,.8-9.9,1.1-14.9.7-11.4,1.2-22.8,1.4-34.2,0-2.7-3.6-3.5-5.3-2h0ZM1563,186.8c0-.4.2-.8.2-1.2-.3,2.5-.8,5-1.2,7.5.3-2.1.6-4.2,1-6.3Z"/>
      <path class="cls-13" d="M1611.5,138.6c-6.5-.6-22-13.7-22.7-13.8-3.2-6.1-11.5-32.6-15-38.6-.8-1.4-5-3.1-5.2-1.5-.9,7.3,3.7,38.3,5.5,45.9.2.8,5.9,14.2,19.9,17.2,6.2,1.3,10.8,5.4,17,6.4,2.5.4.1-12.3-1.1-14,.2,0,.5,0,.8,0,2.5-.2,2.3-1.4.7-1.6h0Z"/>
      <path class="cls-6" d="M1611.5,138.6c-6.5-.6-22-13.7-22.7-13.8-1.4-2.6-3.6-8.9-6.1-15.7-3.3,4.5-6.4,9.1-8.9,14.2-.3.5-.5,1.1-.8,1.8.4,2.4.8,4.3,1.1,5.6.2.8,5.9,14.2,19.9,17.2,4.1.9,7.6,3,11.2,4.6.8-.6,1.6-1.2,2.3-1.9,1.4-1.3,2.8-2.6,4.1-4-.5-2.9-1.2-5.6-1.7-6.3.2,0,.5,0,.8,0,2.5-.2,2.3-1.4.7-1.6h0Z"/>
      <path class="cls-6" d="M1626.9,155.7c-.9-7.8-2.7-12.2-10.5-14.3-2.2-.6-21.3,1.2-33.2,1.6-.4-.1-.8-.2-1.3-.1-7.4.3-13.7-3.5-19.6-7.6-3.3-2.3-6.5-3.9-10-.9-1.4,1.2-2.7,2.5-4,3.8-1.3,1.2-2.9,2.5-3.9,4-2,3.2-.2,6.8,1.2,9.9,1.3,2.8,2.9,5.4,4.7,7.8,3.6,4.7,8.2,8.6,13.4,11.4-.1,1.3-.3,2.3-.6,3.1-2.8,8.8-5.2,18.9-5.4,27.5,3.3,2.1,8.2,6.9,12.1,8.2,8.4,2.8,17.7,3.9,26.4,5.1,2.1.3,5.8-6.7,8-6.4,1.7-3.3,12.1-22.7,16.5-30,4.1-6.8,7.1-14.9,6.2-22.9h0Z"/>
      <path class="cls-13" d="M1574.9,69.1c0-.2-.3-.3-.4-.4-.3-.2-.7,0-.8.3,0,0,0,0,0,.1-.6,2.9-1.3,5.8-2,8.6-.2.6-.4,1.3-.5,1.9,0,0,0,.2-.1.3-.1-1.7-.3-3.3-1.1-4.9-.5-.9-1.7-.8-2.2,0-1.1,1.7-1.3,3.8-1.2,5.8,0,2.5,1.8,5.8,2.2,8.3.2,1.6,2.2.4,2-1.2,0-.1,0-.3,0-.4.4.2.8.2,1.1,0,.1,0,.2,0,.4,0,.3-.3.6-.6.9-1,0,.2,0,.3,0,.5,0,.5.7.7,1,.3,3-5.5,2.9-12.3,1-18.1h0Z"/>
      <path class="cls-5" d="M1616.9,185.3s0,0,0,0c.1-.3,0-.3,0,0Z"/>
      <path class="cls-5" d="M1637,372.9c-.6-4-1.2-8-1.8-12-1.1-7.3-2.2-14.6-3.4-21.9-4.7-29.2-13.6-55.6-19.2-84.6-3.2-16.6-5.4-20.4-3.4-43,2.1-12.9,6.9-24.5,7.6-26.2-.2,0-.5-.1-.8,0,1.9-3.7,3.4-7.5,4.7-11.2,3.1-8.9,4.3-18.6,1.9-27.8-.2-.9-.3-3.4-3.9-4.2-.5-.1,1.3,4.2,1.5,4.8,2.2,8.8,1.1,17.9-1.9,26.4-1.5,4.3-3.4,8.8-5.7,12.9-2.1.4-4.3.4-6.4.4-3.3,0-6.6-.3-9.8-.9-2.2-.4-4.3-1.1-6.4-1.3,2.4-5.1,4.7-10.8,4.8-16.6,0-5.1.2-11.3-1.4-16.2-1.1-3.3-4.1-7.9-7.9-9.1-1.6-.5-2.2,2-.7,2.5,2,.6,3.2,1.9,4.2,3.4,1.5,2.3,2.3,5.3,2.9,7.4,1.1,4.5.6,9.9.1,14.4-.5,4.9-2.8,10.1-5,14.4-1.2.4-2.3,1.1-3.3,2.6-3.1,4.5-6.5,8.6-11.1,11.8-2.2,1.5-4.7,3-7.2,3.8-2.2.7-5.4.6-6.6-1.3-.2-.9-.3-1.8-.5-2.7-.3-1.9-2.8-1.2-3,.4-.2,1.4,0,2.6.6,3.6,0,0,0,0,0,0,0,.5.4.9.8,1,1.5,1.6,3.8,2.4,6.2,2.4-.8.5-1.6,1.1-2.3,1.9-.2.2-.3.4-.4.7-2.5,1-5,3.3-4.7,5.8.6,6.9-8.1,34.2-9.1,42.1-2,15.8-2.8,31.8-2.7,47.7,0,16.3.5,32.6,1.2,48.8.4,8.3.8,16.6,1.5,24.9.3,3.8.8,7.6,1.4,11.4.6,4,1,8.8,3.9,12,3.4,3.7,8.4,4,13.1,4.5,4.2.5,8.5.8,12.7.8,9.4.2,38.4-2.6,48.2-8.2,6.3-3.6,12-7.7,12.4-15.3.2-3.5-.6-7.1-1.1-10.5Z"/>
      <path class="cls-4" d="M1618.8,141.2c-.4-1.9-3.4-1.5-3,.4,6.2,30.3,7.1,61.4,2.5,92.1-.3,2,2.7,2.3,3,.4,4.8-30.8,4-62.4-2.5-92.9h0Z"/>
      <path class="cls-5" d="M1573.8,60.6l-6-1.4c-1-.2-2,.4-2.3,1.4l-3.9,16.2c-.2,1,.4,2,1.4,2.3l6,1.4c1,.2,2-.4,2.3-1.4l3.9-16.2c.2-1-.4-2-1.4-2.3Z"/>
      <path class="cls-6" d="M1572.8,61.6l-4.5-1.1c-1-.2-2,.4-2.3,1.4l-3.2,13.2c-.2,1,.4,2,1.4,2.3l4.5,1.1c1,.2,2-.4,2.3-1.4l3.2-13.2c.2-1-.4-2-1.4-2.3Z"/>
      <path class="cls-13" d="M1568.6,74.1c-.1-.7-1-1.1-1.6-.9-1.9.6-2.9,2.2-4.2,3.6-.3.4-.6.8-1,1.2.4-1.6.8-3.2,1.3-4.7.8-2.4,2.3-4.9,2.2-7.5,0-.9-1.1-1.7-1.9-1.1-2.5,1.9-4.6,4.2-5.6,7.2-1.2,3.8-1.1,7.8-2.5,11.6-.5,1.6,1.9,2.2,2.5.7.1-.4.2-.7.4-1.1.2.4.5.7.9.8,0,.2.1.4.2.7.3.7,1.2.7,1.8.5,2-.9,3.2-3.2,4.5-4.9,1.4-1.8,3.3-3.6,2.9-6h0Z"/>
      <path class="cls-13" d="M1614.7,111c3.6-13.4-.2-26.1-8.6-28.4-8.4-2.3-18.1,6.7-21.8,20.1-3.6,13.4.2,26.1,8.6,28.4,8.4,2.3,18.1-6.7,21.8-20.1Z"/>
      <path class="cls-11" d="M1633.2,99.4c-1-2.2-2.6-3.9-5-4.5-.9-.2-2.2-.1-3.3,0-.7-2.4-1.9-4.6-3.9-6.4-3.2-3-7.5-5.2-11.8-5.9-4.2-.7-9.3-.3-13.5,1.9-3.2,1.7-6.2,4.6-7.1,8.4-.8,3.1,0,6,2,8.4.9,1.1,2.1,2.1,2.7,3.3.9,1.9.1,3.6-.7,5.3-2.9,6.2-4.7,13.5-.8,19.8,1.3,2.2,3.3,3.9,5.6,4.9.8.7,1.8,1.4,2.8,1.9,1.8.9,3.8,1.3,5.7,1.8.9.2,2,.4,2.8.9.9.5,1.5,1.4,2.3,2.1,3.5,2.7,8.2,1.1,11.5-1.3,3.8-2.8,5.5-6.3,4.8-11-.8-5-1.1-9.8-1-14.9,0-1.7,0-3.7-.5-5.6,0,0,0-.1,0-.2.7.2,1.3.3,1.9.3,2.2,0,4.6-.8,5.8-2.8,1.3-2.1.7-4.2-.2-6.3h0Z"/>
      <g class="cls-24">
        <g>
          <path class="cls-10" d="M1357.7,343.9l-27.8,1.2s-3,49.7-2.9,63.6c0,13.9,6.6,57,6.6,57,.2,4.9.9,22.9,3,24.9,2.4,2.2,5.5,1.7,6.7,1.5,0,0,1.4,3.4,4,2.8,0,0,1.7,2.8,4.4,2.6,2.7-.2,12.9-2.7,12.9-2.7,0,0-.6-3.9-3.9-3.5,0,0-.8-2.4-6.1-1.4,0,0,.7-3.7-3.8-3.7l-1.9-.5,1.5-7.6,1.7,1c1.7,1,4.3,7.5,6,7.3,1.7-.2,3.6-2,3.6-2l-9-23.9-4.2-3.2,6.1-56.9,3.2-56.4h0Z"/>
          <path class="cls-25" d="M1342.5,485.2c0,0,1.4.6,3.8.3,1.2,0,2.6-.4,4.3-.3.8,0,1.7.3,2.5.8.8.5,1.5,1.3,1.8,2.4.1.5,0,1.1-.2,1.6-.3.5-.9.8-1.3.9-.9.2-1.7.3-2.5.4-1.5.2-2.9.4-4.2.6-2.4.3-3.8.4-3.9.3,0-.1,1.4-.5,3.8-.9,1.3-.2,2.7-.5,4.1-.7.8-.1,1.6-.3,2.4-.4.4,0,.6-.2.8-.5.2-.3.2-.6.1-1-.4-1.5-2.1-2.4-3.5-2.5-1.5-.2-2.9,0-4.1,0-2.5.1-3.9-.8-3.8-.9h0Z"/>
          <path class="cls-25" d="M1360.2,490.8s.3-.1.6.3c.1.2.2.5.1.8,0,.4-.4.6-.8.8-.7.3-1.5.4-2.4.6-.9.2-1.9.4-2.9.6-4.1.8-7.4,1.2-7.5.9,0-.2,3.2-1.1,7.3-1.8,1-.2,1.9-.3,2.9-.5.9-.2,1.7-.2,2.2-.4.6-.2.7-.6.6-.9,0-.3-.3-.4-.3-.4h0Z"/>
          <path class="cls-25" d="M1341.2,479.3c.2,0,.6,1.2.7,2.7.2,1.5,0,2.8-.2,2.8-.2,0-.6-1.2-.7-2.7-.2-1.5,0-2.8.2-2.8Z"/>
          <path class="cls-25" d="M1347.8,470.2c.2,0-.3,1.9-1.8,3.7-1.5,1.8-3.3,2.6-3.4,2.4-.1-.2,1.3-1.3,2.7-2.9,1.4-1.6,2.2-3.2,2.5-3.1h0Z"/>
          <path class="cls-25" d="M1350.3,477.5c-.1.2-1-.2-1.7-1-.7-.8-.9-1.7-.7-1.8.2,0,.7.5,1.4,1.3.6.8,1.1,1.4,1,1.6h0Z"/>
          <path class="cls-10" d="M1444.2,346.3l27.8-.9s6.8,49.4,7.8,63.2c1,13.8-2.2,57.3-2.2,57.3.2,4.9.8,22.9-1.1,25-2.2,2.4-5.3,2.1-6.6,2,0,0-1.1,3.5-3.7,3.1,0,0-1.5,3-4.2,2.9-2.7,0-13.1-1.7-13.1-1.7,0,0,.4-3.9,3.7-3.8,0,0,.6-2.5,5.9-1.9,0,0-1-3.6,3.5-4l1.8-.6-2-7.4-1.6,1.1c-1.6,1.1-3.7,7.8-5.4,7.7s-3.7-1.8-3.7-1.8l7.2-24.5,3.9-3.5-10.5-56.3-7.5-56h0Z"/>
          <path class="cls-25" d="M1470.2,486c0,0-1.3.7-3.7.6-1.2,0-2.6-.2-4.3,0-.8.1-1.7.4-2.4,1-.8.6-1.4,1.4-1.6,2.5,0,.5,0,1.1.3,1.6.3.5.9.8,1.4.8.9.1,1.7.1,2.5.2,1.5,0,2.9.2,4.2.2,2.4.1,3.9.1,3.9,0,0-.1-1.5-.3-3.8-.6-1.3-.1-2.7-.3-4.2-.4-.8,0-1.6-.2-2.4-.2-.4,0-.6-.2-.8-.4-.2-.3-.2-.6-.2-1,.2-1.6,1.9-2.5,3.3-2.8,1.5-.3,2.9-.2,4.1-.2,2.5,0,3.8-1.1,3.7-1.2h0Z"/>
          <path class="cls-25" d="M1453,492.9s-.4-.1-.6.3c0,.2-.1.5,0,.8.1.3.4.6.8.8.8.3,1.5.3,2.4.5,1,.1,1.9.2,2.9.3,4.1.4,7.5.6,7.5.4,0-.2-3.3-.8-7.4-1.2-1,0-2-.2-2.9-.3-.9,0-1.7,0-2.3-.2-.6-.1-.7-.6-.6-.9,0-.3.3-.4.2-.4h0Z"/>
          <path class="cls-25" d="M1471.1,480c-.2,0-.5,1.2-.5,2.8,0,1.6.1,2.8.4,2.8.2,0,.5-1.2.5-2.8,0-1.6-.1-2.8-.4-2.8Z"/>
          <path class="cls-25" d="M1463.8,471.4c-.2,0,.4,1.9,2.1,3.6,1.7,1.7,3.5,2.3,3.6,2.1.1-.2-1.4-1.2-2.9-2.7-1.5-1.5-2.5-3-2.7-2.9h0Z"/>
          <path class="cls-25" d="M1461.9,478.9c.2.2,1-.3,1.6-1.2.6-.9.7-1.8.5-1.9-.2,0-.7.6-1.2,1.4-.5.8-1,1.5-.8,1.7h0Z"/>
          <path class="cls-10" d="M1380,293.9l38-.5-4.2-32.3s2.6-.6,2.8-14.6c.2-14,.8-37.9.8-37.9-16.3-7-35.1-4.6-49.1,6.2l-2.1,1.6,13.9,77.5h0Z"/>
          <path class="cls-10" d="M1370.5,233.6c-.2-.1-9.7-2.8-9.4,6.8.3,9.6,9.9,7.3,9.9,7s-.5-13.8-.5-13.8h0Z"/>
          <path class="cls-10" d="M1415.7,231.6c.2-.1,8.8-2.4,8.5,7.2-.3,9.6-9.9,7.3-9.9,7s1.4-14.2,1.4-14.2Z"/>
          <path class="cls-22" d="M1426.5,203.9c.2-1.7-.5-3.6-1.9-4.6-1.4-1-3.6-.9-4.8.4.7-2.3-1.3-5.1-3.7-5.2-2.3-.2-4.2,1.6-6.5,2.2-2.2.6-4.5,0-6.6-.8-2.1-.8-4-2-6.1-2.8-4.4-1.6-9.4-1.4-13.7.5-4.2,2-7.7,5.6-9.3,10-3.1-1-6.6.6-8.5,3.2-1.9,2.6-2.4,6-2,9.2.2,2.2.9,4.2,1.6,6.3,0,.2,0,.4,0,.5.2,7.7,4.2,32.1,7.5,32.2,5.7,0,1.2-26.1,1.2-26.1,7-2.7,4.4-13.3,6.2-14.9,1.8-1.6,5.5-5.3,20.2,2.2,5.8,2.9,13.4,2.8,17.5,1.9.1,0,.2,0,.4,0,0,0,0,0,0,0,0,0,0,0,.1,0,1.3-.3,2.6-.9,3.8-1.6,1.3-.8,2.6-2,3.1-3.5s.4-3.3-.8-4.4c1.1-1.4,1.9-3,2.1-4.7h0Z"/>
          <path class="cls-22" d="M1367.4,232.6c1.4,8,1.2,12.3,2.5,17.6,2.1,8.5,6.3,15,14,19.3,7.7,4.2,18,4.2,24.6-1.6,4.6-4,7.8-8.5,8.5-14.6.7-6,1.4-16.7,1.4-22.8,0-11,.8-21.4.8-21.4l-31.4-5.7-17.8,10.6-2.6,18.6Z"/>
          <path class="cls-12" d="M1456.9,451.9h-48.6l-57.9,7.8s4.6,82.7,6.1,108c1.4,25.3,2.3,68.3,2.3,68.3l10.8,100.1,37.6-4v-19.2c22.3-5.3,31.6,7.6,31.6,7.6,0,0,13.9-65.9,15.8-78.3,1.9-12.4,0-59.3,0-59.3l2.3-131.1h0ZM1407.2,635.7v-101.2l1.2-32.7v7.4l2.2,82.8-3.4,43.6h0Z"/>
          <path class="cls-3" d="M1436.4,409.5s-.5.7-1.6,2c-.5.6-1.2,1.4-2.1,2.2-.8.8-1.8,1.8-2.9,2.7-1.1,1-2.4,2-3.8,3-1.4,1.1-3,2-4.7,3-3.4,1.9-7.4,3.7-11.7,5-4.3,1.3-8.6,2-12.5,2.3-1.9,0-3.8.2-5.5.1-1.7,0-3.3-.2-4.8-.3-1.5-.1-2.8-.4-3.9-.6-1.2-.2-2.1-.4-2.9-.7-1.6-.4-2.5-.7-2.4-.8,0-.2,3.5.9,9.3,1.5,1.5.1,3,.3,4.8.2,1.7,0,3.5,0,5.5-.2,3.8-.4,8-1.1,12.3-2.4,4.3-1.3,8.1-3.1,11.5-4.9,1.7-1,3.3-1.9,4.7-2.9,1.4-.9,2.7-1.9,3.8-2.9,4.6-3.7,6.9-6.6,7-6.4Z"/>
          <path class="cls-7" d="M1355.6,418.9l1.4-55.4-9.4-39.5,2.8-27.1,29.9-15.4,37.5-3.3,32,8.5v106.7c0,0,10.1,62.6,10.1,62.6l-108.3,5.6,3.9-42.7Z"/>
          <path class="cls-7" d="M1353.7,296.9s-10.6-2.1-15.8,17.1c-5.1,19.2-13.1,51.3-13.1,51.3l35.6-1.4-4.3-65.6"/>
          <path class="cls-7" d="M1449.2,287.2s19.9.9,23.8,35.3c.1,1,6.8,37.4,6.8,37.4h-35.2l4.6-72.7Z"/>
          <path class="cls-2" d="M1414,409.5c0,.1-1.4.9-3.9,2-2.5,1.1-6,2.5-10,3.7-4,1.2-7.6,2-10.3,2.5s-4.4.6-4.4.5c0-.1,1.6-.5,4.2-1.1,2.6-.6,6.2-1.5,10.2-2.7,3.9-1.2,7.4-2.5,10-3.4,2.5-1,4.1-1.6,4.1-1.5h0Z"/>
          <path class="cls-2" d="M1355.1,352.1c0,.2-6.4,1.7-14.4,3.3-8,1.6-14.5,2.7-14.6,2.4,0-.2,6.4-1.7,14.4-3.3,8-1.6,14.5-2.7,14.6-2.4Z"/>
          <path class="cls-2" d="M1475.6,344.2c0,.2-6.1.4-13.5.2-7.5-.1-13.5-.4-13.5-.6,0-.2,6.1-.4,13.5-.2,7.5.1,13.5.4,13.5.6Z"/>
          <path class="cls-2" d="M1353.1,321.5s.2.7.4,1.9c.1,1.4.4,3.2.6,5.3.5,4.6,1.2,10.7,1.9,17.4.7,6.8,1.3,12.9,1.6,17.4.2,2.2.2,4,.2,5.3,0,1.2,0,1.9-.1,1.9s-.2-.7-.4-1.9c-.2-1.4-.4-3.2-.6-5.3-.5-4.6-1.2-10.7-1.9-17.4-.7-6.8-1.3-12.9-1.6-17.4-.1-2.2-.2-4-.2-5.3,0-1.2,0-1.9.1-1.9Z"/>
          <path class="cls-2" d="M1452.2,319.8s0,.7,0,1.8c0,1.2,0,2.9-.2,5-.2,4.2-.6,10.1-1.1,16.6-.4,6.4-.8,12.1-1.2,16.6-.1,2-.2,3.6-.3,5,0,1.2-.2,1.8-.2,1.8,0,0-.1-.7-.1-1.8,0-1.2,0-2.9,0-5,.1-4.3.4-10.1.9-16.6.5-6.4,1-12.1,1.3-16.6.2-2,.3-3.6.5-5,.1-1.2.2-1.8.3-1.8Z"/>
          <path class="cls-2" d="M1449.6,287.7c.2,0,1.3,2.3,1.9,5.4.6,3.2.3,5.8.1,5.8-.2,0-.4-2.5-1-5.6-.5-3.1-1.3-5.5-1-5.6h0Z"/>
          <path class="cls-2" d="M1455.7,449.7c0,.2-23,2-51.4,4-28.4,2-51.5,3.4-51.5,3.1,0-.2,23-2,51.4-4,28.4-2,51.5-3.4,51.5-3.1h0Z"/>
          <g class="cls-17">
            <path d="M1352.9,324.9c-1.9,13.4-4.6,26.7-8,39.7l11.5-.7-3.5-39h0Z"/>
          </g>
          <path class="cls-7" d="M1407.9,201.9s-.5.2-1.5.3c-1,0-2.4-.2-4-.9-1.6-.7-3.3-2-5.1-3.4-1.8-1.4-4-2.7-6.6-3.1-2.6-.3-5.1.2-7.1,1.2-2,1.1-3.4,2.6-4.4,4.1-1.8,3-1.8,5.3-1.9,5.2,0,0,0-.5.2-1.5.2-.9.6-2.3,1.5-3.8s2.3-3.1,4.4-4.2c2-1.1,4.7-1.7,7.3-1.3,2.7.3,5,1.7,6.8,3.1,1.8,1.4,3.4,2.7,5,3.4,1.5.8,2.9,1,3.9,1s1.5-.2,1.5-.1h0Z"/>
          <path class="cls-7" d="M1377.8,205.9s-.8-.5-2.3-.8c-1.4-.3-3.6-.3-5.5.9-1.9,1.2-2.9,3.2-3.2,4.6-.3,1.4-.2,2.4-.2,2.4s0-.2-.1-.6c0-.4,0-1.1.1-1.8.3-1.5,1.3-3.5,3.3-4.8,2-1.3,4.3-1.2,5.8-.8.7.2,1.3.5,1.7.7.3.2.5.4.5.4Z"/>
          <path class="cls-7" d="M1376.8,240.1c-.2.1-1.4-2.1-2.6-4.9-1.2-2.8-2-5.2-1.8-5.3s1.4,2.1,2.6,4.9c1.2,2.8,2,5.2,1.8,5.3Z"/>
          <path class="cls-7" d="M1385.1,245.6c-.1.2-2.5-1.5-4.4-4.4-1.9-3-2.5-5.8-2.3-5.8.3,0,1.2,2.5,3,5.4,1.8,2.8,3.9,4.7,3.7,4.9Z"/>
          <path class="cls-7" d="M1393.2,247.4c-.1.2-1.9-.7-3.8-2.3-1.9-1.6-3-3.3-2.8-3.4.2-.2,1.6,1.2,3.4,2.7,1.8,1.6,3.3,2.8,3.2,3Z"/>
          <path class="cls-7" d="M1407.5,234.4c.2,0,.2,2.3-.8,4.8-1,2.5-2.6,4.1-2.8,4-.2-.2,1-1.9,2-4.3,1-2.4,1.4-4.5,1.7-4.4h0Z"/>
          <path class="cls-7" d="M1412.4,226.8c.2,0,.5,2.7-.6,5.9-1,3.2-2.7,5.3-2.9,5.1-.2-.1,1.1-2.4,2.1-5.4,1-3,1.1-5.6,1.4-5.6h0Z"/>
          <path class="cls-7" d="M1416.1,207.4s-.4.4-1.3,1c-.9.5-2.3,1.1-4.1,1.3-1.8.2-4.1-.1-6.3-1-2.3-.8-4.6-2.2-7-3.5-2.4-1.3-4.8-2.5-7.1-3.1-2.3-.6-4.5-.5-6.2,0-1.7.5-3,1.4-3.7,2.1-.7.7-1,1.2-1,1.2,0,0,.2-.5.9-1.3.7-.8,1.9-1.7,3.7-2.2,1.8-.6,4-.7,6.4-.1,2.4.6,4.8,1.7,7.2,3.1,2.4,1.4,4.7,2.7,7,3.5,2.2.9,4.4,1.2,6.2,1,3.7-.3,5.4-2.1,5.4-2h0Z"/>
          <path class="cls-7" d="M1418.9,212s-.2.1-.5.3c-.3.2-.8.5-1.5.7-1.3.6-3.2,1.1-5.3,1.3-2.2.2-4.1,0-5.5-.3-.7-.2-1.2-.3-1.6-.5-.4-.1-.6-.2-.6-.2,0,0,.8.2,2.2.5,1.4.3,3.3.4,5.4.2,2.1-.2,4-.7,5.3-1.2,1.3-.5,2.1-.9,2.1-.8h0Z"/>
        </g>
      </g>
    </g>
  </g>
</svg>