<svg width="19" height="20" viewBox="0 0 19 20" fill="none" xmlns="http://www.w3.org/2000/svg">
<path d="M18.856 13.9644C18.7803 15.4525 18.4423 16.7717 17.3552 17.8587C16.2681 18.9483 14.9515 19.2888 13.4609 19.3595C11.9274 19.4477 7.32935 19.4477 5.7933 19.3595C4.30518 19.2838 2.9911 18.9458 1.89897 17.8587C0.806842 16.7717 0.468863 15.455 0.39824 13.9644C0.309962 12.4309 0.309962 7.83285 0.39824 6.29681C0.473907 4.80869 0.809364 3.48956 1.89897 2.40247C2.98858 1.31539 4.30771 0.974885 5.7933 0.906785C7.32682 0.818507 11.9249 0.818507 13.4609 0.906785C14.949 0.982452 16.2681 1.32043 17.3552 2.40752C18.4448 3.4946 18.7853 4.81121 18.856 6.30185C18.9442 7.83537 18.9442 12.4309 18.856 13.9644ZM17.2468 10.1331C17.2468 8.78121 17.3578 5.87811 16.8735 4.65483C16.5456 3.83762 15.9201 3.21211 15.1079 2.88926C13.8897 2.40752 10.9815 2.51597 9.62962 2.51597C8.27771 2.51597 5.37461 2.40499 4.15133 2.88926C3.33412 3.21715 2.70861 3.84267 2.38576 4.65483C1.90401 5.87307 2.01247 8.78121 2.01247 10.1331C2.01247 11.485 1.90149 14.3881 2.38576 15.6114C2.71365 16.4286 3.33917 17.0541 4.15133 17.377C5.36957 17.8587 8.27771 17.7503 9.62962 17.7503C10.9815 17.7503 13.8846 17.8613 15.1079 17.377C15.9251 17.0491 16.5506 16.4236 16.8735 15.6114C17.3578 14.3932 17.2468 11.485 17.2468 10.1331ZM14.3941 10.1331C14.3941 12.7714 12.2679 14.8976 9.62962 14.8976C6.99136 14.8976 4.86512 12.7714 4.86512 10.1331C4.86512 7.49487 6.99136 5.36862 9.62962 5.36862C12.2679 5.36862 14.3941 7.49487 14.3941 10.1331ZM12.7269 10.1331C12.7269 8.42557 11.3372 7.03582 9.62962 7.03582C7.92207 7.03582 6.53232 8.42557 6.53232 10.1331C6.53232 11.8407 7.92459 13.2304 9.62962 13.2304C11.3347 13.2304 12.7269 11.8407 12.7269 10.1331ZM14.5883 4.0621C13.9754 4.0621 13.476 4.55898 13.476 5.17441C13.476 5.78984 13.9704 6.28672 14.5883 6.28672C15.2063 6.28672 15.7006 5.79236 15.7006 5.17441C15.7006 4.55646 15.2038 4.0621 14.5883 4.0621Z" fill="#FFDF8A"/>
</svg>
