<?xml version="1.0" encoding="UTF-8"?>
<svg xmlns="http://www.w3.org/2000/svg" width="21" height="21" version="1.1" viewBox="0 0 21 21">
  <defs>
    <style>
      .cls-1 {
        fill: #e7e0d9;
        fill-rule: evenodd;
      }
    </style>
  </defs>
  <!-- Generator: Adobe Illustrator 28.7.1, SVG Export Plug-In . SVG Version: 1.2.0 Build 142)  -->
  <g>
    <g id="Layer_1">
      <path class="cls-1" d="M18.7,1.9c.8-.3,1.6,0,2,.8.1.3.1.5,0,.8-.6,3.8-1.7,10.8-2.2,14.5-.1.8-.9,1.4-1.7,1.3-.2,0-.5-.1-.7-.3-2-1.5-5-3.7-6.6-4.8-.4-.3-.5-1-.2-1.4,0,0,0,0,.1-.1,1.4-1.3,4.2-4,6.1-5.8.1,0,.1-.3,0-.4,0,0-.2-.1-.3,0-2.5,1.6-6.2,4.1-8.1,5.3-.7.5-1.6.6-2.4.4-1-.3-2.5-.6-3.8-1-.5-.1-.9-.7-.7-1.2,0-.3.3-.6.6-.7C5.4,7.3,14.3,3.7,18.7,1.9h0Z"/>
    </g>
  </g>
</svg>