<svg width="21" height="21" viewBox="0 0 21 21" fill="none" xmlns="http://www.w3.org/2000/svg">
<path d="M20.6113 10.4763C20.6113 16.1564 16.0082 20.7594 10.3281 20.7594C4.64801 20.7594 0.0449219 16.1564 0.0449219 10.4763C0.0449219 4.7962 4.65053 0.193115 10.3281 0.193115C16.0056 0.193115 20.6113 4.7962 20.6113 10.4763ZM15.0775 6.7812C15.0649 6.67274 15.0144 6.57437 14.9312 6.50375C14.8076 6.40286 14.6184 6.38268 14.5327 6.38521C14.1467 6.39277 13.5515 6.5996 10.6963 7.78505C9.695 8.20122 7.69739 9.0613 4.69845 10.3678C4.21166 10.562 3.95691 10.7512 3.93421 10.9353C3.88881 11.291 4.40083 11.4019 5.04652 11.6113C5.57115 11.7828 6.27737 11.982 6.64561 11.9896C6.97855 11.9972 7.34933 11.8585 7.76045 11.5785C10.5601 9.68681 12.0079 8.73089 12.0987 8.71071C12.1618 8.69557 12.25 8.67792 12.3106 8.73089C12.3711 8.78385 12.3635 8.88474 12.3585 8.91249C12.308 9.1294 9.67735 11.523 9.52602 11.6794C8.94843 12.2797 8.29012 12.6479 9.30406 13.3163C10.1818 13.8964 10.6938 14.2647 11.5993 14.8574C12.1769 15.2357 12.6309 15.6872 13.2287 15.6317C13.5036 15.6065 13.7861 15.3492 13.9298 14.5774C14.2703 12.7564 14.9412 8.8116 15.0951 7.18476C15.1052 7.04855 15.0976 6.91488 15.0775 6.77868V6.7812Z" fill="#FFDF8A"/>
</svg>
