<svg width="19" height="22" viewBox="0 0 19 22" fill="none" xmlns="http://www.w3.org/2000/svg">
<path d="M18.9987 9.24977C17.1726 9.25482 15.3919 8.68479 13.9089 7.62293V15.0333C13.9089 20.2215 8.28929 23.4626 3.79719 20.8672C-0.694917 18.2718 -0.69239 11.7871 3.80224 9.19428C5.10119 8.44518 6.61201 8.15008 8.09509 8.3569V12.0848C5.82255 11.371 3.6282 13.3837 4.14778 15.7092C4.66484 18.0347 7.50488 18.9276 9.26036 17.3159C9.89849 16.7307 10.2617 15.9034 10.2617 15.0358V0.545532H13.9113C13.9088 0.853245 13.9341 1.16096 13.987 1.46615C14.2443 2.83572 15.0514 4.03883 16.2217 4.79298C17.0465 5.33778 18.0125 5.62784 18.9987 5.62784V9.25229V9.24977Z" fill="#FFDF8A"/>
</svg>
