<svg width="24" height="17" viewBox="0 0 24 17" fill="none" xmlns="http://www.w3.org/2000/svg">
<path d="M23.095 8.11333C23.095 8.11333 23.095 11.821 22.6208 13.5992C22.361 14.5803 21.5943 15.3194 20.6182 15.5817C18.8526 16.0584 11.7701 16.0584 11.7701 16.0584C11.7701 16.0584 4.69022 16.0584 2.92214 15.5817C1.94855 15.3194 1.17928 14.5803 0.919494 13.5992C0.445314 11.821 0.445312 8.11333 0.445312 8.11333C0.445312 8.11333 0.445314 4.40565 0.919494 2.62747C1.17928 1.64632 1.94603 0.874514 2.92214 0.612201C4.6877 0.135498 11.7701 0.135498 11.7701 0.135498C11.7701 0.135498 18.8526 0.135498 20.6182 0.612201C21.5917 0.874514 22.3585 1.64632 22.6208 2.62747C23.095 4.40565 23.095 8.11333 23.095 8.11333ZM15.3744 8.11333L9.45474 4.74615V11.4805L15.3744 8.11333Z" fill="#FFDF8A"/>
</svg>
