<svg width="24" height="17" viewBox="0 0 24 17" fill="none" xmlns="http://www.w3.org/2000/svg">
<path d="M23.095 8.11336C23.095 8.11336 23.095 11.8211 22.6208 13.5992C22.361 14.5804 21.5943 15.3194 20.6182 15.5817C18.8526 16.0584 11.7701 16.0584 11.7701 16.0584C11.7701 16.0584 4.69022 16.0584 2.92214 15.5817C1.94855 15.3194 1.17928 14.5804 0.919494 13.5992C0.445314 11.8211 0.445312 8.11336 0.445312 8.11336C0.445312 8.11336 0.445314 4.40568 0.919494 2.6275C1.17928 1.64635 1.94603 0.874544 2.92214 0.612231C4.6877 0.135529 11.7701 0.135529 11.7701 0.135529C11.7701 0.135529 18.8526 0.135529 20.6182 0.612231C21.5917 0.874544 22.3585 1.64635 22.6208 2.6275C23.095 4.40568 23.095 8.11336 23.095 8.11336ZM15.3744 8.11336L9.45474 4.74618V11.4806L15.3744 8.11336Z" fill="#E7E0D9"/>
</svg>
