<svg width="34" height="38" fill="none" xmlns="http://www.w3.org/2000/svg"><path d="M27.87 0a6.12 6.12 0 0 0-5.75 4c0 .03 0 .1-.04.15v.15c-1.34 4.07-1.04 9.36-1 10.08h-.04c0 .04.04.04.04.04 0 .03.04 0 .04 0 .73-.12 6.17-.95 9.89-3.16A6.08 6.08 0 0 0 27.87 0Z" fill="#F4333D"/><path d="M10.08 38a10.1 10.1 0 0 0 9.47-6.58c0-.08.08-.15.08-.27 0-.11.03-.15.07-.26 2.15-6.7 1.61-15.45 1.54-16.63l.07-.07h-.07v-.08l-.08.08c-1.19.19-10.16 1.56-16.3 5.17a10.1 10.1 0 0 0-3.4 13.85C3.3 36.17 6.56 38 10.08 38Z" fill="#F4333D"/></svg>