<svg id="Layer_1" xmlns="http://www.w3.org/2000/svg" viewBox="0 0 130 130"><defs><style>.cls-8{fill:#eb2127}.cls-9{fill:#f89f1f}.cls-11{fill:#f7901f}.cls-12{fill:#333}</style></defs><ellipse cx="57.33" cy="85.31" rx="30.65" ry="12.38" style="fill:#334c9e;stroke:#f89f20;stroke-miterlimit:10;stroke-width:.75px"/><ellipse class="cls-8" cx="75.72" cy="77.57" rx="27.22" ry="11.71"/><path class="cls-9" d="M75.72 89.65c-15.21 0-27.59-5.42-27.59-12.08s12.38-12.08 27.59-12.08 27.59 5.42 27.59 12.08-12.38 12.08-27.59 12.08Zm0-23.41c-14.8 0-26.84 5.08-26.84 11.33S60.92 88.9 75.72 88.9s26.84-5.08 26.84-11.33-12.04-11.33-26.84-11.33Z"/><ellipse class="cls-8" cx="77.83" cy="76.76" rx="20.33" ry="7.93"/><path class="cls-9" d="M77.83 85.07c-11.61 0-20.71-3.65-20.71-8.31s9.1-8.31 20.71-8.31 20.71 3.65 20.71 8.31-9.1 8.31-20.71 8.31Zm0-15.87c-10.82 0-19.96 3.46-19.96 7.56s9.14 7.56 19.96 7.56 19.96-3.46 19.96-7.56-9.14-7.56-19.96-7.56Z"/><path d="M96.31 27.17h-.02c-.5-.1-1.03-.16-1.56-.19.4-.36.77-.73 1.1-1.13v-.01c.88-1.07 1.18-2.61.68-4.01a4.1 4.1 0 0 0-5.22-2.51c-1.67.58-2.77 2.16-2.79 3.83v.22c.01.43.06.87.12 1.31-.22-.38-.46-.75-.72-1.1-.02-.03-.05-.06-.07-.09a.55.55 0 0 0-.07-.09c-1.06-1.29-2.9-1.83-4.57-1.25a4.1 4.1 0 0 0-2.51 5.22c.49 1.4 1.69 2.41 3.04 2.7h.02c.5.1 1.03.16 1.56.19-.4.36-.77.73-1.1 1.13v.01c-.88 1.07-1.18 2.61-.68 4.01a4.1 4.1 0 0 0 5.22 2.51c1.67-.58 2.77-2.16 2.79-3.83v-.22c-.01-.43-.06-.87-.12-1.31.22.38.46.75.72 1.1.02.03.05.06.07.09.02.03.04.06.07.09 1.06 1.29 2.9 1.83 4.57 1.25a4.1 4.1 0 0 0 2.51-5.22 4.195 4.195 0 0 0-3.04-2.7" style="fill:#283b8d"/><path class="cls-9" d="M87.39 38.54c-1.85 0-3.58-1.15-4.22-2.99-.51-1.46-.25-3.1.69-4.3v-.03l.1-.09c.15-.18.32-.37.5-.56-.27-.03-.53-.07-.78-.12h-.06a4.618 4.618 0 0 1-3.28-2.95c-.4-1.13-.33-2.34.19-3.42a4.408 4.408 0 0 1 2.55-2.28c1.79-.63 3.8-.08 4.98 1.36l.07.09v-.12c.02-1.87 1.25-3.55 3.04-4.18a4.42 4.42 0 0 1 3.42.19c1.08.52 1.89 1.42 2.28 2.55.51 1.46.25 3.1-.69 4.3v.02l-.1.09c-.15.18-.32.37-.5.56.27.03.53.07.78.12h.02c1.52.33 2.79 1.46 3.31 2.95.82 2.33-.41 4.88-2.74 5.7-1.79.63-3.79.08-4.98-1.36l-.07-.09v.12c-.02 1.87-1.25 3.55-3.04 4.18-.49.17-.99.25-1.48.25Zm-2.84-6.96-.06.07c-.82 1-1.06 2.4-.62 3.64a3.721 3.721 0 0 0 4.74 2.28c1.5-.53 2.52-1.92 2.54-3.48v-.2c-.01-.4-.05-.83-.12-1.26l-.28-1.91.98 1.67c.23.4.46.74.7 1.06l.07.09.06.07c.99 1.2 2.66 1.66 4.16 1.13A3.721 3.721 0 0 0 99 30c-.44-1.25-1.5-2.19-2.76-2.46h-.04c-.47-.1-.96-.16-1.49-.19l-.89-.05.67-.6c.38-.34.72-.69 1.01-1.03s.06-.07.06-.07c.82-1 1.06-2.4.62-3.64-.33-.94-1-1.69-1.9-2.12a3.69 3.69 0 0 0-2.84-.16c-1.5.52-2.52 1.92-2.54 3.48v.2c.01.4.05.83.12 1.26l.28 1.92-.98-1.67c-.23-.4-.46-.75-.7-1.06l-.06-.08-.06-.08c-.99-1.2-2.66-1.66-4.16-1.13-.94.33-1.69 1-2.12 1.9-.43.9-.49 1.91-.16 2.85.44 1.25 1.5 2.19 2.76 2.46l.09.03c.38.06.88.12 1.43.16l.89.05-.67.6c-.38.34-.72.69-1.01 1.03Z"/><path class="cls-12" d="M79.9 29.8s-3.01-4.11-8.35-4.42-9.51 3.63-13.15 9.28c0 0-2.09 2.4-5.03 4.41s-9.97 8.22-12.52 18.74c-2.55 10.52-1.17 14.65 1.97 21.11 1.69 3.48 4.6 6.55 5.68 7.71s1.39 2.78.54 5.03-3.4 7.97-4.72 11.6c-1.31 3.63-2.55 6.73.39 7.19 2.94.46 7.73.93 7.66-.7 0 0-.31 1.42 3.63 1.13s5.26.03 4.72-3.61c0 0 4.1.93 5.65-1.31s1.47-2.47.46-4.79-3.02-8.66-3.25-10.44-.31-2.32 1.24-2.94 4.87-1.86 8.58-7.27 5.95-9.13 6.42-15.85c.46-6.73-1.39-12.06-2.86-15.85-1.47-3.79-2.63-6.19-2.78-9.13 0 0 3.95-.83 5.19-4.69l-2.63-1.65s.7-2.22 3.17-3.54Z"/><path class="cls-9" d="M55.04 111.29c-1.31 0-2.2-.23-2.68-.68-1.13.99-4.81.66-7.7.2-.86-.14-1.46-.49-1.8-1.07-.8-1.35.03-3.61.98-6.24l.14-.39c.8-2.2 2.01-5.09 3.09-7.64.7-1.65 1.3-3.08 1.63-3.96.75-1.98.6-3.5-.46-4.64l-.07-.08c-1.19-1.28-3.99-4.27-5.67-7.73-3.26-6.7-4.52-10.99-2-21.36 2.85-11.74 11.06-17.85 12.68-18.96 2.87-1.96 4.94-4.32 4.96-4.34 4.3-6.69 8.58-9.7 13.45-9.41 5.45.32 8.5 4.4 8.63 4.58.06.09.09.2.06.3s-.09.2-.19.25c-1.8.97-2.61 2.46-2.88 3.06l2.37 1.48c.15.09.21.27.16.43-1.09 3.42-4.15 4.57-5.15 4.86.18 2.26.96 4.23 2.03 6.91.23.57.46 1.16.71 1.8 1.76 4.54 3.33 9.62 2.89 16.02-.47 6.83-2.76 10.61-6.48 16.04-3.69 5.39-7.04 6.72-8.65 7.36l-.1.04c-1.27.51-1.23.78-1.01 2.52.23 1.78 2.25 8.12 3.22 10.36 1.06 2.45 1.12 2.8-.5 5.16-1.34 1.95-4.31 1.74-5.52 1.56.14 1.24.01 1.98-.4 2.49-.63.78-1.77.85-3.67.96-.33.02-.68.04-1.06.07-.35.03-.68.04-.99.04Zm-2.29-1.43s.04.11.11.19c.19.19.86.61 3.12.46.38-.03.74-.05 1.07-.07 1.63-.1 2.71-.17 3.13-.69.31-.39.37-1.13.17-2.42-.02-.12.03-.25.12-.33.09-.08.22-.12.34-.09.04 0 3.87.85 5.25-1.16 1.44-2.09 1.4-2.18.43-4.43-1.01-2.33-3.04-8.7-3.28-10.54-.23-1.8-.34-2.61 1.47-3.34l.11-.04c1.54-.61 4.74-1.89 8.31-7.09 3.65-5.32 5.9-9.03 6.35-15.67.43-6.25-1.11-11.24-2.84-15.69-.25-.63-.48-1.23-.71-1.79-1.14-2.87-1.97-4.94-2.1-7.45 0-.18.12-.35.3-.39.04 0 3.56-.79 4.81-4.17l-2.38-1.49a.37.37 0 0 1-.16-.43c.03-.09.7-2.15 2.95-3.53-.83-.96-3.58-3.7-7.8-3.94-4.58-.27-8.64 2.63-12.81 9.11-.12.14-2.19 2.5-5.13 4.51-1.58 1.08-9.59 7.04-12.37 18.52-2.47 10.18-1.3 14.17 1.95 20.86 1.63 3.36 4.37 6.29 5.54 7.54l.07.08c1.26 1.35 1.47 3.17.62 5.42-.34.9-.94 2.33-1.64 3.99-1.07 2.54-2.29 5.43-3.07 7.61l-.14.39c-.85 2.34-1.65 4.56-1.04 5.6.22.38.64.61 1.27.71 3.71.58 6.43.58 7.1-.03.07-.06.11-.12.12-.2 0-.1 0-.16.01-.18.04-.18.23-.3.4-.29.19.02.33.17.34.36v.14Z"/><path d="M79.9 29.8s2.39-.6 4.39-1.29 6-2 6.34-1.17c.21.51-5.32 2.94-5.32 2.94-2.08 1.63-2.02 3.75-2.02 3.75-.65.51-1.07.83-1.07.83s-2.27 1.18-3.17.93l.31-.8-2.63-1.65s.97-2.94 3.17-3.54Z" style="fill:#f9ae1b"/><path class="cls-9" d="M79.33 36.19c-.14 0-.26-.01-.38-.04-.1-.03-.19-.1-.24-.19a.373.373 0 0 1-.01-.31l.2-.51-2.37-1.48a.38.38 0 0 1-.16-.44c.04-.13 1.06-3.14 3.42-3.79.02 0 2.4-.6 4.36-1.28 5.23-1.8 6.51-1.69 6.81-.96.14.34.35.85-5.47 3.41-1.86 1.48-1.84 3.34-1.84 3.42 0 .12-.05.23-.14.3-.65.51-1.07.83-1.07.83-.4.21-2.06 1.04-3.12 1.04Zm-2.14-3 2.37 1.48c.15.1.22.29.15.46l-.12.3c.68-.1 1.75-.54 2.45-.9 0 0 .34-.27.88-.68.04-.6.31-2.4 2.16-3.86.02-.02.05-.04.08-.05 1.99-.87 4.23-1.99 4.93-2.5-.44-.04-1.76.08-5.68 1.43-1.95.67-4.3 1.27-4.42 1.3-1.6.44-2.51 2.32-2.8 3.02Z"/><path class="cls-9" d="M80.99 32.97a.378.378 0 0 1-.18-.71L90.46 27c.18-.1.41-.03.51.15.1.18.03.41-.15.51l-9.65 5.26c-.06.03-.12.05-.18.05ZM54.47 95.46c-.18 0-.34-.13-.37-.32-.49-3.34-5.79-8.19-5.85-8.24a.378.378 0 0 1-.02-.53c.14-.15.38-.16.53-.02.23.21 5.56 5.09 6.09 8.69.03.21-.11.4-.32.43h-.06ZM52.37 110.12h-.04a.373.373 0 0 1-.34-.41c0-.04.35-3.56.87-5.92.04-.2.24-.33.45-.29.2.04.33.24.29.45-.51 2.33-.85 5.8-.85 5.84-.02.19-.18.34-.37.34ZM60.72 107.65c-.19 0-.35-.15-.37-.34 0-.02-.21-2.19-.98-3.83a.38.38 0 0 1 .18-.5c.19-.09.41 0 .5.18.82 1.75 1.04 3.98 1.05 4.08.02.21-.13.39-.34.41h-.04ZM62.24 80.1a.38.38 0 0 1-.14-.73c2.86-1.15 3.28-5.9 1.39-15.89-2.04-10.78-8.32-19.67-8.39-19.76a.37.37 0 0 1 .09-.52c.17-.12.4-.08.52.09.06.09 6.44 9.11 8.51 20.05 2 10.55 1.46 15.4-1.85 16.72-.05.02-.09.03-.14.03Z"/><path class="cls-9" d="M58.55 86.14c-1.47 0-3.33-.89-5.55-2.66-7.99-6.34-8.65-10.29-9.49-15.29-1.04-6.19.36-11.71 4.68-18.47.11-.17.34-.23.52-.11.17.11.23.34.11.52-4.21 6.59-5.58 11.95-4.58 17.94.85 5.03 1.46 8.66 9.22 14.82 2.64 2.1 4.72 2.89 6.02 2.31 1.44-.65 1.57-2.82 1.57-2.84 2.59-10.52-8.02-25.14-8.13-25.28-.12-.17-.09-.4.08-.52.17-.12.4-.09.52.08.45.61 10.93 15.05 8.26 25.83 0 .04-.14 2.57-1.99 3.41-.38.17-.79.26-1.25.26Z"/><path d="M60.98 53.96s2.43-5.62 6.45-9.18c0 0 3.43-3.31 6.75-5.1 0 0 .3 4.56 4.19 13.11 3.88 8.56-2.82 21.86-9.12 26.93-6.3 5.08-8.6 4.97-8.6 4.97s1.36-1.03 1.17-4.97c0 0 2.46.27 3-4.8s-.86-13.77-3.84-20.97Z" style="fill:#6e6f72"/><path class="cls-9" d="M60.66 85.07h-.86l.83-.62s1-1.06.82-4.7l.17-.42.24.03s2.1.1 2.59-4.47c.57-5.34-1.04-14.08-3.82-20.79l-.06-.15.06-.15c.1-.23 2.51-5.74 6.54-9.31.13-.13 3.5-3.35 6.82-5.15l.51-.28.04.58s.35 4.61 4.16 12.98c3.99 8.78-2.91 22.3-9.22 27.38-6.08 4.9-8.55 5.05-8.83 5.05Zm1.55-4.99c.06 2.06-.33 3.33-.69 4.05 1.14-.37 3.5-1.47 7.5-4.69 6.13-4.94 12.85-18.02 9.01-26.49-3.13-6.9-3.95-11.18-4.16-12.67-3.08 1.79-6.15 4.73-6.19 4.76-3.57 3.15-5.89 8.02-6.3 8.91 2.78 6.79 4.38 15.6 3.81 21-.24 2.23-.87 3.77-1.87 4.58-.43.34-.83.48-1.12.53Z"/><path class="cls-9" d="M64.45 67.25c-.09 0-.18-.03-.25-.1a.378.378 0 0 1-.02-.53c5.73-6.3 5.51-14.48 5.51-14.56 0-.21.15-.38.36-.39.19 0 .38.15.39.36 0 .08.23 8.56-5.7 15.09-.07.08-.18.12-.28.12ZM64.82 76.22c-.1 0-.21-.04-.28-.13a.37.37 0 0 1 .04-.53c4.8-4.18 6.17-13.89 6.19-13.98.03-.21.21-.35.42-.32.21.03.35.22.32.42-.06.41-1.42 10.08-6.44 14.45-.07.06-.16.09-.25.09Z"/><path class="cls-11" d="M47.11 85.69c-.82 1.08-1.77 2.25-3.12 2.46-.91.14-1.89-.2-2.74.15-.2.08-.39.21-.5.39-.22.37-.05.89.29 1.16s.79.35 1.23.37.87-.01 1.3.08c.08.02.17.04.23.1.08.07.12.19.13.3.11.72-.27 1.56.2 2.12.41.48 1.23.34 1.65-.12s.53-1.13.56-1.75c1.13.09 1.68.88 2.25 1.86 0 0 2.5-3.52.32-5.77-1.2-1.24-1.8-1.32-1.8-1.32Z"/><path class="cls-9" d="M44.83 93.47h-.02c-.39 0-.73-.16-.96-.43-.4-.47-.35-1.05-.3-1.57.02-.26.05-.51.01-.73v-.45l-.07.37c-.26-.06-.54-.06-.84-.06h-.4c-.4-.02-.99-.08-1.45-.45-.45-.36-.72-1.08-.37-1.65.14-.23.37-.42.68-.54.58-.24 1.19-.2 1.77-.17.37.02.73.04 1.06 0 1.18-.18 2.06-1.24 2.87-2.31.08-.11.22-.17.35-.15.12.02.8.17 2.02 1.44 2.37 2.45-.17 6.1-.28 6.25-.07.1-.19.16-.32.16s-.24-.08-.31-.19c-.51-.9-.93-1.43-1.58-1.61-.06.53-.21 1.12-.62 1.57-.31.34-.78.54-1.24.54Zm-2.59-4.97c-.3 0-.59.03-.84.14-.11.04-.25.12-.32.24-.12.2 0 .52.2.67.22.18.54.27 1.01.29h.37c.32 0 .65 0 .99.08.12.02.27.07.4.18.21.18.25.44.26.52.05.31.02.62 0 .92-.04.42-.07.78.12 1.01.11.13.28.16.4.17.23.01.52-.11.69-.3.36-.4.44-1.02.46-1.52 0-.1.05-.2.13-.26.08-.07.18-.1.28-.09 1.09.08 1.71.72 2.22 1.51.55-1 1.52-3.26.05-4.79-.69-.71-1.16-1.01-1.41-1.14-.86 1.12-1.82 2.17-3.19 2.38-.41.06-.82.04-1.21.01-.2-.01-.4-.02-.59-.02Z"/><path d="M45.97 64.1c.23 2.83 1.17 5.6 2.7 7.99" style="fill:#fff"/><path class="cls-9" d="M48.89 72.46c-.12 0-.25-.06-.32-.17a17.906 17.906 0 0 1-2.75-8.16c-.02-.21.14-.39.34-.4.2-.02.39.14.4.34.23 2.77 1.14 5.48 2.64 7.82.11.17.06.41-.11.52a.36.36 0 0 1-.2.06ZM57.5 81.91s-.09 0-.13-.02c-3.23-1.2-5.9-3.68-7.34-6.8a.38.38 0 0 1 .18-.5c.19-.09.41 0 .5.18a12.49 12.49 0 0 0 6.92 6.42c.19.07.29.29.22.48-.06.15-.2.24-.35.24ZM62.44 68.2c-.18 0-.34-.13-.37-.32a37.031 37.031 0 0 0-7.79-17.78.38.38 0 0 1 .06-.53c.16-.13.4-.1.53.06 4.21 5.23 6.96 11.5 7.95 18.14.03.2-.11.4-.32.43h-.06Z"/><path class="cls-11" d="M69.83 32.25c-.18-.94.27-1.82 1.02-1.97s1.47.37 1.67 1.45c.25 1.27-.27 1.82-1.02 1.97s-1.49-.5-1.67-1.45Z"/><path class="cls-12" d="M64.82 75.84s4.38-3.26 6.31-14.22c.96-5.43-1.08-9.58-1.08-9.58s.3 8.33-5.61 14.83c0 0 .98 5.15.38 8.97Z"/><path class="cls-9" d="M64.82 76.22c-.07 0-.13-.02-.19-.05a.387.387 0 0 1-.18-.38c.59-3.71-.36-8.79-.37-8.84-.02-.12.01-.24.09-.32 5.73-6.3 5.51-14.48 5.51-14.56 0-.18.11-.33.28-.38.17-.04.35.04.43.2.09.17 2.08 4.33 1.11 9.81-1.93 10.98-6.27 14.32-6.46 14.45-.07.05-.15.07-.22.07Zm.03-9.23c.15.87.76 4.58.47 7.85 1.3-1.45 4.04-5.3 5.44-13.27.56-3.19.06-5.95-.43-7.63-.28 2.86-1.35 8.42-5.49 13.06ZM58.76 100.25c-.18 0-.34-.13-.37-.31 0-.04-.65-3.71-2.82-8.45a.38.38 0 0 1 .18-.5c.18-.09.41 0 .5.18 2.22 4.84 2.85 8.49 2.88 8.64.03.2-.1.4-.31.43h-.06Z"/><path d="M78.87 70.08c.19-.73 1.54-.16 2.23.17s1.21 1.05 1.13 1.81c1.22-.4 2.69.38 3.06 1.61.06.2.1.42.22.59.22.3.64.38 1.01.34s.73-.16 1.11-.16c.85.02 1.6.82 1.55 1.67.57.02 1.13.12 1.67.32.17.06.35.14.48.28.15.16.2.39.24.6.02.11.04.22.05.33.16 1.09-.33 2.2-1.29 2.74-.59.33-1.25.56-1.91.67-1.23.21-2.5.09-3.73-.17-.48-.11-.96-.23-1.45-.28-.2-.02-.41-.02-.61.03-.17.04-.32.13-.48.2-.51.22-1.08.29-1.63.36-1.15.14-2.34.28-3.43-.09 0 .09 0 .18-.01.26-1.09.37-2.26.55-3.41.5-.32-.01-.71-.1-.8-.41 0 0 4.57-5.74 6.01-11.37Z" style="fill:#eedec6"/><path class="cls-9" d="M74 82.24h-.35c-.85-.03-1.08-.44-1.15-.68-.03-.12 0-.24.07-.33.05-.06 4.54-5.75 5.94-11.23a.77.77 0 0 1 .45-.54c.46-.22 1.2-.07 2.31.47.71.34 1.21.99 1.32 1.69.55-.07 1.14.04 1.67.32.68.36 1.19.96 1.39 1.64l.04.14c.04.13.07.25.12.33.12.17.42.21.67.19.14-.01.27-.04.41-.07.24-.05.49-.09.75-.09.5 0 1.01.24 1.38.64.28.3.46.67.52 1.04.49.04.98.15 1.44.32.22.08.45.18.63.38.21.24.28.53.33.79l.06.34c.19 1.27-.41 2.52-1.48 3.12-.63.35-1.33.6-2.02.72-1.15.2-2.42.14-3.87-.18l-.32-.07c-.37-.09-.73-.17-1.09-.2-.14-.01-.32-.02-.48.02-.1.03-.2.07-.29.12l-.14.06c-.57.24-1.16.32-1.73.39-1 .12-2.11.26-3.18.01-.04.07-.11.12-.19.14-1.03.35-2.11.53-3.19.53Zm-.65-.81c.07.02.18.04.32.05 1.03.04 2.05-.1 3.04-.41 0-.12.07-.23.16-.3.1-.07.22-.08.33-.05 1.03.35 2.22.2 3.27.07.52-.07 1.06-.13 1.53-.33l.12-.05c.14-.06.27-.12.42-.16.27-.07.54-.06.74-.04.41.04.8.13 1.19.22l.31.07c1.35.3 2.53.35 3.58.17.62-.11 1.23-.32 1.79-.63.8-.45 1.25-1.39 1.1-2.35-.02-.11-.03-.21-.05-.32-.03-.15-.07-.33-.15-.42-.07-.08-.2-.13-.32-.18-.5-.18-1.02-.28-1.55-.29-.1 0-.2-.05-.27-.12a.378.378 0 0 1-.1-.27c.02-.3-.11-.62-.34-.87-.23-.25-.54-.4-.84-.4-.18 0-.38.03-.59.08-.16.03-.32.06-.48.08-.59.06-1.09-.12-1.35-.5-.13-.19-.19-.39-.24-.57l-.03-.12c-.15-.49-.52-.92-1.02-1.19-.51-.27-1.07-.33-1.56-.17-.12.04-.25.02-.35-.06-.1-.08-.15-.2-.14-.33.06-.62-.42-1.19-.92-1.43-1.25-.6-1.61-.49-1.67-.46l-.4-.04.36.09c-1.29 5.04-4.98 10.08-5.89 11.26Z"/><path class="cls-8" d="M81.94 79.17c-.19-.04-.4-.06-.6-.07.15-.14.3-.28.42-.43.34-.41.45-1 .26-1.54a1.589 1.589 0 0 0-2.01-.97c-.64.23-1.06.83-1.07 1.47v.08c0 .17.02.33.05.5-.09-.15-.18-.29-.28-.42 0-.01-.02-.02-.03-.03 0-.01-.02-.02-.03-.03-.41-.5-1.12-.71-1.76-.48-.82.29-1.25 1.19-.96 2.01.19.54.65.93 1.17 1.04.19.04.4.06.6.07-.15.14-.3.28-.42.43-.34.41-.45 1-.26 1.54.29.82 1.19 1.25 2.01.97.64-.23 1.06-.83 1.07-1.47v-.08c0-.17-.02-.33-.05-.5.09.15.18.29.28.42 0 .01.02.02.03.03 0 .01.02.02.03.03.41.5 1.12.71 1.76.48.82-.29 1.25-1.19.96-2.01-.19-.54-.65-.93-1.17-1.04"/><path class="cls-9" d="M78.51 83.78c-.81 0-1.56-.5-1.84-1.31-.22-.62-.11-1.32.27-1.83-.63-.17-1.14-.64-1.36-1.26a1.952 1.952 0 0 1 1.19-2.49c.63-.22 1.33-.11 1.85.29.16-.63.63-1.16 1.27-1.38 1.02-.36 2.13.18 2.49 1.19.22.62.11 1.32-.27 1.83.62.16 1.14.64 1.36 1.26a1.952 1.952 0 0 1-1.19 2.49c-.63.22-1.33.11-1.85-.29a1.977 1.977 0 0 1-1.91 1.49Zm-.93-2.75v.01c-.26.32-.34.78-.2 1.18.22.62.91.96 1.53.74.48-.17.82-.63.82-1.12 0-.22-.02-.38-.04-.53-.03-.18.08-.35.25-.41.17-.06.36 0 .45.16.08.13.16.26.25.39.36.44.9.59 1.39.42.3-.11.55-.32.69-.61.14-.29.16-.62.05-.92-.14-.4-.48-.71-.89-.8h-.03c-.2-.03-.36-.05-.52-.06-.15 0-.28-.11-.33-.25-.05-.14 0-.3.1-.4.14-.12.26-.25.38-.39v-.01c.26-.32.34-.78.2-1.18a1.21 1.21 0 0 0-1.53-.74c-.48.17-.82.63-.82 1.12 0 .22.02.38.04.53.03.18-.08.35-.25.41-.17.06-.36 0-.45-.17-.08-.13-.16-.26-.25-.38-.36-.44-.9-.59-1.39-.42-.3.11-.55.32-.69.61-.14.29-.16.62-.05.92.14.4.48.71.89.8.18.04.36.06.55.07.15 0 .28.11.33.25.05.14 0 .3-.1.4a3.5 3.5 0 0 0-.38.39Z"/><path d="M89.37 81.34a5.44 5.44 0 0 0-.55-.39c.22-.05.44-.12.64-.2.55-.23.97-.75 1.07-1.38.15-.96-.51-1.86-1.47-2.01-.75-.12-1.49.26-1.83.89 0 .02-.01.03-.02.04 0 .01-.01.03-.02.04-.08.17-.16.34-.22.52 0-.19-.02-.38-.05-.56v-.1a1.79 1.79 0 0 0-1.48-1.4c-.96-.15-1.86.51-2.01 1.47-.1.63.15 1.26.6 1.64.17.14.36.27.55.39-.22.05-.44.12-.64.2-.55.23-.97.75-1.07 1.38-.15.96.51 1.86 1.47 2.01.75.12 1.49-.26 1.83-.89 0-.02.01-.03.02-.04 0-.01.01-.03.02-.04.08-.17.16-.34.22-.52 0 .19.02.38.05.56v.1c.14.71.73 1.28 1.48 1.4.96.15 1.86-.51 2.01-1.47a1.8 1.8 0 0 0-.6-1.64" style="fill:#03954b"/><path class="cls-9" d="M88.24 84.85c-.11 0-.22 0-.33-.03-.75-.12-1.38-.62-1.67-1.29-.48.56-1.23.84-1.98.73a2.14 2.14 0 0 1-1.79-2.44c.11-.74.6-1.37 1.27-1.66l-.04-.04c-.51-.42-.79-1.18-.67-1.92a2.143 2.143 0 0 1 2.44-1.78c.75.12 1.38.62 1.67 1.29.48-.56 1.23-.84 1.98-.73a2.14 2.14 0 0 1 1.79 2.44c-.11.74-.6 1.37-1.27 1.66.55.48.82 1.23.71 1.97a2.132 2.132 0 0 1-2.11 1.81Zm-1.82-2.83h.06c.18.03.31.18.32.36 0 .18.02.35.05.52.13.65.6 1.09 1.18 1.18a1.385 1.385 0 0 0 1.58-1.16c.08-.49-.11-.99-.47-1.3l-.02-.02c-.17-.13-.33-.24-.49-.34-.13-.08-.2-.23-.17-.38s.13-.27.28-.31c.2-.05.4-.11.58-.18h.02c.45-.18.77-.6.84-1.09.12-.76-.4-1.47-1.16-1.58-.58-.09-1.17.2-1.45.7-.11.22-.18.39-.24.55-.06.17-.23.27-.41.24a.384.384 0 0 1-.32-.36c0-.18-.02-.35-.05-.52-.13-.65-.6-1.09-1.18-1.18-.75-.12-1.47.4-1.58 1.16-.08.49.11.99.48 1.3.16.13.33.25.51.36.13.08.2.23.17.38-.02.15-.13.27-.28.31-.2.05-.4.11-.58.18h-.02c-.45.18-.77.6-.85 1.09-.06.37.03.73.25 1.03.22.3.54.5.91.55.58.09 1.17-.19 1.45-.7.11-.22.18-.39.24-.55.05-.15.2-.25.35-.25Z"/><path d="M87.98 73.37c0-1.18-.75-2.19-1.8-2.58-.02 0-.05-.02-.07-.02-.02 0-.05-.02-.07-.02-1.83-.58-4.58-.42-4.58-.42s.43 2.79 1.42 4.46c.48.79 1.35 1.32 2.35 1.32 1.52 0 2.75-1.23 2.75-2.75Z" style="fill:#fba919"/><path class="cls-9" d="M85.24 76.5a3.1 3.1 0 0 1-2.67-1.5c-1.03-1.73-1.46-4.49-1.48-4.61l-.06-.41.41-.03c.12 0 2.84-.16 4.72.43l.11.04c1.27.46 2.09 1.64 2.09 2.95 0 1.72-1.4 3.12-3.12 3.12Zm-3.34-5.81c.16.83.58 2.69 1.3 3.91a2.37 2.37 0 0 0 4.4-1.22c0-.99-.63-1.89-1.56-2.23l.03-.39-.12.36c-1.35-.43-3.22-.44-4.05-.43Z"/></svg>