<svg id="Layer_1" xmlns="http://www.w3.org/2000/svg" viewBox="0 0 130 130"><defs><style>.cls-1{fill:#f69320}.cls-2{fill:#eb2127}.cls-3{fill:#f89f1f}.cls-4{fill:#eedec6}.cls-5{fill:#b85f28}.cls-6{fill:#ab4625}.cls-7{fill:#f37f8d}</style></defs><path class="cls-2" d="M45.69 23.02s-2.82-1.63-4.4-1.11c0 0-.77.16-.63 1.82.18 2.16 1.39 13.24 1.39 13.24s2.51-2.61 4.42-4.28l-.78-9.67Z"/><path class="cls-3" d="M42.05 37.35s-.08 0-.12-.02a.365.365 0 0 1-.25-.31c-.01-.11-1.21-11.11-1.39-13.25-.16-1.93.81-2.2.93-2.22 1.68-.55 4.54 1.09 4.66 1.16.11.06.18.17.19.29l.78 9.67c0 .12-.04.23-.13.31-1.88 1.64-4.37 4.24-4.39 4.26-.07.07-.17.12-.27.12Zm-.06-15.17c-.21 0-.41.02-.59.08-.02 0-.48.18-.37 1.44.15 1.8 1.02 9.87 1.3 12.44.82-.84 2.41-2.43 3.74-3.61l-.75-9.28c-.73-.39-2.23-1.07-3.34-1.07Z"/><path class="cls-2" d="M46.46 32.69s-1.03-13.18-1.21-14.51.42-3.6 1.78-3.81c.88-.14 7.38-.15 12.61-.08 2.77.04 33.71-2.26 35.86.72 1.65 2.29.58 6.86.33 12.46-.25 5.61-.89 14.5-.89 14.5s-.29 3.95-4.24 4.08-8.1-.07-11.91-.33-5.94.02-5.94.02-20.99-.73-22.37-.69-3.92-2.38-3.92-5.46-.09-6.91-.09-6.91Z"/><path class="cls-3" d="M88.07 46.47c-3.38 0-6.67-.19-9.31-.38-3.73-.26-5.84.01-5.86.01-.27 0-21.05-.73-22.41-.68-.67.02-1.51-.39-2.28-1.14-1.27-1.23-2.03-2.98-2.03-4.69 0-2.96-.08-6.67-.09-6.89-.03-.43-1.03-13.19-1.21-14.48-.21-1.56.5-3.98 2.09-4.23 1-.15 8-.15 12.67-.09.52 0 2.11-.07 4.31-.18 15.58-.79 30.22-1.2 31.85 1.06 1.3 1.8 1.04 4.75.71 8.5a98.21 98.21 0 0 0-.31 4.2c-.25 5.55-.88 14.42-.89 14.51 0 .04-.37 4.29-4.6 4.43-.88.03-1.77.04-2.64.04Zm-12.43-1.24c.87 0 1.93.03 3.18.12 3.3.23 7.64.48 11.88.33 3.56-.12 3.87-3.59 3.88-3.74 0-.09.64-8.95.89-14.49.07-1.5.19-2.89.31-4.24.32-3.59.57-6.42-.57-7.99-1.62-2.24-23.11-1.16-31.2-.75-2.21.11-3.81.2-4.36.19-5.23-.07-11.71-.05-12.55.08-1.07.17-1.63 2.17-1.46 3.39.18 1.33 1.17 13.99 1.21 14.53v.02c0 .04.09 3.87.09 6.92 0 1.51.67 3.06 1.8 4.15.61.59 1.29.95 1.73.93 1.39-.05 21.54.66 22.4.69.02 0 .98-.13 2.77-.13Z"/><path class="cls-1" d="M59.85 22.34v-6.09c1.14-.08 2.03-.07 2.68.02s1.12.26 1.4.52.44.61.47 1.08c0 .31-.03.58-.11.82 0 .04-.02.09-.04.13s-.04.09-.06.13l-.03.05s-.04.05-.06.08c-.04.06-.08.11-.12.15-.13.13-.26.23-.4.28.26.04.48.2.64.47.16.27.22.66.18 1.18-.06.57-.35.98-.88 1.22-.06.03-.12.05-.18.07s-.12.04-.17.05c-.08.01-.13.02-.17.03-.04 0-.09.02-.16.03-.21.04-.41.05-.61.04h-2.37v-.26Zm2.39-3.67c.18-.09.27-.25.27-.48 0-.26-.09-.43-.27-.51-.18-.09-.41-.11-.67-.06v1.14c.26.03.48 0 .67-.09Zm.01 2.46c.19-.08.28-.21.28-.39a.59.59 0 0 0-.11-.38.407.407 0 0 0-.25-.15.69.69 0 0 0-.25-.04c-.12 0-.24.02-.35.05v1.04c.26 0 .49-.03.67-.12ZM69.9 21.25v-.46l.1-4.51h1.69v4.5h1.94v1.68l-3.76.15.02-1.18v-.18ZM79.2 17.78v-1.54h1.65l-.02 2.01h.09l.64-1.13s.05-.08.06-.11c.02-.03.04-.06.06-.11s.04-.08.06-.1.03-.06.06-.1l.24-.42.36.02.43.02.38.02h.39l.45.03-1.84 2.52 1.07 2.2c.03.07.06.14.1.21.03.05.04.09.05.12 0 .03.03.06.05.12l.52 1.09h-1.79l-1.08-2.51-.34.39v2.11h-1.6v-4.83ZM61.96 40.95c-.89-.59-1.58-1.44-2.07-2.54-.07-.13-.13-.28-.19-.43-.06-.15-.11-.31-.16-.48s-.08-.29-.1-.37a4.52 4.52 0 0 0-.1-.34c-.22-1.01-.33-2.05-.33-3.12 0-1.65.21-3.11.63-4.4s1.01-2.34 1.76-3.16c.1-.1.18-.18.24-.23.06-.05.14-.13.24-.23.25-.22.49-.39.71-.53.94-.61 2.01-.91 3.2-.91 1.04 0 1.92.15 2.63.44s1.31.75 1.78 1.37l-.45.61-.48.66-.33.48-.45.63-.55.76c-.27-.25-.54-.46-.81-.62a1.79 1.79 0 0 0-.93-.24c-.77 0-1.37.19-1.8.58-.43.39-.71 1.05-.84 1.99.76-.2 1.48-.3 2.17-.3.77 0 1.55.16 2.32.48.12.05.24.11.35.18.12.07.24.13.35.2.13.08.23.15.29.2.06.05.15.12.29.2.61.47 1.08 1.07 1.41 1.79s.49 1.53.45 2.42c-.03 1.11-.27 2.08-.71 2.92-.18.34-.38.63-.58.88-.19.24-.45.49-.78.76-1.04.82-2.38 1.23-4.01 1.23-1.21 0-2.26-.29-3.15-.88Zm4.43-3.69c.34-.36.5-.79.5-1.27 0-.52-.14-.96-.43-1.32-.29-.36-.65-.55-1.08-.57-.4-.03-.79.15-1.16.54-.37.39-.55.84-.55 1.35s.15.93.44 1.29c.29.35.64.53 1.04.53.49 0 .9-.18 1.24-.54ZM75.98 41.29c-.95-.28-1.71-.66-2.28-1.15l.53-.91.48-.86.33-.6.35-.61.35-.63c.61.45 1.26.76 1.95.93s1.29.13 1.76-.13c.48-.25.72-.72.72-1.41 0-.72-.46-1.23-1.39-1.52-.92-.29-2.29-.35-4.11-.16l-.05-2.7v-1.39l-.03-5.47h9.12l-.05.81-.05.86-.05.73-.05.66-.05.83-5.06-.05v1.97c1.86 0 3.32.44 4.36 1.31.24.17.44.37.6.6l.2.28.23.35c.52.86.78 1.97.78 3.33 0 .97-.24 1.87-.71 2.67-.2.3-.4.57-.6.81-.08.1-.18.2-.28.3s-.21.19-.33.28c-.52.42-1.1.74-1.74.96-.64.22-1.3.33-1.99.33-1.03 0-2.01-.14-2.96-.42Z"/><path class="cls-6" d="M64.71 40.76s.83.14 3.37-.09c.96-.09 2.38-.95 3.31-.5.41.2-.5 1.45-.08 1.34 1.35-.37 1.55.27 1.75.51.7.83-.37 1.86-.37 1.86-.86 1.17-.62 1.76-.62 1.76s.96 4.6-1.38 9.1c-.2.39-.43.77-.69 1.13-3.26 4.62-7.16 9.03-15.18 6.13s-13.23-6.36-14.93-8.06c-1.7-1.7-4.01-4.63-3.53-8.1.16-1.19.6-2.47 1.17-3.7 1.09-2.34 2.67-4.52 3.83-5.68 1.77-1.77 5.52-5.37 6.45-6.31s3.52-3.68 4.16-2.01.84 4.84 1.05 7.49c0 0 2.65-.27 6.05 1.2s5.66 3.94 5.66 3.94Z"/><path class="cls-3" d="M59.64 63.3c-1.47 0-3.1-.29-4.96-.97-8.58-3.1-13.61-6.69-15.07-8.15-2.76-2.76-4.02-5.67-3.64-8.42.16-1.15.56-2.43 1.2-3.8 1.2-2.59 2.86-4.74 3.91-5.79 1.03-1.03 2.72-2.67 4.14-4.05 1.03-1 1.92-1.86 2.31-2.26l.16-.17c1.29-1.31 2.76-2.68 3.81-2.45.25.05.6.23.8.75.6 1.58.83 4.42 1.02 6.92l.02.31c.87-.02 3.11.07 5.85 1.24 3.08 1.32 5.21 3.43 5.68 3.93.31.02 1.23.06 3.15-.11.3-.03.67-.15 1.07-.27.8-.26 1.7-.55 2.44-.19.48.23.31.81.16 1.21 1.04-.13 1.39.38 1.57.65.02.03.04.06.06.08.73.86.06 1.93-.39 2.37-.65.9-.53 1.37-.53 1.37.05.24.97 4.83-1.4 9.39-.21.41-.45.81-.71 1.17-2.62 3.72-5.61 7.23-10.66 7.23Zm-8.39-35.32c-.79 0-2.46 1.69-3.03 2.26l-.17.17c-.39.39-1.29 1.26-2.32 2.26-1.42 1.38-3.11 3.02-4.13 4.04-1.08 1.09-2.67 3.23-3.75 5.57-.61 1.31-.99 2.52-1.14 3.59-.44 3.17 1.62 5.98 3.43 7.78 1.42 1.42 6.34 4.91 14.8 7.97 7.75 2.8 11.53-1.42 14.75-5.99.24-.34.46-.71.66-1.09 2.24-4.32 1.35-8.8 1.34-8.85-.03-.07-.25-.78.69-2.06.05-.05.84-.85.38-1.4-.03-.04-.07-.09-.11-.14-.16-.23-.34-.5-1.26-.25-.26.07-.42-.06-.47-.12-.21-.23-.1-.52.04-.86.04-.11.11-.3.14-.42-.47-.14-1.13.07-1.77.28-.44.14-.85.27-1.23.31-2.56.23-3.42.1-3.46.09a.401.401 0 0 1-.22-.12c-.02-.02-2.24-2.44-5.53-3.85-3.26-1.4-5.84-1.17-5.86-1.17-.1.01-.2-.02-.28-.09s-.13-.16-.13-.26l-.05-.68c-.19-2.45-.42-5.23-.98-6.71-.09-.25-.21-.27-.25-.28h-.1Z"/><path class="cls-7" d="M51.16 35.71s.09-.01.09-.06c-.03-.65-.26-4.67-1.47-4.26-1.87.64-3.21 3.47-3.47 4.07-.02.05.02.1.07.09.55-.09 2.93-.42 4.78.16Z"/><path class="cls-3" d="M51.19 36.09s-.09 0-.14-.02c-1.78-.56-4.15-.22-4.61-.14l-.22.04-.2-.2c-.1-.13-.12-.3-.05-.45.37-.83 1.72-3.6 3.69-4.28.27-.09.54-.06.77.1.88.6 1.13 3.07 1.19 4.49v.2l-.17.17c-.08.06-.17.09-.27.09ZM48.62 35c.71 0 1.5.06 2.23.23-.12-1.79-.46-3.22-.84-3.47-.04-.03-.06-.03-.11-.01-1.4.48-2.51 2.37-3.01 3.36.45-.05 1.05-.1 1.72-.1ZM61.43 50.92c-.59 0-1.24-.1-1.92-.37-2.53-1-2.52-3.65-2.51-3.68 0-.21.17-.37.38-.37s.37.17.37.38c0 .09 0 2.16 2.04 2.97 2.21.88 4.14-.38 4.16-.39.17-.11.4-.07.52.1.11.17.07.4-.1.52-.07.04-1.27.83-2.93.83Z"/><path class="cls-5" d="M47.69 58.95c-5.02-2.4-7.67-4.89-7.67-4.89s-1.91 2.42-.7 10.51c1.21 8.1 4.44 11.08 4.44 11.08s7.23-8.94 13.08-13.07c0 0-3.91-1.12-9.14-3.63Z"/><path class="cls-3" d="M43.76 76.03c-.09 0-.19-.04-.25-.1-.14-.12-3.34-3.16-4.55-11.3-1.22-8.16.7-10.7.78-10.8.06-.08.16-.13.27-.14.1 0 .21.03.28.1.03.02 2.67 2.47 7.57 4.82 5.14 2.46 9.05 3.6 9.08 3.61.14.04.24.16.27.3s-.04.29-.15.37c-5.73 4.05-12.93 12.91-13 13-.06.08-.16.13-.26.14h-.03Zm-3.64-21.38c-.43.91-1.35 3.72-.43 9.87.97 6.5 3.26 9.64 4.05 10.56 1.33-1.6 7.22-8.58 12.27-12.37-1.37-.44-4.58-1.56-8.48-3.43-4.03-1.93-6.53-3.89-7.41-4.64ZM45.68 43.34c-.21 0-.43-.01-.66-.05-1.86-.25-2.66-1.91-2.82-2.75-.04-.2.09-.4.3-.44.2-.04.4.09.44.3.02.08.4 1.9 2.18 2.15 1.83.25 2.68-.79 2.71-.83a.379.379 0 0 1 .6.46c-.04.05-.92 1.16-2.75 1.16Z"/><path class="cls-4" d="M41.4 55.32c.84 2.4 1.1 4.4 1.08 6.94 0 .86-.06 1.74.15 2.58s.75 1.65 1.56 1.93c1.31.44 2.62-.6 3.55-1.62.08-.09.17-.18.28-.23.3-.14.63.08.92.25 1.33.81 2.71.55 4.12-.11s2.55-1.56 3.78-2.48"/><path class="cls-3" d="M44.83 67.26c-.26 0-.52-.04-.77-.13-.86-.29-1.54-1.11-1.81-2.19-.19-.75-.18-1.52-.16-2.27v-.4c.03-2.68-.27-4.59-1.05-6.81-.07-.2.03-.41.23-.48s.41.03.48.23c.81 2.31 1.12 4.29 1.1 7.07v.41c-.02.73-.03 1.42.14 2.07.16.64.59 1.42 1.32 1.66 1.12.38 2.33-.62 3.15-1.52.1-.11.22-.24.4-.32.47-.22.92.06 1.23.25 1.09.66 2.25.62 3.81-.1 1.25-.58 2.28-1.36 3.38-2.19l.33-.25c.17-.12.4-.09.53.08.12.17.09.4-.08.53l-.33.25c-1.13.85-2.2 1.65-3.51 2.27-1.12.52-2.81 1.1-4.48.09-.22-.13-.46-.28-.56-.23-.04.02-.1.09-.15.14-1.12 1.23-2.19 1.85-3.18 1.85Z"/><path class="cls-6" d="M64.64 61.47c-3.53 2.17-7.81 1.11-7.81 1.11s-4.51 2.31-13.08 13.07c-8.57 10.77-4.52 16.24-4.52 16.24s2.47.54 4.82 2.89 3.49 6.02 10.15 9.44 11.96 3.16 17.91-.3c5.96-3.46 11.52-8.27 12.22-16.66.69-8.39-4.49-16.43-8.66-21.15s-5.97-9.85-5.97-9.85-2.02 3.34-5.06 5.21Z"/><path class="cls-3" d="M63.06 107.02c-2.88 0-5.82-.82-9.02-2.47-4.89-2.51-6.87-5.18-8.46-7.32-.59-.8-1.15-1.55-1.78-2.18-2.23-2.23-4.61-2.79-4.64-2.79a.368.368 0 0 1-.22-.14c-.17-.23-4.12-5.83 4.52-16.7 8.52-10.71 13.01-13.08 13.2-13.17.08-.04.17-.05.26-.03.04.01 4.18.99 7.52-1.06 2.93-1.8 4.92-5.06 4.94-5.09.07-.12.21-.2.36-.18.14.02.27.11.32.25.02.05 1.82 5.12 5.9 9.73 2.9 3.27 9.54 11.91 8.76 21.43-.75 9.08-7.02 13.83-12.4 16.95-3.19 1.86-6.19 2.78-9.25 2.78ZM39.47 91.56c.59.16 2.76.86 4.85 2.96.67.67 1.25 1.45 1.85 2.27 1.54 2.08 3.47 4.68 8.2 7.1 6.35 3.25 11.6 3.17 17.55-.3 5.22-3.03 11.31-7.63 12.03-16.36.76-9.23-5.74-17.67-8.57-20.87-3.28-3.71-5.13-7.72-5.78-9.29-.74 1.07-2.46 3.29-4.78 4.72-3.29 2.02-7.14 1.36-7.95 1.19-.75.44-5.18 3.28-12.84 12.91-7.66 9.62-5.05 14.89-4.58 15.68Zm25.17-30.09Z"/><path class="cls-4" d="M37.51 42.13c-.57 1.23-1 2.5-1.17 3.7-.48 3.47 1.83 6.4 3.53 8.1 1.7 1.7 6.91 5.16 14.93 8.06s11.93-1.5 15.18-6.13c.26-.37.49-.74.69-1.13-6.13 1.76-12.89-.69-15.58-2.72-2.68-2.03-2.2-5.37-3.39-6.1s-2.75.99-7.69.99-6.49-4.76-6.49-4.76"/><path class="cls-3" d="M59.64 63.3c-1.47 0-3.1-.29-4.96-.97-8.58-3.1-13.61-6.69-15.07-8.15-2.76-2.76-4.02-5.67-3.64-8.42.16-1.15.56-2.43 1.2-3.8.09-.19.31-.27.5-.18.09.05.17.13.2.23.06.18 1.52 4.5 6.13 4.5 2.61 0 4.22-.48 5.41-.83 1.04-.31 1.79-.53 2.49-.11.61.37.84 1.19 1.11 2.13.36 1.27.81 2.86 2.31 3.99 2.8 2.12 9.39 4.34 15.25 2.65.09-.03.19-.02.28.03.18.1.26.32.16.51-.21.41-.45.81-.71 1.17-2.62 3.72-5.61 7.23-10.66 7.23ZM37.51 43.05c-.41 1.02-.68 1.96-.8 2.82-.44 3.17 1.62 5.98 3.43 7.78 1.42 1.42 6.34 4.91 14.8 7.97 7.75 2.8 11.53-1.42 14.75-5.99.08-.11.15-.22.23-.34-5.88 1.32-12.26-.89-15.05-3-1.7-1.28-2.21-3.08-2.58-4.38-.23-.79-.42-1.48-.78-1.7-.39-.24-.88-.11-1.88.19-1.16.34-2.9.86-5.62.86-3.87 0-5.78-2.8-6.5-4.22Z"/><path class="cls-1" d="M49.39 49.68s-1.82-1.65-.7-2.39 3.49.53 3.28 1.58-1.84.96-2.58.8Z"/><path class="cls-3" d="M50.71 54.44c-.14 0-.27-.08-.34-.21-.57-1.17-.97-2.4-1.18-3.67-1.29 1.4-2.66 2.16-4.38 2.88a.375.375 0 0 1-.29-.69c2.21-.92 3.43-1.79 4.63-3.3a.375.375 0 0 1 .67.19c.15 1.49.56 2.92 1.22 4.26a.377.377 0 0 1-.34.54ZM61.48 60.38c-.09 0-.19-.04-.26-.11-.86-.84-2.01-1.48-3.34-1.85-1.14-.32-2.42-.45-3.9-.41-.24 0-.38-.16-.39-.36 0-.21.16-.38.36-.39 1.56-.04 2.91.1 4.12.43 1.45.4 2.71 1.11 3.66 2.04.15.14.15.38 0 .53-.07.08-.17.11-.27.11ZM62.54 57.12c-.05 0-.1-.01-.15-.03-2.6-1.14-5.48-1.62-8.31-1.39-.2.02-.39-.14-.4-.34s.14-.39.34-.4c2.96-.24 5.96.26 8.67 1.45.19.08.28.3.19.49a.37.37 0 0 1-.34.22ZM38.04 51.09a.36.36 0 0 1-.32-.18.374.374 0 0 1 .12-.52c.46-.29.99-.45 1.53-.48.76-.04 1.89-.05 2.91.39a.375.375 0 0 1-.29.69c-.67-.29-1.49-.4-2.58-.33-.41.02-.82.15-1.17.37a.36.36 0 0 1-.2.06ZM42.41 49.66c-.12 0-.23-.05-.3-.15-1.1-1.5-4.11-2.54-5.86-2.72a.364.364 0 0 1-.33-.41.37.37 0 0 1 .41-.33c1.82.18 5.1 1.27 6.39 3.02a.369.369 0 0 1-.3.59Z"/><path class="cls-5" d="M39.24 91.89s2.47.54 4.82 2.89 3.49 6.02 10.15 9.44 11.96 3.16 17.91-.3c5.96-3.46 11.52-8.27 12.22-16.66 0 0 2.24 10.69-7.45 20.46-7.63 7.7-13.24 8.73-19.54 8.73s-11.17-2.84-15.58-6.7c-4.41-3.86-5.2-5.05-7.16-8.83-1.96-3.78-.67-5.94.25-7.31 1.84-2.74 4.72-1.62 4.72-1.62"/><path class="cls-3" d="M57.36 116.83c-5.58 0-10.46-2.09-15.83-6.79-4.36-3.82-5.21-5.02-7.24-8.94-2.13-4.11-.56-6.44.28-7.69 1.55-2.3 3.79-2.1 4.73-1.89h.03c.11.02 2.61.6 5.01 2.99.67.67 1.25 1.45 1.85 2.27 1.54 2.08 3.47 4.68 8.2 7.1 6.35 3.25 11.6 3.17 17.55-.3 5.22-3.03 11.31-7.63 12.03-16.36.02-.19.16-.33.35-.34.21-.01.35.12.39.3.02.11 2.17 11-7.55 20.81-7.33 7.39-12.93 9.22-19.8 8.84ZM38.21 92.14c-.89 0-2.1.31-3.02 1.69-1.04 1.55-2.01 3.49-.23 6.93 1.98 3.82 2.8 4.99 7.07 8.72 5.22 4.57 9.95 6.61 15.33 6.61 5.65 0 11.38-.66 19.27-8.62 6.24-6.3 7.45-13.04 7.54-16.9-1.79 6.99-7.17 10.96-11.86 13.69-6.21 3.61-11.67 3.7-18.27.31-4.89-2.51-6.87-5.18-8.46-7.32-.59-.8-1.15-1.55-1.78-2.18-1.74-1.74-3.56-2.46-4.3-2.69-.01 0-.02 0-.03-.01-.19-.06-.3-.09-.31-.09-.02 0-.04-.01-.06-.02-.22-.05-.53-.1-.88-.1Z"/><path class="cls-4" d="M49.87 114.99c1.53-1.02 2.96-3.33 2.98-5.53.02-1.79-.58-3.8-2.18-4.61-.28-.14-.6-.24-.91-.2-.65.09-1.04.74-1.34 1.33-1.09 2.11-2.02 3.72-4.3 5.69 0 0 2.68 2.06 5.75 3.32Z"/><path class="cls-3" d="M49.87 115.37s-.1 0-.14-.03c-3.08-1.26-5.72-3.28-5.83-3.37a.395.395 0 0 1-.15-.29c0-.11.04-.22.13-.29 2.24-1.94 3.16-3.54 4.21-5.58.37-.73.83-1.41 1.62-1.53.34-.05.73.03 1.13.23 1.51.76 2.41 2.61 2.38 4.94-.02 2.45-1.64 4.84-3.15 5.84a.37.37 0 0 1-.21.06Zm-5.15-3.72c.81.58 2.84 1.97 5.1 2.92 1.3-.95 2.63-3 2.65-5.11.02-1.58-.5-3.52-1.97-4.27-.27-.13-.49-.19-.69-.16-.46.07-.78.58-1.06 1.13-1.04 2.01-1.95 3.6-4.04 5.49Z"/><path class="cls-4" d="M61.65 116.3c.89-.38 1.84-2.6 1.5-4.49-.21-1.21-.97-2.37-2.1-2.83s-2.65-.02-3.11 1.12c-.22.54-.19 1.14-.22 1.72-.1 1.98-1.13 3.08-2.5 4.5 0 0 3.62.46 6.44-.02Z"/><path class="cls-3" d="M58.64 116.9c-1.84 0-3.37-.19-3.47-.21a.38.38 0 0 1-.31-.25.357.357 0 0 1 .08-.38c1.28-1.34 2.3-2.4 2.4-4.26v-.32c.03-.5.05-1.02.25-1.52.26-.64.81-1.12 1.53-1.37.68-.23 1.43-.21 2.07.05 1.18.49 2.08 1.68 2.33 3.11.36 2.05-.35 4.33-1.41 4.78-.03.01-.37.14-.4.15-1 .17-2.08.23-3.08.23Zm3.01-.6Zm-5.64-.27c1.19.1 3.56.24 5.53-.09.7-.35 1.55-2.35 1.25-4.07-.21-1.17-.94-2.17-1.88-2.55a2.26 2.26 0 0 0-1.54-.03c-.52.18-.9.51-1.08.95-.15.38-.17.81-.18 1.26v.34c-.11 1.86-.99 3.01-2.09 4.19ZM61.33 67.89c-2.81 0-4.6-1.09-4.7-1.15a.374.374 0 0 1-.12-.52c.11-.18.34-.23.52-.12.03.02 3.14 1.9 7.53.54 4.28-1.33 4.69-3.19 4.69-3.21.04-.2.23-.34.43-.3.2.04.34.22.31.43-.01.09-.42 2.32-5.21 3.8-1.26.39-2.42.54-3.45.54Z"/><path class="cls-4" d="M75.35 65.79s-5.68 3.42-12.12 6.17c0 0 3.23 6.18 9.12 3.91 5.89-2.26 7.25-4.25 7.25-4.25s-1-1.82-2.61-3.95c-.79-1.05-1.63-1.88-1.63-1.88Z"/><path class="cls-3" d="M69.82 76.74c-4.45 0-6.89-4.56-6.92-4.61-.05-.09-.06-.2-.02-.3s.11-.18.21-.22c6.34-2.7 12.02-6.11 12.08-6.14.15-.09.33-.07.46.05.04.03.87.86 1.67 1.92 1.6 2.13 2.6 3.92 2.64 3.99.07.12.06.28-.02.39-.06.08-1.5 2.11-7.43 4.39-.95.37-1.84.52-2.66.52Zm-6.06-4.61c.77 1.25 3.68 5.22 8.45 3.39 4.68-1.8 6.45-3.42 6.93-3.94-.32-.55-1.21-2.02-2.46-3.68-.54-.71-1.1-1.33-1.4-1.63-1.15.68-6.05 3.5-11.53 5.87Z"/><path class="cls-4" d="M82.43 77.16 72.35 81.4s1.63 5.97 6.32 5.06c4-.77 5.66-2.45 5.66-2.45s-.4-4.32-1.9-6.86Z"/><path class="cls-3" d="M77.72 86.93c-4.2 0-5.72-5.37-5.74-5.43-.05-.18.04-.37.22-.44l10.08-4.24c.17-.07.37 0 .47.15 1.53 2.58 1.93 6.84 1.95 7.02.01.11-.03.22-.11.3-.07.07-1.79 1.77-5.86 2.55-.36.07-.69.1-1.02.1Zm-4.92-5.32c.4 1.18 2.05 5.2 5.79 4.48 3.22-.62 4.89-1.85 5.34-2.23-.09-.81-.52-4.07-1.67-6.23l-9.46 3.98Z"/><path class="cls-4" d="M83.93 89.95S78.95 93.67 70 91.68c0 0-.04 1.21.19 2.66.52 3.21 4.79 5.1 7.89 4.13.76-.24 1.5-.59 2.06-1.09 0 0 3.09-3.62 3.79-7.43Z"/><path class="cls-3" d="M76.33 99.1c-1.34 0-2.73-.39-3.92-1.12-1.44-.89-2.36-2.16-2.59-3.58-.24-1.47-.2-2.68-.19-2.73 0-.11.06-.21.15-.28.09-.07.2-.09.31-.07 8.65 1.93 13.57-1.62 13.62-1.66a.371.371 0 0 1 .59.37c-.71 3.86-3.75 7.45-3.88 7.6-.58.53-1.32.92-2.23 1.2-.59.18-1.22.27-1.86.27Zm-5.96-6.96c0 .47.04 1.26.19 2.14.19 1.2.99 2.29 2.24 3.06 1.56.96 3.58 1.26 5.16.77.81-.25 1.45-.59 1.92-1.01s2.54-3.02 3.47-6.35c-1.72.95-6.17 2.8-12.99 1.39Z"/><path class="cls-4" d="M44.9 95.73s-.21 2.76-4.31 4.86c-1.99 1.02-1.36 3.44 0 4.07 1.44.67 2.97.5 5.45-1.76s2.38-2.82 2.38-2.82-1.65-1.71-3.52-4.36Z"/><path class="cls-3" d="M42.03 105.38c-.54 0-1.07-.13-1.6-.37-.85-.4-1.46-1.38-1.48-2.4-.02-1 .52-1.86 1.47-2.35 3.84-1.97 4.1-4.46 4.11-4.56.01-.16.12-.29.28-.33.15-.04.31.02.4.14 1.84 2.59 3.47 4.3 3.49 4.32.05.05.09.12.1.2.11.63-1.3 2.06-2.5 3.16-1.63 1.48-2.98 2.19-4.26 2.19Zm3.04-8.78c-.37 1.04-1.42 2.85-4.31 4.33-.95.48-1.07 1.25-1.06 1.66.01.73.46 1.46 1.05 1.73 1.1.51 2.46.65 5.04-1.7 1.63-1.48 2.09-2.18 2.22-2.44-.4-.44-1.58-1.75-2.94-3.59Z"/><path class="cls-7" d="M66.66 42.22s-.06-.07-.02-.1c.48-.43 4.13-.79 4.44.44.28 1.11-.59 2.31-.83 2.92-.02.05-.08.06-.11.01-.33-.45-1.77-2.38-3.48-3.28Z"/><path class="cls-3" d="M70.19 45.9a.45.45 0 0 1-.36-.19c-.27-.38-1.7-2.29-3.35-3.16l-.17-.09-.09-.44.17-.18c.49-.45 2.7-.69 3.96-.31.77.23 1.02.64 1.1.94.25.99-.27 2.01-.62 2.68-.09.18-.17.34-.23.47l-.08.21-.27.07h-.05Zm-2.79-3.68c1.2.79 2.2 1.95 2.73 2.64 0-.02.02-.04.03-.05.31-.61.74-1.44.56-2.16-.05-.19-.3-.31-.51-.38-.8-.27-2.08-.2-2.81-.04Z"/></svg>