<svg width="16" height="16" viewBox="0 0 16 16" fill="none" xmlns="http://www.w3.org/2000/svg">
<path d="M15.3906 12.9328C16.1219 13.5587 16.2069 14.6593 15.581 15.3906C14.9551 16.1219 13.8545 16.2069 13.1232 15.581C13.0554 15.523 12.9916 15.4593 12.9328 15.3906L8 10.4578L3.06719 15.3906C2.4413 16.1219 1.34067 16.2069 0.609369 15.581C-0.121931 14.9551 -0.206909 13.8545 0.418986 13.1232C0.477 13.0554 0.540733 12.9916 0.609369 12.9328L5.54218 8L0.609369 3.06719C-0.0173431 2.33589 0.068452 1.23526 0.798936 0.609369C1.45179 0.0504759 2.41433 0.0504759 3.06638 0.609369L7.99918 5.54218L12.9328 0.609369C13.5587 -0.121931 14.6593 -0.206909 15.3906 0.418986C16.1219 1.04488 16.2069 2.14551 15.581 2.87681C15.523 2.94463 15.4593 3.00836 15.3906 3.06719L10.4578 8L15.3906 12.9328Z" fill="black"/>
</svg>
